<svg version="1.2" xmlns="http://www.w3.org/2000/svg" viewBox="0 0 24 24" width="24" height="24">
	<title>1dm_plus-svg</title>
	<style>
		.s0 { fill: #000000 } 
	</style>
	<g id="g829">
		<path id="path4" fill-rule="evenodd" class="s0" d="m21.9 2h-1.4v2.1h-2.1v1.4h2.1v2.1h1.4v-2.1h2.1v-1.4h-2.1z"/>
		<path id="path2" fill-rule="evenodd" class="s0" d="m0 17c0-2.2 1.6-4 3.7-4.4v-0.5c0-1.6 1.3-2.9 2.8-2.9 0.8 0 1.5 0.3 2 0.8 0.6-2.2 2.7-3.8 5.1-3.8 2.9 0 5.3 2.4 5.3 5.3v1.1c2.1 0.4 3.7 2.2 3.7 4.4 0 2.4-2 4.4-4.4 4.4h-13.8c-2.4 0-4.4-2-4.4-4.4zm11.1-3.9h-1c-0.3 0-0.5 0.4-0.3 0.6l1.9 2.3c0.2 0.1 0.4 0.1 0.6 0l1.9-2.3c0.2-0.2 0-0.6-0.3-0.6h-1v-2.1c0-0.2-0.2-0.4-0.4-0.4h-1c-0.2 0-0.4 0.2-0.4 0.4zm-3.3 3.2v1.4c0 0.4 0.3 0.7 0.7 0.7h7c0.4 0 0.7-0.3 0.7-0.7v-1.4c0-0.4-0.3-0.7-0.7-0.7h-2.2l-0.6 0.7c-0.4 0.4-1 0.4-1.4 0l-0.6-0.7h-2.2c-0.4 0-0.7 0.3-0.7 0.7zm7.7 1c0 0.2-0.1 0.4-0.3 0.4-0.2 0-0.4-0.2-0.4-0.4 0-0.2 0.2-0.3 0.4-0.3 0.2 0 0.3 0.1 0.3 0.3zm-1.9 0c0-0.2 0.1-0.3 0.3-0.3 0.2 0 0.4 0.1 0.4 0.3 0 0.2-0.2 0.4-0.4 0.4-0.2 0-0.3-0.2-0.3-0.4z"/>
	</g>
</svg>