<svg version="1.2" xmlns="http://www.w3.org/2000/svg" viewBox="0 0 24 24" width="24" height="24">
	<title>Accord-svg</title>
	<style>
		.s0 { fill: #040000 } 
	</style>
	<path id="path_0" class="s0" d="m13.6 10.6c-0.1-0.1-0.1-0.2-0.1-0.2l6.3-8.6c0.5-0.7 0-1.4-0.7-1.4-0.3 0-0.6 0-0.9 0.5l-6.5 9c0 0-0.1 0-0.1 0-3.6-1.2-6.6-3.1-6.3-5.8 0.2-1.3 1.3-2.3 2.6-2.4 1.3-0.1 2.2 0.6 2.9 1.1 0.5 0.4 1.1 0.3 1.4 0.1 0.4-0.4 0.6-1 0-1.6-0.9-0.8-2.2-1.3-3.7-1.3-2.9 0-5 2.4-5.2 4.7-0.3 3.5 2.1 5.7 6.9 7.6 0 0 0.1 0.1 0 0.2l-6.7 9.3c-0.7 0.9-0.1 1.6 0.6 1.6 0.3 0 0.6-0.2 1-0.7l6.8-9.7c0 0 0.1-0.1 0.1 0 5 1.8 7.1 3.9 7.1 6.2 0 1.5-1.4 2.6-2.8 2.6-1.8 0-3-1-3.4-2.2-0.3-0.7-0.9-0.9-1.5-0.8-0.6 0.2-1.2 0.8-1 1.7 0.6 2.2 2.7 3.5 5.4 3.5 3 0 5.4-2.6 5.6-5 0.2-3.2-1.5-6.3-7.8-8.4z"/>
	<path id="path_1" class="s0" d="m4.4 14c0.1 0.4 0.3 0.7 0.7 0.8 0.3 0.2 0.7 0.2 1.1 0.1 0.3-0.1 0.6-0.3 0.8-0.7 0.2-0.3 0.2-0.7 0.1-1-0.1-0.4-0.4-0.7-0.7-0.8-0.3-0.2-0.7-0.2-1.1-0.1-0.4 0.1-0.7 0.3-0.8 0.7-0.2 0.3-0.2 0.7-0.1 1z"/>
	<path id="path_2" class="s0" d="m16.5 9.5c0.1 0.4 0.3 0.7 0.7 0.9 0.3 0.1 0.6 0.2 1 0.1 0.3-0.1 0.7-0.3 0.8-0.6 0.2-0.3 0.3-0.7 0.2-1.1-0.1-0.3-0.3-0.6-0.6-0.8-0.4-0.2-0.7-0.2-1.1-0.1-0.3 0.1-0.6 0.3-0.8 0.6-0.2 0.3-0.3 0.7-0.2 1z"/>
</svg>