<svg version="1.2" xmlns="http://www.w3.org/2000/svg" viewBox="0 0 400 400" width="24" height="24">
	<title>ai_retouch_remove_objects-svg</title>
	<style>
		.s0 { fill: #040404 } 
	</style>
	<g id="svgg">
		<path id="path0" fill-rule="evenodd" class="s0" d="m277.6 13.1c2.4 2 5 4.1 5.8 4.7 0.8 0.5 5.5 4.3 10.4 8.3 4.9 4 9.8 8 10.9 8.8 4.7 3.8 12.8 10.3 19.3 15.6 6.9 5.7 16.5 13.5 35.3 28.7 10 8 10.9 8.8 17.7 14.3 12.5 10.2 17.2 19.3 17.2 33.1-0.1 10.8-2.8 18-10.3 27.2-6.4 7.8-17.1 21.1-18.6 23-0.8 1.1-4.8 6-8.8 10.9-4 4.9-8 9.8-8.9 10.9-0.8 1.1-2.2 2.9-3.1 3.9-0.9 1.1-3.3 4.2-5.5 6.8-2.1 2.6-5 6.2-6.5 8-1.4 1.7-3.4 4.2-4.4 5.4-2.5 3.1-3.1 3.9-5.2 6.6-1 1.2-1.9 2.4-2.1 2.6-0.1 0.1-2.2 2.7-4.7 5.7-2.4 3-4.7 5.8-5 6.1-0.4 0.4-1.3 1.6-2.1 2.6-0.8 1.1-1.6 2.1-1.7 2.2-0.2 0.1-2.3 2.7-4.7 5.7-2.4 3-4.5 5.6-4.6 5.7-0.4 0.3-15.8 19.4-18.5 22.9-1.6 2-10 12.4-14.3 17.6-1.3 1.6-3 3.6-3.7 4.6-0.7 0.9-4.6 5.7-8.6 10.6-8.5 10.5-10.4 12.9-13.2 16.5-2.1 2.8-4.4 4.3-6.1 4.3-1.5 0-2.9-1-14.7-10.6-3.6-2.9-7.3-5.9-8.4-6.8-9.7-7.8-23.7-19.1-26-21.1-2.9-2.5-17.3-14.1-20.8-16.9-1.1-0.8-6-4.8-11-8.8-4.9-4-9.8-8-10.9-8.9-1.1-0.8-6-4.8-10.9-8.8-4.9-4-9.6-7.8-10.3-8.3-0.8-0.6-2.2-1.7-3.2-2.6-1.1-0.9-2.4-2-2.9-2.4-5.5-4.4-17.3-13.9-17.8-14.4-0.4-0.4-1.6-1.3-2.6-2.1-1.1-0.8-2-1.6-2.2-1.7-0.1-0.2-3.9-3.2-8.3-6.8-4.4-3.5-8.5-6.9-9.1-7.4-0.6-0.5-2-1.7-3.2-2.6-4.9-3.7-4.9-5.8-0.1-11.6 1.8-2.2 4-4.9 5-6.1 3.1-4 13.2-16.5 15.4-19.1 1.8-2.1 2.4-2.9 5-6.2 1-1.3 1.9-2.5 2.1-2.6 0.2-0.2 3.2-3.9 6.8-8.3 3.5-4.5 6.6-8.2 6.7-8.4 0.2-0.1 3.2-3.9 6.8-8.3 3.5-4.4 6.5-8.2 6.7-8.3 0.2-0.2 9.8-12 14.1-17.4 0.4-0.5 1.5-1.8 2.3-2.9 2.3-2.7 15.5-19 19.7-24.3 1.7-2.2 10.3-12.8 14.4-17.8 1.3-1.5 2.9-3.6 3.6-4.5 2.2-2.8 14.1-17.5 15.9-19.5 0.8-1 5.8-7.1 10.9-13.5 16.3-20.2 19.9-23.1 32.3-26.3 12.7-3.2 25.1 0.6 38.7 12zm-220.8 207.8c4.2 3.2 12 9.5 25.7 20.7 1.9 1.5 8 6.4 13.5 10.9 5.6 4.5 13.7 11.1 18 14.6 4.3 3.5 9 7.3 10.4 8.5 4.9 3.8 7.5 5.9 13.9 11.1 3.4 2.9 7.3 6 8.4 6.9 5 3.9 21.6 17.3 24.3 19.7 1.1 0.8 2.4 1.9 2.9 2.3 4.6 3.7 17.3 13.9 17.8 14.5 0.4 0.3 1.6 1.3 2.6 2 1.1 0.8 2 1.6 2.2 1.7 0.1 0.2 3.9 3.3 8.3 6.8 15.3 12.3 14.6 11.6 14.6 14.2 0 2-0.5 2.8-5.1 8.5-2.8 3.4-7.9 9.8-11.3 14-11.4 14.2-15.3 17.6-22.7 20.1l-3.8 1.2h-29.7c-38.2 0-34.4 1-52.8-14-3.5-2.9-7.4-6-8.5-6.9-3.8-3-6.9-5.5-13.4-10.8-3.5-2.9-7.3-6-8.5-6.9-3.4-2.7-6.4-5.1-16-12.9-4.9-4-9.8-8-10.9-8.9-28-21.9-32.9-28.8-32.9-45.7 0-12.2 2.4-17.7 13.6-31.4 6.7-8.3 20.3-25 26.3-32.6 2.8-3.5 5.8-6.9 6.6-7.7 2.1-1.9 4-1.8 6.5 0.1zm331.4 160.2c10.3 2.5 9.2 17.3-1.4 18.5-7.5 0.9-158.8 0.1-160.5-0.9-7.1-3.8-6.3-14.6 1.2-17.3 2.4-0.8 157.1-1.1 160.7-0.3z"/>
	</g>
</svg>