<svg version="1.2" xmlns="http://www.w3.org/2000/svg" viewBox="0 0 400 400" width="24" height="24">
	<title>ajio-svg</title>
	<style>
		.s0 { fill: #000000 } 
	</style>
	<g id="svgg">
		<path id="path1" fill-rule="evenodd" class="s0" d="m237.3 3.2c30.1 6.7 50 14.8 73.2 30.1 82.9 54.3 113.1 164.1 69.9 254.2-6.1 12.6-18.1 31.6-20 31.6-0.8 0-37.1-71.5-80.7-158.9-43.7-87.3-79.8-158.8-80.2-158.7-0.4 0.1-36 71-79.2 157.6-43.1 86.7-79.1 158.5-79.9 159.7-5.4 7.7-31-47.7-38.5-83.5-2.5-11.8-2.5-58.7-0.1-69 1-4.1 2.7-11.1 3.7-15.7 18.7-79 85.3-137.2 171.6-149.7 8.6-1.3 51.6 0.4 60.2 2.3zm-37.5 150c0.8 0.2 14 25.6 29.4 56.4l28 56.1-56.8 0.3c-31.3 0.2-57.1 0.1-57.4-0.2-0.3-0.3 12-25.9 27.4-56.8 15.4-31 28.6-56.1 29.4-55.8zm-0.5 180.7c70.1 0 90.6 0.4 92.3 1.7 1.2 1 5.4 8.4 9.3 16.6 3.9 8.2 7.3 15.2 7.5 15.7 1.1 2.1-27.7 16.8-42.8 21.9-45.3 15.3-94.4 14.4-138.1-2.5-12.9-5-32.8-15-34.9-17.6-1.2-1.4 11.2-29.2 15.2-34.1 1.1-1.3 21.1-1.7 91.5-1.7z"/>
	</g>
</svg>