<svg version="1.2" xmlns="http://www.w3.org/2000/svg" viewBox="0 0 240 240" width="24" height="24">
	<title>amazon-svg</title>
	<style>
		.s0 { fill: #000000;stroke: #000000 } 
	</style>
	<path id="path_0" fill-rule="evenodd" class="s0" d="m207.6 197.5c1.4-0.4 2.6-0.7 3.5-0.3 1 0.2 1.5 1.1 1.5 2.4 0 1.3-0.8 2.7-2.1 4.4-1.2 1.5-3.1 3.4-5.8 5.9-2.8 2.4-7.1 5.5-12.9 9.1-5.7 3.6-12 7-18.8 10-6.9 3-15.2 5.6-25.2 7.8-10 2.1-20.2 3.2-30.7 3.2-10.7 0-21.2-1.4-31.9-4.2-10.7-2.8-19.9-6.2-28-10.2-8-4-15.7-8.7-23.1-13.9-7.3-5.3-13.3-10-17.8-14-4.4-4.2-8.1-8.1-11.2-11.8-0.7-0.8-1.2-1.6-1.3-2.2-0.3-0.7-0.2-1.2 0.1-1.5 0.2-0.4 0.6-0.7 1-1 0.5-0.2 1-0.3 1.6-0.2 0.6 0 1.1 0.2 1.6 0.6 17.1 10.4 30.4 17.9 40.1 22.2 34.7 15.7 70.5 19.6 107 12 17.1-3.7 34.5-9.7 52.4-18.3zm27.8-15.3q1.4 2.1 0.3 9.3c-0.7 4.8-2 9.4-3.8 13.7-3 7.5-6.9 13-11.4 16.6-1.6 1.2-2.7 1.6-3.5 1.2q-1.3-0.8 0-3.3c1.9-4 3.8-9.4 6-16.3 2.2-6.8 2.4-11.3 0.8-13.2-0.4-0.6-1-1.2-2-1.5-1-0.4-2.2-0.8-3.6-0.9q-2.2-0.2-4-0.3-1.8-0.2-4.6 0c-2 0.1-3.4 0.2-4.2 0.2-0.9 0.1-2.3 0.2-4.2 0.4-1.9 0.1-2.9 0.2-3 0.2-0.5 0.1-1.1 0.1-1.8 0.2-0.6 0-1.1 0.2-1.5 0.2-0.3 0-0.7 0.1-1 0.1-0.4 0-0.8 0.1-1 0.1h-1.3l-0.4-0.1-0.2-0.3-0.3-0.3c-0.4-1.5 1.6-3.3 6.3-5.4 4.7-2.2 9.3-3.5 13.8-4 4-0.6 8.8-0.7 14.5-0.1 5.5 0.8 8.9 1.9 10.1 3.5zm-52.8-59.3c0 2.8 0.6 5.7 1.8 8.6 1.2 3 2.6 5.5 4.3 7.8q2.5 3.4 5 6.1c1.7 1.9 3.2 3.3 4.5 4.3l1.8 1.4-30.4 30c-3.6-3.3-7-6.7-10.5-10.1-3.5-3.4-6.1-6-7.8-7.8l-2.5-2.6c-1-1-2.1-2.4-3.4-4.4-3.4 5.2-7.8 9.8-13.1 13.6-5.3 3.9-11 6.8-17 8.6-6.1 1.7-12.4 2.7-18.7 3.1-6.5 0.2-12.6-0.7-18.4-2.8-5.8-2.1-11-5-15.7-8.7q-7-5.6-11.1-15.2c-2.8-6.3-4.1-13.6-4.2-21.7 0-7.4 1.2-14.4 3.7-20.6 2.5-6.2 5.7-11.4 9.6-15.6 3.9-4.2 8.6-7.8 14.3-11.1 5.5-3.3 11-5.8 16.4-7.7 5.4-1.8 11.1-3.4 17.4-4.7 6.2-1.2 11.6-2 15.9-2.5 4.5-0.4 8.9-0.7 13.3-0.9v-17c0-5.7-0.9-10.1-2.7-12.9-3-4.7-8.4-7.1-16.2-7.1-0.5 0-1.3 0-2.2 0.1-0.9 0.1-2.7 0.6-5.4 1.6q-3.9 1.4-7.5 3.9-3.4 2.5-7.6 7.9c-2.6 3.8-4.8 8-6.5 12.9l-39.3-3.6c0-5.4 1-10.7 3-16q2.9-7.9 9-15.1c4-4.8 8.9-9.1 14.5-12.7 5.7-3.6 12.4-6.6 20.3-8.8 7.8-2.1 16.3-3.2 25.4-3.2 8.9 0 17 1.1 24.2 3.4 7.2 2.2 13 4.9 17.4 8.2 4.5 3.4 7.9 7 10.8 11.2 2.9 4.2 4.9 8 6 11.5 1.1 3.5 1.7 6.8 1.7 9.8zm-90 2.8c0 7.7 3.2 13.5 9.4 17.7 5.9 4 12.1 5 18.6 3 7.4-2.2 12.6-7.6 15.2-16.4 1.2-4.1 1.9-8.5 1.9-13.5v-21.7c-5.2 0.2-10.2 0.7-14.8 1.5-4.7 0.9-9.4 2.4-14.3 4.4-4.9 2.2-8.8 5.3-11.6 9.5-2.9 4.2-4.4 9.5-4.4 15.5z"/>
</svg>