<svg version="1.2" xmlns="http://www.w3.org/2000/svg" viewBox="0 0 24 24" width="24" height="24">
	<title>amazon_shopping-svg</title>
	<style>
		.s0 { fill: #000000 } 
	</style>
	<path id="path6" fill-rule="evenodd" class="s0" d="m7 0v6c0 0.9 0.8 1.7 1.7 1.7h3.7l4.6-4.6v-3.1h4.4c1.4 0 2.6 1.2 2.6 2.6v18.8c0 1.4-1.2 2.6-2.6 2.6h-18.8c-1.4 0-2.6-1.2-2.6-2.6v-18.8c0-1.4 1.2-2.6 2.6-2.6zm12.9 10.7q-0.6 0.2-1.2 0.5 0 0.1-0.1 0.2-0.1 0 0 0.1 0 0.1 0.1 0.1l0.6-0.1q0.7-0.1 1.3 0 0.2 0 0.5 0c0.1 0.1 0.2 0.2 0.2 0.4q0 0.1 0 0.3 0 0.4-0.1 0.7-0.2 0.7-0.5 1.4 0 0 0 0.1c0 0.1 0 0.2 0.1 0.1q0.1 0 0.2-0.1 0.3-0.3 0.5-0.6 0.7-1.1 0.8-2.3 0-0.2-0.1-0.4 0-0.2-0.2-0.3-0.1 0-0.2-0.1-0.5-0.1-0.9-0.1-0.5 0-1 0.1zm-18.3 0.5q0 0.1 0 0.2 0 0 0.1 0.1 0.3 0.2 0.5 0.4c1.9 1.6 4.1 2.6 6.4 3.1q1.1 0.2 2.2 0.3 0.4 0 0.8 0.1 0.3 0 0.6 0 1.2-0.1 2.4-0.3 2-0.3 3.8-1.2 1-0.4 1.9-1.1 0.1 0 0.1-0.1 0-0.1 0.1-0.1 0-0.3-0.3-0.3-0.1-0.1-0.3 0-0.9 0.4-1.8 0.7-1.8 0.5-3.7 0.7-0.8 0.1-1.6 0.2-1.5 0-3-0.2-1-0.1-2.1-0.3c-2-0.4-3.9-1.2-5.7-2.2q-0.1 0-0.2-0.1-0.1 0-0.2 0.1z"/>
	<path id="path3549" fill-rule="evenodd" class="s0" d="m16 0v2.2h-3c-0.8 0-1.5 0.6-1.5 1.5v3h-2.8c-0.4 0-0.7-0.3-0.7-0.7v-6zm-0.5 3.2l-3 3v-2.5c0-0.3 0.2-0.5 0.5-0.5z"/>
</svg>