<svg version="1.2" xmlns="http://www.w3.org/2000/svg" viewBox="0 0 24 24" width="24" height="24">
	<title>amazon_prime-svg</title>
	<style>
		.s0 { fill: #000000 } 
	</style>
	<g id="g30">
		<path id="path2" class="s0" d="m21.6 20.1q-0.1 0-0.1 0-0.1 0-0.1 0 0 0-0.1 0 0 0-0.1 0-0.2 0.2-0.5 0.3-0.2 0.1-0.5 0.2-0.3 0.1-0.6 0.2-0.2 0.1-0.5 0.2-0.5 0.2-1 0.3-0.6 0.2-1.1 0.3-0.5 0.1-1.1 0.2-0.5 0.1-1 0.2-0.3 0-0.5 0-0.2 0.1-0.5 0.1-0.2 0-0.4 0-0.3 0-0.5 0-0.4 0-0.9 0-0.4 0-0.8 0-0.5 0-0.9 0-0.4-0.1-0.9-0.1-0.3-0.1-0.6-0.1-0.3-0.1-0.5-0.1-0.3-0.1-0.6-0.1-0.3-0.1-0.6-0.2-0.9-0.2-1.8-0.4-0.8-0.3-1.7-0.7-0.8-0.3-1.6-0.7-0.8-0.5-1.6-0.9 0-0.1 0-0.1-0.1 0-0.1 0-0.1 0-0.1 0-0.1 0-0.1 0 0 0-0.1 0 0 0.1 0 0.1 0 0.1 0 0.1 0 0 0 0.1 0 0 0.1 0.1 0.3 0.3 0.6 0.6 0.8 0.7 1.7 1.3 0.8 0.6 1.8 1.1 0.9 0.5 1.9 0.9 1 0.3 2 0.6 0.3 0.1 0.6 0.1 0.3 0.1 0.6 0.1 0.4 0.1 0.7 0.1 0.3 0 0.6 0.1 0.5 0 0.9 0 0.4 0 0.7 0 0.4 0 0.7 0 0.3 0 0.7-0.1 0.3 0 0.7-0.1 0.3 0 0.6-0.1 0.6-0.1 1.2-0.2 0.6-0.2 1.1-0.4 0.6-0.2 1.1-0.4 0.6-0.2 1.1-0.5 0.3-0.2 0.6-0.3 0.2-0.2 0.5-0.3 0.3-0.2 0.5-0.4 0.3-0.2 0.5-0.4 0 0 0.1 0 0 0 0-0.1 0 0 0.1 0 0-0.1 0-0.1 0-0.1 0-0.1 0.1 0 0-0.1 0-0.1 0-0.1 0-0.1-0.1-0.1-0.1-0.1-0.1-0.1z"/>
		<path id="path4" class="s0" d="m23.6 18.6q-0.1 0-0.1 0 0 0-0.1 0 0-0.1 0-0.1-0.1 0-0.1 0-0.2 0-0.3 0-0.1-0.1-0.3-0.1-0.1 0-0.3 0-0.1 0-0.3 0-0.1 0-0.3 0-0.1 0-0.3 0-0.1 0-0.3 0.1-0.1 0-0.3 0-0.1 0.1-0.3 0.1-0.2 0.1-0.4 0.1-0.2 0.1-0.3 0.2-0.2 0.1-0.4 0.2 0 0 0 0.1 0 0-0.1 0 0 0.1 0 0.1-0.1 0-0.1 0 0 0.1 0 0.1 0 0.1 0 0.1 0.1 0 0.1 0 0 0 0 0.1 0 0 0.1 0l0.7-0.1q0.2 0 0.4-0.1 0.2 0 0.4 0 0.2 0 0.4 0 0.2 0 0.4 0 0.1 0 0.2 0 0 0 0.1 0 0.1 0.1 0.1 0.1 0.1 0 0.2 0 0 0 0.1 0.1 0.1 0 0.1 0.1 0 0 0.1 0.1 0 0.1 0 0.1 0 0.1 0 0.1 0 0.1 0 0.1 0 0.1 0 0.1 0 0 0 0.1 0 0.1 0 0.2-0.1 0.1-0.1 0.3 0 0.1 0 0.2-0.1 0.1-0.1 0.2-0.2 0.9-0.6 1.7 0 0.1 0 0.1 0 0.1 0 0.1 0 0 0.1 0.1 0.1 0 0.1 0 0.1-0.1 0.1-0.1 0 0 0.1 0 0.1-0.1 0.2-0.2 0-0.1 0.1-0.2 0.1-0.1 0.2-0.2 0.1-0.2 0.1-0.3 0.2-0.3 0.4-0.6 0.1-0.4 0.2-0.7 0.2-0.4 0.2-0.7 0.1-0.4 0.1-0.8 0 0 0-0.1 0 0 0-0.1 0-0.1 0-0.1 0-0.1 0-0.2 0 0 0-0.1 0 0-0.1-0.1-0.1-0.1-0.1-0.1z"/>
		<path id="path6" class="s0" d="m11.9 6.9h0.9c0.2 0 0.2 0 0.2-0.3v-3.2q0 0 0-0.1 0.1 0 0.1 0 0.1-0.1 0.3-0.1 0.1 0 0.2-0.1 0.1 0 0.3 0 0.1 0 0.3 0 0 0 0.1 0 0.1 0.1 0.1 0.1 0.1 0.1 0.1 0.1 0.1 0.1 0.1 0.2 0 0.1 0 0.1 0 0.1 0 0.1 0 0 0 0.1v2.8c0 0.3 0.1 0.3 0.3 0.3h0.6q0.2 0 0.3 0 0 0 0.1 0 0 0 0-0.1 0.1 0 0.1 0 0-0.1 0-0.1 0 0 0-0.1v-3.2q0-0.1 0-0.1 0.2-0.1 0.3-0.1 0.1 0 0.3-0.1 0.1 0 0.2 0 0.2 0 0.3 0 0.1 0 0.1 0 0.1 0 0.1 0.1 0.1 0 0.1 0.1 0.1 0.1 0.1 0.1 0 0.1 0 0.1 0 0 0 0.1 0 0 0 0.1 0 0 0 0.1v2.8q0 0 0 0.1 0 0 0 0.1 0.1 0 0.1 0 0 0 0 0.1 0.1 0 0.1 0 0 0 0.1 0h0.8c0.3 0 0.3 0 0.3-0.3v-3.1q0-0.1 0-0.2 0-0.3-0.1-0.5-0.1-0.2-0.3-0.4-0.2-0.2-0.4-0.3-0.2-0.1-0.5-0.1-0.1 0-0.3 0.1-0.2 0-0.4 0-0.1 0-0.3 0.1-0.2 0.1-0.3 0.1-0.3 0.2-0.5 0.3 0 0-0.1 0 0-0.1-0.1-0.2-0.1-0.1-0.2-0.1 0-0.1-0.1-0.1-0.1-0.1-0.3-0.1-0.1 0-0.2 0-0.1-0.1-0.2-0.1-0.1 0-0.2 0.1-0.2 0-0.3 0-0.1 0-0.2 0.1-0.2 0-0.3 0.1-0.2 0-0.3 0.1-0.1 0.1-0.2 0.1c-0.1 0.1-0.1 0.1-0.2 0.1q0-0.1-0.1-0.2 0-0.1 0-0.1 0 0 0-0.1-0.1 0-0.1 0 0 0-0.1 0h-0.7q-0.1 0-0.1 0-0.1 0-0.1 0.1 0 0.1 0 0.1v4.3c0 0.2 0 0.2 0.2 0.2z"/>
		<path id="path8" class="s0" d="m5.7 6.9q0.1 0 0.1 0h0.8q0 0 0.1 0 0 0 0.1 0 0 0 0.1 0 0-0.1 0-0.1 0-0.1 0-0.1 0 0 0-0.1v-2.9c0-0.1 0-0.1 0.1-0.2q0.1 0 0.3 0 0.1-0.1 0.3-0.1 0.1 0 0.3 0 0.1 0 0.3 0 0.1 0 0.1 0 0 0 0.1 0 0.1 0 0.1 0 0 0 0-0.1 0.1 0 0.1 0 0-0.1 0-0.1 0-0.1 0-0.1 0 0 0-0.1 0-0.3 0-0.7c0-0.1-0.1-0.2-0.2-0.2q-0.2 0-0.3 0-0.2 0.1-0.3 0.1-0.1 0-0.3 0.1-0.1 0.1-0.2 0.2-0.1 0-0.1 0-0.1 0.1-0.1 0.1 0 0.1-0.1 0.1 0 0-0.1 0.1-0.1 0-0.1 0.1 0-0.3-0.1-0.5 0-0.1 0-0.1 0 0-0.1-0.1 0 0-0.1 0 0 0-0.1 0h-0.5c-0.3 0-0.3 0-0.3 0.3v4.1q0 0.1 0 0.1 0 0 0 0.1 0 0 0 0.1 0.1 0 0.1 0z"/>
		<path id="path10" class="s0" d="m10.3 2.2q-0.4 0-0.9 0-0.2 0-0.2 0.2v2.1q0 1.1 0 2.1 0 0 0 0.1 0 0.1 0 0.1 0.1 0.1 0.1 0.1 0 0 0.1 0h0.9q0.1 0 0.1 0 0.1 0 0.1 0 0-0.1 0-0.1 0-0.1 0-0.2v-4.1q0 0 0-0.1c0-0.2 0-0.2-0.2-0.2z"/>
		<path id="path12" class="s0" d="m9.7 1.4q0 0 0.1 0 0 0 0.1 0 0 0 0.1 0 0 0 0.1 0 0.1 0 0.2 0 0.1-0.1 0.2-0.2 0-0.1 0.1-0.2 0-0.1 0-0.2 0.1-0.1 0-0.2 0-0.1 0-0.3-0.1-0.1-0.2-0.1-0.1-0.1-0.2-0.2-0.1 0-0.1 0 0 0-0.1 0-0.1 0-0.1 0-0.1 0-0.3 0-0.1 0.1-0.3 0.2-0.1 0.1-0.1 0.2-0.1 0.1-0.1 0.3 0 0.1 0 0.2 0 0.2 0.1 0.3 0.1 0.1 0.2 0.1 0.1 0.1 0.3 0.1z"/>
		<path id="path14" fill-rule="evenodd" class="s0" d="m0.3 8.8q-0.1 0-0.1 0-0.1 0-0.1-0.1-0.1 0-0.1 0 0-3.2 0-6.4 0 0 0.1-0.1 0 0 0.1 0 0 0 0.1 0 0 0 0.1 0 0.2 0 0.5 0 0.1 0 0.1 0 0.1 0 0.1 0 0 0.1 0.1 0.1 0 0 0 0.1 0 0.1 0 0.2 0 0 0.1 0 0 0 0-0.1 0.1 0 0.1 0 0.2-0.2 0.4-0.3 0.2-0.1 0.5-0.1 0.2-0.1 0.4-0.1 0.3 0 0.5 0.1 0.2 0 0.4 0.1 0.2 0.1 0.3 0.3 0.2 0.1 0.3 0.3 0.1 0.1 0.2 0.3 0.1 0.1 0.1 0.2 0 0.2 0.1 0.3 0 0.1 0 0.2 0 0.1 0.1 0.2 0 0.2 0 0.4 0 0.2 0 0.4-0.1 0.2-0.1 0.4 0 0.2-0.1 0.3 0 0.2-0.1 0.3 0 0.2-0.1 0.3-0.1 0.1-0.2 0.2-0.1 0.2-0.2 0.3-0.2 0.1-0.3 0.2-0.2 0.1-0.4 0.1-0.2 0.1-0.3 0.1-0.2 0-0.4 0-0.2 0-0.3 0-0.2-0.1-0.3-0.1-0.1-0.1-0.2-0.2-0.2 0-0.3-0.1v1.8c0 0.4 0 0.4-0.4 0.4q-0.3 0-0.6 0-0.1 0-0.1 0zm1.1-3.1q0 0.1 0 0.1 0.1 0 0.1 0 0.1 0.1 0.2 0.1 0.1 0 0.2 0.1 0.1 0 0.2 0 0.2 0 0.3 0 0 0 0.1 0 0.1 0 0.2-0.1 0 0 0.1 0 0.1-0.1 0.1-0.1 0.1-0.1 0.1-0.1 0.1-0.1 0.1-0.1 0-0.1 0.1-0.2 0 0 0-0.1 0-0.1 0.1-0.3 0-0.1 0-0.3 0-0.1 0-0.3 0-0.1 0-0.3 0 0 0-0.1-0.1-0.1-0.1-0.2 0 0 0-0.1 0-0.1-0.1-0.2 0-0.1-0.1-0.1 0-0.1-0.1-0.2-0.1 0-0.2-0.1-0.1 0-0.2 0-0.1 0-0.2 0-0.2 0-0.3 0-0.1 0-0.2 0-0.2 0.1-0.3 0.2-0.1 0-0.1 0 0 0 0 0.1 0 0.6 0 1.1c0 0.1 0 1.2 0 1.2z"/>
		<path id="path16" fill-rule="evenodd" class="s0" d="m20.8 6.8q-0.2-0.1-0.5-0.3-0.2-0.2-0.3-0.4-0.1-0.3-0.2-0.6-0.1-0.2-0.1-0.4 0-0.3 0-0.5 0-0.3 0-0.5 0-0.2 0.1-0.5 0.1-0.3 0.3-0.5 0.1-0.3 0.4-0.5 0.2-0.2 0.5-0.4 0.3-0.1 0.7-0.1 0.1 0 0.3 0 0.1 0 0.3 0 0.1 0 0.3 0 0.1 0.1 0.3 0.1 0.3 0.1 0.5 0.3 0.2 0.2 0.3 0.4 0.1 0.3 0.2 0.6 0 0.3-0.1 0.5 0 0.1-0.1 0.2 0 0.1-0.1 0.2-0.1 0.1-0.2 0.2-0.1 0.1-0.2 0.1-0.1 0.1-0.1 0.1-0.1 0-0.2 0.1-0.1 0-0.2 0-0.1 0-0.2 0-0.2 0.1-0.4 0.1-0.1 0-0.3 0-0.2 0-0.4 0-0.1 0-0.3-0.1-0.1 0-0.1 0 0 0-0.1 0 0 0.2 0.1 0.4 0 0.2 0.1 0.3 0.1 0.2 0.3 0.3 0.2 0.1 0.3 0.1 0.2 0 0.3 0 0.2 0 0.3 0 0.2 0 0.3 0 0.1 0 0.3 0 0.2-0.1 0.5-0.1 0.3-0.1 0.3 0.2 0 0.2 0 0.4 0 0.1 0 0.1-0.1 0.1-0.1 0.1 0 0-0.1 0.1-0.3 0.1-0.6 0.2-0.2 0-0.5 0-0.3 0.1-0.5 0.1-0.3-0.1-0.6-0.1-0.2-0.1-0.5-0.2zm0.2-2.7q0.1 0 0.2 0 0.1 0 0.2 0.1 0.1 0 0.2 0 0.1 0 0.1 0 0.1 0 0.1 0 0.1 0 0.1 0 0.1 0 0.1 0 0.1-0.1 0.1-0.1 0.1 0 0.2 0 0.1 0 0.1-0.1 0.1 0 0.1-0.1 0.1 0 0.1-0.1 0-0.1 0-0.1 0 0 0-0.1 0 0 0-0.1 0-0.1 0-0.2 0 0-0.1-0.1 0 0-0.1-0.1 0 0-0.1 0-0.1-0.1-0.1-0.1-0.1 0-0.1 0 0 0-0.1 0-0.1 0-0.3 0-0.1 0.1-0.3 0.1-0.1 0.1-0.2 0.2-0.1 0.1-0.1 0.3-0.1 0-0.1 0.1 0 0 0 0.1 0 0 0 0.1 0 0-0.1 0.1c0 0.1 0 0.1 0.1 0.1z"/>
		<path id="path18" class="s0" d="m1.7 16.2q0.1 0 0.1 0.1 0 0 0.1 0.1 0 0 0.1 0 0.1 0 0.1 0 0.5 0 0.9 0 0 0 0.1 0 0 0 0.1 0 0-0.1 0.1-0.1 0 0 0-0.1 0 0 0.1-0.1 0.6-1.7 1.2-3.4l0.4-1c0.1-0.2 0.1-0.3-0.2-0.3h-1q-0.1 0-0.1 0-0.1 0.1-0.1 0.1 0 0 0 0.1l-0.1 0.1q-0.4 1.5-0.8 3-0.1 0.2-0.2 0.4-0.4-1.4-0.8-2.7-0.1-0.4-0.2-0.8c0-0.1-0.1-0.2-0.2-0.2q-0.6 0-1.1 0-0.2 0-0.2 0.2 0 0.1 0 0.1 0 0 0.1 0.1 0.6 1.6 1.2 3.1 0.2 0.6 0.4 1.3z"/>
		<path id="path20" class="s0" d="m5.9 11.4c-0.2 0-0.2 0.1-0.2 0.3v4.4q0 0.1 0 0.1 0 0.1 0 0.1 0 0.1 0 0.1 0.1 0 0.1 0 0 0 0.1 0 0.5 0 1 0 0 0 0.1 0 0 0 0.1 0 0-0.1 0-0.1 0 0 0-0.1v-4.5c0-0.2 0-0.3-0.2-0.3z"/>
		<path id="path22" class="s0" d="m7.2 9.7q0-0.1 0-0.2-0.1 0-0.1-0.1-0.1-0.1-0.2-0.2 0 0-0.1-0.1-0.1 0-0.1 0-0.1 0-0.1 0-0.1 0-0.1 0-0.1 0-0.1 0-0.1 0-0.1 0-0.3 0-0.5 0.2-0.2 0.2-0.2 0.5-0.1 0.3 0.1 0.5 0.2 0.2 0.4 0.3 0.1 0 0.1 0 0.1 0 0.1 0 0.2 0 0.4 0 0.2-0.1 0.3-0.2 0.1-0.1 0.2-0.3 0-0.2 0-0.4z"/>
		<path id="path24" fill-rule="evenodd" class="s0" d="m24 14.3q-0.1 0 0 0.1v0.1q-0.1 0.4-0.2 0.7-0.2 0.4-0.5 0.7-0.2 0.3-0.6 0.4-0.3 0.2-0.7 0.2-0.2 0.1-0.3 0.1-0.2 0-0.3 0-0.2 0-0.4-0.1-0.1 0-0.3 0-0.2-0.1-0.5-0.2-0.2-0.1-0.4-0.3-0.2-0.2-0.3-0.4-0.2-0.2-0.3-0.5-0.1-0.3-0.1-0.6-0.1-0.3-0.1-0.6 0-0.3 0.1-0.6 0-0.3 0.1-0.6 0.1-0.3 0.3-0.6 0.2-0.2 0.4-0.4 0.3-0.2 0.5-0.3 0.3-0.1 0.6-0.1 0.2-0.1 0.3-0.1 0.2 0 0.3 0 0.2 0 0.4 0.1 0.1 0 0.3 0 0.3 0.1 0.5 0.2 0.3 0.2 0.5 0.4 0.2 0.2 0.4 0.5 0.1 0.2 0.2 0.5 0 0.1 0 0.1 0 0.1 0 0.1 0.1 0.1 0.1 0.1 0 0.1 0 0.1c0 0.1 0 0.2 0 0.2zm-1.5 0.3q0-0.1 0-0.2 0-0.2 0-0.3 0-0.1 0-0.2 0 0 0-0.1 0-0.1 0-0.1 0-0.1 0-0.1 0-0.1 0-0.2 0-0.1 0-0.2-0.1-0.1-0.1-0.2 0-0.1-0.1-0.1 0-0.1-0.1-0.2 0-0.1-0.1-0.1-0.1-0.1-0.2-0.1-0.1-0.1-0.1-0.1-0.1 0-0.1 0-0.1 0-0.1 0-0.1 0-0.1 0-0.1 0-0.1 0-0.1 0-0.2 0-0.1 0.1-0.2 0.1-0.1 0.1-0.1 0.1-0.1 0.1-0.2 0.2 0 0 0 0.1-0.1 0-0.1 0.1 0 0 0 0.1 0 0.1 0 0.1-0.1 0.2-0.1 0.3 0 0.1 0 0.3 0 0.1 0 0.3 0 0.1 0 0.2 0 0.1 0 0.2 0 0.1 0.1 0.2 0 0.1 0 0.1 0 0.1 0.1 0.2 0 0.1 0.1 0.2 0 0 0.1 0.1 0.1 0.1 0.2 0.1 0.1 0.1 0.2 0.1 0 0 0.1 0 0 0 0.1 0 0 0 0.1 0 0 0 0.1 0 0 0 0.1 0 0.1-0.1 0.2-0.1 0.1-0.1 0.1-0.1 0.1-0.1 0.2-0.2 0 0 0-0.1 0 0 0.1 0 0-0.1 0-0.1 0-0.1 0-0.1 0.1-0.1 0.1-0.2zm1.5-1.1zm0-0.1z"/>
		<path id="path26" fill-rule="evenodd" class="s0" d="m8 13.7q0-0.2 0.1-0.4 0-0.2 0-0.4 0.1-0.1 0.2-0.3 0-0.2 0.1-0.4 0.1-0.1 0.2-0.3 0.2-0.1 0.3-0.3 0.2-0.1 0.4-0.2 0.2-0.1 0.5-0.1 0.2-0.1 0.5-0.1 0.3 0 0.6 0.1 0.2 0.1 0.4 0.3 0.1 0 0.2 0v-2.2c0-0.2 0-0.3 0.3-0.3h0.9c0.2 0 0.2 0.1 0.2 0.3v6.8c0 0.2 0 0.2-0.2 0.2q-0.3 0-0.7 0c-0.1 0-0.2 0-0.2 0q-0.1 0-0.1 0 0-0.1 0-0.1-0.1 0-0.1-0.1 0 0 0-0.1 0-0.1 0-0.1c-0.1 0-0.1 0.1-0.2 0.1q-0.2 0.2-0.4 0.3-0.3 0.1-0.5 0.1-0.3 0.1-0.5 0-0.3 0-0.5-0.1-0.2 0-0.4-0.1-0.1-0.1-0.3-0.2-0.1-0.2-0.3-0.3-0.1-0.2-0.1-0.4-0.1-0.1-0.2-0.3 0-0.1-0.1-0.3 0-0.2 0-0.4-0.1-0.2-0.1-0.3 0-0.2 0-0.4zm1.5-0.3q0 0.1 0 0.3 0 0.1 0 0.3 0 0.1 0 0.3 0 0.1 0 0.2 0.1 0 0.1 0.1 0 0.1 0 0.2 0.1 0.1 0.1 0.1 0 0.1 0.1 0.2 0.1 0.1 0.2 0.2 0.1 0 0.2 0.1 0.1 0 0.2 0 0.1 0 0.2 0 0.2 0 0.3 0 0.1 0 0.3-0.1 0.1 0 0.2-0.1 0.1 0 0.1 0 0-0.1 0-0.1 0 0 0-0.1c0-0.4 0-1.9 0-2.3q0 0 0-0.1 0 0-0.1-0.1-0.1-0.1-0.2-0.1-0.2 0-0.3 0-0.1-0.1-0.2-0.1-0.2 0-0.3 0-0.1 0-0.2 0.1-0.1 0-0.2 0.1-0.1 0-0.2 0.1 0 0.1-0.1 0.2 0 0.1-0.1 0.1 0 0.1 0 0.1 0 0 0 0.1 0 0.1-0.1 0.3z"/>
		<path id="path28" fill-rule="evenodd" class="s0" d="m16.3 14.4q-0.2 0-0.4 0-0.1 0-0.3 0-0.2-0.1-0.3-0.1 0 0-0.1 0 0 0 0 0.1 0 0 0 0.1 0 0 0 0.1 0.1 0 0.1 0.1 0 0.1 0.1 0.3 0.1 0.1 0.2 0.2 0.1 0.1 0.2 0.2 0.2 0 0.3 0.1 0.2 0 0.4 0 0.1 0 0.3 0 0.2 0 0.3 0 0.2 0 0.3-0.1 0.3 0 0.5-0.1 0.2-0.1 0.2 0.2c0 0 0 0.5 0 0.6q0 0.1 0 0.1 0 0-0.1 0.1 0 0-0.1 0-0.2 0.1-0.3 0.1-0.2 0.1-0.4 0.1-0.2 0-0.3 0.1-0.2 0-0.4 0-0.1 0-0.2 0-0.2 0-0.3 0-0.1 0-0.2-0.1-0.1 0-0.3 0-0.2-0.1-0.4-0.2-0.3-0.1-0.5-0.3-0.2-0.2-0.3-0.4-0.2-0.2-0.2-0.5-0.1-0.3-0.2-0.5 0-0.3 0-0.6 0-0.3 0-0.5 0.1-0.3 0.1-0.6 0.1-0.3 0.4-0.6 0.2-0.4 0.5-0.6 0.3-0.2 0.6-0.3 0.4-0.1 0.8-0.1 0.1 0 0.2 0 0.2 0 0.3 0 0.1 0 0.2 0 0.1 0.1 0.3 0.1 0.1 0.1 0.3 0.2 0.2 0.1 0.3 0.2 0.2 0.2 0.3 0.4 0.1 0.1 0.1 0.3 0 0.1 0 0.2 0 0.1 0 0.2 0 0.1 0 0.2 0 0.1 0 0.1 0 0.2-0.1 0.3 0 0.1-0.1 0.3-0.1 0.1-0.2 0.2-0.1 0-0.2 0.1-0.2 0.1-0.3 0.1-0.1 0.1-0.3 0.1-0.1 0-0.2 0.1-0.2 0-0.3 0-0.2 0-0.3 0zm-1-1q0.1 0.1 0.2 0.1 0.1 0 0.2 0 0.1 0 0.2 0 0.1 0 0.2 0 0 0 0.1 0 0 0 0.1 0 0 0 0.1 0 0 0 0.1 0 0.1 0 0.2-0.1 0 0 0.1 0 0.1-0.1 0.1-0.2 0.1 0 0.1-0.1 0-0.2 0-0.3 0-0.1 0-0.2-0.1-0.2-0.2-0.2-0.1-0.1-0.3-0.1 0 0-0.1 0-0.1 0-0.2 0-0.2 0-0.3 0-0.1 0.1-0.2 0.2-0.1 0-0.2 0.1-0.1 0.1-0.1 0.2 0 0.1-0.1 0.2 0 0.1 0 0.2-0.1 0.1-0.1 0.1 0 0.1 0.1 0.1z"/>
	</g>
</svg>