<svg version="1.2" xmlns="http://www.w3.org/2000/svg" viewBox="0 0 24 24" width="24" height="24">
	<title>aniyomi-svg</title>
	<style>
		.s0 { fill: #000000 } 
	</style>
	<path id="path" fill-rule="evenodd" class="s0" d="m12 24c-6.6 0-12-5.4-12-12 0-6.6 5.4-12 12-12 6.6 0 12 5.4 12 12 0 6.6-5.4 12-12 12zm10.2-12c0-5.6-4.6-10.2-10.2-10.2-5.6 0-10.2 4.6-10.2 10.2 0 5.6 4.6 10.2 10.2 10.2 5.6 0 10.2-4.6 10.2-10.2z"/>
	<path class="s0" d="m8.6 12v-4c0-0.6 0.6-1 1.1-0.7l6.9 4.1c0.5 0.3 0.5 1 0 1.3l-6.9 4.1c-0.5 0.3-1.1-0.1-1.1-0.7z"/>
</svg>