<svg version="1.2" xmlns="http://www.w3.org/2000/svg" viewBox="0 0 108 108" width="24" height="24">
	<title>aosp_cam-svg</title>
	<style>
		.s0 { fill: #000000 } 
	</style>
	<path id="path_0" fill-rule="evenodd" class="s0" d="m75.4 11.5c3.4 0 6.6 1.9 8.1 5l4.3 8.5 14.9 6.6c3.2 1.5 5.3 4.7 5.3 8.2v43.7c0 5-4 9-9 9h-14.3c10-6.9 16.6-18.4 16.6-31.5 0-21.1-17.2-38.3-38.3-38.3-21.1 0-38.3 17.2-38.3 38.3 0.1 13.1 6.6 24.6 16.6 31.5h-32.3c-5 0-9-4-9-9v-42.4c0-4.1 2.9-7.8 6.9-8.7l31.3-7.4 4.3-8.5c1.5-3.1 4.7-5 8.1-5zm-59.7 31.5c0-2.5-2-4.5-4.5-4.5-2.5 0-4.5 2-4.5 4.5 0 2.5 2 4.5 4.5 4.5 2.5 0 4.5-2 4.5-4.5z"/>
	<path id="path_1" class="s0" d="m31.5 61c0-8.4 3.3-16.4 9.2-22.3 5.9-5.9 13.9-9.2 22.3-9.2 8.4 0 16.4 3.3 22.3 9.2 5.9 5.9 9.2 13.9 9.2 22.3 0 8.4-3.3 16.4-9.2 22.3-5.9 5.9-13.9 9.2-22.3 9.2-8.4 0-16.4-3.3-22.3-9.2-5.9-5.9-9.2-13.9-9.2-22.3z"/>
</svg>