<svg version="1.2" xmlns="http://www.w3.org/2000/svg" viewBox="0 0 400 400" width="24" height="24">
	<title>apktoolm-svg</title>
	<style>
		.s0 { fill: #000000 } 
		.s1 { fill: #a1d4ed } 
	</style>
	<g id="svgg">
		<path id="path0" fill-rule="evenodd" class="s0" d="m78.6 90.3c1.7 1.8 2.7 3.4 10.8 17.6 1.9 3.3 4.1 7 4.8 8.3 0.8 1.2 1.5 2.6 1.7 3 0.2 0.4 0.6 1.1 0.9 1.5 0.3 0.4 1.2 1.9 2 3.4 0.7 1.5 1.7 3.2 2.2 3.9 0.9 1.5 3.8 6.3 5.4 9.2 7.8 14 7.3 13.5 12.4 11.2 3.9-1.7 13.3-5.3 17.2-6.5 30.7-9.3 62.4-12.3 90.2-8.4 20.1 2.9 36.1 7.1 52.8 14 7.3 3 7.1 3 9.6-1.6 1.1-1.9 2.9-5 3.9-6.7 1-1.8 2.6-4.5 3.5-6.1 0.8-1.6 1.8-3.3 2.2-3.7 0.4-0.4 0.7-0.9 0.7-1.1 0-0.2 0.5-1.2 1.1-2.2 0.6-1 1.7-2.8 2.4-4 0.6-1.2 2.5-4.4 4-7 1.6-2.7 3.7-6.3 4.7-8.1 10.5-18.6 12.1-20.3 16.7-17.6 4.3 2.5 4.4 5.5 0.6 12.1-1.6 2.6-4.9 8.4-7.4 12.7-2.6 4.4-6.2 10.6-8.1 13.9-1.9 3.3-4 7-4.7 8.2-0.6 1.2-1.3 2.4-1.5 2.6-0.2 0.3-0.9 1.5-1.6 2.7-0.7 1.2-2.7 4.7-4.5 7.8-1.7 3.1-3.2 5.9-3.2 6.2 0 0.4 7.5 5.2 9.5 6 0.2 0.1 0.7 0.4 1 0.6 0.2 0.2 1.9 1.3 3.6 2.5 7.7 5 14.9 10.5 21.5 16.1 3.4 3.1 17.6 17.4 19.7 20.1 1.1 1.3 2.4 2.8 2.9 3.4 1.4 1.4 8.5 11.1 11.4 15.4 16.1 23.9 28.1 55.6 31.6 83.6 0.2 1.3 0.5 2.6 0.7 2.9 0.2 0.2 0.5 1.6 0.6 2.9l0.1 2.4-200 0.2-200 0.1v-1.7c0-0.9 0.2-1.8 0.4-1.9 0.3-0.2 0.6-1.8 0.8-3.6 1.3-13.3 8.4-39.6 14.1-51.9 0.7-1.5 1.3-2.9 1.3-3.1 0-0.6 8.4-17.1 10.6-20.7 11.4-18.8 26-36.4 40.8-48.8 1.1-0.9 2.4-2.1 2.9-2.6 1.3-1.1 9.6-7.4 12.7-9.5 1.4-1 2.7-1.9 2.9-2.1 0.8-0.6 8.5-5.4 12.4-7.6 4.4-2.6 4.4-2.3-0.7-10.8-2.2-3.8-4.1-7-4.1-7.1 0-0.2-0.5-1.1-1.1-2.1-0.7-1-1.7-2.8-2.4-4-1.4-2.4-16.2-27.9-19.4-33.5-3.2-5.5-3-9.3 0.7-11.4 2.6-1.5 4.7-1.2 6.7 0.9zm192.5 101.2c-0.5 0.7-1 2.7-2.1 9.7l-0.5 3.8-2.3 1.1c-1.2 0.6-2.8 1.5-3.5 1.9-1.7 1.2-3.2 1.1-5.6-0.1-1.2-0.5-2.3-0.9-2.6-0.9-0.3 0-0.9-0.3-1.5-0.5-0.5-0.3-1.4-0.7-1.9-1-3.4-1.7-3.6-1.5-10.7 10.9-0.5 0.9-1.3 2.3-1.9 3.2-2.2 3.8-2.1 4 4.1 8.7 5 3.8 4.8 3.3 4.7 8.6v4.4l-3.3 2.6c-6.2 4.8-6.5 5.1-6.8 6-0.3 0.9 0 1.7 3 6.8 0.6 0.9 2.2 3.7 3.6 6.1 3.9 6.8 3.1 6.6 11.3 3.3l5.7-2.3 1.4 1c0.7 0.5 2.4 1.6 3.8 2.3l2.5 1.4 0.6 4.2c1.5 10.5 0.6 9.8 12.8 9.8 11.8 0 10.9 0.6 12.1-7.5 0.6-3.6 1.2-6.5 1.6-6.7 0.3-0.2 2.1-1.3 3.9-2.4l3.4-2 5.8 2.3c7.8 3.1 7.2 3.3 11.6-4.4 0.5-0.8 2-3.4 3.3-5.7 3.9-6.6 4.1-5.9-2.8-11.3l-4.5-3.6-0.1-4.5v-4.6l3.4-2.7c1.9-1.5 4.2-3.3 5.1-3.9 2.1-1.6 2.1-3.5 0.1-6.5-0.7-1.1-1.6-2.6-2-3.3-4.7-9.2-7.1-11.6-10.1-10.2-0.6 0.2-1.7 0.7-2.4 1-3 1.2-3.9 1.6-4.7 2-1.4 0.7-3.3 0.5-4.7-0.5-0.7-0.5-2.3-1.4-3.6-2l-2.2-1.2-0.6-3.9c-0.9-5.9-1.5-8.7-2-9.4-0.8-0.9-20.6-0.9-21.4 0zm18 30.2c16.4 8.3 9.5 33-8.8 31.4-18.4-1.5-20.6-28.2-2.6-32.7 2.4-0.6 9.2 0.1 11.4 1.3zm-192.8 29.4c6.7 6.7 17.2 6.7 23.7-0.1 7.9-8.1 5.6-21.5-4.6-26.5-16.9-8.3-32.4 13.3-19.1 26.6z"/>
		<path id="path5" fill-rule="evenodd" class="s1" d="m323.1 88c0.4 0 0 0.5-1.9 1.9l-2.1 1.6 1.9-1.8c1.1-0.9 2-1.7 2.1-1.7zm8.8 6c0.1 0.4 0.1 1.2 0 1.7-0.2 0.4-0.3 0.1-0.3-0.9 0-0.9 0.1-1.3 0.3-0.8zm-138.8 37.5c1.7 0 2.4 0.1 1.6 0.2-0.9 0.2-2.3 0.2-3.2 0-0.9-0.1-0.2-0.2 1.6-0.2zm14.1 0c1.8 0 2.5 0.1 1.6 0.2-0.9 0.2-2.3 0.2-3.2 0-0.8-0.1-0.1-0.2 1.6-0.2zm-22.7 0.5c1.9 0 2.6 0.1 1.6 0.2-1 0.1-2.5 0.1-3.4 0-0.9-0.1 0-0.2 1.8-0.2zm31 0c2 0 2.8 0.1 1.8 0.2-1 0.1-2.6 0.1-3.6 0-1-0.1-0.2-0.2 1.8-0.2zm-118.4 14.3q0.5 0.9-0.5-0.3c-0.6-0.7-1-1.4-1-1.7 0-0.5 0.6 0.4 1.5 2zm206-0.3c0.4 0 0 0.9-0.9 2l-1 1.2 0.9-1.6c0.5-0.9 0.9-1.6 1-1.6zm31.1 35.2l1.5 1.6-1.6-1.4c-0.9-0.8-1.6-1.5-1.6-1.6 0-0.4 0.4 0 1.7 1.4zm-268-0.6c0.3 0 0 0.4-1.5 1.8l-1.6 1.4 1.5-1.6c0.8-0.9 1.5-1.6 1.6-1.6zm-7.8 7.3c0.3 0-0.1 0.5-2.9 3.2l-3.1 2.9 2.9-3c1.6-1.7 3-3.1 3.1-3.1zm282.9 0c0.1 0 1.8 1.6 3.6 3.5 1.9 1.8 3.3 3.4 3.2 3.4-0.2 0-1.8-1.6-3.6-3.4-1.9-1.9-3.3-3.5-3.2-3.5zm-51.4 3.7h-18.1l-0.6 1.2c-0.3 0.7-0.6 0.9-0.6 0.5 0-0.3 0.4-1 0.8-1.5 1.6-1.8 12.9-1.5 18.5-0.2zm1.9 0l0.4 0.8c-0.6-0.3-1.4-0.6-2.3-0.8zm0.4 0.8c0.5 0.2 0.8 0.5 0.8 0.9 0 0.4-0.2 0.3-0.6-0.5zm-240.1 2.4c0.3 0 0 0.4-1.7 2l-1.9 1.7 1.7-1.8c1-1 1.8-1.9 1.9-1.9zm241.8 3.1c0.1 0.4 0.1 1.3 0 1.9-0.1 0.6-0.2 0.3-0.2-0.8 0-1.1 0.1-1.6 0.2-1.1zm-23.9 0.5c0.1 0.4 0.1 1.2 0 1.7-0.1 0.4-0.2 0.1-0.2-0.9 0-0.9 0.1-1.3 0.2-0.8zm25.1 6.2c0.3 0.4 1 1 1.4 1.4 0.5 0.6 0.4 0.6-0.5 0-0.7-0.4-1.3-1.1-1.4-1.5-0.2-0.5-0.1-0.5 0.5 0.1zm22.7 3.2c0.6 0.6 5.5 8.9 5.5 9.3 0 0.5-2.3-3.2-4.4-6.9-0.9-1.6-1.4-2.7-1.1-2.4zm-58.1 1.5c1.7 0.4 2.1 0.7 0.9 0.6-0.5 0-1.3-0.2-1.7-0.5-0.5-0.3-0.3-0.4 0.8-0.1zm45.1 0.2c-0.5 0.2-1.2 0.4-1.8 0.4-0.8 0-0.7-0.1 0.3-0.4 1.7-0.6 2.3-0.6 1.5 0zm-61.3 2.9c-0.4 0.9-0.8 1.4-1 1.3-0.1-0.1 0.1-0.8 0.6-1.5 1.1-1.7 1.4-1.6 0.4 0.2zm121.5 3c0.6 1 1.2 2 1.2 2.2 0 0.2-0.6-0.4-1.2-1.4-0.7-1-1.3-2-1.3-2.2 0-0.2 0.6 0.4 1.3 1.4zm-125.9 4.7c-0.8 1.4-1.5 2.4-1.6 2.3-0.1-0.1 0.4-1.2 1.2-2.4 1.7-3 2-2.9 0.4 0.1zm42.7-0.8c1.2 0 1.7 0.1 1.1 0.3-0.6 0.1-1.6 0.1-2.2 0-0.6-0.2-0.1-0.3 1.1-0.3zm42.7-0.1c0.3 0 1.8 3 1.6 3.2-0.1 0.1-0.6-0.6-1-1.5-0.5-0.9-0.7-1.7-0.6-1.7zm-82.2 8.2c0.9 0.9 0.3 0.5-1.5-0.9-1.8-1.4-3.3-2.7-3.3-2.9 0-0.4 1.4 0.7 4.8 3.8zm50.3-4.3c0.1 0 1 0.8 1.9 1.7 0.9 1 1.6 1.7 1.4 1.7-0.1 0-1-0.7-1.9-1.7-0.9-0.9-1.5-1.7-1.4-1.7zm33.6 0.5c0 0.2-1.5 1.5-3.3 2.9-1.8 1.4-2.3 1.7-1.1 0.7 1.2-1.1 2.6-2.4 3.1-2.9 1.3-1.3 1.3-1.3 1.3-0.7zm-81.2 5.8c2.2 1 3.3 2.8 3.1 4.7l-0.2 1.9-0.1-2c-0.1-1.7-0.4-2.3-1.9-3.6-1-0.8-1.4-1.3-0.9-1zm74.3-0.4c0.1 0-0.5 0.6-1.5 1.5l-1.8 1.5v4.7 4.7l1.5 1.4c0.9 0.7 1.3 1.2 0.9 1-2.6-1.3-2.9-2.1-2.9-7.1v-4.7l1.7-1.5c0.9-0.9 1.9-1.5 2.1-1.5zm-71.4 9l0.2 1.6c0.1 1.2-0.1 1.9-0.7 2.5-0.5 0.4-0.6 0.4-0.3 0.1 0.3-0.4 0.6-1.5 0.7-2.5zm-4.9 7.5c-2.8 2.4-5.8 4.6-4.7 3.5 0.6-0.6 2.1-2 3.4-3 2.8-2.1 3.5-2.5 1.3-0.5zm76.2-1.6l1.7 1.4c2.7 2.3 2.7 2.4 1.7 1.8-0.6-0.2-1.6-1.1-2.2-1.8zm-51.4 3.1c0.1 0 1 0.8 1.9 1.7 0.9 1 1.5 1.7 1.4 1.7-0.1 0-1-0.7-1.9-1.7-0.9-0.9-1.5-1.7-1.4-1.7zm27.7 0.7c0 0-0.7 0.8-1.6 1.5l-1.5 1.5 1.4-1.6c1.3-1.5 1.7-1.8 1.7-1.4zm28.1-0.4l1.4 1.3c0.8 0.7 1.3 1.4 1.2 1.5-0.1 0.1-0.7-0.5-1.4-1.3zm-84.9 5.5c0.4 0.8 0.7 1.6 0.5 1.6-0.3 0-1.7-2.8-1.7-3.3 0-0.5 0.2-0.1 1.2 1.7zm86.4 0.1c0.3 0-2.8 5.4-3.4 6.1-0.5 0.5 1.9-4.4 2.7-5.5 0.3-0.3 0.6-0.6 0.7-0.6zm-85 2.4c0.4 0.3 0.8 0.8 0.8 1.1 0 0.2 0.9 1.8 1.9 3.5 2.2 3.5 3.6 6.2 3.3 6.2-0.2 0-3.1-5-5.8-9.7-0.7-1.4-0.8-1.6-0.2-1.1zm81.1 4.4c0.2 0-1.8 3.6-2.4 4.2-0.5 0.4 0.9-2.3 1.7-3.6 0.3-0.3 0.6-0.6 0.7-0.6zm-60.2 3.9c0.5 0 5.3 3 5.3 3.2 0 0.3-2.3-0.9-4.2-2.2-0.8-0.5-1.3-1-1.1-1zm41.6 0.1c0.6-0.1-0.3 0.5-4.2 2.7-1.7 1-3.3 2-3.5 2.3q-0.4 0.5-0.3-0.1c0.1-0.3 1.8-1.6 3.8-2.7 2-1.2 3.9-2.2 4.2-2.2zm4.8 1.4c1.1 0.5 1.4 0.8 0.8 0.6-0.7-0.1-1.8-0.5-2.5-0.9-1.8-1-0.5-0.7 1.7 0.3zm10.2 0.9c-0.4 0.8-0.9 1.6-1.1 1.8-0.4 0.2 0.2-1.1 1.1-2.6 0.7-1.1 0.7-0.6 0 0.8zm-23.7 7c0.1 0.5 0.1 1.2 0 1.7-0.1 0.5-0.2 0.1-0.2-0.8 0-1 0.1-1.4 0.2-0.9zm-23.9 0.7c0.1 0.6 0.1 1.6 0 2.2-0.1 0.6-0.2 0.1-0.2-1.1 0-1.2 0.1-1.7 0.2-1.1zm23.4 2.8c0.1 0.1 0.1 1.1-0.1 2.2-0.2 1.1-0.4 2-0.5 1.8-0.2-0.1-0.1-1.1 0.1-2.2 0.1-1.1 0.4-1.9 0.5-1.8zm-11.5 5.8c4.6 0 6.6 0.1 4.2 0.2-2.3 0.1-6.2 0.1-8.5 0-2.4-0.1-0.4-0.2 4.3-0.2z"/>
	</g>
</svg>