<svg version="1.2" xmlns="http://www.w3.org/2000/svg" viewBox="0 0 24 24" width="24" height="24">
	<title>appmanager-svg</title>
	<style>
		.s0 { fill: #000000 } 
	</style>
	<path class="s0" d="m9.4 14.6q1 1 2.6 1 1.6 0 2.6-1 1-1 1-2.6 0-1.6-1-2.6-1-1-2.6-1-1.6 0-2.6 1-1 1-1 2.6 0 1.6 1 2.6z"/>
	<path fill-rule="evenodd" class="s0" d="m21.6 0c1.3 0 2.4 1.1 2.4 2.4v19.2c0 1.3-1.1 2.4-2.4 2.4h-19.2c-1.3 0-2.4-1.1-2.4-2.4v-19.2c0-1.3 1.1-2.4 2.4-2.4zm-6.8 18.6q0.4-0.2 0.8-0.4 0.4-0.2 0.7-0.6l2.8 1.2 2.4-4-2.4-1.8q0.1-0.5 0.1-1 0-0.5-0.1-1l2.4-1.8-2.4-4-2.8 1.2q-0.3-0.4-0.7-0.6-0.4-0.2-0.8-0.4l-0.4-3h-4.8l-0.4 3q-0.4 0.2-0.8 0.4-0.4 0.2-0.7 0.6l-2.8-1.2-2.4 4 2.4 1.8q-0.1 0.5-0.1 1 0 0.5 0.1 1l-2.4 1.8 2.4 4 2.8-1.2q0.3 0.4 0.7 0.6 0.4 0.2 0.8 0.4l0.4 3h4.8z"/>
</svg>