<svg version="1.2" xmlns="http://www.w3.org/2000/svg" viewBox="0 0 24 24" width="24" height="24">
	<title>aurora_store-svg</title>
	<style>
		.s0 { fill: #000000 } 
		.s1 { fill: none;stroke: #000000;stroke-linecap: round;stroke-width: 2 } 
	</style>
	<path id="rect1346" fill-rule="evenodd" class="s0" d="m22.2 8.6c1.2 0 2.1 1.1 1.7 2.3l-2.6 9.7c-0.2 0.7-0.8 1.2-1.5 1.2h-15.6c-0.7 0-1.3-0.5-1.5-1.2l-2.6-9.7c-0.4-1.2 0.5-2.3 1.7-2.3zm-10.7 2.7c-0.5 0.3-0.7 0.9-0.4 1.4l3.6 6c0.3 0.5 0.9 0.7 1.4 0.4 0.5-0.3 0.7-0.9 0.4-1.4l-3.6-6c-0.1-0.3-0.4-0.5-0.6-0.5q-0.2-0.1-0.3-0.1-0.3 0.1-0.5 0.2zm-3.3 5.3q0.1 0 0.2-0.1h2.2l1.1-1.7-1.1-1.8q-0.1-0.1-0.2-0.2zm-0.8 1.6c0 0.6 0.5 1 1.1 1h5.9q-0.1-0.1-0.1-0.2l-1.2-1.9h-4.6c-0.6 0-1.1 0.5-1.1 1.1z"/>
	<path id="path1934" fill-rule="evenodd" class="s1" d="m7.2 10.4l4.8-8.4"/>
	<path id="path2034" class="s0" d="m14.1 3.2l-1.4 2.4 3.1 5.4q0.1 0.2 0.3 0.3 0.2 0.2 0.4 0.3 0.2 0 0.5 0 0.2 0 0.4-0.2 0.2-0.1 0.3-0.3 0.2-0.2 0.3-0.4 0-0.2 0-0.5 0-0.2-0.2-0.4z"/>
</svg>