<svg version="1.2" xmlns="http://www.w3.org/2000/svg" viewBox="0 0 108 108" width="24" height="24">
	<title>ayugram-svg</title>
	<style>
		.s0 { fill: #000000 } 
	</style>
	<g id="g_0">
		<path class="s0" d="m63.5 9.8c-0.9-1.6-3.4-0.6-3 1.2l15.2 70.1c0.1 0.7 0.8 1.3 1.6 1.3h28.8c1.3 0 2.1-1.5 1.4-2.6z"/>
		<path class="s0" d="m57.1 97.7c0 1.6 2 2.3 3 1l9.4-12.3c0.3-0.4 0.4-0.9 0.3-1.4l-9.4-43.6c-0.4-1.9-3.3-1.6-3.3 0.4z"/>
		<path class="s0" d="m44.2 9.8c1-1.6 3.4-0.6 3 1.2l-15.1 70.1c-0.2 0.7-0.9 1.3-1.6 1.3h-28.8c-1.3 0-2.1-1.5-1.4-2.6z"/>
		<path class="s0" d="m50.6 97.7c0 1.6-2 2.3-3 1l-9.4-12.3c-0.3-0.4-0.4-0.9-0.3-1.4l9.4-43.6c0.4-1.9 3.3-1.6 3.3 0.4z"/>
	</g>
</svg>