<svg version="1.2" xmlns="http://www.w3.org/2000/svg" viewBox="0 0 24 24" width="24" height="24">
	<title>bitwarden-svg</title>
	<style>
		.s0 { fill: #000000 } 
	</style>
	<path fill-rule="evenodd" class="s0" d="m21.8 0.4q0.1 0.1 0.1 0.2 0.1 0.1 0.1 0.2 0 0.1 0 0.2v12q0 0.3 0 0.7-0.1 0.3-0.1 0.7-0.1 0.3-0.2 0.6-0.1 0.3-0.2 0.7-0.1 0.3-0.3 0.6-0.1 0.3-0.3 0.6-0.2 0.3-0.3 0.6-0.2 0.2-0.4 0.5-0.2 0.3-0.4 0.5-0.3 0.3-0.5 0.5-0.2 0.3-0.5 0.5-0.2 0.3-0.5 0.5-0.2 0.2-0.4 0.4-0.3 0.2-0.5 0.4-0.3 0.2-0.5 0.4-0.3 0.2-0.5 0.4-0.9 0.7-1.9 1.2-1 0.6-1.4 0.8-0.4 0.2-0.7 0.3 0 0-0.1 0 0 0.1-0.1 0.1 0 0-0.1 0 0 0-0.1 0-0.1 0-0.1 0-0.1 0-0.1 0-0.1 0-0.1-0.1-0.1 0-0.1 0-0.3-0.1-0.7-0.3-0.4-0.2-1.4-0.8-1-0.5-1.9-1.2-0.2-0.2-0.5-0.4-0.2-0.2-0.5-0.4-0.2-0.2-0.5-0.4-0.2-0.2-0.4-0.4-0.3-0.2-0.5-0.5-0.3-0.2-0.5-0.5-0.2-0.2-0.5-0.5-0.2-0.2-0.4-0.5-0.2-0.3-0.4-0.5-0.1-0.3-0.3-0.6-0.2-0.3-0.3-0.6-0.2-0.3-0.3-0.6-0.1-0.4-0.2-0.7-0.1-0.3-0.2-0.6 0-0.4-0.1-0.7 0-0.4 0-0.7v-12q0-0.2 0.1-0.4 0.1-0.2 0.2-0.3 0.1-0.1 0.3-0.2 0.2-0.1 0.4-0.1h18q0.1 0 0.2 0 0.1 0 0.2 0.1 0.1 0 0.2 0.1 0 0 0.1 0.1 0.1 0.1 0.1 0.1zm-2.4 2.2h-7.4v18.6c0 0 7.4-3.7 7.4-8.1z"/>
</svg>