<svg version="1.2" xmlns="http://www.w3.org/2000/svg" viewBox="0 0 400 400" width="24" height="24">
	<title>blue_light_filter-svg</title>
	<style>
		.s0 { fill: #040404 } 
		.s1 { fill: #080404 } 
	</style>
	<g id="svgg">
		<path id="path0" fill-rule="evenodd" class="s0" d="m274 6.8c2.1 0 3.6 0.2 3.6 0.4 0 0.2 0.7 0.4 1.6 0.4 1.3 0 1.6 0.1 1.6 0.8 0 0.7 0.3 0.8 2 0.8 1.2 0 2.1 0.2 2.3 0.5 0.2 0.3 1.1 0.7 2.1 0.8 1 0.1 1.9 0.5 2.1 0.9 0.2 0.3 0.7 0.6 1.1 0.6 1.2 0 2 0.4 2 1 0 0.3 0.4 0.6 0.8 0.6 0.4 0 0.8 0.2 0.8 0.6 0 0.3 0.6 0.6 1.4 0.8 0.8 0.1 1.4 0.5 1.4 0.8 0 0.4 0.4 0.6 1 0.6 0.6 0 1.3 0.4 1.7 0.8 0.4 0.4 0.9 0.8 1.2 0.8 0.3 0 0.6 0.3 0.8 0.6 0.1 0.3 0.8 0.7 1.5 0.8 0.8 0.2 1.4 0.5 1.4 0.8 0 0.4 0.4 0.6 0.8 0.6q0.8 0 0.8 0.8c0 0.6 0.3 0.8 1.4 0.8 1.1 0 1.4 0.2 1.4 0.8 0 0.6 0.3 0.8 1.4 0.8 1 0 1.4 0.2 1.4 0.6 0 0.4 0.4 0.6 1 0.6 1.3 0 2.2 0.4 2.2 1 0 0.3 0.3 0.6 0.6 0.6 0.4 0 0.8 0.4 0.9 0.8 0.1 0.6 0.5 0.8 1.3 0.8 0.8 0 1.2 0.2 1.4 0.8 0.1 0.4 0.5 0.8 0.8 0.8 0.3 0 0.7 0.6 0.8 1.4 0.3 1.3 0.4 1.4 1.6 1.4 1.1 0 1.4 0.2 1.4 0.8 0 0.6 0.3 0.8 1.2 0.8 0.7 0 1.3 0.2 1.5 0.6 0.1 0.3 0.5 0.6 0.9 0.6 0.5 0 0.8 0.3 0.8 0.8q0 0.8 0.8 0.8 0.8 0 0.8 0.8 0 0.8 0.8 0.8c0.4 0 0.8 0.2 0.8 0.6 0 0.3 0.5 0.6 1 0.8 1.1 0.2 4.6 3.5 4.6 4.2 0 0.2 0.3 0.4 0.6 0.4 0.3 0 0.7 0.3 0.8 0.6 0.2 0.3 0.6 0.6 1 0.7 0.5 0.1 0.8 0.5 0.8 0.8 0 0.3 0.4 0.7 0.8 0.8 0.4 0.1 0.8 0.5 0.8 0.9 0 0.3 0.3 0.6 0.6 0.6 0.3 0 0.6 0.3 0.6 0.6 0 0.3 0.4 0.6 0.8 0.6q0.8 0 0.8 0.8c0 0.5 0.3 0.8 0.6 0.8 0.4 0 0.8 0.4 0.9 0.8 0.1 0.4 0.4 0.8 0.7 0.8 0.4 0 0.6 0.4 0.6 0.8 0 0.4 0.2 0.8 0.4 0.8 0.5 0 4 3.4 4 3.9 0 0.2 0.4 0.5 0.8 0.6 0.6 0.2 0.8 0.6 0.8 1.5 0 0.9 0.2 1.2 0.8 1.2q0.8 0 0.8 0.8 0 0.8 0.8 0.8c0.4 0 0.8 0.3 0.8 0.6 0 0.3 0.3 0.6 0.6 0.6 0.3 0 0.6 0.3 0.6 0.7 0 0.4 0.4 0.9 0.8 1.2 0.4 0.3 0.8 0.9 0.8 1.5 0 0.6 0.3 1.1 0.8 1.4 0.5 0.3 0.8 0.8 0.8 1.6 0 1.1 0.1 1.2 1.2 1.2 0.8 0 1.2 0.2 1.4 0.8 0.1 0.4 0.5 0.8 0.8 0.8 0.6 0 1 0.9 1 2 0 0.5 0.3 0.8 0.6 0.8 0.4 0 0.8 0.4 0.9 0.8 0.1 0.4 0.4 0.8 0.7 0.8q0.6 0 0.6 1.4c0 1.1 0.2 1.4 0.8 1.4 0.4 0 0.8 0.3 0.8 0.6 0 0.3 0.4 1 0.8 1.4 0.4 0.4 0.8 1.2 0.8 1.6 0 0.5 0.3 0.9 0.6 1.1 0.3 0.1 0.6 0.7 0.6 1.4 0 0.8 0.2 1.2 0.8 1.4 0.6 0.1 0.8 0.5 0.8 1.5 0 1.1 0.2 1.4 0.8 1.4 0.5 0 0.8 0.3 0.8 0.8 0 0.4 0.3 0.8 0.6 0.9 0.3 0.2 0.6 0.7 0.6 1.3 0 0.6 0.3 1.1 0.8 1.4 0.5 0.3 0.8 0.8 0.8 1.6q0 1.2 0.6 1.2c0.3 0 0.8 0.5 1 1 0.2 0.5 0.6 1 0.8 1 0.2 0 0.5 0.6 0.6 1.4 0.2 0.7 0.5 1.4 0.8 1.6q0.6 0.2 0.6 2.2c0 1.7 0.1 2 0.8 2 0.7 0 0.8 0.3 0.8 2.2 0 1.9 0.1 2.2 0.8 2.2 0.6 0 0.8 0.3 0.8 1.4 0 1 0.2 1.4 0.6 1.4 0.4 0 0.6 0.5 0.6 1.8 0 1.3 0.2 2 0.8 2.5 0.4 0.4 0.8 0.8 0.8 1 0 0.2 0.4 0.7 0.8 1.1q0.8 0.8 0.8 2.4c0 1.1 0.2 1.6 0.5 1.6q0.6 0 0.8 2.1c0.1 1.3 0.4 2.1 0.8 2.4 0.5 0.2 0.7 0.9 0.7 2.5 0 1.6 0.1 2.2 0.6 2.2 0.7 0 1 0.9 1 3.4 0 1.6 0.1 2.2 0.6 2.2 0.8 0 1 0.9 1 4.4 0 2.6 0.1 3.2 0.6 3.2 0.5 0 0.6 0.7 0.6 3.6 0 3.2 0.1 3.5 0.8 3.7 0.8 0.2 0.8 0.6 0.8 6.1 0 3.6 0.2 5.8 0.4 5.8 0.3 0 0.4 8.9 0.4 25.8 0 16.9-0.1 25.8-0.4 25.8-0.2 0-0.4 2.2-0.4 5.8 0 5.4 0 5.8-0.8 6-0.7 0.2-0.8 0.6-0.8 3.8 0 2.9-0.1 3.6-0.6 3.6-0.5 0-0.6 0.6-0.6 3.4 0 3-0.1 3.4-0.8 3.8-0.6 0.3-0.8 0.8-0.8 2.6 0 2.5-0.3 3.4-1 3.4-0.5 0-0.6 0.6-0.6 2.2 0 1.6-0.1 2.2-0.6 2.2-0.5 0-1 1.6-1 3.4 0 0.5-0.3 1-0.6 1.1-0.4 0.2-0.6 0.8-0.6 1.7q0 2.6-1 2.6c-0.3 0-0.6 0.4-0.6 0.8 0 0.4-0.2 0.8-0.6 0.8-0.6 0-1 1.2-1 3.1 0 0.8-0.2 1.4-0.6 1.6-0.4 0.1-0.6 0.7-0.6 1.5 0 1.1-0.2 1.4-0.8 1.4-0.7 0-0.8 0.3-0.8 2 0 1.7-0.1 2.1-0.8 2.3-0.7 0.2-0.8 0.5-0.8 2.2q0 1.9-0.6 2.1c-0.3 0.2-0.6 0.9-0.8 1.6-0.1 0.8-0.5 1.4-0.8 1.4-0.3 0-0.6 0.4-0.6 0.8q0 0.8-0.8 0.8c-0.6 0-0.8 0.3-0.8 1.3q0 1.3-0.8 1.8c-0.4 0.3-0.8 0.9-0.8 1.5 0 0.5-0.2 1.1-0.5 1.3-0.3 0.2-0.7 0.6-0.8 1-0.2 0.4-0.6 0.7-0.9 0.7-0.4 0-0.6 0.4-0.6 1.4 0 1.1-0.2 1.4-0.8 1.4-0.6 0-0.8 0.3-0.8 1.2 0 0.7-0.3 1.3-0.6 1.4-0.3 0.2-0.6 0.9-0.8 1.6-0.1 0.8-0.4 1.4-0.6 1.4-0.2 0-0.6 0.4-0.8 1-0.2 0.5-0.7 1-1 1-0.4 0-0.6 0.4-0.6 1.4q0 1.4-0.6 1.4c-0.3 0-0.7 0.4-0.8 0.8-0.1 0.4-0.5 0.8-0.8 0.8-0.3 0-0.6 0.4-0.6 0.8 0 1.1-2.5 3.6-3.6 3.6-0.6 0-0.8 0.3-0.8 1.2 0 0.9-0.2 1.3-0.8 1.5-0.6 0.1-0.8 0.5-0.8 1.4 0 0.8-0.2 1.2-0.8 1.4-0.4 0.1-0.8 0.5-0.8 0.9 0 0.5-0.3 0.8-0.6 0.8-0.3 0-0.6 0.4-0.6 0.8q0 0.8-0.8 0.8-0.8 0-0.8 0.8 0 0.8-0.8 0.8c-0.6 0-0.8 0.3-0.8 1.2 0 0.9-0.2 1.3-0.8 1.5-0.4 0.1-0.8 0.4-0.8 0.7 0 0.3-0.4 0.7-0.8 0.8-0.4 0.1-0.8 0.5-0.8 0.8 0 0.3-0.3 0.6-0.6 0.6-0.3 0-0.6 0.3-0.6 0.6 0 0.4-0.4 0.8-0.8 0.9-0.4 0.1-0.8 0.5-0.8 0.9 0 0.5-0.3 0.8-0.6 0.8-0.3 0-0.6 0.3-0.6 0.6 0 0.4-0.4 0.8-0.8 0.9-0.4 0.1-0.8 0.4-0.8 0.7 0 0.4-0.4 0.6-0.8 0.6q-0.8 0-0.8 0.8c0 0.4-0.3 0.8-0.6 0.8-0.3 0-0.6 0.3-0.6 0.6 0 0.4-0.4 0.8-0.8 0.9-0.4 0.1-0.8 0.4-0.8 0.7 0 0.4-0.4 0.6-0.8 0.6-0.5 0-0.8 0.3-0.8 0.6 0 0.4-0.4 0.8-0.8 0.9-0.4 0.1-0.8 0.4-0.8 0.7 0 0.3-0.4 0.7-0.8 0.8-0.4 0.1-0.8 0.5-0.8 0.8 0 0.3-0.3 0.6-0.6 0.6-0.3 0-0.7 0.4-0.8 0.8-0.2 0.6-0.6 0.8-1.4 0.8-0.9 0-1.2 0.2-1.2 0.8q0 0.8-0.8 0.8-0.8 0-0.8 0.8 0 0.8-0.8 0.8c-0.4 0-0.8 0.3-0.8 0.6 0 0.3-0.3 0.6-0.8 0.6-0.4 0-0.8 0.4-0.9 0.8-0.2 0.6-0.6 0.8-1.4 0.8-0.9 0-1.3 0.2-1.4 0.8-0.2 0.6-0.6 0.8-1.5 0.8-0.9 0-1.2 0.2-1.2 0.8 0 1.1-2.4 3.6-3.5 3.6-0.6 0-0.9 0.2-0.9 0.6 0 0.4-0.3 0.8-0.8 0.9-0.4 0.1-0.8 0.4-1 0.7-0.1 0.3-0.7 0.6-1.4 0.6-0.8 0-1.2 0.2-1.4 0.8-0.2 0.6-0.6 0.8-1.6 0.8-1.1 0-1.4 0.2-1.4 0.8 0 0.5-0.3 0.8-0.8 0.8-0.4 0-0.8 0.3-0.9 0.6-0.2 0.3-0.7 0.6-1.3 0.6q-1.1 0-1.3 0.8c-0.1 0.6-0.5 0.8-1.5 0.8-1 0-1.4 0.2-1.4 0.6 0 0.3-0.5 0.8-1 1-0.5 0.2-1 0.5-1 0.7 0 0.2-0.6 0.5-1.4 0.7-0.8 0.1-1.4 0.5-1.4 0.8 0 0.4-0.4 0.6-1.4 0.6-1.1 0-1.4 0.2-1.4 0.8 0 0.4-0.3 0.8-0.6 0.8-0.3 0-1 0.4-1.4 0.8-0.4 0.4-1.2 0.8-1.6 0.8-0.5 0-0.9 0.3-1.1 0.6-0.1 0.4-0.8 0.6-2.1 0.6-1.6 0-1.9 0.1-2.1 0.8-0.2 0.7-0.6 0.8-2.2 0.8-1.7 0-2 0.1-2.2 0.8-0.2 0.6-0.6 0.8-1.7 0.8q-1.4 0-1.4 0.5c0 0.6-1.6 1.1-3.5 1.1-0.5 0-0.9 0.2-0.9 0.6 0 0.3-0.4 0.6-0.8 0.6-0.4 0-0.8 0.3-0.8 0.6 0 0.7-0.9 1-2.8 1-1.1 0-1.6 0.2-1.6 0.6 0 0.6-1.2 1-3.1 1-0.9 0-1.3 0.2-1.3 0.6 0 0.5-0.5 0.6-2.1 0.6-1.7 0-2.2 0.2-2.6 0.8-0.4 0.7-0.9 0.8-3.1 0.8-2 0-2.6 0.1-2.6 0.6 0 0.8-0.9 1-4.2 1-2.2 0-3 0.1-3.1 0.6-0.2 0.5-1 0.6-3.9 0.6-3.3 0-3.6 0.1-3.6 0.8 0 0.8-0.3 0.8-5.8 0.8-3.6 0-5.8 0.2-5.8 0.4 0 0.3-8.9 0.4-26 0.4-17.1 0-26-0.1-26-0.4 0-0.2-2.2-0.4-5.8-0.4-5.5 0-5.8 0-5.8-0.8 0-0.7-0.3-0.8-3.6-0.8-2.9 0-3.7-0.1-3.9-0.6-0.1-0.5-0.9-0.6-3.1-0.6-3.3 0-4.2-0.2-4.2-1 0-0.5-0.6-0.6-2.6-0.6-2.2 0-2.7-0.1-3.1-0.8-0.4-0.6-0.9-0.8-2.6-0.8-1.6 0-2.1-0.1-2.1-0.6 0-0.4-0.4-0.6-1.3-0.6-1.9 0-3.1-0.4-3.1-1 0-0.4-0.5-0.6-1.6-0.6-1.9 0-2.8-0.3-2.8-1 0-0.3-0.4-0.6-0.8-0.6-0.4 0-0.8-0.3-0.8-0.6 0-0.4-0.4-0.6-1-0.6-1.8 0-3.4-0.5-3.4-1.1q0-0.5-1.4-0.5c-1.1 0-1.5-0.2-1.7-0.8-0.2-0.7-0.5-0.8-2.2-0.8-1.6 0-2-0.1-2.2-0.8-0.2-0.7-0.5-0.8-2.1-0.8-1.3 0-2-0.2-2.1-0.6-0.2-0.3-0.6-0.6-1.1-0.6-0.4 0-1.2-0.4-1.6-0.8-0.4-0.4-1.1-0.8-1.4-0.8-0.3 0-0.6-0.4-0.6-0.8 0-0.6-0.3-0.8-1.4-0.8-1 0-1.4-0.2-1.4-0.6 0-0.3-0.6-0.7-1.4-0.8-0.8-0.2-1.4-0.5-1.4-0.7 0-0.2-0.4-0.5-1-0.7-0.6-0.2-1-0.7-1-1 0-0.4-0.4-0.6-1.4-0.6-1 0-1.4-0.2-1.5-0.8q-0.2-0.8-1.3-0.8c-0.6 0-1.1-0.3-1.3-0.6-0.1-0.3-0.5-0.6-0.9-0.6-0.5 0-0.8-0.3-0.8-0.8 0-0.6-0.3-0.8-1.4-0.8-1 0-1.4-0.2-1.6-0.8-0.2-0.6-0.6-0.8-1.4-0.8-0.7 0-1.3-0.3-1.4-0.6-0.2-0.3-0.6-0.6-1-0.7-0.5-0.1-0.8-0.5-0.8-0.9 0-0.4-0.3-0.6-0.9-0.6-1.1 0-3.5-2.5-3.5-3.6 0-0.6-0.3-0.8-1.2-0.8-0.9 0-1.3-0.2-1.5-0.8-0.1-0.6-0.5-0.8-1.4-0.8-0.8 0-1.2-0.2-1.4-0.8-0.1-0.4-0.5-0.8-0.9-0.8-0.5 0-0.8-0.3-0.8-0.6 0-0.3-0.4-0.6-0.8-0.6q-0.8 0-0.8-0.8 0-0.8-0.8-0.8-0.8 0-0.8-0.8c0-0.6-0.3-0.8-1.2-0.8-0.8 0-1.2-0.2-1.4-0.8-0.1-0.4-0.5-0.8-0.8-0.8-0.3 0-0.6-0.3-0.6-0.6 0-0.3-0.4-0.7-0.8-0.8-0.4-0.1-0.8-0.5-0.8-0.8 0-0.3-0.4-0.6-0.8-0.7-0.4-0.1-0.8-0.5-0.8-0.9 0-0.3-0.3-0.6-0.8-0.6-0.4 0-0.8-0.2-0.8-0.6 0-0.3-0.4-0.6-0.8-0.7-0.4-0.1-0.8-0.5-0.8-0.9 0-0.3-0.3-0.6-0.6-0.6-0.3 0-0.6-0.4-0.6-0.8q0-0.8-0.8-0.8c-0.4 0-0.8-0.2-0.8-0.6 0-0.3-0.4-0.6-0.8-0.7-0.4-0.1-0.8-0.5-0.8-0.9 0-0.3-0.3-0.6-0.6-0.6-0.3 0-0.6-0.3-0.6-0.8 0-0.4-0.4-0.8-0.8-0.9-0.4-0.1-0.8-0.5-0.8-0.9 0-0.3-0.3-0.6-0.6-0.6-0.3 0-0.6-0.3-0.6-0.6 0-0.3-0.4-0.7-0.8-0.8-0.4-0.1-0.8-0.5-0.8-0.8 0-0.3-0.4-0.6-0.8-0.7-0.6-0.2-0.8-0.6-0.8-1.5 0-0.9-0.2-1.2-0.8-1.2q-0.8 0-0.8-0.8 0-0.8-0.8-0.8-0.8 0-0.8-0.8c0-0.4-0.3-0.8-0.6-0.8-0.3 0-0.6-0.3-0.6-0.8 0-0.4-0.4-0.8-0.8-0.9-0.6-0.2-0.8-0.6-0.8-1.4 0-0.9-0.2-1.3-0.8-1.4-0.6-0.2-0.8-0.6-0.8-1.5 0-0.9-0.2-1.2-0.8-1.2-1.1 0-3.6-2.5-3.6-3.6 0-0.4-0.3-0.8-0.6-0.8-0.3 0-0.7-0.4-0.8-0.8-0.1-0.4-0.5-0.8-0.8-0.8-0.3 0-0.6-0.4-0.6-0.8 0-0.4-0.3-0.8-0.6-0.8-0.6 0-1-0.8-1-2 0-0.4-0.3-0.9-0.6-1.1-0.4-0.2-0.8-1.1-0.9-2.2-0.1-1.2-0.4-1.9-0.8-1.9-0.3 0-0.5-0.4-0.5-0.8q0-0.8-0.8-0.8c-0.6 0-0.8-0.3-0.8-1.4 0-1-0.2-1.4-0.6-1.4-0.4 0-0.8-0.3-0.9-0.8-0.1-0.4-0.4-0.8-0.7-1-0.3-0.1-0.6-0.6-0.6-1.2 0-0.6-0.3-1.2-0.8-1.5q-0.8-0.5-0.8-1.8c0-1-0.2-1.3-0.8-1.3q-0.8 0-0.8-0.8c0-0.4-0.3-0.8-0.6-0.8-0.3 0-0.7-0.6-0.8-1.4-0.2-0.7-0.5-1.4-0.8-1.6q-0.6-0.2-0.6-2.2c0-1.6-0.1-2-0.6-2-0.4 0-0.8-0.3-0.9-0.8-0.1-0.4-0.4-0.8-0.7-1-0.7-0.2-0.8-2.1-0.1-2.3 0.3-0.2 0.2-0.2-0.2-0.3-0.5 0-0.7-0.4-0.7-1.6 0-1.2-0.2-1.6-0.6-1.6-1.3 0-0.6-6.6 0.7-6.7 0.8-0.1 1.1 0 1.1 0.5 0 0.5 0.5 0.6 2.8 0.6 2.5 0 2.9 0.1 3.1 0.8 0.1 0.6 0.5 0.8 1.7 0.8q1.6 0 1.6 0.5c0 0.4 0.7 0.7 2 0.9 1.2 0.1 2.1 0.5 2.3 0.8 0.1 0.4 0.9 0.6 2.7 0.6 2.2 0 2.6 0.1 3 0.8 0.2 0.4 0.7 0.8 1 0.8 0.4 0 0.7 0.3 0.9 0.6 0.1 0.4 0.8 0.6 2.8 0.6 2.2 0 2.6 0.1 2.8 0.8 0.2 0.7 0.5 0.8 4.6 0.8 4 0 4.4 0.1 4.6 0.8 0.2 0.7 0.5 0.8 5.1 0.8 4 0 5 0.1 5.1 0.6 0.2 0.5 1.1 0.6 4.6 0.6 8.1 0 14.5 0.5 14.5 1.1 0 0.8 11.9 0.7 12.6-0.1 0.3-0.4 2.3-0.6 9.7-0.8 7.2-0.3 9.3-0.4 9.5-0.9 0.1-0.4 1.3-0.5 5-0.5 4.3 0 4.9-0.1 5.6-0.8 0.7-0.7 1.3-0.8 4.6-0.8 3 0 3.8-0.1 3.8-0.6 0-0.7 0.9-1 3.6-1 1.9 0 2.4-0.1 2.4-0.6 0-0.4 0.4-0.6 1.4-0.6 1 0 1.5-0.2 1.8-0.8 0.3-0.6 0.8-0.8 2.4-0.8 1.5 0 2-0.2 2-0.6 0-0.4 0.6-0.7 2-0.8 1.1-0.2 2-0.5 2.2-0.8 0.1-0.4 0.9-0.6 2.3-0.6 1.9 0 2.2-0.1 2.4-0.8 0.2-0.7 0.6-0.8 2.2-0.8 1.7 0 2-0.1 2.2-0.8 0.2-0.7 0.6-0.8 2.3-0.8 1.4 0 2-0.2 2-0.6 0-0.6 0.8-1 2-1 0.4 0 0.9-0.3 1.2-0.6 0.3-0.4 1.2-0.6 2.2-0.6 1.4 0 1.7-0.2 1.9-0.8 0.2-0.6 0.6-0.8 1.7-0.8 1 0 1.4-0.2 1.4-0.6 0-0.3 0.3-0.6 0.6-0.6 0.3 0 0.8-0.4 1-0.8 0.3-0.5 0.8-0.8 1.6-0.8 0.8 0 1.2-0.2 1.3-0.8 0.2-0.6 0.6-0.8 1.5-0.8 0.8 0 1.2-0.2 1.2-0.6 0-0.6 0.9-1 2.2-1 0.6 0 1-0.2 1-0.6 0-0.4 0.4-0.6 1.4-0.6 1.1 0 1.4-0.2 1.4-0.8 0-0.6 0.3-0.8 1.4-0.8 1.1 0 1.4-0.2 1.4-0.8q0-0.8 0.8-0.8c0.4 0 0.8-0.2 0.8-0.5 0-0.4 0.6-0.7 1.6-0.9 1-0.1 1.6-0.4 1.6-0.8 0-0.4 0.4-0.6 1.4-0.6 1.1 0 1.4-0.2 1.4-0.8q0-0.8 0.8-0.8c0.4 0 0.8-0.2 0.8-0.4 0-0.5 1.8-2.4 2.3-2.4 0.1 0 0.5-0.4 0.8-0.8 0.3-0.4 0.9-0.8 1.5-0.8 0.6 0 1-0.3 1.1-0.8 0.1-0.4 0.5-0.8 0.9-0.8 0.3 0 0.6-0.3 0.6-0.6 0-0.3 0.4-0.6 0.8-0.6 0.4 0 0.8-0.3 0.8-0.6 0-0.6 0.8-1 2-1 0.4 0 0.8-0.4 0.9-0.8 0.2-0.6 0.6-0.8 1.7-0.8 1.1 0 1.4-0.1 1.4-0.8 0-0.4 0.3-0.8 0.6-0.8 0.3 0 0.6-0.4 0.8-1 0.2-1 2-3 2.6-3 0.2 0 0.4-0.4 0.5-0.8 0.1-0.4 0.5-0.8 0.9-0.8 0.3 0 0.6-0.3 0.6-0.6 0-0.6 0.8-1 2-1 0.4 0 0.8-0.4 0.9-0.8 0.1-0.4 0.5-0.8 0.9-0.8 0.3 0 0.6-0.3 0.6-0.6 0-0.4 0.4-0.6 1.4-0.6 1.1 0 1.4-0.2 1.4-0.8q0-0.8 0.8-0.8c0.6 0 0.8-0.3 0.8-1.2 0-0.7 0.3-1.3 0.6-1.4 0.3-0.2 0.7-0.6 0.8-1 0.1-0.5 0.5-0.8 0.8-0.8 0.3 0 0.6-0.4 0.6-0.8q0-0.8 0.8-0.8c0.6 0 0.8-0.3 0.8-1.2 0-0.9 0.2-1.3 0.8-1.5 0.4-0.1 0.8-0.3 0.8-0.5 0-0.5 1.9-2.4 2.4-2.4 0.2 0 0.4-0.4 0.5-0.8 0.2-0.6 0.6-0.8 1.5-0.8 0.9 0 1.2-0.2 1.2-0.8q0-0.8 0.8-0.8c0.6 0 0.8-0.3 0.8-1.4 0-1.1 0.2-1.4 0.8-1.4 0.6 0 0.8-0.3 0.8-1.4 0-0.8 0.2-1.4 0.6-1.5 0.3-0.2 0.6-0.5 0.6-0.9 0-0.3 0.4-0.7 0.8-0.8 0.4-0.1 0.8-0.5 0.8-0.8 0-0.3 0.4-0.6 0.8-0.6 0.6 0 0.8-0.3 0.8-1.2 0-0.8 0.3-1.3 0.8-1.6 0.4-0.2 0.8-0.7 0.8-1 0-0.3 0.3-0.6 0.6-0.6 0.3 0 0.6-0.3 0.6-0.6 0-0.4 0.4-0.8 0.8-0.9 0.4-0.1 0.8-0.5 0.8-0.9 0-0.5 0.3-0.8 0.8-0.8 0.6 0 0.8-0.3 0.8-1.4 0-1 0.2-1.4 0.6-1.4q0.6 0 0.6-1.2c0-0.8 0.3-1.3 0.8-1.6 0.4-0.2 0.8-0.7 0.8-1 0-0.3 0.4-0.6 0.8-0.6 0.7 0 0.8-0.3 0.8-1.6 0-1.2 0.2-1.6 0.6-1.6 0.3 0 0.6-0.3 0.6-0.8 0-1.2 0.4-2 1-2 0.3 0 0.6-0.3 0.6-0.8 0-1.2 0.4-2 1-2q0.6 0 0.6-1.4c0-1.1 0.2-1.5 0.8-1.7 0.6-0.1 0.8-0.5 0.8-1.3 0-0.6 0.2-1.3 0.5-1.5 0.3-0.2 0.7-0.6 0.8-1 0.2-0.4 0.6-0.7 0.9-0.7 0.4 0 0.6-0.4 0.6-1.4 0-1.1 0.2-1.4 0.8-1.4 0.7 0 0.8-0.3 0.8-2.2 0-1.7 0.1-2.2 0.6-2.2 0.4 0 0.6-0.4 0.6-1.4 0-1.1 0.2-1.5 0.8-1.7 0.7-0.2 0.8-0.5 0.8-2.2 0-1.6 0.1-2 0.8-2.2 0.7-0.2 0.8-0.5 0.8-2.2 0-1.3 0.2-2 0.6-2.2 0.4-0.1 0.6-0.7 0.6-1.4 0-1.9 0.4-3.1 1-3.1 0.4 0 0.6-0.5 0.6-1.3 0-1.9 0.4-3.1 1-3.1 0.5 0 0.6-0.7 0.6-2.6 0-2.2 0.1-2.7 0.8-3.1 0.4-0.3 0.8-0.7 0.8-1 0-0.3 0.3-0.6 0.6-0.8 0.5-0.1 0.6-0.9 0.6-3 0-2.4 0.1-2.8 0.8-3 0.7-0.2 0.8-0.5 0.8-4.1 0-3.6 0.1-4 0.8-4.4 0.7-0.4 0.8-0.8 0.8-5.2 0-3.6 0.1-4.8 0.6-5.1 0.4-0.2 0.5-2.2 0.7-9.6 0.1-8.3 0.2-9.4 0.8-9.8 1.1-0.5 1-11.8 0-12.5-0.6-0.5-0.7-1.4-0.8-6.8-0.1-5-0.3-6.3-0.7-6.5-0.8-0.3-0.8-2.1 0-2.4 0.4-0.1 0.6-0.7 0.6-1.7 0-1.2-0.2-1.6-0.6-1.6-0.5 0-0.6-0.8-0.6-5.2 0-4.9 0-5.2-0.8-5.2-0.8 0-0.8-0.3-0.8-4.4 0-4-0.1-4.3-0.8-4.5-0.7-0.2-0.8-0.6-0.8-3.1 0-2.2-0.1-2.8-0.6-2.8-0.3 0-0.6-0.3-0.6-0.6 0-0.3-0.4-0.8-0.8-1-0.7-0.4-0.8-0.8-0.8-3.2 0-2.1-0.1-2.8-0.6-2.8-0.6 0-1-0.9-1-2.4 0-0.7-0.4-1.6-0.8-2-0.4-0.4-0.8-1.2-0.8-1.8 0-0.5-0.3-1-0.6-1.1-0.5-0.2-0.6-1-0.6-3.1 0-2.1-0.1-2.8-0.6-2.8-0.5 0-1-0.8-1-1.6 0-0.2 1.6-0.4 3.6-0.4zm-222 52.5l1.8 0.1 0.1 2.3c0.1 1.8 0.3 2.3 0.8 2.3 0.3 0 0.7 0.4 0.8 0.8 0.1 0.4 0.4 0.8 0.7 0.8 0.5 0 0.6 0.7 0.6 2.6 0 2.2 0.1 2.6 0.8 3 0.6 0.3 0.8 0.8 0.8 1.8q0 1.4 0.6 1.4c0.7 0 1 0.9 1 2.8 0 0.9 0.2 1.6 0.6 1.7 0.3 0.1 0.6 0.8 0.8 1.5 0.2 0.7 0.5 1.4 0.8 1.5 0.3 0.1 0.6 0.4 0.6 0.7 0 0.3 0.3 0.6 0.6 0.6 0.3 0 0.7 0.4 0.8 0.8 0.1 0.4 0.5 0.8 0.8 0.8 0.3 0 0.6 0.3 0.6 0.6 0 0.3 0.4 0.6 0.8 0.6q0.8 0 0.8 0.8c0 0.7 0.3 0.8 2 0.8q2 0 2.2 0.6c0.2 0.3 1 0.6 1.8 0.8 1 0.1 1.6 0.4 1.6 0.8 0 0.4 0.4 0.6 1.4 0.6h1.4v6h-1.4q-1.4 0-1.4 0.6c0 0.6-0.8 1-2.2 1-0.5 0-1 0.3-1.1 0.6-0.2 0.4-0.9 0.6-2.3 0.6-1.7 0-2 0.1-2 0.8q0 0.8-0.8 0.8c-0.4 0-0.8 0.3-0.8 0.6 0 0.3-0.3 0.6-0.6 0.6-0.3 0-0.7 0.4-0.8 0.8-0.1 0.4-0.5 0.8-0.8 0.8-0.3 0-0.6 0.2-0.6 0.4 0 0.2-0.6 1-1.4 1.8-1.2 1.2-1.4 1.6-1.4 3.2 0 1.5-0.1 1.9-0.8 2.1-0.7 0.2-0.8 0.5-0.8 2.1 0 1.3-0.2 2-0.8 2.5-0.6 0.6-0.8 1.2-0.8 3.1 0 1.9-0.1 2.4-0.6 2.4-0.3 0-0.6 0.3-0.6 0.6 0 0.4-0.4 0.8-0.8 0.9-0.6 0.1-0.8 0.6-0.9 2.4l-0.1 2.3-1.6 0.1c-2.8 0.2-3.6-0.3-4-2.6-0.1-1.2-0.5-2.1-0.8-2.2-0.5-0.2-0.6-1-0.6-3.1 0-2.1-0.1-2.8-0.6-2.8-0.7 0-1-0.9-1-2.8 0-1.1-0.2-1.6-0.6-1.6-0.6 0-1-1.2-1-3.1 0-0.7-0.2-1.3-0.6-1.4-0.3-0.2-0.6-0.7-0.6-1.3 0-0.6-0.6-1.5-1.6-2.6-0.9-0.8-1.6-1.9-1.6-2.4 0-0.7-0.3-0.8-1.6-0.8-1.1 0-1.8-0.2-2.3-0.8-0.4-0.5-1.2-0.8-2-0.8-0.9 0-1.3-0.2-1.3-0.6 0-0.4-0.4-0.6-1-0.6-1.3 0-2.2-0.4-2.2-1q0-0.6-1.4-0.6h-1.4v-6h1.4q1.4 0 1.4-0.6c0-0.6 0.9-1 2.2-1 0.6 0 1-0.2 1-0.6 0-0.4 0.4-0.6 1.3-0.6 0.8 0 1.6-0.3 2-0.8 0.4-0.4 1.1-0.8 1.5-0.8 1.3 0 5.6-4.6 5.6-6q0-1.2 0.6-1.2c0.4 0 0.6-0.4 0.6-1.6 0-1.9 0.3-2.8 1-2.8 0.5 0 0.6-0.6 0.6-2.2 0-1.8 0.1-2.1 0.8-2.3 0.7-0.2 0.8-0.6 0.8-2.9 0-1.9 0.2-2.7 0.6-2.9 0.3-0.1 0.7-1 0.8-2.2 0.2-1.5 0.5-2.1 1.2-2.3 0.4-0.2 1.6-0.3 2.6-0.3zm-38 110.2c0 0.4 0.4 1 0.8 1.4 0.4 0.4 0.8 1.1 0.8 1.7 0 0.5 0.3 1 0.6 1.1q0.6 0.3 0.6 1.9c0 1.1 0.2 1.8 0.8 2.3 0.4 0.4 0.8 1.2 0.8 1.8 0 0.8 0.2 1.1 0.8 1.1q0.8 0 0.8 0.8c0 0.6 0.3 0.8 1.4 0.8q1.4 0 1.4 0.6 0 0.5 1.5 0.7l1.5 0.1 0.1 2.9 0.1 2.9h-1.6c-1.3 0-1.6 0.1-1.6 0.8 0 0.6-0.3 0.8-1.4 0.8-1 0-1.4 0.2-1.4 0.6 0 0.3-0.4 0.6-0.8 0.6-0.6 0-0.8 0.3-0.8 1.2 0 0.8-0.3 1.3-0.8 1.6-0.6 0.3-0.8 0.8-0.8 2.4 0 1.3-0.2 2-0.6 2.1-0.3 0.2-0.6 0.6-0.6 1.1 0 0.4-0.4 1.2-0.8 1.6-0.4 0.4-0.8 1.1-0.8 1.4 0 0.4-0.5 0.6-1.8 0.6-1.9 0-2.6-0.7-2.6-2.3 0-0.5-0.2-0.9-0.5-1-0.4-0.2-0.7-1.1-0.8-2.7-0.1-1.8-0.3-2.6-0.8-2.9-0.5-0.2-0.7-0.8-0.7-1.7 0-1.1-0.2-1.4-0.8-1.4-0.4 0-0.8-0.3-0.8-0.6 0-0.4-0.4-0.6-1.4-0.6-1.1 0-1.4-0.2-1.4-0.8 0-0.6-0.3-0.8-1.2-0.8h-1.2v-6h1.2q1.2 0 1.2-0.6c0-0.4 0.4-0.6 1.4-0.6 1.1 0 1.4-0.2 1.4-0.8q0-0.8 0.8-0.8c0.6 0 0.8-0.3 0.8-1.4q0-1.4 0.5-1.4c0.4 0 0.7-0.8 0.9-2.8 0.1-1.8 0.5-2.9 0.8-3 0.3-0.2 0.6-0.9 0.8-1.6 0.1-0.8 0.5-1.4 0.9-1.5 1.8-0.5 3.3-0.3 3.3 0.4z"/>
		<path id="path1" class="s1" d=""/>
		<path id="path2" class="s1" d=""/>
		<path id="path3" class="s1" d=""/>
		<path id="path4" class="s1" d=""/>
		<path id="path5" class="s1" d=""/>
		<path id="path6" class="s1" d=""/>
		<path id="path7" class="s1" d=""/>
		<path id="path8" class="s1" d=""/>
	</g>
</svg>