<svg version="1.2" xmlns="http://www.w3.org/2000/svg" viewBox="0 0 24 24" width="24" height="24">
	<title>brave_browser-svg</title>
	<style>
		.s0 { fill: #000000 } 
	</style>
	<path id="path922" fill-rule="evenodd" class="s0" d="m15.6 0l2.2 2.3 0.4-0.1q0.3-0.1 0.6-0.1 0.3 0 0.6 0 0.3 0.1 0.6 0.3 0.3 0.1 0.5 0.3l1.4 1.5c0.1 0.1 0.2 0.3 0.1 0.4l-0.5 1.2 0.7 2-0.5 1.8-2.1 8.2c-0.3 1-0.8 1.8-1.6 2.4l-5.3 3.5q-0.1 0.2-0.3 0.2-0.2 0.1-0.4 0.1-0.2 0-0.4-0.1-0.2 0-0.3-0.2l-5.3-3.5c-0.8-0.6-1.3-1.4-1.6-2.4l-2.6-10 0.7-2-0.5-1.2q-0.1-0.1-0.1-0.1 0-0.1 0-0.1 0.1-0.1 0.1-0.1 0 0 0-0.1l1.5-1.4q0.2-0.3 0.5-0.4 0.3-0.2 0.6-0.2 0.3-0.1 0.6-0.1 0.3 0 0.6 0.1l0.4 0.2 2.2-2.4h3.6zm-4.7 3.9l-1.1 0.3q-0.1 0.1-0.2 0.1 0 0-0.1 0-0.1 0-0.2 0 0 0-0.1 0l-2-0.4h-0.4q-0.2 0.1-0.3 0.3l-0.9 1.1q0 0.1-0.1 0.2-0.1 0-0.1 0.1-0.1 0.1-0.1 0.2-0.1 0.1-0.2 0.2l-0.6 0.9-0.4 0.6q0 0.3 0 0.6v0.1q0 0.1 0.1 0.2l0.5 0.6 2.3 2.5q0.1 0.1 0.1 0.2 0.1 0.1 0.1 0.1 0 0.1 0 0.2 0 0.1 0 0.2l-0.4 0.9q-0.1 0.1-0.1 0.2 0 0.1 0 0.2 0 0.1 0 0.2 0 0.1 0 0.2l0.1 0.2q0.1 0.1 0.1 0.2 0.1 0.1 0.2 0.2 0.1 0.2 0.2 0.3 0 0.1 0.2 0.1l0.3 0.3c0.2 0.2 0.5 0.2 0.7 0.1l1.3-0.6q0.1 0 0.2-0.1 0.1 0 0.2-0.1 0-0.1 0.1-0.1 0.1-0.1 0.2-0.1l1-1q0.1 0 0.1-0.1 0 0 0 0 0.1-0.1 0.1-0.1 0-0.1 0-0.1 0 0 0-0.1 0 0-0.1-0.1 0 0 0 0 0-0.1 0-0.1l-2.4-1.6q-0.1-0.1-0.1-0.1-0.1-0.1-0.1-0.2 0 0 0-0.1 0-0.1 0-0.2l1-1.7q0-0.1 0-0.2 0-0.1 0.1-0.2 0 0-0.1-0.1 0-0.1 0-0.2 0-0.1-0.1-0.2 0 0-0.1-0.1-0.1 0-0.2-0.1 0 0-0.1-0.1l-2.9-1.1c-0.2 0-0.2-0.1 0-0.1l1.7-0.2q0.1 0 0.2 0 0.1 0 0.2 0 0.1 0 0.2 0 0.1 0 0.2 0.1l1.5 0.4c0.2 0 0.3 0.2 0.3 0.5l-0.6 3.1q0 0.1 0 0.2 0 0 0 0.1 0 0.1 0 0.1 0 0.1 0 0.2c0 0 0.2 0.1 0.4 0.2l0.9 0.2q0.1 0 0.2 0 0.1 0 0.2 0 0.1 0 0.2 0 0.1 0 0.2 0l0.8-0.2c0.2-0.1 0.4-0.2 0.5-0.2q0-0.1 0-0.2 0 0 0-0.1 0-0.1 0-0.1 0-0.1-0.1-0.2l-0.5-3.1q-0.1-0.1 0-0.2 0-0.1 0-0.1 0.1-0.1 0.1-0.2 0.1 0 0.2 0l1.4-0.5q0.1 0 0.2 0 0.1 0 0.2 0 0.1 0 0.2 0 0.1 0 0.2 0l1.7 0.1c0.3 0.1 0.3 0.1 0.1 0.2l-2.9 1.1q-0.1 0-0.2 0.1-0.1 0-0.1 0.1-0.1 0.1-0.2 0.1 0 0.1-0.1 0.2 0 0.1 0 0.2 0 0 0 0.1 0 0.1 0 0.2 0.1 0.1 0.1 0.2l0.9 1.7q0.1 0.1 0.1 0.2 0 0 0 0.1-0.1 0.1-0.1 0.2-0.1 0-0.1 0.1l-2.4 1.6q-0.1 0.1-0.1 0.1 0 0.1 0 0.2 0 0.1 0 0.2 0.1 0 0.1 0.1l1.1 0.9q0.1 0.1 0.1 0.2 0.1 0 0.2 0.1 0.1 0 0.2 0.1 0.1 0 0.1 0.1l1.4 0.6c0.2 0.1 0.4 0.1 0.6-0.1l0.4-0.3q0.1-0.1 0.2-0.2 0.1-0.1 0.2-0.2 0.1-0.1 0.1-0.2 0.1-0.1 0.1-0.2l0.1-0.3q0-0.1 0.1-0.1 0-0.1 0-0.2 0-0.1-0.1-0.2 0-0.1 0-0.2l-0.4-0.9q0-0.1 0-0.2 0-0.1 0-0.2 0-0.1 0-0.1 0.1-0.1 0.1-0.2l2.4-2.5 0.5-0.6q0 0 0-0.1 0 0 0 0 0.1 0 0.1-0.1 0 0 0 0v-0.1q0-0.1 0-0.1 0-0.1 0-0.1 0-0.1 0-0.1 0-0.1 0-0.1-0.2-0.4-0.4-0.8l-0.7-1-0.4-0.6-0.9-1.1q-0.2-0.2-0.3-0.3h-0.4l-2 0.4q-0.3 0-0.6-0.1l-1.1-0.3-0.8-0.2q-0.1-0.1-0.1-0.1-0.1 0-0.2 0-0.1 0-0.2 0-0.1 0-0.2 0.1zm0.9 10.8q0 0-0.1 0.1 0 0-0.1 0 0 0-0.1 0l-0.6 0.3-0.8 0.3-1.2 0.7q-0.1 0-0.1 0.2 0 0.1 0.1 0.2l1.1 0.7q0 0.1 0.1 0.1 0.1 0.1 0.2 0.2 0.1 0 0.1 0.1 0.1 0 0.2 0.1l0.3 0.3 0.6 0.5 0.3 0.2q0 0.1 0.1 0.1 0.1 0.1 0.2 0.1 0 0 0.1-0.1 0.1 0 0.2-0.1l1.2-1 0.6-0.5 1-0.7q0.1-0.1 0.1-0.1 0.1-0.1 0.1-0.2 0 0-0.1-0.1 0 0-0.1-0.1l-1.2-0.6-0.7-0.3-0.7-0.3q0 0-0.1 0 0 0-0.1 0 0-0.1-0.1-0.1 0 0-0.1 0h-0.3q0 0-0.1 0z"/>
</svg>