<svg version="1.2" xmlns="http://www.w3.org/2000/svg" viewBox="0 0 400 400" width="24" height="24">
	<title>brawl_stars-svg</title>
	<style>
		.s0 { fill: #000000 } 
	</style>
	<path id="path0" fill-rule="evenodd" class="s0" d="m240.7 6.2c107.1 22.9 179.5 135.5 154.3 239.6-14.4 58.8-61.1 101.3-125.9 114.4-9.2 1.8-9 1.7-13 15.2-4.3 14.7-5.4 16.9-10.5 20.5-8.7 6.4-11.8 6-53.2-6.3-1.4-0.3-4.2-1.1-6.1-1.7-1.8-0.5-24-6.7-49.1-13.9-51.5-14.5-55.4-15.7-63.8-18.2-17.5-5.1-22-13.6-16.9-32.2 1.6-5.7 3.1-12.2 3.3-14.5l0.3-4.3-7.6-7.4c-22.3-21.6-38.8-47.5-46-72.1-2.6-9-3.5-13.4-4.7-20.6-15.6-98.5 70.1-192.9 184.2-202.7 13.1-1.1 38.7 0.8 54.7 4.2zm-92.1 146.7c2.6 5.1 14.8 27.1 17.5 31.3 7.9 12.4 25.5 10 28.5-4 1.3-5.5 0.2-8.5-10-26.8-10.4-18.7-11.8-20.5-16.9-22.9-13.3-6.1-26 8.8-19.1 22.4zm-107.4 58.3c-0.2 63.8 81.7 85 112.9 29.2 20.1-35.9 0.3-83.4-38.1-91.5-39.2-8.3-74.7 21.3-74.8 62.3zm210.1-52.3c-10.6 5.2-32.5 18.1-35.4 20.8-9.8 9.7-2.2 26.5 11.8 25.7 4.5-0.3 31.5-14 40.8-20.9 9.2-6.7 7.5-21.1-3.2-26.2-5.3-2.5-7.8-2.4-14 0.6zm17.3 39.5c-31 7.5-50.1 31.6-50 63.7 0 63.4 83.5 84.2 112.8 28.2 3.3-6.4 3.9-8 6.3-16.5 2.9-10.8 1.5-27.6-3.4-39.5-6.8-16.8-21.6-29.7-39.6-34.7-5.9-1.6-21.1-2.3-26.1-1.2zm-86.4 57.2c-2 0-3.1 0.9-15.8 12.6-2.6 2.4-6.8 6.2-9.5 8.6-20.3 18.2-20.8 19.6-8.5 22.9 2 0.6 4.8 1.3 5.9 1.7 12.2 3.8 40.8 11.2 41.8 10.9 3.1-1.2 2.9-2.3-6.4-38.5-1.9-7.4-3.9-14.4-4.4-15.8-0.7-1.6-1.6-2.4-3.1-2.4z"/>
</svg>