<svg version="1.2" xmlns="http://www.w3.org/2000/svg" viewBox="0 0 400 400" width="24" height="24">
	<title>breezy_weather-svg</title>
	<style>
		.s0 { fill: #000000 } 
	</style>
	<g id="svgg">
		<path id="path0" fill-rule="evenodd" class="s0" d="m186.8 0.7l1.7 1.3 0.1 90.6c0.2 104 0.9 94.1-6.7 93.9-24.5-0.3-59.7-28.9-70.6-57.1-20.9-54.1 11.2-116.8 66.1-129 5.8-1.3 7.6-1.2 9.4 0.3zm58.9 94c2.4 2.2 2 2.7-9.7 11.4-3.2 2.3-9.3 7.6-13.6 11.7-11.3 10.9-11.1 11.1-11.1-11.5 0-16.6 0.2-18.4 2.6-19.6 3.7-1.8 27.6 4.2 31.8 8zm138.9 51.1c11.7 16.4 18.9 39.5 13.3 42.3-2.4 1.3-180.4 1.4-183.1 0.1-3.3-1.4-3-6.5 1.1-18.9 11.4-34.3 44.2-60.7 79.5-64 35.9-3.4 68.5 11.4 89.2 40.5zm-280.3 15.9c2.8 3.7 8.9 10.7 13.5 15.4 12.1 12.3 12.4 12-11.8 12h-16.9l-1.7-1.7c-1-1-1.7-2.4-1.7-3.1 0-5.6 5.9-26.3 8.4-29.5 2.4-3.1 3.3-2.5 10.2 6.9zm208.4 50.5c2.6 2.4 0.4 16.1-4.5 28.3-3.1 7.9-4.8 8.3-9.2 2.5-7.4-10-11-14.2-18-21.3-8.1-8.3-8.9-9.8-5.3-10.6 5.4-1.2 35.4-0.3 37 1.1zm-128-0.1c4 2 1.7 14.4-5.2 28.5-31.6 64.8-118 73.7-162 16.6-15.1-19.6-22.4-43.4-13.9-45.5 3.5-0.8 179.3-0.5 181.1 0.4zm57.4 8.9c65 33.1 71.4 121 12 164.1-15.2 11-39 18.9-41.7 13.8-0.4-0.7-0.7-36-0.9-92.4l-0.2-91.3 1.7-1.4c3.4-2.7 15.6 0.3 29.1 7.2zm-53.3 72.9c0 22.7 0 22.7-16.5 18.7-19.9-4.9-23.3-7.9-15.5-13.5 9.4-6.9 12-9.1 20.3-17.1 12.2-11.7 11.7-12.1 11.7 11.9z"/>
	</g>
</svg>