<svg version="1.2" xmlns="http://www.w3.org/2000/svg" viewBox="0 0 24 24" width="24" height="24">
	<title>browser-svg</title>
	<style>
		.s0 { fill: none } 
		.s1 { fill: #000000 } 
	</style>
	<path id="path1204" fill-rule="evenodd" class="s0" d="m0 0h24v24h-24z"/>
	<path id="path1206" fill-rule="evenodd" class="s1" d="m12 24c-6.6 0-12-5.4-12-12 0-6.6 5.4-12 12-12 6.6 0 12 5.4 12 12 0 6.6-5.4 12-12 12zm3.1-21.1q1.1 2 1.7 4.3h3.5c-1.1-2-3-3.5-5.2-4.3zm-5.4 4.3h4.6q-0.8-2.6-2.3-4.8-1.5 2.2-2.3 4.8zm-2.9 7.2q-0.2-1.2-0.2-2.4 0-1.2 0.2-2.4h-4.1q-0.3 1.2-0.3 2.4 0 1.2 0.3 2.4zm2.1 6.7q-1-2-1.6-4.3h-3.6c1.2 2 3 3.5 5.2 4.3zm0-18.2c-2.2 0.8-4 2.3-5.2 4.3h3.6q0.6-2.3 1.6-4.3zm5.4 13.9h-4.5q0.7 2.6 2.2 4.8 1.5-2.2 2.3-4.8zm0.7-4.8q0-1.2-0.1-2.4h-5.7q-0.1 1.2-0.2 2.4c0 0.8 0.1 1.6 0.2 2.4h5.7c0.1-0.8 0.1-1.6 0.1-2.4zm5.3 4.8h-3.5q-0.6 2.3-1.6 4.3c2.2-0.8 4-2.3 5.1-4.3zm1-2.4q0.3-1.2 0.3-2.4 0-1.2-0.3-2.4h-4q0.1 1.2 0.1 2.4 0 1.2-0.1 2.4z"/>
</svg>