<svg version="1.2" xmlns="http://www.w3.org/2000/svg" viewBox="0 0 24 24" width="24" height="24">
	<title>calculator-svg</title>
	<style>
		.s0 { fill: #000000 } 
	</style>
	<path id="path" fill-rule="evenodd" class="s0" d="m18.4 11.3c-3.2 0-5.7-2.5-5.7-5.7 0-3.1 2.5-5.6 5.7-5.6 3.1 0 5.6 2.5 5.6 5.6 0 3.2-2.5 5.7-5.6 5.7zm0-4.7l1.5 1.5 0.9-1-1.4-1.5 1.4-1.5-0.9-0.9-1.5 1.4-1.5-1.4-1 0.9 1.5 1.5-1.5 1.5 1 1z"/>
	<path id="path_1" fill-rule="evenodd" class="s0" d="m5.6 11.3c-3.1 0-5.6-2.5-5.6-5.7 0-3.1 2.5-5.6 5.6-5.6 3.2 0 5.7 2.5 5.7 5.6 0 3.2-2.5 5.7-5.7 5.7zm-2.8-6.4v1.5h5.7v-1.5z"/>
	<path id="path_2" fill-rule="evenodd" class="s0" d="m5.6 24c-3.1 0-5.6-2.5-5.6-5.6 0-3.2 2.5-5.7 5.6-5.7 3.2 0 5.7 2.5 5.7 5.7 0 3.1-2.5 5.6-5.7 5.6zm2.9-4.9v-1.5h-2.1v-2.1h-1.5v2.1h-2.1v1.5h2.1v2.1h1.5v-2.1z"/>
	<path id="path_3" fill-rule="evenodd" class="s0" d="m18.4 24c-3.2 0-5.7-2.5-5.7-5.6 0-3.2 2.5-5.7 5.7-5.7 3.1 0 5.6 2.5 5.6 5.7 0 3.1-2.5 5.6-5.6 5.6zm-2.9-7.8v1.4h5.7v-1.4zm0 2.9v1.4h5.6v-1.4z"/>
</svg>