<svg version="1.2" xmlns="http://www.w3.org/2000/svg" viewBox="0 0 400 400" width="24" height="24">
	<title>camera-svg</title>
	<style>
		.s0 { fill: #050505 } 
	</style>
	<path id="path0" fill-rule="evenodd" class="s0" d="m244.1 55.6c0.9 0.7 5.4 8.6 10 17.5l8.3 16.1 116.2 0.7 4 1.7c11.3 4.6 17.2 13.8 17.2 26.8v6.5h-74.6c-43.8 0-74.8-0.2-75-0.6-0.9-1.4-16.8-7.5-24.8-9.6-24.2-6.1-51.1-3-73.6 8.3l-3.7 1.9h-148.1l0.3-7.7c0.4-9.2 2.3-14.1 7.7-19.5 7.6-7.6 11.1-8.1 50.6-8.1 17.3 0 42.1 0 55.2 0l23.8-0.1 8.3-16.2c4.6-9 9.1-16.9 10-17.7 2.7-2.1 85.6-2.1 88.2 0zm-66.9 10.3c-3.5 1.7-4.7 15-1.7 18.9l1.5 1.9h46l1.5-1.9c2.8-3.6 1.9-16.3-1.4-18.8-1.4-1.2-43.6-1.2-45.9-0.1zm-101.1 8.5c15.1 0 15.7 0.3 15.7 6.5 0 6.3-0.6 6.5-15.6 6.5-7.3 0-13.2-0.3-14-0.7-2-1.1-2.1-10.4-0.2-11.5 0.7-0.4 6.7-0.7 14.1-0.8zm14 35.6c0 4.4 3.4 6.9 7.4 5.4 3.7-1.2 5-6.1 2.4-9.1-3.3-4.1-9.8-1.6-9.8 3.7zm16.3-3.2c-2.5 3.2 0.6 9 4.8 9 5.9 0 8.1-8 2.9-10.7-3.1-1.6-5.5-1-7.7 1.7zm192 111.2c-0.2 87.4-105.6 131.4-167.6 70-57.7-57.1-26.2-154.3 54.4-167.8 58.5-9.8 113.3 37.5 113.2 97.8zm-298.2-85.9l136.7 0.1-3.3 2.6c-52.6 42.7-52.8 123.8-0.5 165.5 4.4 3.5 11.2 3.2-66.4 3l-66.5-0.2zm262.9 0h136.7v171h-68l-68-0.1 2.2-1.8c53.6-45.8 53.8-122.3 0.4-166.4zm-138.2 123.6c29.2 57.4 109.3 62.3 144.8 8.9 34.2-51.2 4.2-120.2-56.4-130-67.5-11-119.5 60.2-88.4 121.1zm226.1-115.7h-22l-1.8 1.8c-2.6 2.6-2.7 15.9-0.1 18.3 2.5 2.3 45.8 2.5 48 0.2 3.1-3 2.8-16.3-0.4-18.8-1.7-1.4-3-1.5-23.7-1.5zm-86.2 53.6c23.7 64.3-51.4 120.4-106.3 79.4-49.1-36.6-29.3-114.1 31.7-123.8 30.4-4.9 63.8 15 74.6 44.4zm-96.5 10.8c1.3 2.6 1.4 3.2 0.5 8.2-5.1 30.5 32.5 49.3 53.8 27 19.1-20 5.3-53.4-22.1-53.4-3.9 0-4.6-0.2-7.1-2.5-1.5-1.3-4-2.8-5.5-3.2-14.6-4.1-26.5 10.5-19.6 23.9zm30.6-13.9h2.9c18.1 0 31 21.4 23.2 38.4-12.1 26.4-51.1 18.8-52.3-10.1-0.3-7.8 0.1-8.5 3.8-6.9 11.2 4.6 22.4-3.1 22.4-15.4zm33.8 59.3c-2.9 5.1 1.8 11.8 7.3 10.4 5.1-1.3 7.2-7.7 3.8-11.6-3.1-3.5-8.9-2.9-11.1 1.2zm-232.8 60.5h147.2l6.7 3.2c30.1 13.9 62.7 14 92.2 0l6.8-3.2h147.1l-0.2 7.7c-0.5 12.4-5.1 20.1-15 24.9l-4.7 2.4h-360.1l-4-1.9c-10.3-4.8-15.3-12.9-15.7-25.3z"/>
</svg>