<svg version="1.2" xmlns="http://www.w3.org/2000/svg" viewBox="0 0 24 24" width="24" height="24">
	<title>camera-svg</title>
	<style>
		.s0 { fill: #000000 } 
	</style>
	<path class="s0" d="m12 17c-2.1 0-3.8-1.7-3.8-3.8 0-2.1 1.7-3.8 3.8-3.8 2.1 0 3.8 1.7 3.8 3.8 0 2.1-1.7 3.8-3.8 3.8z"/>
	<path fill-rule="evenodd" class="s0" d="m15.6 1.2l2.2 2.4h3.8c1.3 0 2.4 1.1 2.4 2.4v14.4c0 1.3-1.1 2.4-2.4 2.4h-19.2c-1.3 0-2.4-1.1-2.4-2.4v-14.4c0-1.3 1.1-2.4 2.4-2.4h3.8l2.2-2.4zm2.4 12c0-3.3-2.7-6-6-6-3.3 0-6 2.7-6 6 0 3.3 2.7 6 6 6 3.3 0 6-2.7 6-6z"/>
</svg>