<svg version="1.2" xmlns="http://www.w3.org/2000/svg" viewBox="0 0 95 95" width="24" height="24">
	<title>cherrygram-svg</title>
	<style>
		.s0 { fill: #000000 } 
	</style>
	<path id="path_0" class="s0" d="m64.5 2.2c0.9 1.8 0.3 4-1.5 5.1q-1.6 1.1-2.9 2.1c10.2 0.5 22.3 4.6 28.5 24.2-21.5 2-29.9-7.9-34.2-17.2-0.3 0.9-0.5 1.7-0.5 2.4-0.2 3.5 1.5 7.4 4.6 12 1.4 2.2 3 4.2 4.6 6.4l0.4 0.5c1.7 2.3 3.5 4.7 5 7.1 1.1 1.7 2.1 3.5 2.9 5.4 10.6 2.1 18.7 11.2 18.7 22.2 0 12.5-10.4 22.6-23.2 22.6-12.7 0-23.1-10.1-23.1-22.6 0-10.9 8-20 18.6-22.1l-0.8-1.3c-1.3-2.1-2.9-4.2-4.7-6.6l-0.4-0.5c-1.6-2.1-3.3-4.4-4.8-6.7-3.1-4.6-6-10-6-15.8-2.6 3-5.1 6.3-7.2 9.7-4.7 7.4-7.7 15-9 21 4.1 0.6 7.9 2.2 11 4.6 0.3 0.3 0.4 0.8 0.1 1.2-3.1 4.7-4.9 10.4-4.9 16.5 0 6.1 1.8 11.8 4.9 16.6 0.3 0.3 0.2 0.9-0.1 1.1-4 3.1-8.9 4.9-14.4 4.9-12.7 0-23.1-10.1-23.1-22.6 0-10.8 7.8-19.8 18.1-22 1.3-7.6 5-16.9 10.4-25.5 6.6-10.4 16.2-20.5 27.9-24.7 2-0.7 4.2 0.2 5.1 2z"/>
</svg>