<svg version="1.2" xmlns="http://www.w3.org/2000/svg" viewBox="0 0 36 36" width="24" height="24">
	<title>chrome-svg</title>
	<style>
		.s0 { fill: #00000a } 
	</style>
	<path id="path_0" class="s0" d="m18 9.9h16c-2.9-5.9-9-9.9-16-9.9-5.6 0-10.6 2.5-13.9 6.5l6 10.2c0.5-3.7 3.9-6.8 7.9-6.8zm0 16.2c-3.1 0-5.6-1.6-7-4.1l-8.1-13.9c-1.8 2.9-2.9 6.3-2.9 9.9 0 9 6.5 16.4 15.1 17.8l6-10.2c-1.1 0.3-2 0.5-3.1 0.5zm8.1-8.1c0 1.4-0.4 2.9-1.1 4l-8.1 14h1.1c9.9 0 18-8.1 18-18 0-2.2-0.4-4.3-1.1-6.3h-11.9c1.8 1.4 3.1 3.8 3.1 6.3z"/>
	<path id="path_1" class="s0" d="m18 23.3c2.9-0.1 5.3-2.4 5.3-5.3 0-2.9-2.4-5.3-5.3-5.3-2.9 0-5.3 2.4-5.3 5.3 0 2.9 2.4 5.2 5.3 5.2z"/>
</svg>