<svg version="1.2" xmlns="http://www.w3.org/2000/svg" viewBox="0 0 24 24" width="24" height="24">
	<title>clock-svg</title>
	<style>
		.s0 { fill: #fff1c0 } 
	</style>
	<path id="Layer" fill-rule="evenodd" class="s0" d="m12 24q-2.5 0-4.7-0.9-2.2-1-3.8-2.6-1.6-1.6-2.6-3.8-0.9-2.2-0.9-4.7 0-2.5 0.9-4.7 1-2.2 2.6-3.8 1.6-1.6 3.8-2.6 2.2-0.9 4.7-0.9 2.5 0 4.7 0.9 2.2 1 3.8 2.6 1.6 1.6 2.6 3.8 0.9 2.2 0.9 4.7 0 2.5-0.9 4.7-1 2.2-2.6 3.8-1.6 1.6-3.8 2.6-2.2 0.9-4.7 0.9zm3.1-7.2c0.5 0.5 1.2 0.5 1.7 0 0.5-0.5 0.5-1.2 0-1.7l-3.6-3.6v-4.3c0-0.7-0.5-1.2-1.2-1.2-0.7 0-1.2 0.5-1.2 1.2v5.3z"/>
</svg>