<svg version="1.2" xmlns="http://www.w3.org/2000/svg" viewBox="0 0 400 400" width="24" height="24">
	<title>coin-svg</title>
	<style>
		.s0 { fill: #000000 } 
	</style>
	<g id="svgg">
		<path id="path1" fill-rule="evenodd" class="s0" d="m237.5 3.2c76.1 16.9 132.2 67.3 153.7 138 16.8 55.5 9.2 116.6-20.4 163.5-7 11.1-30.7 28.9-45.9 34.4-41 15-77-2.8-118.7-58.8-32.6-43.9-46.4-58.5-68.7-72.6-42.8-27.1-78-29.7-121-9-7.5 3.7-14.4 6.6-15.4 6.6-2 0-1.1-28.8 1.3-39.2 4.3-19 5.9-24.8 9-33.8 24.7-70.8 86.8-119.9 166-131.4 8.5-1.3 51.5 0.4 60.1 2.3zm-30.4 63.8c-5.5 14.5 6.8 28.9 24.6 28.9 35.1 0 71.9 35.2 71.9 68.8 0 23.5 17.4 36.3 34.7 25.6 9.6-5.9 12-18 7.9-39.9-9.2-48.2-46.6-86.3-94.5-96.1-26-5.3-39.1-1.6-44.6 12.7zm-19.5 207.9c47.2 66.7 88.3 90.6 133.6 77.8 12.4-3.5 12.8-3.2 3.8 4-26.7 21.2-57 34.8-91.6 41.1-84.6 15.3-173-29.7-212.4-108.1-10.9-21.6-21.1-56.5-19.6-67 0.8-5.5 33.2-21.3 49.7-24.2 46.8-8.4 95.9 19.2 136.5 76.4z"/>
	</g>
</svg>