<svg version="1.2" xmlns="http://www.w3.org/2000/svg" viewBox="0 0 400 400" width="24" height="24">
	<title>color_palette-svg</title>
	<style>
		.s0 { fill: #040404 } 
		.s1 { fill: #080404 } 
	</style>
	<g id="svgg">
		<path id="path0" fill-rule="evenodd" class="s0" d="m132.3 0.7c0.1 0.3 0.4 0.5 0.7 0.5 0.8 0 4.2 3.4 4.2 4.2 0 0.3 0.2 0.6 0.4 0.6 0.2 0 0.4 0.3 0.4 0.8 0 0.4 0.2 0.9 0.4 1 1.2 0.7 0.3 20.6-0.9 20.6-0.1 0-0.3 0.4-0.3 0.8 0 0.4-0.2 0.8-0.4 0.8-0.2 0-0.4 0.3-0.4 0.6 0 0.4-0.4 1-0.8 1.5-0.4 0.5-0.8 1.1-0.8 1.4 0 0.3-0.2 0.5-0.4 0.5-0.2 0-0.4 0.4-0.4 0.8 0 0.4-0.2 0.8-0.4 0.8-0.2 0-0.4 0.2-0.4 0.5 0 0.3-0.4 0.9-0.8 1.4-0.4 0.5-0.8 1.1-0.8 1.5 0 0.3-0.2 0.6-0.4 0.6-0.2 0-0.4 0.3-0.4 0.6 0 0.3-0.2 0.6-0.4 0.6-0.2 0-0.4 0.3-0.4 0.7 0 0.4-0.4 1-0.8 1.3-0.4 0.3-0.8 0.9-0.8 1.3 0 0.4-0.2 0.7-0.4 0.7-0.2 0-0.4 0.3-0.4 0.6 0 0.4-0.4 1-0.8 1.5-0.4 0.5-0.8 1.1-0.8 1.4 0 0.3-0.2 0.5-0.4 0.5-0.2 0-0.4 0.3-0.4 0.7 0 0.4-0.4 1.2-0.8 1.9-0.4 0.7-1.2 2.1-1.8 3.2-0.6 1.2-1.4 2.5-1.8 2.9-0.5 0.5-0.8 1.1-0.8 1.5 0 0.3-0.2 0.6-0.4 0.6-0.2 0-0.4 0.4-0.4 0.8 0 0.4-0.2 0.8-0.4 0.8-0.1 0-0.5 0.5-0.8 1.2-0.3 0.7-0.7 1.2-0.8 1.2-0.2 0-0.4 0.4-0.4 0.8 0 0.4-0.2 0.8-0.4 0.8-0.2 0-0.4 0.3-0.4 0.6 0 0.4-0.4 1-0.8 1.5-0.4 0.5-0.8 1.1-0.8 1.4 0 0.3-0.2 0.5-0.4 0.5-0.2 0-0.4 0.4-0.4 0.8 0 0.4-0.2 0.8-0.4 0.8-0.2 0-0.4 0.2-0.4 0.5 0 0.3-0.4 0.9-0.8 1.4-0.4 0.5-0.8 1.1-0.8 1.3 0 0.2-0.2 0.4-0.4 0.4-0.2 0-0.4 0.4-0.4 0.8 0 0.4-0.2 0.8-0.4 0.8-0.2 0-0.4 0.4-0.4 0.8 0 0.4-0.1 0.8-0.3 0.8-0.2 0-1.1 1.4-1.9 3.1-0.9 1.7-1.7 3.2-1.9 3.2-0.2 0.1-0.3 0.5-0.3 0.9 0 0.5-0.2 0.8-0.4 0.8-0.2 0-0.4 0.2-0.4 0.5 0 0.3-0.4 0.9-0.8 1.4-0.4 0.5-0.8 1.1-0.8 1.5 0 0.3-0.2 0.6-0.4 0.6-0.2 0-0.4 0.3-0.4 0.6 0 0.3-0.2 0.6-0.4 0.6-0.2 0-0.4 0.3-0.4 0.7 0 0.4-0.4 1-0.8 1.3-0.4 0.3-0.8 0.9-0.8 1.3 0 0.4-0.2 0.7-0.4 0.7-0.2 0-0.4 0.4-0.4 0.8 0 0.4-0.2 0.8-0.4 0.8-0.2 0-0.4 0.2-0.4 0.5 0 0.3-0.4 0.9-0.8 1.4-0.4 0.5-0.8 1.1-0.8 1.5 0 0.3-0.2 0.6-0.4 0.6-0.2 0-0.4 0.4-0.4 0.8 0 0.4-0.2 0.8-0.4 0.8-0.2 0-0.4 0.3-0.4 0.6 0 0.3-0.2 0.6-0.4 0.6-0.2 0-0.4 0.3-0.4 0.6 0 0.3-0.2 0.6-0.4 0.6-0.2 0-0.4 0.4-0.4 0.8 0 0.4-0.2 0.8-0.4 0.8-0.2 0-0.4 0.3-0.4 0.6 0 0.3-0.1 0.6-0.3 0.7-0.2 0-1 1.5-1.9 3.2-0.9 1.7-1.7 3.1-1.9 3.1-0.2 0-0.3 0.4-0.3 0.8 0 0.4-0.2 0.8-0.4 0.8-0.2 0-0.4 0.3-0.4 0.6 0 0.4-0.4 1-0.8 1.5-0.4 0.5-0.8 1.1-0.8 1.4 0 0.3-0.2 0.5-0.4 0.5-0.2 0-0.4 0.4-0.4 0.8 0 0.4-0.2 0.8-0.4 0.8-0.2 0-0.4 0.2-0.4 0.5 0 0.3-0.3 0.9-0.7 1.3-0.4 0.5-1 1.4-1.3 2.1-0.3 0.7-0.7 1.3-0.9 1.3-0.2 0-0.3 0.3-0.3 0.7 0 0.4-0.4 1-0.8 1.3-0.4 0.3-0.8 0.9-0.8 1.3 0 0.4-0.2 0.7-0.4 0.7-0.2 0-0.4 0.4-0.4 0.8 0 0.4-0.2 0.8-0.4 0.8-0.2 0-0.4 0.3-0.4 0.7 0 0.4-0.4 1-0.8 1.3-0.4 0.3-0.8 0.9-0.8 1.3 0 0.4-0.2 0.7-0.4 0.7-0.2 0-0.4 0.3-0.4 0.6 0 0.3-0.5 1.3-1 2.2-0.6 0.9-1 1.8-1 2 0 0.2-0.2 0.4-0.4 0.4-0.1 0-0.4 0.3-0.5 0.7-0.3 0.9-1.6 3.1-2 3.2-0.2 0.1-0.3 0.5-0.3 0.9 0 0.5-0.2 0.8-0.4 0.8-0.2 0-0.4 0.2-0.4 0.5 0 0.3-0.4 0.9-0.8 1.4-0.4 0.5-0.8 1.1-0.8 1.5 0 0.3-0.2 0.6-0.4 0.6-0.2 0-0.4 0.4-0.4 0.8 0 0.4-0.2 0.8-0.4 0.8-0.2 0-0.4 0.3-0.4 0.6 0 0.3-0.2 0.6-0.4 0.6-0.2 0-0.4 0.3-0.4 0.6 0 0.3-0.2 0.6-0.4 0.6-0.2 0-0.4 0.4-0.4 0.8 0 0.4-0.2 0.8-0.4 0.8-0.2 0-0.4 0.3-0.4 0.6 0 0.3-0.2 0.6-0.4 0.6-0.2 0-0.4 0.2-0.4 0.5 0 0.3-0.4 0.9-0.8 1.4-0.4 0.5-0.8 1.1-0.8 1.5 0 0.3-0.2 0.6-0.4 0.6-0.2 0-0.4 0.3-0.4 0.6 0 0.4-0.4 1-0.8 1.5-0.4 0.5-0.8 1.1-0.8 1.4 0 0.3-0.2 0.5-0.4 0.5-0.2 0-0.4 0.3-0.4 0.6 0 0.6-1.1 3-1.6 3.4-0.1 0.1-0.5 0.7-0.8 1.4-0.3 0.7-1.1 2-1.7 2.9-0.6 0.9-1.1 1.8-1.1 2.1 0 0.2-0.2 0.4-0.4 0.4-0.2 0-0.4 0.3-0.4 0.6 0 0.4-0.4 1-0.8 1.5-0.4 0.5-0.8 1.1-0.8 1.4 0 0.3-0.2 0.5-0.4 0.5-0.2 0-0.4 0.4-0.4 0.8 0 0.4-0.2 0.8-0.4 0.8-0.2 0-0.4 0.3-0.4 0.7 0 0.4-0.4 1-0.8 1.3-0.4 0.3-0.8 0.9-0.8 1.3 0 0.4-0.2 0.7-0.4 0.7-0.2 0-0.4 0.4-0.4 0.8 0 0.4-0.2 0.8-0.4 0.8-0.2 0-0.4 0.3-0.4 0.6 0 0.3-0.2 0.6-0.4 0.6-0.2 0-0.4 0.3-0.4 0.6 0 0.3-0.1 0.6-0.3 0.6-0.2 0-0.6 0.6-0.9 1.4-0.3 0.8-0.7 1.4-0.9 1.4-0.2 0-0.3 0.4-0.3 0.8 0 0.4-0.1 0.8-0.3 0.8-0.2 0-0.8 1.1-1.5 2.4-0.6 1.3-1.3 2.4-1.5 2.4-0.2 0-0.3 0.4-0.3 0.8 0 0.4-0.2 0.8-0.4 0.8-0.2 0-0.4 0.4-0.4 0.8 0 0.4-0.2 0.8-0.4 0.8-0.2 0-0.4 0.2-0.4 0.5 0 0.3-0.4 0.9-0.8 1.4-0.4 0.5-0.8 1.1-0.8 1.5 0 0.3-0.2 0.6-0.4 0.6-0.2 0-0.4 0.3-0.4 0.6 0 0.3-0.2 0.6-0.4 0.6-0.2 0-0.4 0.3-0.4 0.7 0 0.4-0.4 1-0.8 1.3-0.4 0.3-0.8 0.9-0.8 1.3 0 0.4-0.2 0.7-0.4 0.7-0.2 0-0.4 0.4-0.4 0.8 0 0.4-0.2 0.8-0.4 0.8-0.2 0-0.4 0.2-0.4 0.5 0 0.3-0.4 0.9-0.8 1.4-0.4 0.5-0.8 1.1-0.8 1.5 0 0.3-0.2 0.6-0.4 0.6-0.2 0-0.4 0.3-0.4 0.6 0 0.4-0.4 1-0.8 1.5-0.4 0.5-0.8 1.1-0.8 1.4 0 0.3-0.2 0.5-0.4 0.5-0.2 0-0.4 0.4-0.4 0.8 0 0.4-0.2 0.8-0.4 0.8-0.2 0-0.4 0.2-0.4 0.6 0 0.3-0.3 0.7-0.6 1-0.3 0.3-0.6 0.8-0.6 1.2 0 0.5-0.1 0.8-0.3 0.8-0.2 0-0.7 0.9-1.3 2-0.5 1.1-1.1 2-1.3 2-0.2 0-0.3 0.4-0.3 0.8 0 0.4-0.2 0.8-0.4 0.8-0.2 0-0.4 0.3-0.4 0.6 0 0.4-0.4 1-0.8 1.5-0.4 0.5-0.8 1.1-0.8 1.4 0 0.3-0.2 0.5-0.4 0.5-0.2 0-0.4 0.4-0.4 0.8 0 0.4-0.2 0.8-0.4 0.8-0.2 0-0.4 0.2-0.4 0.5 0 0.3-0.3 0.9-0.7 1.3-0.4 0.5-1 1.4-1.3 2.1-0.3 0.7-0.7 1.3-0.9 1.3-0.2 0-0.3 0.3-0.3 0.7 0 0.4-0.4 1-0.8 1.3-0.4 0.3-0.8 0.9-0.8 1.3 0 0.4-0.2 0.7-0.4 0.7-0.2 0-0.4 0.4-0.4 0.8 0 0.4-0.2 0.8-0.4 0.8-0.2 0-0.4 0.2-0.4 0.5 0 0.3-0.4 0.9-0.8 1.4-0.4 0.5-0.8 1.1-0.8 1.5 0 0.3-0.2 0.6-0.4 0.6-0.2 0-0.4 0.3-0.4 0.8 0 0.4-0.2 0.9-0.5 1.1-0.3 0.3-0.8 1.1-1.1 1.9-0.3 0.8-0.7 1.4-0.9 1.4-0.2 0-0.3 0.2-0.3 0.5 0 0.3-0.4 0.9-0.8 1.4-0.4 0.5-0.8 1.1-0.8 1.5 0 0.3-0.2 0.6-0.4 0.6-0.2 0-0.4 0.4-0.4 0.8 0 0.4-0.1 0.8-0.3 0.8-0.2 0-0.5 0.5-0.8 1.2-0.3 0.7-0.8 1.2-1.1 1.2-0.9 0-0.9-256.9 0-259 0.7-1.7 3.8-4.9 5.5-5.6 1.8-0.8 125.9-0.7 126.2 0.1zm46.7 12.9c2.3 0 4.3 0.2 4.4 0.4 0.1 0.2 0.7 0.4 1.2 0.4 0.6 0 1 0.2 1 0.4 0 0.2 0.2 0.4 0.5 0.4 0.3 0 0.9 0.4 1.4 0.8 0.5 0.4 1.1 0.8 1.5 0.8 0.3 0 0.6 0.2 0.6 0.4 0 0.2 0.3 0.4 0.6 0.4 0.3 0 0.6 0.2 0.6 0.4 0 0.2 0.2 0.4 0.5 0.4 0.3 0 0.9 0.4 1.4 0.8 0.5 0.4 1.1 0.8 1.5 0.8 0.3 0 0.6 0.2 0.6 0.4 0 0.2 0.4 0.4 0.8 0.4 0.4 0 0.8 0.2 0.8 0.4 0 0.2 0.2 0.4 0.5 0.4 0.3 0 0.9 0.4 1.4 0.8 0.5 0.4 1.1 0.8 1.5 0.8 0.3 0 0.6 0.2 0.6 0.4 0 0.2 0.3 0.4 0.8 0.4 0.4 0 0.8 0.2 0.9 0.3 0 0.2 1.4 1.1 3 1.9 1.6 0.8 2.9 1.7 2.9 1.9 0 0.1 0.4 0.3 0.8 0.3 0.4 0 0.8 0.2 0.8 0.4 0 0.2 0.4 0.4 0.8 0.4 0.4 0 0.8 0.2 0.8 0.4 0 0.1 0.5 0.5 1.2 0.8 0.7 0.3 1.2 0.7 1.2 0.8 0 0.2 0.4 0.4 0.8 0.4 0.4 0 0.8 0.2 0.8 0.4 0 0.2 0.3 0.4 0.6 0.4 0.4 0 1 0.4 1.5 0.8 0.5 0.4 1.1 0.8 1.4 0.8 0.3 0 0.5 0.2 0.5 0.4 0 0.2 0.4 0.4 0.8 0.4 0.4 0 0.8 0.2 0.8 0.4 0 0.2 0.2 0.4 0.5 0.4 0.3 0 0.9 0.4 1.4 0.8 0.5 0.4 1.1 0.8 1.3 0.8 0.2 0 0.4 0.2 0.4 0.4 0 0.2 0.4 0.4 0.8 0.4 0.4 0 0.8 0.2 0.8 0.4 0 0.2 0.3 0.4 0.7 0.4 0.4 0 1 0.4 1.3 0.8 0.3 0.4 0.9 0.8 1.3 0.8 0.4 0 0.7 0.2 0.7 0.4 0 0.2 0.3 0.4 0.8 0.4 0.4 0 0.8 0.1 0.9 0.3 0 0.2 1.5 1 3.2 1.9 1.7 0.8 3.1 1.6 3.1 1.8 0 0.1 0.6 0.5 1.4 0.8 0.8 0.3 1.4 0.7 1.4 0.9 0 0.2 0.3 0.3 0.7 0.3 0.4 0 1 0.4 1.3 0.8 0.3 0.4 0.9 0.8 1.3 0.8 0.4 0 0.7 0.2 0.7 0.4 0 0.2 0.4 0.4 0.8 0.4 0.4 0 0.8 0.2 0.8 0.4 0 0.2 0.2 0.4 0.5 0.4 0.3 0 0.9 0.4 1.4 0.8 0.5 0.4 1.1 0.8 1.5 0.8 0.3 0 0.6 0.2 0.6 0.4 0 0.2 0.3 0.4 0.6 0.4 0.4 0 1 0.4 1.5 0.8 0.5 0.4 1.1 0.8 1.4 0.8 0.3 0 0.5 0.2 0.5 0.4 0 0.2 0.4 0.4 0.8 0.4 0.4 0 0.8 0.2 0.8 0.4 0 0.2 0.3 0.4 0.6 0.4 0.3 0 0.6 0.2 0.6 0.4 0 0.2 0.3 0.4 0.6 0.4 0.3 0 0.6 0.2 0.6 0.4 0 0.2 0.3 0.4 0.6 0.4 0.3 0 0.6 0.2 0.6 0.4 0 0.2 0.3 0.4 0.6 0.4 0.8 0 3.4 1.3 3.4 1.7 0 0.2 0.4 0.3 0.8 0.3 0.4 0 0.8 0.2 0.8 0.4 0 0.1 0.3 0.4 0.7 0.5 0.9 0.3 3.1 1.6 3.2 2 0.1 0.2 0.5 0.3 0.9 0.3 0.5 0 0.8 0.2 0.8 0.4 0 0.2 0.2 0.4 0.4 0.4 0.3 0 1.2 0.5 2.2 1.2 1 0.7 1.9 1.2 2.2 1.2 0.2 0 0.4 0.2 0.4 0.4 0 0.2 0.3 0.4 0.7 0.4 0.4 0 1 0.4 1.3 0.8 0.3 0.4 0.9 0.8 1.3 0.8 0.4 0 0.7 0.2 0.7 0.4 0 0.2 0.4 0.4 0.8 0.4 0.4 0 0.8 0.2 0.8 0.4 0 0.2 0.3 0.4 0.7 0.4 0.4 0 1 0.4 1.3 0.8 0.3 0.4 0.8 0.8 1.1 0.8 0.8 0 4.4 3.9 5.2 5.5 1.1 2.7 0.9 9.1-0.4 11.3-0.6 1-1.2 2.1-1.4 2.5-0.1 0.4-0.4 0.7-0.5 0.7-0.2 0-0.4 0.4-0.4 0.8 0 0.4-0.2 0.8-0.4 0.8-0.2 0-0.4 0.2-0.4 0.5 0 0.3-0.4 0.9-0.8 1.4-0.4 0.5-0.8 1.1-0.8 1.5 0 0.3-0.2 0.6-0.4 0.6-0.2 0-0.4 0.4-0.4 0.8 0 0.4-0.1 0.8-0.3 0.8-0.2 0-0.5 0.5-0.8 1.2-0.3 0.6-1.1 1.4-1.7 1.7-0.7 0.3-1.2 0.6-1.2 0.8 0 0.2-0.4 0.3-0.8 0.3-0.4 0-0.8 0.2-0.8 0.4 0 0.2-0.3 0.4-0.6 0.4-0.4 0-1 0.4-1.5 0.8-0.5 0.4-1.1 0.8-1.4 0.8-0.3 0-0.5 0.1-0.5 0.3 0 0.2-0.8 0.7-1.8 1.1-1 0.4-1.8 0.9-1.8 1.1 0 0.1-0.4 0.3-0.8 0.3-0.4 0-0.8 0.2-0.8 0.4 0 0.2-0.3 0.4-0.6 0.4-0.4 0-1 0.4-1.5 0.8-0.5 0.4-1.1 0.8-1.4 0.8-0.3 0-0.5 0.2-0.5 0.4 0 0.2-0.4 0.4-0.8 0.4-0.4 0-0.8 0.2-0.8 0.4 0 0.2-0.3 0.4-0.7 0.4-0.4 0-1 0.4-1.3 0.8-0.3 0.4-0.9 0.8-1.3 0.8-0.4 0-0.7 0.2-0.7 0.4 0 0.2-0.4 0.4-0.8 0.4-0.4 0-0.8 0.2-0.8 0.4 0 0.2-0.3 0.4-0.6 0.4-0.3 0-0.6 0.2-0.6 0.4 0 0.2-0.3 0.4-0.6 0.4-0.3 0-0.6 0.2-0.6 0.4 0 0.2-0.3 0.4-0.6 0.4-0.3 0-0.6 0.2-0.6 0.4 0 0.2-0.4 0.4-0.8 0.4-0.4 0-0.8 0.2-0.8 0.4 0 0.1-0.3 0.4-0.7 0.5-0.9 0.3-3.1 1.6-3.2 2-0.1 0.2-0.5 0.3-0.9 0.3-0.5 0-0.8 0.2-0.8 0.3 0 0.2-1.4 1.1-3.2 1.9-1.8 0.9-3.2 1.7-3.2 1.9 0 0.2-0.3 0.3-0.6 0.3-0.3 0-0.6 0.2-0.6 0.4 0 0.2-0.4 0.4-0.8 0.4-0.4 0-0.8 0.2-0.8 0.4 0 0.2-0.2 0.4-0.5 0.4-0.3 0-0.9 0.4-1.4 0.8-0.5 0.4-1.1 0.8-1.5 0.8-0.3 0-0.6 0.2-0.6 0.4 0 0.2-0.3 0.4-0.6 0.4-0.4 0-1 0.4-1.5 0.8-0.5 0.4-1.1 0.8-1.4 0.8-0.3 0-0.5 0.2-0.5 0.4 0 0.2-0.4 0.4-0.8 0.4-0.4 0-0.8 0.2-0.8 0.4 0 0.2-0.3 0.4-0.6 0.4-0.4 0-1 0.4-1.5 0.8-0.5 0.4-1.1 0.8-1.4 0.8-0.3 0-0.5 0.1-0.5 0.3 0 0.2-0.6 0.6-1.4 0.9-0.8 0.3-1.4 0.7-1.4 0.8 0 0.2-0.9 0.7-1.9 1.2-1 0.6-2 1.1-2 1.3-0.1 0.2-0.5 0.3-0.9 0.3-0.5 0-0.8 0.1-0.8 0.3 0 0.4-2.6 1.7-3.3 1.7-0.3 0-0.8 0.4-1.1 0.8-0.3 0.4-0.9 0.8-1.3 0.8-0.4 0-0.7 0.2-0.7 0.4 0 0.2-0.4 0.4-0.8 0.4-0.4 0-0.8 0.2-0.8 0.4 0 0.2-0.3 0.4-0.6 0.4-0.3 0-0.6 0.2-0.6 0.4 0 0.2-0.3 0.4-0.6 0.4-0.3 0-0.6 0.2-0.6 0.4 0 0.2-0.3 0.4-0.6 0.4-0.3 0-0.6 0.2-0.6 0.4 0 0.2-0.4 0.4-0.8 0.4-0.4 0-0.8 0.2-0.8 0.4 0 0.2-0.3 0.4-0.7 0.4-0.4 0-1 0.4-1.3 0.8-0.3 0.4-0.9 0.8-1.3 0.8-0.4 0-0.7 0.2-0.7 0.4 0 0.2-0.4 0.4-0.8 0.4-0.4 0-0.8 0.2-0.8 0.4 0 0.2-0.2 0.4-0.5 0.4-0.3 0-0.9 0.4-1.4 0.8-0.5 0.4-1.1 0.8-1.5 0.8-0.3 0-0.6 0.2-0.6 0.4 0 0.2-0.3 0.4-0.6 0.4-0.4 0-1 0.3-1.5 0.8-0.4 0.4-1.8 1.2-2.9 1.8-1.2 0.6-2.3 1.2-2.4 1.4-0.1 0.2-0.6 0.4-1 0.4-0.5 0-0.8 0.2-0.8 0.4 0 0.2-0.4 0.4-0.8 0.4-0.4 0-0.8 0.2-0.8 0.4 0 0.2-0.3 0.4-0.7 0.4-0.4 0-1 0.4-1.3 0.8-0.3 0.4-0.9 0.8-1.3 0.8-0.4 0-0.7 0.2-0.7 0.4 0 0.2-0.3 0.4-0.6 0.4-0.4 0-1 0.4-1.5 0.8-0.5 0.4-1.1 0.8-1.4 0.8-0.3 0-0.5 0.2-0.5 0.4 0 0.2-0.3 0.4-0.6 0.4-0.3 0-0.6 0.2-0.6 0.4 0 0.2-0.4 0.4-0.8 0.4-0.4 0-0.8 0.2-0.8 0.4 0 0.2-0.2 0.4-0.5 0.4-0.3 0-0.9 0.4-1.4 0.8-0.5 0.4-1.1 0.8-1.5 0.8-0.3 0-0.6 0.2-0.6 0.4 0 0.2-0.3 0.4-0.6 0.4-0.4 0-1 0.4-1.5 0.8-0.5 0.4-1.1 0.8-1.4 0.8-0.3 0-0.5 0.2-0.5 0.4 0 0.2-0.4 0.4-0.8 0.4-0.4 0-0.8 0.2-0.8 0.4 0 0.1-0.3 0.4-0.7 0.5-0.7 0.2-2.9 1.5-3.3 1.9-0.1 0.1-1 0.6-1.9 1-0.9 0.4-1.7 0.9-1.7 1.1 0 0.2-0.4 0.3-0.8 0.3-0.4 0-0.8 0.2-0.8 0.4 0 0.2-0.3 0.4-0.6 0.4-0.4 0-1 0.4-1.5 0.8-0.5 0.4-1.1 0.8-1.4 0.8-0.3 0-0.5 0.2-0.5 0.4 0 0.2-0.4 0.4-0.8 0.4-0.4 0-0.8 0.2-0.8 0.4 0 0.2-0.3 0.4-0.7 0.4-0.4 0-1 0.4-1.3 0.8-0.3 0.4-0.9 0.8-1.3 0.8-0.4 0-0.7 0.2-0.7 0.4 0 0.2-0.4 0.4-0.8 0.4-0.4 0-0.8 0.2-0.8 0.4 0 0.2-0.2 0.4-0.4 0.4-0.2 0-0.8 0.4-1.3 0.8-0.5 0.4-1.1 0.8-1.4 0.8-0.3 0-0.5 0.2-0.5 0.4 0 0.2-0.4 0.4-0.8 0.4-0.4 0-0.8 0.2-0.8 0.4 0 0.1-0.3 0.4-0.7 0.5-0.9 0.3-3.1 1.6-3.2 2-0.1 0.2-0.5 0.3-0.9 0.3-0.4 0-0.8 0.2-0.9 0.3-0.1 0.5-4.1 2.5-4.8 2.5-0.3 0-0.8 0.4-1.1 0.8-0.3 0.4-0.8 0.8-1.1 0.8-0.3 0-0.5 0.2-0.5 0.4 0 0.2-0.4 0.4-0.8 0.4-0.4 0-0.8 0.2-0.8 0.4 0 0.2-0.2 0.4-0.5 0.4-0.3 0-0.9 0.4-1.4 0.8-0.5 0.4-1.1 0.8-1.5 0.8-0.3 0-0.6 0.2-0.6 0.4 0 0.2-0.3 0.4-0.6 0.4-0.4 0-1 0.4-1.5 0.8-0.5 0.4-1.1 0.8-1.4 0.8-0.3 0-0.5 0.2-0.5 0.4 0 0.2-0.4 0.4-0.8 0.4-0.4 0-0.8 0.2-0.8 0.4 0 0.2-0.3 0.4-0.7 0.4-0.4 0-1 0.4-1.3 0.8-0.3 0.4-0.9 0.8-1.3 0.8-0.4 0-0.7 0.1-0.7 0.3 0 0.2-0.6 0.6-1.4 0.9-0.8 0.3-1.4 0.7-1.4 0.8 0 0.2-0.9 0.7-1.9 1.2-1 0.6-2 1.1-2.1 1.2-0.5 0.5-2.8 1.6-3.4 1.6-0.3 0-0.6 0.2-0.6 0.4 0 0.2-0.3 0.4-0.7 0.4-0.4 0-1 0.4-1.3 0.8-0.3 0.4-0.9 0.8-1.3 0.8-0.4 0-0.7 0.2-0.7 0.4 0 0.2-0.4 0.4-0.8 0.4-0.4 0-0.8 0.2-0.8 0.4 0 0.2-0.3 0.4-0.6 0.4-0.3 0-0.6 0.2-0.6 0.4 0 0.2-0.3 0.4-0.6 0.4-0.3 0-0.6 0.2-0.6 0.4 0 0.2-0.3 0.4-0.6 0.4-0.3 0-0.6 0.2-0.6 0.4 0 0.2-0.4 0.4-0.8 0.4-0.4 0-0.8 0.2-0.8 0.4 0 0.2-0.2 0.4-0.5 0.4-0.3 0-0.9 0.4-1.4 0.8-0.5 0.4-1.1 0.8-1.5 0.8-0.3 0-0.6 0.2-0.6 0.4 0 0.2-0.4 0.4-0.8 0.4-0.4 0-0.8 0.2-0.8 0.4 0 0.1-0.5 0.5-1.2 0.8-0.7 0.3-1.2 0.7-1.2 0.8 0 0.2-0.4 0.4-0.8 0.4-0.4 0-0.8 0.2-0.8 0.4 0 0.2-0.3 0.4-0.6 0.4-0.4 0-1 0.4-1.5 0.8-0.4 0.4-1.8 1.2-2.9 1.8-1.2 0.6-2.3 1.2-2.4 1.4-0.1 0.2-0.6 0.4-1 0.4-0.5 0-0.8 0.2-0.8 0.4 0 0.2-0.4 0.4-0.8 0.4-0.4 0-0.8 0.2-0.8 0.4 0 0.2-0.2 0.4-0.5 0.4-0.3 0-0.9 0.4-1.4 0.8-0.5 0.4-1.1 0.8-1.5 0.8-0.3 0-0.6 0.2-0.6 0.4 0 0.2-0.3 0.4-0.6 0.4-0.4 0-1 0.4-1.5 0.8-0.5 0.4-1.1 0.8-1.4 0.8-0.3 0-0.5 0.2-0.5 0.4 0 0.2-0.3 0.4-0.6 0.4-0.3 0-0.6 0.2-0.6 0.4 0 0.2-0.3 0.4-0.6 0.4-0.4 0-1 0.4-1.5 0.8-0.5 0.4-1.1 0.8-1.4 0.8-0.3 0-0.5 0.2-0.5 0.4 0 0.2-0.4 0.4-0.8 0.4-0.4 0-0.8 0.2-0.8 0.4 0 0.2-0.3 0.4-0.6 0.4-0.4 0-1 0.4-1.5 0.8-0.5 0.4-1.1 0.8-1.4 0.8-0.3 0-0.5 0.2-0.5 0.4 0 0.2-0.3 0.4-0.8 0.4-0.4 0-0.8 0.1-0.9 0.3-0.1 0.4-2.5 1.7-3.1 1.7-0.6 0-0.5-2.7 0.2-3.3 0.3-0.4 0.6-0.9 0.6-1.3 0-0.3 0.2-0.6 0.4-0.6 0.1 0 0.4-0.3 0.5-0.7 0.3-0.9 1.6-3.1 2-3.2 0.2-0.1 0.3-0.5 0.3-0.9 0-0.5 0.2-0.8 0.4-0.8 0.2 0 0.4-0.2 0.4-0.4 0-0.3 0.5-1.2 1.2-2.2 0.7-1 1.2-1.9 1.2-2.2 0-0.2 0.2-0.4 0.4-0.4 0.2 0 0.4-0.3 0.4-0.6 0-0.4 0.4-1 0.8-1.5 0.4-0.5 0.8-1.1 0.8-1.4 0-0.3 0.2-0.5 0.4-0.5 0.2 0 0.4-0.4 0.4-0.8 0-0.4 0.2-0.8 0.4-0.8 0.2 0 0.4-0.3 0.4-0.7 0-0.4 0.4-1 0.8-1.3 0.4-0.3 0.8-0.9 0.8-1.3 0-0.4 0.2-0.7 0.4-0.7 0.2 0 0.4-0.4 0.4-0.8 0-0.4 0.2-0.8 0.4-0.8 0.2 0 0.4-0.3 0.4-0.6 0-0.3 0.2-0.6 0.4-0.6 0.2 0 0.4-0.3 0.4-0.6 0-0.3 0.1-0.6 0.3-0.7 0.2 0 0.8-1.2 1.5-2.6 0.7-1.4 1.3-2.5 1.5-2.5 0.2 0 0.3-0.4 0.3-0.8 0-0.4 0.2-0.8 0.4-0.8 0.2 0 0.4-0.2 0.4-0.5 0-0.3 0.4-0.9 0.8-1.4 0.4-0.5 0.8-1.1 0.8-1.5 0-0.3 0.2-0.6 0.4-0.6 0.2 0 0.4-0.4 0.4-0.8 0-0.4 0.2-0.8 0.4-0.8 0.2 0 0.4-0.2 0.4-0.5 0-0.3 0.4-0.9 0.8-1.4 0.4-0.5 0.8-1.1 0.8-1.5 0-0.3 0.2-0.6 0.4-0.6 0.2 0 0.4-0.3 0.4-0.6 0-0.3 0.2-0.6 0.4-0.6 0.2 0 0.4-0.2 0.4-0.5 0-0.3 0.4-0.9 0.8-1.4 0.4-0.5 0.8-1.1 0.8-1.5 0-0.3 0.2-0.6 0.4-0.6 0.2 0 0.4-0.4 0.4-0.8 0-0.4 0.2-0.8 0.4-0.8 0.2 0 0.4-0.2 0.4-0.5 0-0.3 0.4-0.9 0.8-1.4 0.4-0.5 0.8-1.1 0.8-1.5 0-0.3 0.2-0.6 0.4-0.6 0.2 0 0.4-0.3 0.4-0.8 0-0.4 0.2-0.8 0.3-0.9 0.2 0 1-1.2 1.6-2.5 1.7-3.2 2.6-4.8 3-4.9 0.2-0.1 0.3-0.5 0.3-0.9 0-0.5 0.2-0.8 0.4-0.8 0.1 0 0.5-0.5 0.8-1.2 0.3-0.7 0.7-1.2 0.8-1.2 0.2 0 0.4-0.4 0.4-0.8 0-0.4 0.2-0.8 0.4-0.8 0.2 0 0.4-0.3 0.4-0.6 0-0.4 0.4-1 0.8-1.5 0.4-0.5 0.8-1.1 0.8-1.4 0-0.3 0.2-0.5 0.4-0.5 0.2 0 0.4-0.4 0.4-0.8 0-0.4 0.2-0.8 0.4-0.8 0.2 0 0.4-0.2 0.4-0.5 0-0.3 0.3-0.9 0.7-1.3 0.4-0.5 1-1.4 1.3-2.1 0.3-0.7 0.7-1.3 0.9-1.3 0.2 0 0.3-0.3 0.3-0.7 0-0.4 0.4-1 0.8-1.3 0.4-0.3 0.8-0.9 0.8-1.3 0-0.4 0.2-0.7 0.4-0.7 0.2 0 0.4-0.3 0.4-0.8 0-0.4 0.1-0.8 0.3-0.9 0.2 0 1-1.5 1.9-3.2 0.9-1.7 1.7-3.1 1.8-3.1 0.1 0 0.5-0.6 0.8-1.4 0.3-0.8 0.7-1.4 0.9-1.4 0.2 0 0.3-0.3 0.3-0.7 0-0.4 0.4-1 0.8-1.3 0.4-0.3 0.8-0.9 0.8-1.3 0-0.4 0.2-0.7 0.4-0.7 0.2 0 0.4-0.4 0.4-0.8 0-0.4 0.2-0.8 0.4-0.8 0.2 0 0.4-0.2 0.4-0.5 0-0.3 0.4-0.9 0.8-1.4 0.4-0.5 0.8-1.1 0.8-1.5 0-0.3 0.2-0.6 0.4-0.6 0.2 0 0.4-0.3 0.4-0.6 0-0.4 0.4-1 0.8-1.5 0.4-0.5 0.8-1.1 0.8-1.4 0-0.3 0.2-0.5 0.4-0.5 0.2 0 0.4-0.4 0.4-0.8 0-0.4 0.2-0.8 0.4-0.8 0.2 0 0.4-0.2 0.4-0.4 0-0.2 0.4-0.8 0.8-1.3 0.4-0.5 0.8-1.1 0.8-1.4 0-0.3 0.2-0.5 0.4-0.5 0.2 0 0.4-0.3 0.4-0.6 0-0.8 1.3-3.4 1.7-3.4 0.2 0 0.3-0.3 0.3-0.8 0-0.4 0.1-0.8 0.3-0.9 0.4-0.1 1.7-2.3 2-3.2 0.1-0.4 0.4-0.7 0.5-0.7 0.2 0 0.4-0.4 0.4-0.8 0-0.4 0.2-0.8 0.4-0.8 0.2 0 0.4-0.2 0.4-0.5 0-0.3 0.3-0.9 0.7-1.3 0.4-0.5 1-1.4 1.3-2.1 0.3-0.7 0.7-1.3 0.9-1.3 0.2 0 0.3-0.3 0.3-0.7 0-0.4 0.4-1 0.8-1.3 0.4-0.3 0.8-0.9 0.8-1.3 0-0.4 0.2-0.7 0.4-0.7 0.2 0 0.4-0.4 0.4-0.8 0-0.4 0.2-0.8 0.4-0.8 0.2 0 0.4-0.3 0.4-0.7 0-0.4 0.4-1 0.8-1.3 0.4-0.3 0.8-0.9 0.8-1.3 0-0.4 0.2-0.7 0.4-0.7 0.2 0 0.4-0.4 0.4-0.8 0-0.4 0.2-0.8 0.4-0.8 0.2 0 0.4-0.3 0.4-0.6 0-0.3 0.1-0.6 0.3-0.6 0.2 0 0.5-0.4 0.7-0.9 1-2.1 2.8-5.3 3.1-5.4 0.2-0.1 0.3-0.5 0.3-0.9 0-0.5 0.2-0.8 0.4-0.8 0.2 0 0.4-0.2 0.4-0.5 0-0.3 0.4-0.9 0.8-1.4 0.4-0.5 0.8-1.1 0.8-1.5 0-0.3 0.2-0.6 0.4-0.6 0.2 0 0.4-0.4 0.4-0.8 0-0.4 0.2-0.8 0.4-0.8 0.2 0 0.4-0.3 0.4-0.6 0-0.3 0.2-0.6 0.4-0.6 0.2 0 0.4-0.3 0.4-0.6 0-0.3 0.2-0.6 0.4-0.6 0.2 0 0.4-0.4 0.4-0.8 0-0.4 0.2-0.8 0.4-0.8 0.2 0 0.4-0.3 0.4-0.6 0-0.3 0.2-0.6 0.4-0.6 0.2 0 0.4-0.2 0.4-0.5 0-0.3 0.4-0.9 0.8-1.4 0.4-0.5 0.8-1.1 0.8-1.5 0-0.3 0.2-0.6 0.4-0.6 0.2 0 0.4-0.3 0.4-0.6 0-0.4 0.4-1 0.8-1.5 0.4-0.5 0.8-1.1 0.8-1.4 0-0.3 0.2-0.5 0.4-0.5 0.2 0 0.4-0.4 0.4-0.8 0-0.4 0.2-0.8 0.4-0.8 0.2 0 0.4-0.4 0.4-0.8 0-0.4 0.1-0.8 0.3-0.8 0.2 0 0.7-0.8 1.1-1.7 0.4-0.9 1.2-2.5 1.9-3.4 0.6-0.9 1.1-1.8 1.1-2.1 0-0.2 0.2-0.4 0.4-0.4 0.2 0 0.4-0.4 0.4-0.8 0-0.4 0.2-0.8 0.4-0.8 0.1 0 0.5-0.5 0.8-1.2 0.3-0.7 0.7-1.2 0.8-1.2 0.2 0 0.4-0.4 0.4-0.8 0-0.4 0.2-0.8 0.4-0.8 0.2 0 0.4-0.3 0.4-0.7 0-0.4 0.4-1 0.8-1.3 0.4-0.3 0.8-0.9 0.8-1.3 0-0.4 0.2-0.7 0.4-0.7 0.2 0 0.4-0.4 0.4-0.8 0-0.4 0.2-0.8 0.4-0.8 0.2 0 0.4-0.2 0.4-0.5 0-0.3 0.3-0.9 0.7-1.3 0.4-0.5 1-1.4 1.3-2.1 0.3-0.7 0.7-1.3 0.9-1.3 0.2 0 0.3-0.3 0.3-0.7 0-0.4 0.4-1 0.8-1.3 0.4-0.3 0.8-0.9 0.8-1.3 0-0.4 0.2-0.7 0.4-0.7 0.2 0 0.4-0.3 0.4-0.8 0-0.4 0.3-1 0.6-1.3 0.3-0.4 0.6-0.9 0.6-1.2 0-0.4 0.1-0.7 0.3-0.8 0.2 0 0.7-1 1.3-2 0.5-1 1.1-1.9 1.3-1.9 0.1 0 0.3-0.4 0.3-0.8 0-0.4 0.2-0.8 0.4-0.8 0.2 0 0.4-0.3 0.4-0.6 0-0.3 0.2-0.6 0.4-0.6 0.2 0 0.4-0.2 0.4-0.5 0-0.3 0.4-0.9 0.8-1.4 0.4-0.5 0.8-1.1 0.8-1.5 0-0.3 0.2-0.6 0.4-0.6 0.2 0 0.4-0.4 0.4-0.8 0-0.4 0.2-0.8 0.4-0.8 0.2 0 0.4-0.2 0.4-0.5 0-0.8 4.2-5.1 5-5.1 0.3 0 0.6-0.2 0.6-0.4 0-0.2 0.4-0.4 0.8-0.4 0.4 0 0.8-0.2 0.8-0.4 0-0.2 1.7-0.4 4.2-0.4zm139.1 95.7c0.3 0.2 1.2 0.3 1.8 0.3 0.7 0 1.4 0.2 1.5 0.4 0.1 0.2 0.6 0.4 1 0.4 0.8 0 5.2 4.1 5.2 4.8 0 0.2 0.4 0.8 0.8 1.3 0.4 0.5 0.8 1.1 0.8 1.4 0 0.3 0.2 0.5 0.4 0.5 0.2 0 0.4 0.4 0.4 0.8 0 0.4 0.2 0.8 0.4 0.8 0.2 0 0.4 0.3 0.4 0.7 0 0.4 0.4 1 0.8 1.3 0.4 0.3 0.8 0.9 0.8 1.3 0 0.4 0.2 0.7 0.4 0.7 0.2 0 0.4 0.4 0.4 0.8 0 0.4 0.2 0.8 0.4 0.8 0.2 0 0.4 0.2 0.4 0.4 0 0.2 0.4 0.8 0.8 1.3 0.4 0.5 0.8 1.1 0.8 1.4 0 0.3 0.2 0.5 0.4 0.5 0.2 0 0.4 0.4 0.4 0.8 0 0.4 0.2 0.8 0.4 0.8 0.1 0 0.4 0.3 0.5 0.7 0.3 0.9 1.6 3.1 2 3.2 0.2 0.1 0.3 0.5 0.3 0.9 0 0.5 0.1 0.8 0.3 0.8 0.4 0 1.7 2.6 1.7 3.4 0 0.3 0.2 0.6 0.4 0.6 0.2 0 0.4 0.3 0.4 0.7 0 0.4 0.4 1 0.8 1.3 0.4 0.3 0.8 0.8 0.8 1.1 0 0.3 0.2 0.5 0.4 0.5 0.2 0 0.4 0.4 0.4 0.8 0 0.4 0.2 0.8 0.4 0.8 0.2 0 0.4 0.2 0.4 0.5 0 0.3 0.4 0.9 0.8 1.4 0.4 0.5 0.8 1.1 0.8 1.5 0 0.3 0.2 0.6 0.4 0.6 0.2 0 0.4 0.3 0.4 0.6 0 0.4 0.4 1 0.8 1.5 0.4 0.5 0.8 1.1 0.8 1.4 0 0.3 0.2 0.5 0.4 0.5 0.2 0 0.4 0.4 0.4 0.8 0 0.4 0.2 0.8 0.4 0.8 0.2 0 0.4 0.3 0.4 0.7 0 0.4 0.4 1 0.8 1.3 0.4 0.3 0.8 0.9 0.8 1.3 0 0.4 0.1 0.7 0.3 0.7 0.2 0 0.6 0.6 0.9 1.4 0.3 0.8 0.7 1.4 0.8 1.4 0.1 0 0.9 1.4 1.8 3.1 0.9 1.7 1.7 3.2 1.9 3.2 0.2 0.1 0.3 0.5 0.3 0.9 0 0.5 0.2 0.8 0.4 0.8 0.2 0 0.4 0.3 0.4 0.7 0 0.4 0.4 1 0.8 1.3 0.4 0.3 0.8 0.9 0.8 1.3 0 0.4 0.2 0.7 0.4 0.7 0.2 0 0.4 0.4 0.4 0.8 0 0.4 0.2 0.8 0.4 0.8 0.2 0 0.4 0.2 0.4 0.4 0 0.2 0.4 0.8 0.8 1.3 0.4 0.5 0.8 1.1 0.8 1.4 0 0.3 0.2 0.5 0.4 0.5 0.2 0 0.4 0.4 0.4 0.8 0 0.4 0.2 0.8 0.4 0.8 0.2 0 0.4 0.2 0.4 0.5 0 0.3 0.4 0.9 0.8 1.4 0.4 0.5 0.8 1.1 0.8 1.5 0 0.3 0.2 0.6 0.4 0.6 0.2 0 0.4 0.4 0.4 0.8 0 0.4 0.2 0.8 0.4 0.8 0.2 0 0.4 0.2 0.4 0.5 0 0.3 0.4 0.9 0.8 1.4 0.4 0.5 0.8 1.1 0.8 1.5 0 0.3 0.2 0.6 0.4 0.6 0.2 0 0.4 0.4 0.4 0.8 0 0.4 0.2 0.8 0.3 0.8 0.2 0 1.1 1.3 1.9 2.9 0.8 1.6 1.7 3 1.9 3 0.2 0.1 0.3 0.5 0.3 0.9 0 0.5 0.2 0.8 0.4 0.8 0.2 0 0.4 0.4 0.4 0.8 0 0.4 0.2 0.8 0.4 0.8 0.2 0 0.4 0.2 0.4 0.5 0 0.3 0.4 0.9 0.8 1.4 0.4 0.5 0.8 1.1 0.8 1.5 0 0.3 0.2 0.6 0.4 0.6 0.2 0 0.4 0.3 0.4 0.6 0 0.4 0.4 1 0.8 1.5 0.4 0.5 0.8 1.1 0.8 1.4 0 0.3 0.2 0.5 0.4 0.5 0.2 0 0.4 0.3 0.4 0.6 0 0.3 0.2 0.6 0.4 0.6 0.2 0 0.4 0.3 0.4 0.6 0 0.4 0.4 1 0.8 1.5 0.4 0.5 0.8 1.1 0.8 1.4 0 0.3 0.2 0.5 0.4 0.5 0.2 0 0.4 0.4 0.4 1 0 0.5 0.2 1.1 0.4 1.2 0.2 0.1 0.4 2.1 0.4 4.4 0 2.5-0.2 4.2-0.4 4.2-0.2 0-0.4 0.4-0.4 0.8 0 0.4-0.2 0.8-0.4 0.8-0.2 0-0.4 0.3-0.4 0.6 0 0.8-4.3 5-5.1 5-0.3 0-0.5 0.2-0.5 0.4 0 0.2-0.4 0.4-0.8 0.4-0.4 0-0.8 0.2-0.8 0.4 0 0.2-0.3 0.4-0.7 0.4-0.3 0-0.9 0.3-1.3 0.7-0.3 0.4-1.2 1-1.9 1.3-0.7 0.3-1.3 0.7-1.3 0.9 0 0.2-0.3 0.3-0.6 0.3-0.4 0-1 0.4-1.5 0.8-1.3 1.2-279.1 1.3-279.1 0.1 0-0.7 2.3-2.5 3.2-2.5 0.2 0 0.4-0.2 0.4-0.4 0-0.2 0.3-0.4 0.6-0.4 0.4 0 1-0.4 1.5-0.8 0.5-0.4 1.1-0.8 1.4-0.8 0.3 0 0.5-0.2 0.5-0.4 0-0.2 0.4-0.4 0.8-0.4 0.4 0 0.8-0.2 0.8-0.4 0-0.2 0.3-0.4 0.6-0.4 0.4 0 1-0.4 1.5-0.8 0.5-0.4 1.1-0.8 1.4-0.8 0.3 0 0.5-0.2 0.5-0.4 0-0.2 0.4-0.4 0.8-0.4 0.4 0 0.8-0.2 0.8-0.4 0-0.2 0.2-0.4 0.4-0.4 0.3 0 1.2-0.5 2.1-1.1 0.9-0.6 2.5-1.5 3.4-1.9 0.9-0.4 1.7-0.9 1.7-1.1 0-0.2 0.4-0.3 0.8-0.3 0.4 0 0.8-0.2 0.8-0.4 0-0.2 0.3-0.4 0.7-0.4 0.4 0 1-0.4 1.3-0.8 0.3-0.4 0.9-0.8 1.3-0.8 0.4 0 0.7-0.2 0.7-0.4 0-0.2 0.4-0.4 0.8-0.4 0.4 0 0.8-0.2 0.8-0.4 0-0.2 0.3-0.4 0.7-0.4 0.4 0 1-0.4 1.3-0.8 0.3-0.4 0.9-0.8 1.3-0.8 0.4 0 0.7-0.2 0.7-0.4 0-0.2 0.2-0.4 0.4-0.4 0.3 0 1.2-0.5 2.2-1.2 1-0.7 1.9-1.2 2.2-1.2 0.2 0 0.4-0.2 0.4-0.4 0-0.2 0.4-0.4 0.8-0.4 0.4 0 0.8-0.2 0.8-0.4 0-0.1 0.5-0.5 1.2-0.8 0.7-0.3 1.2-0.7 1.2-0.8 0-0.2 0.4-0.4 0.8-0.4 0.4 0 0.8-0.2 0.8-0.4 0-0.2 0.4-0.4 0.8-0.4 0.4 0 0.8-0.1 0.8-0.3 0-0.2 1.1-0.9 2.5-1.5 1.4-0.7 2.6-1.3 2.6-1.5 0.1-0.2 0.4-0.3 0.7-0.3 0.3 0 0.6-0.2 0.6-0.4 0-0.2 0.3-0.4 0.6-0.4 0.3 0 0.6-0.2 0.6-0.4 0-0.2 0.4-0.4 0.8-0.4 0.4 0 0.8-0.2 0.8-0.4 0-0.2 0.3-0.4 0.6-0.4 0.3 0 0.6-0.2 0.6-0.4 0-0.2 0.3-0.4 0.6-0.4 0.3 0 0.6-0.2 0.6-0.4 0-0.2 0.4-0.4 0.8-0.4 0.4 0 0.8-0.2 0.8-0.4 0-0.2 0.3-0.4 0.6-0.4 0.4 0 1-0.4 1.5-0.8 0.5-0.4 1.1-0.8 1.4-0.8 0.3 0 0.5-0.2 0.5-0.4 0-0.2 0.4-0.4 0.8-0.4 0.4 0 0.8-0.2 0.8-0.4 0-0.2 0.3-0.4 0.7-0.4 0.3 0 0.9-0.3 1.3-0.7 0.3-0.4 1.2-1 1.9-1.3 0.7-0.3 1.3-0.7 1.3-0.9 0-0.2 0.4-0.3 0.8-0.3 0.4 0 0.8-0.2 0.8-0.3 0-0.2 0.9-0.8 1.9-1.3 1-0.6 2-1.1 2.1-1.2 0.5-0.5 2.8-1.6 3.4-1.6 0.3 0 0.6-0.2 0.6-0.4 0-0.2 0.3-0.4 0.7-0.4 0.4 0 1-0.4 1.3-0.8 0.3-0.4 0.9-0.8 1.3-0.8 0.4 0 0.7-0.2 0.7-0.4 0-0.2 0.3-0.4 0.6-0.4 0.3 0 0.6-0.2 0.6-0.4 0-0.2 0.3-0.4 0.6-0.4 0.4 0 1-0.4 1.5-0.8 0.5-0.4 1.1-0.8 1.4-0.8 0.3 0 0.5-0.2 0.5-0.4 0-0.2 0.4-0.4 0.8-0.4 0.4 0 0.8-0.2 0.8-0.4 0-0.2 0.2-0.4 0.5-0.4 0.3 0 0.9-0.4 1.4-0.8 0.5-0.4 1.1-0.8 1.5-0.8 0.3 0 0.6-0.2 0.6-0.4 0-0.2 0.4-0.4 0.8-0.4 0.4 0 0.8-0.2 0.8-0.4 0-0.1 0.5-0.5 1.2-0.8 0.7-0.3 1.2-0.7 1.2-0.8 0-0.2 0.4-0.4 0.8-0.4 0.4 0 0.8-0.2 0.8-0.4 0-0.2 0.2-0.4 0.4-0.4 0.3 0 1.2-0.5 2.1-1.1 0.9-0.6 2.4-1.5 3.2-1.8 0.8-0.4 1.6-0.9 1.7-1.1 0.1-0.2 0.6-0.4 1-0.4 0.5 0 0.8-0.2 0.8-0.4 0-0.2 0.4-0.4 0.8-0.4 0.4 0 0.8-0.2 0.8-0.4 0-0.2 0.2-0.4 0.5-0.4 0.3 0 0.9-0.4 1.4-0.8 0.5-0.4 1.1-0.8 1.5-0.8 0.3 0 0.6-0.2 0.6-0.4 0-0.2 0.3-0.4 0.7-0.4 0.3 0 0.9-0.3 1.3-0.7 0.3-0.4 1.2-1 1.9-1.3 0.7-0.3 1.3-0.7 1.3-0.9 0-0.2 0.3-0.3 0.6-0.3 0.4 0 1-0.4 1.5-0.8 0.5-0.4 1.1-0.8 1.4-0.8 0.3 0 0.5-0.2 0.5-0.4 0-0.2 0.4-0.4 0.8-0.4 0.4 0 0.8-0.2 0.8-0.4 0-0.2 0.3-0.4 0.6-0.4 0.4 0 1-0.4 1.5-0.8 0.5-0.4 1.1-0.8 1.4-0.8 0.3 0 0.5-0.2 0.5-0.4 0-0.2 0.4-0.4 0.8-0.4 0.4 0 0.8-0.1 0.8-0.3 0-0.2 1.4-1 3.1-1.9 1.7-0.9 3.2-1.7 3.2-1.9 0.1-0.2 0.4-0.3 0.7-0.3 0.3 0 0.6-0.2 0.6-0.4 0-0.2 0.4-0.4 0.8-0.4 0.4 0 0.8-0.2 0.8-0.4 0-0.2 0.3-0.4 0.7-0.4 0.4 0 1-0.4 1.3-0.8 0.3-0.4 0.9-0.8 1.3-0.8 0.4 0 0.7-0.2 0.7-0.4 0-0.2 0.4-0.4 0.8-0.4 0.4 0 0.8-0.2 0.8-0.4 0-0.2 0.2-0.4 0.5-0.4 0.3 0 0.9-0.4 1.4-0.8 0.5-0.4 1.1-0.8 1.5-0.8 0.3 0 0.6-0.2 0.6-0.4 0-0.2 0.2-0.4 0.4-0.4 0.3 0 1.2-0.5 2.2-1.2 1-0.7 1.9-1.2 2.2-1.2 0.2 0 0.4-0.2 0.4-0.4 0-0.2 0.4-0.4 0.8-0.4 0.4 0 0.8-0.1 0.8-0.3 0-0.2 0.9-0.8 2-1.3 1.1-0.6 2-1.1 2-1.3 0-0.2 0.4-0.3 0.8-0.3 0.4 0 0.8-0.2 0.8-0.3 0-0.2 1.2-0.9 2.6-1.5 1.4-0.7 2.6-1.3 2.6-1.5 0-0.2 0.3-0.3 0.6-0.3 0.3 0 0.6-0.2 0.6-0.4 0-0.2 0.3-0.4 0.6-0.4 0.3 0 0.6-0.2 0.6-0.4 0-0.2 0.4-0.4 0.8-0.4 0.4 0 0.8-0.2 0.8-0.4 0-0.2 0.3-0.4 0.6-0.4 0.3 0 0.6-0.2 0.6-0.4 0-0.2 0.3-0.4 0.6-0.4 0.3 0 0.6-0.2 0.6-0.4 0-0.2 0.4-0.4 0.8-0.4 0.4 0 0.8-0.2 0.8-0.4 0-0.2 0.3-0.4 0.6-0.4 0.4 0 1-0.4 1.5-0.8 0.5-0.4 1.1-0.8 1.4-0.8 0.3 0 0.5-0.2 0.5-0.4 0-0.2 0.4-0.4 0.8-0.4 0.4 0 0.8-0.2 0.8-0.4 0-0.2 0.3-0.4 0.7-0.4 0.3 0 0.9-0.3 1.3-0.7 0.3-0.4 1.2-1 1.9-1.3 0.7-0.3 1.3-0.7 1.3-0.9 0-0.2 0.4-0.3 0.8-0.3 0.4 0 0.8-0.2 0.8-0.3 0-0.2 0.9-0.8 1.9-1.3 1-0.6 2-1.1 2.1-1.2 0.3-0.4 2.9-1.6 3.5-1.6 0.3 0 0.5-0.2 0.5-0.4 0-0.2 0.3-0.4 0.7-0.4 0.4 0 1-0.4 1.3-0.8 0.3-0.4 0.9-0.8 1.3-0.8 0.4 0 0.7-0.2 0.7-0.4 0-0.2 0.3-0.4 0.6-0.4 0.3 0 0.6-0.2 0.6-0.4 0-0.2 0.3-0.4 0.6-0.4 0.4 0 1-0.4 1.5-0.8 0.5-0.4 1.1-0.8 1.4-0.8 0.3 0 0.5-0.2 0.5-0.4 0-0.2 0.4-0.4 0.8-0.4 0.4 0 0.8-0.2 0.8-0.4 0-0.2 0.2-0.4 0.5-0.4 0.3 0 0.9-0.4 1.4-0.8 0.5-0.4 1.1-0.8 1.5-0.8 0.3 0 0.6-0.2 0.6-0.4 0-0.2 0.3-0.4 0.6-0.4 0.4 0 1-0.4 1.5-0.8 0.5-0.4 1.1-0.8 1.4-0.8 0.3 0 0.5-0.2 0.5-0.4 0-0.2 0.4-0.4 0.8-0.4 0.4 0 0.8-0.2 0.8-0.4 0-0.1 0.3-0.4 0.7-0.5 0.4-0.2 1.4-0.7 2.3-1.2 0.9-0.6 2.8-1.2 4.2-1.4 1.4-0.2 2.9-0.2 3.3 0zm74.1 152.3c0.1 0.2 0.6 0.4 1 0.4 0.5 0 0.8 0.2 0.8 0.4 0 0.2 0.3 0.4 0.6 0.4 0.8 0 4.2 3.4 4.2 4.2 0 0.3 0.2 0.6 0.5 0.7 0.7 0.2 1 123.3 0.3 125.6-0.6 2-4.3 5.7-6.3 6.3-2.3 0.7-336.7 0.4-337.4-0.3-0.2-0.3-1.1-0.5-2-0.5-0.8 0-1.6-0.2-1.7-0.4-0.1-0.2-0.8-0.4-1.4-0.4-0.7 0-1.2-0.2-1.2-0.4 0-0.2-0.5-0.4-1.2-0.4-0.7 0-1.2-0.2-1.2-0.4 0-0.2-0.5-0.4-1.2-0.4-0.7 0-1.2-0.2-1.2-0.4 0-0.2-0.4-0.4-0.8-0.4-0.4 0-0.8-0.2-0.8-0.4 0-0.2-0.3-0.4-0.8-0.4-0.4 0-0.9-0.2-1-0.4-0.1-0.2-0.6-0.4-1-0.4-0.5 0-0.8-0.2-0.8-0.4 0-0.2-0.4-0.4-0.8-0.4-0.4 0-0.8-0.2-0.8-0.4 0-0.2-0.3-0.4-0.8-0.4-0.4 0-0.8-0.1-0.9-0.3 0-0.2-1.1-0.8-2.3-1.5-1.2-0.6-2.3-1.2-2.4-1.4-0.1-0.1-0.8-0.7-1.6-1.2-0.8-0.6-1.7-1.3-2.2-1.6-3-2.4-12.6-12.1-12.6-12.8 0-0.2-0.1-0.4-0.3-0.4-0.2 0-0.8-0.7-1.3-1.6-0.5-0.9-1.1-1.6-1.3-1.6-0.2 0-0.3-0.2-0.3-0.5 0-0.3-0.4-0.9-0.8-1.4-0.4-0.5-0.8-1.1-0.8-1.5 0-0.3-0.1-0.6-0.3-0.7-0.5-0.2-1.7-2.6-1.7-3.3 0-0.3-0.2-0.6-0.4-0.6-0.2 0-0.4-0.4-0.4-0.8 0-0.4-0.2-0.8-0.4-0.8-0.2 0-0.4-0.5-0.4-1.2 0-0.7-0.1-1.2-0.3-1.2-0.4 0-1.3-2-1.3-2.9 0-0.4-0.2-0.7-0.4-0.7-0.2 0-0.4-0.5-0.4-1.2 0-0.7-0.2-1.2-0.4-1.2-0.2 0-0.4-0.5-0.4-1.2 0-0.6-0.2-1.3-0.4-1.4-0.2-0.1-0.4-0.9-0.4-1.8 0-0.9-0.2-1.7-0.4-1.8-0.2-0.1-0.4-1.1-0.4-2.2 0-1.1-0.2-2-0.4-2-0.3 0-0.4-3.8-0.4-10.6 0-6.6 0.1-10.6 0.4-10.8 0.2-0.1 0.4-1.1 0.4-2.2 0-1.1 0.2-2 0.4-2 0.2 0 0.4-0.7 0.4-1.6 0-0.9 0.2-1.6 0.4-1.6 0.2 0 0.4-0.6 0.4-1.4 0-0.7 0.2-1.5 0.4-1.6 0.2-0.1 0.4-0.7 0.4-1.2 0-0.6 0.2-1 0.4-1 0.2 0 0.4-0.5 0.4-1.2 0-0.7 0.2-1.2 0.4-1.2 0.2 0 0.4-0.4 0.4-0.8 0-0.4 0.2-0.8 0.4-0.8 0.2 0 0.4-0.4 0.4-0.8 0-0.4 0.2-0.8 0.4-0.8 0.2 0 0.4-0.3 0.4-0.6 0-0.3 0.2-0.9 0.4-1.3 0.2-0.4 0.9-1.9 1.6-3.3 0.6-1.5 1.5-2.9 1.8-3.2 0.3-0.3 0.6-0.7 0.6-1 0-0.2 0.4-0.7 0.8-1 0.4-0.3 0.8-0.8 0.8-1.1 0-0.3 0.5-1.1 1.2-1.7 0.7-0.6 1.2-1.3 1.2-1.6 0-0.5 10.2-10.8 10.7-10.8 0.2 0 0.9-0.5 1.6-1.2 0.7-0.7 1.5-1.2 1.8-1.2 0.3 0 0.8-0.4 1.1-0.8 0.3-0.4 0.9-0.8 1.2-0.8 0.3 0 0.9-0.4 1.2-0.8 0.3-0.4 0.9-0.8 1.3-0.8 0.4 0 0.7-0.2 0.7-0.4 0-0.2 0.4-0.4 0.8-0.4 0.4 0 0.8-0.2 0.8-0.4 0-0.2 0.4-0.4 0.8-0.4 0.4 0 0.8-0.2 0.8-0.4 0-0.2 0.4-0.4 0.8-0.4 0.4 0 0.8-0.2 0.8-0.4 0-0.2 0.4-0.4 0.8-0.4 0.4 0 0.8-0.2 0.8-0.4 0-0.2 0.4-0.4 0.8-0.4 0.4 0 0.8-0.2 0.8-0.4 0-0.2 0.4-0.4 1-0.4 0.5 0 1-0.2 1-0.4 0-0.2 0.5-0.4 1.2-0.4 0.7 0 1.2-0.2 1.2-0.4 0-0.2 0.5-0.4 1.2-0.4 0.7 0 1.2-0.2 1.2-0.4 0-0.2 0.5-0.4 1.2-0.4 0.6 0 1.3-0.2 1.4-0.4 0.1-0.2 1-0.4 2-0.4 1 0 1.8-0.2 1.8-0.4 0-0.2 1-0.4 2.2-0.4 1.2 0 2.3-0.2 2.4-0.4 0.3-0.6 330.5-0.6 330.8 0zm-325.6 58.8c-0.1 0.2-0.7 0.4-1.2 0.4-0.6 0-1 0.2-1 0.4 0 0.2-0.3 0.4-0.6 0.4-0.7 0-4.2 3.3-4.2 3.9 0 0.3-0.2 0.5-0.4 0.5-0.2 0-0.4 0.3-0.4 0.8 0 0.4-0.2 0.9-0.4 1-0.9 0.5 0 7.8 0.9 7.8 0.2 0 0.3 0.3 0.3 0.6 0 0.3 0.8 1.4 1.8 2.4 1 1 2.1 1.8 2.4 1.8 0.3 0 0.6 0.2 0.6 0.4 0 0.2 0.3 0.4 0.8 0.4 0.4 0 0.9 0.2 1 0.4 0.5 0.9 7.8 0 7.8-0.9 0-0.2 0.2-0.3 0.5-0.3 0.6 0 3.9-3.5 3.9-4.2 0-0.3 0.2-0.6 0.4-0.6 0.2 0 0.4-0.4 0.4-0.8 0-0.4 0.2-0.8 0.4-0.8 0.2 0 0.4-1.2 0.4-2.8 0-1.6-0.2-2.8-0.4-2.8-0.2 0-0.4-0.3-0.4-0.7 0-1.1-2.1-4.2-3.4-5.2-0.7-0.5-1.4-1-1.6-1.2-0.2-0.2-1-0.5-1.8-0.8-1.7-0.6-5.5-0.7-5.8-0.1z"/>
		<path id="path1" class="s1" d=""/>
		<path id="path2" class="s1" d=""/>
		<path id="path3" class="s1" d=""/>
		<path id="path4" class="s1" d=""/>
		<path id="path5" class="s1" d=""/>
		<path id="path6" class="s1" d=""/>
		<path id="path7" class="s1" d=""/>
		<path id="path8" class="s1" d=""/>
	</g>
</svg>