<svg version="1.2" xmlns="http://www.w3.org/2000/svg" viewBox="0 0 517 517" width="24" height="24">
	<title>dantotsu-svg</title>
	<style>
		.s0 { fill: #000000 } 
	</style>
	<g id="g_0">
		<path id="Layer" fill-rule="evenodd" class="s0" d="m643.3 1.4v513.4h-126.1v-513.4h-518v83.9c-45.4-1.3-81.7-38.3-81.7-83.9zm-725.8 513.4c0.1-45.6 36.4-82.6 81.7-83.8v83.8zm81.6-158.6h259.1c54.1 0 98.1-43.9 98.1-98.1 0-54.1-44-98-98.1-98h-259.1v-74.8c0.8 0 1.6 0.1 2.4 0.1h256.7c95.4 0 172.7 77.3 172.7 172.7 0 95.4-77.3 172.8-172.7 172.8h-256.7c-0.8 0-1.6 0.1-2.4 0.1zm0-196.1v196.1h-126v-196.1zm0.1 354.7h517.9z"/>
		<path id="Layer" class="s0" d="m316.4 240.8l-76.3-44c-13.3-7.7-30 1.9-30 17.3v88c0 15.5 16.7 25.1 30 17.4l76.3-44c13.3-7.7 13.3-27 0-34.7z"/>
	</g>
</svg>