<svg version="1.2" xmlns="http://www.w3.org/2000/svg" viewBox="0 0 517 517" width="24" height="24">
	<title>dantotsu-svg</title>
	<style>
		.s0 { fill: #000000 } 
	</style>
	<g id="g_0">
		<path fill-rule="evenodd" class="s0" d="m645.7-0.3v517.6h-127.2v-517.6zm-649.5 84.5c-45.7-1.3-82.4-38.6-82.4-84.5h82.4zm-82.4 433.1c0.1-46 36.7-83.3 82.4-84.6v84.6zm82.3-160h261.3c54.5 0 98.9-44.2 98.9-98.9 0-54.5-44.4-98.8-98.9-98.8h-261.3v-75.4c0.9 0 1.6 0 2.4 0h258.9c96.2 0 174.1 78 174.1 174.2 0 96.2-77.9 174.3-174.1 174.3h-258.9c-0.8 0-1.5 0-2.4 0zm0-197.7v197.7h-127.1v-197.7zm0.2 357.7h522.2z"/>
		<path class="s0" d="m317.8 240.6l-78.1-44.9c-13.6-7.9-30.7 1.9-30.7 17.7v90.1c0 15.8 17.1 25.6 30.7 17.7l78.1-44.9c13.6-8 13.6-27.7 0-35.7z"/>
	</g>
</svg>