<svg version="1.2" xmlns="http://www.w3.org/2000/svg" viewBox="0 0 517 517" width="24" height="24">
	<title>dantotsu-svg</title>
	<style>
		.s0 { fill: #000000 } 
	</style>
	<g id="g_0">
		<path fill-rule="evenodd" class="s0" d="m818.3-115v746.7h-183.4v-746.7zm-936.9 122c-66-1.9-118.8-55.7-118.8-122h118.8zm-118.8 624.7c0.1-66.3 52.9-120.1 118.8-121.9v121.9zm118.7-230.7h376.9c78.6 0 142.6-63.8 142.6-142.7 0-78.6-64-142.5-142.6-142.5h-376.9v-108.8c1.2 0 2.3 0.1 3.5 0.1h373.4c138.7 0 251.1 112.5 251.1 251.2 0 138.8-112.4 251.4-251.1 251.4h-373.4c-1.2 0-2.3 0.1-3.5 0.1zm0-285.2v285.2h-183.3v-285.2zm0.2 515.9h753.3z"/>
		<path class="s0" d="m342.8 233.2l-111-64c-19.3-11.2-43.6 2.8-43.6 25.2v128c0 22.5 24.3 36.5 43.6 25.3l111-64c19.3-11.2 19.3-39.3 0-50.5z"/>
	</g>
</svg>