<svg version="1.2" xmlns="http://www.w3.org/2000/svg" viewBox="0 0 400 400" width="24" height="24"><style>.a{fill:#040404}</style><path fill-rule="evenodd" class="a" d="m397.6 228.2c-21.2 148-192.3 221.4-314.1 134.7-9.6-6.9-29.4-24.1-28.5-24.9 0.1-0.2 35.9-0.3 79.4-0.3 50.4 0 79.4-0.1 79.7-0.4 0.3-0.2 2.4-0.7 4.7-1 55.6-8.3 99.8-48.1 113.8-102.4 0.5-2.1 1.3-4.5 1.7-5.2q0.7-1.4 0.2-1.8c-0.4-0.4-0.1-1.9 0.7-3.4 0.7-1.3 1.2-5.7 0.7-6.5-0.3-0.4-0.2-1 0.2-2 0.4-0.9 0.5-2.5 0.4-5.5 0-2.8 0.1-4.4 0.4-4.8 0.3-0.4 0.4-1.1 0.2-1.9-0.3-1.5-0.3-3.1 0-7 0.2-1.9 0.1-3-0.2-3.3-0.3-0.4-0.5-2.6-0.6-5.9-0.1-3.9-0.3-5.6-0.8-6.6-0.3-0.8-0.6-2.3-0.6-3.6 0-1.6-0.3-2.9-0.8-3.9-0.5-0.9-0.9-2-0.9-2.4 0-0.8-1.3-6.2-2-8.1-0.2-0.5-0.7-2.1-1.1-3.5-7.4-25.6-27.4-52.9-50.7-69.5-18.4-13-36.3-20.2-60.4-24.3l-5.3-0.9-79.8-0.2c-49.9 0-79.8-0.2-79.8-0.5 0-0.2 2.1-2.4 4.6-4.9 33.9-33.7 77.3-53.5 126-57.6 126.1-10.3 230.9 101.7 212.9 227.6zm-382.6-105.4l97.3 0.1c107.1 0.1 98.5-0.1 107.9 2.6 22.7 6.3 43.3 24.4 51.1 44.9 0.6 1.6 1.3 3.2 1.4 3.7 0.8 1.9 1 2.5 2.5 8.1 1.4 5.7 2 11.1 2 18.4 0 8.5-0.7 13.5-2.9 21.3-7.6 27-29.5 47.8-56.9 54.3-9 2.2-4.4 2.1-106.5 2.1h-95.4l-1.3-3.3c-18.9-44.6-19.2-100-0.9-147.7zm146.1 39.7c-0.8 5.1-0.3 76.7 0.6 78.8 3.3 8.4 12.7 13 20.6 9.9 4.1-1.6 65.8-37.3 67.7-39.3 7.1-6.9 6.1-18.7-2-24.7-2.1-1.6-64-37.1-65.7-37.7-9.4-3.3-19.6 3-21.2 13z"/></svg>