<svg version="1.2" xmlns="http://www.w3.org/2000/svg" viewBox="0 0 517 517" width="24" height="24">
	<title>dantotsu-svg</title>
	<style>
		.s0 { fill: #000000 } 
	</style>
	<g id="g_0">
		<path fill-rule="evenodd" class="s0" d="m750.3-70v656.7h-161.3v-656.7zm-824 107.3c-58-1.7-104.5-49-104.5-107.3h104.5zm-104.5 549.4c0.1-58.3 46.5-105.6 104.5-107.2v107.2zm104.4-202.9h331.5c69.1 0 125.4-56.1 125.4-125.5 0-69.1-56.3-125.3-125.4-125.3h-331.5v-95.7c1.1 0 2 0.1 3.1 0.1h328.4c122 0 220.8 98.9 220.8 220.9 0 122.1-98.8 221.1-220.8 221.1h-328.4c-1.1 0-2 0.1-3.1 0.1zm0-250.8v250.8h-161.2v-250.8zm0.2 453.7h662.5z"/>
		<path class="s0" d="m332.1 236.2l-97.6-56.2c-17-9.9-38.4 2.4-38.4 22.1v112.6c0 19.8 21.4 32.1 38.4 22.2l97.6-56.2c17-9.9 17-34.6 0-44.5z"/>
	</g>
</svg>