<svg version="1.2" xmlns="http://www.w3.org/2000/svg" viewBox="0 0 400 400" width="24" height="24">
	<title>dantotsu-svg</title>
	<style>
		.s0 { fill: #040404 } 
	</style>
	<g id="svgg">
		<path id="path0" fill-rule="evenodd" class="s0" d="m391.7 150.4c23.3 92.1-20.4 187.8-104.9 229.4-70.7 34.9-156.2 23.9-215.6-27.7-4.7-4.1-16.6-15.8-16.6-16.4 0-0.1 35.8-0.3 79.5-0.4 86.9-0.1 80.3 0 92.9-2.6 47.2-9.6 86.9-46.4 100.4-92.9 21.8-75-25-152.8-101.3-168.2-12.9-2.6-8.7-2.5-95.7-2.8l-79.8-0.2 5-5.4c33.8-36.7 81.2-59.4 131.2-62.8 95.2-6.4 181.3 56.7 204.9 150zm-376-23.6h95c103.4 0 98.7-0.1 108.3 2.4 27.2 7.2 48.7 29.7 54.6 57.4 9.2 43.5-20.9 85.3-65.4 90.8-2.4 0.3-34.3 0.4-97.2 0.4h-93.5l-2-5c-17.4-45.1-17.8-96.2-1.1-142.4zm147.6 35l-1.2 2.4v76.6l1.2 2.5c3.2 6.8 11 10.8 18 9 2.9-0.7 64.2-36 66.9-38.5 6.2-5.8 6.5-15.7 0.6-21.9-2.2-2.3-55.9-33.8-64.8-38-7.9-3.7-16.9-0.3-20.7 7.9z"/>
	</g>
</svg>