<svg version="1.2" xmlns="http://www.w3.org/2000/svg" viewBox="0 0 24 24" width="24" height="24">
	<title>discord-svg</title>
	<style>
		.s0 { fill: #000000 } 
	</style>
	<path id="path2" fill-rule="evenodd" class="s0" d="m20.3 4.4c2.8 4 4.1 8.5 3.6 13.7q0 0 0 0c-2.1 1.5-4.1 2.4-6 3q-0.1 0.1-0.1 0-0.7-0.9-1.2-2-0.1-0.1 0-0.1 1-0.4 1.9-0.9c0 0 0-0.1 0-0.1q-0.2-0.1-0.4-0.3 0 0-0.1 0c-3.9 1.8-8.1 1.8-12 0q-0.1 0-0.1 0-0.2 0.2-0.4 0.3c0 0 0 0.1 0 0.1q0.9 0.5 1.9 0.9 0.1 0 0 0.1-0.5 1.1-1.2 2 0 0.1-0.1 0c-1.9-0.6-3.9-1.5-6-3q0 0 0 0c-0.4-4.5 0.4-9.1 3.5-13.7q0.1 0 0.1 0 2.3-1.1 4.9-1.5 0-0.1 0 0c0.3 0.4 0.5 0.8 0.7 1.2q2.7-0.4 5.4 0c0.2-0.3 0.4-0.8 0.7-1.2q0-0.1 0 0 2.6 0.4 4.9 1.5 0 0 0 0zm-10.1 8.5c0-1.3-1-2.4-2.2-2.4-1.2 0-2.1 1.1-2.1 2.4 0 1.3 0.9 2.4 2.1 2.4 1.2 0 2.2-1.1 2.2-2.4zm8 0c0-1.3-1-2.4-2.2-2.4-1.2 0-2.2 1.1-2.2 2.4 0 1.4 1 2.4 2.2 2.4 1.2 0 2.2-1 2.2-2.4z"/>
</svg>