<svg version="1.2" xmlns="http://www.w3.org/2000/svg" viewBox="0 0 400 400" width="24" height="24">
	<title>doc_scanner-svg</title>
	<style>
		.s0 { fill: #060606 } 
	</style>
	<g id="svgg">
		<path id="path0" fill-rule="evenodd" class="s0" d="m131.9 1.6c7 3.2 8.8 7.7 8.8 21.9 0 19.9-2.9 22.9-22.2 23.4-43.6 1.2-71.8 30.1-72 74-0.1 16.7-4 20.1-23.3 20.1-20.6 0-23.6-3.3-22.9-25.1 0.5-19.2 3-31.7 9.3-45.7 0.6-1.5 1.1-2.8 1.1-3 0-0.5 7-12.5 9.2-15.8 7.3-11.1 20.1-23.9 31.2-31.2 3.6-2.4 15.3-9.2 15.9-9.2 0.2 0 1.7-0.5 3.3-1.3 8.4-3.8 19.1-6.8 28.2-8 3.4-0.4 6.2-0.9 6.4-1.1 1-1 24.4-0.2 27 1zm198.1 8.3c1.5 0.6 2.8 1.1 3 1.1 0.5 0 12.5 7 15.8 9.2 11 7.3 23.8 20.1 31.2 31.2 2.2 3.3 9.1 15.3 9.1 15.8 0 0.2 0.6 1.5 1.2 3 6.2 14 8.8 26.5 9.3 45.7 0.6 21.8-2.4 25.1-23 25.1-19.8 0-22.8-2.9-23.3-22.1-1.2-43.7-30.1-71.9-74-72.1-16.8-0.1-20.1-4-20.1-23.3 0-14.1 1.7-18.6 8.5-21.9 8.8-4.3 44.8 0.5 62.3 8.3zm-128.6 97.8l83.2 0.1 2.1 1.8c5.7 4.6 5.7 4.6 5.9 18.9 0.4 18.4-1.6 22.9-10.5 24.6-5.2 1-159.1 1-164.3 0-8.6-1.6-10.7-6-10.7-22.1 0-16.1 2.1-21.3 9.1-23 1.1-0.2 39.4-0.4 85.2-0.3zm-0.8 69.9l83.9 0.2 2.3 1.6c5.5 4.2 5.6 4.6 5.6 20.8 0 16.3-0.1 16.7-5.6 20.9l-2.3 1.6h-169.2l-2.2-1.6c-5.3-4-5.6-4.9-5.9-18.3-0.3-17.4 1.2-21.9 8-24.7 0.9-0.3 37.5-0.6 85.4-0.5zm25.8 69.8c9 1.6 11 6.5 10.6 25.9-0.3 12.3-1 14.1-6.3 17.7l-2.5 1.7h-112.9l-2.2-1.8c-5.6-4.6-5.6-4.6-5.9-18.9-0.3-17.9 1.7-22.9 10-24.6 4.5-0.9 104.5-0.9 109.2 0zm-189.3 13.4c7.7 3 9.1 5.9 9.5 20.8 1.1 43 29 70.8 71.9 72 19.3 0.5 22.2 3.5 22.2 23.4 0 20.6-3.3 23.5-25.1 22.9-19.3-0.5-31.7-3-45.8-9.3-1.4-0.6-2.8-1.1-2.9-1.1-0.5 0-12.6-7-15.8-9.2-11.1-7.3-23.9-20.1-31.2-31.2-2.2-3.3-9.2-15.3-9.2-15.8 0-0.2-0.5-1.5-1.1-3-6.3-14-8.8-26.5-9.3-45.7-0.5-17 0.8-20.6 9-23.8 4.8-1.8 22.8-1.8 27.8 0zm358.5 3c7.7 7.5 4.9 43.6-5.3 66.5-0.6 1.5-1.2 2.8-1.2 3 0 0.5-6.9 12.5-9.1 15.8-7.4 11.1-20.2 23.9-31.2 31.2-3.3 2.2-15.3 9.2-15.8 9.2-0.2 0-1.5 0.5-3 1.1-14 6.3-26.5 8.8-45.7 9.3-21.9 0.6-25.1-2.3-25.1-22.9 0-19.9 2.9-22.9 22.1-23.4 43-1.2 70.8-29 72-72 0.4-14.8 1.7-17.8 9.3-20.7 8.4-3.3 28.4-1.5 33 2.9z"/>
	</g>
</svg>