<svg version="1.2" xmlns="http://www.w3.org/2000/svg" viewBox="0 0 360 360" width="24" height="24">
	<title>dolbyatmos-svg</title>
	<style>
		.s0 { fill: #000000;stroke: #000000;stroke-linecap: square;stroke-width: .4 } 
		.s1 { fill: #000000 } 
	</style>
	<path id="path_0" fill-rule="evenodd" class="s0" d="m315.7-0.8v196.8h-271.1v-196.8zm-206.1 171.1c73.5-8.1 74.8-136.5 0.1-144.7h-33.5l-0.1 144.7zm140.7-0.1h33.5l-0.1-144.7h-33.5c-74.7 8.2-73.4 136.6 0.1 144.7z"/>
	<path id="path_1" fill-rule="evenodd" class="s1" d="m76.8 273.1h-32.5l-0.1-60.2h32.6c15.3 0.1 19.6 11 19.5 20.6l0.1 17.8c-0.1 14.7-6.5 22.1-19.6 21.8zm-19.6-9h15.2c5.6 0.8 11-4.2 10.9-10.7l0.1-21c0.5-5.6-4.3-11.5-10.9-10.7h-15.2zm49.1-39.7c1-2.4 2.5-4.6 4.4-6.5 1.9-1.9 4.1-3.4 6.5-4.4 2.5-1 5.1-1.5 7.8-1.5h13.3c2.6 0 5.3 0.5 7.7 1.5 2.5 1 4.7 2.5 6.6 4.4 1.8 1.9 3.3 4.1 4.3 6.5 1.1 2.5 1.6 5.1 1.6 7.8v22.6c0 2.6-0.5 5.2-1.6 7.7-1 2.4-2.5 4.7-4.3 6.5-1.9 1.9-4.1 3.4-6.6 4.4-2.4 1-5.1 1.6-7.7 1.6h-13.3c-2.7 0-5.3-0.6-7.8-1.6-2.4-1-4.6-2.5-6.5-4.4-1.9-1.8-3.4-4.1-4.4-6.5-1-2.5-1.5-5.1-1.5-7.7v-22.6c0-2.7 0.5-5.3 1.5-7.8zm18.5-2.4c-1.4 0.6-2.6 1.4-3.6 2.4-1 1-1.8 2.2-2.4 3.5-0.5 1.4-0.8 2.8-0.8 4.2v22.2c0 1.5 0.3 2.9 0.8 4.2 0.6 1.3 1.4 2.5 2.4 3.6 1 1 2.2 1.8 3.6 2.3 1.3 0.6 2.7 0.9 4.1 0.9h5.4c1.4 0 2.8-0.3 4.1-0.9 1.4-0.5 2.6-1.3 3.6-2.3 1-1 1.8-2.3 2.4-3.6 0.5-1.3 0.8-2.7 0.8-4.2v-22.2c0-1.4-0.3-2.8-0.8-4.2-0.6-1.3-1.4-2.5-2.4-3.5-1-1-2.2-1.8-3.6-2.4-1.3-0.5-2.7-0.8-4.1-0.8h-5.4c-1.4 0-2.8 0.3-4.1 0.8zm43.2-9.2h13.4l-0.1 50.2h24.3l0.1 10.1h-37.3zm44.9 0l28.5-0.1c20.8-0.2 20 26.7 5.9 28.5 18.7 0.3 18.2 34.8-5.9 31.8h-28.6zm34.4 28.3q-1 0-1.9 0.1 0.9 0 1.9-0.1zm-21.3 23.3h13.1c13.6-2.8 13.8-21.6-6.9-19.3v-7.1c21.8 0.5 12.9-17.5 4.8-16.8h-11zm55 8.3v-21.9l-20-38.1h13.3l14.2 27.6 15.1-27.5h12l-20.5 37.9v22.2zm-236.9 86.9l20-58.5h9.3l20.3 58.5h-7.8l-4.8-14.4h-24.5l-5 14.4zm34.4-20.9l-9.8-30.7-9.7 30.7zm56.1-31.6h-16.5l-0.1 52.3h-7.8l0.4-52.4h-17.1l0.2-6h41zm58.8 52.4l0.3-48.8-17.2 36.5h-5.9l-17.2-36.7 0.5 49-7.5-0.1-0.3-58.3h10.1l17.2 36 18-36.1h9.7l-0.1 58.5zm23.6-44.6c1.3-2.9 3.1-5.6 5.3-7.9 2.3-2.2 5-4 7.9-5.2 3-1.3 6.1-1.9 9.3-1.9 3.2 0 6.4 0.6 9.4 1.9 2.9 1.2 5.6 3 7.9 5.2 2.2 2.3 4 5 5.2 7.9 1.3 3 1.9 6.2 1.9 9.4v10.9c0 3.2-0.6 6.4-1.8 9.4-1.3 2.9-3.1 5.6-5.3 7.9-2.3 2.2-5 4-7.9 5.3-3 1.2-6.2 1.8-9.4 1.8-3.2 0-6.3-0.6-9.3-1.8-2.9-1.3-5.6-3.1-7.9-5.3-2.2-2.3-4-5-5.3-7.9-1.2-3-1.8-6.2-1.8-9.4v-10.9c0-3.2 0.6-6.4 1.8-9.4zm16.5-7.7c-1.9 0.8-3.7 2-5.2 3.4-1.5 1.5-2.7 3.3-3.5 5.2-0.8 2-1.2 4.1-1.2 6.2v15.5c0 2.1 0.4 4.2 1.2 6.1 0.8 2 2 3.8 3.5 5.2 1.5 1.5 3.3 2.7 5.2 3.5 2 0.8 4 1.2 6.1 1.2 2.1 0 4.2-0.4 6.2-1.2 1.9-0.8 3.7-2 5.2-3.5 1.5-1.4 2.6-3.2 3.5-5.2 0.8-1.9 1.2-4 1.2-6.1v-15.5c0-2.1-0.4-4.2-1.2-6.1-0.9-2-2-3.8-3.5-5.3-1.5-1.4-3.3-2.6-5.2-3.4-2-0.8-4.1-1.3-6.2-1.3-2.1 0-4.1 0.5-6.1 1.3zm68.5 18.7c17.4 3.2 14.5 22.6 9.2 28.2q-12 8.9-35.3 4.2v-6.7q22.9 5.7 29.4-2c3.5-5.2 4-17.5-13.5-16.8-8.8-0.6-18.4-3.6-16.2-20.2 2.6-14.5 21.4-14.5 35.2-10.7v6.7c-23.3-6.4-30.8 2.2-26.5 12.9 2.1 4.8 12.2 3.2 17.7 4.4z"/>
</svg>