<svg version="1.2" xmlns="http://www.w3.org/2000/svg" viewBox="0 0 96 96" width="24" height="24">
	<title>droid_ify-svg</title>
	<style>
		.s0 { fill: none;stroke: #000000;stroke-linecap: round;stroke-width: 6.6 } 
		.s1 { fill: #000000 } 
	</style>
	<g id="layer1">
		<path id="path7456" fill-rule="evenodd" class="s0" d="m13.2 64.2c-2.5-4-4.1-8.6-5-13.3-0.9-4.8-1-9.6-0.2-14.3 0.7-4.8 2.4-9.4 4.8-13.5 2.3-4.2 5.4-7.9 9.1-11q5.5-4.6 12.3-7.2c4.6-1.7 9.4-2.4 14.2-2.4 4.8 0 9.5 0.8 14 2.5 4.5 1.7 8.6 4.2 12.3 7.3q5.5 4.7 9.1 11c2.4 4.2 4 8.7 4.7 13.5 0.7 4.7 0.7 9.5-0.3 14.3-0.9 4.7-2.7 9.2-5.1 13.3"/>
		<path id="rect11866" class="s1" d="m48.3 53.4c-2.6 0-4.6 2.5-4.6 5.5v21.6l-8.8-8.7c-1.6-1.7-4.3-1.7-6 0l-0.4 0.4c-1.7 1.7-1.7 4.3 0 5.9l16.6 16.7c0.8 0.8 1.9 1.2 3 1.2q0 0 0.2 0c1.1 0 2.2-0.4 3.1-1.2l16.5-16.7c1.7-1.6 1.7-4.2 0-5.9l-0.4-0.4c-1.7-1.7-4.3-1.7-6 0l-8.8 8.7v-21.6c0-3-2-5.5-4.4-5.5z"/>
		<path id="path14993" class="s1" d="m36.5 37.6c-2.3 0-4.1-1.8-4.1-4.1 0-2.2 1.8-4 4.1-4 2.2 0 4.1 1.8 4.1 4 0 2.3-1.9 4.1-4.1 4.1z"/>
		<path id="circle14995" class="s1" d="m61.4 37.6c-2.3 0-4.1-1.8-4.1-4.1 0-2.2 1.8-4 4.1-4 2.2 0 4 1.8 4 4 0 2.3-1.8 4.1-4 4.1z"/>
		<path id="rect15005" class="s1" d="m85.4 0l4.5 4.4-11.8 11.9-4.5-4.5z"/>
		<path id="rect15007" class="s1" d="m10 0l-4.4 4.4 11.8 11.9 4.5-4.5z"/>
	</g>
</svg>