<svg version="1.2" xmlns="http://www.w3.org/2000/svg" viewBox="0 0 24 24" width="24" height="24">
	<title>duckduckgo-svg</title>
	<style>
		.s0 { fill: #000000 } 
	</style>
	<path id="path5" fill-rule="evenodd" class="s0" d="m12 24c-6.6 0-12-5.4-12-12 0-6.6 5.4-12 12-12 6.6 0 12 5.4 12 12 0 6.6-5.4 12-12 12zm-4.1-22c-1.3 0.6-2.5 1.4-3.5 2.4-1 1-1.8 2.2-2.4 3.5-0.5 1.3-0.8 2.7-0.8 4.1q0 1.7 0.5 3.3 0.6 1.7 1.6 3.1 1 1.3 2.4 2.4 1.4 1 3 1.5c-0.8-4.2-1.8-8.4-2.6-12.6-0.4-2.1 0.7-4.1 1.7-4.6 1-0.5 1.2-0.5 1.9-0.6-0.9-0.3-2.2-0.3-3.1-0.2 0-0.2 0.1-0.5 0.3-0.6q0.4-0.1 0.9-0.2c-0.4-0.2-1-0.5-1.1-0.5 0.4-0.1 0.8-0.2 1.3-0.2q0.4 0 0.7 0.1 0.4 0 0.8 0.1 0.3 0.1 0.7 0.2 0.3 0.2 0.6 0.3 0.9 0.5 1.3 1c0.7 0.2 1.3 0.4 1.7 0.8 1.2 1.2 2.3 4 1.8 5.6 0.8-0.2 2.6-0.7 3.1-0.9 0.5-0.2 2.7 0.1 1.2 1-0.7 0.4-2.5 1.1-3.9 1.4-1.3 0.4-2-0.3-2.5 0.3-0.3 0.5 0 1.2 1.5 1.4 2.1 0.2 4.1-1 4.3-0.4 0.3 0.6-1.8 1.4-3 1.4-1.2 0-3.7-0.8-4.1-1.1-0.2 1.1 0.1 2.6 0.7 4q-0.4 0.1-0.7 0.2c-0.7-0.3-1.3-0.7-2.1-0.8q-0.1 0-0.3-0.1-0.1 0.1-0.1 0.1-0.1 0-0.1 0 0 0-0.1 0 0 0.1 0 0.1-0.1 0-0.1 0.1 0 0.1-0.1 0.1 0 0.1 0 0.2 0 0.1 0 0.2 0 0 0 0.1-0.1 0.1-0.1 0.1 0 0.1 0 0.2 0 0.1 0 0.2 0 0.1 0 0.1 0 0.1 0.1 0.2 0 0.1 0 0.2 0 0.2 0 0.4 0 0.2 0 0.4 0 0.2 0.1 0.4 0 0.2 0 0.4 0 0.1 0.1 0.2 0 0.1 0 0.2 0 0.1 0.1 0.1 0 0.1 0.1 0.2 0.1 0 0.2 0.1 0.1 0 0.2 0.1 0.1 0 0.2 0 0.1-0.1 0.2-0.1c0 0 1-0.6 1.5-0.9q0.2 0.1 0.3 0.1 0.1 0 0.2 0.1 0.1 0 0.3 0 0.1 0 0.2 0c0.3-0.1 0.7-0.1 1-0.4 0.3 0.6 0.6 1.1 1 1.9q1.7-0.5 3.1-1.5 1.5-1 2.5-2.4 1.1-1.4 1.6-3.1 0.6-1.6 0.6-3.4c0-1.4-0.3-2.8-0.8-4.1-0.6-1.3-1.4-2.5-2.4-3.5-1-1-2.2-1.8-3.5-2.4-1.3-0.5-2.7-0.8-4.1-0.8-1.4 0-2.8 0.3-4.1 0.8zm5.9 6.5q-0.2 0.2-0.2 0.5 0 0.3 0.2 0.5 0.2 0.2 0.5 0.2 0.3 0 0.5-0.2 0.2-0.2 0.2-0.5 0-0.3-0.2-0.5-0.2-0.2-0.5-0.2-0.3 0-0.5 0.2zm-5.3 0.4q-0.2 0.3-0.2 0.6 0 0.3 0.2 0.5 0.2 0.3 0.5 0.3 0.4 0 0.6-0.2 0.2-0.3 0.2-0.6 0-0.3-0.2-0.6-0.2-0.2-0.6-0.2-0.3 0-0.5 0.2zm7.9 8.8c0.2 0.7 0.2 1.5 0.2 2.2-0.1 0.3 0 0.7-0.4 0.7-0.6-0.1-1.1-0.3-1.7-0.4-0.2-0.1-0.4-0.2-0.7 0-0.2 0.2-0.5 0.3-0.8 0.3-0.3 0.1-0.7 0.1-1-0.1-0.5 0.3-1.7 0.9-1.7 0.9-0.3 0.2-0.5-0.2-0.5-0.5-0.2-0.8-0.3-2.5-0.2-2.8 0.1-0.3 0.1-0.4 0.4-0.3 0.8 0.2 1.5 0.6 2.2 0.9 0.3-0.2 0.6-0.3 1-0.3 0.2 0 0.8 0 0.8 0.3 0.3-0.2 0.6-0.5 1-0.7 0.3-0.2 0.8-0.4 1.2-0.5 0.1 0 0.2 0.2 0.2 0.3z"/>
</svg>