<svg version="1.2" xmlns="http://www.w3.org/2000/svg" viewBox="0 0 400 400" width="24" height="24">
	<title>exteragram-svg</title>
	<style>
		.s0 { fill: #101010 } 
		.s1 { fill: #000000 } 
		.s2 { fill: #130000 } 
	</style>
	<g id="svgg">
		<path id="path0" fill-rule="evenodd" class="s0" d="m335.9-20c-0.3 0.4-0.6 1.2-0.8 1.7q-0.2 1.1-0.3-0.6c0-0.9 0.2-1.8 0.6-1.9 0.9-0.3 1.2 0 0.5 0.8zm67.1 84.6q1.7 0 0.7 0.3c-0.6 0.1-1.4 0.5-1.8 0.8-0.5 0.4-0.6 0.3-0.6-0.3 0-0.7 0.4-0.9 1.7-0.8zm-103.7 32.9c1.1 0.9 1 1.5-0.2 1.8-0.5 0.2-1.2 1-1.5 1.7-0.7 1.4-1.1 1.6-2.3 0.7-0.6-0.4-0.6-0.6-0.1-0.8 1.2-0.5 3.3-2.7 3.3-3.4 0-0.5 0.2-0.5 0.8 0zm-25.8 34.2c1 4.8 1.1 4.4-11.3 41.7-5 14.9-9.2 27.8-9.5 28.7-0.6 2.4-4.6 13.6-4.9 14-0.2 0.1-0.4 0.7-0.4 1.3 0 0.5-0.2 1.4-0.5 1.9-0.3 0.5-3.3 9.3-6.7 19.5-3.4 10.3-6.3 19.1-6.6 19.7-0.2 0.6-0.9 2.5-1.5 4.3-7.7 22.9-9 24.7-17.4 24.7-7.3 0-10.4-2.9-15.2-14.3-5.5-13.1-19.3-36.4-23.9-40.5-0.2-0.1-1.6-1.8-3.2-3.7-5.8-6.7-16.4-15.1-27.7-21.8-4.8-3-19-10.2-19.9-10.2-1.4 0-8.6-4.1-9.6-5.5-5-6.7-4.2-16.5 1.8-20.1 0.8-0.5 5.1-2.1 9.6-3.6 4.6-1.5 8.7-3 9.3-3.2 0.6-0.3 6.1-2.1 12.3-4 6.1-2 20.7-6.8 32.4-10.6 11.7-3.9 28.9-9.6 38.1-12.6 9.2-3 18.2-6 20-6.7 1.7-0.6 6.4-2.1 10.3-3.4 4-1.2 7.8-2.4 8.5-2.7 7.4-2.3 14.7 0.9 16 7.1zm-121.5 15.3c0.7 0 0.7 0.2 0.2 0.8-0.4 0.4-0.9 0.8-1.2 0.8-0.2 0-0.3-0.4-0.1-0.8 0.2-0.4 0.7-0.8 1.1-0.8zm-95.2 32.5c0 0 0.1 0.2 0.1 0.5 0 0.3-0.7 0.5-1.5 0.5l-1.4-0.1 1.3-0.4c0.7-0.2 1.4-0.4 1.5-0.5zm7.3 16.7c2 0 2.8 0.1 1.7 0.2-1.1 0.1-2.8 0.1-3.7 0-1-0.2-0.1-0.3 2-0.2zm136 115.8c0.3 0 0.5 1.1 0.5 2.5 0 3-0.3 2.9-0.7-0.2-0.1-1.3 0-2.3 0.2-2.3zm0.4 40.7c0.2 2.3-0.1 3.5-1 3.5-0.4 0-0.4-0.3 0-1 0.3-0.6 0.6-1.9 0.7-2.8 0-1.7 0.1-1.7 0.3 0.3z"/>
		<path id="path2" class="s1" d=""/>
		<path id="path3" fill-rule="evenodd" class="s2" d="m347.4-62.1c0.8 0.1 0.8 0.1 0 0.3-0.5 0.1-1.1 0.7-1.3 1.3-0.1 0.6-0.4 1-0.6 0.8-0.1-0.1 0.1-0.7 0.4-1.4 0.3-0.6 1-1 1.5-1zm-3 8.9c0.5 0.4 1.4 0.6 2 0.5 0.6-0.2 1-0.1 0.8 0.2-0.5 0.8-2.2 0.5-3-0.5-0.6-0.8-0.6-0.8 0.2-0.2zm-0.9 10.5c1.2 1.2 1 1.6-0.2 0.5-0.6-0.5-1.5-0.8-1.9-0.6-0.5 0.2-0.7 0.1-0.5-0.2 0.4-0.8 1.6-0.7 2.6 0.3zm-0.9 6.5c0.7 2.1-2.3 3.6-3.7 1.8-0.6-0.8-0.6-0.8 0.1-0.2 1.3 1.1 2.6 0.8 3-0.8 0.2-0.8 0.5-1.2 0.6-0.8zm-4.5 12.1c1.3 1.3 1.1 1.6-0.2 0.5-1-0.9-1.2-0.9-2.3-0.3-1 0.7-1.1 0.7-0.4-0.1q1.4-1.7 2.9-0.1zm-1.5 7.8c0.2 0.2 0.2 0.6 0 0.9-0.4 0.7-2.8 0.8-3.1 0.2-0.2-0.3 0.4-0.4 1.3-0.2q1.5 0.2 1.5-0.5c0-0.4 0.2-0.5 0.3-0.4zm-3.5 12.7c-0.1 1.2-0.1 1.2-0.4-0.3-0.3-1.3-0.7-1.6-1.8-1.6-0.8 0-1.3-0.1-1.2-0.4 1-1.4 3.5 0.2 3.4 2.3zm-5.8 4l0.4 1.3c0.5 1.7 2.2 2 3.2 0.7 0.4-0.5 0.7-0.6 0.5-0.2-0.7 2.3-3.8 1.9-4-0.6zm-1.2 19.4c0.3 1-1.4 3.3-2.4 3.2-0.7 0-0.7-0.1 0.2-0.5 0.7-0.2 1.4-1.1 1.6-1.9 0.2-0.8 0.5-1.2 0.6-0.8zm-10.6 21.2c-0.1 0.5 0.1 1.3 0.3 1.8 0.4 0.6 0.4 0.7-0.3 0.1-0.5-0.4-0.8-1.2-0.6-1.8 0.3-1.2 0.8-1.3 0.6-0.1zm147.9 4.6c0.3 1-0.7 2.5-1.7 2.5-0.3 0-0.1-0.3 0.4-0.6 0.5-0.3 0.9-1.1 1-1.7 0-0.9 0.1-1 0.3-0.2zm-7.8-0.2c0.3 0-0.1 0.6-0.7 1.2-1.5 1.5-2 1.4-0.7-0.1 0.6-0.6 1.2-1.1 1.4-1.1zm-10.7 6.8c0.3 0.2-1.7 2.3-2.2 2.3-0.2 0 0.1-0.6 0.8-1.3 0.6-0.6 1.2-1.1 1.4-1zm-132.5 1.2c1.1 0 2.1 1.1 2.1 2.1 0 0.5-0.2 0.4-0.5-0.4-0.6-1.4-2.4-1.5-3.2-0.2-0.3 0.5-0.5 0.7-0.5 0.3 0-0.3 0.2-0.8 0.6-1.2 0.3-0.3 1-0.6 1.5-0.6zm105.6 4.8c0.3 0 0.1 0.3-0.4 0.6-0.5 0.3-0.9 0.9-0.9 1.4q-0.1 0.9-0.4 0.2c-0.1-0.3 0.1-1 0.4-1.4 0.4-0.4 0.9-0.8 1.3-0.8zm-9.9 6.2c0.3 0.2-1.6 2.3-2.1 2.3-0.2 0 0.1-0.5 0.7-1.2 0.7-0.7 1.3-1.2 1.4-1.1zm-8.9 2.4c0.3 0.6 0.9 1 1.4 1q0.9 0.1 0.3 0.3c-0.8 0.4-2.3-0.7-2.3-1.6 0-0.3 0.3-0.2 0.6 0.3zm-9.2 4.2c0.1 0 0 0.2-0.1 0.5-0.4 0.5-4.9 2.2-5.9 2.1-0.3 0 0.9-0.6 2.6-1.3 1.8-0.6 3.3-1.2 3.4-1.3zm-52.7 17c0 1.2-0.1 1.2-0.4-0.3-0.3-1.3-0.6-1.5-1.9-1.4-1.2 0-1.4-0.1-0.8-0.4 1.7-1.1 3.2-0.1 3.1 2.1zm-6.6-1c0.3 0-0.1 0.3-0.9 0.8-1.9 1-1.7 2.5 0.4 3l1.6 0.3-1.5-0.1c-2.3-0.1-3.1-1.7-1.5-3 0.7-0.6 1.5-1 1.9-1zm-19.2 6.4q0.7 0-0.1 0.3c-0.8 0.3-0.8 1.9 0 2.7 0.5 0.5 0.5 0.7 0 0.7-0.7 0-1.4-2.4-0.9-3.2 0.2-0.3 0.6-0.6 1-0.5zm-18.7 8c0.1 0.1 0.7 0.8 1.4 1.6 0.8 0.8 1.2 1.5 1 1.5-0.5 0-2.5-2.3-2.5-2.8 0-0.3 0-0.5 0.1-0.3zm5.6 1.7c0.5 0.5-0.9 1.9-1.9 1.9q-0.9 0 0.3-0.5c0.7-0.3 1.2-0.8 1.2-1.1 0-0.4 0.2-0.5 0.4-0.3zm-22.5 2c0.3 0 0.1 0.2-0.4 0.5-0.5 0.3-0.9 1-1 1.5q0 0.8-0.3 0.2c-0.1-0.4 0-1.1 0.4-1.5 0.4-0.4 0.9-0.8 1.3-0.7zm-11.2 4.6c0.1 0.2-0.7 0.4-1.9 0.4-1.2 0-1.8-0.1-1.4-0.4 0.9-0.5 2.9-0.5 3.3 0zm-1.8 13c1 0 1.4 0.1 0.9 0.3-0.5 0.1-1.3 0.1-1.9 0-0.5-0.2 0-0.3 1-0.3zm-41.8 0.5c0.3 0 0 0.3-0.7 0.6-1.3 0.6-1.5 1.9-0.5 3.1 0.6 0.6 0.5 0.6-0.3 0-0.5-0.4-0.9-1.1-0.9-1.7 0-0.5 0.4-1.2 0.9-1.5 0.5-0.3 1.2-0.5 1.5-0.5zm-12 4.5l0.6 1.2c0.6 1 0.5 1.3-0.3 2.1-1 0.9-1 0.9-0.3 0 0.3-0.5 0.5-1.4 0.3-2.1zm76.7 5c0.3 0-0.1 0.6-0.7 1.3-1.4 1.4-2 1.3-0.7-0.2 0.6-0.6 1.2-1.1 1.4-1.1zm-96.3 1.1c1.1 0 2.1 1 2.1 2.2 0 0.9-2 2.4-2.5 1.9-0.2-0.2 0.2-0.4 0.8-0.6 1.5-0.5 1.5-2.3-0.1-2.9-0.7-0.3-0.8-0.5-0.3-0.6zm92.9 6c0.2 0.5 0.2 1.3 0 1.9-0.1 0.5-0.2 0-0.2-1 0-1 0.1-1.4 0.2-0.9zm-111.6-0.1c0.9 0 2.5 0.9 2.1 1.2-0.1 0.1-0.8-0.1-1.6-0.5-0.7-0.4-0.9-0.7-0.5-0.7zm-4.8 1.6c0.5 0 0.1 0.3-0.7 0.6-1.3 0.5-1.5 0.8-1.3 2 0.1 0.9 0 1.4-0.2 1.3-0.8-0.5-0.5-2.8 0.5-3.4 0.5-0.3 1.3-0.5 1.7-0.5zm7.5 0.7c0 0.5-1.7 1.9-2.3 1.9-0.3 0 0.1-0.5 0.7-1 1.4-1.1 1.6-1.2 1.6-0.9zm-26.1 9.1c1.2 0 1.8 0.1 1.4 0.4-0.8 0.5-2.9 0.5-3.2 0-0.1-0.2 0.7-0.4 1.8-0.4zm133.9 1.7c0.1 0.4 0 0.5-0.1 0.2-0.4-0.8-2.9-0.7-2.9 0.1 0 0.3-0.1 0.4-0.3 0.3-0.2-0.2-0.1-0.6 0.1-1 0.4-0.8 3-0.4 3.2 0.4zm-145.2 0.9c0.2 1-0.7 2.5-1.7 2.4-0.3 0-0.2-0.2 0.3-0.5 0.6-0.3 1-1.1 1-1.7 0.1-1 0.2-1 0.4-0.2zm139.9 5.9c0.2 0.6 0.6 1.3 0.9 1.5q0.6 0.5-0.2 0.2c-0.4-0.1-0.8-0.7-0.9-1.5 0-1 0-1 0.2-0.2zm-178.7 4.7c0.7 0.1 1.4 0.5 1.5 0.9q0.2 0.8-0.2 0.2c-0.2-0.3-0.9-0.7-1.5-0.9-0.8-0.2-0.8-0.3 0.2-0.2zm-7.5 3.3c0.1 0.6 0.6 1.5 1.1 2.1 0.9 1.1 0.9 1.1-0.3 0.1-0.7-0.6-1.2-1.5-1.2-2.1 0.1-1.1 0.1-1.1 0.4-0.1zm185.8 5.2c-0.1 1.1-0.1 1.1-0.3 0.1-0.4-1.4-1.2-1.9-2.6-1.5-0.8 0.2-0.9 0.2-0.2-0.3 1.4-1 3.2 0 3.1 1.7zm-215.4 3.6c0.8 0 1.5 0.1 1.5 0.2 0 0.1 0.1 0.7 0.3 1.2 0.3 0.9 0.3 0.9-0.4 0.1-0.4-0.5-1.2-1-1.8-1.1-0.8-0.2-0.7-0.3 0.4-0.4zm50.8 6.5c0.2 0.5 0.2 1.4 0 1.9-0.1 0.5-0.2 0.1-0.2-1 0-1 0.1-1.4 0.2-0.9zm-88.1 5.8c1.6-0.1 2.6 0.8 2.6 2.3-0.1 0.9-0.2 0.9-0.5-0.2-0.2-1-0.8-1.5-1.9-1.7-1.5-0.3-1.5-0.4-0.2-0.4zm44.8 5.6c0.2 0.3-1.7 0.4-4.2 0.3-4.3-0.2-4.5-0.1-5 1-0.3 0.8-0.5 0.9-0.5 0.5 0-0.5 0.3-1.2 0.6-1.5 0.7-0.7 8.7-0.9 9.1-0.3zm10.6 2.1c-0.1 0.8 0 1.6 0.5 1.9 0.6 0.4 0.6 0.5-0.1 0.3-0.9-0.2-1.3-1.6-0.8-2.8 0.4-1.3 0.7-0.9 0.4 0.6zm-10.3 0.8c0.1 0 0 0.2-0.2 0.5-0.2 0.3-2.1 0.5-4.4 0.4l-4.1-0.1 4.3-0.3c2.3-0.2 4.3-0.4 4.4-0.5zm-39.2 2.4c0.6 1.4 0.3 2.9-0.8 2.9-0.5-0.1-0.5-0.2 0.1-0.5q0.7-0.5 0.4-2c-0.3-1.4-0.3-1.4 0.3-0.4zm-28.3 0.7c-0.5 0.3-1.3 0.5-1.9 0.5-0.9 0-0.8-0.1 0.3-0.5 1.9-0.6 2.5-0.6 1.6 0zm-12.6 1c0.2 0.2-0.4 0.3-1.3 0.2-0.8-0.1-1.5-0.3-1.5-0.4 0-0.4 2.6-0.2 2.8 0.2zm118.8 1.3c0.6 0.5-0.8 2-1.8 2q-0.9-0.1 0.3-0.6c0.7-0.2 1.2-0.7 1.2-1.1 0-0.3 0.2-0.5 0.3-0.3zm11.7 2.6c0.3 0 1.1 0.3 1.8 0.7 0.8 0.4 1.1 0.8 0.8 0.8-0.2 0-1.1-0.4-1.8-0.8-0.8-0.4-1.1-0.7-0.8-0.7zm-149.1 1.9c0.1 0.2-0.8 0.5-2 0.5-1.6 0-1.9-0.1-1.1-0.4 1.3-0.5 2.8-0.6 3.1-0.1zm147.4 0.8c0.7 0.7 1.1 1.3 1 1.4-0.2 0.3-2.2-1.6-2.2-2.1 0-0.2 0.5 0.1 1.2 0.7zm142.8 2.2c0.1 0.1-0.1 1.1-0.6 2.3-0.4 1.1-0.7 1.8-0.8 1.5 0-0.4 0.3-1.4 0.6-2.3 0.3-1 0.7-1.6 0.8-1.5zm-268.4 4.1c1.1 0.1 1.1 0.1 0.1 0.4-0.6 0.1-1.5 0.5-1.9 0.8-0.7 0.6-0.7 0.5-0.1-0.3 0.4-0.5 1.3-0.9 1.9-0.9zm2 1.2c0.5 0.9 0.4 1.2-0.7 2.2-1.2 1.1-1.2 1.1-0.3 0 0.6-0.7 0.8-1.6 0.6-2.2-0.3-0.9-0.3-0.9 0.4 0zm-49.9 2.7c0.7 0.3 1.2 0.7 1.1 0.8-0.3 0.3-2.4-0.5-2.4-1 0-0.2 0.6-0.2 1.3 0.2zm195.4 2.3c0.6 0.4 0.9 0.7 0.6 0.7-0.5 0-4.6-2.7-4.6-3.1 0-0.2 1.5 0.6 4 2.4zm27.5 3.4c0.1 0 1.5 1.3 3.1 2.9 1.6 1.6 2.8 2.9 2.6 2.9-0.1 0-1.5-1.3-3.1-2.9-1.6-1.6-2.8-2.9-2.6-2.9zm-16.7 3.7c0.1 0.4 0.8 1.4 1.4 2.1l1.1 1.3-1.4-1.3c-0.9-0.7-1.5-1.6-1.5-2.1 0.1-0.7 0.1-0.7 0.4 0zm5.2 0.2l1.7 1.6c1.8 1.7 2.2 2.9 1.1 3.9-1 1.1-2.3 0.8-3.7-0.8l-1.3-1.5 1.5 1.3c2.9 2.5 4.8 0.1 2.2-2.8zm-178.6 1.4c0.5-0.1-3.5 3.8-4.5 4.3-0.6 0.4 0.1-0.5 1.6-1.8 1.5-1.4 2.8-2.5 2.9-2.5zm191.9 11.8l1.6 1.7-1.7-1.5c-2.7-2.4-5.3-0.8-3 2l1 1.1-1.2-1c-1.4-1.1-1.6-2.4-0.6-3.4 1.1-1.1 2.3-0.7 3.9 1.1zm1.2 1.7l1.5 1.5c0.8 0.8 1.4 1.5 1.3 1.6-0.2 0.2-0.9-0.5-1.6-1.4zm-207.5 0.8c0.4 0-3.2 4-4.1 4.5-0.4 0.2 0.2-0.7 1.5-2 1.3-1.4 2.5-2.5 2.6-2.5zm285.8 4.8c-0.4 0.9-0.7 1.4-0.8 1.1-0.1-0.3 0.1-1 0.4-1.6 0.9-1.6 1.1-1.4 0.4 0.5zm-297.4 6.9c0.6 0.5 0.5 0.5-0.5 0.2-1-0.3-1.5 0-2.6 1.2-0.7 0.8-1.1 1.2-0.8 0.7 0.2-0.4 0.7-1.2 1.2-1.7 0.9-1.1 1.6-1.2 2.7-0.4zm229.3 0.7c1.7 1.9 3.8 5.3 3.8 6.2 0 0.4-0.4-0.1-1-1.2-1.5-3-3.7-5.7-4.6-5.7-1.4 0-1.5 1.7-0.3 3.9 1.1 2 1.1 2.1 0.1 0.9-1.4-1.8-1.9-3.6-1.1-4.5 1-1.1 1.8-1 3.1 0.4zm69.8-0.7c0 1-2 1.7-3 1.1-0.8-0.5-0.8-0.6 0.2-0.3 0.7 0.2 1.4 0 1.9-0.5 0.8-1 0.9-1 0.9-0.3zm-61.5 16.6c0.6 0.1 1.4 0.8 1.8 1.5l0.8 1.3-1-1.1c-0.5-0.6-1.4-1.3-1.8-1.5q-0.8-0.3 0.2-0.2zm55.5 1.1c0.2 0.2 0 0.8-0.3 1.4-0.7 1.4-2.3 1.4-3.3 0.2-0.6-0.8-0.6-0.8 0.1-0.3 1.1 1 2.5 0.8 2.9-0.4 0.2-0.6 0.5-1 0.6-0.9zm-52.2 3.1c0.4 0.7 0.7 1.5 0.7 1.8 0 0.3-0.3-0.1-0.7-0.8-0.5-0.7-0.8-1.6-0.8-1.8 0-0.3 0.3 0 0.8 0.8zm1.1 3c0.4 1-0.2 2.3-1 2.2-0.5 0-0.5-0.1 0-0.3 0.4-0.1 0.7-0.8 0.7-1.4 0-0.6 0.2-0.8 0.3-0.5zm41.2 13.9c0.5 1.3 2 1.5 3.2 0.5 0.6-0.6 0.6-0.5 0 0.2-1.2 1.7-3.8 0.9-3.7-1.1 0-0.5 0.2-0.4 0.5 0.4zm-35.1 3.4c0.7 1.3 0.4 3.2-0.6 3.5-0.6 0.1-0.7 0.1 0-0.3 0.5-0.4 0.6-1.1 0.4-2.3-0.3-1.4-0.2-1.6 0.2-0.9zm32.8 7.3c0.8 0 1.9 1.5 1.6 2.3q-0.3 0.6-0.3-0.2c-0.1-0.5-0.5-1.2-1-1.5-0.5-0.3-0.7-0.5-0.3-0.6zm-31.3 5.5c0.7 0.1 1.4 0.5 1.5 0.9q0.2 0.8-0.2 0.2c-0.3-0.3-0.9-0.7-1.5-0.9-0.9-0.2-0.8-0.3 0.2-0.2zm2.6 9.2c0.4 0.4-1 1.3-2.1 1.3-0.5 0-1-0.2-1.2-0.5-0.2-0.2 0.3-0.3 1-0.2 0.7 0.2 1.4 0 1.6-0.4 0.2-0.3 0.5-0.4 0.7-0.2zm23.8 4.8c1.2 1.2 1 1.6-0.3 0.5-1-0.9-1.2-0.9-2.3-0.3-1 0.7-1.1 0.6-0.4-0.2q1.4-1.6 3 0zm0.1 2c0.1 0.1 0.1 0.9-0.1 1.6-0.2 0.8-0.5 1.4-0.6 1.2-0.2-0.1-0.1-0.8 0.1-1.6 0.2-0.8 0.5-1.3 0.6-1.2zm-25.1 3.6c1.9-0.1 2.4 1 2.3 5.2l-0.1 4.1-0.3-4.3c-0.3-3.9-0.4-4.2-1.7-4.6-1.1-0.3-1.1-0.4-0.2-0.4zm-1.2 6.7c0 1.8-0.1 3.1-0.3 3-0.2-0.1-0.3-2.3-0.3-4.9 0.1-4.7 0.3-4 0.6 1.9zm10.6 27.6c-0.5 1.3-1 2.2-1.1 1.9-0.1-0.3 0.2-1.4 0.7-2.4 1.1-2.7 1.4-2.4 0.4 0.5zm-1.9 5.3c0.2 0.6 0.6 1.3 0.9 1.5q0.6 0.4-0.2 0.2c-0.4-0.1-0.8-0.8-0.9-1.5 0-1 0-1 0.2-0.2zm-12.1-0.2h1.4l-1.3 0.4c-0.7 0.2-1.5 0.8-1.7 1.4-0.2 0.6-0.4 0.8-0.4 0.4-0.1-0.3 0.1-1 0.3-1.4 0.1-0.5 0.9-0.8 1.7-0.8zm2 1.4c0.2 0.6 0 1.6-0.4 2.1-0.5 0.9-0.5 0.9-0.3 0 0.2-0.6 0.4-1.5 0.4-2.1 0.1-1.2 0.1-1.2 0.3 0zm-5.3 5.7c0.2 0.6 0.6 1.4 0.9 1.9 0.5 0.7 0.5 0.7-0.3 0-0.6-0.4-0.9-1.2-0.9-1.8 0.1-1.1 0.1-1.1 0.3-0.1zm12.9 4q0.9 0.1-0.4 0.6c-0.6 0.2-1.2 0.7-1.2 1.1 0 0.3-0.1 0.5-0.3 0.3-0.2-0.2 0-0.7 0.3-1.2 0.4-0.4 1.1-0.8 1.6-0.8zm-268.2 7.9c0.7 0.8 0.7 0.8-0.1 0.2-0.5-0.4-1.3-0.5-1.9-0.3-0.8 0.2-0.8 0.2-0.2-0.3 1.1-0.8 1.4-0.7 2.2 0.4zm254.2 1.8q-0.3 0.7-0.3-0.2c-0.1-1.7-1.5-2.3-2.8-1.2l-1.2 1 1-1.2c1.4-1.6 4.1-0.3 3.3 1.6zm-252.4 1.5c0.5 0.7 0.8 1.6 0.8 1.9 0 0.2-0.3-0.1-0.8-0.8-0.4-0.8-0.7-1.6-0.7-1.9 0-0.3 0.3 0.1 0.7 0.8zm250.9 1.8c0.3 0.3-1.4 3.4-2 3.7-0.3 0.2 0-0.6 0.7-1.7 0.6-1.2 1.2-2.1 1.3-2zm6.4 15.2c0.6 0.3 1.5 0.4 2 0.2 0.9-0.2 1-0.2 0.1 0.3-0.9 0.6-3.1 0-3.1-0.8 0-0.1 0.5 0 1 0.3zm-246.7 2.1c0.9 0.8 1.2 2.5 0.4 2.9-0.3 0.2-0.4-0.1-0.2-0.7 0.2-0.6-0.1-1.5-0.5-2-0.6-0.9-0.6-0.9 0.3-0.2zm220.8 11c0.6 0.9 0.6 0.9-0.5 0.2-1.1-0.7-1.3-0.6-3.2 1.1l-2 1.9 1.9-2c2-2.3 2.7-2.5 3.8-1.2zm-210.4 2.6c2.6 2.4 3 3.4 1.9 4.6-1.3 1.5-1.9 1.3-4.3-1.3l-2.1-2.2 2.3 2.1c1.8 1.7 2.5 2 3.2 1.6 1.5-1 1.3-1.7-0.8-4.1-1.8-2.1-1.8-2.2-0.2-0.7zm204.8 0.8c0.1 0-0.3 0.7-0.9 1.5l-1 1.3c0-0.5 0.2-0.9 0.5-1.4 0.6-0.7 1.2-1.4 1.4-1.4zm-1.9 3l1 0.9c0.7 0.5 1 0.9 0.7 0.9-1.1 0-1.7-0.8-1.7-1.8zm-0.1-0.1l0.1-0.1q0 0.1 0 0.2zm-7.3 7.2c0.9 0 2.4 2 1.8 2.5-0.1 0.1-0.4-0.3-0.6-0.9-0.4-1.4-1.7-1.4-3.4 0.1l-1.4 1.2 1.3-1.4c0.7-0.8 1.7-1.5 2.3-1.5zm-181.8 2.8l1.5 1.7-1.7-1.5c-1-0.9-1.7-1.7-1.7-1.8 0-0.4 0.4 0 1.9 1.6zm213.2-0.6c1.2-0.1 2.1 1.3 1.9 2.7-0.2 1.1-0.3 1-0.3-0.3q-0.1-1.4-1.3-1.9-1.2-0.5-0.3-0.5zm-216.5 2.6c3.6 3.1 4 3.6 2.2 2.3-0.9-0.6-2.4-1.9-3.2-2.9-1.2-1.3-0.9-1.2 1 0.6zm181.2-2.1c0.1 0-0.4 0.6-1.2 1.5-0.8 0.8-1.4 1.8-1.4 2.2-0.1 0.6-0.1 0.6-0.4 0.1-0.1-0.4 0.4-1.4 1.2-2.3 0.9-0.8 1.7-1.5 1.8-1.5zm-161.7 12.1c1.4 0.9 2.6 2 2.8 2.4 0.5 1.5-2.8 3.4-3.6 2-0.1-0.2 0.3-0.3 0.9-0.2 0.7 0.2 1.5-0.1 1.9-0.6 0.8-0.9 0.9-0.7-3.1-4.1-0.7-0.6-0.2-0.3 1.1 0.5zm143.3 2.2c-0.2 0.6 0 1.5 0.4 2 0.7 0.9 0.7 0.9-0.2 0.2-0.9-0.7-1.2-2.2-0.5-2.9 0.5-0.5 0.6-0.4 0.3 0.7zm-123.1 10c-0.1 1.2-1.6 2.5-2.3 1.9-0.4-0.5-0.4-0.7 0.3-0.7 0.5 0 1.1-0.3 1.3-0.8 0.3-0.8 0.7-1.1 0.7-0.4zm107.3 1.2c0.4 0 0.6 0.3 0.5 0.5-0.2 0.3-0.7 0.6-1.2 0.6-0.4 0-0.6-0.3-0.4-0.6 0.2-0.2 0.7-0.5 1.1-0.5z"/>
		<path id="path4" fill-rule="evenodd" class="s1" d="m423.8 56.7c1.4 0.1 2.4 1.7 1.6 2.5-0.5 0.5-0.6 0.4-0.4-0.5 0.3-0.8 0-1.2-0.9-1.6-0.9-0.4-1-0.5-0.3-0.4zm-112.1 5.9c0.6 0.6-0.7 1.5-1.8 1.2-0.8-0.2-0.8-0.2 0.2-0.3 0.7 0 1.2-0.3 1.2-0.7 0-0.3 0.2-0.4 0.4-0.2zm58.9 11.6c1.4 0.2 2.3 1.8 1.5 2.6-0.4 0.5-0.5 0.4-0.3-0.5 0.2-0.8 0-1.3-1-1.7-0.8-0.4-0.9-0.5-0.2-0.4zm-307.3 122.6c2.6 0 4.6 0.2 4.4 0.4-0.1 0.2-2.1 0.4-4.4 0.4-2.3 0-4.3-0.2-4.5-0.4-0.1-0.2 1.9-0.4 4.5-0.4zm-75.2 5.4c0.3 0.8-0.8 2.3-1.7 2.3-0.3 0-0.1-0.3 0.4-0.6 0.5-0.3 0.9-0.9 0.9-1.4q0.1-0.9 0.4-0.3zm169.2 29.6c0.6 0.6-0.7 1.6-1.8 1.3-0.8-0.2-0.7-0.3 0.3-0.3 0.6-0.1 1.2-0.4 1.2-0.7 0-0.4 0.1-0.5 0.3-0.3zm10.6 9.6l1.6 1.7-1.8-1.6c-0.9-0.8-1.7-1.6-1.7-1.7 0-0.4 0.4-0.1 1.9 1.6zm47.1 46.8c1 0 1.4 0.1 0.9 0.2-0.5 0.2-1.4 0.2-1.9 0-0.5-0.1-0.1-0.2 1-0.2zm-13.9 49.6c0.9 0 1.4 0.2 1.3 0.4-0.2 0.2-0.7 0.4-1.3 0.4-0.5 0-1.1-0.2-1.2-0.4-0.2-0.2 0.4-0.4 1.2-0.4zm-31.8 82.3c0.9 0 2.4 1.4 1.8 1.9-0.2 0.2-0.3 0.1-0.3-0.3 0-0.3-0.5-0.8-1.2-1.1q-1.2-0.5-0.3-0.5zm21.2 5.2c0.4 0.9 0.8 1.2 1.7 1 0.8-0.3 1-0.2 0.5 0.3-0.8 0.8-2.4-0.1-2.6-1.5-0.1-0.8 0-0.7 0.4 0.2zm-21.5-0.4c0.4 0 0.1 0.4-1.8 2.1l-2 1.8 1.8-2c1-1.1 1.9-1.9 2-1.9zm-11.5 11.5c0.1 0.1-0.5 0.8-1.3 1.6l-1.6 1.5 1.3-1.7c0.7-0.9 1.4-1.5 1.6-1.4z"/>
		<path id="path5" fill-rule="evenodd" class="s1" d="m348.7-59.8c-0.5 3.8-1.9 6.7-3 6.6-1.3-0.2-1.3-0.7 0-5.1 0.8-3 3.4-4.2 3-1.5zm-5.5 18.1c0 1.7-1.7 7.2-2.4 7.4-1.6 0.6-1.8-1.1-0.7-4.6 1-3.4 3.1-5.2 3.1-2.8zm-5.5 18.7c0.4 0.9-1.3 6.7-2.1 7.2-2.3 1.5-2.4-3.8-0.1-7.5 0.5-0.8 1.9-0.7 2.2 0.3zm-2.3 2.2c-0.4 0.1-0.6 1-0.6 1.9q0.1 1.7 0.3 0.6c0.2-0.5 0.5-1.3 0.8-1.7 0.7-0.8 0.4-1.1-0.5-0.8zm-4.1 15.6c1.6 0 1.6 0.4 0.3 4.5-1.8 5.9-3.9 3.8-2.2-2.3 0.5-1.8 0.8-2.2 1.9-2.2zm-5.1 18.6c1.2 0.7 1.2 0.6 0.6 2.2-0.3 0.7-0.9 2.4-1.4 3.8-0.9 2.5-2.1 3.3-2.7 1.8-0.3-0.7 1.4-6.5 2.2-7.8q0.3-0.5 1.3 0zm-5.8 22.2c-2.1 7-2.6 7.9-4 6.9-1.1-0.8-0.2-5.2 1.7-8.2 1.1-1.8 2.9-0.8 2.3 1.3zm142.1 9.5c0.9 1.1 0 2-3.6 3.1-6.1 1.9-7.2-0.7-1.2-2.8 3.7-1.3 4-1.3 4.8-0.3zm-18.9 6.9c0 1.4-7 4.1-7.7 2.9-0.8-1.2 0-2 3.1-3.1 3.6-1.2 4.6-1.2 4.6 0.2zm-129.9 3.9c-0.2 0.5-0.9 2.4-1.5 4.2-1.1 3.2-2.5 4.5-3.2 2.7-0.2-0.6 1.8-7.2 2.6-8.4 0.5-0.9 2.5 0.5 2.1 1.5zm111.2 2.5c0 1.4-7.2 3.8-7.9 2.5-0.6-1 0.3-1.8 3.3-2.9 3.2-1.1 4.6-1 4.6 0.4zm-17.8 5.5c0 1.3-0.5 1.6-4 2.8-3.3 1.2-3.3 1.2-3.6 0.2-0.6-1.4 0.2-2.3 2.1-2.7 1-0.2 1.9-0.6 2.1-0.8 0.6-1 3.4-0.5 3.4 0.5zm-4.1 0.7c-1.3-0.1-1.7 0.1-1.7 0.8 0 0.6 0.1 0.7 0.6 0.3 0.4-0.3 1.2-0.7 1.8-0.8q1-0.3-0.7-0.3zm-13.7 5.5c0 1.7-6.9 3.7-7.5 2.1-0.5-1.1-0.4-1.1 3-2.4 3.4-1.2 4.5-1.1 4.5 0.3zm-83.6 10c-1.4 4-1.9 4.6-3.3 3.6-0.7-0.4 0.9-6.8 2.1-8.4 2-2.6 2.7 0.4 1.2 4.8zm66-4.2c0 1.2-5.4 3.4-6.9 2.8-1.6-0.6-0.6-2.1 2.1-3.1 3.3-1.1 4.8-1.1 4.8 0.3zm-17.5 5.9c0 1.1-4.1 2.9-6.6 2.9-2.3 0-1.3-2.2 1.5-3.2 3.1-1.2 5.1-1.1 5.1 0.3zm-17.6 5.1c0.6 0.9-0.8 1.9-3.9 2.9-4.6 1.5-5.5-0.8-0.9-2.5 3.1-1.1 4.3-1.2 4.8-0.4zm-17.3 6.3c0 1-0.9 1.5-5 2.7-3.9 1.2-4.1-1.4-0.2-2.8 3.3-1.2 5.2-1.2 5.2 0.1zm-18.3 4.4c1 2 0.9 2.4-0.8 3.1-0.8 0.3-1.8 1.2-2.1 1.9-0.8 1.6-2.4 1.7-3.8 0.1-1.5-1.6-1.4-2.1 0.8-3.5 1-0.6 1.8-1.5 1.8-1.9 0-0.4 0.4-1.2 0.9-1.6 1-1 1.9-0.5 3.2 1.9zm-1.7-0.1c-0.6-0.5-0.8-0.5-0.8 0 0 0.7-2.1 2.9-3.3 3.4-0.5 0.2-0.5 0.4 0.1 0.8 1.2 0.9 1.6 0.7 2.3-0.7 0.3-0.7 1-1.5 1.5-1.7 0.6-0.1 1-0.5 1-0.7 0-0.2-0.3-0.7-0.8-1.1zm-16.3 7.6c-0.2 1.2-5.6 3.4-7.1 2.9-1.7-0.7-0.7-1.9 2.3-3 4.1-1.4 5-1.4 4.8 0.1zm-18.4 5.4c0.8 2.1-6.5 5.1-7.9 3.3-1-1.3-0.7-1.6 3.2-2.9 3.9-1.3 4.4-1.3 4.7-0.4zm28.8 5.5c-0.5 4.1-3.4 8.5-4.3 6.3-0.3-0.8 1.2-5.9 2.2-7.1 0.7-1.1 2.2-0.5 2.1 0.8zm-47.3 1.4c0 1.5-6.9 3.8-7.8 2.6-0.8-0.9-0.1-1.7 2.9-2.9 2.9-1.1 4.9-1 4.9 0.3zm-18.7 6.8c-0.8 0.8-6.6 2.6-7.1 2.3-2-1.2-0.1-2.5 6.1-4.2 0.8-0.2 1.5 1.3 1 1.9zm36.5-0.8c0.5 0.1 1.7 0.3 2.8 0.5 3.6 0.5 7.4 4.8 7.3 8 0 1.2-0.2 1-0.7-1-2-7.4-8.2-8.6-22.3-4.3-0.5 0.2-0.9 0.2-0.9 0.1 0-0.5 7.6-2.7 10.4-3.1 1.4-0.2 3-0.3 3.4-0.2zm-14.4 3.6c-0.4 0.4-6.7 2.4-7.4 2.4-0.4 0 0.8-0.6 2.7-1.2 3.1-1.2 5.3-1.7 4.7-1.2zm-40.5 2.6c-0.2 1.7-6.7 3.9-7.7 2.6-0.9-1.1-0.2-1.9 2.8-2.9 3.4-1.3 5.1-1.2 4.9 0.3zm28.9 1c0.4 0-0.1 0.3-1 0.7-2.3 1-3.6 1-1.4 0 0.8-0.4 1.9-0.7 2.4-0.7zm-4.3 1.7c0 0.4-7 2.6-7.3 2.3-0.1-0.1 1.3-0.7 3.2-1.3 3.5-1.2 4.1-1.3 4.1-1zm53.7 2.3c0 1.4-1.8 6.5-2.5 7.2-1.3 1.3-3-1.7-1.8-3.1 0.3-0.2 0.7-1.5 1.1-2.7 0.7-2.5 3.3-3.5 3.2-1.4zm-96.8 1.2c0 1-6.5 3.6-7.5 2.9-1.7-1 0.8-2.9 5.1-3.9 1.9-0.5 2.4-0.3 2.4 1zm35.1-0.8c0 0.3-23 7.8-23.7 7.7-0.3 0 4.8-1.8 11.2-4 11.8-3.9 12.5-4.1 12.5-3.7zm48.3 2c0.2 1.5-1.9 9.2-2.3 8.8-0.2-0.2 0.1-1.4 0.6-2.8 0.4-1.4 1-3.6 1.2-5 0.3-1.8 0.4-2.1 0.5-1zm-105.1 6.9c-2.9 1.1-4.2 1.2-4.7 0.4-0.5-0.9 0.8-2 3.4-2.8 5.9-1.8 7 0.3 1.3 2.4zm32.3-0.9c0 0.3-7 2.5-7.2 2.3-0.1-0.1 1.2-0.7 2.8-1.3 3.1-1.1 4.4-1.4 4.4-1zm-47.1 4.8c0 1.2-7 3.9-7.8 3-1.1-1-0.1-2.3 2.5-3.3 3.4-1.2 5.3-1.1 5.3 0.3zm35.4-1.3c0.5 0 0 0.4-1 0.8-2.2 1-3.5 1-1.4 0 0.9-0.4 2-0.7 2.4-0.8zm-37.4 0.5c-0.4 0-0.9 0.4-1.1 0.8-0.2 0.4-0.1 0.8 0.1 0.8 0.3 0 0.8-0.4 1.2-0.8 0.5-0.6 0.5-0.8-0.2-0.8zm119.2 0.2c0.1 0.1-0.2 1.1-0.6 2.3-0.4 1.1-0.7 1.8-0.8 1.4 0-0.3 0.3-1.3 0.6-2.2 0.3-1 0.7-1.7 0.8-1.5zm-86 1.1c0 0.3-7 2.5-7.3 2.3-0.1-0.1 1.2-0.7 2.9-1.3 3.1-1.1 4.4-1.4 4.4-1zm-8 2.7c0 0.3-10.2 3.6-10.5 3.3-0.1-0.1 2-0.9 4.8-1.8 5.2-1.8 5.7-1.9 5.7-1.5zm103.5 1.9c0.5 0.8-1.4 7.5-2.3 7.8-2.3 0.9-2.3-0.5-0.1-6.6 0.6-1.8 1.8-2.3 2.4-1.2zm-145.5 1.7c-0.8 0.8-6.5 2.6-7.4 2.3-1.5-0.6-0.4-2.1 2.3-3 4-1.4 6.9-1.1 5.1 0.7zm30.1-0.1c1.6-0.1 0.5 0.5-2.9 1.5-2 0.7-6.5 2.1-10.2 3.3-3.6 1.2-6.6 2.1-6.7 1.9-0.2-0.1 4.1-1.6 9.5-3.4 5.3-1.8 10-3.3 10.3-3.3zm103.3 0.7c0.1 0.1 0.1 0.8-0.1 1.4-0.2 0.6-0.5 1-0.7 0.9-0.1-0.2-0.1-0.8 0.1-1.4 0.2-0.7 0.5-1.1 0.7-0.9zm-1.1 3.4c0.1 0.3-0.2 1.3-0.6 2.3-1 2.2-1.1 1.5-0.2-1 0.4-1 0.7-1.6 0.8-1.3zm-150.6 1.3c-0.2 1.7-6.6 4-7.8 2.8-1.1-1-0.3-1.8 3-3 3.7-1.3 5-1.3 4.8 0.2zm27.3 1.5c0.7 0 0.7 0.1 0 0.5-0.5 0.3-1.2 0.5-1.6 0.5-0.7 0-0.7 0 0-0.5 0.4-0.3 1.1-0.5 1.6-0.5zm-3.2 1.1c0.4 0 0 0.3-1 0.8-2.3 0.9-3.6 0.9-1.4 0 0.9-0.4 1.9-0.8 2.4-0.8zm124.9 0.6c0.1 0.1-0.2 1.2-0.6 2.3-0.4 1.2-0.8 1.8-0.8 1.5 0-0.3 0.2-1.3 0.6-2.3 0.3-0.9 0.6-1.6 0.8-1.5zm-167.5 3.1c0 1-6.4 3.6-7.4 2.9-2.1-1.3-0.4-2.4 6.1-4.2 0.8-0.3 1.3 0.2 1.3 1.3zm34.6-1c0.4 0 0 0.3-1 0.7-2.3 1-3.5 1-1.4 0 0.9-0.4 2-0.7 2.4-0.7zm-4.3 1.7c0 0.3-6.4 2.5-7.1 2.4-0.3 0 1-0.6 2.9-1.3 3.6-1.3 4.2-1.4 4.2-1.1zm-8.2 2.5c0.3 0-0.7 0.6-2.1 1.3-7.8 3.8-8.9 15.5-2 22 1.1 1 1.5 1.6 0.9 1.3-8.1-4.4-7.8-19.4 0.3-23.5 1.3-0.6 2.6-1.1 2.9-1.1zm-40.7 2.6c0 1.2-0.9 1.8-4.7 2.7-4.6 1.2-4.5-1.1 0.2-2.7 3.5-1.3 4.5-1.3 4.5 0zm183.4-0.9c0.1 0.1-2.2 7.3-5.1 16.1-2.9 8.8-5.3 15.7-5.3 15.3 0-0.3 2.3-7.6 5.1-16.1 2.8-8.6 5.2-15.4 5.3-15.3zm10.5 5.2q-1.3 4.9-3 3.3c-0.6-0.7 1-7 2-7.7 1.8-1.2 2.2 0.4 1 4.4zm-212.4 2.7c-1.2 1.2-7.3 3.1-7.7 2.5-1.2-1.9-0.3-2.5 5.9-4.3 1-0.3 2.4 1.2 1.8 1.8zm-4.5 0.5c-0.1 0.1-0.8 0.3-1.5 0.5l-1.3 0.4 1.4 0.1c0.8 0 1.5-0.2 1.5-0.5 0-0.3-0.1-0.5-0.1-0.5zm-14 5.4c-0.7 1.6-7.4 3.1-8 1.7-0.4-1.1-0.4-1.1 3-2.3 4.2-1.5 5.7-1.3 5 0.6zm-18.6 5c0.5 1.3-4.3 3.9-7.1 3.9-2.4 0-0.5-2.6 2.7-3.6 4.2-1.3 4.1-1.3 4.4-0.3zm243.7 0.5c1.3 0.5 0.1 6.3-1.6 8.2-2.5 2.7-2.6-2.8-0.1-7.5 0.5-1.1 0.5-1.1 1.7-0.7zm-200.4 4.8c0 0.6-0.8 0.8-3.6 0.9l-3.6 0.1 7.5 0.7h-4.4c-4.3 0.1-5.6-0.6-4-2.2 0.8-0.8 8.1-0.4 8.1 0.5zm-61.3 1.7c-0.2 0.8-5.2 2.8-7.2 2.8-2.8 0-1.2-2.3 2.5-3.5 3.6-1.2 5.1-1 4.7 0.7zm40.2-1.4c3.7-0.2 1.7 2.3-2.3 3-4.9 0.9-4.8 0.9-4.8-0.9 0-1.5 0.1-1.6 2.8-1.8 1.6-0.1 3.5-0.2 4.3-0.3zm40.2 0.8c0.8 0.2 0.8 2.1 0.1 2.6-2.2 1.3-9.2-1.6-7.6-3.1 0.3-0.4 6 0 7.5 0.5zm34.4-0.8c0.3 0 1.2 0.3 1.9 0.7 0.7 0.5 1.1 0.8 0.8 0.8-0.3 0-1.1-0.3-1.9-0.8-0.7-0.4-1.1-0.7-0.8-0.7zm3.6 1.6c0.7-0.1 7.5 3.2 7.2 3.4-0.1 0.2-1.9-0.6-3.9-1.6-2-1-3.5-1.8-3.3-1.8zm-96.5 3.3c0 1.2-4.1 3-6.9 3-3.2 0-0.7-2.4 3.8-3.6 2.8-0.8 3.1-0.7 3.1 0.6zm74.8-0.1c5.8 1.9 4.4 3.9-1.6 2.3-3-0.8-3.4-1.1-3.4-2.2 0-1.5 0.6-1.5 5-0.1zm33.4 2.1c13.2 6.7 28.8 18.2 36.1 26.6 1.6 1.9 3.3 3.9 3.8 4.4 2.3 2.5 10.9 15.3 10.3 15.3-0.1 0-1.3-1.8-2.7-3.9-11.1-17.1-25.8-30.3-45.7-40.8-3-1.6-5.5-2.9-5.6-3-0.7-0.7 1 0 3.8 1.4zm-148.7 0.1c-0.2 1.7-6.7 4-7.9 2.7-0.9-0.9-0.2-1.5 3.7-2.9 3.6-1.3 4.4-1.2 4.2 0.2zm22.1 4.9c-0.4 1.2-7.3 4-7.8 3.2-0.7-1.3 0.2-2.2 3.5-3.6 3.3-1.3 4.9-1.2 4.3 0.4zm111.5-0.3c3.2 1.5 4.2 2.9 2.6 3.6-1.6 0.6-8-3.1-7.5-4.4 0.4-1.1 1.1-0.9 4.9 0.8zm130.4-0.6c0 0.3-0.2 1.3-0.7 2.3-0.9 2.2-1.1 1.5-0.1-1 0.3-1 0.7-1.6 0.8-1.3zm-282.6 2.3c-0.2 1.2-5.8 3.5-7.3 2.9-1.5-0.6-0.3-2.1 2.3-3 3.8-1.4 5.2-1.3 5 0.1zm292.2 0.6c1.3 0.3 1.3 1.7 0 5.2-2 5.6-4 3.9-2.1-1.9 0.9-2.6 1.4-3.4 2.1-3.3zm-11.3 1.6c0.1 0.1-0.1 1.2-0.6 2.3-0.4 1.2-0.7 1.8-0.8 1.5 0-0.3 0.3-1.3 0.6-2.3 0.3-0.9 0.7-1.6 0.8-1.5zm-299.2 3.8c0 1.2-0.6 1.5-4.3 2.6-4.9 1.5-5.4-1.2-0.5-3 2.9-1 4.8-0.9 4.8 0.4zm41.3 0c0 0.2 0.1 0.6 0.3 1.1 0.3 1-5.8 5.2-7 4.7-1.5-0.5-0.6-1.9 2.4-4 2.6-1.7 4.3-2.4 4.3-1.8zm149.4 4.8c-0.5 1.3-7.9-1.6-7.9-3.1 0-0.1 0.2-0.6 0.4-1.1 0.6-1.6 8 2.5 7.5 4.2zm103.9 5.9c-0.7 1.9-1.3 3.4-1.4 3.3-0.2-0.1 0.3-1.8 0.9-3.8 1.6-4.5 2-4.1 0.5 0.5zm-91.3 2.7c5 4.2 3.3 6.4-1.7 2.2-2.9-2.4-3.3-3.2-1.9-4 0.8-0.4 1.5-0.1 3.6 1.8zm-177.7-0.8c0 1.5-5.6 6-6.5 5.3-1.2-1-0.9-1.7 1.8-4.1 2.5-2.3 4.7-2.8 4.7-1.2zm279.6 1.3c0.7 0.8-1.3 7.8-2.3 8.1-2.2 0.7-2.1-3.1 0.3-8 0.6-1.1 1.2-1.1 2-0.1zm-12.4 1c0.1 0.1-0.6 2.9-1.7 6.1-1.1 3.3-2 5.9-2.2 5.8-0.1-0.2 0.7-2.9 1.7-6.2 1.1-3.3 2.1-5.9 2.2-5.7zm-281.4 11.3c0 1-4.4 6.1-5.4 6.1-2.3 0-1.4-2 3.2-6.7 0.8-0.8 2.2-0.5 2.2 0.6zm208.6 5.4c-1.2 1.5-2.2 0.8-5.9-3.9-0.9-1.1-0.9-1.2 0-2.1 1.2-1.2 7 4.6 5.9 6zm68.6-3.9c0.1 0.1-0.3 1.8-1 3.7-1.5 4.6-1.9 4.2-0.4-0.4 0.6-2 1.2-3.5 1.4-3.3zm10.6 5.4c0.4 1.1-1.5 7.2-2.4 7.6-1.9 0.7-2-1.9 0-7 0.6-1.5 1.9-1.9 2.4-0.6zm-62.4 2.1c1.9 2.3 8.5 14.9 11.5 21.7 2.2 5.3 0.9 3-4-6.8-2.7-5.6-5.7-11.4-6.7-13-0.9-1.6-1.2-2.5-0.8-1.9zm49.1 0.5c0.2 0.1-0.3 1.8-0.9 3.7-1.6 4.6-2 4.2-0.5-0.4 0.7-2 1.3-3.5 1.4-3.3zm-287.8 5.1c1.6 0 1.4 1.6-0.5 4.2-0.9 1.2-1.6 2.4-1.6 2.7 0 0.9-2.1 0.6-2.5-0.3-0.1-0.4 0.5-2 1.7-3.7 1.2-1.9 2.3-2.9 2.9-2.9zm231.7 3.1q3 4.3 0.4 4.3c-1.1 0-5-6.1-4.5-7 0.7-1 2.1-0.1 4.1 2.7zm52.4 2.6c0.1 0.3-0.2 1.3-0.6 2.3-1 2.2-1.1 1.6-0.2-1 0.4-0.9 0.7-1.5 0.8-1.3zm11 5.3c0.3 0.6-1.8 7.3-2.5 7.7-2 1.3-2.1-1.5-0.3-5.8 0.9-2 2.2-2.9 2.8-1.9zm-13.6 2c0.3 0.3-3.6 11.5-4.9 13.9-4.6 8.4-18.9 7-23.4-2.4-1.5-3.1-1-3.1 0.6 0 4 7.6 14.1 9.9 20.1 4.7 2.3-2.1 2.8-2.9 5.3-10.4 1.2-3.3 2.2-5.9 2.3-5.8zm-291 4c1.3 0.7 1.3 0.5-0.6 4.6-1.8 4.1-3.7 4.8-3.7 1.5 0-1 0.2-1.8 0.4-1.8 0.3 0 1-1.1 1.6-2.4 1.1-2.2 1.3-2.4 2.3-1.9zm250.7 3.5c1.6 3.6 1.6 4.5 0 4.5-1.2 0-4.5-7-3.6-7.6 1.4-0.8 2.1-0.2 3.6 3.1zm47.2 13c-1.2 4-1.6 4.8-2.3 4.8-1.3 0-1.8-1.7-1-3.6 0.4-1 0.8-2.2 0.8-2.7 0-0.4 0.3-1.2 0.8-1.7 1.9-2.1 2.8-0.3 1.7 3.2zm-41.2 3.4c1 2.3 1.9 5.3 1.9 6.1 0 1-2.2 0.6-2.6-0.4-0.8-1.6-2-6.2-1.8-6.8 0.5-1.3 1.8-0.7 2.5 1.1zm34.5 17.1c-0.9 2.6-3.3 4.2-3.3 2.3 0-1 1.4-5.5 2.1-6.8 1.7-3.1 2.7 0.6 1.2 4.5zm-29.2 6.1c0.1 2.8-2 4.1-2.5 1.5-0.6-2.8-0.9-6.3-0.6-6.8 1.4-2.3 2.7 0 3.1 5.3zm-1.2-3.7c-0.4 0-0.2 4.2 0.3 4.8 0.1 0.1 0.2-0.9 0.2-2.3 0-1.4-0.2-2.5-0.5-2.5zm25.2 11.7c0.4 0.6-1.1 5.9-2 7.2-1.7 2.2-2.5-0.8-1.2-4.1 0.4-0.9 0.8-2.2 1-2.7 0.4-1 1.7-1.2 2.2-0.4zm-22.9 7.7c0.5 3.3-0.1 6.7-1.3 6.7-1.4 0-2.1-4.6-1.2-7.9 0.5-2.1 2.1-1.4 2.5 1.2zm16.4 14.6c-1.2 4.4-4.5 6.9-3.7 2.8 0.7-3.1 1.4-5.5 2-6.2 1.8-2.1 2.7-0.2 1.7 3.4zm-17.4 5.8c-0.8 6-0.8 6-2.2 6-1.4 0-1.5-3.5-0.4-7.6 0.7-2.5 2.9-1.1 2.6 1.6zm-0.9 0.9c-0.2-2-0.3-2-0.3-0.3-0.1 0.9-0.4 2.2-0.7 2.8-0.4 0.7-0.4 1 0 1 0.3 0 0.7-0.3 0.9-0.8 0.1-0.4 0.2-1.6 0.1-2.7zm12.6 8.8c0.8 1.3-1.9 8-3.3 8-1.2 0-0.9-2.1 1.2-7.9 0.3-0.8 1.6-0.8 2.1-0.1zm-15.9 7.3c1 0.7-1.2 8.2-2.3 8.1-1.8 0-1.4-5.3 0.5-7.8 0.6-0.8 1-0.8 1.8-0.3zm9.2 15.5c-1.2 3.4-1.9 4.4-2.9 4-1.2-0.4-0.1-5.9 1.5-8 1.7-2.2 2.5 0.4 1.4 4zm-266.3 9.2c0.6 2.7-1.8 2.4-3-0.4-0.6-1.3-1.3-2.3-1.6-2.3-0.3 0-0.5-0.9-0.5-1.9 0-4.1 3.7-0.7 5.1 4.6zm250.8-5.3c0.5 2.8-3.7 8.4-4.8 6.4-0.3-0.4 2-5.7 2.9-6.9 0.7-0.8 1.7-0.6 1.9 0.5zm9.4 15c-0.5 1.5-1 3.1-1.1 3.4-0.2 0.8-2.1 0.9-2.6 0.2-0.3-0.6 0.4-3.2 1.7-6.3 1.6-3.9 3.4-1.5 2 2.7zm-252 4.6c2.1 3.1 2.1 5.4 0 4.6-1-0.4-4.4-6.6-4-7.3 0.7-1.1 1.9-0.3 4 2.7zm233.7-2.1c0 1.9-3.7 6.8-4.9 6.5-1.4-0.3-1.3-0.8 1-4.4 1.9-3.3 3.9-4.3 3.9-2.1zm11.4 18.3c-0.9 2.4-1.9 3.1-2.7 1.9-0.4-0.7 1.4-7 2.2-7.6 1.7-1.2 2 1.7 0.5 5.7zm-234.1-1.2c2.7 2.9 3.1 3.5 2.3 4.5-0.6 0.7-0.9 0.6-2-0.4-2.5-2.3-4.5-5.4-3.7-5.9 1.1-0.6 1.3-0.5 3.4 1.8zm211.4-1.1c0.3 1.7-5 6.7-6.1 5.7-0.8-0.8-0.8-1 1.5-3.8 2.3-3 4.2-3.8 4.6-1.9zm-194.5 18.8c-0.5 1.3-1.3 1-4-1.1-2.9-2.3-3.4-3.2-2.6-4.2 1.1-1.3 7.2 3.7 6.6 5.3zm180.8-4.6c0 1.9-5.7 6.1-6.7 5.1-0.9-0.9-0.8-1.1 1.9-3.5 2.9-2.6 4.8-3.2 4.8-1.6zm31.3 1.2c1.1 0.6-1.3 8.2-2.7 8.4-1.9 0.4-1.6-3.5 0.7-8 0.6-1.1 0.9-1.1 2-0.4zm-202.3 9.6c0.6-0.1 6.5 4.4 6.3 4.9-0.4 1.2-1.9 1-4.9-0.8-2.8-1.6-3.7-3.2-2.2-3.8 0.3-0.1 0.7-0.3 0.8-0.3zm152.3 4.5c-3.1 1.9-3.3 1.9-4.1 1.1-1.1-1.1 0.2-2.4 4.3-4.5 4.4-2.2 4.3 0.7-0.2 3.4zm43.4 8.8c-0.8 2.7-1.2 3.2-2.2 3.2-1.6 0-1.6-0.7-0.2-4.5 1.9-4.9 3.9-3.7 2.4 1.3zm-171.9 0c0.9 1.5-1.2 2-3.7 0.9-4.1-1.8-4.8-2.3-4.4-3.2 0.5-1.4 7 0.5 8.1 2.3zm114.6-2.1c0.1 0.9-5.5 4.2-7.2 4.2-2 0-0.6-2.5 2.1-3.8q4.7-2.3 5.1-0.4z"/>
		<path id="path6" fill-rule="evenodd" class="s1" d="m228.4 122.3c0.2 0.2 0.4 0.7 0.4 1.3 0 0.5-0.2 1.1-0.4 1.2-0.2 0.2-0.4-0.4-0.4-1.2 0-0.8 0.2-1.4 0.4-1.3zm-46.2 13.5c0 0 0 0.7 0 1.6 0 0.8-0.1 1.4-0.4 1.3-0.5-0.3-0.5-2 0-2.5 0.2-0.2 0.4-0.4 0.4-0.4zm-67 57.1l1.6 1.7-1.8-1.5c-0.9-0.9-1.7-1.7-1.7-1.7 0-0.5 0.4-0.1 1.9 1.5zm-51.7 0.6c2.1 0 2.9 0.1 1.8 0.2-1.1 0.1-2.8 0.1-3.8 0-0.9-0.1 0-0.2 2-0.2zm-86.9 32.2c1.4 1.1 1.2 2.4-0.5 3.9l-1.4 1.2 1.2-1.3c1.3-1.6 1.5-2.6 0.5-3.7-0.6-0.7-0.5-0.7 0.2-0.1zm-4.9 1.7c0.1 0-0.5 0.8-1.5 1.7-0.9 1-1.7 2.1-1.7 2.6 0 0.6-0.1 0.6-0.3 0-0.2-0.4 0.5-1.5 1.4-2.5 1-1 1.9-1.8 2.1-1.8zm267.4 46.3c0.5 0.9 1.1 1.3 2.1 1.3 0.7 0 1.3 0.2 1.1 0.4-0.8 1.2-3.9-0.5-3.9-2.2 0-0.5 0.3-0.3 0.7 0.5zm-18.5 57.6c1.3 1.1 2.4 1.2 3.4 0.3 0.7-0.6 0.7-0.6 0.1 0.2-1 1.3-2.4 1.2-3.6-0.2-1-1.2-1-1.2 0.1-0.3zm-23.1 25.4c0.1 0.9 0 1.4-0.2 1.3-0.2-0.2-0.4-0.9-0.4-1.6 0-1.8 0.3-1.6 0.6 0.3z"/>
		<path id="path7" fill-rule="evenodd" class="s1" d="m198.9 331.3c0.1 1.1 0.1 3 0 4.2-0.2 1.3-0.2 0.4-0.2-1.9-0.1-2.4 0-3.4 0.2-2.3zm4.7 0.8c0.2 0.9 0.2 2.6 0 3.7-0.1 1.1-0.2 0.3-0.2-1.7 0-2 0.1-3 0.2-2z"/>
		<path id="path8" fill-rule="evenodd" class="s1" d="m345.4-61.9c-0.4 0.5-0.6 1-0.4 1.2 0.2 0.1 0.5-0.1 0.7-0.6 0.4-1.2 3.2-1.1 3.8 0.1 0.3 0.5 0.3 1.4 0.1 2-0.2 0.5-0.4 1.4-0.4 1.8 0 0.5 0.3 0 0.7-1 1.2-3.5-2.3-6.2-4.5-3.5zm-1.9 5.1c-0.2 0.6-0.2 1.2-0.1 1.4 0.2 0.1 0.4-0.3 0.6-0.9 0.2-0.6 0.3-1.3 0.1-1.4-0.1-0.2-0.4 0.2-0.6 0.9zm-4 14.3c-0.9 2.3-0.4 2.4 0.6 0.2 0.5-1 0.7-1.8 0.5-1.8-0.2 0-0.7 0.8-1.1 1.6zm3.2-1.2c1.6 0.6 2.1 1.7 1.5 3.7-0.3 1-0.4 2-0.3 2.1 0.2 0.1 0.5-0.7 0.8-1.9 0.6-2.4-0.3-4.3-1.9-4.2-0.7 0-0.7 0.1-0.1 0.3zm-4.5 5.3c-0.2 0.7-0.2 1.5-0.1 1.6 0.2 0.2 0.5-0.3 0.7-1.1 0.2-0.8 0.2-1.5 0-1.7-0.1-0.1-0.4 0.4-0.6 1.2zm-0.8 2.9c0 1.2 1.3 2.8 2.2 2.5 0.5-0.3 0.5-0.4-0.2-0.4-0.5 0-1.1-0.7-1.4-1.5-0.3-0.8-0.5-1.1-0.6-0.6zm0.8 10.8c0.7 0.5 0.9 1.1 0.6 2.5-0.2 1.3-0.2 1.6 0.2 1 1-1.6 0.3-4.2-1.3-4.2-0.3 0-0.1 0.3 0.5 0.7zm-9.6 19c-0.2 0.6-0.2 1.2 0 1.4 0.1 0.2 0.3-0.1 0.3-0.5 0-0.5 0.4-1.1 0.9-1.4 0.9-0.5 0.9-0.6 0-0.6-0.5 0-1 0.5-1.2 1.1zm4-0.1c0.6 0.6 0.9 1.5 0.7 2.3-0.2 1.1-0.1 1.1 0.3 0.1 0.5-1.2-0.3-3.4-1.4-3.4q-0.7 0 0.4 1zm-5.1 3.2c-0.2 0.7-0.2 1.3-0.1 1.5 0.2 0.1 0.5-0.3 0.7-0.9 0.2-0.7 0.2-1.3 0.1-1.4-0.2-0.2-0.5 0.2-0.7 0.8zm4.8 2.2c-0.2 0.6-0.2 1.2-0.1 1.4 0.2 0.1 0.5-0.3 0.7-0.9 0.2-0.6 0.2-1.3 0.1-1.4-0.2-0.2-0.5 0.2-0.7 0.9zm-5.7 1.5c-0.4 1.6 0.4 3.3 1.6 3.3 0.8 0 0.8-0.1 0-0.7-0.5-0.4-0.9-1.4-1-2.3-0.2-1.5-0.2-1.5-0.6-0.3zm4.9 1.3c0 0.5-0.4 1.1-0.9 1.4-0.8 0.5-0.9 0.5 0 0.5 0.9 0.1 1.8-1.9 1.2-2.5-0.1-0.1-0.3 0.1-0.3 0.6zm-8.2 10.3c-0.4 1.2-0.2 1.2 0.9 0.1 0.7-0.8 0.8-1 0.2-1-0.4 0-0.9 0.4-1.1 0.9zm4 0.2c0.9 0.9 1 1.1 0.2 3.7-0.5 1.5-0.7 2.9-0.6 3 0.2 0.2 0.7-1.1 1.2-2.7 0.8-3.1 0.3-5.1-1.4-5.1-0.3 0 0 0.5 0.6 1.1zm-5 2.3c-0.2 0.5-0.3 1.4-0.3 1.8q0 0.9 0.5-0.3c0.3-0.8 0.5-1.6 0.4-1.9-0.1-0.3-0.4-0.1-0.6 0.4zm-1.2 4.9c-0.2 1.1-0.1 2.1 0.1 2.4 0.3 0.2 0.5-0.6 0.5-1.9q0.1-4.3-0.6-0.5zm4.8 1.5c-0.3 0.7-1.1 1.2-2.1 1.4-1.3 0.2-1.4 0.4-0.6 0.7 1.2 0.5 2.8-0.4 3.3-1.8 0.5-1.5 0.1-1.8-0.6-0.3zm-7.1 10.1c0 0.2 0.7 0.7 1.6 1.2 1.3 0.6 1.5 1 1.3 2-0.3 1-0.3 1 0.3 0.2 0.3-0.5 0.4-1.2 0.2-1.5-0.4-0.6-3.4-2.3-3.4-1.9zm-3.1 4.9c-0.4 0.7-0.7 1.6-0.6 2 0 0.3 0.3-0.2 0.8-1.2 0.9-2.1 0.7-2.8-0.2-0.8zm-1.4 3.8c-1 1 0.6 3.9 2.1 3.9 0.3 0-0.1-0.4-0.8-0.9-0.8-0.6-1.1-1.2-1-2.1 0.3-1.4 0.3-1.5-0.3-0.9zm4.3 2.6c-0.5 0.7-0.8 1.3-0.5 1.3 0.4 0 1.9-2.1 1.6-2.4-0.1-0.1-0.6 0.4-1.1 1.1zm141.7 0.2c-0.6 0.4-0.4 0.5 0.8 0.4 2.8-0.2 3.7 3.4 1.2 4.4-0.9 0.4-1 0.5-0.2 0.5 0.5 0 1.3-0.5 1.7-1.2 1.6-2.5-1-5.6-3.5-4.1zm-6.8 2.7c-0.6 0.7-0.9 1.5-0.7 2 0.2 0.7 0.4 0.6 0.6-0.4 0.2-0.7 0.9-1.6 1.6-2 1-0.5 1.1-0.7 0.4-0.7-0.5 0-1.3 0.5-1.9 1.1zm-12.3 3.8c-0.7 0.4-0.6 0.5 0.5 0.2 2.9-0.6 4.7 3.1 2 4.4q-1.2 0.6-0.4 0.6c1.3 0 2.1-1.1 2.1-2.7 0-2.5-2.3-3.9-4.2-2.5zm12.3-0.1c0.3 1 2.3 1.3 3.5 0.6 0.8-0.5 0.7-0.5-0.5-0.3-0.9 0.2-1.8 0.1-2.4-0.4-0.7-0.6-0.8-0.6-0.6 0.1zm-16.3 1.3c-2.2 1-0.9 1 1.4 0.1 1-0.5 1.4-0.8 1-0.8-0.5 0-1.5 0.3-2.4 0.7zm-3 2c-0.4 0.8-0.4 1.2 0.1 1.7 0.5 0.4 0.6 0.4 0.3-0.1-0.2-0.3-0.1-1.1 0.2-1.7 0.3-0.6 0.4-1.1 0.3-1.1-0.2 0-0.5 0.5-0.9 1.2zm-123.6 0.2c-0.5 0.4-0.9 1.1-0.9 1.4 0 0.3 0.5 0 1-0.7 1.3-1.6 3.6-0.8 3.9 1.5 0.3 1.4 0.3 1.4 0.3 0.2 0.2-2.6-2.6-4.1-4.3-2.4zm128.7 2.6c-0.9 0.4-1.2 0.8-0.8 0.8 0.5 0 1.5-0.4 2.4-0.8 0.9-0.4 1.3-0.7 0.8-0.7-0.4 0-1.5 0.3-2.4 0.7zm-18.3 0.6q-1.3 0.8-0.3 0.4c5.4-1.9 8.2 1.9 2.9 4.2-1.7 0.7-1.9 0.9-0.8 0.7 3.5-0.7 4.8-2.6 3.5-5.1-0.7-1.3-3.4-1.4-5.3-0.2zm13.9-0.3c0.1 0.4 0.8 0.8 1.5 0.9 1 0.1 1.1 0 0.3-0.2-0.6-0.2-1.3-0.6-1.5-0.9q-0.5-0.6-0.3 0.2zm-18.6 2.3c-0.8 0.8-1 1.4-0.7 2 0.4 0.6 0.5 0.5 0.6-0.4 0-0.8 0.5-1.5 1.4-2 0.9-0.5 1.2-0.8 0.7-0.8-0.5 0-1.4 0.5-2 1.2zm-102.6 0.4c-0.2 0.6-0.2 1.2-0.1 1.4 0.2 0.1 0.4-0.3 0.6-0.9 0.2-0.6 0.3-1.3 0.1-1.4-0.1-0.2-0.4 0.2-0.6 0.9zm-6.2 2c-0.6 2.2-0.1 3.8 1.3 3.8 0.3 0 0.1-0.3-0.4-0.7-0.9-0.7-1-1-0.4-2.8 0.3-1.1 0.5-2.1 0.4-2.2-0.1-0.2-0.5 0.7-0.9 1.9zm4.8 2c-0.5 1-0.6 1.8-0.4 1.8 0.5 0 1.7-2.6 1.4-3.2-0.1-0.2-0.5 0.4-1 1.4zm92.5-0.9c-0.2 0.2 0.3 0.3 1 0.2 3-0.6 3.5 3.5 0.5 4.7-0.9 0.3-0.9 0.4-0.1 0.4 2.4 0.1 3.6-3 1.8-5.1-0.6-0.8-2.8-0.9-3.2-0.2zm14 0.6c-0.7 0.4-0.7 0.5 0 0.5 0.5 0 1.2-0.2 1.6-0.5 0.7-0.5 0.7-0.5 0-0.5-0.4 0-1.1 0.2-1.6 0.5zm-21.2 3.3c-0.1 1.5 2.2 3.7 3.1 3.1 0.7-0.4 0.6-0.5-0.4-0.6-0.9 0-1.4-0.5-2-1.7-0.4-0.9-0.7-1.3-0.7-0.8zm-9.4 1.9q2.4 0.5 2.4 2.5c0 0.6-0.3 1.4-0.7 1.8-0.5 0.5-0.4 0.6 0.3 0.3 2.4-0.9 0.8-5.1-2-5l-1 0.1zm-3.5 0.7c-0.7 0.4-0.7 0.5 0 0.5 0.4 0 1.2-0.2 1.6-0.5 0.7-0.5 0.7-0.5 0-0.5-0.4 0-1.2 0.2-1.6 0.5zm-3.5 1.3c-1 0.8-1 0.9 0 0.4 0.6-0.3 1.5-0.6 1.9-0.8 0.7-0.3 0.7-0.3 0-0.4-0.5 0-1.3 0.4-1.9 0.8zm-77.6 3.8c-0.7 0.7-0.3 1.4 0.5 0.7 1-0.9 3.1-0.2 3.8 1.2q0.6 1.3 0.6 0.4c0.1-1.8-3.6-3.5-4.9-2.3zm64.9 0.1c-0.2 0.4 0.4 0.5 1.6 0.3 1.3-0.3 2.1-0.1 2.4 0.4 0.5 0.6 0.5 0.6 0.4-0.1-0.3-0.9-3.9-1.4-4.4-0.6zm12 0.1c0.3 1 3.3 1.3 4.6 0.6 0.7-0.5 0.5-0.6-1.1-0.3q-2 0.4-2.9-0.4c-0.7-0.6-0.8-0.6-0.6 0.1zm-17 1.9c-0.6 0.4-1.1 1.2-1.1 1.7 0 0.8 0.1 0.8 0.4-0.1 0.2-0.5 1-1.3 1.7-1.7 0.7-0.4 1.1-0.7 0.8-0.7-0.3 0-1.1 0.3-1.8 0.8zm-61.2 1.4c-0.9 2.5-0.8 3.2 0.2 1 0.4-1 0.7-2 0.6-2.3-0.1-0.3-0.4 0.3-0.8 1.3zm70.7-0.8c0 0.8-0.6 1.5-1.7 2-1 0.4-1.4 0.8-0.9 0.8 1.4 0 3.3-1.8 3-2.9-0.3-0.9-0.3-0.9-0.4 0.1zm-19.2 3.5c1.7 0.8 2.1 3 0.8 3.9-0.6 0.4-0.7 0.7-0.5 0.7 1 0 1.9-1.2 1.9-2.4 0-1.4-1.4-2.9-2.6-2.9q-0.9 0 0.4 0.7zm-4.8 0.7c-1.7 0.9-1.1 1 1.2 0 1-0.5 1.4-0.8 1-0.8-0.5 0-1.4 0.3-2.2 0.8zm-43.6 3.4c-0.8 1.8-2.6 2.2-4 0.8-0.4-0.5-0.8-0.6-0.8-0.3 0 0.7 1.8 1.6 3.1 1.6 1.1 0 3.2-2.9 2.6-3.5-0.1-0.1-0.5 0.5-0.9 1.4zm39.4 0.3c0 1.1 1.5 2.4 2.7 2.3 1.1 0 1.1-0.1 0.2-0.3-0.6-0.1-1.5-0.8-2-1.4-0.5-0.6-0.9-0.9-0.9-0.6zm-12.5 1.6c-2.2 0.9-1.1 1 1.6 0 1.1-0.4 1.6-0.8 1-0.8-0.6 0-1.8 0.4-2.6 0.8zm4.7 0.3c1.4 2.1 0.9 3.2-1.8 4.3q-2.4 1-0.8 0.7c3.8-0.8 5.2-3.3 2.8-5.4l-1.1-1zm-8.9 1c-1.1 0.6-1.3 3.7-0.3 4.7 0.8 0.7 3.1 0.8 4.2 0 0.6-0.4 0.3-0.4-1.1-0.2-3.3 0.6-4.5-2.9-1.6-4.4 0.7-0.3 1-0.6 0.5-0.6-0.4 0-1.2 0.2-1.7 0.5zm-8.2 6.3c0.1 1.1-0.3 1.6-1.8 2.3-1 0.5-1.4 0.9-0.9 0.9 1.7 0 3.8-2.3 3.2-3.5-0.6-0.9-0.6-0.9-0.5 0.3zm-10.1 0.3c-0.1 0.4-0.2 1.3 0 2 0.2 0.9 0.2 0.8 0.3-0.5 0-0.9 0.4-1.8 0.7-1.9 0.5-0.2 0.5-0.3 0-0.3-0.4-0.1-0.8 0.3-1 0.7zm-13.8 1.9c-0.4 0.9-0.7 1.8-0.6 1.9 0.1 0.1 0.5-0.5 0.9-1.3 0.4-0.9 1.2-1.7 1.8-1.8 1.1-0.3 1.1-0.3 0-0.3-0.9-0.1-1.5 0.4-2.1 1.5zm5.1 0.9c0 0.3 0.2 0.8 0.5 0.9 0.3 0.2 0.6 1.3 0.7 2.3 0 2 0 2 0.3 0.3 0.1-1-0.2-2.2-0.7-2.9-0.4-0.7-0.8-0.9-0.8-0.6zm-8.4 2.6c-2.1 1.4 0 6.6 2.6 6.6 0.4 0 0.1-0.4-0.7-0.9-2.7-1.7-3.2-4.3-1.1-5.6 0.8-0.5 1.2-0.9 0.9-0.9-0.3 0-1 0.3-1.7 0.8zm6.5 3.5c-1.1 1.7-1.7 3.1-1.4 3.1 0.5 0 2.3-3.3 2-3.6-0.1-0.1-0.4 0.1-0.6 0.5zm-19.4 0.3c-0.4 0.1-2 0.7-3.6 1.3-3 1.1-3.7 2.2-2.7 4.4 0.7 1.6 3.4 1.8 6 0.5 1.4-0.6 1.4-0.7 0.3-0.4-5.3 1.4-8.8-1.8-4-3.8 4.5-1.9 6.7-2.2 7.6-1.1 0.7 1 0.8 1 0.5 0.1-0.2-0.5-0.4-1.1-0.4-1.2 0-0.3-2.7-0.2-3.7 0.2zm-24.1 8.6c-1.1 1.2-1.1 2.9-0.1 4 1 0.9 2.7 1.1 3.2 0.4 0.1-0.3-0.2-0.4-0.8-0.2-2.5 0.6-3.7-2.9-1.5-4.4 0.7-0.4 0.9-0.8 0.6-0.8-0.3 0-0.9 0.4-1.4 1zm9.7 0.5c-0.2 1-0.1 1.5 0.2 1.2 0.2-0.2 0.4-1 0.3-1.7-0.2-1.1-0.3-1-0.5 0.5zm24 3.4c-0.6 1.3-1 2.6-1 3.1 0 0.4 0.5-0.5 1.1-2 1.3-3.5 4.1-3.8 5.4-0.7 0.2 0.7 0.3 0.7 0.3-0.1 0.1-1-2.1-2.6-3.7-2.6-0.8 0-1.4 0.7-2.1 2.3zm-27.9-0.9c-0.9 0.4-1.3 0.7-0.8 0.7 0.4 0 1.4-0.3 2.1-0.7 1.7-1 0.8-1-1.3 0zm-18.1 0.8c-0.8 0.3-0.5 0.4 0.9 0.2 3.2-0.5 4.1 3.4 1 4.5-0.8 0.3-1 0.5-0.6 0.6 1.2 0 3.2-1.5 3.2-2.6 0-2.4-2.2-3.8-4.5-2.7zm50.4 3.5c-0.8 2.6-0.4 3 0.4 0.5 0.3-1.1 0.5-2.1 0.4-2.2-0.1-0.1-0.5 0.7-0.8 1.7zm-6.2 1.6c-1 2.5 0.2 4.5 2.8 4.5 1.3 0 2.7-1.4 2.7-2.6q0-0.9-0.7 0.4c-1.4 2.9-4.9 1.7-4.4-1.4 0.4-1.9 0.1-2.4-0.4-0.9zm-60.6 0.7c2.5 1.1 2.2 3.9-0.6 5.1-0.9 0.4-1.4 0.7-1 0.7 1.7 0.2 3.9-1.5 3.9-3 0-1.6-1.5-3.3-2.8-3.3-0.4 0.1-0.2 0.3 0.5 0.5zm9.7 0c0 1 2 1.7 3.3 1.1 1.2-0.5 1.2-0.6 0.1-0.3-0.7 0.1-1.7-0.2-2.3-0.6-0.6-0.4-1.1-0.5-1.1-0.2zm-13.6 0.6q-0.6 0.9 1.6 0c1.1-0.5 1-0.5-0.1-0.5-0.6-0.1-1.3 0.2-1.5 0.5zm38 0.9c0.9 0.1 2.5 0.1 3.4 0 1-0.1 0.2-0.2-1.7-0.2-1.9 0-2.7 0.1-1.7 0.2zm-4.4 0.7q-1.1 0.4-0.3 0.4c0.4 0 1.3-0.2 1.9-0.4q1-0.5 0.2-0.5c-0.4 0-1.3 0.2-1.8 0.5zm-7.2 2.4c-1.8 0.9-1.2 1 1.1 0 1-0.5 1.4-0.8 1-0.8-0.4 0-1.4 0.3-2.1 0.8zm-31.4 0.7c0 0.7 1.5 2.2 2.3 2.1 1.1 0 4.3-1.4 3.4-1.5-0.5 0-1.5 0.3-2.3 0.6-1.3 0.6-1.5 0.5-2.4-0.6-0.6-0.6-1-0.9-1-0.6zm-10.1 1c0.7 0.1 1.6 0.6 2 1.1 0.3 0.4 0.6 0.6 0.6 0.3 0-1-1.2-1.8-2.6-1.7h-1.4zm-4.2 1c-1.8 1-1.2 1 1.1 0 1-0.4 1.4-0.8 1-0.8-0.4 0-1.4 0.4-2.1 0.8zm37.8 0c-1.8 1-1.2 1 1.1 0 1-0.4 1.4-0.8 1-0.8-0.4 0-1.4 0.4-2.1 0.8zm-7.8 2.7c-0.8 0.4-1.2 0.7-0.8 0.7 0.5 0 1.4-0.3 2.2-0.8 1.7-0.9 0.8-0.9-1.4 0.1zm41 3.9c0 2.7 0.2 4.4 0.4 3.9 0.5-1.2 0.5-6.5 0-7.7-0.2-0.5-0.4 1.2-0.4 3.8zm-75.3-2.8c0 1.5 1.9 3 3 2.3 0.8-0.5 0.8-0.5 0.1-0.3-0.6 0.2-1.3-0.2-2-1.1-0.6-0.8-1.1-1.2-1.1-0.9zm84.4 1c-0.4 0.5-0.8 1.3-0.8 1.7q0 1 0.7-0.4c0.3-0.7 1.2-1.4 1.9-1.6 1.3-0.4 1.3-0.4 0.2-0.5-0.6 0-1.5 0.4-2 0.8zm-96.6 0.6c-1.9 0.7-0.6 0.7 1.9-0.1 0.7-0.2 1.4 0 2 0.5 0.5 0.5 0.9 0.7 0.9 0.5 0-1.7-2-2.1-4.8-0.9zm37.8-0.1c-1.1 0.4-1.5 0.7-1.1 0.7 0.4 0 1.6-0.3 2.7-0.7 1-0.4 1.5-0.7 1-0.7-0.4 0-1.6 0.3-2.6 0.7zm62.7 0c0.4 0.4 0.5 1.2 0.3 1.9q-0.4 1.2 0.2 0.8c0.9-0.6 0.7-2.8-0.2-3.2-0.8-0.3-0.8-0.2-0.3 0.5zm-105.5 1.6c-2.2 1.3-1.3 5.7 1.1 5.6 0.8-0.1 0.8-0.1 0.1-0.4-2.7-1-2.8-4-0.1-5.1 1.1-0.4 1.6-0.8 1.2-0.8-0.4 0-1.4 0.3-2.3 0.7zm38.5-0.3c-0.7 0.5-0.7 0.6 0 0.6 0.4 0 1.2-0.3 1.6-0.6 0.7-0.4 0.7-0.5 0-0.5-0.4 0-1.2 0.3-1.6 0.5zm-4 1.4c-2.1 0.9-0.8 1 1.4 0 1-0.4 1.4-0.8 1-0.8-0.4 0-1.5 0.3-2.4 0.8zm-25.7 1.1c-0.6 0.7-0.9 1.3-0.7 1.3 0.5 0 2.5-2.1 2.1-2.3-0.1-0.1-0.7 0.4-1.4 1zm17.7 1.5c-2 1-1.1 1 1.4 0 1-0.4 1.5-0.7 1-0.7-0.4 0-1.5 0.3-2.4 0.7zm-38.6 0.3c-0.6 0.4-0.3 0.5 1 0.5 0.9 0 1.7 0.3 1.7 0.7 0 0.3 0.2 0.4 0.3 0.2 1.1-1-1.6-2.3-3-1.4zm16 0.3c-1 0.4-1.5 0.7-1 0.7 0.5 0 1.7-0.3 2.7-0.7 2.2-1 0.8-1-1.7 0zm95 1.1c-0.2 0.7-0.2 1.6 0.1 1.8 0.3 0.3 0.5-0.2 0.5-1.3 0-2.3-0.2-2.4-0.6-0.5zm-117.8 1c-2.6 1.8-0.4 5.7 2.6 4.6l1.8-0.6-1.9 0.3c-3.3 0.5-4.4-3-1.4-4.3 1-0.4 1.4-0.8 0.9-0.8-0.4 0-1.3 0.4-2 0.8zm37.7 0c-1.7 1-1.1 1 1.1 0 1-0.4 1.5-0.8 1-0.8-0.4 0-1.4 0.4-2.1 0.8zm85.2 0c0 1-1.8 1.9-3 1.5-1-0.2-1-0.2-0.1 0.4 0.8 0.4 1.3 0.4 2.3-0.3 1.1-0.7 1.8-2.4 1-2.4-0.1 0-0.2 0.3-0.2 0.8zm-93.2 2.7c-1.7 0.9-1.1 1 1.2 0 0.9-0.5 1.4-0.8 1-0.8-0.5 0-1.4 0.3-2.2 0.8zm-41.8 1.3q-0.3 0.6 1.1 0.2 1.5-0.4 2 0.4c0.4 0.6 0.4 0.6 0.3-0.1-0.3-0.9-2.8-1.4-3.4-0.5zm-3.9 1.3c-1.8 1-1.2 1 1.1 0 1-0.4 1.4-0.7 1-0.7-0.5 0-1.4 0.3-2.1 0.7zm-3.2 1.6c-0.8 1-0.4 2.5 1.1 3.8 1.1 0.9 1 0.8-0.1-0.7-1.1-1.5-1.2-2-0.6-2.8 0.7-1.3 0.5-1.4-0.4-0.3zm10.6 0c0 0.4-0.5 1.1-1.2 1.6-0.6 0.4-0.9 0.8-0.6 0.8 1.2 0 3.2-2.4 2.4-2.9-0.3-0.2-0.6 0-0.6 0.5zm22.1 1.1c-2.2 1-0.9 1 1.4 0 1-0.4 1.4-0.8 1-0.8-0.5 0.1-1.5 0.4-2.4 0.8zm103.5 2.1c1.6 0.8 1.7 0.9 1.4 2.8-0.2 1.4-0.1 1.7 0.2 1.2 1.4-2.2-0.2-4.9-2.8-4.8-0.4 0 0.2 0.4 1.2 0.8zm-149.8 0.5c-2.1 1-1.1 1 1.6 0.1 1.2-0.5 1.6-0.8 1-0.8-0.5 0-1.7 0.3-2.6 0.7zm146.6 0c-0.3 0.4-0.5 1.1-0.4 1.4 0.1 0.3 0.5 0 0.8-0.8q1.1-2.3-0.4-0.6zm-150.8 1.8c-2.5 2.7 0.8 6.4 3.9 4.4 0.6-0.4 0.3-0.5-0.9-0.2-3.3 0.6-4.8-2.8-1.9-4.3 0.9-0.5 1.2-0.8 0.6-0.8-0.4-0.1-1.2 0.4-1.7 0.9zm9.7 0.5c-0.2 1.2-0.7 1.6-2.6 2.4-1.3 0.5-2.1 0.9-1.7 0.9 2.1 0.1 4.9-1.7 4.9-3.2 0-2-0.4-2-0.6-0.1zm24.3 0.4c-2.1 0.9-1.1 0.9 1.3 0 1-0.4 1.5-0.7 1.1-0.7-0.5 0-1.5 0.3-2.4 0.7zm115.5 0.8c-0.2 0.6-0.3 1.3-0.1 1.4 0.1 0.2 0.4-0.2 0.6-0.9 0.2-0.6 0.3-1.2 0.1-1.4-0.1-0.1-0.4 0.3-0.6 0.9zm-123.2 1.9c-1.8 1-1.2 1 1.1 0 1-0.4 1.4-0.8 1-0.8-0.4 0-1.4 0.3-2.1 0.8zm127.7 1.7c-1 3-2.8 3.7-4.7 1.8-0.6-0.7-1.1-0.9-1.1-0.6 0 1.5 4.1 2.7 5.2 1.5 0.6-0.9 1.9-4.7 1.6-5-0.2-0.1-0.6 0.9-1 2.3zm-166.4-1.6c-0.4 0.3 0.2 0.4 1.4 0.4 1.2 0 2.1-0.2 2.1-0.4 0-0.5-2.7-0.5-3.5 0zm3.8 2c0.3 1.1-0.7 2.5-2.4 3.1-0.6 0.2-0.6 0.3 0.1 0.3 1.8 0.1 3.5-2.3 2.5-3.7-0.4-0.6-0.5-0.6-0.2 0.3zm-10.3 0.5c-0.4 0.4-0.6 1.2-0.4 1.7 0.2 0.8 0.2 0.7 0.3-0.2 0-0.8 0.5-1.4 1.2-1.7q1.2-0.5 0.4-0.5c-0.5-0.1-1.2 0.3-1.5 0.7zm37.2 0c-1.7 1-1.1 1 1.1 0 1-0.4 1.5-0.7 1-0.7-0.4 0-1.4 0.3-2.1 0.7zm122.5 1.5c-0.9 2.5-0.7 3.2 0.2 1 0.4-1 0.7-2.1 0.6-2.3 0-0.3-0.4 0.3-0.8 1.3zm-159.8 1.9c0 0.7 2.5 1.5 3.1 0.9 0.2-0.1-0.2-0.3-0.7-0.3-0.6 0-1.4-0.3-1.7-0.6-0.5-0.5-0.7-0.5-0.7 0zm-8.5 1.3c0.8 2.3 0.7 2.9-1.1 3.6-1 0.4-1.5 0.8-1.1 0.9 2.2 0.7 4.1-2.9 2.5-5-0.8-0.9-0.8-0.9-0.3 0.5zm-8 0.6c-1.7 1-1.1 1 1.2 0.1 1-0.5 1.4-0.8 1-0.8-0.5 0-1.4 0.3-2.2 0.7zm37.8 0c-1 0.4-1.5 0.8-1 0.8 0.4 0 1.5-0.3 2.4-0.7 2-1 1.1-1-1.4-0.1zm-4.2 1.4c-0.7 0.4-0.7 0.5 0 0.5 0.4 0 1.1-0.2 1.6-0.5 0.7-0.5 0.7-0.5 0-0.5-0.5 0-1.2 0.2-1.6 0.5zm-4 1.3c-2.1 0.9-1.1 0.9 1.3 0 1-0.4 1.5-0.7 1.1-0.7-0.5 0-1.5 0.3-2.4 0.7zm-31.7 0.9c0 1.2 1.3 2.2 2.8 1.9 1-0.2 1-0.3-0.3-0.3q-1.5-0.1-1.9-1.3-0.5-1.2-0.6-0.3zm175.8 1.1c-0.9 2.5-0.8 3.2 0.1 1 0.5-1 0.8-2.1 0.7-2.3-0.1-0.3-0.5 0.3-0.8 1.3zm-149.5 0.8c-1.2 1.1-1.5 1.5-0.8 0.9 0.8-0.7 2.1-1.6 3-2 0.9-0.5 1.2-0.9 0.7-0.9-0.5 0-1.8 0.9-2.9 2zm-36.1-1.1c1.7 0.3 2.6 2.7 1.5 4-0.5 0.5-0.6 1-0.3 1 2.4 0 1.5-5.1-1-5.2-1 0-1 0-0.2 0.2zm-4.8 0.9c-2.1 1-1.1 1 1.3 0.1 1-0.4 1.5-0.8 1.1-0.8-0.5 0-1.6 0.3-2.4 0.7zm197.5-0.3c-0.2 0.2 0.5 0.3 1.4 0.2 1.2-0.2 1.8 0 2.6 1 0.8 1.1 0.9 1.1 0.6 0.2-0.6-1.7-3.8-2.7-4.6-1.4zm-200.9 1.8c-1.9 1.9 0.9 6.1 3.1 4.7 0.6-0.4 0.5-0.5-0.6-0.5-2.4-0.1-3.7-3.1-1.7-4.3 0.6-0.3 0.7-0.5 0.4-0.5-0.3 0-0.8 0.3-1.2 0.6zm199.6 0.9c-0.9 2.6-0.7 3.3 0.2 1.2 0.4-1 0.7-2.1 0.6-2.4-0.1-0.3-0.5 0.2-0.8 1.2zm-193.8 2.5c-1.1 0.4-1.5 0.7-1.1 0.7 0.4 0 1.5-0.3 2.4-0.7 2-1 1.1-1-1.3 0zm-14.9 0.6c0 0.3 0.2 0.8 0.5 1 1.3 0.8 0.5 2.4-1.7 3.4-1.3 0.6-1.9 1.1-1.5 1.1 1.4 0 4.3-2.1 4.3-3.1 0-1.1-1.6-3.4-1.6-2.4zm207.4 1c-1.4 1.4 0.7 4.5 2.8 4.5 1.1 0 2.7-1.7 2.6-2.7 0-0.4-0.3-0.1-0.8 0.7-1.3 2.5-4.8 1.5-4.3-1.3 0.4-1.6 0.3-1.8-0.3-1.2zm-158.9 4.7c0 3 0.2 4.7 0.7 5.6 0.5 0.8 0.7 0.9 0.5 0.3-0.3-0.6-0.6-3.1-0.8-5.6l-0.3-4.5zm-58.6-2.1c-0.1 0.6 0.3 1.5 0.7 2.1 0.4 0.6 0.8 0.8 0.8 0.5 0-0.3-0.2-0.8-0.5-1.1-0.2-0.3-0.6-1-0.7-1.5-0.3-1.1-0.3-1.1-0.3 0zm-9.9 2.2c2.4 0.6 3.3 3.2 1.4 4.4-0.8 0.6-0.8 0.6 0.1 0.3 0.5-0.2 1.1-0.3 1.2-0.3 0.1 0 0.2-0.7 0.2-1.5 0-1.9-1.2-3.3-2.8-3.2-1.1 0-1.1 0.1-0.1 0.3zm-6.9 1.9c-1.2 0.6-1.9 1.4-1.9 2.2 0 0.3 0.3 0.1 0.6-0.4 0.3-0.5 1.3-1.3 2.2-1.7 1-0.4 1.4-0.7 0.9-0.7-0.4 0-1.3 0.2-1.8 0.6zm224.4 2.6c-0.9 2.5-0.8 3.2 0.2 1 0.4-1 0.7-2 0.6-2.3-0.1-0.2-0.4 0.4-0.8 1.3zm-225.8 0.9c0 0.5 2.1 2.5 2.3 2.2 0.1-0.2-0.4-0.8-1.1-1.4-0.6-0.7-1.2-1-1.2-0.8zm-11.6 0.6c-0.6 0.3-0.3 0.4 1 0.4 1.4-0.1 1.9 0.1 2.5 1.2 0.3 0.7 0.7 1 0.7 0.6 0-2.2-2.3-3.4-4.2-2.2zm-4.1 1.3c-2 1-1.1 1 1.4 0 1-0.4 1.5-0.7 1-0.7-0.4 0-1.5 0.3-2.4 0.7zm247.7 0.2c-0.6 0.8-0.5 0.8 0.1 0.2 1.8-1.6 4.6 0.1 4 2.5-0.2 1.1-0.2 1.2 0.2 0.6 1.8-2.6-2.3-5.9-4.3-3.3zm-153.7-0.1c0 0.9 3.7 5 5.3 5.8 2.2 1.1 2 0.6-0.3-0.7-1-0.6-2.5-2.1-3.4-3.3-0.9-1.3-1.6-2.1-1.6-1.8zm-86.3 2.2c0 0.3-0.5 0.8-1.2 1.1-0.8 0.4-0.9 0.6-0.3 0.6 1 0 2.4-1.4 1.9-1.9-0.2-0.2-0.4-0.1-0.4 0.2zm32.5 2.3c-0.9 0.8-1.1 1.5-0.8 2.5 0.5 2.1 1.1 2.2 6.4 2.1l4.8-0.1-5-0.1c-5.6-0.2-7.3-1.5-5.1-3.9 1.3-1.5 8.9-1.6 9.8-0.1 0.3 0.5 0.5 0.6 0.5 0.3 0.1-2.1-8.6-2.7-10.6-0.7zm-38.3 0.3c-1 0.3-1.5 0.7-1 0.7 0.5 0 1.7-0.3 2.7-0.8 2.2-0.9 0.8-0.9-1.7 0.1zm-17.6 0.5q-1.3 0.8-0.2 0.5c0.5-0.3 2-0.6 3.1-0.8l2.2-0.4-1.9-0.1c-1 0-2.5 0.4-3.2 0.8zm44.2-0.4c3.2 0.6 3.4 3.9 0.4 4.8-1.6 0.5-1.6 0.5-0.4 0.6 1.9 0 3.4-1.7 2.9-3.3-0.6-2-1.3-2.5-3.1-2.5l-1.7 0.1zm31.6-0.1c-0.4 0.1-0.7 0.6-0.7 1.1 0 0.8 0.1 0.8 0.7 0 0.4-0.5 1.5-1 2.5-1.1l1.9-0.2h-1.9c-1-0.1-2.1 0-2.5 0.2zm-36.9 0.7c-1 0.3-1.1 0.4-0.2 0.4 0.6 0 1.6-0.2 2.4-0.4 1-0.3 1.1-0.4 0.2-0.4-0.5 0-1.6 0.2-2.4 0.4zm42.6 0c1.8 0.6 3.2 0.6 1.9 0-0.6-0.3-1.6-0.5-2.1-0.4-0.9 0-0.8 0.1 0.2 0.4zm-45.4 0.9c-0.7 0.7-0.3 3.2 0.6 4 0.8 0.6 0.8 0.6 0.2-0.2-0.4-0.6-0.6-1.7-0.5-2.6 0.3-1.7 0.2-1.7-0.3-1.2zm224.5 1.5c-0.2 0.8-0.1 1.6 0.1 1.9 0.3 0.3 0.5-0.2 0.5-1.4 0-2.2-0.2-2.3-0.6-0.5zm-266.2-0.1c-0.6 0.6 0.1 3.5 0.7 2.9 0.2-0.2 0-0.8-0.3-1.4-0.5-0.9-0.4-1.2 0.4-1.6 0.5-0.3 0.6-0.6 0.3-0.6-0.3 0-0.8 0.3-1.1 0.7zm27.5 1.4c-0.7 0.5-0.7 0.5 0 0.5 0.5 0 1.2-0.2 1.6-0.5 0.7-0.4 0.7-0.5 0-0.5-0.4 0-1.1 0.2-1.6 0.5zm54 0.2c0.6 0.5 1.5 0.9 2.1 0.8 0.9 0 0.9-0.1-0.3-0.4-0.8-0.3-1.7-0.6-2.1-0.8-0.4-0.2-0.3 0 0.3 0.4zm18.5 1c-0.5 1.8 0 3.1 1.2 3q0.5 0-0.1-0.3c-0.8-0.3-0.9-2.9 0-3.8 0.5-0.5 0.5-0.6 0-0.6-0.4 0-0.8 0.8-1.1 1.7zm-76.8 0.5c-0.7 0.6-1 0.9-0.6 0.7 3-1.5 3.5-1.8 2.7-1.8-0.5 0-1.4 0.5-2.1 1.1zm85.6-0.3c2.2 0.9 2.6 2 1.5 3.7-1 1.5-0.5 1.8 0.6 0.4 1.6-2.1-0.3-5-3.1-4.9-0.4 0 0.1 0.3 1 0.8zm-119.3 0c-0.3 0.1-1.6 0.4-2.9 0.8-1.3 0.3-2.2 0.7-2 0.8 0.1 0.2 1.6-0.1 3.3-0.6 2.9-0.9 3.1-0.9 3.8 0.1 0.4 0.5 0.7 0.7 0.7 0.4 0-1.2-1.5-2-2.9-1.5zm56 0.1c0.6 0.1 1.6 0.1 2.1 0 0.5-0.2 0-0.3-1.2-0.3-1.2 0-1.6 0.1-0.9 0.3zm40.4 0c0.7 0.1 1.7 0.1 2.2 0 0.5-0.2-0.1-0.3-1.2-0.3-1.2 0-1.6 0.1-1 0.3zm-82.6 0.7c-1 0.4-1 0.4 0.1 0.4 0.6 0.1 1.3-0.2 1.5-0.4q0.6-1-1.6 0zm30.1 0.2c0 0.5-1 1.3-2.3 1.9-1.2 0.6-1.9 1-1.5 1 1.3 0 4.3-2 4.3-2.9 0-0.4-0.1-0.8-0.3-0.8-0.1 0-0.2 0.4-0.2 0.8zm224.5 0c-0.2 0.6-0.5 1.6-0.7 2.1-0.2 0.6 0 0.4 0.5-0.4 0.5-0.8 0.8-1.8 0.7-2.1-0.1-0.3-0.4-0.1-0.5 0.4zm-275.9 1.7c-0.9 0.9-1.1 2.6-0.2 3.1 0.3 0.2 0.4-0.1 0.2-1-0.3-0.9-0.1-1.5 0.9-2.1 0.7-0.5 0.9-0.9 0.6-0.9-0.3 0-1 0.4-1.5 0.9zm40.2-0.5c0 1.1 0.6 2.3 1.8 2.9l1.1 0.6-1.1-1.3c-0.6-0.7-1.3-1.6-1.4-2.1-0.2-0.4-0.3-0.5-0.4-0.1zm-30.1 1.3c-0.6 1.4-7.3 3.8-9 3.3-0.9-0.2-1-0.2-0.4 0.4 1.1 1.1 9.4-1.7 10-3.4 0.4-1.4 0-1.6-0.6-0.3zm145.4-0.4c0.5 0.5 1.2 0.8 1.5 0.8 0.3 0 0.1-0.3-0.5-0.8-0.5-0.4-1.3-0.8-1.5-0.8-0.3 0-0.1 0.4 0.5 0.8zm-35.2 0.3c0.2 0.3 0.9 0.5 1.5 0.5 1.1 0 1.1 0 0.1-0.5q-2.2-0.9-1.6 0zm-93.2 1.8c-4.8 2.1-6.7 3.8-5.1 4.8 0.3 0.2 0.4-0.1 0.2-0.7-0.3-1.4 7.1-5.1 8.9-4.6 1.4 0.5 2 2.7 1 3.9-0.6 0.8-0.6 0.9 0.2 0.2 3.6-2.8-0.6-5.7-5.2-3.6zm16.8-0.7c-0.7 0.4-0.7 0.5 0 0.5 0.5 0 1.2-0.2 1.6-0.5 0.7-0.5 0.7-0.5 0-0.5-0.4 0-1.1 0.2-1.6 0.5zm93.4 0c-0.2 0.3-0.2 0.7 0 0.9 0.2 0.2 0.3 0 0.3-0.4 0-0.5 0.5-0.6 2-0.3 1.4 0.2 1.7 0.1 1.2-0.2-1.1-0.7-3.1-0.7-3.5 0zm-0.8 1.8c-1.3 1.2 4.5 5.7 7.2 5.6 0.3 0-1-0.8-2.9-1.7-2.4-1.2-3.5-2.1-3.7-3-0.2-0.7-0.5-1.1-0.6-0.9zm26.1 0.5c0 0.4 3.9 2.5 4.1 2.3 0.1-0.1-0.6-0.7-1.7-1.4-1.9-1.1-2.4-1.3-2.4-0.9zm-16.1 0.7c0.9 0.3 0.9 3 0 3.8q-0.6 0.6 0 0.6c1 0 2-3.1 1.2-4-0.4-0.4-0.9-0.7-1.3-0.7q-0.5 0 0.1 0.3zm134 1.4c-0.4 0.6-0.8 1.5-0.8 1.9 0 0.5 0.4 0.1 0.8-0.9 1.5-3.3 4.9-1.8 4.3 1.9-0.2 1.4-0.2 1.8 0.2 1.2 0.3-0.4 0.6-1.5 0.6-2.3 0-2.8-3.5-4.1-5.1-1.8zm-299.7 0.6c-0.2 0.4-0.1 1.2 0.2 1.7 0.5 0.8 0.6 0.7 0.5-0.7 0-1.9-0.3-2.2-0.7-1zm48.2 0.6c-0.7 0.4-1.1 0.7-0.8 0.7 0.3 0 1.1-0.3 1.9-0.7 0.7-0.5 1.1-0.8 0.8-0.8-0.3 0-1.2 0.3-1.9 0.8zm-43.8 2.4c-0.6 0.3-1.6 0.5-2.3 0.4-0.7-0.2-1.1-0.1-0.9 0.2 0.4 0.6 2 0.5 4-0.4 1-0.4 1.4-0.7 1-0.7-0.5 0-1.3 0.2-1.8 0.5zm293.5 1c-0.9 2.7-0.7 4.7 0.4 5.3 2.5 1.4 4.4 0.1 5.1-3.4q0.3-1.6-0.6 0.7c-0.9 2.5-1.6 3-3.6 2.5-1.5-0.3-1.9-2.6-0.8-4.6 0.3-0.6 0.5-1.3 0.4-1.7-0.1-0.3-0.5 0.2-0.9 1.2zm-311.4-0.2c-1.7 0.9-1.4 0.9 1.3 0 1.2-0.4 1.7-0.8 1.1-0.8-0.6 0-1.7 0.3-2.4 0.8zm44.7 0.3c-0.7 0.4-0.6 0.5 0.3 0.2 0.7-0.2 1.5 0 2 0.5 1.6 1.6 1 2.8-2.1 4.9-1.6 1.1-2.9 2-2.9 2.2 0 0.1 0.7-0.2 1.5-0.7 0.8-0.5 2-1.3 2.8-1.8 2.4-1.5 2.8-3.1 1-4.8-1.2-1.3-1.5-1.3-2.6-0.5zm143.1 0.3c-0.7 0.8-0.6 0.8 0.5 0.2 0.6-0.3 1.5-0.5 1.8-0.3q0.5 0.4 0.2-0.2c-0.5-0.9-1.7-0.8-2.5 0.3zm19.2-0.1c0 0.1 1 0.9 2.1 1.9 1.2 0.9 2.2 1.4 2.2 1.2-0.1-0.4-4.3-3.6-4.3-3.1zm-211.2 1.4c-2 2.1 0.7 5.6 3.3 4.2 1.1-0.5 1.1-0.6-0.3-0.3-2.7 0.5-4.2-2.6-1.9-4.2 0.6-0.5 0.9-0.8 0.5-0.8-0.3 0-1.1 0.5-1.6 1.1zm9.9 0.4c-0.2 1.3-0.1 1.5 0.5 1 0.8-0.6 0.9-1.8 0.2-2.2-0.2-0.2-0.6 0.4-0.7 1.2zm185.4-1.3c0 0.1 1 0.8 2.3 1.6 3.2 1.8 4 2.7 3.7 4-0.5 2-2.1 2.4-4.3 1.1-1.1-0.7-1.7-0.8-1.3-0.4 2.6 3.1 7.7 1 5.9-2.4-0.6-1.1-6.3-4.7-6.3-3.9zm111.8 3.5c-0.3 1-0.6 2-0.6 2.3 0.1 0.3 0.4-0.3 0.8-1.5 0.5-1.1 0.7-2.1 0.6-2.3-0.1-0.1-0.5 0.6-0.8 1.5zm-264.9 0c-1 1.1-1 1.1 0 2.9 0.9 1.7 3.5 2.8 3.5 1.4 0-0.2-0.5-0.4-1.2-0.4-1.9 0.1-3.1-2.5-1.8-3.9 0.6-0.6 0.9-1.1 0.8-1.1-0.2 0-0.8 0.5-1.3 1.1zm-36.2 0.3c-0.8 0.4-1.2 0.7-0.8 0.7 0.5 0 1.4-0.3 2.2-0.8 1.6-0.9 0.7-0.9-1.4 0.1zm212.1 1c0 0.2 0.8 1 1.8 1.8 0.9 0.8 2.9 2.5 4.3 3.8 1.5 1.3 2.4 2.1 2.2 1.7-0.7-1.2-8.3-7.9-8.3-7.3zm87.6 2.9c-0.2 0.7-0.2 1.3-0.1 1.5 0.1 0.1 0.4-0.3 0.6-0.9 0.2-0.7 0.3-1.3 0.1-1.4-0.1-0.2-0.4 0.2-0.6 0.8zm-93.9 4.2c1.3 1.2 2.4 2 2.5 1.9 0.3-0.2-2.8-2.9-4.1-3.6-0.5-0.2 0.2 0.5 1.6 1.7zm92.6-0.1c-0.4 1-0.5 2-0.4 2.1 0.1 0.2 0.5-0.6 0.9-1.6 0.8-2.6 0.4-3-0.5-0.5zm-275.2 1.6c-1.8 1.6-3.2 3.2-3.2 3.4 0 0.2 1.1-0.7 2.5-2.1 1.4-1.4 3.1-2.9 3.9-3.4 0.7-0.5 1-0.9 0.7-0.9-0.4 0-2.1 1.3-3.9 3zm6-2.2c0.5 0.7 0.9 1.5 0.9 2 0 1.3-6.5 6.9-7.6 6.6-0.5-0.1-0.8 0-0.6 0.3 0.5 0.8 1.7 0.2 5.3-2.8 3.7-3.2 4.2-4.5 2.2-6.1-1.2-1.1-1.2-1.1-0.2 0zm172.2 0.4q-0.8 1.2-0.4 2.4c0.6 1.6 0.9 1.5 0.6-0.2-0.1-0.8 0.1-1.7 0.7-2.4 0.5-0.5 0.7-1 0.4-1-0.3 0-0.9 0.5-1.3 1.2zm104.2 1.4c-0.1 0.2 0.4 0.3 1.3 0.2 0.9-0.2 1.6-0.3 1.6-0.5 0-0.4-2.6-0.2-2.9 0.3zm3.7 0.4c0.4 0.3 0.8 0.9 0.9 1.5 0.3 0.9 0.3 0.8 0.2-0.2 0-0.7-0.4-1.4-0.9-1.5q-0.7-0.2-0.2 0.2zm-99.4 1.8c1.5 1.8 1.5 2-0.3 3.8-1.7 1.9-1.2 2 0.7 0.2 1.7-1.8 1.7-2.5-0.2-4l-1.4-1.3zm94.4 1.1c-0.9 2.5-0.7 3.2 0.2 1 0.5-1 0.7-2 0.7-2.3-0.1-0.3-0.5 0.3-0.9 1.3zm-99 1.8c1.1 1.1 2.1 1.9 2.2 1.8 0.1-0.1-0.8-1.1-2-2.1l-2.1-1.8zm103.7 0c-0.4 1.1-0.6 2-0.4 2.2 0.1 0.1 0.5-0.6 0.9-1.7 0.8-2.5 0.4-2.9-0.5-0.5zm-82.7 1c0.5 0.8 1.1 1.4 1.4 1.4 0.2 0 0-0.6-0.6-1.3-0.5-0.8-1.1-1.4-1.4-1.4-0.2 0 0.1 0.6 0.6 1.3zm69.7-0.5c-0.1 0.6-0.4 1.6-0.6 2.1-0.2 0.6 0 0.4 0.5-0.4 0.5-0.8 0.8-1.8 0.7-2.1-0.2-0.3-0.4-0.1-0.6 0.4zm6.7 2.2c-0.8 2.2 2.8 4.3 4.6 2.6 0.6-0.5 1.1-1.2 1.1-1.5 0-0.3-0.4-0.1-0.8 0.6-1.5 2.1-5 0.8-4.2-1.5 0.4-1.3-0.2-1.4-0.7-0.2zm-73.1 2.3c0.9 1.4 2.4 3.3 3.3 4.3l1.6 1.9-1.6-2.4c-1-1.3-2.4-3.3-3.3-4.3l-1.7-1.9zm-219 2.6c-5.1 5.7-4.9 5.3-3.4 7.1l1.1 1.3-0.8-1.4c-1.2-2 4.2-9.1 6.3-8.3 0.5 0.2 0.8 0.1 0.6-0.2-0.7-1-2-0.5-3.8 1.5zm205.4-1c-1.7 1.4-1.5 2.5 0.9 5.2 1.2 1.2 2.1 2.1 2.1 1.9 0-0.1-0.8-1.2-1.8-2.3-3.1-3.5-0.9-7.2 2.6-4.4 1.1 1 1.1 1 0.1-0.2-1.3-1.5-2.3-1.5-3.9-0.2zm-200.4 1.5c0.2 1.7-3.6 6.7-5.8 7.5-0.7 0.3-0.9 0.6-0.5 0.6 2.7 0.1 8.4-8 6.5-9.2-0.2-0.2-0.3 0.3-0.2 1.1zm206.8 2.2c2 2.1 2.4 3.6 1.3 4.9-0.6 0.6-0.5 0.6 0.2 0 1.7-1.2-0.9-7-3.1-7-0.2 0 0.5 0.9 1.6 2.1zm76.4 4.4c-0.3 0.6-0.5 1.3-0.4 1.6 0.1 0.3 0.5-0.2 0.8-1.1 0.7-1.9 0.5-2.2-0.4-0.5zm4.2-0.5c0.5 0.6 0.6 1.5 0.4 2.4-0.2 1.1-0.2 1.3 0.2 0.7 0.8-1.2 0.7-2.5-0.3-3.3-0.9-0.6-0.9-0.6-0.3 0.2zm-12.5 2.7c-0.6 1.6-0.6 1.6 0.1 0.7 0.7-0.9 1.1-2.4 0.7-2.4-0.1 0-0.5 0.7-0.8 1.7zm-50.7 3.2c0 0.4 2.1 4.1 2.4 4.1 0.2 0-0.1-0.6-0.5-1.5-1.1-2-1.9-3.1-1.9-2.6zm56.8 1.3c-0.4 1.4 0.9 3.4 2.2 3.3 0.7 0 0.7-0.1-0.2-0.4-0.7-0.3-1.2-1.1-1.3-2.3-0.3-1.5-0.4-1.6-0.7-0.6zm-297.1 0.5c-0.5 0.4-1.1 1.3-1.4 2-0.4 0.6 0.1 0.3 1-0.7 2.6-3.1 5.6-0.9 3.8 2.8-0.5 1.1-0.5 1.1 0.3 0.1 2.2-2.8-1.2-6.7-3.7-4.2zm231.2 0c0.8 0.4 2.1 2 2.9 3.4 0.9 1.4 1.7 2.5 1.8 2.4 0.4-0.4-3.2-5.6-4.2-6.2-1.5-0.8-1.9-0.5-0.5 0.4zm-3.1 0.7c-0.9 1.5-0.8 1.8 1.6 5.4 2.2 3.5 2.9 4.2 4.2 4.1 0.4 0 0.2-0.2-0.5-0.5-2.7-1-5.9-7.5-4.5-9.1 0.5-0.5 0.6-1 0.3-1-0.3 0-0.8 0.5-1.1 1.1zm73.9 0.2c0 0.4-0.4 1.1-0.9 1.4-0.9 0.5-0.9 0.5 0 0.5 0.8 0 1.8-1.9 1.2-2.5-0.1-0.2-0.3 0.1-0.3 0.6zm-13.4 0.6c-0.2 0.6-0.5 1.6-0.7 2.1-0.2 0.6 0.1 0.4 0.5-0.4 0.5-0.8 0.8-1.8 0.7-2.1-0.1-0.3-0.3-0.2-0.5 0.4zm-292.5 4.1c-1.7 1.7 0 4.8 2.7 4.7 0.3 0-0.1-0.4-1.1-0.8-1.8-0.8-2.3-2.6-1.1-3.9 0.4-0.3 0.5-0.6 0.4-0.6-0.2 0-0.6 0.3-0.9 0.6zm5.3 1.4c-1.6 2.3-1.9 3-1.3 2.6 0.6-0.4 2.9-4.1 2.5-4.1-0.1 0-0.6 0.7-1.2 1.5zm235 0c0.1 0.1-0.2 0.9-0.7 1.7l-0.9 1.3 1.3-1.2q1.2-1.2 0.6-1.6c-0.3-0.3-0.4-0.4-0.3-0.2zm56.9 4.9c-0.5 0.8-0.8 1.8-0.8 2.2 0 0.4 0.4-0.2 0.8-1.3 1.1-2.7 4.2-2.6 5.2 0.2 0.2 0.6 0.3 0.6 0.3-0.1 0.1-2.6-4.3-3.4-5.5-1zm-9.1 2.7c-0.2 0.6-0.3 1.2-0.1 1.4 0.1 0.1 0.4-0.3 0.6-0.9 0.2-0.6 0.3-1.3 0.1-1.4-0.1-0.2-0.4 0.2-0.6 0.9zm12.8 2.6c-2 6.5-6.4 5.7-4.9-0.8 0.4-1.5 0.4-1.5-0.4 0.2-1.6 3.3 0 6 3.1 5.2 1.2-0.3 4.1-6.8 3.4-7.6-0.2-0.1-0.7 1.3-1.2 3zm-307.1 0.1c-0.5 0.7-0.8 1.5-0.8 1.8 0 0.3 0.4-0.2 0.8-1 1.3-2.4 4.9-1 4.2 1.6-0.2 0.9-0.1 1.2 0.3 1 0.7-0.5 0.6-2.7-0.2-3.4-1.5-1.3-3.4-1.3-4.3 0zm252.1 0.6c0.7 0.9 1.6 2.5 2 3.5 0.4 0.9 0.8 1.6 0.9 1.5 0.4-0.4-2.6-6.1-3.4-6.4-0.4-0.2-0.2 0.4 0.5 1.4zm-3.8-0.5c-0.4 0.5-0.6 1.4-0.4 2 0.2 1.2 0.2 1.1 0.3-0.2 0-0.8 0.5-1.6 1-1.9 0.5-0.3 0.6-0.6 0.3-0.6-0.3 0-0.9 0.3-1.2 0.7zm44.8 1c-0.9 2.5-0.8 3.2 0.2 1 0.4-1 0.7-2.1 0.6-2.3-0.1-0.3-0.5 0.3-0.8 1.3zm-1.5 4.1c-0.2 0.7-0.2 1.3-0.1 1.4 0.2 0.2 0.5-0.2 0.7-0.8 0.2-0.7 0.2-1.3 0.1-1.4-0.2-0.2-0.5 0.2-0.7 0.8zm-36.2 2.7c0 0.8 0.2 1.4 0.4 1.2 0.6-0.3 0.5-2.1 0-2.5-0.3-0.1-0.5 0.4-0.4 1.3zm-254.1 1.1c-0.5 0.8-1 1.1-1.9 0.9-0.7-0.1-1.2 0-1 0.2 0.5 0.8 2.2 0.5 3.2-0.6 0.5-0.6 0.8-1.2 0.6-1.4-0.2-0.2-0.6 0.2-0.9 0.9zm249.1-0.7c0 1.6 2.2 2.7 3.7 1.7 0.6-0.4 0.5-0.5-0.6-0.2-1.1 0.2-1.6 0-2.3-0.9-0.4-0.7-0.8-1-0.8-0.6zm15.7 3.8c0.7 1.2 1.9 2.3 3.4 3.4 2.4 1.7 2.4 1 0-0.8-1.3-0.9-2.7-2.1-3.1-2.5-0.7-0.7-0.7-0.7-0.3-0.1zm32 0.1c-0.5 0.3-0.9 0.8-0.9 1.1 0 0.3 0.5 0.2 1.1-0.3 0.7-0.4 1.5-0.6 2-0.4q0.8 0.3 0.4-0.4-0.7-1.1-2.6 0zm3.8 2.2c0.3 1.5 0.4 1.6 0.5 0.5 0.1-0.7 0-1.5-0.3-1.8-0.3-0.3-0.3 0.2-0.2 1.3zm-29.2 2.5c0.5 0.3 1.3 0.6 1.9 0.6 1.3 0 0.9-0.3-1.1-0.8-1.1-0.2-1.3-0.2-0.8 0.2zm28.7 0.3c-0.2 0.6-0.5 1.6-0.7 2.1-0.2 0.6 0 0.4 0.5-0.4 0.5-0.8 0.8-1.8 0.7-2.1-0.1-0.3-0.4-0.2-0.5 0.4zm-44.1 0.3c-0.6 0.4-0.6 0.5 0.4 0.5 0.6 0 1.5 0.5 2 1.2 0.8 1 0.9 1.1 0.7 0.2-0.2-1.4-2.1-2.5-3.1-1.9zm-2 1.1c-0.8 0.8-0.8 2.1-0.1 3.1 0.4 0.6 0.4 0.5 0.2-0.6-0.2-0.9-0.1-1.8 0.3-2.3 0.8-0.9 0.5-1.1-0.4-0.2zm39.6 1.8c-0.1 0.4 0 1.1 0.4 1.6 0.6 0.8 0.7 0.8 0.4-0.7-0.2-1.9-0.4-2-0.8-0.9zm-34.4 0.8c0 0.4 0.4 1.8 0.8 2.9 0.4 1.2 0.7 1.7 0.7 1.1 0-1.3-1.4-5.1-1.5-4zm39.2 0.7c-0.1 0.4-1 0.9-1.8 1-1.4 0.3-1.4 0.3-0.1 0.3 1.6 0.1 2.8-0.6 2.5-1.5-0.2-0.5-0.3-0.5-0.6 0.2zm-43.4 3.5c-0.2 2.4 3.3 5.1 4.5 3.3 0.2-0.4-0.3-0.4-1.3-0.3-1.3 0.3-1.6 0.2-2.3-1.7-0.5-1.1-0.9-1.7-0.9-1.3zm35.2 6c-1.1 1.1-0.7 1.7 0.4 0.7 1.9-1.7 5 0.3 3.7 2.5-0.3 0.4-0.5 1.1-0.5 1.5 0 0.4 0.3 0.1 0.7-0.8 1.4-3.1-2-6.2-4.3-3.9zm-31.2 5.6c-0.1 0.3 0.7 0.4 1.8 0.3 1.5-0.2 2.1 0 2.3 0.6 0.2 0.7 0.2 0.7 0.2-0.1-0.1-1-3.7-1.7-4.3-0.8zm34 1.8c-0.2 0.6-0.3 1.2-0.1 1.4 0.1 0.1 0.4-0.3 0.6-0.9 0.2-0.6 0.3-1.3 0.1-1.4-0.1-0.2-0.4 0.2-0.6 0.9zm-5.5 1.1c-0.1 2.1 4.2 3.7 4.9 1.8 0.2-0.7 0.1-0.7-0.7-0.2-1.4 0.9-3.6-0.1-3.9-1.8-0.2-1.1-0.3-1.1-0.3 0.2zm-24 1c0 0.4 0.2 1.4 0.5 2.1l0.4 1.4 0.1-1.4c0-0.7-0.2-1.7-0.5-2.1-0.5-0.7-0.5-0.7-0.5 0zm-4.8 2.4c0 0.9 0.2 2.1 0.5 2.7q0.5 1 0.2-1.4c-0.4-2.8-0.8-3.5-0.7-1.3zm1.5 4.7c0.2 0.2 1.1 0.3 2 0.2 1.4-0.1 1.4-0.2-0.5-0.4-1.1-0.2-1.8-0.1-1.5 0.2zm23.7 2.5c-0.5 0.9 0 1 1.1 0.2 0.8-0.6 0.9-0.8 0.1-0.8-0.4 0-1 0.3-1.2 0.6zm4.5 1.7c0.2 1.5 0.3 1.5 0.5 0.5 0.1-0.7 0-1.5-0.3-1.8-0.3-0.3-0.4 0.2-0.2 1.3zm-5.5 0.9c-0.2 0.7-0.3 1.3-0.1 1.4 0.1 0.2 0.4-0.2 0.6-0.8 0.2-0.7 0.3-1.3 0.1-1.4-0.1-0.2-0.4 0.2-0.6 0.8zm5.1 1.5c0 0.3-0.2 1-0.4 1.6-0.3 0.7-0.2 0.8 0.3 0.3 0.4-0.3 0.6-1 0.4-1.6-0.1-0.5-0.3-0.7-0.3-0.3zm-6.3 2.6c-0.8 2.8 1.7 6 3.4 4.3 0.2-0.2-0.1-0.4-0.7-0.4-1.8 0-3.1-1.8-2.3-3.2 0.3-0.6 0.5-1.5 0.4-1.9-0.1-0.4-0.4 0.1-0.8 1.2zm-21.8 5.4c0.1 4.8 0.5 5.4 3 5.4 1.5 0 2.7-0.8 2.7-1.8 0-0.3-0.3-0.1-0.6 0.4-1.8 3.1-4.4 0.8-4.8-4.4l-0.4-4zm5.8-0.4c0 1 0.1 1.4 0.3 0.9 0.1-0.5 0.1-1.3 0-1.9-0.2-0.5-0.3-0.1-0.3 1zm12.4 7.2c-0.4 0.5-0.8 1.1-0.8 1.4 0 0.4 0.4 0.1 0.8-0.5 1.5-2.1 5-0.6 4.2 1.8-0.2 0.8-0.2 0.8 0.3 0.2 1.6-2.3-2.4-5-4.5-2.9zm-1.8 4.2c-0.3 0.8-0.6 1.8-0.6 2.3 0 0.5 0.4 0 0.8-1.2 0.9-2.4 0.8-3.1-0.2-1.1zm5.2 1.1c-0.2 0.6-0.5 1.5-0.7 2.1-0.2 0.6 0 0.4 0.5-0.4 0.5-0.8 0.8-1.8 0.7-2.1-0.2-0.4-0.4-0.2-0.5 0.4zm-6.3 3.2c0 1.3 0.9 2.4 2.1 2.3q0.9 0-0.2-0.4c-0.6-0.2-1.3-1-1.5-1.7-0.3-1.1-0.3-1.1-0.4-0.2zm-16.2 0.9c-0.2 0.7-0.3 1.8-0.3 2.5 0.1 0.8 0.3 0.4 0.6-1 0.4-2.5 0.3-3.6-0.3-1.5zm5.1 2c-0.1 0.4-0.2 1.4-0.4 2.1-0.3 1.2-0.2 1.2 0.3 0.4 0.3-0.5 0.5-1.5 0.4-2.1-0.2-0.7-0.3-0.8-0.3-0.4zm-1.5 5.7c-0.5 0.8-0.8 0.9-2.3 0.3-1.5-0.5-1.6-0.5-1.1 0.2 0.9 1 3.5 0.9 4-0.2 0.4-1.2 0.1-1.3-0.6-0.3zm8.6 3c-0.4 1-0.8 2.2-0.8 2.6 0.1 0.4 0.4-0.1 0.7-1.1 1.3-3.5 5.7-3.6 5-0.2-0.9 3.7-0.9 3.9 0 1.6 1.5-4.4-2.9-7-4.9-2.9zm-15.7 7.9c-0.6 1.3-1 2.8-1 3.4q0 1 0.3 0.2c1.8-5.6 3-6.6 5.2-4.5 0.4 0.5 0.8 0.7 0.8 0.4 0-2.7-4.1-2.3-5.3 0.5zm18.7-0.4c-0.9 2.6-4.1 2.5-5-0.2-0.3-0.7-0.3-0.7-0.4 0.1 0 1.1 2 2.5 3.6 2.5 1.2 0 3-2.6 2.7-3.8-0.1-0.3-0.5 0.4-0.9 1.4zm-14.4 3.8c-0.4 1.3-0.6 2.5-0.5 2.7 0.2 0.1 0.6-0.9 1-2.2 0.3-1.3 0.6-2.5 0.4-2.7-0.1-0.1-0.5 0.9-0.9 2.2zm-6.2 2.7c-0.4 1.5 1.1 3.4 2.8 3.4 1.3 0 2.8-1.1 2.8-2 0-0.7-0.2-0.7-0.8 0.3-1.5 2.1-5.1 0.5-4.3-2 0.2-0.6 0.3-1.1 0.1-1.1-0.2 0-0.5 0.6-0.6 1.4zm12.1 4c-0.3 0.4-0.6 1-0.6 1.5q0 0.8 0.5-0.3c0.2-0.5 1.1-1.2 1.9-1.4 1.5-0.3 1.5-0.3 0.2-0.4-0.7 0-1.6 0.3-2 0.6zm4.1 0.7c0.4 0.4 0.5 1.3 0.4 2l-0.3 1.2 0.6-1.2c0.6-1.2 0.3-2.8-0.7-2.8-0.4 0-0.4 0.2 0 0.8zm-0.4 3.8c0 0.4-0.2 1.1-0.4 1.6-0.3 0.8-0.2 0.9 0.3 0.4 0.4-0.3 0.5-1.1 0.4-1.6-0.1-0.5-0.3-0.7-0.3-0.4zm-20.3 3.9c-1.4 2.9-1.3 3.5 0.2 0.8 1.7-3.1 5.7-2.8 4.9 0.5-0.3 1-0.2 1 0.3-0.1 0.6-1.1 0.5-1.4-0.6-2.3-2-1.7-3.6-1.3-4.8 1.1zm14-0.7c-0.4 1.6 1.1 3.4 2.8 3.4 1.3 0 2.9-1.8 2.8-3.2 0-0.4-0.2-0.2-0.5 0.6-1.1 2.9-5.1 2.3-4.5-0.7 0.3-1.9-0.1-2-0.6-0.1zm-262 2.1c0 0.3 0.3 1.1 0.8 1.8 0.4 0.8 0.7 1.1 0.7 0.8 0-0.3-0.3-1.1-0.7-1.8-0.5-0.8-0.8-1.1-0.8-0.8zm251 4.3c-1.3 2.7-1.6 2.9-3 2.7-0.8-0.1-1.4 0-1.3 0.2 1 1.6 3.2 0.4 4.7-2.5 0.8-1.7 1.4-3.1 1.3-3.2-0.2-0.1-0.9 1.2-1.7 2.8zm-5.1-1.2c-0.4 0.7-0.6 1.7-0.4 2.2 0.2 0.8 0.3 0.7 0.3-0.3 0-0.8 0.4-1.6 0.7-2 0.3-0.3 0.5-0.7 0.4-0.9-0.2-0.2-0.6 0.3-1 1zm-243.9 1.6c0.4 2.3-2.7 3.4-4.1 1.6-0.6-0.8-1.1-1.2-1.1-0.9 0 0.7 2.1 2.9 2.5 2.7 3.2-1.5 4.5-3.4 2.9-4.4-0.3-0.1-0.4 0.3-0.2 1zm260.1 4.9c0.5 0.5 0.8 1.3 0.6 1.9-0.1 0.5 0 0.8 0.3 0.7 1-0.7 0-3.5-1.3-3.5-0.3 0-0.1 0.4 0.4 0.9zm-5.5 4.2c-0.3 0.8-0.6 1.7-0.6 2 0 0.4 0.4-0.2 0.8-1.1 0.9-2.1 0.7-2.9-0.2-0.9zm-16.7 0.9l-1.2 1 1.3-0.8c1.7-1 3.7 0.1 3.7 2 0.1 0.9 0.2 1 0.5 0.4 1.4-2.1-2.4-4.3-4.3-2.6zm-235.9 0.2c-1.2 1.2-1 2.9 0.5 4.8l1.4 1.6-1.1-1.7c-2.6-4 0.8-7.2 3.7-3.5l1.1 1.4-0.9-1.7c-1.1-2-3.2-2.4-4.7-0.9zm251.4 2.8c0 0.5 2.1 2.5 2.3 2.2 0.1-0.1-0.4-0.8-1-1.4-0.7-0.7-1.3-1-1.3-0.8zm-244.8 2c0 0.3 0.2 0.8 0.5 1 0.3 0.3 0.6 1.2 0.7 1.9l0.3 1.3v-1.3c0.1-0.8-0.2-1.9-0.7-2.4-0.4-0.6-0.8-0.8-0.8-0.5zm225 1.1c-0.7 0.7-0.4 2.2 0.6 2.9 0.8 0.7 0.8 0.7 0.2-0.2-0.4-0.5-0.6-1.4-0.5-2 0.3-1.1 0.2-1.3-0.3-0.7zm5 1.8c-0.7 0.9-1.6 1.6-2.3 1.6-0.9 0-1 0.1-0.5 0.5 1 0.6 2.4-0.3 3.5-2.2 1.2-2 0.8-1.9-0.7 0.1zm-233.9 0.1q1.8 3.1 3.7 1.8c0.9-0.7 0.9-0.7-0.5-0.5-1.2 0.3-1.8 0-2.8-1.2l-1.3-1.5zm244.8 6.7c-0.5 1.2-0.8 2.5-0.8 2.8 0 0.4 0.4-0.4 0.9-1.7 1.1-2.7 3-3.5 4.6-1.9 0.5 0.5 0.8 0.7 0.8 0.4 0-2.6-4.4-2.3-5.5 0.4zm-236.1 1.6c-1.1 2 1.1 6.2 4.5 8.7 1.5 1 0.9 0.1-1.7-2.6-3.1-3.3-3.5-5-1.6-6.3 0.9-0.7 1-0.9 0.3-0.9-0.5 0-1.2 0.5-1.5 1.1zm5.3 1.7c3.3 3.5 3.8 5 2.2 6.4-0.7 0.5-1 1-0.7 1 1.4 0 2.8-2.3 2.1-3.4-0.8-1.7-5.2-6.8-5.8-6.8-0.3 0 0.7 1.3 2.2 2.8zm205.3 0.6c-1.7 1.9-3 3.8-3 4.2 0 0.8 1.6 2.6 2.4 2.6 0.3 0-0.1-0.4-0.7-0.9-1.8-1.2-1.5-2.3 1.9-5.9 1.7-1.9 2.9-3.4 2.7-3.4-0.2 0-1.7 1.6-3.3 3.4zm5.6-2.5c1.4 1.6 1.2 2.4-1 5l-2 2.4 2.3-2.1c2.5-2.4 2.8-3.9 1-5.4-1.2-1-1.2-1-0.3 0.1zm24.5 1.3c-0.4 1.2-0.6 2.3-0.5 2.5 0.4 0.3 1.6-3.5 1.4-4.1-0.1-0.3-0.5 0.4-0.9 1.6zm-6.2 2.1c-0.2 0.6-0.3 1.3-0.1 1.4 0.1 0.2 0.4-0.2 0.6-0.9 0.2-0.6 0.2-1.2 0.1-1.4-0.2-0.1-0.4 0.3-0.6 0.9zm4.6 2.7c-0.6 1.6-0.6 1.7 0.2 0.9 0.5-0.4 0.8-1.2 0.7-1.7-0.2-0.7-0.4-0.4-0.9 0.8zm-4.9 0.1c0 0.5 0.2 1 0.6 1.2 0.9 0.6 1 0.1 0.1-1-0.6-0.9-0.7-0.9-0.7-0.2zm-37.1 9.6c-4.1 3.4-4.5 7.6-0.7 7.8 0.6 0.1 7.3-5.8 7.7-6.7 0.3-0.9-1-3.4-1.9-3.4-0.3 0 0 0.5 0.6 1.2 1.5 1.6 1.4 1.9-1.2 4.3-4.1 3.8-4.9 4.2-6.2 3.2-2-1.4-1.4-3 2.1-6 1.8-1.5 3.1-2.7 2.8-2.6-0.2 0-1.7 1-3.2 2.2zm-176.5 1.4c5.2 4.9 1.1 7.5-4.3 2.7-1.6-1.5-3-2.5-3-2.3 0.1 0.9 6.1 5.5 7.2 5.5 3.5 0 3.7-3.5 0.4-6.1l-2.5-2zm210.3-1.2c-0.7 0.8-0.6 0.9 0.5 0.3 1.8-1 4 0.5 3.6 2.5-0.3 1-0.2 1.2 0.2 0.6 1.8-2.6-2.3-5.8-4.3-3.4zm-2.9 7.9c-0.4 1.4 0 2.4 1 2.4q0.6 0-0.1-0.5-0.8-0.4-0.4-1.8c0.2-0.8 0.2-1.4 0.1-1.4-0.2 0-0.5 0.6-0.6 1.3zm5 1.2c-0.2 0.7-0.9 1.2-1.9 1.4-1.5 0.2-1.5 0.2-0.1 0.3 1.5 0.1 2.8-1.1 2.5-2.2-0.1-0.4-0.4-0.1-0.5 0.5zm-51.8 2.8c-3.1 2-4.5 3.9-3.5 4.6 0.3 0.1 0.5-0.3 0.5-1 0.1-0.9 0.9-1.7 3.6-3.4 2-1.3 3.4-2.3 3.1-2.3-0.3 0.1-2 1-3.7 2.1zm-152.9 0.3c-0.2 0.5 0.1 1.2 0.7 1.8 0.9 0.8 0.9 0.8 0.3-0.1-0.4-0.5-0.6-1.3-0.4-1.7 0.1-0.5 0.2-0.8 0-0.8-0.1 0-0.4 0.4-0.6 0.8zm9 1.3c1.9 1.5 1.9 2.8 0.1 4.2-0.8 0.6-1.1 1.1-0.8 1.1 2.7 0 3.5-4.3 1-5.6l-1.7-0.8zm149.4 0.9l-1.3 1.3 1.4-0.9c0.8-0.5 1.5-1.1 1.5-1.4 0-0.6-0.1-0.6-1.6 1zm-153.6 2.5c0.9 0.7 1.9 1.4 2.1 1.4 0.6 0 0.6 0-1.8-1.6l-1.9-1.2zm150.3-0.2c-1.9 1.1-2.3 1.6-1.7 1.6 0.3 0 1.2-0.6 2.1-1.3 1.8-1.5 1.7-1.7-0.4-0.3zm-5.2 1.1c0 0.4 2 1.3 2.4 0.9 0.1-0.1-0.4-0.4-1.1-0.8-0.7-0.3-1.3-0.4-1.3-0.1zm46.1 1.5c-0.5 0.5-0.9 1.3-0.9 1.7 0.1 0.4 0.4 0.1 0.9-0.7 1.5-2.9 4.8-1.5 4.2 1.8-0.3 1.3-0.2 1.6 0.2 1 2.2-3.1-1.9-6.6-4.4-3.8zm-177.4 0.2c-2 2.4-1.4 5.7 1 5.7 0.3 0-0.2-0.5-1-1.2l-1.4-1.3 1.1-1.9c1.1-2 1.3-2.6 0.3-1.3zm117.1 1.5c-3.9 1.8-4.8 2.7-3.9 4.1 0.5 0.8 0.5 0.8 0.4-0.4-0.3-2.2 8.6-6 9.7-4.2 0.9 1.4 0.5 2.9-0.9 3.8-0.8 0.5-1.2 0.9-0.9 0.9 2 0 3.6-2.4 2.7-4.1-1.2-2.2-2.6-2.2-7.1-0.1zm-109.7 1.3c0.8 0.5 1.7 1.4 2 2 0.3 0.9 0.5 0.9 0.5 0.3 0-0.9-2.4-3.1-3.4-3.1-0.3 0 0.1 0.4 0.9 0.8zm173.2 3.2c-0.2 0.8-0.3 1.5-0.2 1.7 0.2 0.1 0.4-0.4 0.6-1.2 0.2-0.8 0.3-1.5 0.1-1.7-0.1-0.1-0.3 0.4-0.5 1.2z"/>
	</g>
</svg>