<svg version="1.2" xmlns="http://www.w3.org/2000/svg" viewBox="0 0 204 204" width="24" height="24">
	<title>files_by_google-svg</title>
	<style>
		.s0 { fill: #000000;stroke: #000000 } 
		.s1 { opacity: .5;fill: #000000;stroke: #000000 } 
	</style>
	<g id="Folder 1">
		<path class="s0" d="m91.8 20h91.8c11.2 0 20.4 9.2 20.4 20.4v122.4c0 11.2-9.2 20.4-20.4 20.4h-163.2c-11.2 0-20.4-9.2-20.4-20.4v-51h71.4c11.2 0 20.4-9.2 20.4-20.4z"/>
		<path class="s1" d="m0 111.8l91.8-91.8v91.8z"/>
		<path class="s1" d="m20.4 50.6h40.8l-61.2 61.2v-40.8c0-11.2 9.2-20.4 20.4-20.4z"/>
		<path class="s1" d="m91.8 20l-19.7 59.2c-2 6.1-6.8 10.9-12.9 12.9l-59.2 19.7z"/>
		<path class="s1" d="m0 111.8l91.8-91.8v71.4c0 11.2-9.2 20.4-20.4 20.4z"/>
	</g>
</svg>