<svg version="1.2" xmlns="http://www.w3.org/2000/svg" viewBox="0 0 24 24" width="24" height="24">
	<title>firefox-svg</title>
	<style>
		.s0 { fill: #000000 } 
	</style>
	<path class="s0" d="m20.3 5.1c0.8 0.4 1.8 1.7 2.2 2.9 0.8 1.8 1 3.9 0.8 5.9q0 0.2-0.1 0.4c-0.9 5.5-5.6 9.7-11.2 9.7-6.3 0-11.4-5.2-11.4-11.6q0-0.1 0-0.1 0-0.2 0.1-0.4c0-0.3 0-0.5 0-0.7q0-0.1 0.1-0.2c0-0.6 0.1-1.1 0.1-1.1 0.3-1.3 0.8-2.5 1.6-3.5q0.5-0.7 1-1.3 0.6-0.6 1.2-1l0.3-0.2c0 0.4 0 2.3 0.4 2.9 0.7-0.8 1.6-1.6 2.8-2.2-0.3 1-0.3 1.9 0 2.9q0.2 0.1 0.3 0.2c0.2 0.1 0.4 0.3 0.8 0.8 0.8 0.7 2.7 1.5 2.7 1.6 0 0.3-1 1.3-1.3 1.3-3.3 0-3.8 2-3.8 2 0.1 1.7 1.3 3.1 2.7 3.8q0.1 0.1 0.2 0.1 0.1 0.1 0.3 0.2 0.7 0.2 1.5 0.3c5.7 0.2 6.8-7 2.7-9.1 1-0.2 2.1 0.3 2.7 0.7-0.5-0.8-1.1-1.6-2-2.1q0 0-0.1-0.1-0.1 0-0.2-0.1-0.1 0-0.1-0.1-0.2 0-0.3-0.1 0 0-0.1 0-0.1-0.1-0.2-0.1-0.1-0.1-0.3-0.1 0 0-0.1 0-0.8-0.3-1.6-0.3-0.1 0-0.3 0.1c-0.7 0-1.1 0-1.7 0.3l-0.6-1.1q1.1-0.5 2.3-0.6c0.3-1.7 1.3-3.6 3.8-5.1q0 0 0.1 0 0.1 0.3 0.2 0.5 0 0.1 0.1 0.2 0.1 0.3 0.3 0.5c1.8 2.9 3.9 4.2 5.2 7.5v-0.1c-0.1-0.9-0.5-2.2-1.1-3.5z"/>
</svg>