<svg version="1.2" xmlns="http://www.w3.org/2000/svg" viewBox="0 0 36 36" width="36" height="36">
	<title>flipkart-svg</title>
	<style>
		.s0 { fill: #000000 } 
	</style>
	<path id="path_0" fill-rule="evenodd" class="s0" d="m24 35.9q0.4-2.7 0.9-5.4c0.1-0.3 0.2-0.4 0.5-0.4q1.1 0 2.2 0 1.3 0 1.8-1.1 0.5-1.1 0.5-2.4c-0.1-0.8-0.5-1.2-1.3-1.2q-1.1 0-2.2 0-0.3 0-0.5-0.1c0.3-1.3 0.3-2.7 0.9-4 0.7-1.6 2-2.4 3.8-2.5 0.5 0 1.1 0 1.6 0 0.8-0.1 1.2-0.5 1.1-1.3-0.1-0.7-0.3-1.5-0.5-2.2-0.2-0.7-0.8-1.1-1.6-1.1-5.2-0.5-9.7 2.2-11.1 7.4-0.3 1.1-0.5 2.2-0.7 3.3-0.1 0.4-0.2 0.5-0.6 0.5-1.5 0-3-0.1-4.6 0-1.3 0-2.6 0.2-3.9 0.3q-1.3 0.1-2.6 0.4 1.6 0.2 3.2 0.5 0.7 0.1 1.3 0.2c0.7 0.1 0.7 0.1 0.8 0.9q-1.4 0.1-2.9 0.2 0 0.1 0 0.1 1.1 0.1 2.3 0.3 0.2 0.1 0.4 0.1c0.4-0.1 0.6 0.2 0.5 0.7q-2.2 0.1-4.5 0.3-2.3 0.1-4.6 0.2 0 0.1 0 0.1 7 0.3 14.2 0.5-0.1 0.6-0.3 1.3-0.3 2-0.7 3.9c-0.1 0.6-0.1 0.6-0.6 0.6q-7.2 0-14.5 0c-1.5 0-2.4-1-2.4-2.4q0.1-13.1 0-26.2c0-0.6 0-1.3 0.1-1.9 0-0.1 0.1-0.3 0.2-0.4q1-0.7 2-1.3c0.3-0.2 0.4-0.4 0.4-0.7-0.1-0.6 0-1.2 0-1.8-0.1-0.2 0-0.4 0.3-0.5q1-0.4 2-0.7 0.3-0.1 0.5-0.1 12.6 0 25.3 0 0.3 0 0.6 0.1 0.9 0.4 1.8 0.7c0.3 0.1 0.4 0.3 0.4 0.6 0 0.5 0 1.1 0 1.7 0 0.3 0.1 0.5 0.4 0.7 0.6 0.4 1.2 0.9 1.9 1.3 0.2 0.1 0.4 0.3 0.3 0.6q0 0.5 0 0.9 0 13.6 0 27.1c0 1.1-0.5 1.8-1.6 2.2q-0.3 0-0.7 0-4.6 0-9.3 0c-0.2 0-0.4 0-0.5 0zm-5.7-21c1 0 2.1-0.2 3.2-0.5 2.4-0.9 4.1-2.4 4.7-5 0.1-0.7 0.2-1.3 0-1.9-0.1-0.3-0.4-0.3-0.6-0.3-0.3 0-0.4 0.2-0.4 0.4q0 0.6-0.1 1.2c-0.3 1.8-1.2 3.2-2.8 4-2.5 1.3-5 1.4-7.6 0.3-1.8-0.7-3.2-1.9-3.7-3.9-0.1-0.4-0.1-0.9-0.2-1.4 0-0.4-0.3-0.7-0.6-0.6-0.4 0.1-0.5 0.4-0.5 0.7 0 2.1 0.9 3.7 2.5 4.9q2.6 2.2 6.1 2.1zm-6.9-12.1c0-0.5-0.4-0.9-0.9-0.9-0.5 0-0.9 0.5-0.9 0.9 0 0.6 0.4 0.9 0.9 0.9 0.5 0.1 0.9-0.3 0.9-0.9zm15.1 0c-0.1-0.5-0.5-0.9-1-0.9-0.4 0-0.9 0.5-0.9 0.9 0 0.5 0.4 0.9 0.9 0.9 0.6 0 1-0.4 1-0.9z"/>
</svg>