<svg version="1.2" xmlns="http://www.w3.org/2000/svg" viewBox="0 0 400 400" width="24" height="24">
	<title>folder_sync</title>
	<style>
		.s0 { fill: #000000 } 
		.s1 { opacity: .9;fill: #000000 } 
		.s2 { opacity: .8;fill: #000000 } 
	</style>
	<g id="Folder 1">
		<path id="path_0" class="s0" d="m200 288.8l-31.9 32c-13.7 13.6-30.7 22.8-49.3 26.7-5.5 1.1-11.2 1.8-17 2-1.1 0-2.2 0-3.4 0-26.3 0-51-10.2-69.6-28.7-18.6-18.7-28.8-43.4-28.8-69.7 0-26.3 10.2-51 28.8-69.7 19.2-19.1 44.4-28.7 69.6-28.7 1.1 0 2 0 3 0 0.8 24 10.3 47.6 28.3 65.9l32.6 32.5 0.2 0.2 31.6 31.7 5.7 5.7h0.1l0.1 0.1z"/>
		<path id="path_1" class="s1" d="m298.2 149.4c0 1.1 0 2.2 0 3.3-5.8 0.2-11.5 0.9-17 2.1-18.6 3.9-35.6 13-49.3 26.7l-31.8 32-37.6 37.8-0.2-0.2-32.6-32.5c-18-18.3-27.5-41.9-28.3-65.8v-0.1c-0.8-26.3 8.7-52.9 28.8-72.9 8.9-8.9 19-15.7 29.9-20.5 36.1-15.9 79.8-9 109.3 20.5 19.2 19.2 28.8 44.4 28.8 69.6z"/>
		<path id="path_3" class="s2" d="m400 251.1c0 26.3-10.2 51.1-28.9 69.7-19.1 19.1-44.4 28.7-69.6 28.7-25.2 0-50.4-9.6-69.6-28.7l-31.9-32-0.1-0.1h-0.1l-5.7-5.7-31.6-31.7 37.6-37.8 31.8-32c13.7-13.7 30.7-22.8 49.3-26.7 5.5-1.2 11.2-1.9 17-2.1q1.6 0 3.3 0c26.4 0 51.1 10.2 69.6 28.8 18.7 18.6 28.9 43.3 28.9 69.6z"/>
	</g>
</svg>