<svg version="1.2" xmlns="http://www.w3.org/2000/svg" viewBox="0 0 108 108" width="24" height="24">
	<title>foss_gallery-svg</title>
	<style>
		.s0 { opacity: .2;fill: #000000 } 
		.s1 { opacity: .7;fill: #000000 } 
		.s2 { opacity: .8;fill: #000000 } 
		.s3 { fill: #000000 } 
	</style>
	<g id="Folder 1">
		<path id="path_0" class="s0" d="m21 0h65.7c11.5 0 21 9.2 21 21v66c0 11.5-9.5 21-21 21h-65.7c-11.5 0-21-9.2-21-21v-66c0-11.5 9.5-21 21-21z"/>
		<path id="path_1" class="s1" d="m87.6 108h-46.5c-10 0-15.1-12.3-7.8-19.3 12.9-12.3 23.2-22.4 37.2-35.8 4.5-4.2 11.5-4.2 15.7 0 8.1 7.8 15.1 14.5 21.8 21v13.7c0 11.2-9.2 20.4-20.4 20.4z"/>
		<path id="path_2" class="s2" d="m25.5 35.3c-5.6 0-10.1-4.5-10.1-10.1 0-5.6 4.5-10.1 10.1-10.1 5.5 0 10 4.5 10 10.1 0 5.6-4.5 10.1-10 10.1z"/>
		<path id="path_3" class="s3" d="m0 87.3c0 11.5 9.2 20.7 20.7 20.7h19.3 21.8l-23.2-24.3-15.9-16.8c-4-3.9-10.4-3.9-14.3 0l-8.4 8.9z"/>
	</g>
</svg>