<svg version="1.2" xmlns="http://www.w3.org/2000/svg" viewBox="0 0 24 24" width="24" height="24">
	<title>galaxy_store-svg</title>
	<style>
		.s0 { fill: #000000 } 
	</style>
	<g id="Shape_525">
		<path fill-rule="evenodd" class="s0" d="m23.4 6.6l-1.4 12.8q-0.1 1-0.5 1.8-0.4 0.8-1.1 1.5-0.8 0.6-1.6 1-0.9 0.3-1.9 0.3h-9.8q-1 0-1.9-0.3-0.8-0.4-1.5-1-0.8-0.7-1.2-1.5-0.4-0.8-0.5-1.8l-1.4-12.8h5.2v-0.4c0-1.6 0.7-3.2 1.8-4.4 1.2-1.1 2.8-1.8 4.4-1.8 1.7 0 3.2 0.7 4.4 1.8 1.2 1.2 1.8 2.8 1.8 4.4v0.4zm-7.9 0v-0.4c0-0.9-0.3-1.8-1-2.5-0.7-0.6-1.5-1-2.5-1-0.9 0-1.8 0.4-2.4 1-0.7 0.7-1.1 1.6-1.1 2.5v0.4z"/>
	</g>
</svg>