<svg version="1.2" xmlns="http://www.w3.org/2000/svg" viewBox="0 0 24 24" width="24" height="24">
	<title>gboard-svg</title>
	<style>
		.s0 { fill: #000000 } 
	</style>
	<path id="path4" fill-rule="evenodd" class="s0" d="m3.5 8.8v1.7c0 0.6 0.2 1.1 0.5 1.5h-0.4c-0.1 0-0.3 0.1-0.3 0.3v1.6c0 0.1 0.2 0.3 0.3 0.3h1.6c0.2 0 0.3-0.2 0.3-0.3v-0.5l3 2.4h-1.1c-0.2 0-0.3 0.1-0.3 0.2v1.7c0 0.1 0.1 0.2 0.3 0.2h1.6c0.2 0 0.3-0.1 0.3-0.2v-1.3l1.7 1.4c0.6 0.4 1.4 0.4 2 0l1.7-1.4v1.3c0 0.1 0.1 0.2 0.2 0.2h1.7c0.1 0 0.2-0.1 0.2-0.2v-1.7c0-0.1-0.1-0.2-0.2-0.2h-1.1l2.9-2.3v0.4c0 0.1 0.2 0.3 0.3 0.3h1.6c0.2 0 0.3-0.2 0.3-0.3v-1.6c0-0.2-0.1-0.3-0.3-0.3h-0.3c0.3-0.4 0.5-0.9 0.5-1.5v-1.7h1.9c0.9 0 1.6 0.7 1.6 1.6v12c0 0.9-0.7 1.6-1.6 1.6h-20.8c-0.9 0-1.6-0.7-1.6-1.6v-12c0-0.9 0.7-1.6 1.6-1.6zm-0.2 7.2v1.7c0 0.1 0.2 0.2 0.3 0.2h1.6c0.2 0 0.3-0.1 0.3-0.2v-1.7c0-0.1-0.1-0.2-0.3-0.2h-1.6c-0.1 0-0.3 0.1-0.3 0.2zm15.1 0v1.7c0 0.1 0.2 0.2 0.3 0.2h1.6c0.2 0 0.3-0.1 0.3-0.2v-1.7c0-0.1-0.1-0.2-0.3-0.2h-1.6c-0.1 0-0.3 0.1-0.3 0.2zm-12.9 3.8v1.6c0 0.2 0.1 0.3 0.3 0.3h12.4c0.1 0 0.2-0.1 0.2-0.3v-1.6c0-0.1-0.1-0.3-0.2-0.3h-12.4c-0.2 0-0.3 0.2-0.3 0.3z"/>
	<path id="path6" fill-rule="evenodd" class="s0" d="m17 0c1.2 0 2.1 1 2.1 2.2v8.3c0 0.5-0.1 0.8-0.5 1.1l-6.4 5.1c-0.1 0.1-0.3 0.1-0.4 0l-6.4-5.1c-0.4-0.3-0.5-0.6-0.5-1.1v-8.3c0-1.2 0.9-2.2 2.1-2.2zm-9.2 4.8q-0.5 1-0.5 2.2 0 1.2 0.5 2.2c0.8 1.6 2.4 2.7 4.3 2.7 1.3 0 2.4-0.5 3.2-1.2 0.9-0.9 1.5-2.1 1.5-3.6q0-0.5-0.1-0.9h-4.6v1.8h2.6c-0.1 0.6-0.4 1.1-0.9 1.5-0.5 0.3-1 0.4-1.7 0.4-1.2 0-2.3-0.8-2.7-2q-0.2-0.4-0.2-0.9 0.1-0.5 0.2-0.9c0.4-1.2 1.5-2 2.7-2q1.1 0 1.9 0.7l1.4-1.4c-0.9-0.8-2-1.2-3.3-1.2-1.9 0-3.5 1.1-4.3 2.6z"/>
</svg>