<svg version="1.2" xmlns="http://www.w3.org/2000/svg" viewBox="0 0 129 129" width="24" height="24"><style>.a{stroke:#000;stroke-width:.6}</style><path fill-rule="evenodd" class="a" d="m52.9 6q11.6 0.1 23.2 0c3 0 5.2 0.9 7.2 3.1 4 4.3 8 8.6 12.1 12.9 0.8 0.9 1.8 1.3 3.2 1.3 6.1 0 12.4 0.3 18.6-0.1 7.3-0.2 11.8 5.9 11.7 11.9-0.1 25 0 49.9 0.1 74.8 0 6.3-4.5 10.6-8.6 11.4q-1.4 0.2-2.9 0.2-26.5 0-53 0c-8.9 0-44.5 0-53.4 0-5.3 0-9.6-3.3-10.8-8.4-0.3-1.1-0.3-2.2-0.3-3.3q0-29.2 0-58.4 0-8.7 0.1-17.2c0.1-5.9 4.6-10.6 10.5-10.9q9.2-0.2 18.3 0c2.4 0.1 3.9-0.6 5.5-2.3 3.5-4.1 7.2-7.8 10.8-11.7 2.1-2.3 4.5-3.4 7.7-3.3zm-22.9 63.3c-0.5 20.1 16 35.5 34.5 35.6 19 0 34.5-15.6 34.7-34.1 0.3-19.3-15.4-35.4-34.5-35.2-19.2-0.3-34.2 15.6-34.7 33.7zm90.5-31.3c0-3.7-2.9-6.6-6.5-6.6-3.6 0-6.6 2.9-6.6 6.6 0 3.7 3 6.6 6.6 6.6 3.6 0 6.5-2.9 6.5-6.6z"/><path class="a" d="m64.5 96.1c-14.3 0-25.9-11.6-25.9-26 0-14.3 11.6-25.9 25.9-25.9 14.3 0 25.9 11.6 25.9 25.9 0 14.4-11.6 26-25.9 26z"/></svg>