<svg version="1.2" xmlns="http://www.w3.org/2000/svg" viewBox="0 0 400 400" width="24" height="24">
	<title>gcam-svg-svg</title>
	<style>
		.s0 { opacity: .7;fill: #000000 } 
		.s1 { fill: #040404 } 
		.s2 { fill: #000000 } 
	</style>
 <g id="svgg">
		<path id="path0" fill-rule="evenodd" class="s0" d="m245.8 21.5c12.5 3 15.8 5.6 37.8 30.8l15.2 17.3h29.6c17.5 0 31.3 0.2 33.8 0.5 20.1 2 35.2 17 37.5 37.2 0.2 2.4 0.3 41.2 0.3 113.3-0.1 107-0.1 107.6-0.2 25.4l-0.1-84.1h-109.6l-2.4-3.4c-41.3-60.2-134-60.2-175.3 0l-2.4 3.4h-110l0.1-28.6c0.2-27.8 0.2-28.6 1.1-31.7 4.9-17.7 18.7-29.6 36.4-31.5 2.5-0.3 15.7-0.5 34.9-0.5h31l14.9-18.8c19.6-24.7 24.2-28.2 39-29.8 7-0.8 84.9-0.3 88.4 0.5zm87.3 99.5c0 11.3 10.6 19.1 21.4 15.8 15.2-4.6 15.4-26.5 0.4-31.5-10.8-3.6-21.8 4.3-21.8 15.7zm-25.9 91.4c0.1 0.4 0.1 1 0 1.4-0.1 0.4-0.2 0.1-0.2-0.7 0-0.8 0.1-1.1 0.2-0.7zm-106.9 115.2c3.2 0 4.4 0.1 2.8 0.2-1.7 0-4.3 0-5.9 0-1.5-0.1-0.1-0.2 3.1-0.2zm190.2 26.6c0 0.1-0.6 0.7-1.3 1.3l-1.4 1.3 1.2-1.4c1.2-1.2 1.5-1.5 1.5-1.2zm-3.3 3.3c0 0.1-0.6 0.7-1.4 1.4l-1.3 1.2 1.2-1.4c1.2-1.2 1.5-1.5 1.5-1.2zm-187.3 11.7c88.2 0 124.4 0.1 80.4 0.1-44.1 0.1-116.3 0.1-160.6 0-44.2 0-8.1-0.1 80.2-0.1z"/>
		<path id="path1" fill-rule="evenodd" class="s1" d="m0.1 247.7c0.2 80.9 0.2 86 0.9 88.9 4 16.4 16.5 28.5 32.9 31.8 3 0.6 18.6 0.6 167.6 0.5l164.3-0.1 3.6-1.1c14.5-4.6 24.4-14.4 28.9-29l1.2-3.6 0.1-86.6 0.1-86.6h-54.8-54.7l0.8 1.2c15.8 24.1 20.5 57.3 12.4 86.6-13.1 47-58.3 80-106.8 78-83.1-3.4-131-93.3-87.5-164.4l0.8-1.4h-54.9-55z"/>
		<path id="path2" fill-rule="evenodd" class="s2" d="m190.6 139.5c-55 6.4-87.9 65.9-64 115.8 29.6 61.7 117.2 61.7 146.9 0 27.5-57.2-19.7-123.1-82.9-115.8z"/>
 </g>
</svg>