<svg version="1.2" xmlns="http://www.w3.org/2000/svg" viewBox="0 0 24 24" width="24" height="24">
	<title>gmail-svg</title>
	<style>
		.s0 { fill: #fff1c0 } 
	</style>
	<path id="Layer" class="s0" d="m3.9 3.4c-1.7-1.2-4 0-3.9 2v2.2l5.5 4 6.5 4.9 6.5-5 5.5-4.1v-2.1c-0.1-2.1-2.4-3.2-4-2l-8 6.1z"/>
	<path id="Layer" class="s0" d="m18.5 14l0.1 7.1 3.8-0.1c0.5 0 0.9-0.1 1.2-0.5 0.3-0.3 0.5-0.7 0.5-1.1l-0.1-9.5z"/>
	<path id="Layer" class="s0" d="m5.5 14.1l0.1 7.1h-3.9c-0.4 0-0.8-0.2-1.2-0.5-0.3-0.3-0.4-0.7-0.4-1.2l-0.1-9.5z"/>
</svg>