<svg version="1.2" xmlns="http://www.w3.org/2000/svg" viewBox="0 0 128 128" width="24" height="24">
	<title>gmail-svg</title>
	<style>
		.s0 { opacity: .8;fill: #000000 } 
		.s1 { opacity: .6;fill: #000000 } 
		.s2 { fill: #000000 } 
	</style>
	<g id="surface1">
		<path class="s0" d="m98.9 62.7q-12.1 9-24.2 18.1c-3.1 2.2-6.3 4.6-9.4 7-0.9 0.7-1.5 0.8-2.5 0-10.7-8.1-21.4-16.1-32.1-24.1-0.5-0.4-1-0.7-1.5-1q-0.2-0.3-0.4-0.5c0.7-0.6 0.4-1.3 0.4-1.9q0-17.7 0-35.4 11.5 8.6 23 17.2c3.5 2.7 7.1 5.2 10.6 8 1 0.7 1.6 0.7 2.5 0 10.7-8.1 21.4-16.1 32.2-24.2 0.5-0.3 1-0.6 1.5-1q0 6.8 0 13.5 0 12 0 24.1 0 0.1-0.1 0.2z"/>
		<path class="s1" d="m28.8 62.2q0.2 0.2 0.4 0.5 0 23.6 0 47.3c0 1.6-0.3 2.1-2.1 2-5.8-0.1-11.7 0-17.6 0-5.7 0-9.3-3.6-9.3-9.3q0-30 0-59.9c0-0.6-0.1-1.2 0.1-1.8q0.7 0.5 1.5 0.9 13.5 10.1 27 20.3z"/>
		<path class="s1" d="m127.7 41.1c0.4 0.5 0.3 1.2 0.3 1.7q0 30 0 60c0 5.6-3.7 9.2-9.3 9.2-6 0-12-0.1-17.9 0-1.7 0.1-1.9-0.5-1.9-1.9 0.1-15.8 0-31.7 0-47.4q0.1-0.1 0.1-0.2 0.7-0.5 1.3-1.1 8.3-6.2 16.6-12.3 5.4-4 10.8-8z"/>
		<path class="s2" d="m28.8 62.2q-13.5-10.2-27-20.3-0.8-0.4-1.5-0.9c-0.2-4.9-0.7-9.9 0.2-14.7 1.9-9 12.2-13.2 19.8-8.1 3.1 2.1 5.9 4.4 8.9 6.7q0 17.7 0 35.4c0 0.6 0.3 1.3-0.4 1.9z"/>
		<path class="s2" d="m127.7 41.1q-5.4 4-10.8 8-8.3 6.1-16.6 12.3-0.6 0.6-1.3 1.1 0-12.1 0-24.1-0.1-6.7-0.1-13.5c3-2.2 5.8-4.6 8.9-6.7 4.2-2.7 8.7-2.9 13.2-0.6 4.4 2.4 6.9 6.2 6.9 11.3 0.1 3.6 0 7.2 0 10.7 0 0.5 0.2 1.1-0.2 1.5z"/>
	</g>
</svg>