<svg version="1.2" xmlns="http://www.w3.org/2000/svg" viewBox="0 0 1080 1080" width="24" height="24">
	<title>gphotos new</title>
	<style>
		.s0 { fill: #040404 } 
		.s1 { fill: #000000 } 
	</style>
	<path id="path4" fill-rule="evenodd" class="s0" d="m611.6 2.1c0.7 0.7 3.6 1.3 6.4 1.3 2.9 0 5.2 0.5 5.2 1.1 0 0.6 2 1.1 4.4 1.1 2.3 0 4.3 0.5 4.3 1.1 0 0.5 1.9 1 4.3 1 2.4 0 4.3 0.5 4.3 1.1 0 0.6 1.5 1.1 3.3 1.1 1.7 0 3.2 0.5 3.2 1.1 0 0.6 1.2 1.1 2.7 1.1 1.5 0 2.7 0.4 2.7 1 0 0.6 1.5 1.1 3.3 1.1 1.7 0 3.2 0.5 3.2 1.1 0 0.6 1.5 1.1 3.2 1.1 1.8 0 3.3 0.5 3.3 1.1 0 0.6 1 1 2.1 1 1.2 0 2.2 0.5 2.2 1.1 0 0.6 1.5 1.1 3.2 1.1 1.8 0 3.3 0.5 3.3 1.1 0 0.6 0.7 1.1 1.6 1.1 1.6 0 17.8 7.3 18.9 8.5 0.3 0.4 1.9 1.3 3.5 2.2 1.7 0.8 3 1.9 3 2.4 0 0.5 1 0.9 2.2 0.9 1.2 0 2.1 0.5 2.1 1.1 0 0.6 0.9 1.1 2 1.1 1 0 2.6 0.9 3.4 2.1 0.9 1.2 2.4 2.2 3.3 2.2 0.9 0 2.4 1 3.2 2.2 0.9 1.2 2.3 2.1 3.3 2.1 0.9 0 2.4 1 3.2 2.2 0.9 1.2 2.2 2.1 3 2.1 0.7 0 1.3 0.5 1.3 1.1 0 0.6 0.6 1.1 1.2 1.1 0.7 0 2.6 1.5 4.2 3.3 1.7 1.7 3.4 3.2 3.8 3.2 0.3 0 2.3 1.6 4.2 3.5 2 1.9 6.7 6.2 10.5 9.5 3.7 3.2 7.6 6.8 8.5 8 0.9 1.1 5.2 5.6 9.5 9.9 4.3 4.4 7.9 8.3 7.9 8.8 0 0.5 1.6 2.8 3.7 5.2 2.1 2.3 3.8 4.9 3.8 5.6 0 0.7 1.1 2.4 2.5 3.8 3.4 3.7 5.4 6.4 7.2 9.8 0.8 1.6 1.9 2.9 2.4 2.9 0.5 0 0.9 0.9 0.9 1.9 0 1.1 1 2.7 2.2 3.5 1.1 0.9 2.1 2.4 2.1 3.5 0 1.1 0.5 1.9 1.1 1.9 0.6 0 1.1 1 1.1 2.2 0 1.2 0.5 2.1 1.1 2.1 0.6 0 1 1 1 2.2 0 1.2 0.5 2.2 1.1 2.2 0.6 0 1.1 0.9 1.1 2 0 1.2 0.4 2.3 0.8 2.5 1.3 0.5 10 18.5 10 20.6 0 1 0.5 1.9 1.1 1.9 0.6 0 1.1 0.9 1.1 2.1 0 1.1 0.5 2.4 1.1 2.7 0.5 0.4 1 1.9 1 3.3 0 1.4 0.5 2.9 1.1 3.2 0.6 0.4 1.1 1.7 1.1 2.8 0 1.2 0.5 3 1 4 1.3 2.3 3.3 11 4.1 17.3 0.3 2.5 1 4.6 1.5 4.6 0.5 0 1 1.9 1 4.2 0 2.4 0.4 4.6 1 5 0.6 0.3 1.1 3.3 1.1 6.5 0 3.2 0.5 5.9 1.1 5.9 0.6 0 1.1 3.9 1.1 9.7 0 5.3 0.5 9.9 1.1 10.3 0.6 0.4 1 9.2 1 22.7 0 13.5-0.4 22.3-1 22.7-0.6 0.4-1.1 4.8-1.1 9.8 0 5.3-0.5 9.1-1.1 9.1-0.6 0-1.1 2.6-1.1 5.9 0 3.2-0.5 6.2-1.1 6.5-0.6 0.4-1 2.9-1 5.5 0 2.6-0.5 4.8-1 4.8-0.5 0-1.2 2.1-1.6 4.6-1.1 9.5-4.7 22-8.4 29.2-0.5 1-0.9 2.8-0.9 4 0 1.2-0.5 2.2-1.1 2.2-0.6 0-1.1 1-1.1 2.2 0 1.1-0.5 2.1-1.1 2.1-0.6 0-1.1 1.5-1.1 3.3 0 1.7-0.4 3.2-1 3.2-0.6 0-1.1 1-1.1 2.2 0 1.2-0.5 2.1-1.1 2.1-0.6 0-1.1 1-1.1 2.2 0 1.2-0.5 2.1-1.1 2.1-0.6 0-1 1-1 2.2 0 1.2-0.5 2.2-1.1 2.2-0.6 0-1.1 0.9-1.1 2.1 0 1.2-0.5 2.2-1.1 2.2-0.6 0-1.1 0.6-1.1 1.4 0 0.8-0.9 2.5-2.1 3.8-1.2 1.2-2.2 3-2.2 3.9 0 1-0.5 1.7-1.1 1.7-0.6 0-1 0.7-1 1.6 0 0.9-0.5 1.6-1.1 1.6-0.6 0-1.1 0.8-1.1 1.7 0 0.9-0.5 1.6-1.1 1.6-0.6 0-1.1 0.7-1.1 1.6 0 0.9-0.5 1.6-1.1 1.6-0.5 0-1 0.7-1 1.5 0 0.8-1.5 3-3.3 4.8-1.8 1.9-3.2 4-3.2 4.6 0 0.6-0.5 1.7-1.1 2.4-4.1 4.9-5.4 6.6-5.4 7.2 0 0.4-2.2 3-4.9 5.8-2.6 2.8-4.8 5.4-4.8 5.8 0 1-24.8 25.2-25.8 25.2-0.5 0-3.3 2.5-6.3 5.4-3.1 3-5.8 5.4-6.2 5.4-0.4 0-2.2 1.5-4.1 3.3-1.8 1.8-3.9 3.2-4.6 3.2-0.6 0-1.9 1-2.8 2.2-0.8 1.2-2.4 2.1-3.4 2.1-1.1 0-2 0.4-2 0.9 0 0.5-1.3 1.6-2.9 2.5-1.7 0.8-3.6 2.1-4.4 2.9-0.8 0.7-2.2 1.3-3 1.3-0.9 0-2.7 1-4 2.2l-2.3 2.1h13.7c14.7 0 18.9 1.3 23.6 6.8 2.5 3.1 3.8 9.2 2.2 10.8-0.7 0.7-1.2 1.9-1.2 2.7 0 3.4-3.7 9-7.5 11.3l-3.9 2.5-86.3 0.3-86.4 0.3 0.6 17.5c3.3 87.9 54.2 167.1 133.9 208.3 13.5 7 25.8 11.8 46.9 18.3 3.8 1.2 21.3 4.7 33.5 6.7 11 1.8 52.1 1.8 63.2 0 60.6-10 106.3-33.2 145.5-73.9 31.2-32.4 52.1-70.4 62.5-113.2 4-16.9 8.2-51.9 6.7-57.3-1.7-6.4 8.6-5.9-131.2-6.5-126.1-0.5-128.4-0.6-132.1-2.7-4.2-2.4-9.7-12-9.7-17-0.1-4.8 5.6-12.7 9.1-12.7 0.9 0 1.6-0.5 1.6-1.1 0-1.5 264.5-1.5 265.4 0 0.4 0.6 1.8 1.1 3.3 1.1 1.5 0 2.6 0.5 2.6 1.1 0 0.6 1 1 2.2 1 1.2 0 2.2 0.5 2.2 1.1 0 0.6 0.7 1.1 1.7 1.1 2 0 13.4 11.5 13.4 13.6 0 0.7 0.6 1.6 1.3 1.8 2 0.7 2 66.1 0 68-0.7 0.7-1.3 3.7-1.3 6.5 0 2.9-0.5 5.2-1.1 5.2-0.6 0-1.1 2-1.1 4.4 0 2.3-0.5 4.3-1 4.3-0.6 0-1.1 1.6-1.1 3.7 0 2-0.5 4-1.1 4.4-0.6 0.3-1.1 2.1-1.1 3.8 0 1.8-0.5 3.2-1.1 3.2-0.6 0-1.1 1.2-1.1 2.7 0 1.5-0.4 2.7-1 2.7-0.6 0-1.1 1.5-1.1 3.3 0 1.7-0.5 3.2-1.1 3.2-0.6 0-1.1 1.5-1.1 3.2 0 1.8-0.5 3.3-1.1 3.3-0.6 0-1 1-1 2.1 0 1.2-0.5 2.2-1.1 2.2-0.6 0-1.1 1.5-1.1 3.2 0 1.8-0.5 3.3-1.1 3.3-0.6 0-1.1 0.7-1.1 1.6 0 1.6-7.3 17.8-8.5 18.9-0.4 0.3-1.3 1.9-2.2 3.5-0.8 1.7-1.9 3-2.4 3-0.5 0-0.9 1-0.9 2.2 0 1.2-0.5 2.1-1.1 2.1-0.6 0-1.1 0.9-1.1 2 0 1-0.9 2.6-2.1 3.4-1.2 0.9-2.2 2.4-2.2 3.3 0 0.9-1 2.4-2.2 3.2-1.1 0.9-2.1 2.2-2.1 3 0 0.7-1.5 2.9-3.3 4.8-1.7 1.8-3.2 3.8-3.2 4.4 0 0.5-1.5 2.4-3.2 4-1.8 1.7-3.3 3.4-3.3 3.8 0 0.3-1.6 2.3-3.5 4.2-1.9 2-6.2 6.7-9.5 10.5-3.2 3.7-6.8 7.6-8 8.5-1.1 0.9-5 4.6-8.6 8.2-3.6 3.6-8.3 7.7-10.4 9.1-2.1 1.5-5 3.8-6.5 5.2-1.4 1.3-3.2 2.4-4 2.4-0.7 0-2.4 1.1-3.8 2.5-3.7 3.4-6.4 5.4-9.8 7.2-1.6 0.8-2.9 1.9-2.9 2.4 0 0.5-0.9 0.9-1.9 0.9-1.1 0-2.7 1-3.5 2.2-0.9 1.1-2.4 2.1-3.5 2.1-1.1 0-1.9 0.5-1.9 1.1 0 0.6-1 1.1-2.2 1.1-1.2 0-2.1 0.5-2.1 1.1 0 0.6-1 1-2.2 1-1.2 0-2.2 0.5-2.2 1.1 0 0.6-0.9 1.1-2 1.1-1.2 0-2.3 0.4-2.5 0.8-0.5 1.3-18.5 10-20.6 10-1 0-1.9 0.5-1.9 1.1 0 0.6-0.9 1.1-2.1 1.1-1.1 0-2.4 0.5-2.7 1.1-0.4 0.5-1.9 1-3.3 1-1.4 0-2.9 0.5-3.2 1.1-0.4 0.6-1.7 1.1-2.8 1.1-1.2 0-3 0.5-4 1-2.3 1.3-11 3.3-17.3 4.1-2.5 0.3-4.6 1-4.6 1.5 0 0.5-1.9 1-4.2 1-2.4 0-4.6 0.4-5 1-0.3 0.6-3.3 1.1-6.5 1.1-3.2 0-5.9 0.5-5.9 1.1 0 0.6-4.1 1.1-10.3 1.1-6.1 0-10.2 0.4-10.2 1.1 0 0.7-8.1 1-22.2 1-14 0-22.1-0.3-22.1-1 0-0.7-4-1.1-9.8-1.1-5.7 0-9.7-0.5-9.7-1.1 0-0.6-2.6-1.1-5.9-1.1-3.2 0-6.2-0.5-6.5-1.1-0.4-0.6-2.9-1-5.5-1-2.6 0-4.8-0.5-4.8-1 0-0.5-2.1-1.2-4.6-1.5-9.5-1.2-22-4.8-29.2-8.5-1-0.5-2.8-0.9-4-0.9-1.2 0-2.2-0.5-2.2-1.1 0-0.6-1-1.1-2.2-1.1-1.1 0-2.1-0.5-2.1-1.1 0-0.6-1.5-1.1-3.3-1.1-1.7 0-3.2-0.4-3.2-1 0-0.6-1-1.1-2.2-1.1-1.2 0-2.1-0.5-2.1-1.1 0-0.6-1-1.1-2.2-1.1-1.2 0-2.1-0.5-2.1-1.1 0-0.6-1-1-2.2-1-1.2 0-2.2-0.5-2.2-1.1 0-0.6-0.9-1.1-2.1-1.1-1.2 0-2.2-0.4-2.2-1 0-0.5-0.8-1.2-1.9-1.5-1.8-0.6-7.8-4-8.9-5.1-0.3-0.3-1.9-1.2-3.5-2-1.7-0.9-3-2-3-2.5 0-0.5-0.7-0.9-1.6-0.9-0.9 0-1.6-0.5-1.6-1.1 0-0.5-0.8-1-1.7-1-0.9 0-3.1-1.5-5-3.3-1.9-1.8-3.8-3.2-4.3-3.2-0.6 0-1.6-0.5-2.3-1.1-4.9-4.1-6.6-5.4-7.2-5.4-0.4 0-3-2.2-5.8-4.9-2.8-2.6-5.4-4.8-5.8-4.8-1 0-25.2-24.8-25.2-25.8 0-0.5-2.5-3.3-5.4-6.3-3-3.1-5.4-5.8-5.4-6.2 0-0.4-1.5-2.2-3.3-4.1-1.8-1.8-3.2-3.9-3.2-4.6 0-0.6-1-1.9-2.2-2.8-1.2-0.8-2.1-2.4-2.1-3.4 0-1.1-0.4-2-0.9-2-0.5 0-1.6-1.3-2.5-2.9-0.8-1.7-2.1-3.6-2.9-4.4-0.7-0.8-1.3-2.2-1.3-3.1 0-1.6-2.5-4.7-3.7-4.7-0.3 0-0.6 78.3-0.6 174 0 114.8-0.4 174.2-1.1 174.6-0.6 0.4-1.1 1.9-1.1 3.3 0 1.5-0.5 2.6-1.1 2.6-0.6 0-1 1-1 2.2 0 1.2-0.5 2.2-1.1 2.2-0.6 0-1.1 0.7-1.1 1.7 0 2-11.5 13.4-13.6 13.4-0.7 0-1.6 0.6-1.8 1.3-0.7 2-66.1 2-68 0-0.7-0.7-3.7-1.3-6.5-1.3-2.9 0-5.2-0.5-5.2-1.1 0-0.6-2-1.1-4.4-1.1-2.3 0-4.3-0.5-4.3-1 0-0.6-1.9-1.1-4.3-1.1-2.4 0-4.3-0.5-4.3-1.1 0-0.6-1.5-1.1-3.3-1.1-1.7 0-3.2-0.5-3.2-1.1 0-0.6-1.2-1.1-2.7-1.1-1.5 0-2.7-0.4-2.7-1 0-0.6-1.5-1.1-3.3-1.1-1.7 0-3.2-0.5-3.2-1.1 0-0.6-1.5-1.1-3.2-1.1-1.8 0-3.3-0.5-3.3-1.1 0-0.6-1-1-2.1-1-1.2 0-2.2-0.5-2.2-1.1 0-0.6-1.5-1.1-3.2-1.1-1.8 0-3.3-0.5-3.3-1.1 0-0.6-0.7-1.1-1.6-1.1-1.6 0-17.8-7.3-18.9-8.5-1-1.1-7-4.5-8.9-5.2-1.1-0.3-1.9-1-1.9-1.5 0-0.5-0.9-1-2-1-1 0-2.6-0.9-3.4-2.1-0.9-1.2-2.4-2.2-3.3-2.2-0.9 0-2.4-1-3.2-2.2-0.9-1.1-2.3-2.1-3.3-2.1-0.9 0-2.4-1-3.2-2.2-0.9-1.2-2.1-2.1-2.7-2.1-1.2 0-4.4-2.7-16.5-13.8l-6.7-6.2v-8.7-8.6l5.6-2.9c12.2-6.2 14.6-5.7 29.1 5.8 25.7 20.1 57.1 36.8 83.6 44.1 27.3 7.5 64.7 12.4 73.2 9.4 4.4-1.4 4.2 10.6 3.9-249.4l-0.4-241.5-15.1 0.1c-70.5 0.8-142.8 38-186.3 96-7.7 10.2-16.3 22.8-16.3 23.7 0 0.3-1.8 3.6-4 7.4-13.4 22.8-23.1 52.5-28.6 87.3-1.7 10.7-1.7 52.3 0 62.7 2.5 15.5 4.9 27.1 6.6 32.4 0.5 1.5 1.7 5.6 2.8 9.2 4.8 16.8 16.6 42.5 26.3 57.3 7.7 11.7 8.5 18.6 3 25.9-1.4 1.8-2.8 4.1-3.2 5.2-0.6 1.5-2.1 1.9-8.8 1.9h-8l-5-5c-2.7-2.7-4.9-5.6-4.9-6.5 0-0.8-0.5-1.5-1.1-1.5-0.6 0-1.1-0.6-1.1-1.4 0-0.8-1-2.5-2.2-3.8-1.1-1.2-2.1-3-2.1-3.9 0-1-0.5-1.7-1.1-1.7-0.6 0-1.1-1-1.1-2.2 0-1.2-0.3-2.1-0.8-2.1-0.4-0.1-1.3-1.1-2-2.5-0.6-1.3-2.7-5.2-4.6-8.7-1.9-3.5-3.4-7-3.4-7.9 0-0.8-0.5-1.5-1.1-1.5-0.6 0-1-0.7-1-1.6 0-0.9-0.5-2.5-1-3.5-0.5-1.1-1.6-3.4-2.3-5.1-0.7-1.8-1.8-4.1-2.3-5.2-0.5-1-0.9-2.8-0.9-4 0-1.2-0.5-2.2-1.1-2.2-0.6 0-1.1-1.4-1.1-3.2 0-1.7-0.4-3.4-1-3.8-0.5-0.3-1.3-3-1.7-6-0.4-2.9-1.2-5.6-1.7-6-0.6-0.3-1-2.5-1-4.8 0-2.3-0.5-4.5-1.1-4.8-0.6-0.4-1.1-2.6-1.1-5 0-2.3-0.4-4.2-1-4.2-0.6 0-1.1-2.9-1.1-6.5 0-3.6-0.5-6.5-1.1-6.5-0.6 0-1.1-3.8-1.1-9.1 0-5-0.5-9.4-1.1-9.8-1.4-0.9-1.4-45.6 0-46.5 0.6-0.4 1.1-4.8 1.1-9.8 0-5.3 0.5-9.1 1.1-9.1 0.6 0 1.1-2.9 1.1-6.5 0-3.6 0.5-6.5 1.1-6.5 0.6 0 1-2.2 1-4.8 0-2.7 0.5-4.9 1-4.9 0.5 0 1.2-2.1 1.6-4.6 1.1-9.5 4.7-22 8.4-29.2 0.5-1 0.9-2.8 0.9-4 0-1.2 0.5-2.2 1.1-2.2 0.6 0 1.1-1 1.1-2.2 0-1.1 0.5-2.1 1.1-2.1 0.6 0 1.1-1.5 1.1-3.3 0-1.7 0.4-3.2 1-3.2 0.6 0 1.1-1 1.1-2.2 0-1.2 0.5-2.1 1.1-2.1 0.6 0 1.1-1 1.1-2.2 0-1.2 0.5-2.1 1.1-2.1 0.6 0 1-1 1-2.2 0-1.2 0.5-2.2 1.1-2.2 0.6 0 1.1-0.9 1.1-2.1 0-1.2 0.5-2.2 1.1-2.2 0.6 0 1.1-0.6 1.1-1.4 0-0.8 0.9-2.5 2.1-3.7 1.2-1.3 2.2-3.1 2.2-4 0-1 0.5-1.7 1.1-1.7 0.6 0 1-0.6 1-1.4 0-0.7 1-2.1 2.2-2.9 1.2-0.9 2.2-2.3 2.2-3.3 0-0.9 0.9-2.4 2.1-3.2 1.2-0.9 2.2-2.4 2.2-3.5 0-1.1 0.4-1.9 0.9-1.9 0.5 0 1.6-1.4 2.4-3 1.7-3.1 2-3.6 5.4-7.7 1.1-1.4 2.1-2.9 2.1-3.3 0-0.4 2.2-3 4.9-5.8 2.6-2.8 4.8-5.4 4.8-5.8 0-1 24.8-25.2 25.9-25.2 0.5 0 3.3-2.4 6.1-5.4 2.9-3 5.6-5.4 6.1-5.4 0.5 0 2.4-1.5 4.3-3.3 1.8-1.8 3.9-3.2 4.6-3.2 0.6 0 1.9-1 2.8-2.2 0.8-1.2 2.4-2.1 3.4-2.1 1.1 0 2-0.4 2-0.9 0-0.5 1.3-1.6 2.9-2.5 1.7-0.8 3.6-2.1 4.4-2.8 0.8-0.8 2.2-1.4 3.1-1.4 1.6 0 4.7-2.5 4.7-3.7 0-0.3-78.3-0.6-174-0.6-114.8 0-174.2-0.4-174.6-1.1-0.4-0.6-1.8-1.1-3.3-1.1-1.5 0-2.6-0.5-2.6-1.1 0-0.6-1-1-2.2-1-1.2 0-2.2-0.5-2.2-1.1 0-0.6-0.7-1.1-1.7-1.1-2 0-13.4-11.5-13.4-13.6 0-0.7-0.6-1.6-1.3-1.8-2-0.7-2-66.1 0-68 0.7-0.7 1.3-3.7 1.3-6.5 0-2.9 0.5-5.2 1.1-5.2 0.6 0 1.1-2 1.1-4.3 0-2.4 0.5-4.4 1-4.4 0.6 0 1.1-1.9 1.1-4.3 0-2.4 0.5-4.3 1.1-4.3 0.6 0 1.1-1.5 1.1-3.3 0-1.7 0.5-3.2 1.1-3.2 0.6 0 1.1-1.2 1.1-2.7 0-1.5 0.4-2.7 1-2.7 0.6 0 1.1-1.5 1.1-3.3 0-1.7 0.5-3.2 1.1-3.2 0.6 0 1.1-1.5 1.1-3.2 0-1.8 0.5-3.3 1.1-3.3 0.6 0 1-1 1-2.1 0-1.2 0.5-2.2 1.1-2.2 0.6 0 1.1-1.5 1.1-3.2 0-1.8 0.5-3.3 1.1-3.3 0.6 0 1.1-0.7 1.1-1.6 0-1.6 7.3-17.8 8.5-18.9 0.4-0.3 1.3-1.9 2.2-3.5 0.8-1.7 1.9-3 2.4-3 0.5 0 0.9-1 0.9-2.2 0-1.2 0.5-2.1 1.1-2.1 0.6 0 1.1-0.9 1.1-2 0-1 0.9-2.6 2.1-3.4 1.2-0.9 2.2-2.4 2.2-3.3 0-0.9 1-2.4 2.2-3.2 1.1-0.9 2.1-2.3 2.1-3.3 0-0.9 1-2.4 2.2-3.2 1.2-0.9 2.1-2.2 2.1-2.9 0-0.8 0.5-1.4 1.1-1.4 0.6 0 1.1-0.6 1.1-1.2 0-0.7 1.5-2.6 3.2-4.2 1.8-1.7 3.3-3.4 3.3-3.7 0-0.4 1.6-2.4 3.5-4.3 1.9-2 6.2-6.7 9.5-10.5 3.2-3.7 7.3-8 9.1-9.6 1.7-1.5 5.6-5.2 8.6-8.2 3-2.9 7.2-6.6 9.3-8 2.1-1.5 5-3.8 6.5-5.2 1.4-1.3 3.2-2.4 4-2.4 0.7 0 2.4-1.1 3.8-2.5 3.7-3.4 6.4-5.4 9.8-7.2 1.6-0.8 2.9-1.9 2.9-2.4 0-0.5 0.9-0.9 1.9-0.9 1.1 0 2.7-1 3.5-2.2 0.9-1.1 2.4-2.1 3.5-2.1 1.1 0 1.9-0.5 1.9-1.1 0-0.6 1-1.1 2.2-1.1 1.2 0 2.1-0.5 2.1-1.1 0-0.5 1-1 2.2-1 1.2 0 2.2-0.5 2.2-1.1 0-0.6 0.9-1.1 2-1.1 1.2 0 2.3-0.4 2.5-0.9 0.5-1.3 18.4-9.9 20.6-9.9 1 0 1.9-0.5 1.9-1.1 0-0.6 0.9-1.1 2.1-1.1 1.1 0 2.4-0.5 2.7-1 0.4-0.6 1.9-1.1 3.3-1.1 1.4 0 2.9-0.5 3.2-1.1 0.4-0.6 1.7-1.1 2.8-1.1 1.2 0 3-0.5 4-1 2.3-1.3 11-3.3 17.3-4.1 2.5-0.3 4.6-1 4.6-1.5 0-0.5 1.9-1 4.2-1 2.4 0 4.6-0.4 5-1 0.3-0.6 3.3-1.1 6.5-1.1 3.2 0 5.9-0.5 5.9-1.1 0-0.6 4.1-1.1 10.3-1.1 6.1 0 10.2-0.4 10.2-1.1 0-0.6 8.1-1 22.2-1 14 0 22.1 0.4 22.1 1 0 0.7 4 1.1 9.8 1.1 5.7 0 9.7 0.5 9.7 1.1 0 0.6 2.9 1.1 6.5 1.1 3.6 0 6.5 0.5 6.5 1.1 0 0.6 2.2 1 4.8 1 2.7 0 4.9 0.5 4.9 1 0 0.5 2.1 1.2 4.6 1.6 9.5 1.1 22 4.7 29.2 8.4 1 0.5 2.8 0.9 4 0.9 1.2 0 2.2 0.5 2.2 1.1 0 0.6 1 1.1 2.2 1.1 1.1 0 2.1 0.5 2.1 1.1 0 0.6 1.5 1.1 3.3 1.1 1.7 0 3.2 0.4 3.2 1 0 0.6 1 1.1 2.2 1.1 1.2 0 2.1 0.5 2.1 1.1 0 0.6 1 1.1 2.2 1.1 1.2 0 2.1 0.5 2.1 1.1 0 0.6 1 1 2.2 1 1.2 0 2.2 0.5 2.2 1.1 0 0.6 0.9 1.1 2.1 1.1 1.2 0 2.2 0.5 2.2 1.1 0 0.6 0.6 1.1 1.4 1.1 0.8 0 2.5 0.9 3.8 2.1 1.2 1.2 3 2.2 3.9 2.2 1 0 1.7 0.5 1.7 1.1 0 0.6 0.6 1 1.4 1 0.7 0 2.1 1 2.9 2.2 0.9 1.2 2.3 2.2 3.3 2.2 0.9 0 2.4 0.9 3.2 2.1 0.9 1.2 2.3 2.2 3.3 2.2 0.9 0 2.3 1 3.2 2.2 0.9 1.1 2.2 2.1 3 2.1 0.8 0 2 0.5 2.7 1.1 4.9 4.1 6.6 5.4 7.2 5.4 0.4 0 3 2.2 5.8 4.9 2.8 2.6 5.4 4.8 5.8 4.8 0.9 0 25.2 24.8 25.2 25.8 0 0.4 2.6 3.5 5.7 6.7 6.9 7.2 11.6 13.1 11.6 14.6 0 0.6 1 1.8 2.2 2.7 1.2 0.8 2.1 2.4 2.1 3.4 0 1.1 0.4 2 0.9 2 0.5 0 1.6 1.3 2.5 2.9 0.8 1.7 2.1 3.6 2.9 4.4 0.7 0.8 1.3 2.2 1.3 3.1 0 1.6 2.5 4.7 3.7 4.7 0.3 0 0.6-55.6 0.6-123.5l0.1-123.5 2.4-4.1c2.3-4 3.6-5 10.9-8.4 2.7-1.3 3.2-1.2 4.1 0.4 0.5 1 2.1 1.8 3.4 1.8 3.6 0.1 9 3.8 11.2 7.8 1.9 3.4 2 13.3 2.3 200l0.2 196.5h10.2c96.5 0 190.7-65 225-155.4 6-15.8 9.2-26.9 12.9-44 2.8-13 3.9-26.1 3.9-46.7 0.1-26-1.2-36.8-7.3-61.4-22.5-89.8-97.1-161-188.5-179.8-13-2.7-17.3-3.3-32.5-4.6-24.3-2.1-23.4-3-24 22.8-0.2 11.6-0.8 17.6-1.8 19.4-1.9 3.5-6.6 7.6-8.7 7.6-0.9 0-3 0.8-4.7 1.6-3.5 1.9-8.3 2.2-8.3 0.6 0-0.6-0.7-1.1-1.6-1.1-2.2 0-7-4.8-7-6.9 0-0.9-0.5-1.9-1.1-2.3-0.7-0.4-1.1-9.2-1.1-22.7 0-13.5 0.4-22.3 1.1-22.7 0.6-0.4 1.1-1.8 1.1-3.3 0-1.5 0.5-2.6 1.1-2.6 0.6 0 1-1 1-2.2 0-1.2 0.5-2.2 1.1-2.2 0.6 0 1.1-0.7 1.1-1.6 0-2.1 11.4-13.5 13.5-13.5 0.9 0 1.6-0.4 1.6-1 0-0.6 1.1-1.2 2.5-1.5 5.2-1.2 64.6 0 65.9 1.2zm-375.3 272.8c-114.3 19.2-199.4 115.5-205 231.7l-0.7 14.2 3 2.3 3 2.4h242.9c216.1 0 243.1-0.2 244.3-1.7 3-3.6-1.7-47.4-7.5-68.6-25.5-95-102.3-164.4-200.1-181-20.2-3.4-57.6-3.1-79.9 0.7z"/>
	<path id="Layer" class="s1" d="m622.1 469.7c-4.8 0-9.1-3.2-10.4-8-1.5-5.8 1.9-11.7 7.7-13.2q5-1.4 9.8-2.9c5.7-1.8 11.8 1.3 13.6 7 1.8 5.7-1.3 11.7-7 13.6q-5.4 1.7-10.9 3.2-1.4 0.3-2.8 0.3zm67.8-32.8c-3.3 0-6.6-1.4-8.7-4.3-3.6-4.7-2.6-11.5 2.1-15.1 10.9-8.2 20.9-17.6 29.7-28 3.9-4.5 10.7-5.1 15.2-1.3 4.6 3.9 5.2 10.8 1.3 15.3-9.8 11.6-21 22.1-33.1 31.3-2 1.4-4.3 2.1-6.5 2.1zm64.4-85.1q-2 0-3.9-0.7c-5.6-2.2-8.3-8.4-6.2-14 8.3-21.2 12.4-43.6 12.4-66.5 0-90.5-64.7-166.8-153.8-181.5-5.9-0.9-9.9-6.5-8.9-12.4 0.9-5.9 6.5-10.1 12.4-8.9 99.7 16.3 172 101.6 172 202.8 0 25.6-4.7 50.6-13.9 74.3-1.7 4.3-5.8 6.9-10.1 6.9z"/>
	<path id="Layer" class="s1" d="m78.7 487.5q-0.9 0-1.8-0.1c-5.9-1-9.9-6.6-8.9-12.4 16.3-99.7 101.6-172 202.8-172 25.6 0 50.7 4.7 74.4 13.9 5.5 2.1 8.3 8.4 6.1 14-2.1 5.5-8.5 8.3-14 6.1-21.2-8.2-43.6-12.4-66.5-12.4-90.5 0-166.8 64.7-181.5 153.9-0.8 5.3-5.4 9-10.6 9zm380.4-17.6c-4.8 0-9.1-3.2-10.4-8q-1.3-5-2.9-9.8c-1.8-5.7 1.3-11.8 7-13.6 5.8-1.8 11.8 1.3 13.6 6.9q1.8 5.4 3.2 11c1.5 5.8-1.9 11.7-7.7 13.2q-1.4 0.4-2.8 0.3zm-32.8-67.7c-3.2 0-6.5-1.4-8.6-4.3-8.2-10.8-17.6-20.8-28-29.6-4.5-3.9-5.1-10.7-1.2-15.3 3.9-4.5 10.7-5.1 15.2-1.2 11.6 9.8 22.1 21 31.3 33.1 3.6 4.8 2.6 11.5-2.1 15.1-2 1.5-4.3 2.2-6.6 2.2z"/>
	<path id="Layer" class="s1" d="m313.2 821.3c-6 0-10.8-4.8-10.8-10.8 0-23 3.8-45.6 11.2-67.2 2-5.6 8.2-8.6 13.8-6.7 5.6 2 8.6 8.1 6.7 13.8-6.7 19.3-10.1 39.5-10.1 60.1 0 6-4.8 10.8-10.8 10.8zm41.7-120.3c-2.4 0-4.7-0.8-6.7-2.3-4.7-3.7-5.5-10.5-1.8-15.2 9.4-12 20.1-22.9 31.9-32.5 4.7-3.7 11.5-3 15.2 1.6 3.8 4.6 3.1 11.4-1.5 15.2-10.6 8.6-20.2 18.4-28.6 29.1-2.2 2.7-5.3 4.1-8.5 4.1zm86.4-62.7c-4.4 0-8.6-2.7-10.2-7.1-2-5.6 0.9-11.8 6.5-13.8q5.4-2 10.8-3.7c5.8-1.7 11.8 1.6 13.5 7.3 1.7 5.7-1.5 11.8-7.3 13.5q-4.9 1.4-9.6 3.2-1.8 0.6-3.7 0.6z"/>
	<path id="Layer" class="s1" d="m809.9 778.9c-25.7 0-50.7-4.7-74.4-13.9-5.5-2.2-8.3-8.4-6.2-14 2.2-5.6 8.5-8.4 14-6.2 21.2 8.3 43.7 12.4 66.6 12.4 90.5 0 166.8-64.6 181.4-153.8 1-5.9 6.6-10 12.5-8.9 5.8 0.9 9.8 6.5 8.9 12.4-16.4 99.7-101.7 172-202.8 172zm-125.9-46.2c-2.5 0-5-0.9-7-2.6-11.6-9.9-22.1-21-31.3-33.1-3.6-4.8-2.7-11.6 2.1-15.2 4.8-3.6 11.6-2.6 15.2 2.1 8.2 10.9 17.6 20.9 28 29.7 4.5 3.9 5.1 10.7 1.2 15.2-2.1 2.6-5.2 3.9-8.2 3.9zm-59.4-88.8c-4.6 0-8.9-2.9-10.3-7.5q-1.8-5.4-3.2-10.9c-1.5-5.8 1.9-11.7 7.7-13.2 5.8-1.5 11.7 1.9 13.2 7.7q1.3 5 2.9 9.8c1.8 5.7-1.4 11.8-7 13.6-1.1 0.4-2.2 0.5-3.3 0.5z"/>
</svg>