<svg version="1.2" xmlns="http://www.w3.org/2000/svg" viewBox="0 0 24 24" width="24" height="24">
	<title>google_photos-svg</title>
	<style>
		.s0 { fill: #000000 } 
	</style>
	<path class="s0" d="m6 6c3.3 0 6 2.5 6 5.5v0.5h-11.5c-0.3 0-0.5-0.2-0.5-0.5 0-3 2.7-5.5 6-5.5z"/>
	<path class="s0" d="m18 6c0 3.3-2.5 6-5.5 6h-0.5v-11.5c0-0.3 0.2-0.5 0.5-0.5 3 0 5.5 2.7 5.5 6z"/>
	<path class="s0" d="m18 18c-3.3 0-6-2.5-6-5.5v-0.5h11.5c0.3 0 0.5 0.2 0.5 0.5 0 3-2.7 5.5-6 5.5z"/>
	<path class="s0" d="m6 18c0-3.3 2.5-6 5.5-6h0.5v11.5c0 0.3-0.2 0.5-0.5 0.5-3 0-5.5-2.7-5.5-6z"/>
</svg>