<svg version="1.2" xmlns="http://www.w3.org/2000/svg" viewBox="0 0 24 24" width="24" height="24">
	<title>google_translate-svg</title>
	<style>
		.s0 { fill: #000000 } 
	</style>
	<path id="path0" fill-rule="evenodd" class="s0" d="m24 6v15.6c0 1.3-1.1 2.4-2.4 2.4h-9.6l-1.2-3.6h-8.4c-1.3 0-2.4-1.1-2.4-2.4v-15.6c0-1.3 1.1-2.4 2.4-2.4h7.2l1.1 3.6h10.9c1.3 0 2.4 1.1 2.4 2.4zm-13.1 4.3q0-0.4-0.1-0.7v-0.1h-4.7v1.9h2.6c-0.1 0.7-0.9 1.7-2.5 1.7-1.6 0-2.9-1.3-2.9-2.9 0-1.6 1.3-2.9 2.9-2.9 0.9 0 1.5 0.4 1.8 0.7l0.1 0.1 1.5-1.5h-0.1c-0.9-0.9-2-1.3-3.3-1.3-2.7 0-4.9 2.2-4.9 4.9 0 2.7 2.2 4.9 4.9 4.9 2.8 0 4.7-2 4.7-4.8zm11.9-4.3c0-0.7-0.5-1.2-1.2-1.2h-10.6l1.4 4.8h2.4v-1.2h1.2v1.2h4.4v1.3h-1.5c-0.4 1.5-1.2 3-2.3 4.2l3.2 3.2-0.9 0.9-3.2-3.2-1.1 1.1 1 3.3-2.4 2.4h8.4c0.7 0 1.2-0.5 1.2-1.2zm-7.1 8.2c1.5-1.7 1.9-3.3 1.9-3.3h-4.8l0.4 1.2h1.2c0.3 0.6 0.7 1.3 1.3 2.1zm-1.5 1.5l0.7-0.6c-0.6-0.6-1.1-1.3-1.5-2z"/>
</svg>