<svg version="1.2" xmlns="http://www.w3.org/2000/svg" viewBox="0 0 24 24" width="24" height="24">
	<title>google_drive-svg</title>
	<style>
		.s0 { fill: #000000 } 
	</style>
	<path id="Layer" class="s0" d="m20.2 22.3q0.6-0.3 0.9-0.9l0.5-0.7 2.1-3.7q0.3-0.6 0.3-1.2 0-0.7-0.3-1.2l-3.5-6.1-3.5-6q-0.4-0.6-0.9-0.9-0.6-0.4-1.3-0.4h-5q-0.7 0-1.3 0.4z"/>
	<path id="Layer" class="s0" d="m13.7 15.8h-13.7q0 0.6 0.3 1.2l1.5 2.6 1.1 1.8q0.3 0.6 0.9 0.9 0.5 0.4 1.2 0.4h12.6z"/>
	<path id="Layer" class="s0" d="m1 13.4l5.6-9.8 4 6.9-1.7 2.9z"/>
</svg>