<svg version="1.2" xmlns="http://www.w3.org/2000/svg" viewBox="0 0 128 128" width="24" height="24">
	<title>google-svg</title>
	<style>
		.s0 { opacity: .8;fill: #000000 } 
		.s1 { fill: #000000 } 
		.s2 { opacity: .6;fill: #000000 } 
		.s3 { opacity: .4;fill: #000000 } 
	</style>
	<g id="surface1">
		<path class="s0" d="m26.9 63.7c0-4.1 0.7-8.1 2-11.8l-21.9-16.4c-4.5 8.8-6.7 18.5-6.7 28.2 0 10.1 2.4 19.7 6.6 28.3l21.9-16.4c-1.2-3.9-1.9-7.9-1.9-11.9z"/>
		<path class="s1" d="m65.4 26.1c9.2 0 17.6 3.2 24.1 8.4l18.9-18.6c-11.6-9.8-26.3-15.9-43-15.9-25.7 0-47.9 14.4-58.4 35.5l21.9 16.4c5-15 19.5-25.8 36.5-25.8z"/>
		<path class="s2" d="m65.4 101.4c-17.1 0-31.5-10.8-36.5-25.8l-21.9 16.4c10.5 21.1 32.7 35.5 58.4 35.5 15.9 0 31.1-5.5 42.6-15.9l-20.9-15.7c-5.9 3.6-13.3 5.5-21.7 5.5z"/>
		<path class="s3" d="m127.6 63.7c0-3.7-0.6-7.8-1.4-11.6h-60.8v24.7h35c-1.7 8.4-6.5 14.8-13.3 19.1l20.9 15.7c11.9-10.8 19.6-27 19.6-47.9z"/>
	</g>
</svg>