<svg version="1.2" xmlns="http://www.w3.org/2000/svg" viewBox="0 0 202 202" width="24" height="24">
	<title>google_meet-svg</title>
	<style>
		.s0 { opacity: .8;fill: #000000;stroke: #000000 } 
		.s1 { fill: #000000;stroke: #000000 } 
		.s2 { opacity: .6;fill: #000000;stroke: #000000 } 
		.s3 { opacity: .5;fill: #000000;stroke: #000000 } 
	</style>
	<path class="s0" d="m0 136.8v33.5c0 7.6 6.2 13.8 13.9 13.8h33.4v-47.3z"/>
	<path class="s1" d="m47.3 18l-47.3 47.3h47.3z"/>
	<path class="s2" d="m47.3 65.3v71.6h-47.3v-71.6z"/>
	<path class="s1" d="m190.6 38l-30.3 24.8 0.1 77.6 30.4 24.9c2 1.7 4.9 2 7.3 0.8 2.4-1.1 3.9-3.5 3.9-6.3v-116.4c0-2.8-1.6-5.2-4-6.3-2.5-1.2-5.3-0.8-7.4 0.9zm-76.4 63v35.8h-66.9v47.3h99.3c7.6 0 13.8-6.2 13.8-13.8v-29.9z"/>
	<path class="s3" d="m146.6 18h-99.3v47.3h66.9v35.7l46.2-38.2v-30.9c-0.1-7.7-6.2-13.9-13.8-13.9z"/>
</svg>