<svg version="1.2" xmlns="http://www.w3.org/2000/svg" viewBox="0 0 24 24" width="24" height="24">
	<title>google-svg</title>
	<style>
		.s0 { fill: #000000 } 
	</style>
	<path id="path4" class="s0" d="m16.9 6.5c-1.3-1.1-2.9-1.8-4.6-1.8-3.2 0-5.8 2.2-6.8 5q-0.3 1.1-0.4 2.3 0 1.2 0.4 2.3c1 2.8 3.6 5 6.8 5 1.6 0 2.9-0.5 4-1.2 1.3-0.9 2.1-2.1 2.4-3.6h-6.4v-4.5h11.3q0.1 1.1 0.1 2.3c0 3.6-1.3 6.7-3.5 8.8-2 1.8-4.7 2.9-7.9 2.9-4.7 0-8.8-2.7-10.8-6.6-0.8-1.6-1.2-3.5-1.2-5.4 0-1.9 0.4-3.8 1.2-5.4 2-3.9 6.1-6.6 10.8-6.6 3.2 0 5.9 1.2 8 3.1z"/>
</svg>