<svg version="1.2" xmlns="http://www.w3.org/2000/svg" viewBox="0 0 24 24" width="24" height="24">
	<title>google_play_store-svg</title>
	<style>
		.s0 { fill: #000000 } 
	</style>
	<g id="Folder 1">
		<path class="s0" d="m16.7 6.3l-10.3-5.9q-0.5-0.3-1.1-0.4-0.7 0-1.3 0.2-0.5 0.2-1 0.6 0 0.1-0.1 0.2l9.2 9.1c0.2 0.3 0.6 0.3 0.8 0z"/>
		<path class="s0" d="m18.4 7.3l-4.2 4.1c-0.2 0.2-0.2 0.6 0 0.9l4.4 4.3 3.8-2.2q0.6-0.4 1-1 0.4-0.7 0.4-1.4 0-0.8-0.4-1.4-0.4-0.6-1-1z"/>
		<path class="s0" d="m16.9 17.5l-4-4c-0.2-0.2-0.6-0.2-0.8 0l-9.3 9.4q0 0.1 0.1 0.2 0.4 0.4 1.1 0.7 0.6 0.2 1.2 0.2 0.7-0.1 1.2-0.4z"/>
		<path class="s0" d="m2.2 20.8l8.6-8.5c0.2-0.3 0.2-0.7 0-0.9l-8.6-8.6z"/>
	</g>
</svg>