<svg version="1.2" xmlns="http://www.w3.org/2000/svg" viewBox="0 0 192 192" width="24" height="24">
	<title>google_phone-svg</title>
	<style>
		.s0 { fill: #000000 } 
	</style>
	<path id="Layer" class="s0" d="m100.7 150.5c-8.4-6.8-18.6-16.2-30.3-33.1-11.7-16.9-16.9-29.8-20.4-40.1-7.5-22.1-10.7-33-16.3-52-0.6-2.7-0.8-5.5-0.6-8.1-26.8 31-23 80.8 5.8 122.5 28.8 41.6 73.7 62.4 111.7 47.5-2.4-0.6-4.7-1.6-6.8-3-16-12.1-25-18.9-43.1-33.7z"/>
	<path id="Layer" class="s0" d="m172.3 150.8l-21.7-24.4c-6.3-7.1-17-7.6-23.9-1.3 0 0-13.8 12.8-21.3 19.6 18 14.7 27 21.5 42.4 33 0.1 0.1 0.2 0.1 0.3 0.2 6.3 4.2 15 2.9 21-1.2 0.5-0.4 1-0.7 1.5-1.1l0.6-0.6c6.9-6.5 7.3-17.2 1.1-24.2z"/>
	<path id="Layer" class="s0" d="m49.2 3.2c-6 4.3-10 12.2-8.3 19.6 0 0.1 0 0.2 0.1 0.3 5.3 18.6 8.6 29.4 16.2 51.7 8.7-4.8 25.3-13.5 25.3-13.5 8.3-4.4 11.3-14.8 7-23.1l-15.3-29.1c-4.3-8.3-14.4-11.5-22.6-7.2z"/>
</svg>