<svg version="1.2" xmlns="http://www.w3.org/2000/svg" viewBox="0 0 192 192" width="24" height="24">
	<title>google_play_games-svg</title>
	<style>
		.s0 { fill: #000000 } 
	</style>
	<path class="s0" d="m181.3 114.4l-57.6 33.3-11-62.9c-2.9-16.6-17.4-28.8-34.3-28.8h-58.4v-34.7c0-16.4 17.7-26.6 31.9-18.4l129.4 74.7c14.2 8.2 14.2 28.6 0 36.8z"/>
	<path class="s0" d="m52.3 96c0 5.5-4.4 10-10 10-5.5 0-10-4.5-10-10 0-5.5 4.5-10 10-10 5.6 0 10 4.5 10 10z"/>
	<path class="s0" d="m71.4 115.1c0 5.6-4.4 10-10 10-5.5 0-10-4.4-10-10 0-5.5 4.5-10 10-10 5.6 0 10 4.5 10 10z"/>
	<path class="s0" d="m71.4 76.9c0 5.5-4.4 10-10 10-5.5 0-10-4.5-10-10 0-5.6 4.5-10.1 10-10.1 5.6 0 10 4.5 10 10.1z"/>
	<path class="s0" d="m90.8 96c0 5.5-4.5 10-10 10-5.6 0-10.1-4.5-10.1-10 0-5.5 4.5-10 10.1-10 5.5 0 10 4.5 10 10z"/>
	<path class="s0" d="m91.7 166.1l-39.8 23c-14.2 8.2-31.9-2-31.9-18.4v-34.7h41.5z"/>
</svg>