<?xml version="1.0" encoding="UTF-8"?>
<svg width="24" height="24" version="1.2" viewBox="0 0 400 400" xmlns="http://www.w3.org/2000/svg">
<title>gpay-svg</title>
<style>.s0 { fill: #000000 }</style>
<g fill-rule="evenodd">
<path class="s0" d="m244.6 31.2c0.5 0.4 2.5 0.9 7 1.7 1.4 0.3 3 0.7 3.5 1s1.4 0.5 2 0.5c0.7 0 1.3 0.1 1.4 0.3 0.2 0.6 4.7 2.2 5.5 2q0.7-0.2 0.9 0.5c0.1 0.5 0.6 0.8 1 0.8s1 0.3 1.3 0.6 0.8 0.6 1.2 0.6 0.9 0.2 1 0.4 1.1 0.8 2.1 1.3 2.2 1.1 2.5 1.3c0.3 0.3 1.8 1.1 3.2 1.9 3.7 1.9 5.2 2.9 5.2 3.2 0 0.2 0.3 0.3 0.6 0.3s0.8 0.2 1.1 0.5 1.9 1.2 3.7 2.1 3.3 1.7 3.4 1.8c0.1 0.2 1 0.7 1.9 1.2 1.5 0.9 8.5 5 10.1 6 0.3 0.2 1.4 0.8 2.4 1.3s1.9 1 2 1.1c0.1 0.2 0.5 0.4 0.8 0.5 0.3 0.2 1.3 0.8 2.2 1.3s2 1.1 2.4 1.4c0.4 0.2 1.5 0.8 2.3 1.4 0.9 0.5 1.7 1 1.9 1s0.5 0.3 0.8 0.6 0.9 0.6 1.4 0.6 1 0.2 1.1 0.5 0.9 0.9 1.8 1.3c0.8 0.4 1.8 1 2.1 1.2 0.3 0.3 1.7 1.1 3 1.8s2.7 1.5 3 1.9c0.4 0.3 0.9 0.5 1.3 0.5 0.3 0 0.8 0.3 1.1 0.6s0.6 0.6 0.8 0.6 1.1 0.5 2.1 1.2c0.9 0.6 2.1 1.2 2.6 1.4 0.5 0.1 0.9 0.4 0.9 0.6 0 0.1 1.4 1 3.1 1.8 1.7 0.9 3.2 1.7 3.2 1.9 0.1 0.2 0.4 0.3 0.6 0.3 0.3 0 1.4 0.6 2.5 1.3s2.7 1.6 3.4 2.1c0.8 0.4 2.2 1.2 3.1 1.9 1 0.6 1.9 1.1 2.1 1.1s1.3 0.7 2.5 1.5c1.1 0.8 2.6 1.7 3.3 2 2.5 1.1 7.7 4.6 9.6 6.4 0.4 0.4 1.3 1.1 2 1.6 2 1.5 3.9 3.4 5.6 5.5 0.9 1.1 2.2 2.6 2.8 3.4 1.8 2 5 6.3 5 6.6 0 0.1 0.5 1 1.1 1.9s1.5 2.5 2 3.6c0.5 1 1.1 2 1.3 2.1s0.4 0.5 0.4 0.9c0 0.7 1.7 4.2 2.1 4.4 0.2 0.1 0.3 0.7 0.3 1.4 0 0.6 0.2 1.5 0.5 2s0.7 2 1 3.3q1.2 6.1 1.8 6.9c0.6 0.7 0.6 22.7 0 23.4-0.3 0.3-0.6 1.2-0.9 2.1-0.2 0.9-0.5 2.3-0.8 3.2-0.2 0.9-0.4 2.2-0.4 2.9s-0.2 1.3-0.5 1.4-0.5 0.9-0.5 1.8c0 1.1-0.2 1.7-0.5 1.7s-0.5 0.2-0.5 0.5-0.4 1.2-0.8 2-0.8 1.9-0.8 2.3-0.2 0.8-0.4 0.8-0.5 0.5-0.8 1.1c-0.2 0.6-0.6 1.5-0.9 1.9s-1 1.6-1.6 2.5c-0.6 1-1.1 2-1.1 2.3s-0.3 0.7-0.6 1-0.6 0.8-0.6 1.2c0 0.5-0.2 0.8-0.3 0.8-0.2 0-0.6 0.4-0.8 0.9-0.3 0.5-0.9 1.4-1.3 2.1s-1 1.6-1.2 2-1 1.9-1.8 3.2-1.6 2.9-1.8 3.5c-0.3 0.6-0.6 1.1-0.8 1.1s-0.4 0.2-0.4 0.5-0.4 1-0.8 1.5-0.8 1.2-0.8 1.5-0.1 0.5-0.3 0.5-0.5 0.5-0.8 1.1-1.1 2.2-1.9 3.5-1.5 2.7-1.7 3.1c-0.1 0.4-0.3 0.7-0.5 0.7s-0.5 0.5-0.6 1.2-0.4 1.2-0.5 1.2c-0.2 0-0.8 0.9-1.3 1.9-0.6 1-1.2 2.1-1.5 2.4s-0.5 0.7-0.5 1c0 0.2-0.5 1.1-1.1 2s-1.5 2.4-1.9 3.3-1 1.8-1.3 2.1-0.5 0.7-0.5 1c0 0.2-0.5 1.2-1.2 2.2-0.7 0.9-1.2 1.8-1.2 1.9s-0.8 1.5-1.8 3.2-1.8 3.1-1.8 3.2-0.5 0.9-1.2 1.9c-0.6 0.9-1.4 2.3-1.9 3.1-0.4 0.8-1.2 2.2-1.8 3.1s-1.1 1.8-1.1 2-0.5 1.1-1.2 2-1.2 2-1.2 2.3-0.2 0.8-0.5 1.1c-0.8 0.8-3.5 5.3-3.5 5.9 0 0.2-0.2 0.4-0.4 0.4s-0.4 0.2-0.4 0.4c0 0.3-0.8 1.8-1.7 3.3-0.9 1.6-1.9 3.3-2.2 3.9s-0.9 1.5-1.3 2.2-0.9 1.5-1.1 1.8c-0.1 0.3-1 1.9-2 3.5-0.9 1.5-1.7 2.9-1.7 3.1 0 0.1-0.5 1-1.2 1.9s-1.2 1.8-1.2 2c0 1.3-6.6 8.7-11 12.3-1.7 1.4-8.2 4.6-11.6 5.6-1.5 0.5-2.9 1.1-3.1 1.4-0.3 0.5-18.7 0.4-19.1-0.2-0.1-0.2-0.7-0.5-1.4-0.6-0.6-0.2-1.6-0.6-2.2-0.9-0.5-0.3-1.2-0.5-1.5-0.5s-0.8-0.2-1.2-0.4-1.7-0.8-2.9-1.4-2.8-1.4-3.6-1.9c-0.8-0.4-2.2-1.2-3.2-1.8-1-0.5-2.3-1.3-3-1.7s-1.6-1-2-1.2c-1.7-0.9-2.7-1.5-3.1-2-0.3-0.2-0.8-0.4-1.2-0.4s-0.7-0.2-0.7-0.4c0-0.4-3.4-2-4.2-2-0.6 0-2.6 1.7-2.6 2.3 0 0.3-0.3 0.8-1.9 2.7-0.2 0.3-0.5 0.9-0.7 1.4-0.2 0.6-0.4 1.1-0.6 1.2-0.3 0.3-4 6.6-5 8.6-0.5 0.9-0.9 1.7-1 1.8-0.2 0.1-0.4 0.5-0.5 0.8-0.2 0.3-0.8 1.3-1.3 2.2s-1.1 2-1.3 2.4c-0.3 0.4-0.9 1.5-1.5 2.3-0.5 0.9-1 1.6-1 1.7s-0.5 1.1-1.2 2.1c-0.7 1.1-1.2 2.3-1.2 2.6 0 0.4-0.1 0.7-0.3 0.8-0.4 0.1-1.9 2.3-2.2 3.2-0.1 0.4-1.1 1.9-2.2 3.5-1 1.6-2.1 3.2-2.3 3.6-1.3 2.3-7.7 9.3-11.7 12.8-3.6 3.2-10.2 7.7-13.9 9.5-7.3 3.5-10.6 4.8-13.2 5.1-1.1 0.2-2.2 0.4-2.4 0.6s-1.4 0.4-2.7 0.6c-1.3 0.1-2.3 0.5-2.3 0.7 0 0.7-23.2 0.7-23.8 0-0.2-0.3-1.4-0.6-2.6-0.8-1.2-0.1-2.4-0.4-2.6-0.5-0.3-0.2-1.2-0.5-2.2-0.6-1-0.2-2.9-0.8-4.3-1.4-1.4-0.7-2.7-1.2-3-1.2s-0.8-0.3-1.3-0.6c-0.4-0.3-1.1-0.6-1.6-0.6s-1-0.3-1.1-0.6c-0.2-0.3-0.6-0.6-1-0.6-0.5 0-1-0.3-1.3-0.6s-0.8-0.6-1.1-0.6-1.1-0.4-1.8-1c-0.7-0.5-1.8-1.1-2.3-1.4-0.6-0.2-1.9-1-3-1.6-1.1-0.7-2.6-1.5-3.3-1.9s-1.3-0.8-1.3-1-0.3-0.3-0.6-0.3-1.5-0.6-2.7-1.4c-1.1-0.8-2.3-1.4-2.6-1.4s-0.5-0.2-0.5-0.4-0.2-0.4-0.4-0.4c-0.3 0-2-0.9-3.8-2s-3.5-2-3.8-2c-0.2 0-0.4-0.1-0.4-0.3s-0.8-0.8-1.9-1.3c-1-0.6-3.5-2-5.5-3.1-1.9-1.2-3.9-2.3-4.4-2.5-0.4-0.2-1.2-0.6-1.6-0.9-2.1-1.4-4.2-2.5-5.6-3.3-0.9-0.4-1.8-1-2.1-1.3s-0.7-0.5-1-0.5c-0.2 0-1.1-0.5-2.1-1.2s-1.9-1.2-2.1-1.2-0.6-0.3-0.9-0.6-0.7-0.6-1-0.6-1.3-0.5-2.3-1.1c-0.9-0.7-2.1-1.3-2.6-1.5-0.5-0.1-0.9-0.4-0.9-0.6s-0.3-0.4-0.7-0.6c-0.4-0.1-1.4-0.6-2.3-1.1s-2.2-1.3-3-1.7c-0.8-0.5-2.2-1.3-3.1-1.9-1-0.6-2.5-1.5-3.4-2s-1.8-1-1.9-1.1c-0.3-0.3-1.6-1.1-2.8-1.7-0.5-0.3-2.3-1.3-3.9-2.2-1.5-0.9-2.9-1.7-3-1.7-0.3 0-6.4-3.6-6.7-4-0.4-0.4-3.7-2.6-4.8-3-3.6-1.7-20.4-17.2-20.4-18.9 0-0.2-0.4-0.8-0.9-1.4-1.3-1.4-2.7-3.4-2.7-3.8q0-0.4-0.3-0.6c-0.3-0.1-1.8-2.2-2.2-3.1-0.2-0.3-0.7-1.1-1.1-1.8-1.5-2.4-5.8-11.5-6.2-13.1-0.1-0.6-0.4-1.1-0.6-1.1s-0.4-0.8-0.4-1.7-0.3-2.2-0.6-2.8c-0.3-0.7-0.6-1.4-0.6-1.6 0-0.3-0.2-1-0.5-1.5-0.3-0.6-0.7-2.4-0.8-4-0.2-1.6-0.5-3.2-0.7-3.5-0.2-0.4-0.4-1.9-0.6-3.4-0.2-1.6-0.5-2.7-0.7-2.7-0.4 0-0.5-2.4-0.5-8.2s0.1-8.2 0.5-8.2c0.2 0 0.6-1.4 0.8-3.3 0.2-1.8 0.6-4 0.9-4.9 0.2-0.9 0.4-2.4 0.4-3.5 0-1 0.2-2 0.4-2.1s0.5-0.7 0.6-1.4 0.5-1.8 0.9-2.4c0.3-0.7 0.5-1.9 0.4-2.8-0.1-1.2 0-1.6 0.6-1.7 0.5-0.2 0.7-0.6 0.7-1.5 0-0.6 0.2-1.2 0.4-1.2s0.4-0.2 0.4-0.5c0-0.2 0.6-1.7 1.4-3.3 0.7-1.5 1.4-3.1 1.6-3.4 0.1-0.3 0.5-1.1 0.9-1.8s1.5-2.6 2.4-4.2c0.9-1.7 2-3.6 2.4-4.4 0.5-0.8 1.3-2.2 1.7-3.1 0.5-0.9 1.1-1.9 1.4-2.1 0.3-0.3 0.6-0.8 0.6-1.2s0.5-1.4 1.1-2.2c0.6-0.9 1.5-2.4 2-3.3s1.4-2.4 2-3.4c1.2-1.9 1.4-2.2 3.5-6.1 0.8-1.5 1.7-3.1 2-3.4 0.4-0.4 0.6-1 0.6-1.3 0-0.4 0.2-0.7 0.4-0.7s0.5-0.4 0.6-0.9c0.2-0.5 0.4-1 0.6-1.1 0.4-0.2 2.1-3.3 4.3-7.5 0.8-1.6 1.7-3.1 2-3.4 0.3-0.2 0.5-0.7 0.5-1.1s0.3-0.9 0.6-1.2 0.6-0.6 0.6-0.8 0.5-1.1 1.2-2.1c0.6-0.9 1.5-2.4 2-3.3s1.5-2.7 2.2-4c0.8-1.3 1.6-2.8 1.8-3.2s0.8-1.5 1.3-2.4 1.6-2.7 2.3-4 1.5-2.6 1.7-2.9c0.4-0.5 1.1-1.7 2.7-4.8 0.5-1 1.1-2 1.2-2.1 0.2-0.1 0.4-0.6 0.6-1.1 0.1-0.5 0.4-0.9 0.6-0.9s0.4-0.3 0.4-0.6 0.2-0.8 0.5-1.1 1-1.4 1.5-2.5c0.6-1.1 1.1-2.1 1.2-2.2s0.4-0.7 0.7-1.2c0.3-0.6 0.9-1.5 1.3-2.2s0.9-1.5 1.1-1.8c0.1-0.3 0.4-0.8 0.7-1 0.2-0.3 0.9-1.2 1.6-2 1.4-1.7 5.5-5.8 7.2-7.1 0.7-0.5 1.3-1 1.3-1.2 0.1-0.2 0.4-0.3 0.7-0.3s0.8-0.2 1.1-0.5c0.6-0.6 2.3-1.4 5.3-2.7 1.1-0.5 2.4-1 2.8-1.2s1.7-0.6 2.8-0.8c6-1.2 7.4-1.6 8-2.1 0.9-0.9 4.7-0.9 5.6-0.1 0.3 0.3 1.6 0.8 2.9 1.1 1.3 0.2 2.5 0.6 2.7 0.7 0.2 0.2 1.3 0.4 2.4 0.6 1 0.1 2.2 0.4 2.6 0.6 1.2 0.7 4.4 2 4.8 2 0.2 0 0.4 0.2 0.4 0.4s0.2 0.4 0.5 0.4 1.5 0.6 2.6 1.4c1.2 0.8 2.4 1.4 2.7 1.4s0.6 0.1 0.6 0.3 0.9 0.8 1.9 1.3c1 0.6 2 1.1 2.1 1.2s1.1 0.6 2.2 1.2 2.7 1.5 3.6 2.1c0.8 0.6 1.8 1.1 2.1 1.1s0.8 0.3 1.2 0.6c1.2 1.2 3.7 0.6 3.7-0.8 0-0.6 0.2-1 0.6-1 0.3 0 0.8-0.4 1-0.9s1.3-2.5 2.5-4.5c1.1-2 2.5-4.5 3-5.5s1.1-2 1.3-2.1 0.8-1.1 1.3-2.1 1-2 1.2-2c0.2-0.1 0.3-0.3 0.3-0.5s0.8-1.5 1.7-2.8c0.9-1.4 1.9-2.8 2.1-3.2 1.1-1.7 3.2-4.4 3.5-4.4 0.2 0 0.3-0.2 0.3-0.4 0-0.8 10.7-12 11.5-12 0.2 0 0.5-0.2 0.6-0.4 0.2-0.5 8.6-6.8 9.2-6.8 0.2 0 1.1-0.5 1.9-1.2s1.8-1.2 2.1-1.2c0.4 0 0.8-0.2 0.9-0.4 0.2-0.3 0.7-0.6 1.1-0.8 0.5-0.2 1.2-0.6 1.5-0.8s1.5-0.7 2.7-1.3c1.2-0.5 2.1-1 2.1-1.2s0.6-0.3 1.4-0.3c0.7 0 1.5-0.3 1.8-0.6s0.8-0.6 1.1-0.6c0.4 0 1.2-0.3 1.8-0.6 0.7-0.3 1.6-0.6 2.1-0.6 0.4 0 1.2-0.2 1.6-0.6 0.4-0.3 1.8-0.6 3-0.8s2.4-0.4 2.6-0.6 1.2-0.4 2.2-0.6c1-0.1 2-0.4 2.2-0.6s2-0.4 3.8-0.5c6.3-0.3 26.5 0 27 0.5zm-15.6 1.6c-10.4 0-12.1 0.1-12.3 0.6-0.2 0.4-0.9 0.6-2.3 0.6-1.3 0-2.3 0.2-2.7 0.6s-1.4 0.6-3.1 0.6c-2 0-2.6 0.1-2.6 0.6 0 0.4-0.5 0.6-1.8 0.6s-1.8 0.2-1.8 0.6-0.5 0.6-1.8 0.6-1.8 0.2-1.8 0.6q0 0.6-1.2 0.6c-0.6 0-1.2 0.3-1.3 0.6-0.2 0.3-0.7 0.6-1.2 0.6-0.6 0-1.1 0.3-1.2 0.6q-0.3 0.6-1.9 0.6c-1.2 0-1.6 0.2-1.6 0.6q0 0.6-1.2 0.6t-1.2 0.6c0 0.3-0.3 0.6-0.6 0.6s-0.6 0.3-0.7 0.6c-0.2 0.4-0.8 0.6-1.5 0.6q-1.2 0-1.2 0.6c0 0.3-0.3 0.6-0.6 0.6s-0.6 0.3-0.6 0.6q0 0.6-1.2 0.6t-1.2 0.6c0 0.3-0.3 0.6-0.6 0.6s-0.6 0.3-0.6 0.6q0 0.6-1.2 0.6t-1.2 0.6c0 0.3-0.3 0.6-0.6 0.6s-0.6 0.3-0.6 0.6-0.3 0.6-0.6 0.6-0.6 0.3-0.6 0.6-0.3 0.6-0.6 0.6-0.6 0.3-0.6 0.6q0 0.6-1.2 0.6t-1.2 0.6c0 0.3-0.3 0.6-0.6 0.6s-0.6 0.3-0.6 0.6-0.3 0.6-0.6 0.6-0.6 0.3-0.6 0.6-0.3 0.6-0.6 0.6-0.6 0.3-0.6 0.6-0.3 0.7-0.6 0.9c-0.3 0.1-0.6 0.4-0.6 0.7s-0.3 0.6-0.6 0.6c-0.4 0-0.6 0.4-0.6 1s-0.3 1.1-0.6 1.3c-0.3 0.1-0.6 0.4-0.6 0.7s-0.3 0.6-0.6 0.6-0.6 0.3-0.6 0.6-0.3 0.6-0.6 0.6-0.6 0.3-0.6 0.6-0.3 0.6-0.6 0.6c-0.4 0-0.6 0.4-0.6 1s-0.3 1.1-0.6 1.3c-0.3 0.1-0.6 0.4-0.6 0.7s-0.3 0.6-0.6 0.6-0.6 0.3-0.6 0.8c0 0.4-0.3 1-0.6 1.3-0.3 0.4-0.6 0.8-0.6 1.1 0 0.2-0.3 0.4-0.6 0.4s-0.7 0.5-0.8 1.2-0.5 1.2-0.8 1.2q-0.6 0-0.6 1.2t-0.6 1.2c-0.3 0-0.6 0.3-0.6 0.6s-0.3 0.6-0.6 0.6q-0.6 0-0.6 1.2t-0.6 1.2c-0.3 0-0.6 0.3-0.6 0.6s-0.3 0.6-0.6 0.6q-0.6 0-0.6 1.2t-0.6 1.2c-0.4 0-0.6 0.4-0.6 1.4s-0.2 1.4-0.6 1.4q-0.6 0-0.6 1.2t-0.6 1.2-0.6 1.2-0.6 1.2c-0.3 0-0.6 0.3-0.6 0.6s-0.3 0.6-0.6 0.6-0.6 0.3-0.6 0.6c0 0.5-0.7 0.6-3.6 0.6s-3.6-0.1-3.6-0.6c0-0.4-0.4-0.6-1-0.6s-1.1-0.3-1.3-0.6c-0.1-0.3-0.4-0.6-0.7-0.6s-0.6-0.3-0.6-0.6q0-0.6-1.2-0.6t-1.2-0.6-1.2-0.6-1.2-0.6-1.2-0.6-1.2-0.6c0-0.3-0.3-0.6-0.6-0.6s-0.6-0.3-0.6-0.6-0.3-0.6-0.8-0.6c-1.2 0-2-0.4-2-1q0-0.6-1.2-0.6t-1.2-0.6c0-0.3-0.3-0.6-0.6-0.6s-0.6-0.3-0.6-0.6c0-0.4-0.5-0.6-1.8-0.6s-1.8-0.2-1.8-0.6q0-0.6-1.2-0.6t-1.2-0.6c0-0.5-0.6-0.6-3-0.6s-3-0.1-3-0.6-0.9-0.6-5.4-0.6c-4.3 0-5.4 0.1-5.5 0.6-0.2 0.5-1 0.6-3.3 0.6-2.4 0-3 0.1-3 0.6q0 0.6-1.2 0.6c-0.6 0-1.2 0.3-1.3 0.6q-0.3 0.6-1.9 0.6c-1.2 0-1.6 0.2-1.6 0.6q0 0.6-1.2 0.6t-1.2 0.6c0 0.3-0.3 0.6-0.6 0.6s-0.6 0.2-0.6 0.4c0 0.7-1.5 2-2.6 2.2-0.5 0.2-1 0.5-1 0.8s-0.3 0.6-0.6 0.6-0.6 0.3-0.6 0.6-0.3 0.6-0.6 0.6-0.6 0.3-0.6 0.6-0.3 0.6-0.6 0.6-0.6 0.3-0.6 0.6-0.2 0.6-0.6 0.6c-0.3 0-0.6 0.4-0.8 1-0.1 0.6-0.4 1-0.6 1s-0.4 0.4-0.4 0.8-0.3 0.8-0.6 0.8-0.6 0.3-0.6 0.6-0.3 0.6-0.6 0.6q-0.6 0-0.6 1.2t-0.6 1.2c-0.4 0-0.6 0.4-0.6 1s-0.3 1.1-0.6 1.3c-0.3 0.1-0.6 0.4-0.6 0.7s-0.3 0.6-0.6 0.6c-0.4 0-0.6 0.4-0.6 1q0 1.1-0.8 1.3c-0.6 0.1-0.8 0.5-0.8 1.3q0 1.2-0.6 1.2t-0.6 1.2-0.6 1.2-0.6 1.2-0.6 1.2c-0.3 0-0.6 0.3-0.6 0.6s-0.3 0.7-0.6 0.9c-0.3 0.1-0.6 0.7-0.6 1.3q0 1.2-0.6 1.2t-0.6 1.2-0.6 1.2c-0.4 0-0.6 0.4-0.6 1s-0.3 1.1-0.6 1.3c-0.3 0.1-0.6 0.4-0.6 0.7s-0.3 0.6-0.6 0.6q-0.6 0-0.6 1.2t-0.6 1.2-0.6 1.2-0.6 1.2-0.6 1.2-0.6 1.2c-0.3 0-0.6 0.3-0.6 0.6s-0.3 0.6-0.6 0.6q-0.6 0-0.6 1.2t-0.6 1.2-0.6 1.2-0.6 1.2c-0.3 0-0.6 0.3-0.6 0.6s-0.3 0.6-0.6 0.6q-0.6 0-0.6 1.2t-0.6 1.2-0.6 1.2-0.6 1.2-0.6 1.2c0 0.7-0.2 1.3-0.6 1.5-0.3 0.1-0.6 0.6-0.6 1.1s-0.3 1-0.6 1.1c-0.3 0.2-0.6 0.6-0.6 0.9s-0.3 0.6-0.6 0.6q-0.6 0-0.6 1.2t-0.6 1.2c-0.4 0-0.6 0.4-0.6 1s-0.3 1.1-0.6 1.3c-0.3 0.1-0.6 0.5-0.6 0.9s-0.3 1-0.6 1.3c-0.3 0.4-0.6 0.8-0.6 1.1 0 0.2-0.3 0.4-0.6 0.4-0.4 0-0.6 0.4-0.6 1s-0.3 1.2-0.8 1.4c-0.5 0.3-0.8 0.8-0.8 1.4s-0.2 1-0.6 1c-0.3 0-0.6 0.3-0.6 0.6s-0.3 0.6-0.6 0.6q-0.6 0-0.6 1.2t-0.6 1.2-0.6 1.2-0.6 1.2-0.6 1.2-0.6 1.2c-0.3 0-0.6 0.3-0.6 0.6s-0.3 0.7-0.6 0.9c-0.3 0.1-0.6 0.7-0.6 1.3q0 1.2-0.6 1.2t-0.6 1.2-0.6 1.2-0.6 1.2-0.6 1.2c-0.4 0-0.6 0.4-0.6 1s-0.3 1.1-0.6 1.3c-0.3 0.1-0.6 0.4-0.6 0.7s-0.3 0.6-0.6 0.6q-0.6 0-0.6 1.2t-0.6 1.2-0.6 1.2-0.6 1.2c-0.3 0-0.6 0.3-0.6 0.6s-0.3 0.6-0.6 0.6c-0.4 0-0.6 0.5-0.6 1.8s-0.2 1.8-0.6 1.8c-0.3 0-0.6 0.3-0.6 0.6s-0.3 0.6-0.6 0.6c-0.4 0-0.6 0.5-0.6 1.8s-0.2 1.8-0.6 1.8q-0.6 0-0.6 1.2t-0.6 1.2c-0.4 0-0.6 0.5-0.6 1.8s-0.2 1.9-0.6 2.1q-0.6 0.1-0.6 1.8 0 1.5-0.6 1.8c-0.4 0.1-0.6 0.8-0.6 1.9 0 1.3-0.2 1.8-0.6 1.8-0.5 0-0.6 0.7-0.6 4.2s-0.1 4.2-0.6 4.2-0.6 1.6-0.6 11.6c0 9.9 0.1 11.5 0.6 11.7s0.6 1 0.6 3.6c0 2.5 0.2 3.5 0.6 3.9 0.4 0.3 0.6 1.2 0.6 2.5s0.2 2 0.6 2.2c0.4 0.1 0.6 0.8 0.6 1.9 0 1.3 0.2 1.8 0.6 1.8s0.6 0.4 0.6 1 0.3 1.3 0.6 1.7c0.3 0.3 0.6 1.2 0.6 1.9 0 1 0.2 1.4 0.6 1.4s0.6 0.5 0.6 1.8 0.2 1.8 0.6 1.8c0.3 0 0.6 0.3 0.6 0.6s0.3 0.6 0.6 0.6q0.6 0 0.6 1.2c0 0.6 0.3 1.3 0.6 1.6s0.6 0.8 0.6 1.2c0 0.5 0.3 0.8 0.6 0.8s0.6 0.3 0.6 0.6 0.3 0.6 0.6 0.7c0.3 0.2 0.6 0.7 0.6 1.3s0.2 1 0.6 1q0.6 0 0.6 1.2t0.6 1.2c0.3 0 0.6 0.3 0.6 0.6s0.3 0.6 0.6 0.6 0.6 0.4 0.6 0.8 0.3 0.8 0.6 0.8q0.6 0 0.6 1.2t0.6 1.2c0.3 0 0.6 0.3 0.6 0.6s0.3 0.6 0.6 0.6 0.6 0.3 0.6 0.6 0.3 0.6 0.6 0.6 0.6 0.3 0.6 0.6 0.3 0.6 0.6 0.6 0.6 0.3 0.6 0.6 0.3 0.6 0.6 0.6 0.6 0.3 0.6 0.6 0.3 0.6 0.6 0.6 0.6 0.3 0.6 0.6 0.3 0.6 0.6 0.6 0.6 0.3 0.6 0.6 0.2 0.6 0.5 0.6 1 0.5 1.5 1.2c0.6 0.6 1.2 1.2 1.5 1.2s0.5 0.3 0.5 0.6 0.3 0.6 0.6 0.6 0.6 0.3 0.6 0.6q0 0.6 1.2 0.6t1.2 0.6c0 0.3 0.3 0.6 0.6 0.6s0.6 0.3 0.6 0.6c0 0.4 0.4 0.6 1 0.6s1.1 0.3 1.3 0.6c0.1 0.3 0.4 0.6 0.7 0.6s0.6 0.3 0.6 0.6q0 0.6 1.2 0.6t1.2 0.6c0 0.3 0.3 0.6 0.6 0.6s0.6 0.3 0.6 0.6q0 0.6 1.2 0.6t1.2 0.6c0 0.4 0.4 0.6 1 0.6s1.1 0.3 1.3 0.6c0.1 0.3 0.4 0.6 0.7 0.6s0.6 0.3 0.6 0.6q0 0.6 1.2 0.6t1.2 0.6c0 0.4 0.4 0.6 1 0.6s1.1 0.3 1.3 0.6c0.1 0.3 0.4 0.6 0.7 0.6s0.6 0.4 0.6 0.8c0 0.6 0.3 0.8 1.2 0.8q1.2 0 1.2 0.6t1.2 0.6c0.7 0 1.3 0.2 1.5 0.6 0.1 0.3 0.7 0.6 1.3 0.6q1.2 0 1.2 0.6c0 0.4 0.4 0.6 1 0.6s1 0.2 1 0.6c0 0.3 0.4 0.6 0.8 0.6s0.8 0.3 0.8 0.6q0 0.6 1.2 0.6t1.2 0.6c0 0.3 0.3 0.6 0.6 0.6s0.6 0.3 0.6 0.6q0 0.6 1.2 0.6t1.2 0.6 1.2 0.6 1.2 0.6 1.2 0.6 1.2 0.6 1.2 0.6 1.2 0.6c0 0.3 0.3 0.6 0.6 0.6s0.6 0.3 0.6 0.6q0 0.6 1.2 0.6t1.2 0.6 1.2 0.6 1.2 0.6c0 0.3 0.3 0.6 0.6 0.6s0.6 0.3 0.6 0.6q0 0.6 1.2 0.6c0.6 0 1.2 0.3 1.3 0.6 0.2 0.3 0.7 0.6 1.3 0.6s1.1 0.3 1.3 0.6c0.1 0.3 0.6 0.6 1.2 0.6 0.5 0 1 0.3 1.2 0.6 0.1 0.3 0.4 0.6 0.7 0.6s0.6 0.3 0.6 0.6c0 0.4 0.4 0.6 1 0.6s1.1 0.3 1.3 0.6c0.1 0.3 0.6 0.6 1.2 0.6 0.5 0 1 0.3 1.2 0.6 0.1 0.3 0.6 0.6 1 0.6 0.5 0 1.4 0.6 2.2 1.4 0.7 0.8 1.7 1.4 2.1 1.4s0.8 0.3 0.8 0.6q0 0.6 1.2 0.6t1.2 0.6 1.2 0.6 1.2 0.6c0 0.3 0.3 0.6 0.6 0.6s0.6 0.3 0.6 0.6q0 0.6 1.2 0.6t1.2 0.6 1.2 0.6 1.2 0.6 1.2 0.6 1.2 0.6c0 0.3 0.3 0.6 0.6 0.6s0.7 0.3 0.9 0.6c0.1 0.3 0.6 0.6 1.2 0.6 0.5 0 1 0.3 1.2 0.6 0.1 0.3 0.7 0.6 1.3 0.6q1.2 0 1.2 0.6c0 0.3 0.3 0.6 0.6 0.6s0.6 0.3 0.6 0.6q0 0.6 1.2 0.6t1.2 0.6 1.2 0.6 1.2 0.6 1.2 0.6 1.2 0.6c0 0.3 0.3 0.6 0.8 0.6 0.4 0 1 0.3 1.3 0.6 0.4 0.3 0.8 0.6 1.1 0.6 0.2 0 0.4 0.3 0.4 0.6 0 0.4 0.5 0.6 1.8 0.6s1.8 0.2 1.8 0.6q0 0.6 1.2 0.6t1.2 0.6c0 0.4 0.5 0.6 1.8 0.6s1.8 0.2 1.8 0.6c0 0.5 0.6 0.6 3 0.6 2.2 0 3 0.1 3.1 0.6 0.2 0.4 0.9 0.6 2.5 0.6s2.3 0.2 2.5 0.6c0.3 0.8 17.1 0.9 17.4 0.1 0.1-0.2 1.1-0.5 2.3-0.6s2.3-0.4 2.5-0.6c0.1-0.3 1.5-0.5 3-0.6s2.8-0.4 2.9-0.6c0.2-0.2 1-0.4 1.8-0.6 0.9-0.1 1.7-0.5 1.9-0.8s1-0.5 1.9-0.5c1.2 0 1.6-0.2 1.6-0.6q0-0.6 1.2-0.6t1.2-0.6 1.2-0.6 1.2-0.6 1.2-0.6 1.2-0.6c0-0.3 0.3-0.6 0.6-0.6s0.6-0.3 0.7-0.6c0.2-0.3 0.7-0.6 1.3-0.6s1-0.2 1-0.6c0-0.3 0.3-0.6 0.8-0.6 0.4 0 0.8-0.3 0.9-0.6 0.2-0.3 0.6-0.6 1.1-0.6 0.4 0 0.8-0.3 0.8-0.6s0.3-0.6 0.6-0.6 0.7-0.3 0.9-0.6c0.1-0.3 0.4-0.6 0.7-0.6s0.6-0.3 0.6-0.6 0.3-0.6 0.6-0.6 0.6-0.3 0.6-0.6q0-0.6 1.2-0.6t1.2-0.6c0-0.3 0.3-0.6 0.6-0.6s0.6-0.3 0.6-0.6 0.3-0.6 0.6-0.6 0.6-0.3 0.6-0.6 0.3-0.6 0.6-0.6q0.6 0 0.6-1.2t0.6-1.2c0.3 0 0.6-0.3 0.6-0.6s0.3-0.6 0.6-0.6 0.6-0.3 0.6-0.6 0.3-0.7 0.6-0.9c0.3-0.1 0.6-0.4 0.6-0.7s0.3-0.6 0.6-0.6 0.6-0.3 0.6-0.6 0.3-0.6 0.6-0.6q0.6 0 0.6-1.2t0.6-1.2 0.6-1.2 0.6-1.2c0.3 0 0.6-0.3 0.6-0.6s0.3-0.6 0.6-0.6q0.6 0 0.6-1.2t0.6-1.2 0.6-1.2 0.6-1.2 0.6-1.2 0.6-1.2c0.3 0 0.6-0.3 0.6-0.6s0.3-0.6 0.6-0.6q0.6 0 0.6-1.2t0.6-1.2 0.6-1.2 0.6-1.2c0.3 0 0.6-0.3 0.6-0.6s0.3-0.6 0.6-0.6q0.6 0 0.6-1.2t0.6-1.2 0.6-1.2 0.6-1.2 0.6-1.1 1.2-2.1c0.7-0.6 1.2-1.4 1.2-1.9 0-0.6 0.3-1.1 0.8-1.2 0.6-0.1 0.8-0.5 0.8-1.3q0-1.2 0.6-1.2t0.6-1.2 0.6-1.2c0.3 0 0.6-0.3 0.6-0.6s0.3-0.6 0.6-0.6q0.6 0 0.6-1.2t0.6-1.2c0.3 0 0.6-0.3 0.6-0.6s0.3-0.6 0.6-0.6q0.6 0 0.6-1.2c0-1.1 0.1-1.2 1.2-1.2q1.2 0 1.2-0.6c0-0.4 0.4-0.6 1-0.6s1.1 0.3 1.3 0.6c0.1 0.3 0.7 0.6 1.3 0.6q1.2 0 1.2 0.6c0 0.4 0.4 0.6 1 0.6s1.1 0.3 1.3 0.6c0.1 0.3 0.4 0.6 0.7 0.6s0.6 0.3 0.6 0.6q0 0.6 1.2 0.6t1.2 0.6 1.2 0.6 1.2 0.6c0 0.3 0.3 0.6 0.6 0.6s0.6 0.3 0.6 0.6q0 0.6 1.2 0.6t1.2 0.6 1.2 0.6 1.2 0.6 1.2 0.6 1.2 0.6 1.2 0.6c0.6 0 1.2 0.3 1.3 0.6 0.2 0.3 0.7 0.6 1.3 0.6s1.1 0.3 1.3 0.6c0.1 0.4 0.7 0.6 1.7 0.6 0.9 0 1.7 0.2 1.9 0.5 0.2 0.4 1.3 0.7 2.5 0.8s2.2 0.4 2.3 0.6c0.3 0.8 12 0.7 12.2-0.1q0.3-0.6 1.9-0.6t1.9-0.6c0.1-0.4 0.8-0.6 2.5-0.6 1.9 0 2.4-0.1 2.4-0.6q0-0.6 1.2-0.6t1.2-0.6 1.2-0.6 1.2-0.6c0-0.3 0.3-0.6 0.6-0.6s0.6-0.3 0.6-0.6q0-0.6 1.2-0.6t1.2-0.6c0-0.3 0.3-0.6 0.6-0.6s0.6-0.3 0.6-0.6 0.3-0.6 0.6-0.6 0.6-0.3 0.6-0.6 0.3-0.6 0.6-0.6 0.6-0.3 0.6-0.6 0.3-0.6 0.6-0.6 0.6-0.3 0.6-0.6 0.3-0.6 0.6-0.6 0.6-0.3 0.6-0.6 0.3-0.6 0.6-0.6q0.6 0 0.6-1.2t0.6-1.2c0.3 0 0.6-0.3 0.6-0.6s0.3-0.6 0.6-0.6q0.6 0 0.6-1.2t0.6-1.2c0.3 0 0.6-0.3 0.6-0.6s0.3-0.6 0.6-0.6q0.6 0 0.6-1.2t0.6-1.2 0.6-1.2c0-0.7 0.2-1.3 0.6-1.5 0.3-0.1 0.6-0.6 0.6-1.2 0-0.5 0.3-1 0.6-1.1 0.3-0.2 0.6-0.7 0.8-1.2 0.1-0.5 0.6-1.4 1.2-1.9 0.5-0.6 1.1-1.6 1.2-2.1 0.2-0.6 0.5-1 0.8-1 0.4 0 0.6-0.3 0.6-0.6s0.3-0.6 0.6-0.6c0.4 0 0.6-0.4 0.6-1.6q0-1.6 0.6-1.9c0.3-0.1 0.6-0.4 0.6-0.7s0.3-0.6 0.6-0.6q0.6 0 0.6-1.2t0.6-1.2 0.6-1.2 0.6-1.2c0.3 0 0.6-0.3 0.6-0.6s0.3-0.6 0.6-0.6q0.6 0 0.6-1.2t0.6-1.2c0.3 0 0.6-0.3 0.6-0.6s0.3-0.6 0.6-0.6c0.4 0 0.6-0.5 0.6-1.8s0.2-1.8 0.6-1.8c0.3 0 0.6-0.4 0.6-0.8s0.3-0.8 0.6-0.8q0.6 0 0.6-1.2t0.6-1.2c0.4 0 0.6-0.4 0.6-1s0.3-1.1 0.6-1.3c0.3-0.1 0.6-0.4 0.6-0.7s0.3-0.6 0.6-0.6q0.6 0 0.6-1.2t0.6-1.2c0.3 0 0.6-0.3 0.6-0.6s0.3-0.6 0.6-0.6c0.4 0 0.6-0.5 0.6-1.8s0.2-1.8 0.6-1.8c0.3 0 0.6-0.3 0.6-0.6s0.3-0.6 0.6-0.6q0.6 0 0.6-1.2t0.6-1.2 0.6-1.2 0.6-1.2c0.3 0 0.6-0.3 0.6-0.6s0.3-0.6 0.6-0.6q0.6 0 0.6-1.2t0.6-1.2 0.6-1.2 0.6-1.2c0.4 0 0.6-0.4 0.6-1s0.3-1.1 0.6-1.3c0.3-0.1 0.6-0.4 0.6-0.8 0-0.3 0.3-0.6 0.6-0.8 0.3-0.1 0.6-0.6 0.6-1.1 0-0.6 0.3-1.2 0.8-1.4s0.8-0.8 0.8-1.4 0.2-1 0.6-1c0.3 0 0.6-0.3 0.6-0.6s0.3-0.6 0.6-0.6q0.6 0 0.6-1.2t0.6-1.2 0.6-1.2 0.6-1.2 0.6-1.2 0.6-1.2c0.3 0 0.6-0.3 0.6-0.6s0.3-0.6 0.6-0.6q0.6 0 0.6-1.2t0.6-1.2 0.6-1.2 0.6-1.2 0.6-1.2 0.6-1.2 0.6-1.2 0.6-1.2c0.3 0 0.6-0.3 0.6-0.6s0.3-0.6 0.6-0.7c0.3-0.2 0.6-0.7 0.6-1.3s0.3-1.1 0.6-1.3c0.3-0.1 0.6-0.4 0.6-0.7s0.3-0.6 0.6-0.6q0.6 0 0.6-1.2t0.6-1.2 0.6-1.2 0.6-1.2c0.4 0 0.6-0.4 0.6-1s0.3-1.1 0.6-1.3c0.3-0.1 0.6-0.7 0.6-1.3q0-1.2 0.6-1.2c0.3 0 0.6-0.3 0.6-0.6s0.3-0.6 0.6-0.6c0.4 0 0.6-0.5 0.6-1.8s0.2-1.8 0.6-1.8q0.6 0 0.6-1.2t0.6-1.2c0.4 0 0.6-0.5 0.6-1.8s0.2-1.8 0.6-1.8c0.5 0 0.6-0.5 0.6-2.4s0.1-2.4 0.6-2.4 0.6-0.6 0.6-2.6c0-1.7 0.2-2.7 0.6-3.1 0.5-0.5 0.6-2.2 0.6-9.6 0-7.6-0.1-9-0.6-9.2-0.4-0.2-0.6-0.9-0.6-2.7 0-1.9-0.1-2.4-0.6-2.4s-0.6-0.5-0.6-2.4-0.1-2.4-0.6-2.4c-0.4 0-0.6-0.5-0.6-1.8s-0.2-1.8-0.6-1.8q-0.6 0-0.6-1.2t-0.6-1.2c-0.4 0-0.6-0.5-0.6-1.8s-0.2-1.8-0.6-1.8c-0.3 0-0.6-0.3-0.6-0.6s-0.3-0.6-0.6-0.7q-0.6-0.3-0.6-1.9c0-1.2-0.2-1.6-0.6-1.6-0.3 0-0.6-0.3-0.6-0.6s-0.3-0.6-0.6-0.7c-0.3-0.2-0.6-0.7-0.6-1.3s-0.2-1-0.6-1c-0.3 0-0.6-0.3-0.6-0.6s-0.3-0.6-0.6-0.7c-0.3-0.2-0.6-0.5-0.6-0.8 0-0.4-0.3-0.7-0.6-0.8-0.3-0.2-0.6-0.7-0.6-1.3s-0.2-1-0.6-1c-0.3 0-0.6-0.3-0.6-0.6s-0.3-0.6-0.6-0.6-0.6-0.3-0.6-0.6-0.3-0.6-0.6-0.6-0.6-0.3-0.6-0.6-0.3-0.6-0.6-0.6-0.6-0.3-0.6-0.6-0.3-0.6-0.6-0.6-0.6-0.3-0.6-0.6-0.3-0.6-0.6-0.6-0.6-0.3-0.6-0.6-0.3-0.6-0.6-0.6-0.6-0.3-0.6-0.6-0.3-0.6-0.6-0.6-0.6-0.3-0.6-0.6-0.3-0.6-0.6-0.6-0.6-0.3-0.6-0.6-0.3-0.6-0.6-0.6-0.6-0.3-0.6-0.6q0-0.6-1.2-0.6t-1.2-0.6c0-0.3-0.3-0.6-0.6-0.6s-0.7-0.3-0.9-0.6c-0.1-0.3-0.6-0.6-1.2-0.6-0.5 0-1-0.3-1.2-0.6-0.1-0.3-0.4-0.6-0.7-0.6s-0.6-0.3-0.6-0.6q0-0.6-1.2-0.6t-1.2-0.6c0-0.4-0.4-0.6-1-0.6s-1.1-0.3-1.3-0.6c-0.1-0.3-0.4-0.6-0.7-0.6s-0.6-0.3-0.6-0.6q0-0.6-1.2-0.6t-1.2-0.6c0-0.4-0.4-0.6-1-0.6s-1.1-0.3-1.3-0.6c-0.1-0.3-0.6-0.6-1.2-0.6-0.5 0-1-0.3-1.2-0.6-0.1-0.3-0.4-0.6-0.7-0.6s-0.6-0.2-0.6-0.6c0-0.3-0.5-0.6-1.2-0.7-0.7-0.2-1.2-0.5-1.2-0.9q0-0.6-1.2-0.6t-1.2-0.6c0-0.3-0.3-0.6-0.6-0.6s-0.6-0.3-0.6-0.6q0-0.6-1.2-0.6t-1.2-0.6-1.2-0.6c-0.7 0-1.3-0.2-1.5-0.6-0.1-0.3-0.7-0.6-1.3-0.6q-1.2 0-1.2-0.6c0-0.3-0.3-0.6-0.6-0.6s-0.6-0.3-0.6-0.6q0-0.6-1.2-0.6t-1.2-0.6-1.2-0.6-1.2-0.6-1.2-0.6-1.2-0.6c0-0.3-0.3-0.6-0.6-0.6s-0.6-0.3-0.6-0.6q0-0.6-1.2-0.6t-1.2-0.6-1.2-0.6-1.2-0.6-1.2-0.6-1.2-0.6c0-0.3-0.3-0.6-0.6-0.6s-0.6-0.3-0.6-0.6q0-0.6-1.2-0.6t-1.2-0.6-1.2-0.6-1.2-0.6c0-0.3-0.3-0.6-0.8-0.6-0.4 0-1-0.3-1.3-0.6-0.4-0.3-0.8-0.6-1.1-0.6-0.2 0-0.4-0.3-0.4-0.6q0-0.6-1.2-0.6c-0.7 0-1.3-0.2-1.5-0.6-0.1-0.3-0.6-0.6-1.1-0.6-0.4 0-1.3-0.5-1.8-1.2-0.6-0.6-1.4-1.2-1.9-1.2s-1-0.3-1.2-0.6c-0.1-0.3-0.5-0.6-0.9-0.6-0.5 0-1.1-0.4-1.5-0.8s-1.1-0.8-1.6-0.8-0.9-0.2-0.9-0.6c0-0.3-0.3-0.6-0.6-0.6s-0.6-0.3-0.6-0.6q0-0.6-1.2-0.6t-1.2-0.6-1.2-0.6-1.2-0.6c0-0.3-0.3-0.6-0.6-0.6s-0.6-0.3-0.6-0.6q0-0.6-1.2-0.6t-1.2-0.6-1.2-0.6-1.2-0.6-1.2-0.6-1.2-0.6c0-0.3-0.3-0.6-0.6-0.6s-0.6-0.3-0.6-0.6q0-0.6-1.2-0.6t-1.2-0.6-1.2-0.6c-0.6 0-1.2-0.3-1.3-0.6-0.2-0.3-0.7-0.6-1.3-0.6s-1.1-0.3-1.3-0.6c-0.1-0.3-0.4-0.6-0.7-0.6s-0.6-0.3-0.6-0.6q0-0.6-1.2-0.6t-1.2-0.6-1.2-0.6-1.2-0.6c0-0.4-0.4-0.6-1.6-0.6q-1.6 0-1.9-0.6c-0.1-0.3-0.7-0.6-1.3-0.6q-1.2 0-1.2-0.6c0-0.4-0.5-0.6-1.8-0.6s-1.8-0.2-1.8-0.6-0.4-0.6-1.6-0.6q-1.6 0-1.9-0.6c-0.1-0.5-0.9-0.6-3-0.6-2 0-2.8-0.1-3-0.6-0.1-0.4-0.8-0.6-2.3-0.6-1.4 0-2.3-0.2-2.6-0.6-0.4-0.5-2.3-0.6-12.6-0.6zm1 4.8c4.4 0 5.2 0.1 5.2 0.6s0.8 0.6 4.8 0.6 4.8 0.1 4.8 0.6 0.6 0.6 3 0.6c2.2 0 3 0.1 3.1 0.6 0.2 0.4 0.8 0.6 1.5 0.6q1.2 0 1.2 0.6c0 0.4 0.5 0.6 1.8 0.6s1.8 0.2 1.8 0.6 0.5 0.6 1.8 0.6 1.8 0.2 1.8 0.6q0 0.6 1.2 0.6t1.2 0.6 1.2 0.6 1.2 0.6 1.2 0.6 1.2 0.6 1.2 0.6 1.2 0.6 1.2 0.6 1.2 0.6 1.2 0.6 1.2 0.6c0 0.3 0.3 0.6 0.6 0.6s0.6 0.3 0.6 0.6q0 0.6 1.2 0.6c0.7 0 1.3 0.2 1.5 0.6 0.1 0.3 0.6 0.6 1.1 0.6 0.4 0 1.3 0.5 1.8 1.1 0.6 0.7 1.5 1.3 2.1 1.4 0.6 0.2 1.1 0.6 1.1 0.9q0 0.6 1.2 0.6t1.2 0.6c0 0.3 0.3 0.6 0.6 0.6s0.6 0.3 0.6 0.6q0 0.6 1.2 0.6t1.2 0.6 1.2 0.6 1.2 0.6 1.2 0.6 1.2 0.6c0 0.3 0.3 0.6 0.6 0.6s0.6 0.3 0.6 0.6q0 0.6 1.2 0.6t1.2 0.6 1.2 0.6 1.2 0.6 1.2 0.6 1.2 0.6c0 0.3 0.3 0.6 0.6 0.6s0.6 0.3 0.6 0.6q0 0.6 1.2 0.6t1.2 0.6 1.2 0.6 1.2 0.6c0 0.3 0.4 0.6 0.8 0.6s0.8 0.3 0.8 0.6q0 0.6 1.2 0.6t1.2 0.6 1.2 0.6 1.2 0.6c0 0.4 0.4 0.6 1 0.6s1.1 0.3 1.3 0.6c0.1 0.3 0.4 0.6 0.7 0.6s0.6 0.3 0.6 0.6q0 0.6 1.2 0.6t1.2 0.6c0 0.3 0.3 0.6 0.6 0.6s0.6 0.3 0.6 0.6 0.3 0.6 0.6 0.6c0.4 0 0.6 0.5 0.6 1.8s-0.2 1.8-0.6 1.8c-0.3 0-0.6 0.3-0.6 0.6 0 0.5-0.5 0.6-2.4 0.6-1.8 0-2.4 0.1-2.4 0.5 0 0.7-1.7 1.1-4.2 1.1q-1.7 0-1.9 0.6-0.3 0.6-1.9 0.6t-1.9 0.6q-0.2 0.6-1.9 0.6t-1.9 0.6q-0.3 0.6-1.9 0.6c-1.2 0-1.6 0.2-1.6 0.6 0 0.3-0.3 0.6-0.6 0.6s-0.6 0.3-0.7 0.6c-0.2 0.3-0.7 0.6-1.3 0.6s-1 0.2-1 0.6q0 0.6-1.2 0.6t-1.2 0.6-1.2 0.6-1.2 0.6c0 0.3-0.3 0.6-0.6 0.6s-0.6 0.3-0.6 0.6q0 0.6-1.2 0.6t-1.2 0.6c0 0.3-0.3 0.6-0.6 0.6s-0.6 0.3-0.6 0.6-0.3 0.6-0.6 0.6-0.6 0.3-0.6 0.6-0.3 0.6-0.6 0.6-0.6 0.3-0.6 0.6-0.3 0.6-0.6 0.6-0.6 0.3-0.6 0.6-0.3 0.6-0.6 0.6-0.6 0.3-0.6 0.6-0.3 0.6-0.6 0.6-0.6 0.3-0.6 0.6-0.3 0.6-0.6 0.6-0.6 0.3-0.6 0.6-0.3 0.6-0.6 0.6-0.6 0.3-0.6 0.6-0.3 0.6-0.6 0.6-0.7 0.5-0.8 1.2-0.5 1.2-0.8 1.2-0.6 0.3-0.6 0.6-0.3 0.6-0.6 0.6-0.6 0.3-0.6 0.6-0.3 0.6-0.6 0.6c-0.4 0-0.6 0.4-0.6 1.4s-0.2 1.4-0.6 1.4q-0.6 0-0.6 1.2t-0.6 1.2c-0.3 0-0.6 0.3-0.6 0.6s-0.3 0.6-0.6 0.6q-0.6 0-0.6 1.2t-0.6 1.2-0.6 1.2-0.6 1.2c-0.3 0-0.6 0.3-0.6 0.6s-0.3 0.6-0.6 0.6q-0.6 0-0.6 1.2t-0.6 1.2-0.6 1.2-0.6 1.2-0.6 1.2-0.6 1.2c-0.3 0-0.6 0.3-0.6 0.6s-0.3 0.6-0.6 0.6q-0.6 0-0.6 1.2t-0.6 1.2-0.6 1.2-0.6 1.2-0.6 1.2-0.6 1.2c-0.3 0-0.6 0.3-0.6 0.6s-0.3 0.6-0.6 0.6q-0.6 0-0.6 1.2c0 0.7-0.2 1.3-0.6 1.5-0.3 0.1-0.6 0.6-0.6 1.2 0 0.5-0.3 1-0.6 1.2-0.3 0.1-0.6 0.5-0.6 0.9s-0.3 0.9-0.6 1.2-0.6 0.7-0.6 1c0 0.4-0.3 0.6-0.6 0.6q-0.6 0-0.6 1.2t-0.6 1.2c-0.4 0-0.6 0.4-0.6 1s-0.3 1.1-0.6 1.3c-0.3 0.1-0.6 0.4-0.6 0.7s-0.3 0.6-0.6 0.6q-0.6 0-0.6 1.2t-0.6 1.2c-0.4 0-0.6 0.4-0.6 1s-0.3 1.1-0.6 1.2c-0.3 0.2-0.7 0.8-0.8 1.4-0.1 0.7-0.5 1.2-0.8 1.2s-0.6 0.3-0.6 0.6-0.3 0.6-0.6 0.6q-0.6 0-0.6 1.2t-0.6 1.2-0.6 1.2-0.6 1.2-0.6 1.2-0.6 1.2c-0.3 0-0.6 0.4-0.6 0.8s-0.3 0.8-0.6 0.8q-0.6 0-0.6 1.2t-0.6 1.2-0.6 1.2-0.6 1.2c-0.3 0-0.6 0.3-0.6 0.6s-0.3 0.6-0.6 0.6q-0.6 0-0.6 1.2t-0.6 1.2-0.6 1.2-0.6 1.2-0.6 1.2-0.6 1.2c-0.3 0-0.6 0.3-0.6 0.6s-0.3 0.6-0.6 0.6q-0.6 0-0.6 1.2t-0.6 1.2-0.6 1.2-0.6 1.2c-0.3 0-0.6 0.3-0.6 0.6s-0.3 0.6-0.6 0.6q-0.6 0-0.6 1.2t-0.6 1.2-0.6 1.2-0.6 1.2c-0.4 0-0.6 0.4-0.6 1s-0.3 1.1-0.6 1.3c-0.3 0.1-0.6 0.5-0.6 0.9 0 0.5-0.3 0.8-0.6 0.8q-0.6 0-0.6 1.2t-0.6 1.2c-0.4 0-0.6 0.4-0.6 1s-0.3 1.1-0.6 1.3c-0.3 0.1-0.6 0.4-0.6 0.7s-0.3 0.6-0.6 0.6q-0.6 0-0.6 1.2t-0.6 1.2c-0.4 0-0.6 0.4-0.6 1s-0.2 1.1-0.6 1.2c-0.3 0.2-0.6 0.8-0.7 1.4-0.2 0.7-0.5 1.2-0.9 1.2s-0.6 0.4-0.6 1-0.3 1.1-0.6 1.3c-0.3 0.1-0.6 0.4-0.6 0.7s-0.3 0.6-0.6 0.6q-0.6 0-0.6 1.2t-0.6 1.2-0.6 1.2-0.6 1.2c-0.3 0-0.6 0.3-0.6 0.6s-0.3 0.6-0.6 0.6q-0.6 0-0.6 1.2c0 0.7-0.2 1.3-0.6 1.5-0.3 0.1-0.6 0.7-0.6 1.3q0 1.2-0.6 1.2c-0.4 0-0.6 0.4-0.6 1s-0.2 1-0.6 1c-0.3 0-0.6 0.4-0.6 0.8s-0.3 0.8-0.6 0.8q-0.6 0-0.6 1.2t-0.6 1.2-0.6 1.2-0.6 1.2c-0.3 0-0.6 0.3-0.6 0.6s-0.3 0.6-0.6 0.6q-0.6 0-0.6 1.2t-0.6 1.2-0.6 1.2-0.6 1.2c-0.3 0-0.6 0.3-0.6 0.6s-0.3 0.6-0.6 0.6q-0.6 0-0.6 1.2t-0.6 1.2-0.6 1.2-0.6 1.2-0.6 1.2-0.6 1.2c-0.3 0-0.6 0.3-0.6 0.8 0 0.4-0.2 1-0.5 1.3s-0.7 0.8-0.8 1.2c-0.2 0.4-0.5 0.7-0.7 0.7s-0.4 0.5-0.4 1c0 0.6-0.3 1.1-0.6 1.3-0.3 0.1-0.6 0.6-0.6 1.2 0 0.5-0.3 1-0.6 1.2-0.3 0.1-0.6 0.4-0.6 0.7s-0.3 0.6-0.6 0.6q-0.6 0-0.6 1.2c0 0.7-0.2 1.2-0.4 1.2-0.7 0-2 1.5-2.2 2.6-0.2 0.5-0.5 1-0.8 1s-0.6 0.3-0.6 0.6-0.3 0.6-0.6 0.6-0.6 0.3-0.6 0.6-0.3 0.6-0.6 0.6-0.6 0.3-0.6 0.6-0.3 0.6-0.6 0.6-0.6 0.3-0.6 0.6q0 0.6-1.2 0.6t-1.2 0.6c0 0.3-0.3 0.6-0.6 0.6s-0.6 0.3-0.6 0.6q0 0.6-1.2 0.6t-1.2 0.6-1.2 0.6-1.2 0.6c0 0.5-0.5 0.6-2.4 0.6s-2.4 0.1-2.4 0.6c0 0.9-15.5 0.9-15.9 0-0.1-0.4-0.8-0.6-2.5-0.6-1.9 0-2.4-0.1-2.4-0.6q0-0.6-1.2-0.6t-1.2-0.6-1.2-0.6-1.2-0.6c0-0.4-0.4-0.6-1-0.6s-1.1-0.3-1.3-0.6c-0.1-0.3-0.4-0.6-0.7-0.6s-0.6-0.3-0.6-0.6q0-0.6-1.2-0.6t-1.2-0.6-1.2-0.6-1.2-0.6-1.2-0.6-1.2-0.6c0-0.3-0.3-0.6-0.6-0.6s-0.6-0.3-0.6-0.6q0-0.6-1.2-0.6t-1.2-0.6c0-0.3-0.3-0.6-0.6-0.6s-0.6-0.3-0.6-0.6q0-0.6-1.2-0.6c-0.7 0-1.2-0.2-1.2-0.5 0-0.2-0.3-0.6-0.6-0.9-0.9-0.7-1-4.6 0-4.6q0.6 0 0.6-1.2t0.6-1.2 0.6-1.2 0.6-1.2c0.3 0 0.6-0.4 0.6-0.8s0.3-0.8 0.6-0.8q0.6 0 0.6-1.2t0.6-1.2 0.6-1.2 0.6-1.2 0.6-1.2 0.6-1.2c0.4 0 0.6-0.4 0.6-1 0-0.5 0.3-1 0.6-1.1 0.3-0.2 0.6-0.6 0.6-0.9s0.3-0.6 0.6-0.6q0.6 0 0.6-1.2t0.6-1.2 0.6-1.2 0.6-1.2c0.3 0 0.6-0.3 0.6-0.6s0.3-0.6 0.6-0.6q0.6 0 0.6-1.2t0.6-1.2 0.6-1.2 0.6-1.2 0.6-1.2 0.6-1.2c0.3 0 0.6-0.3 0.6-0.6s0.3-0.6 0.6-0.6q0.6 0 0.6-1.2c0-0.7 0.2-1.3 0.6-1.5 0.3-0.1 0.6-0.6 0.6-1.2 0-0.5 0.3-1 0.6-1.2 0.3-0.1 0.6-0.6 0.6-1.2 0-0.5 0.3-1 0.6-1.2 0.3-0.1 0.6-0.4 0.6-0.7s0.3-0.6 0.6-0.6q0.6 0 0.6-1.2t0.6-1.2c0.4 0 0.6-0.4 0.6-1s0.3-1.1 0.6-1.3c0.3-0.1 0.6-0.5 0.6-0.9s0.3-1 0.6-1.3c0.3-0.4 0.6-0.8 0.6-1.1 0-0.2 0.3-0.4 0.6-0.4 0.4 0 0.6-0.4 0.6-1s0.3-1.1 0.6-1.2c0.3-0.2 0.7-0.8 0.8-1.4 0.1-0.7 0.5-1.2 0.8-1.2s0.6-0.3 0.6-0.6 0.3-0.6 0.6-0.6q0.6 0 0.6-1.2t0.6-1.2 0.6-1.2 0.6-1.2 0.6-1.2 0.6-1.2c0.3 0 0.6-0.4 0.6-0.8s0.3-0.8 0.6-0.8q0.6 0 0.6-1.2t0.6-1.2 0.6-1.2 0.6-1.2 0.6-1.2 0.6-1.2c0.3 0 0.6-0.3 0.6-0.6s0.3-0.6 0.6-0.6q0.6 0 0.6-1.2t0.6-1.2 0.6-1.2 0.6-1.2 0.6-1.2 0.6-1.2c0.3 0 0.6-0.3 0.6-0.6s0.3-0.6 0.6-0.6q0.6 0 0.6-1.2t0.6-1.2 0.6-1.2 0.6-1.2c0.3 0 0.6-0.3 0.6-0.6s0.3-0.6 0.6-0.6q0.6 0 0.6-1.2t0.6-1.2 0.6-1.2c0-0.6 0.3-1.2 0.6-1.3 0.3-0.2 0.6-0.7 0.6-1.3s0.3-1.1 0.6-1.3c0.3-0.1 0.6-0.6 0.6-1.2 0-0.5 0.3-1 0.6-1.2 0.3-0.1 0.6-0.4 0.6-0.7s0.3-0.6 0.6-0.6q0.6 0 0.6-1.2t0.6-1.2c0.4 0 0.6-0.4 0.6-1.6q0-1.6 0.6-1.9c0.3-0.1 0.6-0.6 0.6-1.1s0.2-1.1 0.5-1.3c0.4-0.2 0.7-1.6 0.8-4.9 0.1-3.1 0.4-4.6 0.7-4.7 0.4-0.2 0.4-0.3 0-0.5-0.3-0.2-0.6-2-0.7-5.4-0.2-3.8-0.4-5.3-0.8-5.5-0.3-0.2-0.5-1-0.5-1.9 0-1.2-0.2-1.6-0.6-1.6q-0.6 0-0.6-1.2c0-0.6-0.3-1.2-0.6-1.3-0.3-0.2-0.6-0.7-0.6-1.3s-0.2-1-0.6-1q-0.6 0-0.6-1.2t-0.6-1.2c-0.3 0-0.6-0.3-0.6-0.6s-0.3-0.6-0.6-0.6-0.6-0.3-0.6-0.6-0.3-0.6-0.6-0.7c-0.3-0.2-0.6-0.5-0.6-0.8 0-0.4-0.3-0.7-0.6-0.8-0.3-0.2-0.6-0.6-0.6-1.1 0-0.4-0.3-0.8-0.6-0.8s-0.6-0.2-0.6-0.4c0-0.7-2-2.4-2.9-2.4-0.4 0-0.7-0.3-0.7-0.6s-0.3-0.6-0.6-0.6-0.6-0.3-0.6-0.6q0-0.6-1.2-0.6t-1.2-0.6c0-0.3-0.3-0.6-0.6-0.6s-0.6-0.3-0.6-0.6q0-0.6-1.2-0.6t-1.2-0.6-1.2-0.6-1.2-0.6c0-0.3-0.3-0.6-0.6-0.6s-0.6-0.3-0.6-0.6q0-0.6-1.2-0.6t-1.2-0.6-1.2-0.6c-0.6 0-1.2-0.3-1.3-0.6-0.2-0.3-0.7-0.6-1.3-0.6s-1.1-0.3-1.3-0.6c-0.1-0.3-0.4-0.6-0.7-0.6s-0.6-0.2-0.6-0.4c0-0.3-0.3-0.7-0.6-1.1-0.8-0.8-0.8-3.3 0-3.3 0.4 0 0.6-0.5 0.6-1.8s0.2-1.8 0.6-1.8c0.3 0 0.6-0.3 0.6-0.8 0-0.4 0.2-1 0.5-1.3s0.7-1 0.9-1.5c0.4-1.2 1.4-2.4 2.1-2.4 0.3 0 0.5-0.5 0.5-1.2q0-1.2 0.6-1.2c0.3 0 0.6-0.4 0.6-0.8s0.3-0.8 0.6-0.8q0.6 0 0.6-1.2t0.6-1.2 0.6-1.2 0.6-1.2 0.6-1.2 0.6-1.2c0.3 0 0.6-0.3 0.6-0.6s0.3-0.6 0.6-0.6q0.6 0 0.6-1.2t0.6-1.2c0.3 0 0.6-0.3 0.6-0.6s0.3-0.6 0.6-0.6q0.6 0 0.6-1.2t0.6-1.2c0.3 0 0.6-0.3 0.6-0.6s0.3-0.6 0.6-0.6c0.4 0 0.6-0.4 0.6-1s0.3-1.1 0.6-1.3c0.3-0.1 0.6-0.4 0.6-0.7s0.3-0.6 0.6-0.6 0.6-0.3 0.6-0.6 0.3-0.6 0.6-0.6 0.6-0.3 0.6-0.6 0.3-0.6 0.6-0.6 0.6-0.3 0.6-0.6 0.3-0.6 0.6-0.6 0.6-0.3 0.6-0.6 0.3-0.6 0.6-0.6 0.6-0.3 0.6-0.6 0.3-0.6 0.6-0.6 0.6-0.3 0.6-0.6q0-0.6 1.2-0.6c0.7 0 1.2-0.2 1.2-0.4 0-0.8 4.3-4.8 5.1-4.8 0.5 0 0.9-0.3 1-0.6 0.2-0.3 0.6-0.6 0.9-0.6s0.6-0.3 0.6-0.6q0-0.6 1.2-0.6t1.2-0.6c0-0.3 0.2-0.6 0.4-0.6 0.3 0 0.7-0.3 1.1-0.6 0.3-0.3 0.9-0.6 1.3-0.6 0.5 0 0.8-0.3 0.8-0.6q0-0.6 1.2-0.6t1.2-0.6 1.2-0.6 1.2-0.6c0-0.4 0.5-0.6 1.8-0.6s1.8-0.2 1.8-0.6q0-0.6 1.2-0.6t1.2-0.6c0-0.4 0.5-0.6 1.8-0.6 1.2 0 1.8-0.2 1.9-0.6q0.3-0.6 1.8-0.6 1.6 0 1.8-0.6c0.2-0.5 1-0.6 3.3-0.6 2.4 0 3-0.1 3-0.6s0.8-0.6 4.8-0.6c3.8 0 4.8-0.1 4.9-0.6 0.2-0.5 1.2-0.6 5.5-0.6zm-13.4 3.9c-0.9 0.3-2.2 0.5-3 0.5s-3 0.5-4.8 1.2c-1.9 0.6-3.7 1.2-4 1.2-0.7 0-9.3 3.6-12.6 5.3-8.3 4.2-19.6 13.8-25.1 21.1-2.3 3.1-9.7 15-10.3 16.6-0.2 0.5-1.2 2.2-2.2 3.7-2.8 4.4-4.3 7.7-4 8.7 0.3 1.3 5.2 4.6 12.4 8.4 14.8 7.9 23.1 21.4 23 37.6 0 9.6-1.4 13-16.2 38.6-2.6 4.5-5.5 9.6-6.5 11.3-0.9 1.7-2.1 3.8-2.6 4.6-0.6 0.8-2.5 4.2-4.3 7.5s-4.1 7.2-5 8.6-2.5 4-3.4 5.8-2.8 5.1-4.2 7.4c-1.4 2.4-3.4 5.9-4.4 7.8-1.1 2-2.6 4.6-3.4 5.8-1.1 1.7-7.3 12.6-10.2 18-0.6 1.1-0.8 2.7-0.4 3.8 0.3 0.8 14.1 8.9 20.5 12.1 16.2 8.2 33 1.4 43-17.1 1-1.9 3.2-5.7 4.8-8.4 1.6-2.8 3-5.3 3.2-5.6 0.1-0.3 2-3.6 4.3-7.3 2.2-3.7 4-6.8 4-6.9 0-0.2 1.3-2.4 2.9-5.1s3.2-5.4 3.5-6.1c0.8-1.4 4.6-7.9 7.6-13.1 1.2-2 2.5-4.4 3-5.3 1.2-2.2 10.4-17.8 12.3-20.9 0.8-1.4 1.5-2.6 1.5-2.7s2.2-3.9 4.8-8.4 4.8-8.3 4.8-8.4 1.5-2.6 3.3-5.7c1.9-3 4.4-7.4 5.7-9.6 1.2-2.3 2.9-5.3 3.8-6.8 0.9-1.4 1.6-2.7 1.6-2.9 0-0.1 1-1.9 2.2-3.8 1.3-2 3.8-6.3 5.7-9.6 7.2-12.7 10.8-17.4 18.1-23.8 8.7-7.7 19.2-12.6 32.8-15.3 5.1-1.1 4.8-1.5-4.3-6.8-3.9-2.2-10.2-5.8-14-8.1-3.8-2.2-10-5.8-13.7-8-3.8-2.2-9.5-5.5-12.6-7.4-5.2-3-18.4-9.6-19.5-9.6-0.3 0-2.1-0.5-4.1-1.2-2-0.6-4.9-1.3-6.6-1.6-1.6-0.3-3.8-0.6-4.8-0.8-4.3-0.8-18.8-0.3-22.6 0.7zm-116.6 44.1c0 0.1 1.7 0.4 3.8 0.6 2.9 0.2 3.8 0.4 3.8 0.8 0 0.5 0.6 0.6 2.4 0.6 1.9 0 2.4 0.1 2.4 0.6q0 0.6 1.2 0.6t1.2 0.6c0 0.3 0.3 0.6 0.6 0.6s0.6 0.3 0.6 0.6q0 0.6 1.2 0.6t1.2 0.6 1.2 0.6 1.2 0.6 1.2 0.6 1.2 0.6c0 0.3 0.3 0.6 0.6 0.6s0.7 0.3 0.9 0.6c0.1 0.3 0.7 0.6 1.3 0.6q1.2 0 1.2 0.6t1.2 0.6 1.2 0.6c0 0.4 0.4 0.6 1 0.6s1.1 0.3 1.3 0.6c0.1 0.3 0.5 0.6 0.9 0.6s0.9 0.3 1.2 0.6 0.7 0.6 1 0.6c0.4 0 0.6 0.3 0.6 0.6q0 0.6 1.2 0.6t1.2 0.6 1.2 0.6 1.2 0.6c0 0.3 0.3 0.6 0.6 0.6s0.6 0.3 0.6 0.6q0 0.6 1.2 0.6t1.2 0.6 1.2 0.6 1.2 0.6 1.2 0.6 1.2 0.6c0 0.3 0.3 0.6 0.6 0.6s0.6 0.3 0.6 0.6q0 0.6 1.2 0.6t1.2 0.6 1.2 0.6c0.6 0 1.2 0.3 1.3 0.6 0.2 0.3 0.6 0.6 1 0.6 0.8 0 2.9 1.7 2.9 2.4 0 0.2 0.5 0.4 1.2 0.4q1.2 0 1.2 0.6t1.2 0.6 1.2 0.6c0 0.3 0.3 0.6 0.6 0.6s0.6 0.3 0.6 0.6 0.3 0.6 0.6 0.6 0.6 0.3 0.6 0.6 0.3 0.6 0.6 0.6 0.6 0.3 0.6 0.6 0.3 0.6 0.6 0.6 0.6 0.3 0.6 0.6 0.3 0.6 0.6 0.6 0.6 0.3 0.6 0.6 0.3 0.6 0.6 0.6 0.6 0.3 0.6 0.6 0.3 0.6 0.6 0.6 0.6 0.3 0.6 0.6 0.3 0.6 0.6 0.6q0.6 0 0.6 1.2t0.6 1.2 0.6 1.2 0.6 1.2 0.6 1.2 0.6 1.2c0.5 0 0.6 0.5 0.6 2.4 0 1.7 0.2 2.4 0.6 2.5 0.5 0.2 0.6 1.4 0.6 6.9 0 5.6-0.1 6.6-0.6 6.6s-0.6 0.5-0.6 2.4-0.1 2.4-0.6 2.4q-0.6 0-0.6 1.2t-0.6 1.2-0.6 1.2-0.6 1.2-0.6 1.2-0.6 1.2-0.6 1.2-0.6 1.2-0.6 1.2-0.6 1.2c-0.3 0-0.6 0.3-0.6 0.6s-0.3 0.6-0.6 0.6q-0.6 0-0.6 1.2c0 0.6-0.3 1.2-0.6 1.3-0.3 0.2-0.6 0.7-0.6 1.2 0 0.6-0.3 1.1-0.6 1.2-0.3 0.2-0.6 0.6-0.6 0.9s-0.3 0.6-0.6 0.6q-0.6 0-0.6 1.2t-0.6 1.2-0.6 1.2-0.6 1.2c-0.4 0-0.6 0.4-0.6 1s-0.3 1.1-0.6 1.3c-0.3 0.1-0.6 0.4-0.6 0.7s-0.3 0.6-0.6 0.6q-0.6 0-0.6 1.2t-0.6 1.2c-0.4 0-0.6 0.4-0.6 1s-0.3 1.1-0.6 1.2c-0.3 0.2-0.7 0.8-0.8 1.4-0.1 0.7-0.4 1.2-0.6 1.2s-0.4 0.3-0.4 0.6-0.3 0.6-0.6 0.6c-0.4 0-0.6 0.4-0.6 1q0 1.1-0.8 1.3c-0.6 0.1-0.8 0.5-0.8 1.3q0 1.2-0.6 1.2t-0.6 1.2-0.6 1.2c-0.3 0-0.6 0.4-0.6 0.8s-0.3 0.8-0.6 0.8q-0.6 0-0.6 1.2t-0.6 1.2-0.6 1.2-0.6 1.2-0.6 1.2-0.6 1.2c-0.3 0-0.6 0.3-0.6 0.6s-0.3 0.6-0.6 0.6q-0.6 0-0.6 1.2t-0.6 1.2-0.6 1.2-0.6 1.2c-0.4 0-0.6 0.4-0.6 1s-0.3 1.1-0.6 1.3c-0.3 0.1-0.6 0.4-0.6 0.7s-0.3 0.6-0.6 0.6q-0.6 0-0.6 1.2t-0.6 1.2-0.6 1.2-0.6 1.2c-0.3 0-0.6 0.3-0.6 0.6s-0.3 0.6-0.6 0.6q-0.6 0-0.6 1.2t-0.6 1.2-0.6 1.2-0.6 1.2-0.6 1.2c0 0.6-0.3 1.2-0.6 1.3-0.3 0.2-0.6 0.6-0.6 0.9s-0.3 0.6-0.6 0.6q-0.6 0-0.6 1.2t-0.6 1.2c-0.4 0-0.6 0.4-0.6 1s-0.3 1.1-0.6 1.3c-0.3 0.1-0.6 0.6-0.6 1.2 0 0.5-0.3 1-0.6 1.2-0.3 0.1-0.6 0.4-0.6 0.7s-0.3 0.6-0.6 0.6c-0.4 0-0.6 0.4-0.6 1s-0.3 1.1-0.6 1.3c-0.3 0.1-0.6 0.6-0.6 1.2 0 0.5-0.3 1-0.6 1.1-0.3 0.2-0.7 0.8-0.8 1.4-0.1 0.7-0.5 1.2-0.8 1.2s-0.6 0.3-0.6 0.6-0.3 0.6-0.6 0.6q-0.6 0-0.6 1.2t-0.6 1.2-0.6 1.2-0.6 1.2c-0.3 0-0.6 0.3-0.6 0.6s-0.3 0.6-0.6 0.6c-0.4 0-0.6 0.4-0.6 1.4s-0.2 1.4-0.6 1.4q-0.6 0-0.6 1.2t-0.6 1.2c-0.4 0-0.6 0.4-0.6 1s-0.3 1.1-0.6 1.3c-0.3 0.1-0.6 0.4-0.6 0.7s-0.3 0.6-0.6 0.6q-0.6 0-0.6 1.2t-0.6 1.2-0.6 1.2-0.6 1.2-0.6 1.2-0.6 1.2c-0.3 0-0.6 0.3-0.6 0.6s-0.3 0.6-0.6 0.6c-0.4 0-0.6 0.5-0.6 1.8s-0.2 1.8-0.6 1.8q-0.6 0-0.6 1.2t-0.6 1.2c-0.4 0-0.6 0.5-0.6 1.8s-0.2 1.8-0.6 1.8c-0.5 0-0.6 0.5-0.6 2.4 0 1.8-0.2 2.5-0.6 2.7-0.4 0.1-0.6 0.8-0.6 2.4 0 1.5-0.2 2.2-0.6 2.4-0.5 0.2-0.6 1.6-0.6 9.3 0 7.9 0.1 9.2 0.6 9.2s0.6 0.6 0.6 3 0.1 3 0.6 3 0.6 0.5 0.6 2.4 0.1 2.4 0.6 2.4c0.3 0 0.6 0.3 0.6 0.6s0.3 0.6 0.6 0.7q0.6 0.3 0.6 1.9c0 1.2 0.2 1.6 0.6 1.6 0.5 0 0.6 0.5 0.6 2.4s-0.1 2.4-0.6 2.4c-0.3 0-0.6 0.3-0.6 0.6 0 0.4-0.5 0.6-1.8 0.6s-1.8-0.2-1.8-0.6q0-0.6-1.2-0.6t-1.2-0.6c0-0.3-0.3-0.6-0.6-0.6s-0.6-0.3-0.6-0.6c0-0.4-0.5-0.6-1.8-0.6s-1.8-0.2-1.8-0.6c0-0.3-0.3-0.6-0.6-0.6s-0.6-0.3-0.6-0.6q0-0.6-1.2-0.6t-1.2-0.6-1.2-0.6-1.2-0.6c0-0.3-0.4-0.6-0.8-0.6s-0.8-0.3-0.8-0.6q0-0.6-1.2-0.6t-1.2-0.6c0-0.4-0.4-0.6-1-0.6s-1.1-0.3-1.3-0.6c-0.1-0.3-0.6-0.6-1.2-0.6-0.5 0-1-0.3-1.2-0.6-0.1-0.3-0.6-0.6-1.2-0.6-0.5 0-1-0.3-1.2-0.6-0.1-0.3-0.4-0.6-0.7-0.6s-0.6-0.3-0.6-0.6c0-0.4-0.4-0.6-1-0.6s-1.1-0.3-1.3-0.6c-0.1-0.3-0.4-0.6-0.7-0.6s-0.6-0.3-0.6-0.6c0-0.4-0.4-0.6-1-0.6s-1.1-0.3-1.4-0.8c-0.2-0.5-0.8-0.8-1.4-0.8s-1-0.2-1-0.6q0-0.6-1.2-0.6t-1.2-0.6-1.2-0.6-1.2-0.6c0-0.3-0.3-0.6-0.6-0.6s-0.6-0.3-0.6-0.6q0-0.6-1.2-0.6t-1.2-0.6-1.2-0.6-1.2-0.6-1.2-0.6c-0.6 0-1.2-0.3-1.3-0.6-0.2-0.3-0.6-0.6-0.9-0.6s-0.6-0.3-0.6-0.6q0-0.6-1.2-0.6t-1.2-0.6-1.2-0.6-1.2-0.6c0-0.3-0.3-0.6-0.6-0.6s-0.6-0.3-0.6-0.6q0-0.6-1.2-0.6t-1.2-0.6c0-0.3-0.3-0.6-0.6-0.6s-0.6-0.3-0.6-0.6q0-0.6-1.2-0.6t-1.2-0.6c0-0.3-0.3-0.6-0.6-0.6s-0.6-0.3-0.6-0.6q0-0.6-1.2-0.6t-1.2-0.6c0-0.3-0.3-0.6-0.6-0.6s-0.6-0.3-0.6-0.6-0.3-0.6-0.6-0.6-0.6-0.3-0.6-0.6-0.3-0.6-0.6-0.6-0.6-0.3-0.6-0.6-0.3-0.6-0.6-0.6-0.6-0.3-0.6-0.6-0.3-0.6-0.6-0.6-0.6-0.3-0.6-0.6-0.3-0.6-0.6-0.6-0.6-0.3-0.6-0.6-0.3-0.6-0.6-0.6-0.6-0.3-0.6-0.6-0.4-0.7-0.8-0.8-0.8-0.5-0.8-0.8-0.3-0.6-0.6-0.6-0.6-0.2-0.6-0.5-0.6-0.9-1.2-1.5c-0.7-0.5-1.2-1.4-1.2-1.9s-0.2-0.9-0.6-0.9c-0.3 0-0.6-0.3-0.6-0.6s-0.3-0.6-0.6-0.6q-0.6 0-0.6-1.2t-0.6-1.2c-0.3 0-0.6-0.3-0.6-0.6s-0.3-0.6-0.6-0.6-0.6-0.2-0.6-0.4c0-0.3-0.3-0.7-0.6-1.1-0.3-0.3-0.6-0.9-0.6-1.3s-0.3-0.8-0.6-0.9c-0.3-0.2-0.6-0.7-0.6-1.3s-0.2-1-0.6-1q-0.6 0-0.6-1.2t-0.6-1.2-0.6-1.2c0-0.6-0.3-1.2-0.6-1.3q-0.6-0.3-0.6-1.8 0-1.7-0.6-1.8c-0.4-0.2-0.6-0.9-0.6-2.7 0-1.9-0.1-2.4-0.6-2.4q-0.6 0-0.6-1.2t-0.6-1.2c-0.5 0-0.6-0.6-0.6-3s-0.1-3-0.6-3-0.6-0.7-0.6-3.6-0.1-3.6-0.6-3.6c-0.9 0-0.9-15.5 0-15.9 0.5-0.1 0.6-1 0.6-3.7 0-2.9 0.1-3.6 0.6-3.6s0.6-0.6 0.6-3 0.1-3 0.6-3c0.4 0 0.6-0.5 0.6-1.8s0.2-1.8 0.6-1.8 0.6-0.5 0.6-1.8 0.2-1.8 0.6-1.8 0.6-0.5 0.6-1.8 0.2-1.8 0.6-1.8 0.6-0.4 0.6-1.4 0.2-1.4 0.6-1.4q0.6 0 0.6-1.2t0.6-1.2c0.4 0 0.6-0.4 0.6-1s0.3-1.1 0.6-1.3c0.3-0.1 0.6-0.7 0.6-1.3q0-1.2 0.6-1.2c0.4 0 0.6-0.4 0.6-1s0.3-1.1 0.6-1.3c0.3-0.1 0.6-0.4 0.6-0.7s0.3-0.6 0.6-0.6q0.6 0 0.6-1.2t0.6-1.2c0.4 0 0.6-0.4 0.6-1s0.3-1.1 0.6-1.3c0.3-0.1 0.6-0.6 0.6-1.2 0-0.5 0.3-1 0.6-1.2 0.3-0.1 0.6-0.4 0.6-0.7s0.3-0.6 0.6-0.6q0.6 0 0.6-1.2t0.6-1.2c0.3 0 0.6-0.5 0.7-1.2 0.2-0.7 0.5-1.2 0.9-1.2 0.3 0 0.6-0.3 0.6-0.6s0.3-0.6 0.6-0.7c0.4-0.2 0.6-0.8 0.6-1.5q0-1.2 0.6-1.2t0.6-1.2 0.6-1.2 0.6-1.2 0.6-1.2c0.3 0 0.6-0.3 0.6-0.6s0.3-0.6 0.6-0.6q0.6 0 0.6-1.2t0.6-1.2 0.6-1.2 0.6-1.2 0.6-1.2 0.6-1.2c0.3 0 0.6-0.3 0.6-0.6s0.3-0.6 0.6-0.6q0.6 0 0.6-1.2t0.6-1.2 0.6-1.2 0.6-1.2 0.6-1.2 0.6-1.2c0.4 0 0.6-0.4 0.6-1s0.3-1.1 0.6-1.3c0.3-0.1 0.6-0.4 0.6-0.7s0.3-0.6 0.6-0.6q0.6 0 0.6-1.2c0-0.7 0.2-1.3 0.6-1.5 0.3-0.1 0.6-0.6 0.6-1.2 0-0.5 0.3-1 0.6-1.2 0.3-0.1 0.6-0.5 0.6-1 0-0.4 0.3-0.8 0.6-1 0.3-0.1 0.6-0.5 0.6-0.9 0-0.5 0.3-0.8 0.6-0.8q0.6 0 0.6-1.2t0.6-1.2 0.6-1.2 0.6-1.2c0.4 0 0.6-0.4 0.6-1s0.3-1.1 0.6-1.3c0.3-0.1 0.6-0.4 0.6-0.7s0.3-0.6 0.6-0.6q0.6 0 0.6-1.2t0.6-1.2c0.3 0 0.6-0.3 0.6-0.8 0-0.4 0.3-1 0.6-1.3 0.3-0.4 0.6-0.8 0.6-1.1 0-0.2 0.4-0.4 0.8-0.4 0.6 0 0.8-0.3 0.8-1.2q0-1.2 0.6-1.2t0.6-1.2 0.6-1.2 0.6-1.2c0-0.7 0.2-1.3 0.6-1.5 0.3-0.1 0.6-0.4 0.6-0.7s0.3-0.6 0.6-0.6q0.6 0 0.6-1.2t0.6-1.2 0.6-1.2 0.6-1.2 0.6-1.2 0.6-1.2c0.3 0 0.6-0.3 0.6-0.6s0.3-0.6 0.6-0.6q0.6 0 0.6-1.2t0.6-1.2c0.3 0 0.6-0.3 0.6-0.6s0.3-0.6 0.6-0.6q0.6 0 0.6-1.2t0.6-1.2c0.3 0 0.6-0.3 0.6-0.6s0.3-0.6 0.6-0.6 0.6-0.3 0.6-0.6 0.3-0.6 0.6-0.6 0.6-0.3 0.6-0.6 0.3-0.6 0.6-0.6 0.6-0.3 0.6-0.6 0.3-0.6 0.6-0.6 0.6-0.3 0.6-0.6q0-0.6 1.2-0.6t1.2-0.6 1.2-0.6 1.2-0.6 1.2-0.6 1.2-0.6c0-0.5 0.5-0.6 2-0.6 1.4 0 2-0.2 2-0.5 0-0.4 1-0.7 3.5-0.9 1.9-0.1 3.6-0.4 3.6-0.6 0.2-0.5 2.1-0.5 2.1 0zm-5.7 3c-7.2 1-14.2 5-18.4 10.6-1.6 2.1-6.3 9.8-6.3 10.3 0 0.2-0.8 1.6-1.8 3-1 1.5-2.4 3.9-3.2 5.4s-1.7 3.2-2.1 3.9-1.7 2.9-2.9 5c-3.4 5.7-13.7 23.8-14.5 25.5-0.4 0.8-2.5 4.5-4.7 8.1-2.1 3.6-4.3 7.4-4.8 8.4s-1.9 3.5-3.2 5.6c-1.2 2.1-2.9 5-3.7 6.4-0.7 1.4-2.6 4.8-4.2 7.4-1.5 2.6-3.7 6.7-4.8 9-2.2 4.6-3 6.5-5.5 14.5-1.4 4.3-2.7 19.2-2.2 24.6 0.5 5.2 1.5 12.9 1.8 13.3 0.1 0.2 0.4 1.3 0.8 2.4 6 22.4 19.6 38.4 44.2 52 1.9 1 4 2.2 4.8 2.7 0.8 0.4 4.8 2.8 9 5.2s9.2 5.3 11.2 6.5c9.3 5.5 20.5 11.6 21 11.5 1-0.2 0.9-2.2-0.2-4.5-0.5-1.2-1.1-2.9-1.2-3.7-0.2-0.8-0.6-2.4-1-3.4-1.7-4.3-2.1-24.3-0.6-29.5 0.3-1.2 0.9-3.3 1.2-4.6 1.6-5.9 5.7-14.6 11.7-24.4 0.7-1.1 3.1-5.2 5.3-9.2 2.3-4 4.6-7.9 5.1-8.8s1.4-2.5 1.9-3.6c0.6-1.1 1.6-2.7 2.1-3.6 0.6-0.9 2.3-3.9 3.9-6.6 3.5-6 17.5-30.3 20.5-35.6 1.2-2.1 3.1-5.3 4.1-7.2s2.3-4.2 2.9-5c0.5-0.9 2.3-3.9 3.9-6.8s3.7-6.6 4.8-8.2c11.6-18.7 7.7-36.8-10.4-47.7-4.4-2.6-13.8-8-16.4-9.3-1.2-0.6-3.2-1.8-4.5-2.7-1.2-0.8-2.4-1.5-2.5-1.5s-1.8-0.9-3.7-2.1c-1.9-1.1-4.2-2.4-5.1-2.9-1.3-0.7-4.4-2.5-9.6-5.5-0.4-0.3-1.5-0.9-2.3-1.4-3-1.8-6.4-3-10.7-3.5-4.8-0.7-4.6-0.7-9.7 0zm234.7 2.6c2.8 0 3.4 0.1 3.4 0.6s0.7 0.6 3.6 0.6 3.6 0.1 3.6 0.6 0.6 0.6 3 0.6c2.2 0 3 0.1 3.1 0.6 0.2 0.4 0.8 0.6 1.5 0.6q1.2 0 1.2 0.6c0 0.4 0.5 0.6 1.8 0.6s1.8 0.2 1.8 0.6q0 0.6 1.2 0.6t1.2 0.6 1.2 0.6 1.2 0.6 1.2 0.6 1.2 0.6c0 0.3 0.3 0.6 0.6 0.6s0.6 0.3 0.6 0.6q0 0.6 1.2 0.6t1.2 0.6c0 0.3 0.3 0.6 0.6 0.6s0.6 0.3 0.6 0.6q0 0.6 1.2 0.6t1.2 0.6c0 0.3 0.3 0.6 0.6 0.6s0.6 0.3 0.6 0.6 0.3 0.6 0.6 0.6 0.6 0.3 0.6 0.6q0 0.6 1.2 0.6c0.7 0 1.2 0.2 1.2 0.4s1.2 1.6 2.6 3c1.5 1.5 2.6 3 2.6 3.4s0.3 0.8 0.6 0.8 0.6 0.3 0.6 0.6 0.3 0.6 0.6 0.6 0.6 0.2 0.6 0.4c0 0.3 0.3 0.7 0.6 1.1 0.3 0.3 0.6 0.9 0.6 1.3 0 0.5 0.3 0.8 0.6 0.8s0.6 0.3 0.6 0.6 0.3 0.6 0.6 0.6q0.6 0 0.6 1.2t0.6 1.2 0.6 1.2 0.6 1.2 0.6 1.2 0.6 1.2 0.6 1.2 0.6 1.2c0.4 0 0.6 0.5 0.6 1.8 0 1.1 0.2 1.8 0.6 1.9 0.4 0.2 0.6 0.9 0.6 2.4 0 1.6 0.2 2.3 0.6 2.4 0.4 0.2 0.6 0.9 0.6 2.7 0 1.9 0.1 2.4 0.6 2.4s0.6 1.5 0.6 10.8-0.1 10.8-0.6 10.8-0.6 0.5-0.6 2.4-0.1 2.4-0.6 2.4-0.6 0.5-0.6 2.4c0 1.7-0.2 2.4-0.6 2.5-0.4 0.2-0.6 0.8-0.6 2.1s-0.2 1.8-0.6 1.8q-0.6 0-0.6 1.2t-0.6 1.2-0.6 1.2-0.6 1.2-0.6 1.2-0.6 1.2-0.6 1.2-0.6 1.2c-0.3 0-0.6 0.3-0.6 0.6s-0.3 0.6-0.6 0.6q-0.6 0-0.6 1.2t-0.6 1.2-0.6 1.2-0.6 1.2c-0.3 0-0.6 0.3-0.6 0.6s-0.3 0.6-0.6 0.6q-0.6 0-0.6 1.2t-0.6 1.2-0.6 1.2c0 0.6-0.3 1.2-0.6 1.3-0.3 0.2-0.6 0.7-0.6 1.2s-0.5 1.3-1.2 1.9c-0.6 0.6-1.2 1.4-1.2 1.9s-0.3 1-0.6 1.1c-0.3 0.2-0.7 0.8-0.8 1.4-0.1 0.7-0.5 1.2-0.8 1.2q-0.6 0-0.6 1.2t-0.6 1.2-0.6 1.2-0.6 1.2c-0.3 0-0.6 0.3-0.6 0.6s-0.3 0.6-0.6 0.6-0.6 0.3-0.6 0.6-0.3 0.6-0.6 0.6c-0.4 0-0.6 0.4-0.6 1.6q0 1.6-0.6 1.9c-0.3 0.1-0.6 0.4-0.6 0.7s-0.3 0.6-0.6 0.6q-0.6 0-0.6 1.2t-0.6 1.2-0.6 1.2-0.6 1.2c-0.3 0-0.6 0.3-0.6 0.6s-0.3 0.6-0.6 0.6q-0.6 0-0.6 1.2c0 0.7-0.2 1.3-0.6 1.5-0.3 0.1-0.6 0.6-0.6 1.2 0 0.5-0.3 1-0.6 1.2-0.3 0.1-0.6 0.4-0.6 0.7s-0.3 0.6-0.6 0.6q-0.6 0-0.6 1.2t-0.6 1.2-0.6 1.2-0.6 1.2c-0.3 0-0.6 0.3-0.6 0.8 0 0.4-0.3 0.9-0.6 1.2s-0.6 0.7-0.6 1c0 0.4-0.3 0.6-0.6 0.6q-0.6 0-0.6 1.2t-0.6 1.2-0.6 1.2-0.6 1.2-0.6 1.2-0.6 1.2c-0.3 0-0.6 0.3-0.6 0.6s-0.3 0.6-0.6 0.6q-0.6 0-0.6 1.2t-0.6 1.2c-0.4 0-0.6 0.4-0.6 1s-0.3 1.1-0.6 1.3c-0.3 0.1-0.6 0.4-0.6 0.8 0 0.3-0.3 0.6-0.6 0.8-0.3 0.1-0.6 0.6-0.6 1.2 0 0.5-0.3 1-0.6 1.1-0.3 0.2-0.6 0.8-0.7 1.4-0.2 0.7-0.5 1.2-0.9 1.2q-0.6 0-0.6 1.2t-0.6 1.2c-0.3 0-0.6 0.3-0.6 0.6s-0.3 0.6-0.6 0.6q-0.6 0-0.6 1.2t-0.6 1.2-0.6 1.2-0.6 1.2c-0.4 0-0.6 0.4-0.6 1s-0.3 1.1-0.6 1.3c-0.3 0.1-0.6 0.4-0.6 0.7s-0.3 0.6-0.6 0.6q-0.6 0-0.6 1.2t-0.6 1.2-0.6 1.2-0.6 1.2c-0.3 0-0.6 0.3-0.6 0.6s-0.3 0.6-0.6 0.6q-0.6 0-0.6 1.2t-0.6 1.2-0.6 1.2-0.6 1.2c-0.3 0-0.6 0.4-0.6 0.8s-0.3 0.8-0.6 0.8q-0.6 0-0.6 1.2t-0.6 1.2c-0.3 0-0.6 0.4-0.6 0.8 0 0.5-0.3 0.9-0.6 1.1-0.3 0.1-0.6 0.5-0.6 0.9 0 0.5-0.3 0.8-0.6 0.8s-0.6 0.3-0.6 0.6-0.3 0.6-0.6 0.6-0.6 0.3-0.6 0.6-0.3 0.6-0.6 0.6-0.6 0.3-0.6 0.6-0.3 0.6-0.6 0.6-0.6 0.3-0.6 0.6q0 0.6-1.2 0.6t-1.2 0.6c0 0.3-0.3 0.6-0.6 0.6s-0.6 0.3-0.7 0.6c-0.2 0.3-0.7 0.6-1.2 0.6-0.6 0-1.1 0.3-1.2 0.6-0.2 0.4-0.8 0.6-1.5 0.6q-1.2 0-1.2 0.6c0 0.4-0.5 0.6-1.8 0.6s-1.8 0.2-1.8 0.6c0 0.5-1.3 0.6-9 0.6s-9-0.1-9-0.6c0-0.4-0.5-0.6-1.8-0.6s-1.8-0.2-1.8-0.6q0-0.6-1.2-0.6t-1.2-0.6-1.2-0.6-1.2-0.6c0-0.3-0.3-0.6-0.6-0.6s-0.6-0.3-0.7-0.6c-0.2-0.4-0.8-0.6-1.5-0.6q-1.2 0-1.2-0.6c0-0.4-0.4-0.6-1-0.6s-1.1-0.3-1.3-0.6c-0.1-0.3-0.6-0.6-1.2-0.6-0.5 0-1-0.3-1.2-0.6-0.1-0.3-0.4-0.6-0.7-0.6s-0.6-0.3-0.6-0.6q0-0.6-1.2-0.6t-1.2-0.6c0-0.4-0.4-0.6-1-0.6s-1.1-0.3-1.3-0.6c-0.1-0.3-0.4-0.6-0.7-0.6s-0.6-0.3-0.6-0.6q0-0.6-1.2-0.6h-1.2v-4.4c0-3.6 0.1-4.4 0.6-4.4 0.4 0 0.6-0.4 0.6-1s0.3-1.1 0.6-1.3c0.3-0.1 0.6-0.4 0.6-0.7s0.3-0.6 0.6-0.6q0.6 0 0.6-1.2t0.6-1.2c0.4 0 0.6-0.4 0.6-1s0.3-1.1 0.6-1.3c0.3-0.1 0.6-0.6 0.6-1.2 0-0.5 0.3-1 0.6-1.2 0.3-0.1 0.6-0.4 0.6-0.7s0.3-0.6 0.6-0.6q0.6 0 0.6-1.2t0.6-1.2 0.6-1.2 0.6-1.2c0.4 0 0.6-0.4 0.6-1s0.3-1.1 0.6-1.3c0.3-0.1 0.6-0.4 0.6-0.7s0.3-0.6 0.6-0.6q0.6 0 0.6-1.2t0.6-1.2c0.4 0 0.6-0.4 0.6-1s0.6-1.6 1.4-2.4 1.4-1.8 1.4-2.2c0-0.5 0.3-0.8 0.6-0.8q0.6 0 0.6-1.2t0.6-1.2 0.6-1.2 0.6-1.2c0.3 0 0.6-0.3 0.6-0.6s0.3-0.6 0.6-0.6q0.6 0 0.6-1.2t0.6-1.2 0.6-1.2 0.6-1.2c0.4 0 0.6-0.4 0.6-1s0.3-1.1 0.6-1.3c0.3-0.1 0.6-0.4 0.6-0.7s0.3-0.6 0.6-0.6q0.6 0 0.6-1.2t0.6-1.2 0.6-1.2 0.6-1.2c0.4 0 0.6-0.4 0.6-1s0.3-1.1 0.6-1.3c0.3-0.1 0.6-0.4 0.6-0.7s0.3-0.6 0.6-0.6q0.6 0 0.6-1.2c0-0.7 0.2-1.3 0.6-1.5 0.3-0.1 0.6-0.4 0.6-0.7s0.3-0.6 0.6-0.6c0.4 0 0.6-0.4 0.6-1.6 0-1 0.2-1.6 0.6-1.7 0.3-0.2 0.6-0.6 0.6-0.9s0.3-0.6 0.6-0.6q0.6 0 0.6-1.2t0.6-1.2c0.4 0 0.6-0.4 0.6-1s0.3-1.1 0.6-1.3c0.3-0.1 0.6-0.4 0.6-0.7s0.3-0.6 0.6-0.6q0.6 0 0.6-1.2t0.6-1.2c0.3 0 0.6-0.3 0.6-0.6s0.3-0.6 0.6-0.6q0.6 0 0.6-1.2t0.6-1.2 0.6-1.2 0.6-1.2 0.6-1.2 0.6-1.2c0.4 0 0.6-0.4 0.6-0.9s0.6-1.5 1.4-2.2c0.9-0.8 1.4-1.6 1.4-2.3 0-0.6 0.2-1 0.6-1q0.6 0 0.6-1.2t0.6-1.2 0.6-1.2 0.6-1.2c0.3 0 0.6-0.3 0.6-0.6s0.3-0.6 0.6-0.6q0.6 0 0.6-1.2t0.6-1.2 0.6-1.2 0.6-1.2 0.6-1.2 0.6-1.2c0.5 0 0.6-0.5 0.6-2.4s0.1-2.4 0.6-2.4 0.6-1.2 0.6-8.6-0.1-8.6-0.6-8.6-0.6-0.5-0.6-2.4-0.1-2.4-0.6-2.4q-0.6 0-0.6-1.2t-0.6-1.2-0.6-1.2-0.6-1.2-0.6-1.2-0.6-1.2c-0.3 0-0.6-0.4-0.6-0.8s-0.3-0.8-0.6-0.8c-0.4 0-0.6-0.4-0.6-1s-0.2-1-0.6-1c-0.3 0-0.6-0.3-0.6-0.6s-0.3-0.6-0.6-0.6-0.6-0.4-0.6-0.8c0-0.5-0.3-0.8-0.6-0.8s-0.7-0.3-0.9-0.6c-0.1-0.3-0.4-0.6-0.7-0.6s-0.6-0.3-0.6-0.6-0.3-0.6-0.6-0.6-0.6-0.3-0.6-0.6-0.3-0.6-0.6-0.6-0.6-0.3-0.6-0.6q0-0.6-1.2-0.6t-1.2-0.6-1.2-0.6-1.2-0.6c0-0.3-0.3-0.6-0.6-0.6s-0.6-0.3-0.6-0.6q0-0.6-1.2-0.6t-1.2-0.6-1.2-0.6-1.2-0.6c0-0.4-0.4-0.6-1-0.6s-1.1-0.3-1.3-0.6c-0.1-0.3-0.4-0.6-0.7-0.6s-0.6-0.3-0.6-0.6q0-0.6-1.2-0.6t-1.2-0.6-1.2-0.6-1.2-0.6c0-0.3-0.3-0.6-0.6-0.6s-0.6-0.3-0.6-0.6q0-0.6-1.2-0.6t-1.2-0.6c0-0.3-0.3-0.6-0.6-0.6-0.5 0-0.6-0.6-0.6-3s0.1-3 0.6-3q0.6 0 0.6-1.2t0.6-1.2c0.3 0 0.6-0.3 0.6-0.6s0.3-0.6 0.6-0.6q0.6 0 0.6-1.2c0-0.6 0.3-1.2 0.6-1.3 0.3-0.2 0.6-0.6 0.6-0.9s0.3-0.6 0.6-0.6 0.6-0.3 0.6-0.6 0.3-0.6 0.6-0.6 0.6-0.3 0.6-0.6 0.3-0.6 0.6-0.6 0.6-0.3 0.6-0.6 0.3-0.6 0.6-0.6 0.6-0.3 0.6-0.6 0.3-0.6 0.6-0.6 0.6-0.3 0.6-0.6 0.3-0.6 0.6-0.6 0.6-0.3 0.6-0.6 0.3-0.6 0.6-0.6 0.6-0.3 0.6-0.6 0.3-0.6 0.6-0.6 0.6-0.3 0.6-0.6q0-0.6 1.2-0.6t1.2-0.6c0-0.3 0.3-0.6 0.6-0.6s0.6-0.3 0.6-0.6q0-0.6 1.2-0.6t1.2-0.6 1.2-0.6 1.2-0.6 1.2-0.6c0.6 0 1.2-0.3 1.3-0.6 0.2-0.4 0.8-0.6 2.1-0.6s1.8-0.2 1.8-0.6q0-0.6 1.2-0.6t1.2-0.6c0-0.5 0.7-0.6 3.6-0.6s3.6-0.1 3.6-0.6 0.7-0.6 3.6-0.6c2.8 0 3.6-0.1 3.7-0.6 0.2-0.5 1-0.6 3.7-0.6zm-6.8 3.2c-0.9 0.2-3 0.5-4.6 0.8-3.6 0.4-8.1 1.8-12.3 3.8-1.6 0.8-3.1 1.4-3.2 1.4-2.4 0-15.3 11.7-18.8 17.2-3.4 5.1-3.2 5.5 4.9 10 2 1.1 4.1 2.4 4.8 2.8 0.7 0.3 2.2 1.2 3.5 1.9 11.4 6.3 19.6 15.4 22.1 24.7 0.3 1.1 0.7 2.5 1 3.1 1.6 4.2 1.4 16-0.4 21.5-1.5 4.6-5.2 11.9-9.7 18.8-1 1.7-1.9 3.1-1.9 3.3 0 0.3-2.1 3.9-8.1 14.3-1.1 1.9-3 5-4.1 7s-2.6 4.6-3.3 5.7c-0.7 1.2-1.3 2.2-1.3 2.3 0 0.2-1.4 2.6-3.1 5.5-1.8 2.9-3.9 6.6-4.9 8.3-0.9 1.6-3.8 6.6-6.3 11s-5.9 10.3-7.5 13c-1.6 2.8-3.3 5.7-3.9 6.6-5.7 9.1-6.2 8.1 8.5 16.9 18.3 10.9 29.7 10.8 42.8-0.1 3.1-2.7 5.3-6.2 19.7-31.4 1.3-2.3 3.4-5.8 4.6-7.7 1.1-2 2.1-3.7 2.1-3.8s1.1-2.1 2.5-4.4c1.4-2.4 4.1-7 6-10.3s4.1-7.1 4.9-8.4c1.2-2.1 4.8-8.1 11.8-20.2 0.9-1.7 3.2-5.6 5-8.8s4.2-7.3 5.4-9.2c2.7-4.2 5.9-11.1 7.4-15.6 0.6-1.9 1.3-3.6 1.5-3.8 0.1-0.2 0.3-1 0.3-1.9 0-0.8 0.3-2.8 0.6-4.4 0.8-3.4 0.9-12.9 0.2-15.8-0.2-1-0.6-3.3-0.8-4.9-1.3-11.8-12.3-29.4-22.6-36.4-6.1-4.2-7.6-5.1-12-7.2-6.1-2.9-9.9-4.1-16.1-5.2-5.1-0.8-11.7-1-14.7-0.4zm-44.6 36.2q0 0.6 1.2 0.6c0.7 0 1.3 0.2 1.5 0.6 0.1 0.3 0.6 0.6 1.2 0.6 0.5 0 1 0.3 1.2 0.6 0.1 0.3 0.6 0.6 1.2 0.6 0.5 0 1 0.3 1.2 0.6 0.1 0.3 0.4 0.6 0.7 0.6s0.6 0.3 0.6 0.6q0 0.6 1.2 0.6t1.2 0.6c0 0.3 0.3 0.6 0.6 0.6s0.6 0.3 0.6 0.6q0 0.6 1.2 0.6t1.2 0.6c0 0.4 0.4 0.6 1 0.6s1.1 0.3 1.3 0.6c0.1 0.3 0.6 0.6 1 0.6 0.9 0 2.7 1.6 2.7 2.4 0 0.2 0.5 0.4 1.2 0.4q1.2 0 1.2 0.6c0 0.3 0.3 0.6 0.6 0.6s0.6 0.3 0.6 0.6 0.3 0.6 0.6 0.6 0.6 0.3 0.6 0.6 0.3 0.6 0.6 0.6 0.6 0.3 0.6 0.6 0.3 0.6 0.6 0.6 0.6 0.3 0.6 0.6 0.3 0.6 0.6 0.6q0.6 0 0.6 1.2t0.6 1.2c0.3 0 0.7 0.5 0.8 1 0.2 0.6 0.8 1.6 1.5 2.3 0.8 0.8 1.1 1.5 1.1 2.5 0 0.8 0.2 1.4 0.6 1.5q0.6 0.3 0.6 1.8 0 1.6 0.6 1.8c0.5 0.2 0.6 1.4 0.6 7.1 0 5.5-0.1 6.9-0.6 7.3-0.3 0.4-0.6 1.3-0.6 2.1 0 0.9-0.2 1.5-0.6 1.7-0.3 0.1-0.6 0.6-0.6 1.2 0 0.5-0.3 1-0.6 1.2-0.3 0.1-0.6 0.6-0.6 1.1 0 0.6-0.3 1.2-0.8 1.4s-0.8 0.8-0.8 1.4-0.2 1-0.6 1q-0.6 0-0.6 1.2t-0.6 1.2-0.6 1.2-0.6 1.2c-0.3 0-0.6 0.3-0.6 0.6s-0.3 0.6-0.6 0.6q-0.6 0-0.6 1.2t-0.6 1.2-0.6 1.2-0.6 1.2c-0.3 0-0.6 0.3-0.6 0.6s-0.3 0.6-0.6 0.7c-0.4 0.2-0.6 0.8-0.6 1.5q0 1.2-0.6 1.2t-0.6 1.2-0.6 1.2c-0.4 0-0.6 0.4-0.6 1s-0.3 1.1-0.6 1.3c-0.3 0.1-0.6 0.4-0.6 0.7s-0.3 0.6-0.6 0.6q-0.6 0-0.6 1.2t-0.6 1.2-0.6 1.2-0.6 1.2-0.6 1.2-0.6 1.2c-0.3 0-0.6 0.3-0.6 0.6s-0.3 0.6-0.6 0.6q-0.6 0-0.6 1.2t-0.6 1.2-0.6 1.2-0.6 1.2-0.6 1.2-0.6 1.2c-0.3 0-0.6 0.3-0.6 0.6s-0.3 0.6-0.6 0.6q-0.6 0-0.6 1.2t-0.6 1.2c-0.4 0-0.6 0.4-0.6 1s-0.3 1.1-0.6 1.3c-0.3 0.1-0.6 0.4-0.6 0.8 0 0.3-0.3 0.6-0.6 0.8-0.3 0.1-0.6 0.6-0.6 1.2 0 0.5-0.3 1-0.6 1.2-0.3 0.1-0.6 0.6-0.6 1.2 0 0.5-0.3 1-0.6 1.2-0.3 0.1-0.6 0.5-0.6 0.9 0 0.8-1.7 2.8-2.4 2.8-0.2 0-0.4 0.5-0.4 1.2q0 1.2-0.6 1.2t-0.6 1.2-0.6 1.2c-0.3 0-0.6 0.3-0.6 0.6s-0.3 0.6-0.6 0.6q-0.6 0-0.6 1.2t-0.6 1.2-0.6 1.2-0.6 1.2-0.6 1.2-0.6 1.2c-0.3 0-0.6 0.3-0.6 0.6s-0.3 0.6-0.6 0.6q-0.6 0-0.6 1.2c0 0.7-0.2 1.3-0.6 1.5-0.3 0.1-0.6 0.7-0.6 1.3q0 1.2-0.6 1.2t-0.6 1.2-0.6 1.2c-0.4 0-0.6 0.4-0.6 1s-0.3 1.1-0.6 1.3c-0.3 0.1-0.6 0.4-0.6 0.7s-0.3 0.6-0.6 0.6q-0.6 0-0.6 1.2t-0.6 1.2-0.6 1.2-0.6 1.2c-0.3 0-0.6 0.3-0.6 0.6s-0.3 0.6-0.6 0.6q-0.6 0-0.6 1.2t-0.6 1.2-0.6 1.2-0.6 1.2-0.6 1.2-0.6 1.2c-0.3 0-0.6 0.3-0.6 0.6s-0.3 0.6-0.6 0.6q-0.6 0-0.6 1.2t-0.6 1.2c-0.3 0-0.6 0.3-0.6 0.6s-0.3 0.6-0.6 0.6q-0.6 0-0.6 1.2c0 0.7-0.2 1.3-0.6 1.5-0.3 0.1-0.6 0.6-0.6 1.2 0 0.5-0.3 1-0.6 1.2-0.3 0.1-0.6 0.6-0.6 1.1 0 0.4-0.4 1.1-0.8 1.5s-0.8 1.1-0.8 1.5-0.3 0.8-0.6 0.8-0.6 0.3-0.6 0.6-0.3 0.6-0.6 0.6q-0.6 0-0.6 1.2t-0.6 1.2-0.6 1.2-0.6 1.2-0.6 1.2-0.6 1.2c-0.3 0-0.6 0.3-0.6 0.6s-0.3 0.6-0.6 0.6q-0.6 0-0.6 1.2t-0.6 1.2-0.6 1.2-0.6 1.2c-0.3 0-0.6 0.3-0.6 0.6s-0.3 0.6-0.6 0.6q-0.6 0-0.6 1.2t-0.6 1.2-0.6 1.2c0 0.6-0.3 1.2-0.6 1.3-0.3 0.2-0.6 0.7-0.6 1.2 0 0.6-0.3 1.1-0.6 1.2-0.3 0.2-0.6 0.6-0.6 0.9s-0.3 0.6-0.6 0.6q-0.6 0-0.6 1.2t-0.6 1.2-0.6 1.2-0.6 1.2c-0.3 0-0.6 0.3-0.6 0.6s-0.3 0.6-0.6 0.6q-0.6 0-0.6 1.2t-0.6 1.2-0.6 1.2-0.6 1.2-0.6 1.2-0.6 1.2c-0.3 0-0.6 0.3-0.6 0.6s-0.3 0.6-0.6 0.6q-0.6 0-0.6 1.2t-0.6 1.2c-0.3 0-0.6 0.3-0.6 0.6s-0.3 0.6-0.6 0.6-0.6 0.3-0.6 0.6-0.3 0.6-0.6 0.6-0.6 0.3-0.6 0.6-0.3 0.6-0.6 0.6-0.6 0.3-0.6 0.8c0 1-6.4 7.5-7.8 7.8-0.5 0.2-1 0.5-1 0.8s-0.3 0.6-0.6 0.6-0.6 0.3-0.6 0.6q0 0.6-1.2 0.6t-1.2 0.6c0 0.3-0.3 0.6-0.6 0.6s-0.6 0.3-0.6 0.6q0 0.6-1.2 0.6t-1.2 0.6-1.2 0.6-1.2 0.6-1.2 0.6-1.2 0.6-1.2 0.6-1.2 0.6c0 0.4-0.5 0.6-1.8 0.6s-1.8 0.2-1.8 0.6-0.5 0.6-1.8 0.6c-1.1 0-1.8 0.2-1.9 0.6-0.2 0.4-0.9 0.6-2.7 0.6-1.9 0-2.4 0.1-2.4 0.6s-1.6 0.6-12 0.6-12-0.1-12-0.6-0.5-0.6-2.4-0.6-2.4-0.1-2.4-0.6-0.5-0.6-2-0.6-2-0.1-2-0.6c0-0.4-0.5-0.6-1.8-0.6s-1.8-0.2-1.8-0.6q0-0.6-1.2-0.6t-1.2-0.6-1.2-0.6-1.2-0.6-1.2-0.6-1.2-0.6-1.2-0.6-1.2-0.6c0-0.3-0.3-0.6-0.6-0.6s-0.6-0.3-0.6-0.6q0-0.6-1.2-0.6t-1.2-0.6c0-0.3-0.3-0.6-0.6-0.6s-0.6-0.3-0.6-0.6q0-0.6-1.2-0.6t-1.2-0.6c0-0.3-0.3-0.6-0.6-0.6s-0.6-0.3-0.6-0.6-0.3-0.6-0.6-0.6-0.6-0.3-0.6-0.6-0.3-0.6-0.6-0.6-0.6-0.3-0.6-0.6-0.3-0.6-0.6-0.6-0.6-0.4-0.6-0.8-0.3-0.8-0.6-0.8-0.6-0.3-0.6-0.6-0.3-0.6-0.6-0.6-0.7-0.3-0.9-0.6c-0.1-0.3-0.4-0.6-0.7-0.6s-0.6-0.3-0.6-0.6-0.3-0.6-0.6-0.6q-0.6 0-0.6-1.2t-0.6-1.2c-0.3 0-0.6-0.3-0.6-0.6s-0.3-0.6-0.6-0.6q-0.6 0-0.6-1.2t-0.6-1.2c-0.3 0-0.6-0.3-0.6-0.6s-0.3-0.6-0.6-0.6q-0.6 0-0.6-1.2t-0.6-1.2-0.6-1.2-0.6-1.2c-0.4 0-0.6-0.5-0.6-1.8s-0.2-1.8-0.6-1.8-0.6-0.5-0.6-1.8c0-1.2-0.2-1.8-0.6-1.9-0.4-0.2-0.6-0.9-0.6-2.7 0-1.9-0.1-2.4-0.6-2.4s-0.6-1.5-0.6-11.4 0.1-11.4 0.6-11.4 0.6-0.5 0.6-2.4 0.1-2.4 0.6-2.4c0.4 0 0.6-0.5 0.6-1.8s0.2-1.9 0.6-2.1q0.6-0.2 0.6-1.8 0-1.5 0.6-1.8c0.3-0.1 0.6-0.7 0.6-1.3q0-1.2 0.6-1.2t0.6-1.2 0.6-1.2c0.3 0 0.6-0.3 0.6-0.6 0-0.5 0.6-0.6 3.4-0.6 2.7 0 3.5 0.1 3.7 0.6 0.1 0.3 0.4 0.6 0.8 0.6 0.3 0 0.6 0.3 0.8 0.6 0.1 0.3 0.6 0.6 1.2 0.6 0.5 0 1 0.3 1.2 0.6 0.1 0.3 0.7 0.6 1.3 0.6q1.2 0 1.2 0.6c0 0.4 0.4 0.6 1 0.6s1.1 0.3 1.3 0.6c0.1 0.3 0.4 0.6 0.7 0.6s0.6 0.3 0.6 0.6q0 0.6 1.2 0.6t1.2 0.6 1.2 0.6 1.2 0.6c0 0.3 0.3 0.6 0.8 0.6 0.4 0 1 0.3 1.3 0.6s1.1 0.7 1.7 0.8c0.5 0.2 1 0.4 1 0.6s0.5 0.5 1.2 0.6 1.2 0.5 1.2 0.8q0 0.6 1.2 0.6t1.2 0.6c0 0.5 0.6 0.6 3 0.6s3 0.1 3 0.6 1 0.6 6.2 0.6 6.2-0.1 6.2-0.6c0-0.4 0.5-0.6 1.8-0.6s1.8-0.2 1.8-0.6 0.5-0.6 1.8-0.6 1.8-0.2 1.8-0.6c0-0.3 0.6-0.6 1.8-0.8 0.9-0.2 1.8-0.5 2-0.8 0.1-0.3 0.6-0.6 1.1-0.6s1.3-0.6 1.9-1.2c0.5-0.7 1.4-1.2 1.8-1.2 0.5 0 1-0.3 1.1-0.6 0.2-0.3 0.6-0.6 0.9-0.6s0.6-0.3 0.6-0.6 0.3-0.6 0.6-0.6 0.6-0.3 0.6-0.6 0.3-0.6 0.6-0.6 0.6-0.3 0.6-0.6 0.3-0.6 0.6-0.6 0.6-0.3 0.6-0.6 0.3-0.6 0.6-0.6 0.6-0.3 0.6-0.6 0.3-0.6 0.6-0.6q0.6 0 0.6-1.2t0.6-1.2 0.6-1.2 0.6-1.2c0.3 0 0.6-0.3 0.6-0.6s0.3-0.6 0.6-0.6q0.6 0 0.6-1.2t0.6-1.2c0.3 0 0.6-0.3 0.6-0.6s0.3-0.6 0.6-0.6q0.6 0 0.6-1.2t0.6-1.2 0.6-1.2 0.6-1.2 0.6-1.2 0.6-1.2c0.3 0 0.6-0.3 0.6-0.6s0.3-0.7 0.6-0.9c0.3-0.1 0.6-0.7 0.6-1.3q0-1.2 0.6-1.2c0.4 0 0.6-0.4 0.6-1s0.3-1.1 0.6-1.3c0.3-0.1 0.6-0.4 0.6-0.7s0.3-0.6 0.6-0.6q0.6 0 0.6-1.2t0.6-1.2 0.6-1.2 0.6-1.2 0.6-1.2 0.6-1.2c0.3 0 0.6-0.3 0.6-0.6s0.3-0.6 0.6-0.6q0.6 0 0.6-1.2t0.6-1.2 0.6-1.2 0.6-1.2c0.3 0 0.6-0.3 0.6-0.8 0-0.4 0.3-1 0.6-1.3 0.3-0.4 0.6-0.8 0.6-1.1 0-0.2 0.3-0.4 0.6-0.4 0.4 0 0.6-0.4 0.6-1q0-1.1 0.8-1.3c0.6-0.1 0.8-0.5 0.8-1.3 0-0.6 0.3-1.2 0.6-1.3 0.3-0.2 0.6-0.7 0.6-1.2 0-0.6 0.3-1.1 0.6-1.2 0.3-0.2 0.6-0.6 0.6-0.9s0.3-0.6 0.6-0.6q0.6 0 0.6-1.2t0.6-1.2 0.6-1.2 0.6-1.2 0.6-1.2 0.6-1.2c0.3 0 0.6-0.3 0.6-0.6s0.3-0.6 0.6-0.6q0.6 0 0.6-1.2t0.6-1.2 0.6-1.2 0.6-1.2c0.3 0 0.6-0.3 0.6-0.6s0.3-0.6 0.6-0.6q0.6 0 0.6-1.2t0.6-1.2 0.6-1.2 0.6-1.2c0.3 0 0.6-0.3 0.6-0.6s0.3-0.6 0.6-0.6q0.6 0 0.6-1.2t0.6-1.2 0.6-1.2c0-0.7 0.2-1.3 0.6-1.5 0.3-0.1 0.6-0.6 0.6-1.2 0-0.5 0.3-1 0.6-1.2 0.3-0.1 0.6-0.4 0.6-0.7s0.3-0.6 0.6-0.6q0.6 0 0.6-1.2t0.6-1.2 0.6-1.2 0.6-1.2c0.4 0 0.6-0.4 0.6-1s0.3-1.1 0.6-1.3c0.3-0.1 0.6-0.4 0.6-0.7s0.3-0.6 0.6-0.6q0.6 0 0.6-1.2t0.6-1.2 0.6-1.2 0.6-1.2c0.3 0 0.6-0.3 0.6-0.6s0.3-0.6 0.6-0.6c0.4 0 0.6-0.4 0.6-1q0-1.1 0.8-1.3c0.6-0.1 0.8-0.5 0.8-1.3q0-1.2 0.6-1.2t0.6-1.2 0.6-1.2 0.6-1.2 0.6-1.2c0.3 0 0.6-0.4 0.6-0.8s0.3-0.8 0.6-0.8q0.6 0 0.6-1.2t0.6-1.2c0.3 0 0.6-0.3 0.6-0.6s0.3-0.6 0.6-0.6q0.6 0 0.6-1.2t0.6-1.2 0.6-1.2 0.6-1.2 0.6-1.2 0.6-1.2c0.4 0 0.6-0.4 0.6-1s0.3-1.1 0.6-1.3c0.3-0.1 0.6-0.4 0.6-0.7s0.3-0.6 0.6-0.6q0.6 0 0.6-1.2t0.6-1.2c0.4 0 0.6-0.4 0.6-1s0.3-1.1 0.6-1.3c0.3-0.1 0.6-0.4 0.6-0.7s0.3-0.6 0.6-0.6q0.6 0 0.6-1.2t0.6-1.2 0.6-1.2 0.6-1.2c0.4 0 0.6-0.4 0.6-1s0.5-1.5 1.2-2.2c0.7-0.6 1.2-1.5 1.2-2s0.3-0.9 0.6-1.1c0.3-0.1 0.6-0.6 0.6-1.2 0-0.5 0.3-1 0.6-1.2 0.3-0.1 0.6-0.4 0.6-0.7s0.3-0.6 0.6-0.6 0.6-0.4 0.6-0.8c0-0.5 0.4-1.3 0.9-1.8 1.1-1.2 5.1-1.5 5.1-0.4zm-3.7 3.5c-1.3 1.7-4.9 7.5-6.3 10.1-1.3 2.4-5.6 9.8-6 10.4-0.2 0.2-0.9 1.5-1.6 2.8-1.4 2.5-7 12-8.7 14.7-0.5 0.8-0.9 1.6-0.9 1.7s-1.1 1.9-2.3 4.1c-1.3 2.1-3.7 6.2-5.3 9.1-1.6 2.8-3.6 6.3-4.5 7.8-0.9 1.4-2.1 3.5-2.7 4.6-1.5 2.9-3.1 5.7-4.7 8.2-1.3 2.1-4.5 7.6-9.1 15.6-1.1 1.9-3.2 5.6-4.7 8.2-3.9 6.7-10 17.3-11.2 19.4-0.5 1-1.9 3.3-3 5.2s-3.3 5.6-4.9 8.4c-5.2 8.9-6.1 10.1-10.6 14.6-6 5.9-10.4 8.2-21.6 11.1-0.9 0.2-4.2 0.3-7.8 0.2-10.1-0.3-11.8-1-32.6-13-7.2-4.1-8-3.7-11.4 6-9.9 28.1 2 55.7 30 69.7 19.5 9.8 40.8 8.5 59.9-3.4 10-6.3 15.5-13 26.5-32.4 2-3.6 5.2-9.1 8.6-14.8 1.4-2.3 3-5.2 3.7-6.4 3-5.5 6.5-11.6 7.9-13.8 0.8-1.3 2.7-4.4 4-6.8 1.4-2.4 3-5.3 3.6-6.3 0.7-1.1 1.6-2.6 2-3.4 0.5-0.8 2.6-4.6 4.8-8.3s4.8-8.4 5.9-10.4 2.3-4 2.7-4.6c0.4-0.5 2.1-3.5 3.8-6.6s4-7 5.1-8.7c1-1.7 1.9-3.2 1.9-3.3 0-0.2 5.2-9.1 8.4-14.6 0.9-1.5 1.6-2.8 1.6-2.9s1.6-2.8 3.5-6c8.9-14.9 10.8-18.7 12.5-25.9 2.6-10.5-4.4-24.5-15.4-30.9-1.5-0.9-4.8-2.8-7.2-4.3s-6-3.5-7.9-4.5c-4.1-2.2-4.7-2.3-6-0.6z"/>
<path class="s0" d="m229.2 29.6c6.4 0 10 0.1 10 0.4 0 0.2 1.6 0.4 4 0.4 3.4 0 4 0.1 4 0.6s0.4 0.6 1.3 0.6c3.2-0.2 4.3 0 4 0.6-0.1 0.5 0.2 0.6 1.9 0.6 1.5 0 2 0.1 2 0.6s0.5 0.6 2 0.6c1.6 0 2 0.1 2 0.6 0 0.6 0.3 0.6 1.2 0.5 1-0.2 1.2-0.2 1.2 0.5s0.2 0.8 1.1 0.8c1.9-0.2 2.5 0 2.5 0.6q0 0.6 1.2 0.6t1.2 0.6 1.2 0.6 1.2 0.6c0 0.4 0.4 0.6 1 0.6s1.1 0.3 1.3 0.6c0.1 0.3 0.5 0.6 0.9 0.6 0.5 0 0.8 0.3 0.8 0.6q0 0.6 1.2 0.6t1.2 0.6c0 0.4 0.3 0.6 0.7 0.6 1.3-0.2 1.7 0 1.7 0.6q0 0.6 1.2 0.6c1 0 1.2 0.1 1.1 0.6q-0.3 0.6 0.5 0.6c0.4 0 0.8 0.3 0.8 0.6 0 0.4 0.4 0.6 1 0.6 0.5 0 1.1 0.3 1.4 0.8q0.4 0.7 1.2 0.5c0.6-0.1 0.9 0 1.1 0.6 0.1 0.5 0.5 0.9 0.9 0.9 0.5 0 0.8 0.2 0.8 0.4s0.6 0.4 1.4 0.4c1 0 1.3 0.2 1.3 0.7-0.1 0.4 0.2 0.7 0.7 0.8 0.4 0.1 0.9 0.4 1.1 0.7 0.2 0.4 0.8 0.6 1.3 0.6 0.6 0 1 0.2 0.9 0.5s0.3 0.5 0.9 0.5c0.9 0 1 0.1 0.9 0.7-0.2 0.7-0.1 0.8 0.8 0.6 0.8-0.1 1.1 0 1.3 0.6 0.2 0.5 0.5 0.7 1.1 0.6 0.6-0.2 0.8 0 1 0.5 0.1 0.5 0.5 0.8 0.9 0.8 0.5 0 0.8 0.3 0.8 0.6q0 0.6 1.2 0.6t1.2 0.6 1.2 0.6 1.2 0.6c0 0.5 0.2 0.6 0.8 0.5 0.7-0.2 0.9 0 1.1 0.5 0.1 0.5 0.5 0.8 1.1 0.8 0.7 0 1 0.2 1 0.6 0 0.5 0.3 0.6 1.1 0.5 1-0.1 1.2 0 1 0.6s0 0.7 1.1 0.7q1.2 0 1.2 0.6c0 0.3 0.4 0.6 0.8 0.6s0.8 0.3 0.8 0.6 0.4 0.6 0.8 0.6c0.5 0 0.7-0.2 0.6-0.4-0.2-0.3 0.1-0.2 0.6 0.1 0.4 0.3 0.8 0.7 0.8 1s0.3 0.5 0.8 0.5c0.4 0 0.8 0.3 0.9 0.6 0.2 0.3 0.7 0.6 1.3 0.6s1 0.2 1 0.6c0 0.3 0.3 0.6 0.6 0.6s0.7 0.3 0.9 0.6c0.1 0.3 0.6 0.6 1.1 0.6s1.1 0.3 1.3 0.6 0.7 0.6 1.3 0.7 1 0.3 0.9 0.6 0.4 0.5 1.1 0.5c0.8 0 1.2 0.2 1.3 0.8 0.2 0.7 0.5 0.8 1.8 0.6 0.8-0.1 1.3-0.1 1 0.1-0.6 0.4 0 1.5 0.7 1.1 0.2-0.1 0.4 0.1 0.4 0.5 0 0.6 0.2 0.7 1.2 0.6 1-0.2 1.2-0.1 1.2 0.7 0 0.9 1 1.1 1.3 0.3 0.1-0.3 0.4 0 0.6 0.6 0.3 0.6 0.7 1.1 1 1.1 0.4 0 0.7 0.2 0.8 0.6q0.3 0.4 1.2 0.3c0.8-0.1 1 0 1.2 0.7s0.5 0.9 1.3 0.7 1 0 1 0.6 0.2 0.8 1 0.6 1.1 0 1.3 0.5c0.1 0.5 0.4 0.8 0.8 0.8 0.3 0 0.6 0.3 0.8 0.6 0.1 0.3 0.6 0.6 1.1 0.6 0.6 0 1 0.2 1 0.6s0.4 0.6 1 0.6 1.1 0.3 1.3 0.6c0.1 0.4 0.7 0.6 1.5 0.6 1.1 0 1.3 0.1 1.1 0.6q-0.2 0.6 0.5 0.6c0.3 0 0.7 0.3 0.9 0.6 0.1 0.3 0.6 0.6 1.1 0.6 0.6 0 1 0.2 1 0.6q0 0.6 1.2 0.6t1.2 0.6c0 0.3 0.4 0.6 0.8 0.6s0.8 0.3 0.8 0.6q0 0.6 1.2 0.6c0.7 0 1.2 0.2 1.2 0.5 0 0.7 1.6 2 2.2 1.8q0.5-0.2 0.3 0.5c-0.2 0.7 0 0.8 1.6 0.8q1.7 0 1.2 0.4c-0.6 0.3 4.5 6 5.4 6 0.3 0 0.5 0.3 0.5 0.6 0 0.4 0.2 0.6 0.6 0.5 0.4-0.2 0.6 0 0.6 0.3s0.3 0.6 0.6 0.6 0.6 0.1 0.6 0.3c-0.2 1.2 0.1 2.5 0.6 2.5 0.3 0 0.6 0.2 0.6 0.4 0 0.6 1.3 2 1.9 2 0.3 0 0.5 0.5 0.5 1.3 0 1.2 0 1.2 0.6 0.5 0.5-0.8 0.6-0.7 0.6 0.5q0 1.3 0.6 1.3t0.6 1.2 0.6 1.2c0.3 0 0.6 0.3 0.6 0.8 0 0.4 0.3 0.8 0.6 0.9 0.3 0.2 0.6 0.7 0.6 1.3s0.2 1 0.6 1 0.6 0.4 0.6 1.6 0.2 1.6 0.6 1.6 0.6 0.4 0.6 1 0.3 1.1 0.6 1.3c0.4 0.1 0.6 0.7 0.6 1.9 0 1.3 0.2 1.8 0.6 1.8 0.5 0 0.6 0.5 0.6 2s0.1 2 0.6 2 0.6 0.5 0.6 2.4 0.1 2.4 0.6 2.4 0.6 0.7 0.6 3.8c0 2.3 0.2 3.8 0.4 3.8s0.4 2.3 0.4 6.2-0.2 6.2-0.4 6.2-0.4 1.7-0.4 4.4c0 3.6-0.1 4.4-0.6 4.4s-0.6 0.5-0.6 2.4c0 1.7-0.1 2.4-0.5 2.3q-0.5-0.1-0.6 1.8t-0.7 1.9c-0.3 0-0.6 0.2-0.7 0.5s-0.1 0 0-0.7c0-0.7 0.3-1.3 0.5-1.3 0.2-0.1 0.4-0.7 0.4-1.4s0.2-2 0.4-2.9c0.3-0.9 0.6-2.3 0.8-3.2 0.3-0.9 0.6-1.8 0.9-2.1 0.6-0.7 0.6-22.7 0-23.4q-0.6-0.8-1.8-6.9c-0.3-1.3-0.7-2.8-1-3.3s-0.5-1.4-0.5-2c0-0.7-0.1-1.3-0.3-1.4-0.4-0.2-2.1-3.7-2.1-4.4 0-0.4-0.2-0.8-0.4-0.9s-0.8-1.1-1.3-2.1c-0.5-1.1-1.4-2.7-2-3.6s-1.1-1.8-1.1-1.9c0-0.3-3.2-4.6-5-6.6-0.6-0.8-1.9-2.3-2.8-3.4-1.7-2.1-3.6-4-5.6-5.5-0.7-0.5-1.6-1.2-2-1.6-1.9-1.8-7.1-5.3-9.6-6.4-0.7-0.3-2.2-1.2-3.3-2-1.2-0.8-2.3-1.5-2.5-1.5s-1.1-0.5-2.1-1.1c-0.9-0.7-2.3-1.5-3.1-1.9-0.7-0.5-2.3-1.4-3.4-2.1s-2.2-1.3-2.5-1.3c-0.2 0-0.5-0.1-0.6-0.3 0-0.2-1.5-1-3.2-1.9-1.7-0.8-3.1-1.7-3.1-1.8 0-0.2-0.4-0.5-0.9-0.6-0.5-0.2-1.7-0.8-2.6-1.4-1-0.7-1.9-1.2-2.1-1.2s-0.5-0.3-0.8-0.6-0.8-0.6-1.1-0.6c-0.4 0-0.9-0.2-1.3-0.5-0.3-0.4-1.7-1.2-3-1.9s-2.7-1.5-3-1.8c-0.3-0.2-1.3-0.8-2.1-1.2-0.9-0.4-1.7-1-1.8-1.3s-0.6-0.5-1.1-0.5-1.1-0.3-1.4-0.6-0.6-0.6-0.8-0.6-1-0.5-1.9-1c-0.8-0.6-1.9-1.2-2.3-1.5-0.4-0.2-1.5-0.8-2.4-1.3s-1.9-1.1-2.2-1.3c-0.3-0.1-0.7-0.3-0.8-0.5-0.1-0.1-1-0.6-2-1.1s-2.1-1.1-2.4-1.3c-1.6-1-8.6-5.1-10.1-6-0.9-0.5-1.8-1-1.9-1.2-0.1-0.1-1.6-0.9-3.4-1.8s-3.4-1.8-3.7-2.1-0.8-0.5-1.1-0.5-0.6-0.1-0.6-0.3c0-0.3-1.5-1.3-5.2-3.2-1.4-0.8-2.9-1.6-3.2-1.9-0.3-0.2-1.5-0.8-2.5-1.3s-2-1.1-2.1-1.3-0.6-0.4-1-0.4-0.9-0.3-1.2-0.6-0.9-0.6-1.3-0.6-0.9-0.3-1-0.8q-0.2-0.7-0.9-0.5c-0.8 0.2-5.3-1.4-5.5-2-0.1-0.2-0.7-0.3-1.4-0.3-0.6 0-1.5-0.2-2-0.5s-2.1-0.7-3.5-1c-4.7-0.8-6.5-1.3-7.1-1.8-0.9-0.7-29.7-0.7-30.6 0-0.3 0.2-1.3 0.6-2.3 0.7-1 0.2-2 0.4-2.2 0.6s-1.4 0.4-2.6 0.6-2.6 0.5-3 0.9c-0.4 0.3-1.2 0.5-1.6 0.5-0.5 0-1.4 0.3-2.1 0.6-0.6 0.3-1.4 0.6-1.8 0.6-0.3 0-0.8 0.3-1.1 0.6s-1.1 0.6-1.8 0.6c-0.8 0-1.4 0.1-1.4 0.3s-0.9 0.7-2.1 1.2c-1.2 0.6-2.4 1.1-2.7 1.3s-1 0.6-1.5 0.8c-0.4 0.2-0.9 0.5-1.1 0.8-0.1 0.2-0.5 0.4-0.9 0.4-0.3 0-1.3 0.5-2.1 1.2s-1.7 1.2-1.9 1.2c-0.6 0-9 6.3-9.2 6.8-0.1 0.2-0.4 0.4-0.6 0.4-0.8 0-11.5 11.2-11.5 12 0 0.2-0.1 0.4-0.3 0.4-0.3 0-2.4 2.7-3.5 4.4-0.2 0.4-1.2 1.8-2.1 3.2-0.9 1.3-1.7 2.6-1.7 2.8s-0.1 0.4-0.3 0.5c-0.2 0-0.7 1-1.2 2s-1.1 2-1.3 2.1-0.8 1.1-1.3 2.1-1.9 3.5-3 5.5c-1.2 2-2.3 4-2.5 4.5-0.5 1.1-1.6 1.2-1.6 0.1 0-0.4 0.3-0.8 0.6-0.8 0.4 0 0.6-0.4 0.6-1 0-0.7 0.3-1.1 0.7-1.3 0.5-0.1 0.7-0.5 0.7-1.3-0.1-0.9 0-1.1 0.5-0.9 0.3 0.1 0.6-0.1 0.8-0.6 0.1-0.5 0.4-0.9 0.5-0.9 0.2 0 0.4-0.3 0.4-0.6 0-0.5-0.2-0.6-0.7-0.4-0.6 0.2-0.6 0.1 0.1-0.5 0.4-0.4 1.1-0.9 1.5-1 0.4-0.2 0.5-0.6 0.4-1.3-0.2-0.8 0-1 0.7-1s0.8-0.2 0.7-0.8q-0.2-0.8 0.5-1.2c0.5-0.2 0.8-0.7 0.8-1s0.3-0.6 0.6-0.8c0.5-0.1 0.6-0.5 0.4-1.2-0.1-0.7 0-1 0.7-1.1 0.6-0.2 0.8-0.5 0.6-1.1-0.2-0.7 0-0.9 0.5-1.1 0.5-0.1 0.8-0.4 0.8-0.7s0.3-0.6 0.6-0.7c0.3-0.2 0.6-0.6 0.6-0.9s0.3-0.6 0.6-0.6c0.4 0 0.6-0.4 0.6-1s0.3-1.1 0.6-1.3c0.3-0.1 0.6-0.4 0.6-0.7s0.3-0.6 0.6-0.6c0.4 0 0.6-0.4 0.6-1s0.3-1.1 0.6-1.3c0.3-0.1 0.6-0.4 0.6-0.7s0.3-0.6 0.6-0.6 0.6-0.3 0.6-0.6 0.2-0.6 0.4-0.6c0.5 0 2-1.5 2-2 0-0.2 0.3-0.4 0.6-0.4q0.7 0 0.5-0.7-0.3-0.9 0.6-0.6 0.7 0.2 0.7-0.5c0-0.3 0.3-0.6 0.6-0.6s0.6-0.3 0.6-0.6 0.3-0.6 0.6-0.6 0.6-0.3 0.6-0.6 0.2-0.6 0.4-0.6c0.5 0 2.4-1.8 2.4-2.3 0-0.3 0.2-0.5 0.5-0.4s0.5-0.2 0.4-0.6c0-0.6 0.8-0.9 2-0.7 0.2 0 0.2-0.2 0.1-0.4s0.1-0.4 0.4-0.4c0.8 0 2.6-1.6 2.6-2.3 0-0.3 0.5-0.5 1.2-0.5q1.2 0 1.2-0.6c0-0.3 0.3-0.6 0.6-0.6s0.6-0.3 0.6-0.6c0-0.6 0.4-0.8 1.7-0.6 0.4 0 0.7-0.2 0.7-0.6q0-0.6 1.2-0.6t1.2-0.6c0-0.3 0.4-0.6 0.9-0.7s0.9-0.3 0.8-0.6 0.4-0.5 1.1-0.5q1.2 0 1.2-0.6t1.2-0.6c0.6 0 1.2-0.3 1.3-0.6q0.3-0.6 1.9-0.6c1.2 0 1.6-0.2 1.6-0.6q0-0.6 1.2-0.6t1.2-0.6c0-0.4 0.6-0.6 2.3-0.7 1.6-0.1 2.3-0.3 2.2-0.6s0.5-0.5 1.7-0.5c1.5 0 1.8-0.1 1.7-0.6-0.2-0.5 0.2-0.6 2.5-0.6 2.2 0 2.8-0.1 2.8-0.6s0.7-0.6 3.8-0.6c2.1 0 3.9-0.2 4-0.4 0.2-0.2 4-0.4 10.2-0.4zm10 11.2c1 0.2 3.2 0.5 4.8 0.8 1.7 0.3 4.6 1 6.6 1.6 2 0.7 3.8 1.2 4.1 1.2 1.1 0 14.3 6.6 19.5 9.6 3.1 1.9 8.8 5.2 12.6 7.4 3.7 2.2 9.9 5.8 13.7 8 3.8 2.3 10.1 5.9 14 8.1 9.1 5.3 9.4 5.7 4.3 6.8-13.6 2.7-24.1 7.6-32.8 15.3-7.3 6.4-10.9 11.1-18.1 23.8-1.9 3.3-4.4 7.6-5.7 9.6-1.2 1.9-2.2 3.7-2.2 3.8 0 0.2-0.7 1.5-1.6 2.9-0.9 1.5-2.6 4.5-3.8 6.8-1.3 2.2-3.8 6.6-5.7 9.6-1.8 3.1-3.3 5.6-3.3 5.7s-2.2 3.9-4.8 8.4-4.8 8.3-4.8 8.4-0.7 1.3-1.5 2.7c-1.9 3.1-11.1 18.7-12.3 20.9-0.5 0.9-1.8 3.3-3 5.3-3 5.2-6.8 11.7-7.6 13.1-0.3 0.7-1.9 3.4-3.5 6.1s-2.9 4.9-2.9 5.1c0 0.1-1.8 3.2-4 6.9-2.3 3.7-4.2 7-4.3 7.3-0.2 0.3-1.6 2.8-3.2 5.6-1.6 2.7-3.8 6.5-4.8 8.4q-17.4 32.3-50.1 13.3c-10.9-6.3-13.1-7.7-13.4-8.3-0.4-1.1-0.2-2.7 0.4-3.8 2.9-5.4 9.1-16.3 10.2-18 0.8-1.2 2.3-3.8 3.4-5.8 1-1.9 3-5.4 4.4-7.7 1.4-2.4 3.3-5.7 4.2-7.5s2.5-4.4 3.4-5.8 3.2-5.3 5-8.6 3.7-6.7 4.3-7.5c0.5-0.8 1.7-2.9 2.6-4.6 1-1.7 3.9-6.8 6.5-11.3 14.8-25.6 16.2-29 16.2-38.6 0.1-16.2-8.2-29.7-23-37.6-7.2-3.8-12.1-7.1-12.4-8.4-0.3-1 1.2-4.3 4-8.7 1-1.5 2-3.2 2.2-3.7 0.6-1.6 8-13.5 10.3-16.6 5.5-7.3 16.8-16.9 25.1-21.1 3.3-1.7 11.9-5.3 12.6-5.3 0.3 0 2.1-0.6 4-1.2 1.8-0.7 4-1.2 4.8-1.2s2.1-0.2 3-0.5c0.9-0.2 2.5-0.5 3.6-0.7 2.7-0.4 16.8-0.4 19 0zm-16.2 0.3c-11.8 1.8-18.1 3.4-24.8 6.5-0.4 0.2-1.9 0.8-3.2 1.4-8.7 3.8-20.9 13.6-27.1 21.9-2.9 3.9-10 15.2-10.8 17.1-0.1 0.4-0.9 1.7-1.7 3-2 3.1-4.2 7.4-4.2 8.2 0 0.6 2.3 3.2 2.9 3.2 0.2 0 1.8 0.9 3.6 2.1 1.8 1.1 4.5 2.6 5.9 3.4 20.3 11 28.7 34.3 19.4 53.9-1.9 4.2-7.3 13.9-9.3 16.8-0.7 1.1-1.3 2.2-1.3 2.4s-0.5 1.2-1.1 2.2c-0.7 1-2.6 4.3-4.4 7.4-1.7 3.1-4.6 8.1-6.4 11.2s-3.9 6.9-4.7 8.4-2.3 4-3.2 5.4-3.1 5.1-4.8 8.2-3.4 6.1-3.8 6.6-2 3.4-3.6 6.4-3.7 6.6-4.6 8-3.1 5.2-4.9 8.4-3.7 6.6-4.2 7.6c-2 3.3-1.6 3.9 4.7 7.5 2.2 1.2 5.8 3.3 7.9 4.6 20.4 12.2 36.7 8.2 48.3-11.9 1.4-2.4 4-6.9 5.7-10 1.8-3.1 5.1-8.7 7.3-12.5s4.7-8.2 5.6-9.7c0.9-1.6 2.2-3.9 2.9-5.1 0.8-1.3 1.8-3 2.3-3.9s2.2-3.9 3.8-6.6c1.6-2.8 4.1-7.2 5.7-10 1.5-2.7 3.5-6.1 4.4-7.6 1.6-2.6 5.3-9 12.7-21.8 2.1-3.7 4.6-8 5.5-9.5 1-1.5 1.7-2.8 1.7-2.9 0-0.2 2-3.7 4.5-7.9s6-10.2 7.7-13.3 4-6.9 5-8.6 3.1-5.2 4.6-7.8c8.7-15.4 12.7-20.3 23.2-28.5 4.5-3.5 15.3-8.4 21.6-9.9 5.8-1.4 9.2-2.4 9.2-2.8-0.1-0.7-3.1-2.5-15.2-9.4-2.2-1.3-5.5-3.2-7.4-4.3-1.9-1.2-4.3-2.6-5.4-3.1-1.7-1-10.1-5.9-11.8-7-0.3-0.2-1.4-0.8-2.5-1.4-1-0.5-3.9-2.2-6.4-3.7-10.4-6.3-19.5-9.9-29.7-11.7-4.6-0.9-16.4-1.4-19.6-0.9zm-127.6 35.3c2.1 0 2.2 0 1.6 0.7-0.6 0.5-2 0.9-8 2.1-1.1 0.2-2.4 0.6-2.8 0.8s-1.7 0.7-2.8 1.2c-3 1.3-4.7 2.1-5.3 2.7-0.3 0.3-0.8 0.5-1.1 0.5s-0.6 0.1-0.7 0.3c0 0.2-0.6 0.7-1.3 1.2-1.7 1.4-5.8 5.4-7.2 7.1-0.7 0.8-1.4 1.7-1.6 2-0.3 0.2-0.6 0.7-0.7 1-0.2 0.3-0.7 1.1-1.1 1.8s-1 1.7-1.3 2.2c-0.3 0.6-0.6 1.1-0.7 1.2s-0.6 1.1-1.2 2.2c-0.5 1.1-1.2 2.2-1.5 2.5s-0.5 0.8-0.5 1.1-0.2 0.6-0.4 0.6-0.5 0.4-0.6 0.9c-0.2 0.5-0.4 1-0.6 1.1-0.1 0.1-0.7 1.1-1.2 2.1-1.6 3.1-2.3 4.3-2.7 4.8-0.2 0.3-1 1.6-1.7 2.9s-1.8 3.1-2.3 4-1.1 2-1.3 2.4-1 1.9-1.8 3.2c-0.7 1.3-1.7 3.1-2.2 4s-1.4 2.4-2 3.3c-0.7 1-1.2 1.9-1.2 2.1s-0.3 0.5-0.6 0.8-0.6 0.8-0.6 1.2-0.2 0.9-0.5 1.1c-0.3 0.3-1.2 1.8-2 3.4-2.2 4.2-3.9 7.3-4.3 7.5-0.2 0.1-0.4 0.6-0.6 1.1-0.1 0.5-0.4 0.9-0.6 0.9s-0.4 0.3-0.4 0.7c0 0.3-0.2 0.9-0.6 1.3-0.3 0.3-1.2 1.9-2 3.4-2.1 3.9-2.3 4.2-3.5 6.1-0.6 1-1.5 2.5-2 3.4s-1.4 2.4-2 3.3c-0.6 0.8-1.1 1.8-1.1 2.2s-0.3 0.9-0.6 1.2c-0.3 0.2-0.9 1.2-1.4 2.1-0.4 0.9-1.2 2.3-1.7 3.1-0.4 0.8-1.5 2.7-2.4 4.4s-2 3.5-2.4 4.2-0.8 1.5-0.9 1.8c-0.2 0.3-0.9 1.9-1.6 3.4-0.8 1.6-1.4 3.1-1.4 3.3 0 0.3-0.2 0.5-0.4 0.5s-0.4 0.6-0.5 1.3c-0.1 1.5-1.5 2.2-1.5 0.7 0-0.4 0.3-0.8 0.6-0.8 0.4 0 0.6-0.4 0.6-1.6s0.2-1.6 0.6-1.6c0.5 0 0.6-0.3 0.5-1.1-0.1-0.9 0-1.2 0.5-1.1 0.4 0 0.6-0.5 0.7-1.7s0.3-1.6 0.7-1.4c0.4 0.1 0.6-0.1 0.6-0.8 0-0.6 0.3-1.1 0.6-1.2 0.3-0.2 0.6-0.6 0.6-1 0-0.5 0.3-0.9 0.6-1 0.3-0.2 0.6-0.7 0.6-1.3s0.2-1 0.6-1q0.6 0 0.6-1.2t0.6-1.2 0.6-1.2 0.6-1.2c0.3 0 0.6-0.4 0.6-0.8s0.3-0.8 0.6-0.8c0.4 0 0.6-0.4 0.6-1s0.3-1.1 0.6-1.3c0.3-0.1 0.6-0.7 0.6-1.3q0-1.2 0.6-1.2t0.6-1.2c0-0.9 0.2-1.2 0.8-1.2 0.4 0 0.8-0.3 0.8-0.6s0.2-0.6 0.4-0.6 0.5-0.5 0.6-1.2 0.4-1.2 0.6-1.2 0.4-0.5 0.4-1.2c0-0.9 0.2-1.2 0.8-1.2 0.7 0 0.8-0.2 0.7-1.3-0.2-1.2-0.1-1.4 0.6-1.2q0.7 0.2 0.7-0.4c0-0.3 0.3-0.7 0.6-0.9q0.7-0.2 0.4-1c-0.2-0.7-0.1-0.9 0.6-1.1s0.8-0.4 0.7-1.5c-0.2-1.1-0.1-1.3 0.6-1.1 0.6 0.2 0.7 0 0.7-1.1q0-1.2 0.6-1.2c0.4 0 0.6-0.4 0.6-1 0-0.5 0.2-1.1 0.5-1.2q0.4-0.3 0.1 0.2t0.2 0.2c0.3-0.2 0.4-0.7 0.3-1.2-0.1-0.8 0-1 0.6-1 0.5 0 0.7-0.3 0.7-1 0-0.6 0.2-1 0.6-1q0.6 0 0.6-1.2c0-0.9 0.2-1.1 0.6-0.9 0.4 0.1 0.6-0.1 0.6-0.9 0-0.6 0.2-1 0.6-1q0.6 0 0.6-1.2t0.6-1.2 0.6-1.2 0.6-1.2c0.4 0 0.6-0.3 0.6-0.7-0.2-1.3 0-1.7 0.6-1.7 0.4 0 0.6-0.4 0.6-1s0.2-1 0.6-1c0.3 0 0.6-0.4 0.6-0.8s0.3-0.8 0.6-0.8q0.6 0 0.6-1.2t0.6-1.2c0.4 0 0.6-0.4 0.6-1s0.2-1 0.6-1c0.3 0 0.6-0.4 0.6-0.8 0-0.5 0.3-0.9 0.6-1.1 0.3-0.1 0.6-0.6 0.6-1.1s0.3-1 0.6-1.1c0.3-0.2 0.6-0.8 0.7-1.4 0-0.6 0.3-1.1 0.6-1s0.5-0.4 0.5-1.3c0-1.1 0.1-1.3 0.6-1.1q0.6 0.2 0.9-0.6c0.1-0.5 0.4-0.9 0.6-0.9s0.3-0.5 0.2-1.2c-0.1-1 0-1.2 0.6-1.2s0.8-0.4 0.7-1.5c0-0.1 0.3-0.4 0.8-0.6 0.6-0.2 0.8-0.5 0.6-1.3-0.1-0.7 0.1-1 0.7-1.1 0.6-0.2 0.7-0.5 0.6-1-0.1-0.6 0-0.9 0.5-1s0.8-0.6 0.8-1c0-0.5 0.3-0.9 0.6-1 0.3-0.2 0.6-0.6 0.6-0.9 0-0.4-0.2-0.5-0.4-0.4s-0.3 0-0.2-0.4c0.2-0.3 0.6-0.6 1.1-0.6 0.6 0 0.8-0.2 0.6-1-0.1-0.7 0-1 0.6-1.2 0.4-0.1 0.7-0.5 0.7-0.8 0-0.4 0.3-0.7 0.6-0.9 0.3-0.1 0.6-0.6 0.6-1.1 0-0.6 0.2-1 0.6-1q0.6 0 0.6-1.2t0.6-1.2 0.6-1.2c0-0.6 0.3-1.2 0.6-1.4 0.4-0.1 0.6-0.5 0.4-0.8-0.1-0.4 0-0.5 0.2-0.4 0.4 0.2 2.4-1.6 2.4-2.2 0-0.2 0.3-0.4 0.6-0.4s0.6-0.3 0.6-0.6 0.3-0.6 0.6-0.6 0.6-0.3 0.6-0.6 0.3-0.6 0.6-0.6 0.6-0.3 0.6-0.6 0.3-0.6 0.6-0.6 0.6-0.3 0.6-0.6 0.3-0.6 0.6-0.6 0.6-0.3 0.7-0.6c0.2-0.3 0.6-0.6 0.9-0.6 0.5 0 0.6-0.2 0.5-0.8-0.2-0.6-0.1-0.8 0.4-0.7 0.4 0.1 0.7-0.1 0.6-0.4s0.1-0.5 0.3-0.5 0.4 0.2 0.5 0.5c0.2 0.3 0.3 0.2 0.3-0.2s0.3-0.7 0.6-0.7 0.6-0.2 0.6-0.4 0.6-0.4 1.4-0.4c1.4 0 2.6-0.9 1.7-1.4-0.3-0.1-0.1-0.1 0.4 0 1.3 0.3 2.6-0.1 2.3-0.8-0.1-0.5 0.2-0.6 1.8-0.5 2.2 0 2.9-0.3 2-0.9-0.4-0.3 0-0.4 1.6-0.4 3.3 0.1 3.6 0 3.6-0.6 0-0.5 0.5-0.6 2.2-0.6zm8.8 0c1.7 0 2.2 0.1 2.2 0.6 0 0.7 0.3 0.7 2.7 0.6q1.8 0 1.5 0.3c-0.4 0.7 1.1 1.3 2.9 1 1.5-0.2 1.7-0.1 1.5 0.4-0.3 0.7 0 0.8 2.6 0.8 0.9 0 1.1 0 0.5 0.2-1.3 0.2-1.1 0.9 0.3 1.2 0.7 0.1 1.2 0.5 1.2 0.8 0 0.4 0.3 0.5 1 0.3 0.9-0.2 1.1-0.1 1.3 0.6s0.4 0.8 1.1 0.6c0.7-0.1 1 0 1.2 0.6 0.2 0.7 0.5 0.8 1.2 0.7 0.5-0.1 0.9-0.1 0.9 0.1q-0.1 1.2 0.9 1.2c0.5 0 0.8 0.3 0.8 0.6 0 0.4 0.3 0.6 0.7 0.5s0.6-0.4 0.6-0.7c-0.1-0.4 0-0.4 0.5 0 0.3 0.3 0.6 0.8 0.6 1.2 0 0.6 0.3 0.8 1.2 0.8q1.2 0 1.2 0.6c0 0.3 0.4 0.6 0.8 0.6s0.8 0.3 0.8 0.6q0 0.6 1.2 0.6c0.9 0 1.1 0.2 0.9 0.6-0.1 0.5 0.3 0.6 2.5 0.6 1.9 0 2.6 0.1 2.6 0.6 0 1.1-2.7 1.4-3.7 0.4-0.4-0.3-0.9-0.6-1.2-0.6s-1.3-0.5-2.1-1.1c-0.9-0.6-2.5-1.5-3.6-2.1-1.1-0.5-2.1-1.1-2.2-1.2s-1.1-0.6-2.1-1.2c-1-0.5-1.9-1.1-1.9-1.3s-0.3-0.3-0.6-0.3-1.5-0.6-2.7-1.4c-1.1-0.8-2.3-1.4-2.6-1.4s-0.5-0.2-0.5-0.4-0.2-0.4-0.4-0.4c-0.4 0-3.6-1.3-4.8-2-0.4-0.2-1.6-0.5-2.6-0.6-1.1-0.2-2.2-0.4-2.4-0.6-0.2-0.1-1.4-0.5-2.7-0.7-1.3-0.3-2.6-0.8-2.9-1.1-0.6-0.5-0.4-0.6 1.6-0.6zm-0.2 12.2c4.3 0.5 7.7 1.7 10.7 3.5 0.8 0.5 1.9 1.1 2.3 1.4 5.2 3 8.3 4.8 9.6 5.5 0.9 0.5 3.2 1.8 5.1 2.9 1.9 1.2 3.6 2.1 3.7 2.1s1.3 0.7 2.5 1.5c1.3 0.9 3.3 2.1 4.5 2.7 2.6 1.3 12 6.7 16.4 9.3 11.9 7.2 16.6 15 16.6 27.7 0 8.3-1.1 11.7-6.2 20-1.1 1.7-3.2 5.3-4.8 8.2s-3.4 5.9-3.9 6.8c-0.6 0.8-1.9 3.1-2.9 5s-2.9 5.1-4.1 7.2c-3 5.3-17 29.6-20.5 35.6-1.6 2.8-3.3 5.7-3.9 6.6-0.5 0.9-1.5 2.5-2.1 3.6-0.5 1.1-1.4 2.7-1.9 3.6s-2.8 4.8-5.1 8.8c-2.2 4-4.6 8.1-5.3 9.2-6 9.8-10.1 18.5-11.7 24.4-0.3 1.3-0.9 3.4-1.2 4.6-1.5 5.2-1.1 25.2 0.6 29.5 0.4 1 0.8 2.6 1 3.4 0.1 0.8 0.7 2.5 1.2 3.7 1.1 2.3 1.2 4.3 0.2 4.5-0.5 0.1-11.7-6-21-11.5-2-1.2-7-4.1-11.2-6.5s-8.2-4.8-9-5.2c-0.8-0.5-2.9-1.7-4.8-2.7-24.6-13.6-38.2-29.6-44.2-52-0.4-1.1-0.7-2.2-0.8-2.4-0.3-0.4-1.3-8.1-1.8-13.3-0.5-5.4 0.8-20.3 2.2-24.6 2.5-8 3.3-9.9 5.5-14.5 1.1-2.3 3.3-6.4 4.8-9 1.6-2.6 3.5-6 4.2-7.4 0.8-1.4 2.5-4.3 3.7-6.4 1.3-2.1 2.7-4.6 3.2-5.6s2.7-4.8 4.8-8.4c2.2-3.6 4.3-7.3 4.7-8.1 0.8-1.7 11.1-19.8 14.5-25.5 1.2-2.1 2.5-4.3 2.9-5s1.3-2.4 2.1-3.9 2.2-3.9 3.2-5.4c1-1.4 1.8-2.8 1.8-3 0-0.4 4.7-8.2 6.3-10.3 4.2-5.6 11.2-9.6 18.4-10.6 5.1-0.7 4.9-0.7 9.7 0zm-31.3 16.6c-1.4 2.8-3.6 6.4-5.3 9-0.7 1.1-1.8 3.2-2.6 4.6-0.7 1.4-1.5 2.8-1.7 3.1-0.2 0.2-0.7 1.2-1.2 2.2-1.2 2.1-11.6 20.3-14.6 25.4-1.1 2-2.1 3.7-2.1 3.9 0 0.1-1.3 2.4-2.9 5.1s-4.5 7.6-6.3 10.9-3.7 6.5-4.2 7.2-1.2 2-1.7 2.9c-1.2 2.3-1.3 2.5-4.1 7.3-10 16.8-13.2 27.7-13.2 44.9 0 32.4 14.8 54.5 49.4 73.5 1.3 0.7 3.9 2.2 5.8 3.3s4.6 2.7 6 3.5 5.3 3.1 8.6 5c9.2 5.4 20.7 11.8 21.3 11.8 1.2 0 0.8-1.9-2-9.6-1.5-4.2-2.2-15.9-1.4-24.1 1.1-12 3.9-19.2 14.1-36.3 1.2-1.9 8.1-14.1 10.3-18 0.9-1.6 1-1.8 5-8.6 4.2-7.2 10.1-17.4 11.2-19.4 0.6-1 2-3.5 3.2-5.6 5.7-9.9 6.7-11.5 7.8-13.5 0.6-1.1 1.8-3.3 2.7-4.7s1.6-2.7 1.6-2.8c0-0.2 1.2-2.4 2.7-4.9 1.6-2.6 3.9-6.7 5.3-9.1s3.1-5.4 3.9-6.6c9.4-15.3 9.3-28.3-0.3-39.8-3.7-4.4-6-6-20.2-13.9-4-2.2-8.6-4.9-10.4-5.9-2.9-1.7-14.3-8.3-17.8-10.3-0.8-0.4-2.7-1.5-4.3-2.4-4.6-2.7-7.1-3.7-10.6-4.1-14.4-1.8-25.4 3.7-32 16zm280.3-5.2c4.4 2.1 5.9 3 12 7.2 10.3 7 21.3 24.6 22.6 36.4 0.2 1.7 0.6 3.9 0.8 4.9 0.7 2.9 0.6 12.4-0.2 15.8-0.3 1.6-0.6 3.6-0.6 4.4 0 0.9-0.2 1.7-0.3 1.9-0.2 0.2-0.9 1.9-1.5 3.8-1.5 4.5-4.7 11.4-7.4 15.6-1.2 1.9-3.6 6-5.4 9.2s-4.1 7.2-5 8.8c-7 12.1-10.6 18.1-11.8 20.2-0.8 1.3-3 5.1-4.9 8.4s-4.6 7.9-6 10.3c-1.4 2.3-2.5 4.3-2.5 4.4s-1 1.8-2.1 3.8c-1.2 1.9-3.3 5.4-4.6 7.7-14.4 25.2-16.6 28.7-19.7 31.4-13.1 10.9-24.5 11-42.8 0.1-14.7-8.8-14.2-7.8-8.5-16.9 0.6-0.9 2.3-3.8 3.9-6.6 1.6-2.7 5-8.6 7.5-13s5.4-9.4 6.3-11c1-1.6 3.1-5.4 4.9-8.3 1.7-2.9 3.1-5.3 3.1-5.5 0-0.1 0.6-1.1 1.3-2.3 0.7-1.1 2.2-3.7 3.3-5.7s3-5.1 4.1-7c6-10.4 8.1-14 8.1-14.3 0-0.2 0.9-1.6 1.9-3.3 4.5-6.9 8.2-14.2 9.7-18.8 1.8-5.5 2-17.3 0.4-21.5-0.3-0.6-0.7-2-1-3.1-2.5-9.3-10.7-18.4-22.1-24.7-1.3-0.7-2.8-1.6-3.5-1.9-0.7-0.4-2.8-1.7-4.8-2.8-8.1-4.5-8.3-4.9-4.9-10 3.5-5.5 16.4-17.2 18.8-17.2 0.1 0 1.6-0.6 3.2-1.4 4.2-2 8.7-3.4 12.3-3.8 1.6-0.3 3.7-0.6 4.6-0.8 7.8-1.6 20.7 0.8 30.8 5.6zm-24-5.5c-0.2 0-1.9 0.2-3.8 0.3-15.8 1.4-24.8 5.5-35.2 16-5.2 5.2-8 9.2-8 11.3 0 1.2 0.8 1.8 6.4 4.9 15.9 8.9 21.2 12.9 25.5 19.1 5.3 7.8 7 13.7 7.1 24.1v8l-1.3 3.9c-1.5 4.4-5.8 12.6-10.2 19.5-0.7 1.2-1.5 2.5-1.6 2.9-0.3 0.7-5.1 9.1-13.1 22.7-1.5 2.5-3 5.2-3.4 6s-2 3.6-3.7 6.3c-1.6 2.7-3 5.2-3.2 5.6-0.1 0.4-1 1.9-1.9 3.3-0.9 1.5-2.4 4.1-3.4 5.8-0.9 1.8-1.9 3.5-2.2 3.8-0.3 0.4-0.6 0.8-0.6 0.9 0 0.3-3.2 5.9-9 15.7-7 11.9-6.9 11.3-0.5 15 1.6 1 5.2 3.1 8.1 4.8 9.9 5.9 13.7 7.2 20.8 7.2 12.4 0 21.1-6.1 29-20.4 1.1-2.1 3.8-6.7 5.9-10.2s4.9-8.2 6.1-10.4 3.9-6.9 6-10.4c2-3.5 4.9-8.6 6.4-11.2s3.7-6.5 5-8.6 2.8-4.7 3.4-5.8c1-1.8 3.2-5.6 10.7-18.2 1.4-2.5 3.9-6.8 5.3-9.4 1.5-2.6 3.6-6.2 4.6-8 24.1-39.1 1.8-87.4-43.2-93.8-3.1-0.4-5.8-0.8-6-0.7zm-41.2 44.7c2.4 1.5 5.7 3.4 7.2 4.3 11 6.4 18 20.4 15.4 30.9-1.7 7.2-3.6 11-12.5 25.9-1.9 3.2-3.5 5.9-3.5 6s-0.7 1.4-1.6 2.9c-3.2 5.5-8.4 14.4-8.4 14.6 0 0.1-0.9 1.6-1.9 3.3-1.1 1.7-3.4 5.6-5.1 8.7s-3.4 6.1-3.8 6.6c-0.4 0.6-1.6 2.6-2.7 4.6s-3.7 6.7-5.9 10.4-4.3 7.5-4.8 8.3c-0.4 0.8-1.3 2.3-2 3.4-0.6 1-2.2 3.9-3.6 6.3-1.3 2.4-3.2 5.5-4 6.8-1.4 2.2-4.9 8.3-7.9 13.8-0.7 1.2-2.3 4.1-3.7 6.4-3.4 5.7-6.6 11.2-8.6 14.8-8.9 15.7-12.3 20.5-19.1 26.8-13.3 12.3-35.1 18.3-52.3 14.3-37-8.7-56.7-41.6-45-75 3.4-9.7 4.2-10.1 11.4-6 20.8 12 22.5 12.7 32.6 13 3.6 0.1 6.9 0 7.8-0.2 11.2-2.9 15.7-5.2 21.6-11.1 4.5-4.5 5.4-5.7 10.6-14.6 1.6-2.8 3.8-6.5 4.9-8.4s2.5-4.2 3-5.2c1.2-2.1 7.3-12.7 11.2-19.4 1.5-2.6 3.6-6.3 4.7-8.2 4.6-8 7.8-13.5 9.1-15.6 1.6-2.5 3.2-5.3 4.7-8.2 0.6-1.1 1.8-3.2 2.7-4.6 0.9-1.5 2.9-5 4.5-7.8 1.6-2.9 4-7 5.3-9.1 1.2-2.2 2.3-4 2.3-4.1s0.4-0.9 0.9-1.7c1.7-2.7 7.3-12.2 8.7-14.7 0.7-1.3 1.4-2.6 1.6-2.8 0.4-0.6 4.7-8 6-10.4 1.4-2.6 5-8.4 6.3-10.1 1.5-2.1 3.2-1.5 13.9 5.1zm-14.3-3.5c-2 3-5.5 8.7-5.5 8.9 0 0.1-1.3 2.5-3 5.3-1.6 2.8-3.5 6.1-4.3 7.4-0.7 1.3-2.5 4.3-3.9 6.6-1.4 2.4-3 5.3-3.7 6.5-0.6 1.2-1.4 2.4-1.7 2.8s-0.6 0.8-0.6 1c0 0.1-0.8 1.5-1.7 3.1-1 1.6-2.2 3.7-2.8 4.7-2.7 4.7-5.9 10.4-7.3 12.8-0.8 1.4-2.5 4.4-3.8 6.6-1.2 2.2-3.8 6.5-5.6 9.6s-4.1 6.9-5 8.6c-0.9 1.6-3.9 6.8-6.6 11.4s-5.7 9.7-6.6 11.4-2.7 4.7-3.9 6.8-3.5 6.1-5.2 9c-1.6 2.9-3.4 5.9-4 6.8-0.5 0.9-2 3.4-3.3 5.6-9.4 16.3-29.9 24.2-47.8 18.6-4.6-1.4-8.4-3.4-23.2-12-5.4-3.1-6.2-2.6-9.2 5.7-8.8 24 0.1 52.1 20.4 64.3 1.2 0.8 2.7 1.7 3.4 2.2 10.2 7.3 30.4 11.5 41.8 8.7 1.9-0.4 4.1-0.9 5-1.1 0.9-0.1 3.3-0.9 5.4-1.6 8.5-2.9 15.2-7.1 21.8-13.6 6.5-6.4 7.6-8 20.6-30.6 1.8-3.2 4.4-7.7 5.8-10s3.9-6.7 5.6-9.8 4.1-7.2 5.3-9.2 3.5-5.8 5-8.6c1.5-2.7 3.1-5.5 3.5-6s1.4-2.3 2.2-3.8c1.8-3.2 1.5-2.7 5.4-9.3 1.6-2.8 3.7-6.4 4.6-8.1 2.7-4.9 7.7-13.5 10.6-18.4 4.2-7.1 11.6-20 12.8-22.2 0.6-1.1 2.5-4.3 4.2-7.2 3.1-5.2 3.6-6 7.4-13 1.1-2.1 2.2-4 2.4-4.2s0.5-1.1 0.6-2c0.2-0.9 0.5-2.6 0.8-3.8 3-11.5-3.4-25-14.9-31.7-1-0.6-3.3-2-5.1-3.1s-5.3-3.1-7.9-4.6c-5.9-3.2-6.2-3.2-8-0.5zm123.2 43.9c0.1 0-0.1 0.3-0.4 0.7-0.4 0.4-0.7 1.1-0.7 1.4 0 0.4-0.3 0.7-0.6 0.7-0.4 0-0.6 0.4-0.6 1 0 0.5-0.3 1.1-0.7 1.3q-0.6 0.4-0.4 1.4c0.1 0.8 0 1.1-0.5 1.2s-0.8 0.7-0.9 1.4c0 0.6-0.3 1.1-0.6 1s-0.5 0.3-0.5 0.9-0.3 1.1-0.6 1.3c-0.3 0.1-0.6 0.6-0.6 1.1 0 0.6-0.2 1-0.6 1q-0.6 0-0.6 1.2t-0.6 1.2c-0.3 0-0.6 0.4-0.7 0.9s-0.3 0.9-0.6 0.8c-0.2 0-0.4 0.2-0.4 0.6 0 1.4-0.1 1.7-0.7 1.7-0.4 0-0.6 0.4-0.6 1s-0.2 1-0.6 1-0.6 0.4-0.6 1-0.2 1-0.6 1c-0.3 0-0.6 0.4-0.6 0.8 0 0.5-0.3 0.9-0.6 1.1-0.3 0.1-0.6 0.7-0.6 1.3q0 1.2-0.6 1.2c-0.4 0-0.6 0.4-0.6 1.4 0 1.1-0.1 1.3-0.6 1.1s-0.8 0.5-0.7 1.6c0.1 0.1-0.2 0.2-0.5 0-0.4-0.1-0.6 0.1-0.6 0.5 0 0.3-0.3 0.9-0.8 1.3s-0.7 1-0.5 1.7c0.1 0.9 0 1.1-0.6 1.1-0.5-0.1-0.7 0.2-0.7 0.9 0 0.6-0.3 1-0.7 1.1-0.6 0.1-0.7 0.4-0.5 1.6 0.1 0.9 0.1 1.2-0.1 0.7-0.3-0.7-0.4-0.7-0.6 0-0.2 0.4-0.2 0.8-0.1 1s-0.2 0.5-0.8 0.6c-0.9 0.3-1 0.4-0.8 1.4s0.1 1.2-0.6 1.2-0.8 0.2-0.7 0.8c0.2 0.7 0 0.9-0.5 1.1-0.5 0.1-0.8 0.5-0.8 0.9 0 0.5-0.3 0.8-0.6 0.8q-0.6 0-0.6 1.2t-0.6 1.2-0.6 1.2c0 0.9-0.1 1.1-0.6 0.9-0.4-0.1-0.6 0.1-0.6 0.9 0 0.6-0.2 1-0.6 1q-0.6 0-0.6 1.2t-0.6 1.2c-0.5 0-0.6 0.3-0.5 1.1 0.1 1 0 1.2-0.6 1s-0.7 0-0.7 1.1q0 1.2-0.6 1.2t-0.6 1.2c0 0.9-0.1 1.1-0.6 0.9-0.4-0.1-0.6 0.1-0.6 0.7 0 0.4-0.3 0.9-0.6 1.1-0.3 0.1-0.6 0.6-0.6 1.1 0 0.6-0.2 1-0.6 1-0.3 0-0.6 0.4-0.6 0.8s-0.3 0.8-0.6 0.8q-0.6 0-0.6 1.2t-0.6 1.2c-0.4 0-0.6 0.4-0.6 1s-0.3 1.1-0.6 1.3c-0.3 0.1-0.6 0.7-0.6 1.4 0 0.9-0.1 1.1-0.6 1q-0.6-0.3-0.6 0.5c0 0.5-0.3 0.9-0.6 1.1-0.3 0.1-0.6 0.5-0.6 1 0 0.4-0.3 0.8-0.6 1-0.3 0.1-0.6 0.7-0.6 1.3q0 1.2-0.6 1.2c-0.4 0-0.6 0.4-0.6 1s-0.3 1.1-0.6 1.2c-0.3 0.2-0.6 0.6-0.7 1.1-0.2 0.5-0.4 0.7-0.7 0.5-0.4-0.2-0.5 0-0.3 0.9 0.1 0.7 0.1 1.2 0 1.1-0.6-0.5-1.7 0.7-1.5 1.6 0.2 0.7 0.1 0.9-0.6 1.1s-0.8 0.4-0.6 1.4c0.2 1.1 0.2 1.2-0.6 1-0.6-0.1-0.8 0-0.8 0.7 0 0.4-0.3 0.8-0.6 0.8-0.7 0-0.8 1-0.2 1.4 0.2 0.1 0.3 0.5 0.1 0.8-0.1 0.5-0.3 0.5-0.5 0.2-0.5-0.8-1.3 0-1.1 1 0.1 0.8 0 1-0.6 1-0.5 0-0.7 0.3-0.7 1.2s-0.1 1.1-0.6 0.9c-0.4-0.1-0.6 0.1-0.6 0.9 0 0.6-0.2 1-0.6 1q-0.6 0-0.6 1.2t-0.6 1.2c-0.3 0-0.6 0.4-0.6 0.8 0 0.5-0.3 0.9-0.6 1.1-0.3 0.1-0.6 0.6-0.6 1.1 0 0.6-0.2 1-0.6 1s-0.6 0.4-0.6 1-0.2 1-0.6 1q-0.6 0-0.6 1.2t-0.6 1.2c-0.3 0-0.6 0.3-0.6 0.6s-0.3 0.6-0.6 0.6-0.6 0.4-0.6 0.8-0.3 0.8-0.6 0.8-0.6 0.4-0.6 0.8c0 0.6-0.2 0.7-0.7 0.5s-0.6-0.1-0.4 0.4c0.2 0.4 0.1 0.8-0.1 0.9s-0.3 0.5-0.1 0.7q0.2 0.4-0.4 0.2c-0.6-0.3-0.9 0.1-0.7 1 0 0.2-0.3 0.3-0.6 0.3s-0.6 0.3-0.6 0.6-0.3 0.6-0.8 0.6c-0.4 0-0.8 0.3-0.9 0.6-0.2 0.3-0.7 0.6-1.3 0.6s-1 0.2-1 0.6c0 0.3-0.3 0.6-0.6 0.6s-0.6 0.2-0.5 0.5c0.1 0.2-0.4 0.5-1.1 0.6s-1.3 0.4-1.5 0.7-0.8 0.6-1.3 0.6c-0.6 0-1 0.2-1 0.6s-0.4 0.6-1.6 0.6c-1.1 0-1.7 0.2-1.9 0.7q-0.4 0.7-1.7 0.6c-0.8-0.1-1.2 0.1-1.2 0.5s-0.4 0.6-1.4 0.6c-2.2 0-1.3-0.9 1.9-1.9 3.4-1.1 9.9-4.3 11.7-5.7 4.4-3.6 11-11 11-12.3 0-0.2 0.5-1.1 1.2-2s1.2-1.8 1.2-1.9c0-0.2 0.8-1.6 1.7-3.1 1-1.6 1.9-3.2 2-3.5 0.2-0.3 0.7-1.1 1.1-1.8s1-1.6 1.3-2.2 1.3-2.3 2.2-3.9c0.9-1.5 1.7-3 1.7-3.3 0-0.2 0.2-0.4 0.4-0.4s0.4-0.2 0.4-0.4c0-0.6 2.7-5.1 3.5-5.9 0.3-0.3 0.5-0.8 0.5-1.1s0.5-1.4 1.2-2.3 1.2-1.8 1.2-2 0.5-1.1 1.1-2 1.4-2.3 1.8-3.1c0.5-0.8 1.3-2.2 1.9-3.1 0.7-1 1.2-1.8 1.2-1.9s0.8-1.5 1.8-3.2 1.8-3.1 1.8-3.2 0.5-1 1.2-1.9c0.7-1 1.2-2 1.2-2.2 0-0.3 0.2-0.7 0.5-1s0.9-1.2 1.3-2.1 1.3-2.4 1.9-3.3 1.1-1.8 1.1-2c0-0.3 0.2-0.7 0.5-1s0.9-1.4 1.5-2.4c0.5-1 1.1-1.9 1.3-1.9 0.1 0 0.4-0.5 0.5-1.2s0.4-1.2 0.6-1.2 0.4-0.3 0.5-0.7c0.2-0.4 0.9-1.8 1.7-3.1s1.6-2.9 1.9-3.5 0.6-1.1 0.8-1.1 0.3-0.2 0.3-0.5 0.4-1 0.8-1.5 0.8-1.2 0.8-1.5 0.2-0.5 0.4-0.5 0.5-0.5 0.8-1.1c0.2-0.6 1-2.2 1.8-3.5s1.6-2.8 1.8-3.2 0.8-1.3 1.2-2 1-1.6 1.3-2.1c0.2-0.5 0.6-0.9 0.8-0.9 0.1 0 0.3-0.3 0.3-0.8 0-0.4 0.3-0.9 0.6-1.2s0.6-0.7 0.6-1 0.5-1.3 1.1-2.3c0.6-0.9 1.3-2.1 1.6-2.5s0.7-1.3 0.9-1.9c0.3-0.6 0.6-1.1 0.8-1.1s0.4-0.4 0.4-0.8 0.4-1.5 0.8-2.3 0.8-1.7 0.8-2 0.3-0.5 0.8-0.5c0.4 0 0.9-0.2 1-0.4s0.4-0.4 0.5-0.4zm-390.8 23.7c0.1 0.9-0.1 2-0.4 2.7-0.4 0.7-0.8 1.7-0.9 2.4s-0.4 1.3-0.6 1.4-0.4 1.1-0.4 2.1c0 1.1-0.2 2.6-0.4 3.5-0.3 0.9-0.7 3.1-0.9 4.9-0.5 4-1.5 4.7-1.5 1.1 0-1.7 0.1-2.2 0.6-2.2s0.6-0.6 0.6-3 0.1-3 0.6-3 0.6-0.6 0.6-2.8 0.1-2.8 0.6-2.8c0.4 0 0.6-0.4 0.6-1.6s0.2-1.6 0.6-1.6q0.6 0 0.7-1.3c0-1.2 0-1.2 0.2 0.2zm-4.8 25c0.1 1.1 0.1 3.1 0 4.4s-0.1 0.3-0.1-2.1c-0.1-2.4 0-3.5 0.1-2.3zm1.1 14.4c0.2 1.5 0.4 3 0.6 3.4 0.2 0.3 0.5 1.9 0.7 3.5 0.1 1.6 0.5 3.4 0.8 4 0.3 0.5 0.5 1.2 0.5 1.5 0 0.2 0.3 0.9 0.6 1.6 0.3 0.6 0.6 1.9 0.6 2.8s0.2 1.7 0.4 1.7 0.5 0.5 0.6 1.1c0.4 1.6 4.7 10.7 6.2 13.1 0.4 0.7 0.9 1.5 1.1 1.8 0.4 0.9 1.9 3 2.2 3.1q0.3 0.2 0.3 0.6c0 0.4 1.4 2.4 2.7 3.8 0.5 0.6 0.9 1.2 0.9 1.4 0 1.7 16.8 17.2 20.4 18.9 1.1 0.4 4.4 2.6 4.8 3 0.3 0.4 6.4 4 6.7 4 0.1 0 1.5 0.8 3 1.7 1.6 0.9 3.4 1.9 3.9 2.2 1.2 0.6 2.5 1.4 2.8 1.7 0.1 0.1 1 0.6 1.9 1.1s2.4 1.4 3.4 2c0.9 0.6 2.3 1.4 3.1 1.9 0.8 0.4 2.1 1.2 3 1.7s1.9 1 2.3 1.1c0.4 0.2 0.7 0.4 0.7 0.6s0.4 0.5 0.9 0.6c0.5 0.2 1.7 0.8 2.6 1.5 1 0.6 2 1.1 2.3 1.1s0.7 0.3 1 0.6 0.7 0.6 0.9 0.6 1.1 0.5 2.1 1.2 1.9 1.2 2.1 1.2c0.3 0 0.7 0.2 1 0.5s1.2 0.9 2.1 1.3c1.4 0.8 3.5 1.9 5.6 3.3 0.4 0.3 1.2 0.7 1.6 0.9 0.5 0.2 2.5 1.3 4.4 2.5 2 1.1 4.5 2.5 5.5 3.1 1.1 0.5 1.9 1.1 1.9 1.3s0.2 0.3 0.4 0.3c0.3 0 2 0.9 3.8 2s3.5 2 3.8 2c0.2 0 0.4 0.2 0.4 0.4s0.2 0.4 0.5 0.4 1.5 0.6 2.6 1.4c1.2 0.8 2.4 1.4 2.7 1.4s0.6 0.1 0.6 0.3 0.6 0.6 1.3 1 2.2 1.2 3.3 1.9c1.1 0.6 2.4 1.4 3 1.6 0.5 0.3 1.6 0.9 2.3 1.4 0.7 0.6 1.5 1 1.8 1s0.8 0.3 1.1 0.6 0.8 0.6 1.3 0.6c0.4 0 0.8 0.3 1 0.6 0.1 0.3 0.6 0.6 1.1 0.6s1.2 0.3 1.6 0.6c0.5 0.3 1 0.6 1.3 0.6s1.6 0.5 3 1.2c1.4 0.6 3.4 1.2 4.4 1.4 1 0.1 2 0.4 2.1 0.6s0.9 0.4 1.7 0.4c3.1 0.1 5.3 1.6 2.3 1.6-1 0-1.4-0.2-1.4-0.6 0-0.5-0.6-0.6-3-0.6s-3-0.1-3-0.6c0-0.4-0.5-0.6-1.8-0.6s-1.8-0.2-1.8-0.6q0-0.6-1.2-0.6t-1.2-0.6c0-0.4-0.4-0.6-1.4-0.6s-1.4-0.2-1.4-0.6c0-0.5-0.3-0.6-1.1-0.5-1.2 0.1-2.2-0.4-1.9-0.9 0.1-0.2-0.2-0.4-0.8-0.4s-1-0.2-1-0.6q0-0.6-1.2-0.6t-1.2-0.6-1.2-0.6c-0.9 0-1.1-0.1-0.9-0.6 0.1-0.5-0.1-0.6-1.1-0.6q-1.2 0-1.2-0.6c0-0.5-1-0.8-2.1-0.6-0.2 0-0.3-0.2-0.2-0.6 0.2-0.4 0-0.6-0.5-0.6s-0.9-0.3-1.1-0.6c-0.1-0.3-0.6-0.6-1.2-0.6-0.5 0-1-0.3-1.2-0.6-0.1-0.3-0.6-0.6-1.1-0.6-0.6 0-1-0.3-1.1-0.8-0.2-0.5-0.5-0.7-1.2-0.6-0.7 0-1-0.1-0.8-0.5q0.2-0.5-0.7-0.5c-0.4 0-0.9-0.3-1.1-0.6-0.1-0.3-0.7-0.6-1.3-0.6-1 0-1.2-0.2-1.2-0.8 0-0.7-0.2-0.9-1.1-0.7-0.9 0.1-1.2 0-1.1-0.5q0-0.6-0.9-0.6-0.9 0.1-0.9-0.6c0-0.5-0.3-0.6-1-0.5-0.8 0.2-1 0-1-0.7 0-0.8-0.2-0.9-1.2-0.7-0.6 0.1-1.1 0.1-1.1-0.1 0.1-1-0.2-1.3-1.4-1.1s-1.4 0.1-1.2-0.6c0.1-0.5 0-0.7-0.7-0.7-0.4 0-0.8-0.3-0.8-0.6 0-0.4-0.4-0.6-1-0.6s-1.1-0.3-1.3-0.6c-0.1-0.3-0.6-0.6-1.1-0.6-0.6 0-1-0.2-1-0.6 0-0.3-0.4-0.6-0.8-0.6s-0.8-0.3-0.8-0.6q0-0.6-1.2-0.6t-1.2-0.6-1.2-0.6-1.2-0.6-1.2-0.6-1.2-0.6q0-0.7-0.7-0.5-0.8 0.2-0.7-0.5 0-0.6-1.1-0.7c-0.6-0.1-1.1-0.4-1.1-0.7q0-0.6-1.2-0.6t-1.2-0.6c0-0.3-0.3-0.6-0.6-0.6s-0.7-0.3-0.9-0.7c-0.3-0.4-0.7-0.5-1.5-0.4-0.8 0.2-1.1 0-1.3-0.5-0.1-0.5-0.5-0.8-0.9-0.8-0.5 0-0.8-0.3-0.8-0.6 0-0.4-0.4-0.6-1-0.6q-1 0-0.8 0.5 0.3 0.4-0.1 0.1c-0.3-0.1-0.5-0.6-0.5-1 0-0.6-0.3-0.8-1.2-0.8-1 0-1.2-0.1-1.1-0.6 0.2-0.4 0-0.6-0.7-0.6-0.6 0-1-0.2-1-0.6q0-0.6-1.2-0.6c-1 0-1.2-0.2-1.2-0.8 0-0.7-0.2-0.8-1-0.6-0.7 0.2-1 0.1-1-0.4 0-0.6-3-2.1-3.7-1.9-0.2 0.1-0.3-0.2-0.3-0.6 0-0.6-0.2-0.7-1.2-0.6-1 0.2-1.2 0.1-1.2-0.7s-1.2-1.2-1.2-0.3c-0.1 0.3-0.2 0.1-0.4-0.5-0.1-0.5-0.6-1.1-1-1.1-0.4-0.1-0.9-0.4-1.1-0.7-0.2-0.4-0.7-0.5-1.3-0.4-0.8 0.2-1 0.1-1-0.6 0-0.6-0.2-0.8-1.2-0.8q-1.2 0-1.2-0.6t-1.2-0.6-1.2-0.6c0-0.3-0.4-0.6-0.8-0.6s-0.8-0.3-0.8-0.6c0-0.4-0.4-0.6-1-0.6s-1-0.2-1-0.6c0-0.3-0.4-0.6-0.8-0.6s-0.8-0.3-0.8-0.6q0-0.6-1.2-0.6c-0.9 0-1.1-0.2-0.9-0.6 0.1-0.5-0.1-0.6-1.1-0.6q-1.2 0-1.2-0.6c0-0.3-0.4-0.6-0.8-0.6s-0.8-0.3-0.8-0.6-0.4-0.6-0.9-0.6-1.6-0.7-2.6-1.8c-0.9-1-1.9-1.8-2.1-1.8s-0.4-0.3-0.4-0.6q0-0.6-1.2-0.6t-1.2-0.6c0-0.3-0.2-0.6-0.5-0.6-0.7 0-1.9-1.4-1.9-2.2 0-0.3-0.3-0.6-0.6-0.6s-0.6-0.3-0.6-0.6c0-0.5-0.2-0.6-0.8-0.5-0.4 0.1-0.7 0.1-0.6-0.1 0.1-0.1-0.2-0.6-0.6-0.9-0.4-0.4-0.8-1.1-0.8-1.5s-0.2-0.8-0.4-0.8-0.5-0.3-0.7-0.7c-0.1-0.4-0.7-1.1-1.2-1.6s-0.9-1.1-0.9-1.3-0.2-0.4-0.4-0.4c-0.7 0-2.4-1.9-2.4-2.7 0-0.4-0.3-0.9-0.6-1-0.3-0.2-0.6-0.6-0.6-0.9q0-0.7-0.6-0.5c-0.4 0.2-0.6 0-0.6-0.9 0-0.6-0.3-1.2-0.6-1.3-0.3-0.2-0.6-0.6-0.6-0.9s-0.3-0.6-0.6-0.6q-0.6 0-0.6-1.2c0-0.9-0.2-1.2-0.6-1.1-0.3 0.1-0.8-0.1-1.2-0.5-0.7-0.8-0.7-0.8-0.1-0.6q0.7 0.3 0.7-0.4c0-0.3-0.3-0.6-0.6-0.6-0.4 0-0.6-0.4-0.6-1s-0.2-1-0.6-1-0.6-0.4-0.6-1.6-0.2-1.6-0.6-1.6q-0.6 0-0.6-1.2t-0.6-1.2c-0.4 0-0.6-0.4-0.6-1.6s-0.2-1.6-0.6-1.6c-0.6 0-0.7-0.5-0.6-2.7 0-0.9-0.1-1.3-0.6-1.3-0.4 0-0.6-0.4-0.6-1.8 0-1.3-0.2-1.8-0.6-1.8-0.5 0-0.6-0.6-0.6-2.8s-0.1-2.8-0.6-2.8-0.6-0.6-0.6-2.6-0.2-2.7-0.6-2.9q-0.6-0.2-0.6-2.1c0-3.2 1-2.6 1.4 0.7zm257.8 55.7c0 0.2 0.3 0.4 0.7 0.4s0.9 0.2 1.2 0.4c0.4 0.5 1.4 1.1 3.1 2 0.4 0.2 1.3 0.8 2 1.2s2 1.2 3 1.7c1 0.6 2.4 1.4 3.2 1.8 0.8 0.5 2.4 1.3 3.6 1.9s2.5 1.2 2.9 1.4 0.9 0.4 1.2 0.4 1 0.3 1.6 0.6 1.6 0.6 2.2 0.8c1.7 0.4 2 1.4 0.5 1.4q-1.2 0-1.2-0.6c0-0.4-0.4-0.6-1.6-0.6s-1.6-0.2-1.6-0.6-0.4-0.6-1.4-0.6-1.4-0.2-1.4-0.6q0-0.6-1.2-0.6t-1.2-0.6-1.2-0.6-1.2-0.6-1.2-0.6-1.2-0.6c0-0.4-0.4-0.6-1-0.6s-1-0.2-1-0.6-0.4-0.6-1.4-0.6c-1.1 0-1.3-0.1-1.1-0.6 0.1-0.4-0.1-0.6-0.7-0.6-0.4 0-0.8-0.3-0.8-0.6q0-0.6-1.2-0.6t-1.2-0.6c0-0.3-0.4-0.6-0.8-0.6s-0.8-0.3-0.8-0.6-0.3-0.6-0.8-0.6c-0.4 0-0.9-0.3-1.2-0.6-1.4-1.7-5.5-0.3-5.3 1.8 0.1 0.9 0 1.1-0.6 1.1-0.6-0.1-0.7 0.2-0.6 1.3 0 0.8-0.1 1.1-0.2 0.7s-0.3-0.7-0.5-0.7c-0.4 0-0.6 0.8-0.4 2.1 0 0.5-0.2 0.6-0.8 0.4-0.8-0.2-0.8-0.1-0.7 1 0.2 0.9 0.1 1.2-0.4 1.1-0.5 0-0.7 0.3-0.6 1.2 0 1.1-0.1 1.3-0.7 1.1-0.6-0.1-0.8 0-0.8 0.7 0 0.4-0.3 0.8-0.6 0.8-0.4 0-0.6 0.4-0.6 1s-0.3 1.1-0.6 1.3c-0.3 0.1-0.6 0.7-0.6 1.3q0 1.2-0.6 1.2c-0.3 0-0.6 0.5-0.7 1.1-0.1 0.7-0.3 1.1-0.6 1-0.4-0.1-0.5 0.2-0.4 0.9 0.1 0.5 0.1 0.9-0.1 0.9-0.9-0.1-1.2 0.2-1.2 1.1 0 0.6-0.2 1-0.6 1q-0.6 0-0.6 1.2t-0.6 1.2c-0.3 0-0.6 0.5-0.7 1.1 0 0.6-0.3 1.1-0.6 1-0.2 0-0.6 0.3-0.7 0.7s-0.4 0.8-0.6 0.8-0.4 0.6-0.4 1.4c0 1-0.2 1.4-0.6 1.4s-0.6 0.4-0.6 1-0.2 1-0.6 1c-0.3 0-0.6 0.5-0.7 1.1 0 0.6-0.3 1.1-0.6 1s-0.5 0.3-0.5 0.7c0 0.5-0.3 0.9-0.6 1.1-0.3 0.1-0.6 0.7-0.6 1.3 0 0.9-0.3 1.3-1.2 1.9-0.7 0.4-1.2 1-1.2 1.3 0 0.4-0.3 0.8-0.6 0.9-0.3 0.2-0.6 0.6-0.6 1 0 0.8-1.3 2.1-2.2 2.1-0.3 0-0.6 0.3-0.6 0.6s-0.3 0.6-0.6 0.6-0.6 0.2-0.6 0.4-0.4 0.8-0.8 1.2-1 0.8-1.2 0.8-0.4 0.2-0.4 0.4-0.4 0.8-0.8 1.2-1 0.8-1.2 0.8-0.4 0.2-0.4 0.4-0.4 0.8-0.8 1.2-1 0.8-1.2 0.8-0.4 0.3-0.4 0.6-0.3 0.6-0.6 0.6c-0.4 0-0.8 0.4-0.9 0.8s-0.5 0.8-0.9 0.8-1.4 0.6-2.2 1.4c-0.8 0.9-1.7 1.4-2 1.2-0.4-0.1-0.6 0.1-0.6 0.4s-0.4 0.6-0.8 0.6c-0.6 0-0.8 0.2-0.7 0.6 0.2 0.5 0 0.6-1.1 0.6-0.9 0-1.4 0.2-1.3 0.5s-0.4 0.6-1 0.6c-0.6 0.1-1.1 0.4-1.1 0.7q0 0.6-1.4 0.6c-1.1 0-1.4 0.2-1.4 0.8 0 0.7-0.2 0.7-1.2 0.5-0.9-0.1-1.2-0.1-1.2 0.5 0 0.4-0.4 0.6-1.6 0.6s-1.6 0.2-1.6 0.6c0 0.5-0.5 0.6-2 0.6s-2 0.1-2 0.6-0.6 0.6-2.8 0.6-2.8 0.1-2.8 0.6c0 0.4-0.4 0.6-1.4 0.6-2.5 0-1.8-1.1 0.9-1.4 1.3-0.2 2.5-0.4 2.7-0.6s1.3-0.4 2.4-0.6c1.9-0.2 2.9-0.6 6.6-2.1 9.6-3.9 16.7-8.6 23.7-15.5 3-3 7.6-8.3 8.5-9.8 0.2-0.4 1.3-2 2.3-3.6 1.1-1.6 2.1-3.1 2.2-3.5 0.3-0.9 1.8-3.1 2.2-3.2 0.2-0.1 0.3-0.4 0.3-0.8 0-0.3 0.5-1.5 1.2-2.6 0.7-1 1.2-2 1.2-2.1s0.5-0.8 1-1.7c0.6-0.8 1.2-1.9 1.5-2.3 0.2-0.4 0.8-1.5 1.3-2.4s1.1-1.9 1.3-2.2c0.1-0.3 0.3-0.7 0.5-0.8 0.1-0.1 0.5-0.9 1-1.8 1-2 4.7-8.3 5-8.6 0.2-0.1 0.4-0.6 0.6-1.2 0.2-0.5 0.5-1.1 0.7-1.4 1.6-1.9 1.9-2.4 1.9-2.7s0.5-0.9 1.1-1.4c1.3-1.1 5.7-0.3 5.7 1.1zm34.8 13.8c4.5 0 7.4 0 6.5 0.1q-1.7 0.1-1.7 0.7c0 0.5-0.8 0.6-4.2 0.6-3.5 0-4.1-0.1-4-0.6 0.2-0.4-0.2-0.6-2.3-0.7-1.4-0.1 1.2-0.1 5.7-0.1zm-124 57.2c5.8 0 9.4 0.1 7.9 0.1-1.5 0.1-2.7 0.3-2.7 0.5s-2.2 0.4-5.2 0.4-5.2-0.2-5.2-0.4-1.2-0.4-2.7-0.5c-1.5 0 2.1-0.1 7.9-0.1z"/>
<path class="s0" d="m240.3 44c0.8 0.2 2.8 0.6 4.4 0.8 1.7 0.2 5.5 1.2 8.5 2.2 4.6 1.6 6.6 2.4 10 4.2 0.3 0.2 1.4 0.8 2.4 1.3s4 2.2 6.7 3.8c2.6 1.6 4.9 2.9 5.1 2.9s0.9 0.5 1.7 1.1 2.2 1.5 3.1 1.9 2.1 1.1 2.8 1.6c0.6 0.4 1.9 1.2 2.8 1.6 0.9 0.5 2.8 1.5 4.2 2.4 1.4 0.8 3.4 1.9 4.4 2.5s2.4 1.4 3 1.9c0.7 0.5 1.9 1.2 2.6 1.5 0.8 0.4 2.9 1.6 4.8 2.7s4.2 2.4 5.2 2.9c3.7 1.9 4.4 3.5 1.5 3.5-0.9 0-4.4 1-6.7 1.8-0.8 0.3-2 0.7-2.8 0.8-1.3 0.3-3.2 1.1-4.4 1.8-0.3 0.2-1.3 0.7-2.2 1.1-0.9 0.3-2 1-2.6 1.3-0.6 0.4-2.6 1.7-4.6 3-5.9 3.8-14.5 11.9-16.4 15.4-0.4 0.8-1.1 1.8-1.4 2.2-0.4 0.4-1.3 2-2 3.4s-1.7 3.1-2.2 3.6-2 3.2-3.4 5.8-2.7 5.1-3 5.4c-0.4 0.4-0.6 0.8-0.6 1.1 0 0.2-0.6 1.2-1.4 2.2s-2.2 3.4-3.3 5.4c-1 1.9-2.2 4.1-2.7 4.9s-1.3 2.3-1.8 3.3-1 1.9-1.2 1.9-0.9 1-1.5 2.3c-1.7 3.5-3.4 6.4-5.4 9.5-1 1.5-2.4 4-3.3 5.5-0.8 1.5-2.8 5-4.4 7.7-1.7 2.8-3.5 6.1-4.2 7.4-0.6 1.3-1.5 2.8-2 3.4-0.4 0.6-0.8 1.3-0.8 1.5s-0.7 1.4-1.5 2.7c-0.9 1.2-2 3.1-2.5 4.2s-1.7 3.2-2.7 4.7c-0.9 1.5-1.7 2.8-1.7 2.9 0 0.2-2.4 4.2-2.9 4.8-0.2 0.2-0.8 1.3-1.4 2.4-2.8 5.4-3.5 6.5-4.4 7.7-0.5 0.7-1.2 2-1.6 2.8-0.7 1.3-1.8 3.3-3.2 5.5-0.3 0.4-0.9 1.6-1.4 2.6s-1.4 2.4-2 3.2-1.1 1.6-1.1 1.8c0 0.1-1.4 2.8-3.2 5.8-1.8 3.1-3.2 5.7-3.2 5.8 0 0.2-0.7 1.3-1.5 2.5-0.9 1.3-2.2 3.7-3.1 5.3-0.8 1.6-2 3.6-2.6 4.4-0.5 0.8-1.4 2.1-1.8 3s-1.5 2.9-2.5 4.4c-0.9 1.6-1.7 3-1.7 3.2 0 1.9-9.1 9.9-12.6 11-0.9 0.3-1.8 0.6-2 0.8-4 3-23 0.1-26.2-4-0.3-0.4-3.6-2.3-7.2-4.1-6.6-3.3-7.8-5-5.4-7.9 0.3-0.3 1.3-2.1 2.2-4s2.9-5.4 4.4-7.8c1.6-2.4 3.2-5.2 3.8-6.2 0.5-1 1.8-3.5 3-5.6s2.4-4.3 2.8-5c0.3-0.7 1-1.8 1.5-2.4 0.4-0.7 0.9-1.7 1.1-2.2 0.2-0.6 0.8-1.6 1.4-2.4 0.5-0.8 1.3-1.9 1.6-2.6 2.4-4.3 3.5-6.2 4.5-7.5 0.6-0.9 1.1-1.8 1.1-2s1.3-2.6 3-5.3c1.6-2.7 3-5.1 3-5.2 0-0.2 1.2-2.2 2.6-4.6s2.6-4.4 2.6-4.6 0.7-1.4 1.6-2.7c0.8-1.3 1.7-2.7 1.8-3.2 0.2-0.4 1.6-3 3.2-5.7 1.7-2.7 3-5 3-5.2 0-0.1 0.4-0.8 1-1.5 0.5-0.7 1.1-1.8 1.2-2.4 0.2-0.6 0.5-1.2 0.7-1.3 0.2-0.2 0.5-0.7 0.7-1.1 0.2-0.5 0.8-1.4 1.2-2.1s1.1-2 1.6-3 1.1-2.1 1.3-2.6c0.7-1.3 1.9-5.6 2.7-9.8 0.6-2.9 0.5-11.6-0.2-14-0.3-1.2-0.6-3.1-0.8-4.1-0.1-1-0.4-2-0.6-2.1s-0.4-0.7-0.4-1.3c0-0.5-0.3-1.5-0.6-2-0.3-0.6-0.9-1.8-1.2-2.7-0.4-0.9-1-2-1.4-2.4-0.8-0.9-2.2-3.1-2.8-4.4-0.4-1-9.1-9.4-9.7-9.4-0.2 0-0.7-0.2-1.1-0.5-0.3-0.4-1.7-1.2-3-1.9s-3.1-1.9-3.9-2.5c-0.8-0.7-2.8-1.9-4.4-2.7-3.7-1.8-4.7-2.5-4.7-3s1.6-3.8 2-4c0.2-0.1 0.4-0.6 0.4-1s0.1-0.8 0.3-0.9c0.4-0.2 3.3-4.4 3.3-4.9 0-0.2 0.2-0.6 0.5-1 0.3-0.3 1.4-2.2 2.5-4.1 1.9-3.7 3.7-6.4 7.4-11.2 1.2-1.6 2.4-3.1 2.6-3.4 1.8-2.4 9.1-8.8 12.6-11 9.1-5.9 10.4-6.7 11.5-6.9 0.6-0.2 2-0.7 3.1-1.2 6.4-2.9 15.2-5.1 24-6 2.9-0.2 15.2 0.1 16.5 0.6zm-126.3 51c0.3 0.3 1.9 1.2 3.6 2.1 1.6 0.9 5.4 3.1 8.3 4.8 3 1.8 6.3 3.8 7.5 4.3 1.2 0.6 2.4 1.3 2.6 1.6 0.3 0.4 1.6 1.2 2.8 1.9 1.2 0.6 3.4 1.8 4.8 2.5 1.4 0.8 2.9 1.5 3.4 1.7 0.7 0.2 4.1 2.3 9 5.5 0.8 0.5 2 1.3 2.8 1.6 3.7 1.7 6.2 4.1 10.4 10 3.2 4.7 4.7 13.3 3.4 19.8-0.6 2.9-4.7 11.5-6.6 14-0.5 0.5-0.8 1.1-0.8 1.4s-0.3 0.9-0.7 1.4c-0.4 0.6-1.4 2.2-2.1 3.6-0.8 1.4-1.5 2.7-1.7 2.8-0.1 0.1-0.8 1.3-1.4 2.7-1.4 2.9-2.9 5.4-3.4 5.7-0.4 0.3-1.3 1.8-1.7 2.8-0.1 0.3-0.4 0.9-0.6 1.2s-0.8 1.5-1.4 2.6c-1.1 2.2-1.3 2.4-3.7 6.3-1 1.5-2.2 3.7-2.8 4.8-1.2 2.5-3.3 6-5.5 9.5-1 1.4-2.2 3.7-2.9 5-1.5 3.1-4.2 7.9-4.5 8.2-0.4 0.3-4.7 7.6-5.3 9-0.3 0.7-1 1.9-1.6 2.8-0.6 0.8-1.1 1.7-1.1 1.9s-0.5 1-1.1 1.8c-0.7 0.8-1.7 2.6-2.4 3.9-1.7 3.5-3.7 7.1-4.4 7.8-0.3 0.4-0.5 0.9-0.5 1.1 0 0.3-0.6 1.3-1.3 2.2-0.7 1-1.6 2.4-1.9 3.1-0.5 1.4-5.5 10-6 10.4-0.8 0.7-4.2 8.2-5.7 12.8-3.8 11.3-4.9 20.9-3.4 30.8 1.1 7.4 1.4 8.9 2.3 11.2 1.1 2.8 0.7 3.1-2.1 1.8-1.2-0.5-2.4-1-2.5-1-0.2 0-1-0.5-1.9-1.2-1.5-1-3.8-2.5-6-3.8-0.3-0.2-2-1.1-3.8-2-1.7-0.9-3.4-1.9-3.8-2.3-1.1-0.9-8.2-5.1-8.8-5.1-0.2 0-1.6-0.8-3.1-1.8-2.6-1.7-7.9-4.7-12.8-7.3-1.4-0.7-3.9-2.3-5.6-3.5-1.6-1.2-3.1-2.2-3.3-2.2-0.8 0-5.8-4.4-11.9-10.4-3-3.1-10-12.4-10-13.4 0-0.2-0.8-1.6-1.7-3.1-1-1.6-1.9-3.5-2.1-4.3s-0.5-1.9-0.8-2.4c-0.9-1.7-2.5-6.7-3.9-12.4-2-8.5-1.7-29.3 0.5-33.6 0.2-0.3 0.4-1.4 0.6-2.4s0.4-2 0.6-2.2 1-2.5 1.8-5c0.9-2.5 1.9-5.1 2.4-5.8s1.4-2.3 2.1-3.6c1.6-3.3 3.7-7 4.5-8.2 0.4-0.6 0.8-1.3 0.9-1.6 0.2-0.3 0.7-1.1 1.1-1.8s1.2-2.1 1.8-3.2 1.5-2.6 2-3.3c0.6-0.7 1-1.4 1-1.7 0-0.2 0.7-1.5 1.5-2.8 2-3.1 2.9-4.6 4-7 0.5-1.1 1.4-2.6 1.9-3.3 0.6-0.7 1-1.4 1-1.5s0.9-1.8 2.1-3.7c1.8-3.2 3.1-5.4 5.9-10.9 0.5-1 1.4-2.5 2.1-3.2 0.6-0.8 1.5-2.3 1.9-3.2 1.7-3.7 5.4-10.4 6.2-11.3 0.5-0.6 1.9-3 3.2-5.3 1.3-2.4 2.9-5.4 3.5-6.6s1.6-2.7 2.1-3.2c0.5-0.6 1.9-3 3.2-5.5 1.2-2.4 2.4-4.6 2.6-4.7s1.1-1.2 2-2.4c2.5-3.3 10-7.8 15.2-9 5.3-1.3 16.5 0.9 20 3.8zm233.4 5.6c1.1 0.5 3.3 1.6 5 2.4 4.3 2 7.4 3.8 8.7 5 0.6 0.6 2.1 1.7 3.3 2.5 3.8 2.5 8.7 7.7 9.9 10.4 0.3 0.6 0.8 1.2 1.1 1.4 0.3 0.1 1.2 1.2 1.9 2.4 0.6 1.3 1.8 3.2 2.5 4.3s1.9 4.2 2.8 6.8c0.8 2.6 1.6 5.2 1.8 5.7 1.7 4.1 1.7 20.6 0.2 26.8-0.9 3.5-2.3 7.9-2.6 8.3-0.2 0.2-0.4 0.9-0.5 1.4-0.3 1.1-2 4.2-5.9 10.8-1.3 2.2-2.4 4.3-2.6 4.8-0.2 0.6-0.8 1.6-1.4 2.4s-1.4 2.1-1.8 3-1.8 3.3-3.1 5.5c-1.3 2.1-2.3 4-2.3 4.1s-0.8 1.4-1.7 2.9c-1 1.5-2.2 3.4-2.7 4.3-0.4 0.9-1 1.9-1.2 2.2-1.8 2.9-5.2 8.9-5.2 9.1 0 0.1-0.3 0.6-0.8 1.1-0.4 0.4-1.6 2.5-2.7 4.6-1.9 3.7-3.4 6.4-5.2 8.9-0.4 0.7-1.8 3.1-2.9 5.3-1.2 2.2-3.1 5.5-4.3 7.4-1.2 1.8-2.9 4.8-3.7 6.5-0.9 1.7-2 3.8-2.6 4.5-1.5 2.1-4.5 6.9-5.6 9.3-8.5 18.1-21.1 27.2-33.7 24.5-1.2-0.2-3-0.6-4.1-0.8-1.2-0.3-3.6-1.4-5.6-2.6-1.9-1.1-3.9-2.2-4.4-2.4-0.6-0.2-2-1-3.3-1.8-1.3-0.9-2.4-1.6-2.5-1.6-0.6 0-7.4-4.2-7.6-4.7-0.1-0.3 0-0.8 0.2-1.2s0.8-1.7 1.4-2.9c1.2-2.6 2.8-5.3 4.2-7.2 1.1-1.5 1.2-1.6 3.6-6.4 0.9-1.7 2-3.5 2.6-4.2 0.5-0.6 1-1.3 1-1.5s0.4-1 0.9-1.8c0.6-0.8 1.9-3.3 3.1-5.5 1.1-2.2 2.6-4.6 3.2-5.4s1.7-2.7 2.5-4.2c0.7-1.5 2.2-4.1 3.2-5.8 1.1-1.6 1.9-3.1 1.9-3.4 0-0.2 0.4-0.9 0.9-1.6 0.5-0.6 1.9-3 3.1-5.2s2.6-4.8 3.3-5.7c0.6-0.9 1.1-1.7 1.1-1.9 0-0.1 0.5-1 1.1-1.9 1.2-1.9 1.4-2.2 3.5-6.1 0.8-1.5 2-3.6 2.7-4.5 0.6-1 1.1-1.8 1.1-1.9s0.8-1.5 1.8-3.1c1-1.7 1.8-3.1 1.8-3.3s0.5-1.1 1.2-2.1c1.1-1.6 1.9-3 4.7-8.2 7-12.8 6.2-32.1-1.9-43.8-0.9-1.3-1.6-2.6-1.6-2.8 0-1.1-8.8-8.9-11.8-10.4-0.9-0.5-3.1-1.8-4.9-3.1-1.9-1.2-4.3-2.7-5.4-3.2-5.4-2.7-8.5-4.6-8.6-5.2q-0.4-1.8 6.6-9c9.8-9.9 18.4-14.1 32.5-15.7 6.4-0.8 18.8 1.1 23.8 3.5zm-71.2 35.8c0.6 0 5 2 5.4 2.4 0.1 0.1 1 0.7 2 1.2s2.5 1.4 3.3 2c0.8 0.7 1.5 1.2 1.7 1.2 0.1 0 1.1 0.5 2.1 1.2 1.1 0.7 2.2 1.2 2.5 1.2 0.7 0 5.1 3.5 7.6 6 7.3 7.5 9.2 21.8 4.1 30.4-0.5 0.8-1.2 2.1-1.6 3-0.7 1.5-4 7.3-6.2 10.8-0.6 0.9-1.6 2.7-2.3 4s-2.1 3.8-3 5.4c-1 1.6-2.6 4.5-3.7 6.4-1 1.9-2.4 4.1-3 5-0.6 0.8-1.1 1.7-1.1 2s-0.7 1.4-1.5 2.6c-0.9 1.2-2.1 3.2-2.7 4.4-1.1 2.3-1.2 2.6-3.3 5.8-0.6 1.1-1.6 2.7-2 3.6-0.7 1.4-1.5 2.8-5.6 9.5-0.7 1.2-1.9 3.3-2.6 4.7-3.1 6-4.5 8.4-7.1 12.3-0.5 0.8-1.6 2.9-2.5 4.5s-2.2 4-3 5.3c-0.7 1.2-1.3 2.3-1.3 2.5s-0.5 1-1.2 1.8c-0.6 0.8-1.8 2.6-2.5 4-0.7 1.5-1.8 3.3-2.4 4.2s-1.1 1.7-1.1 1.9-0.5 1.1-1.1 2c-1.5 2.3-3.1 5.3-4.4 7.9-0.5 1.1-1.7 3.1-2.5 4.4-1.7 2.5-5.6 9-5.6 9.3 0 0.4-5.8 10.3-7.9 13.5-0.5 0.8-1.1 2-1.5 2.8-0.7 1.5-1.5 2.9-1.8 3.2-0.2 0.1-0.6 0.7-0.9 1.4s-1.2 1.8-1.9 2.6c-0.6 0.8-1.2 1.5-1.2 1.7 0 0.9-12.2 12.2-13.5 12.5-0.6 0.1-1.6 0.7-2.3 1.2-1.4 1.1-5.7 3.4-6.3 3.4-0.2 0-1.5 0.5-2.9 1.2-2.7 1.3-4.5 1.8-9.2 2.6-1.8 0.3-4.4 0.7-5.8 1-2.8 0.5-11.7 0.3-13.8-0.4-0.7-0.2-2.4-0.5-3.8-0.7-4-0.6-6.6-1.5-10.8-3.6-2.1-1.1-4.3-2.1-4.8-2.3-0.6-0.2-1.6-0.7-2.3-1.2-0.7-0.6-1.4-1-1.6-1s-1.6-0.9-3.1-2c-1.4-1.1-2.7-2-2.8-2-1 0-11.1-11.1-11.6-12.8-0.2-0.5-0.7-1.6-1.3-2.3-0.5-0.7-1.3-2.1-1.8-3-0.4-0.9-1.1-2.3-1.5-3.1-1.3-2.5-2.3-6.1-2.6-9.3-0.1-1.7-0.4-3.5-0.6-3.9-1.3-2.5 0.1-16.4 2.3-23.6 2.4-7.4 2.8-7.8 7.3-5.6 1.3 0.7 2.5 1.2 2.6 1.2s1 0.5 1.9 1.1 2 1.3 2.4 1.5c0.3 0.2 2.2 1.3 4 2.5 1.9 1.2 3.6 2.1 3.9 2.1 0.2 0 1.4 0.5 2.7 1.2 12.5 6.3 29.7 5.1 42.4-3 2.1-1.4 11.3-10.3 11.3-11 0-0.2 1-1.9 2.2-3.6 1.2-1.8 2.4-3.7 2.6-4.3 0.2-0.5 0.8-1.5 1.2-2.2 0.5-0.6 1.4-2.2 2.1-3.4 2-3.6 2-3.8 3.6-6.1 0.8-1.3 1.8-3.2 2.4-4.2 0.9-1.9 4.2-7.6 5.6-9.7 0.4-0.6 0.8-1.4 1-1.8 0.1-0.4 0.3-0.7 0.5-0.7s0.5-0.4 0.6-0.9c0.3-1.1 1.5-3.6 1.8-3.9 0.2-0.1 0.7-1 1.2-2 0.6-1 1.5-2.5 2.1-3.3s1.1-1.5 1.1-1.7c0-0.1 0.8-1.6 1.8-3.2 1-1.7 1.8-3.2 1.8-3.5 0-0.2 1.2-2.1 2.6-4.3 1.4-2.1 2.6-3.9 2.6-4.1 0-0.1 0.6-1.2 1.3-2.4 0.6-1.1 1.7-3.1 2.4-4.3s1.7-3 2.3-3.9c0.7-1 1.2-1.9 1.2-2.1s0.1-0.4 0.3-0.5c0.4-0.1 2.1-3.3 2.1-3.9 0-0.2 0.5-0.9 1-1.5 0.6-0.6 1.1-1.5 1.3-2.1 0.1-0.5 0.6-1.5 1.1-2.2s1.4-2.1 2-3.2 1.4-2.5 1.8-3.2c0.3-0.7 1.3-2.5 2.2-4 0.8-1.5 2-3.5 2.6-4.4s1.7-2.7 2.4-4 1.5-2.7 1.9-3c0.3-0.4 0.5-0.8 0.5-1s0.6-1.3 1.4-2.5c0.8-1.1 1.4-2.3 1.4-2.5s0.7-1.4 1.6-2.7c0.8-1.3 1.9-3.1 2.4-4.1s1.1-2 1.4-2.3c0.4-0.3 0.6-0.7 0.6-0.9s0.7-1.6 1.6-3.1c0.9-1.4 1.8-2.9 1.9-3.3 0.2-0.4 0.9-1.7 1.7-3 0.8-1.2 1.9-3 2.5-4s1.4-1.8 1.7-1.8zm-250.2 159.1c0.6 0.6 1 1.2 1 1.3-0.2 0.2-2.2-1.7-2.2-2.1 0-0.2 0.5 0.2 1.2 0.8zm269.4 18.3c3.3 0 4.7 0 3.1 0.1s-4.3 0.1-6 0-0.4-0.1 2.9-0.1z"/>
</g>
</svg>
