<svg version="1.2" xmlns="http://www.w3.org/2000/svg" viewBox="0 0 400 400" width="24" height="24">
	<title>gramophone-svg</title>
	<style>
		.s0 { fill: #000000 } 
	</style>
	<path id="path0" fill-rule="evenodd" class="s0" d="m195.5 29.2h4.4c3.4 0 5.1 0.4 7.2 1.7 10.7 6.2 43.2 24.9 46.3 26.6 2.1 1.2 4.6 2.7 5.6 3.4 1 0.7 2 1.3 2.2 1.3 0.2 0 3 1.5 6.3 3.4 3.2 1.9 6.2 3.4 6.5 3.4 0.4 0 0.7 0.3 0.7 0.7 0 0.4 0.3 0.7 0.6 0.7 0.4 0 2.3 0.9 4.3 2.1 2 1.2 4.6 2.7 5.7 3.4 1.1 0.6 6.7 3.9 12.3 7.2 15.3 8.9 26.5 15.4 26.9 15.4 0.2 0 1.2 0.6 2.2 1.3 1 0.7 3.5 2.2 5.6 3.3 7.2 3.9 46.8 26.9 50.9 29.4 1.4 0.9 2.7 1.7 2.8 1.7 2.4 0 11.1 7 12.7 10.2 1.7 3.7 1.7 108.3 0 111.5-1.6 3-10.5 9.9-12.7 9.9-0.1 0-1.4 0.8-2.9 1.7-4.4 2.8-42.4 24.8-50.8 29.4-2.1 1.1-4.6 2.6-5.6 3.3-1 0.7-2 1.3-2.2 1.3-0.4 0-11.6 6.5-26.9 15.4-5.6 3.3-11.2 6.6-12.4 7.3-1.2 0.6-4.2 2.4-6.7 4-2.6 1.5-4.7 2.8-4.9 2.8-0.1 0-5 2.8-10.9 6.2-6 3.4-10.9 6.1-11 6.1-0.1 0-2.8 1.6-5.8 3.5-3.1 1.8-5.7 3.4-5.8 3.4-0.1 0-8.2 4.6-18 10.3l-17.7 10.3h-4.5c-4.2 0-4.9-0.3-11.7-4.2-7.5-4.4-24-13.9-28.1-16.2-1.3-0.8-7.5-4.3-13.7-7.9-6.2-3.6-12.7-7.3-14.4-8.2-1.7-1-4.2-2.4-5.6-3.2-1.5-0.8-3.8-2.1-5.2-2.9-1.4-0.8-2.9-1.7-3.2-2-0.4-0.3-1.8-1.2-3.1-1.9-1.3-0.7-7.1-4.1-12.7-7.4-11.3-6.6-21-12.2-25.7-14.9q-4.9-2.7-10.5-5.9c-1.2-0.7-7.3-4.2-13.5-7.8-17.2-9.8-32.9-19-35.8-20.8-1.4-0.9-2.7-1.7-2.9-1.7-0.7 0-8.4-4.9-9.9-6.3-4.1-3.9-3.9-0.6-3.9-59.5 0-58.9-0.2-55.6 3.9-59.5 1.5-1.4 9.2-6.3 9.9-6.3 0.2 0 1.4-0.8 2.8-1.7 4.1-2.5 43.8-25.5 51-29.4 2-1.1 4.5-2.6 5.5-3.3 1-0.7 2-1.3 2.2-1.3 0.4 0 11.7-6.5 26.9-15.4 5.6-3.3 11.2-6.6 12.3-7.2 1.2-0.7 3.7-2.2 5.7-3.4 2-1.2 3.9-2.1 4.3-2.1 0.4 0 0.7-0.3 0.7-0.7 0-0.4 0.2-0.7 0.6-0.7 0.3 0 5.4-2.8 11.4-6.2 5.9-3.4 10.8-6.1 11-6.1 0.1 0 2.7-1.6 5.8-3.5 3-1.9 5.6-3.4 5.8-3.4 0.1 0 8.1-4.6 17.9-10.3zm-42.5 52.2c-1.5 0.4-4 1.1-5.5 1.4-1.5 0.4-3.4 1-4.1 1.3-0.8 0.2-2.6 0.9-4.1 1.4-14.6 4.6-38.8 20.7-38.8 25.8 0 0.5-0.2 0.9-0.6 0.9-0.3 0-1.7 2.1-3 4.6-8.3 16.1-3.1 33.4 14.3 47.2 3.6 2.9 3.6 2.9 10.7 7.2 23.1 13.9 62.1 19.1 98 13.1 8-1.4 17.9-4.1 23.6-6.6 1.1-0.5 3.5-1.5 5.2-2.1 45.2-17.9 49.8-59.4 9.2-82.2-6.1-3.4-18.3-8.6-20.3-8.6-0.7 0-1.4-0.3-1.6-0.6-0.2-0.4-1.2-0.8-2.3-1-1-0.2-3.2-0.8-4.9-1.2-5.8-1.4-9.3-2.1-14.4-2.8-18.5-2.5-47.3-1.5-61.4 2.2zm71 56.1c-10.2 20-59.7 19.3-69.2-1-4.5-9.4 5.4-19.4 22.8-23.2 26.2-5.8 54.2 8.9 46.4 24.2zm90.8-2.3c-0.8 4.2 1.4 6.7 10 11.5 3.8 2.1 4 2.7 1.2 4.1-1.2 0.6-3 1.6-4 2.2-2.3 1.4-13.1 7.6-17.8 10.2-2.1 1.1-3.9 2.2-4.1 2.4-0.2 0.3-1.6 1.1-3.1 1.9-3.4 1.8-22.8 13-29.8 17.2-2.7 1.7-6 3.6-7.2 4.3-1.1 0.7-7.2 4.2-13.4 7.8l-11.2 6.6h-15c-18 0-20.4 0.8-20.4 6.9 0 6.2 2 6.8 22.3 6.8h17.6l4.2-2.5c2.3-1.3 5.1-3 6.3-3.6 1.1-0.7 4.8-2.9 8.2-4.9 3.4-1.9 11.3-6.5 17.5-10.1 6.2-3.5 12.5-7.2 14-8.1 1.6-0.9 3.3-1.9 4-2.1 0.7-0.2 1.2-0.7 1.2-1 0-0.3 0.3-0.6 0.7-0.6 0.3 0 6.7-3.6 14.2-8 7.5-4.3 14.6-8.5 16-9.3 1.3-0.7 2.7-1.6 3-1.9 0.4-0.3 1.9-1.2 3.3-2 1.4-0.8 3.7-2.1 5.1-2.9 1.5-0.8 3.8-2.1 5.2-2.9 7-3.7 9.2-8.8 5.7-12.7-1.2-1.4-15.3-9.9-22.3-13.5-5.5-2.9-10.4-1-11.4 4.2z"/>
</svg>