<svg version="1.2" xmlns="http://www.w3.org/2000/svg" viewBox="0 0 24 24" width="24" height="24">
	<title>grewards-svg</title>
	<style>
		.s0 { fill: #ffffff } 
	</style>
	<path id="Layer" fill-rule="evenodd" class="s0" d="m4.4 1h15.2v2.9h4.4v3.5c0 3.2-2.4 5.9-5.5 6.3-1.1 1.7-2.8 3-4.9 3.4v2.7h1.8c1.5 0 2.7 1.2 2.7 2.7v0.1h-12.3v-0.1c0-1.5 1.2-2.7 2.7-2.7h1.7v-2.7c-1.9-0.5-3.6-1.7-4.7-3.4-3.1-0.4-5.5-3.1-5.5-6.3v-3.5h4.4zm15.2 8.6q0 0.8-0.1 1.4c1.3-0.6 2.2-2 2.2-3.6v-1.3h-2.1zm-15.2 0v-3.5h-2.1v1.2c0 1.6 0.9 3 2.2 3.7q-0.1-0.7-0.1-1.4zm9.5-0.5l2.3-1.9-3-0.2-1.2-2.7-1.2 2.7-3 0.2 2.3 1.9-0.7 2.9 2.6-1.5 2.6 1.5z"/>
</svg>