<svg version="1.2" xmlns="http://www.w3.org/2000/svg" viewBox="0 0 400 400" width="24" height="24">
	<title>heymelody-svg</title>
	<style>
		.s0 { fill: #050505 } 
	</style>
	<g id="svgg">
		<path id="path0" fill-rule="evenodd" class="s0" d="m179.7 1.9c-114.9 23.1-138.2 174.7-34.8 226.9 14.2 7.1 18.8 8.4 23.1 6.6 4.7-1.9 4.7-2.2 4.7-55.7 0-52.6-0.1-51.2 4.7-55.5 7.5-6.6 17.3-4.6 21.9 4.3 1.4 2.8 1.5 7.1 1.8 85.1 0.3 94.1-0.1 89.2 8.5 111.1 16.7 42.4 63.9 76.6 104 75.3l7-0.3 0.3-140.2c0.2-160.3 0.5-151.6-6.2-177.4-2.5-9.4-13.3-28.1-22.8-39.6-26.1-31.4-73.2-48.4-112.2-40.6z"/>
	</g>
</svg>