<svg version="1.2" xmlns="http://www.w3.org/2000/svg" viewBox="0 0 400 400" width="24" height="24">
	<title>1-svg</title>
	<style>
		.s0 { fill: #050505 } 
	</style>
	<path id="path0" fill-rule="evenodd" class="s0" d="m87 2.8c4.4 0.8 6.8 1.3 7.7 1.6 0.5 0.2 1.3 0.4 1.7 0.4 0.5 0 1.1 0.2 1.5 0.4 0.4 0.1 1.4 0.5 2.3 0.8 4 1.2 10.7 4.4 15.1 7.2 3.2 2 10.8 7.2 11.1 7.6 0.1 0.1 1.4 1 2.8 2 1.4 1 2.7 1.9 2.8 2 0.1 0.1 1.3 1 2.6 1.9 13.6 9.4 20 15 24.8 21.4 1 1.4 2.1 2.8 2.3 3.1 2.9 3.5 8.7 15.4 9.9 20.2 0.2 0.7 0.6 2.2 0.9 3.4 0.6 2.2 1.1 4.7 1.9 9 0.5 3.1 0.5 15.6 0 18.8-1.2 6.8-1.8 9.1-3.5 14.2-6.1 18.3-19.1 33.2-36.9 42.1l-3.8 1.9-0.1-2.5c-0.5-8.3 3.1-31.6 6.3-40.7 0.1-0.5 0.7-2.3 1.2-4 0.5-1.6 1.2-4 1.7-5.2 2-6.2-0.2-10.8-5.3-10.8-4.2 0-5.7 1.6-7.6 8-0.5 1.7-1 3.4-1.2 3.8-0.2 0.4-0.5 1.6-0.8 2.6-0.3 1-0.7 2.5-1 3.4-0.3 0.9-1 3.6-1.6 6-0.5 2.4-1.2 5-1.4 5.8-0.5 1.9-1.8 10.3-2.7 16.4-0.5 4.4-0.7 12.2-0.9 64-0.2 53.1-0.3 59.2-0.9 61.2-3 9.8-10.6 16.7-20.6 18.8-3.3 0.6-16.7 0.5-20.2-0.2-11.2-2.3-19.6-11.9-20.5-23.5l-0.3-3.5h30.1l1.6-1c2.9-2 3.8-5.2 2.3-8.2-1.8-3.5-1.1-3.4-18.4-3.6l-15.3-0.2-0.2-55.4c-0.2-39.2-0.4-55.9-0.7-57-0.3-0.9-0.5-2.4-0.5-3.3 0-0.9-0.2-2.5-0.4-3.4-0.2-0.9-0.6-3-0.8-4.5-0.7-4.1-4.2-18.8-7.4-30.7-1.5-5.8-6.6-8-10.7-4.7-2.9 2.4-3 3.7-1.2 11 5.3 21 5.5 21.6 6.5 27.2 0.5 2.5 0.7 4.1 1.2 9 0.2 2.1 0.5 4.6 0.6 5.5 0.3 2 0.3 2-1.6 0.9-13.9-7.8-24.8-19.9-31.4-34.6-0.5-1.1-1-2.3-1.2-2.7-0.2-0.4-0.4-1-0.4-1.4 0-0.4-0.1-0.9-0.3-1.1-0.3-0.4-0.9-1.9-1.7-5-0.2-1-0.6-2.4-0.8-3-0.2-0.7-0.4-1.7-0.4-2.3 0-0.5-0.2-1.5-0.4-2.1-1.7-5.6-1.1-20.1 1.2-29.4 0.2-1 0.5-2.3 0.7-2.9 0.1-0.6 0.4-1.2 0.5-1.3 0.2-0.1 0.4-0.7 0.4-1.2 0-0.5 0.2-1.1 0.4-1.2 0.2-0.1 0.4-0.5 0.4-0.8 0-2.1 7.1-15.3 11.3-20.9 8.1-11.1 17.9-18.7 31.5-24.6 5.9-2.6 16.1-5 22.6-5.2 4.3-0.2 12.5 0.1 15.2 0.5zm101 68.1c7.9 5.9 18.8 20.5 18.8 25.2 0 0.3 0.1 0.7 0.3 0.9 0.2 0.2 0.6 1.2 0.9 2.2 0.3 1 0.6 2.3 0.8 2.8 0.3 1 0.7 3 1.6 7.8 0.5 3.1 0.5 11.2 0 14.4-1.7 9.2-2.7 12.5-6.3 19.6-1.2 2.3-7.4 12.4-8.4 13.6-0.2 0.2-0.8 1-1.3 1.8-2.4 3.4-7.2 8.3-11.1 11.3-2.5 1.9-8.7 5.9-9.2 5.9-0.2 0-1.4 0.5-2.7 1.2-1.3 0.6-2.7 1.2-3.1 1.2-0.3 0-0.8 0.2-0.9 0.4-0.1 0.1-0.7 0.4-1.3 0.5-0.6 0.1-1.8 0.4-2.7 0.7-10.2 2.9-23.9 2.7-32.1-0.4-2.2-0.9-0.9-6.4 1.6-6.4 0.9 0 8.6-3.7 13.3-6.5 20.4-12 35.4-33.3 40.1-57.1 1.1-5.7 1.3-7 1.5-12.8 0.4-9.4-0.5-18-2.7-26.3-0.7-2.6-0.7-2.6 2.9 0zm-107.6 14.3c-0.8 1.5-0.8 2.3-0.8 22.6v21.1l1 1.8c1.1 1.9 2.6 2.8 4.6 2.9 2.9 0.3 3.6 0 5.4-1.8l1.8-1.8v-22c0-24.6 0.2-23.1-2.7-25.1-3.1-2.2-7.6-1-9.3 2.3zm273.9 34.1c3.1 1.5 9.4 5.1 9.6 5.6 0.1 0.2 0.3 0.3 0.6 0.3 0.6 0 8.8 6.7 10.8 9 0.4 0.4 1.5 1.6 2.5 2.6 7.1 7.6 14.9 21.7 17.8 32.4 0.2 1 0.6 2.4 0.8 3 0.2 0.7 0.4 1.7 0.4 2.2 0 0.5 0.2 1.6 0.4 2.4 2 7.6 0.5 27.6-2.4 33.3-0.2 0.4-0.4 1-0.4 1.4 0 0.4-0.1 0.9-0.3 1.1-0.2 0.2-0.6 1.1-0.9 2-2.7 8.4-11.6 21.5-18.6 27.6-1.6 1.3-2.9 2.5-3 2.6-1.9 1.9-9 6.5-18.4 11.7-1 0.5-2.5 1.4-3.3 1.8-0.8 0.5-2.1 1.3-2.9 1.7-0.8 0.4-2.1 1.2-2.9 1.7-0.8 0.4-2.3 1.3-3.3 1.8-1 0.6-3.2 1.8-4.8 2.7-8.3 4.8-17.5 8.2-24.9 9.3-1.8 0.2-1.8 0.2-0.4-2.2 3.6-6.1 6.1-13.3 7.7-21.9 2-11.4-0.8-27.8-6.7-38.6-0.8-1.4-1.6-3-1.9-3.5-0.2-0.5-0.5-0.9-0.7-0.9-0.2 0-0.3-0.2-0.3-0.4 0-0.2-1.2-2.2-2.7-4.5-1.5-2.3-4.6-7.2-6.9-10.9-10.3-16.4-19.9-25.3-32.6-30.2-1.3-0.5-2.7-1-3.1-1.2-0.4-0.2-1-0.4-1.5-0.4-0.4 0-0.9-0.2-1-0.4-0.1-0.2-0.8-0.4-1.5-0.5-0.7-0.1-2.1-0.4-3.1-0.7-2.8-0.7-6.7-1.2-10.9-1.5-2.1-0.1-3.9-0.3-3.9-0.5 0-1.3 10.7-10.8 17.4-15.6 1.7-1.2 3.9-2.7 4.8-3.4 0.9-0.7 2.8-2 4.2-3 1.4-1 4.6-3.3 7-5.1 2.5-1.7 5.8-4.1 7.4-5.2 2.6-1.7 3.9-2.5 8.2-4.8 0.4-0.2 1.4-0.7 2.2-1 0.8-0.3 2-0.9 2.8-1.2 4.7-2.1 14.2-4.5 20.4-5.1 12.4-1.2 27.2 1.3 38.3 6.5zm-0.9 41.2c-7.3 4.6-29 19.2-29.5 19.9-3.3 5.2 2.1 12.3 7.6 9.9 0.8-0.4 20.6-13.2 28.4-18.4 4.1-2.8 3.8-8.9-0.6-11.4-1.1-0.6-4.8-0.6-5.9 0zm-101.3 11.1c0.9 0.3 2.4 0.7 3.3 0.9 1.9 0.5 3.6 1 5 1.6 0.6 0.2 1.5 0.6 2 0.8 9.4 3.8 17.1 10.9 24.1 22.2 2.7 4.4 7 10.9 7.5 11.6 0.2 0.2 0.4 0.6 0.4 0.7 0 0.1 0.9 1.6 2 3.2 1.1 1.6 2 3 2 3.1 0 0.1 0.6 1.2 1.4 2.5 15.3 25.4 1.7 60.2-27.6 71-2.1 0.8-3.8 1.3-8.1 2.4-5.7 1.4-18.5 1.4-24.2 0-5.7-1.5-6.7-1.8-10.5-3.4-8.5-3.6-16.2-9.3-22-16.4-4.5-5.4-13.1-19.9-14.5-24.4-0.3-0.9-0.7-2-0.9-2.4-1.5-3.7-2.8-11.9-2.8-17.6 0-21.4 13.4-43.3 31.6-51.7 3.3-1.5 4.9-2.1 5.4-2.1 0.3 0 0.7-0.2 0.8-0.4 0.1-0.1 0.7-0.4 1.3-0.5 0.6-0.2 2-0.5 3.1-0.7 1.1-0.3 3.1-0.6 4.4-0.8 3.1-0.4 14.1-0.2 16.3 0.4zm-34.8 39.5c-5.2 3.9-2.1 11.7 4.8 11.7 2.3 0 3.1 0.2 6.2 1.7 2.4 1.2 4 3 8.3 9.7 2.1 3.3 4 6.2 4.2 6.5 0.2 0.2 0.4 0.6 0.4 0.7 0 0.1 0.5 1 1.1 1.9 3.5 5.3 3.7 9 0.9 14.7-2.7 5.3-1.6 9.4 3.1 11 4.2 1.4 7.4-1.4 10.5-9.2 1-2.4 1.6-11.8 0.9-13.8-0.2-0.5-0.6-1.8-0.9-2.8-1.2-3.9-11.9-21.1-15.7-25.2-2.6-2.9-9.7-7.2-11.7-7.2-0.4 0-1-0.2-1.3-0.3-2.3-1.2-9-0.8-10.8 0.6zm128 64.9c0.2 0 0.3 18.4 0.3 40.8v40.8h-14.8c-9.4 0-14.8 0.1-15 0.4-0.1 0.2-0.5 0.4-0.8 0.4-0.9 0-3.4 2.4-3.4 3.2 0 0.4-0.2 0.9-0.4 1-1.1 0.7 0 4.6 1.8 6.4 1.7 1.6 3.2 1.8 18.1 1.8 16.2 0 14.8-0.4 14.2 4.3-1.6 11.8-9.3 20.2-20.9 22.7-3.5 0.8-16.5 0.8-20 0-7.1-1.5-14-6.2-17.1-11.8-0.3-0.5-0.9-1.5-1.3-2.2-0.4-0.7-1.1-2.5-1.6-4.1l-1-2.7-0.1-39.1-0.1-39 2.3-1.3c2.7-1.5 9.2-5.9 10.2-6.8 0.5-0.5 1.8-0.8 4.4-1 9.7-0.7 15.4-1.5 20.5-3 0.9-0.2 2.1-0.6 2.8-0.8 4.4-1.2 15-5.9 20-9 0.9-0.5 1.7-1 1.9-1z"/>
</svg>