<svg version="1.2" xmlns="http://www.w3.org/2000/svg" viewBox="0 0 400 400" width="24" height="24">
	<title>heymelody-svg</title>
	<style>
		.s0 { fill: #0b0b0b } 
		.s1 { fill: #000000 } 
	</style>
	<path id="path0" fill-rule="evenodd" class="s0" d="m328.2 13c0.9 0.2 3.5 0.4 5.8 0.6 2.3 0.3 5.1 0.7 6.2 1 1.1 0.4 3.9 1 6.3 1.4 2.7 0.5 5.1 1.2 6.7 2 1.3 0.7 2.7 1.2 3 1.2 0.4 0 1.2 0.4 1.9 0.9 0.6 0.4 2.5 1.3 4.2 1.9 1.6 0.7 3.4 1.5 3.9 2 0.5 0.4 1 0.8 1.3 0.8 0.2 0 0.8 0.5 1.3 1 0.6 0.6 1.9 1.7 3.1 2.4 5.3 3.6 15.6 16.1 18.1 22 0.5 1.1 1.1 2.5 1.4 3 0.3 0.6 0.9 2.2 1.4 3.6 0.5 1.4 1.2 3 1.5 3.4 2.9 4.5 2.8 31-0.1 39.7-0.4 0.9-0.8 2.7-1 3.9-0.2 1.2-0.9 3.3-1.6 4.7-0.7 1.4-1.6 3.4-2.1 4.5-0.4 1.1-1 2.3-1.3 2.6-0.3 0.4-0.9 1.7-1.4 2.9-0.8 2.3-2.7 5.5-3.2 5.5-0.2 0-0.9 0.8-1.5 1.7-1.5 2.5-7.2 8.6-8.7 9.4-0.6 0.3-1.8 1.2-2.6 1.9-0.8 0.7-2 1.5-2.7 1.7-0.8 0.3-2.1 1-3 1.7-1.8 1.5-7.5 3.7-11.1 4.4-1.4 0.3-3.7 0.8-5 1.1-3.6 1-17.9 1-21 0-5.3-1.7-15.9-2.2-19-0.9-2.7 1.1-6.2 5.2-7 8.2-0.2 0.9-0.6 1.6-0.8 1.6-0.5 0-0.5-0.7 0-1 0.2-0.1 0.4-0.8 0.4-1.4 0-2.2 3.5-7.2 5.1-7.2 0.3 0 0.6-0.3 0.8-0.6 0.5-1.4 6-2.9 6.7-1.8 0.1 0.2 2.5 0.5 5.4 0.6 3.9 0.2 5.2 0.4 5.4 0.9q0.2 0.5 2.1 0.5c1 0 6 0.1 11 0.2 6.5 0.2 9.3 0.1 9.7-0.2 0.3-0.3 1.1-0.4 1.7-0.2q1.2 0.2 1.7-0.4c0.2-0.3 1.4-0.7 2.6-0.8 1.2-0.2 2.3-0.5 2.4-0.6 0.1-0.2 0.6-0.4 1-0.4 0.4 0 1.4-0.4 2.2-0.8 0.8-0.4 1.6-0.8 1.8-0.8 0.6 0 5.3-2.3 6.8-3.3 0.8-0.5 1.7-1.1 2-1.2 0.3-0.2 1-0.6 1.4-0.8 1-0.6 7-6.8 7-7.2 0-0.2 0.6-1 1.4-1.7 0.8-0.8 1.4-1.6 1.4-1.8 0-0.1 0.3-0.5 0.6-0.8 1.5-1.2 3.8-5.4 5.5-9.8 0.5-1.3 1.1-2.7 1.4-3 0.3-0.4 0.5-1 0.5-1.5 0-0.4 0.1-0.9 0.3-1.1 0.2-0.2 0.6-1.2 0.9-2.2 0.3-1 0.8-2.2 1.1-2.8 0.3-0.6 0.5-1.6 0.5-2.3 0-0.7 0.3-2 0.6-2.8 0.4-0.8 0.8-2.3 0.9-3.3 0.1-1 0.3-2.2 0.5-2.6 0.8-1.9 1.1-4.7 1-9.4-0.2-8.4-0.7-15.6-1-15.8-0.2-0.1-0.4-0.9-0.4-1.6 0-0.7-0.2-1.5-0.4-1.6-0.2-0.1-0.4-0.6-0.4-1.1 0-0.5-0.2-1.4-0.4-2.1-0.2-0.6-0.7-2.3-1-3.6-0.8-2.6-4.3-10-5.2-11-0.3-0.4-0.6-0.8-0.6-1.1 0-0.2-0.4-0.7-0.8-1.1-0.4-0.4-0.8-1-0.8-1.2 0-0.6-10-10.8-13.4-13.8-2.5-2.2-3.9-3-11-6.4-3.2-1.6-6.5-3.2-7.3-3.6-0.9-0.5-2-0.8-2.6-0.8-0.5 0-1.5-0.4-2.2-0.9-1.1-0.7-1.9-0.9-4.6-0.9-1.9-0.1-3.6-0.3-3.8-0.5-0.3-0.3-1.1-0.5-1.9-0.5-0.8 0-1.6-0.2-1.8-0.4-0.2-0.2-2.1-0.4-4.2-0.6-2.1-0.1-4.9-0.3-6.1-0.5-1.5-0.1-2.5 0-2.8 0.3-0.3 0.2-1.4 0.4-2.6 0.4-1.2 0-2.5 0.2-2.9 0.4q-0.8 0.4-1 0c-0.3-0.5-1.8-0.5-1.8 0 0 0.5-2.3 0.5-2.6 0-0.4-0.6 5.1-1.6 9.1-1.6 2-0.1 4.2-0.2 4.9-0.4 0.7-0.2 1.9-0.3 2.8-0.2zm-17.7 2.7c-0.3 0.3-1.6 0.7-2.8 1-1.3 0.3-2.7 0.6-3.2 0.8-1.9 0.5-0.8-0.7 1.4-1.4 2.7-0.9 5.3-1.2 4.6-0.4zm-8.2 2.4c-0.1 0.3-1 0.8-2 1.1-1 0.4-2.5 1.2-3.2 1.8-0.8 0.6-1.7 1-2 0.9-0.5-0.2 3.6-3 5.5-3.8 1.6-0.6 1.9-0.6 1.7 0zm32.3 1.6c1.3 0.2 3.6 0.5 5 0.7 2.9 0.3 6.8 1.3 9.8 2.4 1.1 0.4 2.7 0.9 3.6 1.2 7.4 2.3 17.6 9.2 22.9 15.6 2.5 3 8.4 11.7 9 13.2 0.2 0.6 0.8 2 1.4 3.2 1 2.2 2.2 5.9 2.9 9.2 0.3 1 0.6 2.5 0.8 3.4 2 8.6 0.5 27.1-2.8 34.4-0.2 0.4-0.6 1.3-0.8 2-3.2 10.6-12 23-19.5 27.2-1 0.6-2.2 1.3-2.5 1.6-1.4 1.1-10 4.4-13.8 5.3-7.5 1.7-20.7 1.4-29.2-0.8-0.9-0.2-2.8-0.6-4.2-0.9-2.5-0.5-8.9-2.5-11.4-3.6-4.7-2.1-6-2.7-7.9-4-1.2-0.8-2.3-1.4-2.5-1.4-0.6 0-6.9-5.2-9.4-7.6-4-4.1-10.8-14.9-10.8-17.3 0-0.3-0.2-0.7-0.4-0.9-0.7-0.8-1.9-5.3-2.2-8.2-0.1-1.6-0.5-4.1-0.8-5.5-0.7-3-0.8-5.6-0.2-8.5 0.2-1.1 0.6-4 0.8-6.5 0.2-2.4 0.6-4.7 0.8-5.1 0.2-0.4 0.5-1.8 0.6-3.1 0.3-2.2 2.5-10.3 3.6-12.7 4.8-10.7 8.1-15.9 13.6-21.2 2.2-2 10.9-8.2 11.7-8.2 0.2 0 0.8-0.3 1.5-0.6 1.9-1 6.5-2.6 7.6-2.6 0.5 0 1.5-0.2 2.1-0.5 0.6-0.2 2.8-0.6 4.9-0.7 4.5-0.4 12.4-0.1 15.8 0.5zm-40.5 2.3c0.7 0-0.2 1.2-1.1 1.4-0.5 0.2-1.2 0.7-1.6 1.2-0.3 0.6-0.8 1-1.1 1-0.3 0-1.8 1.3-3.4 2.9-1.6 1.6-3 2.7-3.1 2.6-0.4-0.4 1.3-2.7 2.7-3.8 0.7-0.5 2.6-1.9 4.3-3.1 1.6-1.2 3.1-2.2 3.3-2.2zm-17.3 19.6c0 0.7-1.1 1.9-1.4 1.5-0.1-0.1 0-0.7 0.2-1.2 0.6-1.3 1.2-1.4 1.2-0.3zm-3.2 5.6c0.5 0 0.2 1.4-0.6 2.7-0.4 0.5-0.7 1.7-0.9 2.7-0.2 1.5-2.1 4.4-2.1 3.2 0-0.8 1.6-5.4 2.4-7 0.4-0.9 1-1.6 1.2-1.6zm-3.6 9.2c0.5 0 0.5 2.3 0 2.6-0.2 0.1-0.4 0.7-0.4 1.1 0 0.5-0.2 1.1-0.4 1.4-0.3 0.2-0.6 1.9-0.7 3.7-0.1 1.8-0.4 3.3-0.6 3.4-0.1 0.2-0.3 0.9-0.3 1.8 0 0.9-0.2 1.6-0.3 1.8-0.2 0.1-0.6 1.6-0.9 3.3-0.2 1.7-0.5 3.5-0.6 4.1-0.1 0.6-0.3 1.7-0.4 2.5 0 0.8-0.3 1.7-0.5 2-0.3 0.3-0.7 1.6-0.9 2.9-0.7 4.4-1.1 6-1.7 7.2-0.4 0.7-0.7 1.5-0.7 1.9 0 0.4-0.2 0.7-0.4 0.7-0.7 0 0.3-6 1.6-9.9 0.5-1.2 0.8-3 0.8-3.9 0-1.8 0.4-3.9 1.8-8.4 0.5-1.8 1.1-4.6 1.4-6.4 0.2-1.8 0.9-4.6 1.4-6.4 0.5-1.8 1.1-3.7 1.2-4.3 0.1-0.6 0.4-1.1 0.6-1.1zm26.4 18.8c0 6.6 6.1 10.5 12.2 7.8 6.1-2.7 6.4-12.4 0.4-15-6.3-2.8-12.6 0.8-12.6 7.2zm74.2 2.4c-1.5 1.2-3.4 6.5-4.4 12.4-0.3 1.6-1.3 5.9-3 13.3-1.8 7.4-1.6 9.5 1.2 12.1 4.2 4 11.2-1 11.2-8.1 0-0.5 0.3-1.9 0.6-3.1 0.3-1.1 0.9-3.8 1.4-6 0.5-2.2 1.1-4.9 1.4-6 0.3-1.1 0.8-3.1 1-4.4 0.2-1.3 0.6-3 0.8-3.8 0.8-2.9-1.4-6.8-4.3-7.6-2.1-0.6-4.4-0.1-5.9 1.2zm-109.9 20.8c0.3 0-0.5 5.4-0.8 5.7-0.2 0.1-0.5 0.7-0.5 1.4-0.3 2.4-0.8 4.2-1.2 4.4-0.3 0.1-0.4-0.4-0.2-1.6 0.6-3.3 1.6-8 2.1-8.9 0.2-0.6 0.5-1 0.6-1zm7.4 4.6c0.6 1.8 1.3 3.8 1.7 4.3 0.3 0.5 0.6 1.2 0.6 1.6 0 0.3 0.5 1.5 1 2.6 6 11.4 16 20.8 28.3 26.7 4.6 2.2 4.4 1.7 1.7 4.7-3.1 3.5-6.6 10.7-6.6 13.6 0 0.9-0.7 4.8-1.6 9.5-1.2 6-1.7 8.5-3.3 14.8-0.2 1-0.6 3.1-0.9 4.6-1.2 5.9-1.7 8.4-2.2 9.5-0.2 0.6-0.4 1.8-0.4 2.5 0 0.7-0.4 2.5-0.8 3.9-0.4 1.4-0.8 3-0.8 3.6 0 0.5-0.3 1.6-0.6 2.4-0.3 0.7-0.7 2.5-0.9 3.9-0.3 1.4-0.8 4.3-1.3 6.4-0.4 2.1-1 5-1.3 6.4-0.2 1.4-0.6 2.9-0.8 3.3-0.3 0.7-0.9 3.2-2.1 9.3-0.6 3.3-1.7 6.9-2.3 7.2-0.4 0.3-6.1-0.5-7.6-1.1-0.6-0.2-2.3-0.6-3.8-0.9-1.5-0.3-11.2-2.5-12.7-2.8-5.2-1-12.3-3.2-13.3-4-0.7-0.5-0.5-5.9 0.4-8.8 1.1-3.6 1.5-5.6 1.9-8.8 0.3-1.8 1-4.9 1.6-7 0.6-2.1 1.3-4.7 1.4-5.8 0.2-1.1 0.5-2.9 0.8-4 0.3-1.1 0.6-2.5 0.6-3.2 0-0.7 0.4-2.3 0.8-3.5 0.4-1.3 0.8-3.1 0.8-4.2 0-1 0.2-2.4 0.5-2.9 0.3-0.5 0.9-2.8 1.4-5 0.5-2.2 1.3-5.5 1.7-7.4 0.4-1.9 0.8-3.9 0.8-4.5 0-0.5 0.3-1.6 0.6-2.4 0.3-0.7 0.6-2.4 0.8-3.7 0.1-1.3 0.5-3.2 0.8-4.2 1-2.9 2.2-8.6 2.2-10 0-0.7 0.3-1.9 0.6-2.7 0.3-0.8 0.6-1.9 0.6-2.5 0-0.5 0.4-2.1 0.8-3.3 0.4-1.3 0.8-2.8 0.8-3.4 0-0.6 0.4-2.4 0.8-3.9 0.4-1.5 0.8-3.4 0.8-4 0-0.7 0.3-2.1 0.6-3 0.3-0.9 0.6-2.1 0.6-2.6 0-0.5 0.4-2 0.8-3.4 0.4-1.4 0.8-3.2 0.8-4 0-0.8 0.3-2.1 0.6-2.9 0.3-0.8 0.7-2.5 0.8-3.8 0.2-1.3 0.5-2.9 0.8-3.6 0.3-0.7 0.7-2.1 0.8-3.2 0.2-1 0.6-2.3 0.9-2.8 0.6-1 0.7-0.9 1.8 2.5zm-10.2 8.6c0.1 1.2-0.1 2-1.1 4.1-0.2 0.4-0.2 0.8 0 0.9 0.5 0.3 0.5 1.9 0 2.5-0.2 0.2-0.5 1.3-0.6 2.5-0.2 2.1-0.6 3.2-1.4 4.9-0.2 0.4-0.4 1.3-0.4 2.1 0 0.7-0.2 1.5-0.4 1.6-0.2 0.1-0.4 1-0.4 2 0 1-0.2 1.9-0.4 2-0.2 0.1-0.4 0.7-0.4 1.3 0 0.6-0.3 1.4-0.6 1.9-1 1.3-0.1-3.8 2-11.6 0.3-1.1 0.8-3.6 1.2-5.6 0.4-2 1-5 1.5-6.7 0.8-2.7 0.9-3 1-1.9zm-184.5 11.5c1.1 0.1 4.2 0.3 7 0.5 2.7 0.2 5.7 0.6 6.6 0.9l1.6 0.6-1.1 0.3c-0.7 0.2-1.3 0.1-1.4-0.1-0.2-0.2-2-0.4-4.1-0.4-2.1-0.1-3.9-0.3-4.2-0.5-0.5-0.5-4.6-0.5-5.4 0-0.3 0.2-0.8 0.2-1.3 0-0.4-0.3-0.7-0.3-0.9 0-0.1 0.2-1.5 0.4-3 0.4-1.6 0-2.8 0.2-2.8 0.4 0 0.2-0.8 0.4-1.7 0.4-1 0-1.9 0.2-2.1 0.4-0.6 0.5-4.7 0.9-5.4 0.4-0.8-0.5-0.8-0.5 3.4-1.5 3.1-0.8 5.9-1.2 11.4-1.9 0.8 0 2.3 0 3.4 0.1zm19.9 2.8c2.3 0.8 3.9 1.7 2.7 1.7-0.7 0-3.5-1-3.9-1.3-0.1-0.2-0.7-0.3-1.3-0.3-0.7 0-1.3-0.2-1.4-0.4-0.4-0.6 1.3-0.5 3.9 0.3zm-40.4 0.1c0.2 0 0.3 0.3 0.3 0.6 0 0.8-1.6 1.8-2.9 1.8-0.6 0-1.7 0.4-2.5 0.8-0.8 0.4-1.6 0.8-1.9 0.8-0.6 0-10.6 5-11.5 5.8-0.3 0.2-1.2 0.7-1.8 1-0.7 0.2-2.2 1.4-3.4 2.6-1.2 1.2-2.4 2.2-2.6 2.2-0.4 0-7.2 6.9-9.1 9.3-3.4 4.3-7.3 11.2-8.6 15.3-0.3 0.9-0.7 2-0.9 2.4-0.2 0.4-0.5 1.9-0.8 3.2-0.3 1.3-0.7 3.1-0.9 4-0.2 0.9-0.5 2.7-0.6 4-0.1 1.3-0.3 2.8-0.5 3.2-0.9 1.7-0.1 18.8 0.8 20 0.2 0.2 0.4 1.2 0.5 2 0 0.9 0.3 2.2 0.6 2.9 0.3 0.7 0.5 1.9 0.5 2.7 0 0.8 0.3 2.2 0.8 3.1 0.4 0.9 1 2.4 1.2 3.3 0.3 0.9 0.7 1.8 0.9 2 0.2 0.2 0.3 0.7 0.3 1 0 0.4 0.3 0.9 0.6 1.2 0.3 0.3 0.6 0.8 0.6 1.2 0 0.4 0.3 1.4 0.8 2.3 0.4 0.8 0.8 2 1 2.5 0.3 1.5 3.4 6.1 6.3 9.4 0.8 0.9 1.5 1.8 1.5 2 0 1.7 9.8 9.2 14.6 11.2 1.5 0.6 3.3 1.3 4 1.6 3.5 1.5 4.4 1.8 5.2 1.8 0.5 0 1.1 0.2 1.2 0.3 0.3 0.5 2.5 1 4.1 0.9 0.7 0 1.3 0.1 1.5 0.4 0.4 0.6 18.1 0.6 18.4 0 0.2-0.3 0.9-0.4 2-0.2 1.1 0.1 1.8 0.1 2-0.2 0.1-0.2 1.5-0.4 3-0.4 1.5 0 2.9-0.2 3-0.4 0.1-0.2 1.3-0.4 2.6-0.4 1.3 0 2.5-0.2 2.6-0.4q1-1.6 7.5 2.3c2.5 1.4 4.8 4.9 5.2 7.8 0.2 0.9 0.5 1.9 0.9 2.3 0.3 0.3 0.7 1.3 0.8 2 0.3 1.7 1 4.3 1.4 5.4 0.2 0.4 0.6 2.2 0.8 3.8 0.3 1.7 0.7 3.2 0.9 3.4 0.1 0.2 0.3 1.2 0.3 2.2 0 1 0.2 2 0.4 2.3 0.5 0.4 1.2 3.6 1.5 6.7 0.1 1.1 0.3 2.2 0.5 2.4 0.2 0.2 0.4 0.7 0.4 1.2 0 0.5 0.2 1 0.4 1.2 0.2 0.2 0.4 1.1 0.5 2 0.3 1.6 1.2 6.7 1.9 9.6 0.2 0.9 0.5 2.1 0.6 2.8 0.1 0.7 0.4 1.6 0.6 2 0.2 0.4 0.4 1.6 0.5 2.6 0.1 1 0.4 2.7 0.7 3.8 0.2 1.1 0.5 2.8 0.4 3.7 0 1 0.4 2.3 0.8 3 0.4 0.7 0.8 2 0.9 2.7 0.1 0.8 0.4 2.2 0.7 3.2 0.3 1 0.6 2.4 0.7 3.1 0.1 0.7 0.3 1.4 0.5 1.5 0.2 0.1 0.4 0.7 0.4 1.3 0 1.4 1.2 7.7 1.6 8.6 0.2 0.4 0.4 1.2 0.4 1.9 0 0.7 0.2 1.5 0.4 1.9 0.5 1 1.2 3.5 1.2 4.2 0 0.3 0.4 0.9 0.8 1.3 0.4 0.4 0.8 1.2 0.7 1.7 0 2.1 0.6 6.9 1 7.1 0.1 0.2 0.3 0.9 0.3 1.6 0 0.8 0.2 1.8 0.4 2.2 0.2 0.4 0.5 2.1 0.7 3.8 0.1 2.2 0.4 3.2 1 3.7 0.4 0.3 0.7 1 0.7 1.5 0 1.5 4.7 5.6 7.4 6.4 1.3 0.3 3 0.8 3.6 1 1.7 0.6 5.3 0.5 6.2-0.1 0.6-0.4 1-0.3 1.7 0.1 0.7 0.3 1.5 0.4 2.2 0.2 0.6-0.2 2.4-0.4 3.9-0.5 1.5-0.1 3-0.3 3.2-0.5 0.2-0.2 1.3-0.4 2.3-0.6 1.1-0.1 2.5-0.6 3.2-1 0.7-0.5 1.6-0.8 2-0.8 0.3 0 0.8-0.3 1.1-0.6 0.3-0.4 1.3-1 2.2-1.4 3.6-1.7 7.4-6.9 7.4-10.3 0-1.1 0.2-2.2 0.4-2.3 0.3-0.2 0.4 0.8 0.4 2.5 0 4.1-2.7 9.1-6.1 11.3-0.7 0.4-1.7 1.1-2.2 1.4-0.4 0.4-1.7 0.8-2.8 1-1 0.2-3.4 0.9-5.3 1.6-1.8 0.6-3.9 1.2-4.5 1.2-0.6 0-1.7 0.2-2.4 0.5-3.1 1.3-13 1.2-15.6-0.1-0.4-0.2-0.9-0.4-1.2-0.4-0.5 0-4.3-2.5-5.8-3.7-1.3-1.1-3-5.1-4.3-9.5-0.3-1-0.7-2.2-0.9-2.7-0.3-0.5-0.5-1.3-0.5-1.9 0-0.6-0.3-1.7-0.6-2.5-0.4-0.8-0.8-2.8-1-4.5-0.2-1.6-0.6-3.7-0.9-4.6-0.4-0.9-0.7-2.1-0.7-2.8 0-0.7-0.3-2.1-0.6-3.2-0.3-1-0.6-2.5-0.6-3.3 0-0.7-0.3-1.9-0.6-2.5-0.3-0.7-0.8-2.4-1-3.9-0.2-1.6-0.5-3.2-0.8-3.6-0.2-0.5-0.4-1.5-0.4-2.3 0-0.7-0.3-2.2-0.7-3.3-0.6-1.9-1.4-5.5-2.1-10.1-0.3-1.4-0.7-3-1-3.7-0.3-0.6-0.6-1.8-0.6-2.8 0-0.9-0.4-2.8-0.8-4-0.4-1.3-0.8-2.7-0.8-3.3 0-0.6-0.2-1.6-0.5-2.3-0.3-0.7-0.7-2.2-0.8-3.4-0.2-1.1-0.6-2.7-0.9-3.5-0.3-0.7-0.6-2.3-0.6-3.5 0-2-0.4-4-2-9-0.5-1.3-0.8-3.4-0.8-4.5 0-1.1-0.3-2.7-0.6-3.5-0.3-0.8-0.6-2.4-0.8-3.4-0.1-1.1-0.5-2.4-0.8-3.1-0.3-0.6-0.6-1.8-0.6-2.6 0-4.7-4.4-11.5-8.5-13.3-3-1.3-10.7-0.9-18.7 0.9-5.3 1.2-15.9 1.4-19.6 0.4-1.2-0.3-3.4-0.8-4.8-1-3.7-0.5-10.2-2.9-12.8-4.7-1.2-0.9-2.6-1.7-3.2-1.9-0.5-0.2-1.5-0.8-2.2-1.4-0.7-0.6-2-1.5-2.9-2.1-1.7-1-6.9-6.4-8.8-9.1-0.5-0.8-1.6-2.3-2.5-3.4-0.8-1-1.8-2.7-2-3.7-0.3-1-0.9-2.4-1.4-3.1-0.5-0.7-1-1.7-1.2-2.3-0.2-0.5-1-2.3-1.8-3.9-0.9-1.7-1.8-4-2-5.1-0.2-1.2-0.7-3.3-1.1-4.8-2.7-9.5-3.3-26.1-1.3-33.7 0.2-0.8 0.4-2 0.4-2.8 0-0.8 0.3-1.9 0.6-2.6 0.4-0.7 1.1-2.4 1.6-4 0.6-1.5 1.2-2.9 1.4-3.2 0.2-0.2 0.7-1.3 1.1-2.4 0.6-1.7 5-8.7 7.8-12.4 1.6-2.1 9.5-9.8 10.8-10.5 0.7-0.3 1.9-1.2 2.5-1.9 1.7-1.6 4.7-3.4 7.3-4.3 1.1-0.3 2.7-1.1 3.6-1.7 0.8-0.5 1.8-1 2.1-1 0.4 0 1.7-0.5 3-1.2 1.3-0.7 3.2-1.4 4.2-1.6 1-0.2 1.9-0.3 2.1-0.4zm49.4 3.8c1.2 0.8 2.1 1.7 2.1 1.9q0 0.5-0.3 0.1c-0.6-0.8-4.1-2.6-5.1-2.6-0.3 0-0.8-0.4-1.2-0.8-1.4-1.6 1.3-0.7 4.5 1.4zm-15.3 0.3c6.8 1.5 12.5 4.2 17.2 8.2 1.2 0.9 2.5 1.9 3 2.1 1.1 0.5 7 7.4 9 10.4 2 2.9 7 13.1 7 14.2 0 0.3 0.2 1.2 0.6 1.9 1.1 2.6 2.2 7 2.2 8.6 0 0.9 0.3 2.4 0.6 3.2 0.3 0.8 0.6 2.9 0.8 4.7 0.1 1.8 0.5 5 0.9 7.2 0.5 3.8 0.5 4.2-0.3 8.3-0.4 2.4-0.8 5-0.8 5.8 0 5.5-6.7 19.1-12.4 25-8.1 8.6-20.8 15.5-32 17.5-1.1 0.3-2.4 0.6-2.8 0.8-0.4 0.2-2.1 0.5-3.9 0.8-1.7 0.2-3.6 0.5-4.1 0.7-1.4 0.6-14.5 0.9-17.6 0.5-17.9-2.3-33.3-14.2-39.3-30.3-0.4-1.3-0.9-2.5-1.1-2.7-0.2-0.2-0.4-0.9-0.6-1.6-0.1-0.7-0.5-1.7-0.8-2.4-3.3-7.7-4.8-26.3-2.8-34.2 0.3-1.2 0.7-3 0.9-4 0.8-3.3 1.4-5.4 1.9-6.6q9.5-21.8 26.9-30.8c1.8-1 3.6-1.9 3.8-2.1 0.5-0.4 8-2.9 11.9-3.9 2.5-0.7 9-1.7 13.8-2.2 5-0.5 13.9-0.1 18 0.9zm18.5 1.9c0.6 0 3.2 1.7 4.9 3.2 0.6 0.5 1.4 1.1 2 1.4 1.3 0.7 3.4 3 3.8 4.1 0.4 1.5-0.3 1-3.2-2.1-1.5-1.7-2.9-3-3.1-3-0.2 0-1-0.5-1.7-1.1-0.7-0.6-1.8-1.4-2.3-1.8-0.5-0.4-0.7-0.7-0.4-0.7zm145.7 7.2c0.5 0 0.5 2.3 0 2.6q-1 0.6-0.6-1.4c0.1-0.6 0.4-1.2 0.6-1.2zm-0.4 3.6c0.4 0 0 3.5-0.5 4.5-0.1 0.3-0.3 1.1-0.3 1.6 0 0.6-0.3 1.6-0.6 2.4l-0.6 1.3v-2.2c0-1.1 0.4-3.3 0.8-4.9 0.5-1.5 1-2.7 1.2-2.7zm-127.8 7c0.1 0.4 0 0.6-0.3 0.5-0.2-0.1-0.5-0.4-0.6-0.6-0.2-0.7 0.6-0.6 0.9 0.1zm1.4 2.9c0 0.4-0.2 0.4-0.8 0-0.8-0.5-1-1.1-0.5-1.7 0.3-0.3 1.3 0.9 1.3 1.7zm124.1 2c0.5 0.5 0.1 1.7-0.5 1.7-0.3 0-0.4-0.3-0.2-0.6 0.1-0.4 0.2-0.9 0.2-1.1 0-0.3 0.1-0.3 0.5 0zm52.1 0.3l0.1 2c0.1 1.3-0.1 2.5-0.7 3.8-0.4 1.1-0.8 2.5-0.8 3.2 0 0.7-0.3 1.9-0.6 2.7-0.3 0.8-0.6 2.4-0.6 3.6 0 1.3-0.3 3-0.7 3.9-0.3 0.9-0.7 2.4-0.9 3.5-0.2 1-0.5 2.2-0.7 2.6-0.2 0.4-0.5 1.9-0.6 3.3-0.1 1.4-0.5 3.6-0.8 4.8-0.4 1.2-0.8 3.1-1 4.2-0.3 1.1-0.6 2.7-0.8 3.6-0.3 0.9-0.7 2.4-0.9 3.4-0.3 1-0.6 3.1-0.9 4.6-0.2 1.5-0.6 3-0.8 3.3-0.2 0.3-0.5 1.5-0.7 2.8-0.4 3-1.8 9.2-2.3 10.6-0.3 0.6-0.5 1.7-0.5 2.5 0 0.7-0.3 2.1-0.6 3-0.3 1-0.7 2.7-0.9 4-0.1 1.2-0.4 2.7-0.7 3.2-0.3 0.6-0.7 2-0.8 3.2-0.2 1.2-0.5 3.1-0.8 4.2-0.3 1.1-0.6 2.5-0.6 3.1 0 0.6-0.3 1.7-0.6 2.4-0.4 0.7-0.8 2.6-1 4.3-0.2 1.6-0.5 3.5-0.7 4.2-0.2 0.7-0.6 2-0.9 3-3.3 12.9-6.2 16.3-15.7 18.4-2.6 0.6-10.7 0.3-12-0.5-0.5-0.2-1.8-0.6-2.9-0.7-1.1-0.2-3.3-0.8-4.8-1.4-1.5-0.6-3.7-1.2-4.9-1.4-1.3-0.2-2.6-0.8-3.6-1.5-0.8-0.6-1.8-1.3-2.2-1.5-0.9-0.6-3.5-4-4.3-6-0.8-1.7-1.1-7.3-0.4-6.8 0.2 0.1 0.4 1.1 0.4 2.2 0 3.1 5.4 10.4 7.6 10.4 0.3 0 1 0.3 1.5 0.7 0.6 0.4 1.5 0.9 1.9 1 0.4 0.1 1.6 0.6 2.6 0.9 2.8 1.1 4.4 1.5 7.4 1.8 1.5 0.2 3.4 0.5 4.1 0.6 0.8 0.2 1.5 0.1 1.9-0.2 0.5-0.4 0.8-0.4 1.8 0 1.6 0.7 6.9 0.2 9.4-0.8 0.4-0.2 1.4-0.5 2.1-0.8 1.4-0.5 6.1-5.2 6.1-6.1 0-0.3 0.3-0.8 0.6-1.1 0.4-0.3 0.6-1.2 0.6-2.4 0-1.1 0.2-2.1 0.4-2.2 0.2-0.1 0.4-0.8 0.5-1.5 0.5-2.4 1.5-9.3 1.7-11.3 0.1-1 0.6-2.4 1-2.9 0.4-0.6 0.8-1.5 0.8-2.1 0-0.6 0.1-1.2 0.3-1.3 0.5-0.6 1.3-3.3 1.3-4.6 0-0.7 0.2-1.4 0.4-1.5 0.2-0.1 0.5-1.4 0.6-2.9 0.2-1.5 0.4-2.9 0.6-3.1 0.2-0.2 0.4-1.2 0.5-2.2 0.1-1 0.4-2.5 0.7-3.4 0.3-0.9 0.7-2.9 1-4.5 0.2-1.6 0.8-3.4 1.2-4 0.6-0.8 0.7-1.7 0.7-3.2-0.1-1.1 0-2.1 0.3-2.3 0.2-0.1 0.4-0.9 0.4-1.6 0-0.7 0.2-1.5 0.4-1.6 0.2-0.1 0.4-1 0.4-2 0-0.9 0.3-2.6 0.6-3.6 0.3-1.1 0.6-2.7 0.6-3.5 0-0.8 0.2-1.6 0.4-1.7 0.2-0.1 0.4-0.9 0.4-1.8 0-0.9 0.2-1.7 0.4-1.8 0.2-0.1 0.4-0.8 0.4-1.4 0-0.6 0.2-1.3 0.4-1.4 0.2-0.1 0.4-1 0.4-1.9 0-1 0.1-1.9 0.3-2.1 0.6-0.8 1.2-3.2 1.5-6.2 0.2-1.6 0.6-3.7 1-4.6 0.5-0.8 0.8-2.2 0.8-2.9 0-0.7 0.2-1.7 0.4-2 0.2-0.4 0.5-2 0.6-3.5 0.1-1.5 0.5-3.2 0.9-3.7 0.3-0.5 0.6-1.9 0.8-3 0.1-1.2 0.5-2.6 0.9-3.3zm-173.9 2.8c0.9 0.8 3.2 7.2 2.7 7.6-0.4 0.5-1.4-0.7-1.4-1.6 0-0.9-0.3-1.6-1.5-4.5-0.3-0.7-0.5-1.4-0.5-1.7q0-0.5 0.7 0.2zm120.7-0.2c0.4 0-0.5 6.4-0.9 7-0.8 1-0.5-4.3 0.3-6 0.3-0.5 0.5-1 0.6-1zm-117.8 8.2l0.6 1.2c0.3 0.7 0.5 1.5 0.5 1.9 0 0.4 0.4 1.6 0.8 2.8 0.4 1.1 1.2 4.2 1.6 6.7 0.5 2.5 1.2 5.9 1.7 7.4 0.4 1.5 1 4.3 1.2 6.2 0.2 1.9 0.7 4.1 1 5 0.7 1.8 2.1 9.3 1.8 9.6-0.4 0.4-0.8-0.3-0.8-1.4 0-0.6-0.3-1.3-0.6-1.6-0.4-0.3-0.6-1.2-0.6-2 0-0.9-0.2-1.7-0.4-1.8-0.2-0.1-0.6-1.4-0.8-2.9-0.3-1.5-0.7-2.9-0.9-3.2-0.3-0.3-0.4-1.1-0.4-1.8 0-0.7-0.1-1.5-0.3-1.7-0.2-0.2-0.5-2-0.6-4-0.1-1.9-0.4-3.7-0.6-3.9-0.3-0.3-0.4-1-0.4-1.6 0-0.6-0.2-1.5-0.4-1.8-0.2-0.4-0.5-1.8-0.6-3.1-0.2-2.6-1-5.8-1.5-6.4-0.2-0.2-0.3-1.1-0.3-2zm115.6 5c-0.1 0.6-0.3 1.4-0.3 1.8q-0.5 3.4-1.2 4.3c-0.3 0.4-0.4 1.1-0.3 1.5 0.1 0.4 0 0.9-0.2 1-0.3 0.1-0.5 1.1-0.5 2 0 1-0.2 1.9-0.4 2-0.6 0.4-0.5-2.5 0.2-4.7 0.4-1.1 0.6-2.7 0.6-3.6 0-0.9 0.4-2.5 0.8-3.4 0.5-1 0.8-2.3 0.8-3.1 0-0.7 0.1-1.4 0.3-1.5 0.9-0.9 1 0.7 0.2 3.7zm-158.5 14.6c0 10.9 15.2 11.7 16.7 0.9 0.5-3.9-1.9-7.8-5.6-8.9-6.3-1.9-11.1 1.5-11.1 8zm154.8 1.8c-0.2 0.4-0.4 1.5-0.4 2.4 0 0.9-0.1 1.7-0.3 1.8-0.2 0.1-0.5 1.6-0.6 3.2-0.2 1.7-0.5 3.4-0.7 3.8-0.5 1.1-1.6 4.9-1.6 5.8 0 0.5-0.2 1.1-0.6 1.4-0.3 0.3-0.6 1.2-0.6 2.1 0 0.8-0.2 1.5-0.4 1.5-0.3 0-0.4-0.5-0.2-1.3 0.3-2.2 1.7-7.6 2.2-8.7 0.2-0.5 0.6-2.2 0.8-3.8 0.9-6.2 1.5-8.9 2-9.6 0.8-0.9 1.1 0.1 0.4 1.4zm-216.8-1.1c-2.6 0.4-4.9 2.3-5.6 4.7-0.5 1.7-0.3 3.1 1.6 11.4 0.5 1.8 1.2 4.8 1.6 6.8 0.5 2 1.1 4.7 1.4 6 0.4 1.4 0.6 2.8 0.6 3.3 0 3 2.7 7.5 4.7 8.1 7.4 2 10-2.5 7.6-13-0.8-3.3-1.8-7.8-2.3-10-2.7-12.7-3-13.4-4.9-15.3-0.7-0.7-2-1.4-2.9-1.6-0.9-0.3-1.7-0.5-1.8-0.4zm116.1 27.3c1.1 4.7 1.3 6.8 0.8 6.5-0.3-0.2-0.5-0.8-0.5-1.3 0-0.5-0.2-1-0.4-1.2-0.2-0.1-0.4-0.8-0.4-1.6 0-0.7-0.2-1.4-0.4-1.6-0.2-0.1-0.4-0.9-0.4-1.7 0-0.8-0.2-1.7-0.4-2-0.3-0.2-0.4-0.8-0.2-1.2 0.4-1.1 1 0.2 1.9 4.1zm-6.7-1.6c0.1 0.5 0.4 1.7 0.6 2.8 0.3 1.1 0.7 2.9 0.9 4 0.2 1.1 0.7 3.1 1 4.4 0.4 1.3 0.8 3.4 0.9 4.6 0.4 2.5 1.4 6.9 2.2 9.6 0.4 1 0.6 2.5 0.6 3.3 0 0.8 0.3 2.1 0.6 3 0.3 0.9 0.7 2.7 0.8 4 0.2 1.3 0.6 2.9 0.9 3.7 0.3 0.7 0.5 1.7 0.5 2.3 0 0.5 0.4 2 0.8 3.2 0.5 1.3 0.8 3.1 0.8 4.1 0.1 1 0.3 2.5 0.6 3.4 0.4 0.9 0.6 1.9 0.6 2.3 0 0.4 0.4 1.8 0.8 3 0.5 1.3 0.8 3 0.8 3.9 0 0.9 0.4 2.7 0.8 3.9 0.5 1.3 0.8 2.8 0.8 3.5 0 0.7 0.4 2.6 0.8 4.3 0.4 1.7 1 4.6 1.4 6.3 0.4 1.8 1.1 4.1 1.5 5.1 0.4 1 0.7 2.8 0.7 3.9 0 1.1 0.3 2.7 0.6 3.5 0.5 1.5 1.6 6.8 2.2 10.8 0.2 1.1 0.8 3.5 1.4 5.2 0.5 1.8 1.1 4.3 1.2 5.6 0.3 2.3 1.3 7.2 2.5 11.2 1.6 5.8 0.9 9.3-1.9 9.3-0.4 0-1.7 0.4-2.8 0.8-2.6 0.9-5.7 1.7-10.8 2.8-2.1 0.4-4.7 1-5.8 1.2-1.1 0.3-3.2 0.7-4.7 1-1.5 0.4-2.9 0.7-3.1 0.8-0.9 0.6-7.7 1.5-8.1 1.1-0.6-0.6-1.5-3.1-1.9-5.5-1.2-5.9-1.7-8.2-2.2-10-0.3-1.1-0.8-2.9-1-4-0.2-1.1-0.7-3.7-1.2-5.8-0.4-2.1-1.1-5.2-1.4-7-0.3-1.7-0.8-3.7-1-4.4-0.7-2.3-1.7-6.8-2-9.3-0.2-1.4-0.5-2.7-0.6-3-0.4-0.5-2-8.1-3.6-16.5-0.3-1.9-0.8-3.8-1-4.2-0.2-0.3-0.5-1.6-0.6-2.8-0.2-1.2-0.5-2.7-0.8-3.4-0.3-0.6-0.6-2.2-0.8-3.4-1.5-11.7-3.1-16.2-8-21.7-2-2.2-2.4-3.1-1.2-3.1 0.8 0 8.3-4 11.7-6.2 5.9-3.9 14.9-13.3 17.7-18.4 0.5-0.9 1.4-2.5 2-3.6 0.7-1.1 1.2-2.3 1.2-2.8 0-0.4 0.3-1.1 0.6-1.5 0.3-0.4 1.1-2.3 1.7-4.2 1.1-3.5 1.8-3.8 2.3-1.1zm102.3-1.4c0.5 0 0.4 0.6-0.3 1.9-0.3 0.6-0.6 1.6-0.6 2.2 0 0.5-0.1 1.1-0.3 1.3-0.1 0.1-0.3 1-0.4 1.9 0 1-0.2 2.2-0.4 2.7-0.2 0.6-0.5 2.5-0.7 4.4-0.1 1.8-0.4 3.8-0.7 4.4-0.2 0.5-0.5 1.4-0.7 1.8-0.2 0.5-0.4 1.7-0.5 2.8-0.1 1.1-0.4 2.6-0.7 3.2-0.3 0.7-0.5 1.4-0.4 1.5 0 0.2-0.2 0.8-0.6 1.2-0.3 0.5-0.6 1.4-0.6 2 0 0.6-0.2 1.2-0.4 1.3-0.2 0.2-0.4 1-0.4 2 0 3.9-0.6 9.2-1.1 9.3-1.2 0.4 0.3-11.8 2.1-16.5 0.3-0.9 0.6-2.3 0.6-3.2 0-1.9 1.3-7.3 2.2-9.5 0.4-0.8 0.6-2.2 0.6-3 0-0.9 0.3-2.3 0.6-3.3 0.4-0.9 0.6-2.2 0.6-2.9 0-0.7 0.4-2.2 0.9-3.4 0.5-1.1 1.1-2.1 1.2-2.1zm-93.7 12.5c0.2 1.1 0.4 2.2 0.4 2.5 0 0.7-1-1.8-1.3-3.3-0.4-2.1 0.3-1.5 0.9 0.8zm1.8 7.8c0.4 2.2 0.9 4.6 1.3 5.4 0.3 0.9 0.5 2 0.5 2.6 0 0.6 0.4 2.2 0.8 3.7 0.4 1.4 0.8 3.3 1 4.1l0.2 1.6-0.8-1c-0.4-0.6-0.8-1.4-0.8-2 0-0.5-0.1-1.1-0.3-1.3-0.2-0.2-0.5-1.1-0.6-2-0.5-3.6-1.2-6.8-1.5-7.2-0.2-0.2-0.4-0.9-0.4-1.6 0-1.3-0.3-2.3-1.3-4.5-0.3-0.6-0.3-1 0.1-1.5 0.8-0.9 1-0.5 1.8 3.7zm106.2 12.5c0.3 0.2 1.8 0.5 3.2 0.8 1.5 0.2 4.2 0.8 6.2 1.2 2 0.5 5.1 1.1 6.8 1.5 8.8 1.7 8.3 1 6.6 9.3-1.8 8.3-5 12.8-10 13.7-3 0.5-11.3 0-13.8-0.9-0.6-0.2-2.3-0.5-3.6-0.7-11-1.8-14.9-7.8-12.4-19.3 0.4-1.6 0.8-3.9 0.9-5 0.1-1.1 0.4-2.2 0.6-2.5 0.6-0.6 13.7 0.9 15.5 1.9zm-102 6.2c0.2 0.2 0.4 0.8 0.4 1.5 0 0.7-0.1 1.1-0.4 0.9-0.2-0.1-0.4-0.8-0.4-1.4 0-0.7 0.2-1.1 0.4-1zm1.3 5.9c0.9 3 1.4 7.9 0.8 7.3-0.6-0.7-1.3-3.4-1.6-6.7q-0.6-5.6 0.8-0.6zm1.5 8.5c0.5 1.1 0.5 2.6 0 2.6-0.2 0-0.4-0.7-0.3-1.7 0-1.3 0.1-1.5 0.3-0.9zm2.2 9.4c0.1 1.4 0.1 2.3 0 1.9-0.1-0.4-0.4-0.7-0.6-0.7-0.2 0-0.4-1-0.4-2.4 0-1.3-0.2-2.4-0.4-2.6-0.2-0.1-0.4-0.6-0.4-1 0-3 1.5 0.9 1.8 4.8zm0.6 3.6c0.4 0 0.8 1.4 0.8 2.7 0 0.4 0.4 1.6 0.8 2.6 0.4 0.9 0.8 2.6 0.8 3.6 0 1 0.3 2.6 0.6 3.5 0.7 2 0.8 4.6 0.2 4.2-0.2-0.1-0.4-0.9-0.4-1.8 0-0.8-0.2-1.6-0.4-1.8-0.2-0.1-0.4-0.7-0.4-1.4 0-0.6-0.2-1.2-0.4-1.4-0.2-0.1-0.4-0.8-0.4-1.6 0-0.7-0.2-1.4-0.4-1.6-0.2-0.1-0.4-0.8-0.4-1.6 0-0.7-0.1-1.4-0.3-1.6-0.2-0.1-0.4-1-0.4-2 0-1 0.1-1.8 0.3-1.8zm3.5 18c0.6 0 1.7 2.8 1.7 4.1 0 0.7 0.2 2 0.5 2.7 0.7 2.4 1 6.8 0.5 6.8-0.3 0-0.6-0.7-0.7-1.7-0.6-4.5-0.8-5.3-1.1-5.7-0.2-0.2-0.4-1.1-0.4-2 0-1-0.2-1.8-0.4-2-0.2-0.1-0.4-0.7-0.4-1.2 0-0.5 0.2-1 0.3-1zm4.4 16.4c0.1 0.6 0.4 2.1 0.7 3.3 0.7 2.7 0.8 5.3 0.2 4.9-0.2-0.1-0.4-0.9-0.4-1.8 0-0.8-0.2-1.6-0.4-1.8-0.2-0.1-0.4-0.7-0.4-1.4 0-0.6-0.2-1.8-0.6-2.8-0.3-0.9-0.6-2-0.6-2.3 0.1-1 1.2 0.6 1.5 1.9zm1.1 9.2c0.4 0 0.6 0.3 0.6 0.6 0 0.4 0.3 1.1 0.6 1.7 0.9 1.9 1.1 3.3 0.4 3.3-0.4 0-0.6-0.4-0.6-1 0-0.6-0.3-1.8-0.8-2.7-0.4-0.9-0.8-1.7-0.8-1.8 0 0 0.3-0.1 0.6-0.1zm1.8 6c0.4 0 0.5 0.4 1.4 5.5 0.3 1.8 0.7 3.6 0.9 4 0.8 1.4 2.1 7.5 2.1 9.4 0 1.1 0.3 2.5 0.7 3.2 1 2.1 2.1 8.2 2.1 12.3 0 4.6-0.6 4.5-0.9-0.2q-0.5-7.3-1.1-8c-0.2-0.2-0.4-0.8-0.4-1.4 0-0.6-0.2-1.3-0.6-1.6-0.3-0.2-0.4-0.7-0.3-1 0.1-0.3 0-0.8-0.2-1.1-0.3-0.3-0.6-1.6-0.7-2.7-0.2-2.2-0.9-5.1-1.4-5.8-0.2-0.2-0.4-1.9-0.6-3.8-0.1-1.9-0.4-3.8-0.6-4.4-0.2-0.5-0.4-1.7-0.5-2.7-0.2-0.9-0.1-1.7 0.1-1.7zm0 27.5c0 0.9 0.3 2.6 0.7 3.7 1.2 4 1 11.3-0.5 14-1.8 3.4-5.8 5.6-11.6 6.4-1.3 0.2-2.9 0.6-3.5 0.8-2.3 0.8-10.8 1.4-14 0.9-4.9-0.8-8.5-5.6-9.7-12.7-0.1-0.9-0.5-2.4-0.8-3.4-1.5-4.6-0.9-5.3 6.4-6.8 2-0.4 5.3-1.1 7.4-1.6 2.1-0.5 5.1-1.1 6.7-1.4 1.6-0.3 3.1-0.6 3.3-0.7 0.2-0.2 2.9-0.7 6.1-1.1 3.1-0.5 5.8-0.9 5.9-1 1.4-1.4 3.6 0.4 3.6 2.9z"/>
	<g id="svgg">
		<path id="path2" fill-rule="evenodd" class="s1" d="m326.4 11.7c0.1 0.1 1 0.3 2 0.4q1.8 0.3 1-0.1c-0.8-0.3-3.3-0.6-3-0.3zm-6.7 1c0.8 0.1 2.2 0.1 3 0 0.8-0.1 0.2-0.2-1.5-0.2-1.6 0-2.3 0.1-1.5 0.2zm11.8 0c0.7 0.1 1.9 0.1 2.6 0 0.7-0.1 0.1-0.2-1.3-0.2-1.4 0-2 0.1-1.3 0.2zm6.5 0.5c0.8 0.2 1.8 0.4 2.2 0.6q0.8 0.2-0.2-0.4c-0.5-0.3-1.5-0.6-2.2-0.5-1.2 0-1.2 0 0.2 0.3zm-28.9 1.1c0.5 0.1 1.2 0.1 1.6 0 0.4-0.1 0-0.2-0.9-0.2-0.9 0-1.2 0.1-0.7 0.2zm-3.1 0.7c-0.5 0.3-0.8 0.6-0.6 0.6 0.2 0 0.9-0.3 1.4-0.6 0.6-0.3 0.8-0.6 0.6-0.6-0.2 0-0.8 0.3-1.4 0.6zm-3.6 1.2c-1.3 0.7-0.8 0.8 0.9 0 0.7-0.3 1-0.6 0.7-0.6-0.3 0-1 0.3-1.6 0.6zm49.2-0.1c0.7 0.5 4 2.3 4 2.1 0-0.2-3.4-2.2-3.8-2.2-0.2 0-0.3 0.1-0.2 0.1zm-55.8 3.4c-1.6 1.1-3.2 2.1-3.6 2.4-0.5 0.3-0.2 0.2 0.6-0.1 2-1 6.7-4.3 5.9-4.2-0.1 0-1.4 0.9-2.9 1.9zm6.4-0.6c-0.8 0.9-0.8 0.9 0 0.2 0.4-0.3 1.3-0.7 1.8-0.8l1-0.2h-1c-0.7-0.1-1.4 0.3-1.8 0.8zm17.1-0.6c2.4 0.1 6.2 0.1 8.6 0 2.4-0.1 0.4-0.1-4.3-0.1-4.7 0-6.7 0-4.3 0.1zm38.6 0.7c0.6 0.3 1.3 0.7 1.5 1 0.1 0.2 0.6 0.4 0.9 0.4 0.6-0.1 0.6-0.1 0.1-0.3-0.3-0.1-1-0.6-1.6-1-0.5-0.4-1.2-0.7-1.6-0.7-0.3 0 0 0.3 0.7 0.6zm-46.5 0.1c-0.1 0.2 0.4 0.3 1 0.2 0.7-0.1 1.2-0.3 1.2-0.3 0-0.4-2-0.2-2.2 0.1zm25.4-0.2c0.1 0.1 0.9 0.3 1.8 0.4q1.6 0.3 1-0.1c-0.5-0.4-3.2-0.6-2.8-0.3zm4.5 1c0.4 0.1 1 0.1 1.4 0 0.4-0.1 0.1-0.2-0.7-0.2-0.8 0-1.1 0.1-0.7 0.2zm4.8 0.7c0.1 0.2 0.9 0.4 1.7 0.6 0.8 0.2 1.3 0.2 1.1 0-0.4-0.3-3.2-0.9-2.8-0.6zm-43.6 1.6c-0.7 0.3-1.3 0.7-1.3 0.8 0 0.3 2.4-0.7 2.6-1 0.3-0.5 0.3-0.5-1.3 0.2zm62.5-0.1c0.4 0.2 1.2 0.7 1.6 1.1 0.5 0.3 0.3 0.1-0.3-0.5-0.6-0.6-1.3-1.1-1.6-1.1-0.3 0-0.1 0.2 0.3 0.5zm-76.4 2.1c-3.3 2.5-5.3 4.6-6.1 6-0.3 0.7-1.1 1.7-1.6 2.4l-1.1 1.2 1.1-1c0.7-0.6 1.5-1.6 1.9-2.4 0.8-1.6 2.7-3.4 6.1-6 2-1.5 2.6-2 2.2-2-0.1 0-1.2 0.8-2.5 1.8zm79.4-0.1c0.1 0.1 1 0.8 2 1.7l1.8 1.6-1.6-1.7c-0.9-0.9-1.7-1.7-1.9-1.7-0.3 0-0.4 0-0.3 0.1zm-10 0.9c0 0.1 0.7 0.6 1.6 1 0.9 0.4 1.6 0.7 1.6 0.6 0-0.1-0.7-0.6-1.6-1-0.9-0.4-1.6-0.7-1.6-0.6zm-63.4 2.3l-1.2 1.3 1.4-1.2c0.8-0.7 1.5-1.2 1.6-1.3 0.1-0.1 0-0.1-0.3-0.1-0.2 0-0.9 0.6-1.5 1.3zm80.8 2.7c0.9 0.9 1.7 1.6 1.8 1.6 0.1 0-0.5-0.7-1.4-1.6-0.9-0.9-1.7-1.6-1.8-1.6-0.1 0 0.5 0.7 1.4 1.6zm-85.2 0.9l-1.6 1.7 1.7-1.6c1.6-1.5 1.9-1.8 1.6-1.8-0.1 0-0.8 0.8-1.7 1.7zm79.2 1.5c0.9 0.9 1.7 1.6 1.8 1.6 0.1 0-0.5-0.7-1.4-1.6-0.9-0.9-1.7-1.6-1.8-1.6-0.1 0 0.5 0.7 1.4 1.6zm7.4 3.4c2.1 2.1 3.9 3.8 4 3.8 0.1 0-1.5-1.7-3.6-3.8-2.1-2.1-3.9-3.8-4-3.8-0.1 0 1.5 1.7 3.6 3.8zm-89.8-1.3c-1.7 1.8-3.6 4.1-2.5 3.1 1.2-1.2 4.4-4.8 4.2-4.8-0.1 0-0.9 0.8-1.7 1.7zm93.6 0.7c1.1 1.2 2.6 2.9 3.3 3.8 1.2 1.4 1.3 1.5 0.4 0.2-0.5-0.8-2-2.5-3.3-3.8l-2.4-2.5zm-101.8 0.1c-0.5 0.6-0.8 1.2-0.7 1.2 0.2 0 0.6-0.6 1.1-1.2 0.5-0.7 0.8-1.2 0.6-1.2-0.1 0-0.5 0.5-1 1.2zm92.8-1.1c0 0.1 0.6 0.6 1.3 1.3l1.3 1.2-1.2-1.3c-1.1-1.2-1.4-1.5-1.4-1.2zm-94.8 4c-1.5 1.8-1.9 2.7-0.6 1.3 1-1.2 1.9-2.6 1.7-2.6-0.1 0-0.6 0.6-1.1 1.3zm6.5 0.8c-1.3 2.3-1.4 2.5-0.7 1.7 0.8-1 1.5-2.2 1.2-2.2-0.1 0-0.3 0.2-0.5 0.5zm103.5 4.3c0.5 0.6 0.9 1.2 1 1.2 0.2 0-0.1-0.6-0.6-1.2-0.5-0.7-0.9-1.2-1.1-1.2-0.1 0 0.2 0.5 0.7 1.2zm-114.3 3.3c-0.4 0.5-0.9 1.1-1.1 1.5-0.3 0.6-0.3 0.5 1.4-1.3 0.5-0.6 0.8-1.1 0.7-1.1-0.1 0-0.5 0.4-1 0.9zm117.8 2.1c0.2 0.4 0.5 1 0.6 1.4 0.2 0.5 0.2 0.5 0.3-0.1 0-0.3-0.3-0.9-0.6-1.4-0.6-0.7-0.6-0.7-0.3 0.1zm-113.3 2c-0.3 0.8-0.5 1.6-0.4 1.7 0.1 0.1 0.2 0.1 0.2 0 0-0.1 0.3-0.9 0.6-1.7 0.3-0.8 0.5-1.4 0.4-1.4-0.1 0-0.5 0.6-0.8 1.4zm-2.4 6.4c-0.1 0.3-0.2 0.9-0.2 1.3 0 0.4 0.2 0.1 0.4-0.5 0.4-1.3 0.3-1.9-0.2-0.8zm-7 2.6c0 0.4-0.1 1-0.2 1.4-0.3 0.7-0.2 0.7 0.2 0.1 0.2-0.4 0.4-1.1 0.3-1.4-0.2-0.7-0.2-0.7-0.3-0.1zm128.1 3.6c0 0.7 0.1 1.1 0.2 0.7 0.1-0.4 0.1-1 0-1.4-0.1-0.4-0.2-0.1-0.2 0.7zm-122.8 0.6c-0.1 0.7-0.2 1.6-0.3 2-0.3 0.7-0.2 0.7 0.2 0.1 0.2-0.4 0.4-1.3 0.3-2l-0.2-1.3zm-4.3 3.3c0 0.8 0 1.1 0.1 0.7 0.1-0.4 0.1-1 0-1.4-0.1-0.4-0.1-0.1-0.1 0.7zm-3.1 0.9c-0.1 0.5-0.2 1.3-0.2 1.7 0 0.4 0.2 0.1 0.4-0.8 0.4-1.6 0.2-2.5-0.2-0.9zm131.5 2.9c0 2 0.1 2.8 0.2 1.9 0-0.9 0-2.5 0-3.6-0.1-1-0.2-0.3-0.2 1.7zm-97.4-1.1l-1.3 1.5 1.6-1.4c0.8-0.8 1.6-1.4 1.7-1.5 0.1-0.1 0-0.1-0.2-0.1-0.2 0-1 0.7-1.8 1.5zm10.5-0.1c1.1 1.3 1.7 2.7 2 4.4 0.2 1.5 0.3 1.6 0.3 0.3 0.1-1.5-1.1-4.1-2.2-4.9-0.7-0.6-0.7-0.5-0.1 0.2zm-39.1 6.2c0 0.8 0 1.1 0.1 0.7 0.1-0.4 0.1-1 0-1.4-0.1-0.4-0.1-0.1-0.1 0.7zm26.3 0c0 0.6 0.2 1.4 0.4 1.8 0.2 0.6 0.3 0.3 0.1-0.8-0.3-1.9-0.6-2.4-0.5-1zm94.5 3.8c0 2 0.1 2.8 0.2 1.9 0-0.9 0-2.5 0-3.6-0.1-1-0.2-0.3-0.2 1.7zm2.8 0.6c0 1.9 0.1 2.6 0.2 1.7 0-0.9 0-2.5 0-3.4-0.1-0.9-0.2-0.2-0.2 1.7zm-16.3-1.6c0.6 0.8 1.2 1.4 1.3 1.3 0.1-0.1-0.4-0.7-1.1-1.4l-1.4-1.3zm-67 0.3c-0.3 0.7-1.1 1.6-1.9 2.2-0.8 0.6-1.4 1.1-1.2 1.1 1.2 0 4.4-3.7 3.8-4.3-0.1-0.1-0.4 0.4-0.7 1zm86.9 1.3c0 0.7 0.1 1 0.2 0.7 0.1-0.4 0.1-1.1 0-1.4-0.1-0.4-0.2-0.1-0.2 0.7zm-99.7-0.7c0 0.1 0.6 0.6 1.3 1.3l1.3 1.2-1.2-1.3c-1.1-1.2-1.4-1.5-1.4-1.2zm81.3 2.7c0 1 0.1 1.4 0.2 0.9 0.1-0.5 0.1-1.3 0-1.8-0.1-0.5-0.2-0.1-0.2 0.9zm-117.2 0.8c0 0.7 0.1 1 0.2 0.7 0.1-0.4 0.1-1.1 0-1.4-0.1-0.4-0.2-0.1-0.2 0.7zm40.2-0.4c0.4 0.2 1.3 0.3 2.1 0.3 0.8 0 1.7-0.1 2.1-0.3 0.4-0.1-0.6-0.2-2.1-0.2-1.5 0-2.5 0.1-2.1 0.2zm-41.7 5.8c-0.1 0.6-0.2 1.1-0.1 1.2 0.1 0.1 0.3-0.3 0.5-0.9 0.1-0.6 0.2-1.1 0.1-1.2-0.1-0.1-0.3 0.3-0.5 0.9zm135.9 1.4c0 1.4 0.1 2 0.2 1.3 0.1-0.8 0.1-1.9 0-2.6-0.1-0.8-0.2-0.2-0.2 1.3zm-126 0.4c0 0.7 0.1 1 0.2 0.7 0.1-0.4 0.1-1.1 0-1.4-0.1-0.4-0.2-0.1-0.2 0.7zm-10.4 1.2c0 0.7 0.1 1 0.2 0.7 0.1-0.4 0.1-1.1 0-1.4-0.1-0.4-0.2-0.1-0.2 0.7zm11.2 3.4c0 0.8 0.1 1.2 0.2 0.7 0.1-0.5 0.1-1.3 0-1.6-0.1-0.4-0.2 0-0.2 0.9zm104.9 2c-0.1 0.8-0.2 1.5-0.1 1.6 0.1 0.1 0.3-0.5 0.5-1.3 0.1-0.8 0.2-1.5 0.1-1.6-0.1-0.1-0.3 0.5-0.5 1.3zm-110.8 1.2c-0.9 1.4-0.6 1.5 0.6 0.1 0.6-0.6 0.9-1.1 0.6-1.1-0.3 0-0.8 0.4-1.2 1zm-4.5 0.8c0 0.8 0.1 1.2 0.2 0.7 0.1-0.5 0.1-1.3 0-1.6-0.1-0.4-0.2 0-0.2 0.9zm133.8 0.6c-0.1 0.5-0.3 1.3-0.5 1.8-0.1 0.4 0 0.3 0.4-0.4 0.3-0.6 0.6-1.4 0.5-1.8-0.1-0.4-0.2-0.4-0.4 0.4zm-1 4.2c0 0.8 0.1 1.2 0.2 0.7 0.1-0.5 0.1-1.3 0-1.6-0.1-0.4-0.2 0-0.2 0.9zm-120.5-1c0 0.2 0.3 0.9 0.6 1.6 0.3 0.8 0.6 1.1 0.6 0.8 0-0.6-1.2-2.9-1.2-2.4zm100.6 5.4c-0.1 0.6-0.2 1.1-0.1 1.2 0.1 0.1 0.3-0.3 0.5-0.9 0.1-0.6 0.2-1.1 0.1-1.2-0.1-0.1-0.3 0.3-0.5 0.9zm17.9 1.1c-0.5 0.9-0.9 1.7-0.8 1.7 0.1 0.1 0.6-0.6 1.1-1.5 0.5-0.9 0.8-1.7 0.7-1.7-0.1-0.1-0.5 0.6-1 1.5zm-129.2 0.3c0 0.7 0.1 1 0.2 0.7 0.1-0.4 0.1-1.1 0-1.4-0.1-0.4-0.2-0.1-0.2 0.7zm13.1-1c0 0.2 0.4 0.9 0.8 1.6 1 1.5 1 1 0-0.7-0.4-0.7-0.8-1.2-0.8-0.9zm86.9 1.2c0 0.8 0.1 1.2 0.2 0.7 0.1-0.5 0.1-1.3 0-1.6-0.1-0.4-0.2 0-0.2 0.9zm-84.5 3.1c0.5 0.8 1.1 1.6 1.5 1.9 0.3 0.3 0-0.3-0.7-1.4-1.5-2.1-2-2.5-0.8-0.5zm112.1-0.3c-0.7 1.5-0.6 1.8 0.1 0.4 0.4-0.6 0.6-1.2 0.5-1.3-0.1-0.1-0.4 0.3-0.6 0.9zm-27.3-0.5c0 0.4 1.2 2.7 1.4 2.7 0.1 0-0.1-0.6-0.5-1.3-0.7-1.5-0.9-1.8-0.9-1.4zm-108.2 3.3c-0.1 0.3-0.2 0.9-0.2 1.3 0 0.4 0.2 0.1 0.4-0.5 0.4-1.3 0.3-1.9-0.2-0.8zm112.3 0.4c0.6 0.1 1.5 0.1 2 0 0.5-0.1 0-0.1-1.1-0.1-1.1 0-1.5 0.1-0.9 0.1zm-88.9 4.5c0.2 0.4 0.7 1 1 1.3 0.5 0.3 0.4 0.1-0.2-0.7-1.1-1.5-1.5-1.7-0.8-0.6zm-206.7 1.5c0.4 0.1 1 0.1 1.4 0 0.4-0.1 0.1-0.1-0.7-0.1-0.8 0-1.1 0-0.7 0.1zm182 1c0 0.7 0.1 1 0.2 0.7 0.1-0.4 0.1-1.1 0-1.4-0.1-0.4-0.2-0.1-0.2 0.7zm-187.8-0.1c0.7 0 1.8 0 2.4-0.1 0.6 0 0-0.1-1.3-0.1-1.3 0-1.8 0.1-1.1 0.2zm11 0c0.8 0 2.2 0 3 0 0.8-0.1 0.1-0.2-1.5-0.2-1.7 0-2.3 0.1-1.5 0.2zm9.5 0.7c1 0.3 1.8 0.5 1.9 0.4 0.2-0.2-2.3-1-3.1-1-0.3 0 0.2 0.3 1.2 0.6zm200.8-0.5c0 0.1 0.6 0.6 1.3 1.3l1.3 1.2-1.2-1.3c-1.1-1.2-1.4-1.5-1.4-1.2zm-197.7 1.3c0.5 0.1 1.2 0.1 1.6 0 0.4-0.1 0-0.1-0.9-0.1-0.9 0-1.2 0-0.7 0.1zm294.1 0.9c-0.7 0.7-1.2 1.4-1.2 1.6 0 0.3-1 1.5-2.1 2.8l-2.1 2.3 1.9-1.8c1.1-1 2.2-2.4 2.6-3 0.3-0.7 1.1-1.6 1.6-2.1 0.6-0.5 1-0.9 0.8-0.9-0.1 0-0.8 0.5-1.5 1.1zm-330-0.3c-0.5 0.3-0.3 0.3 0.6 0.1 1.5-0.3 1.8-0.5 0.8-0.5-0.5 0-1.1 0.2-1.4 0.4zm44 1.8c0.5 0.3 1.3 0.5 1.6 0.5 0.3 0 0-0.2-0.8-0.6-1.7-0.7-2.1-0.7-0.8 0.1zm-52.6 1c-0.7 0.4-1 0.8-0.8 0.8 0.4-0.1 2.6-1.6 2.2-1.6-0.1 0-0.8 0.3-1.4 0.8zm57 1c2.6 1.7 3.1 2 2.6 1.5-0.8-0.8-3.9-2.9-4.3-2.9-0.2 0 0.6 0.6 1.7 1.4zm-32.7-0.3c0.8 0 2.2 0 3 0 0.8-0.1 0.1-0.2-1.5-0.2-1.7 0-2.3 0.1-1.5 0.2zm8.8 0c1.3 0 3.3 0 4.4 0 1.1-0.1 0.1-0.2-2.3-0.2-2.4 0-3.4 0.1-2.1 0.2zm180.4 1.1c0 0.8 0.1 1.2 0.2 0.7 0.1-0.5 0.1-1.3 0-1.6-0.1-0.4-0.2 0-0.2 0.9zm116 2.2c-1.7 1.7-3.1 3.2-2.9 3.2 0.1 0 1.6-1.5 3.4-3.2 1.7-1.8 3.1-3.2 3-3.2-0.1 0-1.7 1.4-3.5 3.2zm-86.1-1.4c0.7 0.7 1.4 1.4 1.5 1.4 0.2 0-0.4-0.7-1.1-1.4-0.8-0.8-1.5-1.4-1.6-1.4-0.1 0 0.4 0.6 1.2 1.4zm-195.7 0.4c0.8 0.3 1.6 0.6 1.8 0.5 0.3 0-0.1-0.2-0.9-0.6-0.7-0.3-1.5-0.5-1.8-0.5-0.2 0 0.2 0.3 0.9 0.6zm-55.7 0.4c-0.7 0.3-0.9 0.5-0.6 0.5 0.3 0 1-0.2 1.6-0.5 1.3-0.8 0.6-0.8-1 0zm217.1 1c0 0.7 0.1 1 0.2 0.7 0.1-0.4 0.1-1.1 0-1.4-0.1-0.4-0.2-0.1-0.2 0.7zm-147.7-0.7c0.1 0.1 0.7 0.4 1.4 0.8l1.2 0.7-1-0.8c-0.5-0.5-1.1-0.8-1.3-0.8-0.3 0-0.4 0-0.3 0.1zm-72.6 1.1c-0.2 0.2-0.9 0.8-1.6 1.2-0.6 0.4-1 0.8-0.7 0.8 0.5 0 3.3-2.4 2.8-2.4-0.1 0-0.4 0.2-0.5 0.4zm342.8 1.2c-0.9 0.9-2.2 1.9-2.8 2.2-1.3 0.7-4.4 3.4-3.9 3.4 0.2 0 0.8-0.5 1.3-1.1 0.6-0.5 1.6-1.3 2.4-1.7 1.2-0.7 5.3-4.4 4.8-4.4-0.2 0-1 0.7-1.8 1.6zm-125.6-0.2c-0.1 0.6-0.2 1.1-0.1 1.2 0.1 0.1 0.3-0.3 0.5-0.9 0.1-0.6 0.1-1.1 0.1-1.2-0.1-0.1-0.3 0.3-0.5 0.9zm-140.6 0.6c0.8 0.6 1.7 1.4 2.2 1.6 1 0.6 0.4 0-1.8-1.6l-1.8-1.3zm146.9 1.2c0 0.8 0.1 1.1 0.2 0.7 0.1-0.4 0.1-1 0-1.4-0.1-0.4-0.2-0.1-0.2 0.7zm-227.7 0.6c-0.3 0.4-1.2 1-2.1 1.4-0.8 0.4-1.6 1-1.7 1.2-0.4 0.6 3.2-1.5 4-2.4 0.4-0.4 0.6-0.8 0.5-0.8-0.1 0-0.4 0.3-0.7 0.6zm85.5 1.9c0.9 1 1.7 2 1.7 2.2 0 0.4 3.6 5.1 4.5 5.9 0.6 0.6-1.6-2.6-2.7-3.8-0.5-0.6-1.2-1.5-1.5-2.2-0.4-0.7-1.3-1.8-2.2-2.6-1.5-1.4-1.5-1.4 0.2 0.5zm-77.6-0.7c-1.5 0.8-1.4 1.2 0.1 0.4 0.6-0.3 1.2-0.7 1.2-0.8 0-0.3-0.1-0.3-1.3 0.4zm73.3 0.3c0 0.1 0.6 0.7 1.3 1.3l1.3 1.2-1.2-1.3c-1.1-1.2-1.4-1.5-1.4-1.2zm145.8 0.9c-0.1 0.6-0.2 1.2-0.1 1.3 0.1 0.1 0.3-0.3 0.5-0.9 0.1-0.6 0.1-1.2 0.1-1.3-0.1-0.1-0.3 0.3-0.5 0.9zm-228.4 2.7l-1.2 1.3 1.3-1.2c0.7-0.6 1.3-1.2 1.3-1.3 0-0.3-0.3 0-1.4 1.2zm337.6 0.1c-1.1 0.8-2.6 1.7-3.2 2-0.7 0.3-0.9 0.6-0.6 0.6 0.6 0 4.6-2.6 5.8-3.6 0.8-0.8-0.1-0.3-2 1zm-116.5 0.8c0 0.9 0.1 1.2 0.2 0.7 0.1-0.5 0.1-1.2 0-1.6-0.1-0.4-0.2 0-0.2 0.9zm79.4-1.1c0.5 0.1 1.2 0.1 1.6 0 0.4-0.1 0-0.2-0.9-0.2-0.9 0-1.2 0.1-0.7 0.2zm17.8 0c0.4 0.1 1 0.1 1.4 0 0.4-0.1 0.1-0.2-0.7-0.2-0.8 0-1.1 0.1-0.7 0.2zm-325.1 2.2l-2 2.1 2.1-2c1.1-1.1 2.1-2 2.1-2.1 0-0.3-0.4 0-2.2 2zm313.5-1.8c0.6 0.1 1.5 0.1 2 0 0.5-0.1 0-0.2-1.1-0.2-1.1 0-1.5 0.1-0.9 0.2zm-32.7 1.8l-1.2 1.3 1.3-1.2c0.7-0.6 1.3-1.2 1.3-1.3 0-0.3-0.3 0-1.4 1.2zm-190 1.1q4.1 4.6 1.9 1.8c-0.7-0.9-1.8-2.1-2.6-2.8-0.7-0.7-0.5-0.3 0.7 1zm242.8-1.7c-1.7 0.2-2.1 0.8-0.4 0.6 0.8-0.1 1.5-0.4 1.6-0.5 0.1-0.2 0.2-0.4 0.1-0.3-0.1 0-0.7 0.1-1.3 0.2zm-39.3 0.4c0.6 0.1 1.6 0.1 2.2 0 0.6-0.1 0.1-0.2-1.1-0.2-1.2 0-1.7 0.1-1.1 0.2zm3.8 0.6c0.2 0.2 1.5 0.3 2.9 0.2l2.6-0.1-2.9-0.2c-1.6-0.1-2.7-0.1-2.6 0.1zm39.7 0.9c-0.6 0.3-0.8 0.6-0.6 0.6 0.2 0 0.8-0.3 1.4-0.6 0.5-0.3 0.8-0.6 0.6-0.6-0.2 0-0.9 0.3-1.4 0.6zm-341.3 1.8c-0.5 0.7-1.5 1.9-2.2 2.8-0.7 0.9-1.3 1.8-1.3 1.9 0 0.3 2.8-2.8 2.8-3.2 0-0.1 0.5-0.8 1-1.5 0.6-0.6 1-1.2 0.9-1.2-0.2 0-0.7 0.5-1.2 1.2zm295.2-0.9c0.9 0.1 2.5 0.1 3.4 0 0.9-0.1 0.2-0.2-1.7-0.2-1.9 0-2.6 0.1-1.7 0.2zm40.1 0.9l-1.8 0.3h1.6c0.9 0.1 1.9-0.1 2.2-0.3 0.3-0.2 0.4-0.4 0.2-0.3-0.2 0-1.2 0.1-2.2 0.3zm-30.3 0.3c0.6 0.1 1.5 0.1 2 0 0.5-0.1 0-0.2-1.1-0.2-1.1 0-1.5 0.1-0.9 0.2zm-201 0.7c0.3 0.4 0.9 1.3 1.5 2 0.6 0.7 0.9 0.8 0.6 0.4-0.2-0.4-0.9-1.3-1.4-2-0.6-0.7-0.9-0.8-0.7-0.4zm184.2 1.1c-1.2 1.3-2.6 3.2-1.8 2.5 0.8-0.8 3.4-3.8 3.2-3.8-0.1 0-0.7 0.6-1.4 1.3zm22.7-0.9c0.3 0.2 0.9 0.4 1.4 0.4 1 0 0.7-0.2-0.8-0.6-0.9-0.2-1.1-0.1-0.6 0.2zm-81.1 2.4c0 1.2 0.1 1.7 0.2 1.1 0.1-0.6 0.1-1.6 0-2.2-0.1-0.6-0.2-0.1-0.2 1.1zm87-1.7c2 0.1 5.4 0.1 7.4 0 2-0.1 0.4-0.1-3.7-0.1-4.1 0-5.7 0-3.7 0.1zm-80.6 1.9c0 0.9 0.1 1.2 0.2 0.7 0.1-0.5 0.1-1.2 0-1.6-0.1-0.4-0.2 0-0.2 0.9zm-236.5 1.7l-1.4 1.5 1.5-1.4c1.4-1.3 1.7-1.6 1.4-1.6-0.1 0-0.8 0.7-1.5 1.5zm107.2-0.2c0.3 0.5 0.6 1.3 0.8 1.9q0.3 1 0.4 0.3c0-0.8-1.1-3.1-1.4-3.1-0.1 0 0 0.4 0.2 0.9zm122.1 2.6c-0.3 0.9-0.5 1.8-0.5 2.1 0 0.3 0.3-0.3 0.6-1.3 0.4-1.1 0.6-2.1 0.5-2.1-0.1-0.1-0.4 0.5-0.6 1.3zm-127.5 0.5c0.3 0.7 0.7 1.2 0.8 1.2 0.1 0-0.1-0.5-0.4-1.2-0.4-0.7-0.7-1.2-0.8-1.2-0.1 0 0 0.5 0.4 1.2zm133.6-0.2c-0.1 0.4-0.2 1.1-0.2 1.7 0.1 0.8 0.2 0.7 0.4-0.5 0.3-1.7 0.2-2.3-0.2-1.2zm-127 0.7c0 0.3 0.6 1.4 1.4 2.3 0.8 0.9 1.4 1.5 1.4 1.3 0-0.2-0.4-0.7-0.9-1.1-0.4-0.5-1.1-1.3-1.4-2-0.2-0.7-0.5-0.9-0.5-0.5zm-0.9 1.9c0.1 0.9 0.3 1.7 0.4 1.8 0.2 0.1 0.2-0.6 0.2-1.4-0.1-0.9-0.3-1.7-0.5-1.8-0.1-0.1-0.2 0.6-0.1 1.4zm176.6 0.4c0 0.8 0.1 1.1 0.2 0.7 0.1-0.4 0.1-1 0-1.4-0.1-0.4-0.2-0.1-0.2 0.7zm-56.7 3.3c-0.1 0.5-0.2 1.3-0.2 1.7 0.1 0.4 0.2 0.1 0.4-0.8 0.4-1.6 0.3-2.5-0.2-0.9zm-115.8 0.3c0 0.6 1.1 2.9 1.2 2.3 0-0.1-0.3-0.8-0.6-1.6-0.3-0.7-0.6-1-0.6-0.7zm115.3 4c0 0.8 0.1 1.1 0.2 0.7 0.1-0.4 0.1-1 0-1.4-0.1-0.4-0.2-0.1-0.2 0.7zm-238.4 1c-0.3 0.6-0.5 1.3-0.5 1.5 0 0.3 0.3-0.1 0.6-0.9 0.7-1.5 0.5-2.1-0.1-0.6zm293.5 0.3c0 0.3-0.1 1-0.2 1.4-0.3 0.7-0.2 0.7 0.2 0 0.2-0.4 0.4-1 0.3-1.4-0.2-0.6-0.2-0.6-0.3 0zm-53.5 3.1c0 0.8 0.1 1.1 0.2 0.7 0.1-0.4 0.1-1 0-1.4-0.1-0.4-0.2-0.1-0.2 0.7zm3.6 0.2c0 0.9 0.1 1.2 0.2 0.7 0.1-0.5 0.1-1.2 0-1.6-0.1-0.4-0.2 0-0.2 0.9zm-245 0.2c-0.4 0.6-0.7 1.6-0.7 2.3 0.1 1 0.1 0.9 0.4-0.4 0.1-0.8 0.5-1.7 0.8-2.1 0.3-0.3 0.4-0.7 0.3-0.8-0.1-0.1-0.5 0.3-0.8 1zm127.3 0.7c0 0.3 0.2 0.9 0.5 1.4 0.2 0.5 0.6 1.5 0.7 2.3 0.3 1.2 0.3 1.2 0.3 0.3 0.1-0.5-0.3-1.8-0.7-2.8-0.4-0.9-0.8-1.5-0.8-1.2zm110.5 1.9c-0.3 0.6-0.5 1.3-0.5 1.7 0 0.4 0.3 0 0.6-0.9 0.6-1.8 0.5-2.3-0.1-0.8zm56 0.4c0 0.9 0.1 1.2 0.2 0.7 0.1-0.5 0.1-1.2 0-1.6-0.1-0.4-0.2 0-0.2 0.9zm-295.1 2.4c-0.1 0.6-0.2 1.2-0.1 1.3 0.1 0.1 0.3-0.3 0.5-0.9 0.1-0.6 0.1-1.2 0.1-1.3-0.1-0.1-0.3 0.3-0.5 0.9zm245.1 0.6c0 0.8 0.1 1.1 0.2 0.7 0.1-0.4 0.1-1 0-1.4-0.1-0.4-0.2-0.1-0.2 0.7zm-6.8 1.2c0 1 0.1 1.4 0.2 0.9 0.1-0.5 0.1-1.3 0-1.8-0.1-0.5-0.2-0.1-0.2 0.9zm-107.9 0.6c0.2 0.7 0.4 1.8 0.6 2.6 0.3 1.4 0.3 1.4 0.3 0.2 0-0.7-0.2-1.8-0.5-2.6-0.6-1.3-0.6-1.3-0.4-0.2zm-130.9 1c0 1 0.1 1.4 0.2 0.9 0.1-0.5 0.1-1.3 0-1.8-0.1-0.5-0.2-0.1-0.2 0.9zm96.7 1.1c0.8 0.7 1.7 1.8 2 2.5 0.3 0.7 0.6 1.1 0.7 1 0.5-0.5-1.9-3.6-3.3-4.3-0.5-0.2-0.2 0.2 0.6 0.8zm191.3 0.1c0 0.8 0.1 1.1 0.2 0.7 0.1-0.4 0.1-1 0-1.4-0.1-0.4-0.2-0.1-0.2 0.7zm-201.4 0.3c-1.6 1.7-1.9 2.7-1.8 5.6v2.7l0.2-2.4c0.1-3.4 0.3-4 1.7-5.6 1.5-1.7 1.4-1.9-0.1-0.3zm38.6 1.1c0 1.3 0.1 1.8 0.2 1.1 0.1-0.7 0.1-1.8 0-2.4-0.1-0.6-0.2 0-0.2 1.3zm112.9-1.3c-0.1 0.5-0.2 1.3-0.2 1.7 0.1 0.4 0.2 0.1 0.4-0.8 0.4-1.6 0.3-2.5-0.2-0.9zm-109.3 0.7c0 0.8 0.1 1.1 0.2 0.7 0.1-0.4 0.1-1 0-1.4-0.1-0.4-0.2-0.1-0.2 0.7zm162 0c0 0.8 0.1 1.1 0.2 0.7 0.1-0.4 0.1-1 0-1.4-0.1-0.4-0.2-0.1-0.2 0.7zm-285.2 1c0 0.9 0.1 1.2 0.2 0.7 0.1-0.5 0.1-1.2 0-1.6-0.1-0.4-0.2 0-0.2 0.9zm287.7-0.4c-0.1 0.6-0.2 1.2-0.1 1.3 0.1 0.1 0.3-0.3 0.5-0.9 0.1-0.6 0.1-1.2 0.1-1.3-0.1-0.1-0.3 0.3-0.5 0.9zm-49.5 2.2c-0.1 0.8-0.3 1.8-0.5 2.4-0.1 0.6 0 0.4 0.4-0.4 0.3-0.8 0.6-1.8 0.5-2.4-0.1-0.9-0.2-0.8-0.4 0.4zm-6.6 1.5q-1.4 4.1-0.1 1.3c0.4-1 0.8-2 0.7-2.3-0.1-0.3-0.3 0.1-0.6 1zm55.6 0.1c0 1 0.1 1.4 0.2 0.9 0.1-0.5 0.1-1.3 0-1.8-0.1-0.5-0.2-0.1-0.2 0.9zm-290.4 0c0 0.8 0.1 1.1 0.2 0.7 0.1-0.4 0.1-1 0-1.4-0.1-0.4-0.2-0.1-0.2 0.7zm97.2 0.2c0 0.9 0.1 1.2 0.2 0.7 0.1-0.5 0.1-1.2 0-1.6-0.1-0.4-0.2 0-0.2 0.9zm-94.4 0.6c0 1 0.1 1.4 0.2 0.9 0.1-0.5 0.1-1.3 0-1.8-0.1-0.5-0.2-0.1-0.2 0.9zm120.8 2.2c0 0.9 0.1 1.2 0.2 0.7 0.1-0.5 0.1-1.2 0-1.6-0.1-0.4-0.2 0-0.2 0.9zm4.4 0.6c0 1 0.1 1.4 0.2 0.9 0.1-0.5 0.1-1.3 0-1.8-0.1-0.5-0.2-0.1-0.2 0.9zm-131.4 3.8c0.1 2.4 0.3 4.7 0.5 5.2 0.3 0.8 0.3 0-0.4-6.4-0.3-2.9-0.3-2.8-0.1 1.2zm237-2.6c0 1 0.1 1.4 0.2 0.9 0.1-0.5 0.1-1.3 0-1.8-0.1-0.5-0.2-0.1-0.2 0.9zm-150.9-0.9c0 0.3 0.6 1.1 1.3 1.8 0.7 0.7 0.9 0.9 0.4 0.3-0.4-0.5-1-1.4-1.2-1.8-0.3-0.4-0.5-0.6-0.5-0.3zm48.9 2.5c0 0.8 0.1 1.1 0.2 0.7 0.1-0.4 0.1-1 0-1.4-0.1-0.4-0.2-0.1-0.2 0.7zm108.1-0.2c-0.1 0.6-0.2 1.2-0.1 1.3 0.1 0.1 0.3-0.3 0.5-0.9 0.1-0.6 0.1-1.2 0.1-1.3-0.1-0.1-0.3 0.3-0.5 0.9zm-115.7 2.4c0 1.8 0.1 2.4 0.2 1.5 0.1-1 0.1-2.4 0-3.2-0.1-0.8-0.2-0.1-0.2 1.7zm-121.2 0c0 1.1 0.1 1.5 0.2 0.9 0.1-0.6 0.1-1.5 0-2-0.1-0.5-0.2 0-0.2 1.1zm86.2-0.3c0.5 0.1 1.2 0.1 1.6 0 0.4-0.1 0-0.2-0.9-0.2-0.9 0-1.2 0.1-0.7 0.2zm42.9 0.7c0 0.7 0.2 1.6 0.4 2q0.4 0.8 0.1-1c-0.3-2.1-0.5-2.6-0.5-1zm156.2 1.6c-0.1 0.6-0.2 1.2-0.1 1.3 0.1 0.1 0.3-0.3 0.5-0.9 0.1-0.6 0.1-1.2 0.1-1.3-0.1-0.1-0.3 0.3-0.5 0.9zm-155.4 1.6c0 0.2 0.3 1.2 0.6 2.2 0.3 1 0.5 1.4 0.5 1 0-0.8-1-3.9-1.1-3.2zm-9.1 2.2c0 0.8 0.1 1.1 0.2 0.7 0.1-0.4 0.1-1 0-1.4-0.1-0.4-0.2-0.1-0.2 0.7zm107.7 1.2c-0.4 1.1-0.6 2.3-0.5 2.7 0.2 0.5 0.2 0.5 0.2-0.2 0.1-0.5 0.4-1.6 0.7-2.5 0.4-0.9 0.6-1.7 0.5-1.8-0.1-0.1-0.5 0.7-0.9 1.8zm-204.2-0.8c0 0.6 0.2 1.4 0.4 1.8 0.3 0.6 0.3 0.3 0.1-0.8-0.3-1.9-0.5-2.4-0.5-1zm259.6 1.6c-0.2 0.7-0.4 1.7-0.4 2.2 0 0.4 0.3-0.1 0.6-1.2 0.6-2.3 0.5-2.9-0.2-1zm-289.1 0.8c0 0.8 0.1 1.1 0.2 0.7 0.1-0.4 0.1-1 0-1.4-0.1-0.4-0.2-0.1-0.2 0.7zm125.2 2c0 0.8 0.1 1.1 0.2 0.7 0.1-0.4 0.1-1 0-1.4-0.1-0.4-0.2-0.1-0.2 0.7zm160.4 0.4c0 1 0.1 1.4 0.2 0.9 0.1-0.5 0.1-1.3 0-1.8-0.1-0.5-0.2-0.1-0.2 0.9zm-46.3-0.2c-0.1 0.6-0.2 1.2-0.1 1.3 0.1 0.1 0.3-0.3 0.5-0.9 0.1-0.6 0.1-1.2 0.1-1.3-0.1-0.1-0.3 0.3-0.5 0.9zm-7.2 2.7c-0.1 0.7-0.3 2-0.4 2.9-0.1 0.9-0.3 2-0.4 2.4-0.3 0.8-0.3 0.8 0.2 0 0.3-0.4 0.6-2 0.8-3.6 0.3-2.9 0.2-4.2-0.2-1.7zm55.5 1.4c-0.3 0.9-0.5 1.9-0.5 2.3 0 0.5 0.3-0.2 0.6-1.4 0.7-2.4 0.5-3.2-0.1-0.9zm-157.1 0c0.5 0.5 1 1.3 1 1.6 0 0.4 0.1 0.5 0.3 0.3 0.4-0.4-1.1-3-1.8-3-0.3 0-0.1 0.4 0.5 1.1zm-125.3 2.5c0 1 0.1 1.4 0.2 0.9 0.1-0.5 0.1-1.3 0-1.8-0.1-0.5-0.2-0.1-0.2 0.9zm-3.7-0.8c0 0.6 1.1 2.9 1.2 2.3 0-0.1-0.3-0.8-0.6-1.6-0.3-0.7-0.6-1-0.6-0.7zm136.5-0.2c-0.1 0.2 0.2 1 0.5 1.8 0.3 0.8 0.5 1.1 0.5 0.8 0-0.3-0.2-1.1-0.5-1.8-0.3-0.7-0.5-1-0.5-0.8zm-15 3.1c-1 2.3-0.9 2.9 0.1 0.7 0.4-0.9 0.8-1.9 0.7-2.1-0.1-0.1-0.4 0.5-0.8 1.4zm9.4 0.5c0 0.9 0.1 1.2 0.2 0.7 0.1-0.5 0.1-1.2 0-1.6-0.1-0.4-0.2 0-0.2 0.9zm104.8 0.2c0 0.8 0.1 1.1 0.2 0.7 0.1-0.4 0.1-1 0-1.4-0.1-0.4-0.2-0.1-0.2 0.7zm-234.4 0.8c-0.1 0.8 0.2 1.8 0.5 2.4q0.6 1 0.4 0.2c-0.2-0.4-0.5-1.5-0.6-2.4l-0.3-1.6zm124.2 0.6c-0.2 0.4-0.4 1.1-0.5 1.4-0.2 0.3 0 0.2 0.4-0.3 0.4-0.5 0.6-1.1 0.5-1.4-0.1-0.3-0.3-0.1-0.4 0.3zm-104.6 3c0 0.3 0.1 1 0.3 1.4q0.4 0.8 0.4 0.2c0-0.3-0.2-1-0.4-1.4q-0.3-0.8-0.3-0.2zm97.8 1.4c-0.4 0.8-0.6 1.4-0.5 1.4 0.3 0 1.5-2.5 1.3-2.6-0.1-0.1-0.4 0.4-0.8 1.2zm115.4 0.8c-0.7 2.5-0.9 4.3-0.5 4 0.2-0.1 0.4-0.9 0.4-1.7 0-0.7 0.2-1.7 0.4-2.1 0.3-0.5 0.4-1 0.3-1.3 0-0.2-0.3 0.3-0.6 1.1zm-101.6 0.2c0 0.8 0.1 1.1 0.2 0.7 0.1-0.4 0.1-1 0-1.4-0.1-0.4-0.2-0.1-0.2 0.7zm150.8 0.9c-0.3 0.7-0.5 1.7-0.4 2.3 0 0.8 0.1 0.8 0.3-0.4 0.2-0.8 0.4-1.8 0.6-2.3 0.1-0.5 0.2-0.9 0.1-0.9-0.1 0-0.4 0.6-0.6 1.3zm-5.6-0.4c-0.1 0.3-0.2 1-0.3 1.4-0.2 0.7-0.2 0.7 0.2 0 0.3-0.4 0.4-1 0.3-1.4-0.2-0.6-0.2-0.6-0.2 0zm-47.6 2.3c0 1.2 0.1 1.7 0.2 1.1 0.1-0.6 0.1-1.6 0-2.2-0.1-0.6-0.2-0.1-0.2 1.1zm-225.6-1c0 0.2 0.2 0.8 0.5 1.4 0.3 0.5 0.6 0.8 0.6 0.6 0-0.2-0.3-0.9-0.6-1.4-0.3-0.6-0.5-0.8-0.5-0.6zm26 2.3q-0.9 0.9-3 1.1l-2.1 0.3h1.9c1.6 0.1 5.8-2.2 4.3-2.3-0.1 0-0.6 0.4-1.1 0.9zm89.7 1.1c-0.3 0.7-0.5 1.2-0.4 1.2 0.1 0 0.5-0.5 0.8-1.2 0.4-0.7 0.6-1.2 0.4-1.2-0.1 0-0.4 0.5-0.8 1.2zm-114.6-0.6c0 0.1 0.4 0.7 0.8 1.3 0.5 0.5 0.8 0.9 0.8 0.7 0-0.1-0.3-0.7-0.8-1.3-0.4-0.6-0.8-0.9-0.8-0.7zm227 1.6c-0.1 0.3-0.2 1.1-0.1 1.9 0.1 1.1 0.2 1.1 0.3-0.6 0.2-1.9 0.2-2.3-0.2-1.3zm-92.1 1c0 0.8 0.1 1.1 0.2 0.7 0.1-0.4 0.1-1 0-1.4-0.1-0.4-0.2-0.1-0.2 0.7zm88.8 0c0 0.8 0.1 1.1 0.2 0.7 0.1-0.4 0.1-1 0-1.4-0.1-0.4-0.2-0.1-0.2 0.7zm-117.1 1.3l-1.2 1.3 1.3-1.2c1.2-1.1 1.5-1.4 1.2-1.4-0.1 0-0.7 0.6-1.3 1.3zm-104.2 1.3c0 0.5 1.5 3 1.8 3 0.1 0-0.2-0.7-0.7-1.5-1-1.8-1.1-1.9-1.1-1.5zm223.9 0.7c-0.6 2.1-0.3 3.7 0.8 4.7l1.1 1-0.9-1.1c-0.9-0.9-1-1.3-0.8-3.3 0.3-2.3 0.2-2.8-0.2-1.3zm-119.3 4l-3.6 3.7 3.7-3.6c3.5-3.3 3.9-3.8 3.6-3.8 0 0-1.7 1.7-3.7 3.7zm-100.2-3.1c0 0.2 0.6 0.9 1.2 1.7 0.7 0.7 1.2 1.2 1.2 1.1 0-0.2-0.5-0.9-1.2-1.7-0.6-0.7-1.2-1.2-1.2-1.1zm-1.2 3.2c0.8 0.8 1.5 1.4 1.6 1.4 0.1 0-0.4-0.6-1.2-1.4-0.7-0.8-1.4-1.4-1.5-1.4-0.1 0 0.4 0.6 1.1 1.4zm213.3 0.9c0 0.7-0.2 1.6-0.3 2-0.2 0.7-0.2 0.7 0.2 0 0.3-0.4 0.4-1.3 0.3-2l-0.1-1.3zm-203.5 0.9c0.8 0.9 1.6 1.6 1.7 1.6 0.2 0-0.5-0.7-1.3-1.6-0.9-0.8-1.7-1.6-1.8-1.6-0.1 0 0.5 0.8 1.4 1.6zm121.6 0.6c0.4 1.5 0.6 1.8 0.6 0.8 0-0.4-0.2-1-0.4-1.4-0.3-0.4-0.4-0.2-0.2 0.6zm-128.7 1.2c0.4 0.7 1.8 2.1 2.9 3.2 2 1.9 2 1.8-0.4-0.8-3.4-3.7-3.5-3.7-2.5-2.4zm83.9 2.1l-1.2 1 1.3-0.9c0.7-0.4 1.3-0.9 1.3-1 0-0.3-0.2-0.2-1.4 0.9zm149.8-0.3c0.5 0.2 1.3 0.4 1.8 0.4 0.6 0 0.6-0.1-0.2-0.4-0.6-0.1-1.4-0.3-1.8-0.3-0.6 0-0.6 0.1 0.2 0.3zm-24.7 1.4c0 0.9 0.1 1.2 0.2 0.7 0.1-0.5 0.1-1.2 0-1.6-0.1-0.4-0.2 0.1-0.2 0.9zm13.4-1.1c0.5 0.1 1.2 0.1 1.6 0 0.4-0.1 0-0.2-0.9-0.2-0.9 0-1.2 0.1-0.7 0.2zm-10.8 1.2c-0.1 0.8 0 1.2 0.2 1 0.2-0.2 0.3-0.8 0.2-1.3-0.1-0.8-0.2-0.8-0.4 0.3zm-121.3 0.4l-1.2 1 1.3-0.9c0.7-0.4 1.3-0.9 1.3-1 0-0.3-0.2-0.2-1.4 0.9zm174.5 0.1c-0.2 0.7-0.3 1.7-0.3 2.2 0.1 0.4 0.2 0 0.4-1 0.2-1 0.3-1.9 0.3-2.2-0.1-0.2-0.3 0.2-0.4 1zm-135.1-0.6c0 0.3 0.3 1.2 0.6 2.2 0.3 1 0.5 1.5 0.5 1 0-0.8-1-3.9-1.1-3.2zm105 1c0.4 0.2 1.1 0.4 1.4 0.4q0.5 0-0.2-0.4c-0.5-0.2-1.1-0.3-1.4-0.3q-0.6 0 0.2 0.3zm10.4 0c0.4 0.2 1.4 0.4 2.2 0.6q1.4 0.2 0.6-0.1c-0.5-0.2-1.4-0.5-2.2-0.6q-1.4-0.3-0.6 0.1zm7.2 1.6c0.4 0.2 1.1 0.4 1.4 0.4q0.5 0-0.2-0.4c-0.5-0.2-1.1-0.3-1.4-0.3q-0.6 0 0.2 0.3zm-246.2 0.6c0 0.1 0.9 0.8 2.1 1.6 1.1 0.7 2.3 1.6 2.6 2 0.3 0.3 0.7 0.6 1 0.6 0.2 0-0.3-0.5-1-1.1-1.4-1.3-4.7-3.4-4.7-3.1zm118 1.1c0 0.7 0.2 1.7 0.4 2.1 0.2 0.5 0.3 0.1 0.1-1.2-0.3-2.3-0.5-2.8-0.5-0.9zm131.1-1c0.5 0.1 1.2 0.1 1.6 0 0.4-0.1 0-0.2-0.9-0.2-0.9 0-1.2 0.1-0.7 0.2zm-0.8 2.1c1.2 0.4 2.3 1 2.5 1.3 0.3 0.4 0.4 0.4 0.4 0 0-0.6-3-2.1-4.2-2-0.5 0 0.2 0.3 1.3 0.7zm-46.2 2.2c0 1.6 0.1 2.2 0.2 1.3 0.1-0.8 0.1-2.1 0-2.8-0.1-0.7-0.2 0-0.2 1.5zm6 0.2c0 1 0.1 1.4 0.2 0.9 0.1-0.5 0.1-1.3 0-1.8-0.1-0.5-0.2-0.1-0.2 0.9zm-152.5-0.8c-0.8 0.3-0.9 0.4-0.2 0.4 0.4 0 1.1-0.2 1.4-0.4 0.7-0.4 0.2-0.4-1.2 0zm67.7 1.4c0 0.9 0.1 1.2 0.2 0.7 0.1-0.5 0.1-1.2 0-1.6-0.1-0.4-0.2 0.1-0.2 0.9zm-114.9 0.4c2.6 1.8 3.1 2.1 2.6 1.5-0.8-0.7-3.9-2.9-4.3-2.9-0.2 0 0.6 0.7 1.7 1.4zm248.5 1c0 1 0.1 1.4 0.2 0.9 0.1-0.5 0.1-1.3 0-1.8-0.1-0.5-0.2-0.1-0.2 0.9zm-212-0.9c0.4 0.1 1 0.1 1.4 0 0.4-0.1 0.1-0.2-0.7-0.2-0.8 0-1.1 0.1-0.7 0.2zm-6.4 0.4c0.6 0.1 1.6 0.1 2.2 0 0.6-0.1 0.1-0.1-1.1-0.1-1.2 0-1.7 0-1.1 0.1zm214.8 0.9c0 0.8 0.1 1.1 0.2 0.7 0.1-0.4 0.1-1 0-1.4-0.1-0.4-0.2 0-0.2 0.7zm-133.7 0.7c0 0.8 0.2 1.8 0.4 2.1 0.2 0.3 0.2-0.2 0.1-1.4-0.3-2.5-0.5-2.8-0.5-0.7zm87.8 0.3c-0.3 1.2-0.1 3.8 0.5 5.8l0.5 1.4-0.3-1.4c-0.1-0.7-0.2-2.6-0.3-4.1 0-2.9-0.1-3.1-0.4-1.7zm-195.2 0c0.4 0.4 1 0.6 1.4 0.6 0.5 0 0.5-0.1 0-0.3-0.3-0.1-1-0.3-1.4-0.5-0.8-0.4-0.8-0.4 0 0.2zm45.1-0.3c0.6 0.1 1.6 0.1 2.2 0 0.6-0.1 0.1-0.1-1.1-0.1-1.2 0-1.7 0-1.1 0.1zm144.4 1.9c0 0.9 0.1 1.2 0.2 0.7 0.1-0.5 0.1-1.2 0-1.6-0.1-0.4-0.2 0.1-0.2 0.9zm-77.6 0.8c0 0.9 0.1 1.2 0.2 0.7 0.1-0.5 0.1-1.2 0-1.6-0.1-0.4-0.2 0.1-0.2 0.9zm128.4 0.2c0 0.8 0.1 1.1 0.2 0.7 0.1-0.4 0.1-1 0-1.4-0.1-0.4-0.2 0-0.2 0.7zm-233.9-0.2c2 0.8 2.3 0.8 1 0-0.6-0.3-1.4-0.5-1.8-0.5-0.5 0-0.1 0.2 0.8 0.5zm40.5-0.3c0.9 0.1 2.5 0.1 3.4 0 0.9-0.1 0.2-0.1-1.7-0.1-1.9 0-2.6 0-1.7 0.1zm11.9 1.3c0.8 0.9 1.6 1.6 1.7 1.6 0.2 0-0.5-0.7-1.3-1.6-0.9-0.8-1.7-1.6-1.8-1.6-0.1 0 0.5 0.8 1.4 1.6zm184.8-0.7c-0.1 0.5-0.2 1.3-0.2 1.7 0.1 0.5 0.2 0.1 0.4-0.7 0.4-1.7 0.3-2.5-0.2-1zm-204 0.3l-2 0.3h1.8c1 0 2.2-0.1 2.8-0.3 1.2-0.4 0.3-0.4-2.6 0zm-30.3 0.3c0.5 0.1 1.2 0.1 1.6 0 0.4-0.1 0-0.2-0.9-0.2-0.9 0-1.2 0.1-0.7 0.2zm180.6 2.9c0 1.2 0.1 1.7 0.2 1.1 0.1-0.6 0.1-1.6 0-2.2-0.1-0.6-0.2-0.1-0.2 1.1zm-169-1.3c2 0.1 5.4 0.1 7.4 0 2 0 0.4-0.1-3.7-0.1-4.1 0-5.7 0.1-3.7 0.1zm37.5 2.2c0.8 1.1 1.6 2.4 1.8 2.9 0.2 0.5 0.3 0.6 0.4 0.2 0-0.6-3.1-5.2-3.5-5.2-0.1 0 0.5 0.9 1.3 2.1zm57.1 0.9c0 1.1 0.1 1.5 0.2 0.9 0.1-0.6 0.1-1.5 0-2-0.1-0.5-0.2 0-0.2 1.1zm-6.3 0.8c0.4 1.5 0.6 1.8 0.6 0.8 0-0.4-0.2-1-0.4-1.4-0.3-0.4-0.4-0.2-0.2 0.6zm1 4.6c0 0.7 0.1 1.3 0.3 1.4 0.2 0.1 0.2-0.4 0.2-1.2-0.2-1.7-0.5-1.8-0.5-0.2zm130.2 0.2c-0.5 2.1-2.7 5.5-4.1 6.3-1.6 1-1.8 1.4-0.2 0.6 1.9-1 5.2-6.2 4.8-7.5-0.1-0.3-0.3-0.1-0.5 0.6zm-178.9 1.6c0 0.9 0.1 1.2 0.2 0.7 0.1-0.5 0.1-1.2 0-1.6-0.1-0.4-0.2 0.1-0.2 0.9zm147.9 1c0.3 0.2 1 0.4 1.6 0.4 1.2 0 0.9-0.2-0.8-0.5-1-0.2-1.2-0.2-0.8 0.1zm-14.2 0.8c1.3 1.1 3.8 2.8 4 2.8 0.2 0-0.6-0.7-1.8-1.6-1.9-1.4-3.3-2.2-2.2-1.2zm20.2 0.4c0.3 0.2 0.9 0.4 1.4 0.4h0.8l-0.8-0.4c-1.2-0.5-2.2-0.5-1.4 0zm5.1 0.7c1.4 0.1 3.5 0.1 4.8 0 1.3-0.1 0.1-0.1-2.5-0.1-2.7 0-3.7 0-2.3 0.1zm-108.6 1.5c0 0.9 0.1 1.2 0.2 0.7 0.1-0.5 0.1-1.2 0-1.6-0.1-0.4-0.2 0.1-0.2 0.9zm3.5 0.1c0 0.9 0.1 1.8 0.3 1.9 0.2 0.1 0.3-0.5 0.2-1.3-0.2-2.2-0.4-2.5-0.5-0.6zm2.9 0.3c0 0.9 0.1 1.2 0.2 0.7 0.1-0.5 0.1-1.2 0-1.6-0.1-0.4-0.2 0.1-0.2 0.9zm83.1 0.4c0.1 0.1 0.8 0.2 1.6 0.4 1 0.2 1.2 0.1 0.8-0.2-0.6-0.3-2.8-0.6-2.4-0.2zm9.6 2.8c0.1 0.1 0.8 0.2 1.6 0.4 1 0.2 1.2 0.1 0.8-0.2-0.6-0.3-2.8-0.6-2.4-0.2zm-147.6 0.6c0 0.4 0.2 1 0.4 1.4q0.3 0.8 0.3 0.2c0-0.3-0.1-0.9-0.3-1.4q-0.3-0.7-0.4-0.2zm165.2 0l-1.4 0.3 1.3 0.1c0.7 0 1.4-0.1 1.5-0.4 0.1-0.2 0.2-0.3 0.1-0.3-0.1 0-0.7 0.2-1.5 0.3zm-109.3 1.6c0.1 1 0.3 2.1 0.5 2.4 0.4 0.8 0-2.2-0.5-3.4-0.2-0.4-0.2 0 0 1zm99.2-0.9c0.5 0.1 1.3 0.1 1.8 0 0.5-0.1 0.1-0.2-0.9-0.2-1 0-1.4 0.1-0.9 0.2zm4.4 0.4c0.5 0.1 1.2 0.1 1.6 0 0.4-0.1 0-0.2-0.9-0.2-0.9 0-1.2 0.1-0.7 0.2zm-158.6 2.5c0 0.8 0.1 1.1 0.2 0.7 0.1-0.4 0.1-1 0-1.4-0.1-0.4-0.2 0-0.2 0.7zm49.3 1c0.4 1.5 0.6 1.8 0.6 0.8 0-0.4-0.2-1-0.4-1.4-0.3-0.4-0.4-0.2-0.2 0.6zm7.3 2.7c0.1 0.9 0.3 1.8 0.3 1.9 0.4 0.4 0.1-2.6-0.2-3.1-0.2-0.4-0.3 0-0.1 1.2zm-6.3 2.2c0 0.8 0.2 1.8 0.4 2.1 0.2 0.3 0.2-0.2 0.1-1.4-0.3-2.5-0.5-2.8-0.5-0.7zm-46 0.6c0.2 1.7 0.2 1.7 0.3 0.4 0.1-0.8 0-1.5-0.2-1.7-0.2-0.2-0.2 0.4-0.1 1.3zm52.8 1.2c0 0.5 0.2 1.3 0.4 1.7 0.3 0.6 0.3 0.3 0.1-0.8-0.3-1.8-0.5-2.3-0.5-0.9zm-55 2.1c0.2 0.7 0.4 2 0.6 3l0.3 1.8v-1.6c0-0.8-0.2-2.2-0.5-3-0.6-1.2-0.6-1.3-0.4-0.2zm55.9 2.2c0 1 0.1 1.4 0.2 0.9 0.1-0.5 0.1-1.3 0-1.8-0.1-0.5-0.2-0.1-0.2 0.9zm0.5 2.6c1 2.7 1.4 3.6 1.4 2.8 0-0.4-0.4-1.4-0.9-2.2-0.4-0.7-0.6-1-0.5-0.6zm1.5 5.6c0 0.9 0.1 1.2 0.2 0.7 0.1-0.5 0.1-1.2 0-1.6-0.1-0.4-0.2 0.1-0.2 0.9zm-6.4 0.2c0 1.1 0.6 2.8 0.6 1.8 0-0.4-0.1-1.1-0.3-1.6q-0.3-0.7-0.3-0.2zm-45.6 2.8c0 0.8 0.1 1.1 0.2 0.7 0.1-0.4 0.1-1 0-1.4-0.1-0.4-0.2 0-0.2 0.7zm46.8 2c0 0.8 0.1 1.1 0.2 0.7 0.1-0.4 0.1-1 0-1.4-0.1-0.4-0.2 0-0.2 0.7zm6 0c0 0.8 0.1 1.1 0.2 0.7 0.1-0.4 0.1-1 0-1.4-0.1-0.4-0.2 0-0.2 0.7zm-55.5 0.8c0.4 1.8 0.6 2.1 0.6 0.8 0-0.5-0.2-1.2-0.4-1.6-0.3-0.4-0.3-0.2-0.2 0.8zm53 0.6c0 0.8 0.1 1.5 0.3 1.6 0.2 0.1 0.2-0.5 0.2-1.4-0.2-1.9-0.5-2.1-0.5-0.2zm3.6 3c0 0.1 0.3 1.2 0.6 2.4 0.6 2.1 0.6 2.1 0.4 0.5-0.2-1.4-1-3.8-1-2.9zm-5.9 2c0 0.8 0.1 1.1 0.2 0.7 0.1-0.4 0.1-1 0-1.4-0.1-0.4-0.2 0-0.2 0.7zm0.4 2c0 1.1 0.6 2.8 0.6 1.8 0-0.4-0.1-1.1-0.3-1.6q-0.3-0.7-0.3-0.2zm1.2 4.8c0 0.8 0.1 1.1 0.2 0.7 0.1-0.4 0.1-1 0-1.4-0.1-0.4-0.2 0-0.2 0.7zm6.4 0.8c0 1 0.1 1.4 0.2 0.9 0.1-0.5 0.1-1.3 0-1.8-0.1-0.5-0.2-0.1-0.2 0.9zm0.3 2.2c0 0.3 0.3 0.9 0.6 1.4 0.3 0.6 0.6 0.9 0.6 0.6 0-0.2-0.3-0.8-0.6-1.4-0.3-0.5-0.6-0.8-0.6-0.6zm1.3 4c0 0.9 0.1 1.2 0.2 0.7 0.1-0.5 0.1-1.2 0-1.6-0.1-0.4-0.2 0.1-0.2 0.9zm-6.3 2c0.4 1.5 0.6 1.8 0.6 0.8 0-0.4-0.2-1-0.4-1.4-0.3-0.4-0.4-0.2-0.2 0.6zm7.4 5.1c0 0.5 0.2 1.2 0.4 1.5 0.3 0.5 0.3 0.2 0.1-0.8-0.3-1.7-0.5-2-0.5-0.7zm-54.1 6.3c0.1 1.2 0.3 2.6 0.5 3 0.4 0.9 0.1-1.5-0.4-3.8-0.3-1-0.3-0.8-0.1 0.8zm49.3 0.4c0 0.4 0.2 1 0.4 1.4q0.3 0.8 0.3 0.2c0-0.3-0.1-0.9-0.3-1.4q-0.3-0.7-0.4-0.2zm4.4 3.3c0.2 1.7 0.2 1.7 0.3 0.4 0.1-0.8 0-1.5-0.2-1.7-0.2-0.2-0.2 0.4-0.1 1.3zm3.3 1.7c0 1.1 0.1 1.5 0.2 0.9 0.1-0.6 0.1-1.5 0-2-0.1-0.5-0.2 0-0.2 1.1zm-55.5 1c0.4 1.8 0.6 2.1 0.6 0.8 0-0.5-0.2-1.2-0.4-1.6-0.3-0.4-0.3-0.2-0.2 0.8zm47.8-0.6c-0.3 0.4-0.4 0.7-0.3 0.9 0.1 0.1 0.4-0.1 0.7-0.5 0.3-0.3 0.4-0.7 0.3-0.8-0.1-0.1-0.4 0.1-0.7 0.4zm8 2.1c0 0.2 0.3 1.2 0.8 2.2 0.4 0.9 0.8 1.5 0.8 1.3 0-0.3-0.4-1.3-0.8-2.2-0.4-1-0.8-1.6-0.8-1.3zm-18.8 2q-1.8 0.5-0.8 0.5c0.5 0 1.6-0.3 2.4-0.6 1.7-0.6 0.8-0.6-1.6 0.1zm-35.9 1.5c0 0.5 0.1 1.4 0.3 2 0.3 1.1 0.3 1.1 0.3 0.2 0-0.5-0.1-1.4-0.3-2-0.3-0.8-0.3-0.8-0.3-0.2zm30.1-0.2c-1 0.5 0 0.5 1.4 0 0.8-0.2 0.8-0.3 0.2-0.3-0.5 0-1.2 0.1-1.6 0.3zm11.3 0.3c0.5 0.1 1.3 0.1 1.8 0 0.5-0.1 0.1-0.2-0.9-0.2-1 0-1.4 0.1-0.9 0.2zm15 2.1c0 1 0.1 1.4 0.2 0.9 0.1-0.5 0.1-1.3 0-1.8-0.1-0.5-0.2-0.1-0.2 0.9zm-25.5-0.4c-1 0.5 0 0.5 1.4 0 0.8-0.2 0.8-0.3 0.2-0.3-0.5 0-1.2 0.1-1.6 0.3zm-12.6 0.6c-1 0.3-1.5 0.6-1 0.6 0.4 0 1.5-0.3 2.4-0.6 2.1-0.6 0.9-0.6-1.4 0zm4.4 1.2c-1.8 0.7-1.1 0.7 1.4 0 1.1-0.3 1.6-0.5 1-0.5-0.6 0-1.6 0.2-2.4 0.5zm27.5 0.8c0.3 2 0.5 2.3 0.5 0.8 0-0.6-0.2-1.4-0.4-1.8q-0.4-0.6-0.1 1zm-40.7-0.2l-1.8 0.3h1.6c0.9 0.1 1.9-0.1 2.4-0.3 0.9-0.4 0.3-0.4-2.2 0zm7 0.8c-1 0.5 0 0.5 1.4 0 0.8-0.2 0.8-0.3 0.2-0.3-0.5 0-1.2 0.1-1.6 0.3zm-14.7 3c0.3 2 0.5 2.3 0.5 0.8 0-0.6-0.2-1.4-0.4-1.8q-0.4-0.6-0.1 1zm53 2.4c0 1.8 0.1 2.5 0.2 1.5 0.1-0.9 0.1-2.4 0-3.2-0.1-0.8-0.2 0-0.2 1.7zm2.4 3.4c0 3.4 0.1 4.8 0.2 3.1 0.1-1.7 0.1-4.5 0-6.2-0.1-1.7-0.2-0.3-0.2 3.1zm-54.5 0c0 0.4 0.2 1 0.4 1.4q0.3 0.8 0.3 0.2c0-0.3-0.1-0.9-0.3-1.4q-0.3-0.7-0.4-0.2zm48.6 3.1c-0.1 0.5-0.2 1.1-0.1 1.2 0.1 0.1 0.3-0.3 0.5-0.9 0.1-0.6 0.1-1.1 0.1-1.2-0.1-0.1-0.3 0.3-0.5 0.9zm3.4 1.4c-0.1 1.3-0.1 2.1 0.1 2 0.2-0.2 0.3-1.2 0.2-2.3l-0.1-2zm1.1 5.6c-0.4 0.8-0.6 1.6-0.5 1.6 0.3 0 1.4-2.5 1.3-2.9-0.1-0.2-0.4 0.4-0.8 1.3zm-7.7 0.1l-1.2 1.3 1.3-1.2c1.2-1.1 1.5-1.4 1.2-1.4-0.1 0-0.7 0.5-1.3 1.3zm-41.3 3.3c0.3 1.2 2.4 4.5 3.2 4.9 0.7 0.5 0.7 0.3-0.3-0.8-0.6-0.7-1.5-2.1-2.1-2.9-0.5-0.9-0.9-1.5-0.8-1.2zm23.5 2.6c-1.4 0.2-1.4 0.2-0.2 0.3 0.6 0 1.5-0.1 1.8-0.3 0.6-0.5 0.4-0.5-1.6 0zm19.6 0.8l-1.4 1.2 1.5-1.1c1.3-0.9 1.7-1.3 1.4-1.3-0.1 0-0.8 0.5-1.5 1.2zm-27.5-0.2c1.3 0.1 3.2 0.1 4.4 0 1.1 0 0.1-0.1-2.3-0.1-2.4 0-3.4 0.1-2.1 0.1zm-9.5 3.5c0.6 0.6 1.4 1 1.6 1 0.2 0-0.3-0.4-1-0.9-1.8-1.3-2.2-1.3-0.6-0.1zm3.4 1.9c0.8 0.4 1.9 0.7 2.6 0.7 1.1 0 1.1 0-0.2-0.3-0.8-0.2-1.8-0.5-2.3-0.8-0.5-0.2-1-0.4-1.2-0.4-0.2 0 0.3 0.3 1.1 0.8zm11.1 1c0.5 0.1 1.3 0.1 1.8 0 0.5-0.1 0.1-0.1-0.9-0.1-1 0-1.4 0-0.9 0.1zm-4.8 0.4c0.5 0.1 1.3 0.1 1.8 0 0.5-0.1 0.1-0.1-0.9-0.1-1 0-1.4 0-0.9 0.1z"/>
		<path id="path4" fill-rule="evenodd" class="s1" d="m333.4 13c3.1 0.3 6.3 0.8 7.2 1.2 0.9 0.3 2 0.6 2.6 0.6 0.6 0 1.9 0.3 3 0.6 1 0.3 2.5 0.6 3.2 0.6 0.7 0 2.5 0.6 4 1.4 1.4 0.8 2.9 1.4 3.4 1.4 0.4 0 1.2 0.4 1.7 0.8 0.6 0.5 2.4 1.3 4 1.9 3.1 1.2 4.1 1.8 6.8 4.1 0.9 0.8 2.2 1.8 2.9 2.2 1.3 0.8 9.2 8.3 10.3 9.8 4.6 6.2 7.6 10.9 8.1 12.5 0.2 0.5 0.9 2.2 1.6 3.7 0.7 1.5 1.5 3.3 1.6 4 0.2 0.7 0.6 1.6 0.9 2.1 0.3 0.5 0.8 2.1 1 3.6 0.2 1.5 0.5 3.7 0.7 4.9 0.2 1.2 0.3 3.4 0.4 4.8 0 1.4 0.2 3.3 0.4 4.2 0.5 1.8-0.1 10.6-1 15.6-0.3 1.5-0.7 3.6-0.8 4.5-0.2 1-0.6 2.7-1 3.9-0.5 1.2-0.8 2.7-0.8 3.2 0 0.6-0.9 2.9-1.9 5.1-1.1 2.3-2.1 4.5-2.3 5-0.1 0.4-0.5 1-0.8 1.3-0.3 0.3-0.6 0.7-0.6 1 0 1.2-2.5 5.9-3.8 7.2-0.7 0.7-1.6 1.8-1.9 2.5-0.9 1.7-6.9 7.9-8.6 8.9-0.8 0.5-2 1.4-2.7 2-0.7 0.6-1.6 1.2-2.2 1.4-0.5 0.2-2.1 1.1-3.4 2-2.7 1.9-9.7 4.5-13.1 4.8-1.1 0.2-3 0.6-4.1 0.9-3 1-16.4 1-19.4 0-5.3-1.6-17-2.4-19.2-1.3-4.7 2.4-8.4 8.3-8.4 13.3 0 0.7-0.3 1.7-0.6 2.2-0.3 0.5-0.7 2.1-1 3.5-0.2 1.4-0.5 3.1-0.8 3.7-0.2 0.6-0.4 1.9-0.4 2.8 0 0.9-0.3 2.9-0.8 4.3-1.7 5.8-2 7.1-2 8.6 0 1.5-1 6.2-2.2 10.8-0.3 1.2-0.6 2.5-0.6 2.9 0 0.5-0.3 1.9-0.8 3.2-0.4 1.3-0.8 3.3-1 4.5-0.1 1.2-0.4 2.5-0.6 2.8-0.2 0.4-0.6 1.9-0.8 3.3-0.2 1.4-0.7 4-1.2 5.9-0.4 1.9-0.9 4.3-1.2 5.4-0.2 1.1-0.7 3.3-1.1 5-0.3 1.6-0.8 4-1.2 5.2-0.3 1.2-0.7 3-0.9 4-0.7 4.3-1.7 8.7-2.2 10.1-0.3 0.8-0.6 2.2-0.6 3 0 5.1-5.4 20.7-7.7 22.3-3.2 2.2-5.2 3.4-5.6 3.4-0.3 0-0.9 0.3-1.4 0.6-0.7 0.5-2.3 0.7-5.8 0.9-6 0.2-11.2-0.6-16.9-2.6-1.5-0.5-4-1.2-5.4-1.6-1.5-0.3-3.2-1-4-1.6-0.7-0.6-1.7-1.3-2-1.5-1-0.6-3.9-4.3-4.6-6.1-1.7-3.6-1-20.6 1-24.9 0.4-1 0.8-2.5 0.8-3.3 0-1.8 1.4-8 2.2-10.2 0.5-1.4 0.8-2.9 1.8-8.9 0.2-1.2 0.6-2.9 1-3.7 0.3-0.8 0.7-2.5 0.8-3.8 0.2-1.3 0.7-3.9 1.3-5.9 0.5-2 1.1-4.5 1.4-5.6 1.1-5.9 1.5-7.9 1.5-8.9 0-0.6 0.4-1.8 0.8-2.7 0.4-0.9 0.8-2.2 0.8-2.9 0-0.7 0.3-2.3 0.6-3.6 0.3-1.2 0.6-3 0.6-3.8 0-0.9 0.3-2.4 0.8-3.4 0.7-1.9 1.7-6.2 2.2-9.7 0.2-1 0.7-3.3 1.3-5.2 0.5-1.9 1.2-5 1.5-7 0.3-2 0.8-4.8 1.1-6.2 0.4-1.4 0.8-3.5 1.1-4.6 0.5-2.7 2.3-10.4 3-12.8 0.3-1.1 0.8-3.6 1.2-5.6 0.3-2 1-4.9 1.4-6.4 0.4-1.5 1.1-4.9 1.6-7.5 0.5-2.6 1.2-5.6 1.6-6.8 0.4-1.1 1-3.9 1.4-6.1 0.4-2.2 1-5.2 1.4-6.6 0.4-1.4 1-4.1 1.2-5.9 0.2-1.9 0.8-4.5 1.2-5.8 0.4-1.4 1.2-4.6 1.6-7.1 0.9-4.7 1.2-6.1 4-15 1.8-5.8 3.5-8.7 4.1-7 0.2 0.5 0.1 1.1-0.1 1.5-0.4 0.6-0.4 0.5-0.2-0.2 0.4-1.5-0.5-1-1.4 0.7-0.8 1.6-2.4 6.2-2.4 7 0 0.2 0.5-0.1 1.1-0.6 0.8-0.7 0.9-0.8 0.4-0.2-0.4 0.5-0.7 1.4-0.7 2.1 0 1.1-0.2 1.8-1.2 4.3-0.2 0.4-0.5 1.6-0.8 2.6l-0.4 1.8 0.2-2c0.2-1.1 0.4-2.2 0.6-2.4 0.2-0.2 0.4-0.8 0.4-1.3 0-0.4 0.2-1 0.4-1.1 0.5-0.3 0.5-2.6 0-2.6-0.2 0-0.5 0.5-0.6 1.1-0.1 0.6-0.7 2.5-1.2 4.3-0.5 1.8-1.2 4.6-1.4 6.4-0.3 1.8-0.9 4.6-1.4 6.4-1.4 4.5-1.8 6.6-1.8 8.4 0 0.9-0.3 2.7-0.8 3.9-0.7 2-2 8.2-2 9.4 0 0.9 0.8 0.5 0.8-0.4 0.1-0.7 0.1-0.8 0.3-0.2 0.1 0.5 0 1-0.3 1.2-0.2 0.3-0.4 1.1-0.4 1.9 0 0.8-0.2 1.7-0.4 2-0.3 0.4-0.3 0.1-0.2-1 0.2-1.6 0.2-1.6-0.3-0.6-1.1 1.8-2.9 10.9-2.1 10.7 0.4-0.2 0.9-1.9 1.2-4.3 0.2-1.6 0.2-1.6 0.6-1.6 0.2 0 0.2 0.6-0.1 1.5-0.2 0.8-0.4 1.9-0.6 2.5-0.1 0.5-0.3 1.3-0.4 1.6-0.1 0.3-0.3 1.2-0.3 2-0.2 1.9-0.6 2-0.6 0.2-0.1-2.3-1.3 1.6-2.4 7.6-0.5 2.4-1.1 5.3-1.4 6.4-2.1 7.8-3 12.9-2 11.6 0.3-0.5 0.6-1.3 0.6-1.9 0-0.6 0.2-1.2 0.4-1.3 0.2-0.1 0.4-1 0.4-2 0-1 0.2-1.9 0.4-2 0.2-0.1 0.4-0.9 0.4-1.8 0-0.9 0.2-1.7 0.4-1.8 0.2-0.1 0.4-0.6 0.4-1 0-0.4 0.2-0.9 0.4-1q0.6-0.4-0.4 2c-0.3 0.8-0.5 1.7-1.1 5.6-0.1 0.9-0.3 1.8-0.5 2-0.2 0.2-0.4 0.7-0.4 1.2 0 1.1-1.1 3.3-1.8 3.7-0.8 0.5-1.3 3.1-0.5 2.8 0.6-0.2 0.6 4 0 4.5-0.1 0.1-0.1-0.7 0-1.7 0.3-2.7-0.3-2.3-1.3 0.8-0.8 2.7-1.1 8-0.4 6.3 0.3-0.8 0.3-0.8 0.4 0.1 0 0.5-0.2 1-0.4 1.1-0.2 0.1-0.4 0.6-0.4 1 0 0.5-0.2 0.7-0.4 0.6-0.2-0.1-0.4-0.1-0.4 0.1 0 0.3-0.1 0.8-0.3 1.1-0.2 0.6-0.1 0.7 0.4 0.5 0.6-0.2 0.7-0.2 0.3 0.5-0.2 0.4-0.5 2.2-0.7 3.9-0.1 1.7-0.5 3.6-0.8 4.3-0.4 0.7-0.7 2.2-0.8 3.4-0.1 1.2-0.4 2.6-0.8 3.2-0.3 0.6-0.4 0.7-0.3 0.2 0.4-1 0.9-4.7 0.8-4.9-0.4-0.5-1 0.5-1 1.7 0 0.7-0.4 2.1-0.8 3.1-0.4 0.9-0.8 2.4-0.8 3.3 0 0.9-0.3 2.6-0.6 3.6-0.6 2.1-0.8 5.2-0.3 4.8 0.3-0.1 0.2 1.3-0.7 6.2-0.3 1.2-0.5 2.9-0.7 3.8-0.1 0.9-0.3 1.7-0.5 1.9-0.3 0.4 0-2.9 0.4-3.9 0.2-0.4 0.4-1.5 0.5-2.4 0.2-0.9 0.4-2.1 0.5-2.8 0.3-1.1 0.3-1.2-0.4-0.5-0.7 0.6-1.2 2.9-2.2 9.7-0.2 1.5-0.6 3.3-0.9 3.8-0.4 1-1.8 6.4-2.2 8.7-0.1 0.8 0 1.3 0.3 1.3 0.2 0 0.4-0.7 0.4-1.6 0-0.8 0.3-1.7 0.6-2 0.7-0.5 0.8 0 0.2 0.6-0.2 0.2-0.4 1.5-0.5 2.8 0 1.3-0.2 2.6-0.4 2.8-0.4 0.6-1.9 8.2-2.2 11-0.1 1.2-0.3 2.3-0.4 2.5-0.4 0.3 0.1-4 0.6-6.5 0.2-0.9 0.3-2 0.2-2.2-0.1-0.3 0-0.6 0.3-0.8 0.2-0.1 0.4-0.7 0.4-1.3 0-0.6 0.3-1.6 0.6-2.2 0.7-1.3 0.8-1.9 0.3-1.9-0.5 0-2.1 4.1-2.1 5.4 0 0.7-0.3 2.1-0.6 3-0.3 0.9-0.6 2.4-0.6 3.3 0 0.8-0.3 2.2-0.6 3-0.9 2.2-2.2 7.6-2.2 9.5 0 0.9-0.3 2.3-0.6 3.2-1.8 4.7-3.4 17-2.1 16.5q0.5-0.2 0.5 1.1c0 0.8-0.1 1.3-0.3 1.2-0.6-0.5-0.3 5.2 0.5 6.8 0.8 2 3.4 5.4 4.3 6 0.4 0.2 1.4 0.9 2.2 1.5 1 0.7 2.3 1.3 3.6 1.5 1.2 0.2 3.4 0.8 4.9 1.4 1.5 0.6 3.7 1.2 4.8 1.4 1.1 0.1 2.4 0.5 2.9 0.7 1.3 0.8 9.4 1.1 12 0.5 9.5-2.1 12.4-5.5 15.7-18.4 0.3-1 0.7-2.3 0.9-3 0.2-0.7 0.5-2.6 0.7-4.2 0.2-1.7 0.6-3.6 1-4.3 0.3-0.7 0.6-1.8 0.6-2.4 0-0.6 0.3-2 0.6-3.1 0.3-1.1 0.6-3 0.8-4.2 0.1-1.2 0.5-2.6 0.8-3.2 0.3-0.5 0.6-2 0.7-3.2 0.2-1.3 0.6-3 0.9-4 0.3-0.9 0.6-2.3 0.6-3 0-0.8 0.2-1.9 0.5-2.5 0.5-1.4 1.9-7.6 2.3-10.6 0.2-1.3 0.5-2.5 0.7-2.8 0.2-0.3 0.6-1.8 0.8-3.3 0.3-1.5 0.6-3.5 0.8-4.4 0.3-0.9 0.7-2.4 0.9-3.4 0.3-1 0.6-2.7 0.9-3.8 0.2-1.1 0.6-3 1-4.2 0.3-1.2 0.7-3.4 0.8-4.8 0.1-1.4 0.4-2.9 0.6-3.3 0.2-0.4 0.5-1.6 0.7-2.6 0.2-1.1 0.6-2.6 0.9-3.5 0.4-0.9 0.7-2.6 0.7-3.9 0-1.2 0.3-2.8 0.6-3.6 0.3-0.8 0.6-2 0.6-2.7 0-0.7 0.4-2.1 0.8-3.2 0.6-1.3 0.8-2.5 0.7-3.8l-0.1-2-0.7 1.2c-0.4 0.7-0.7 1.1-0.7 0.9 0-0.2 0.4-1.2 1-2.1 0.6-1 1-2.4 1-3 0-0.6 0.1-1.2 0.3-1.3 0.2-0.1 0.2 0.5 0.2 1.3-0.1 0.9-0.3 1.7-0.5 1.8-0.5 0.3-0.5 1 0 1 0.2 0 0.6-0.7 0.8-1.6 0.8-3 4.3-7.1 7-8.2 3.1-1.3 13.7-0.8 19 0.9 3.1 1 17.4 1 21 0 1.3-0.3 3.6-0.8 5-1.1 3.6-0.7 9.3-2.9 11.1-4.4 0.9-0.7 2.2-1.4 3-1.7 0.7-0.2 1.9-1 2.7-1.7 0.8-0.7 2-1.6 2.6-1.9 1.5-0.8 7.2-6.9 8.7-9.4 0.6-0.9 1.3-1.7 1.5-1.7 0.5 0 2.4-3.2 3.2-5.5 0.5-1.2 1.1-2.5 1.4-2.9 0.3-0.3 0.9-1.5 1.3-2.6 0.5-1.1 1.4-3.1 2.1-4.5 0.7-1.4 1.4-3.5 1.6-4.7 0.2-1.2 0.6-3 1-3.9 2.9-8.7 3-35.2 0.1-39.7-0.3-0.4-1-2-1.5-3.4-0.5-1.4-1.1-3-1.4-3.6-0.3-0.5-0.9-1.9-1.4-3-2.5-5.9-12.8-18.4-18.1-22-1.2-0.7-2.5-1.8-3.1-2.4-0.5-0.5-1.1-1-1.3-1-0.3 0-0.8-0.4-1.3-0.8-0.5-0.5-2.3-1.3-3.9-2-1.7-0.6-3.6-1.5-4.2-1.9-0.7-0.5-1.5-0.9-1.9-0.9-0.3 0-1.7-0.5-3-1.2-1.6-0.8-4-1.5-6.7-2-2.4-0.4-5.2-1-6.3-1.4-2-0.6-10.5-1.6-12.8-1.5-8.6 0.3-16.5 1.3-16 2.1 0.1 0.2-0.2 0.6-0.7 0.8-0.8 0.5-0.8 0.5-0.4-0.1 0.8-1-0.8-0.9-4.1 0.1-2.5 0.8-3.6 1.9-1.6 1.5 0.5-0.1 0.9 0 0.8 0.2-0.2 0.1-0.7 0.3-1.3 0.3-0.5 0-1.4 0.4-2 0.8-0.5 0.4-1.3 0.8-1.7 0.8-0.4 0-1.4 0.4-2.2 1-1.9 1.3-2.4 1.3-0.6 0 0.8-0.6 2.1-1.2 2.9-1.4 1.4-0.4 2.2-1 1.8-1.4-0.3-0.4-2.9 0.8-5.3 2.4-2 1.3-2.3 1.6-1.6 1.8 0.6 0.3 0.7 0.4 0.1 0.4-0.3 0-0.8 0.3-1.1 0.6-0.3 0.3-0.7 0.6-0.9 0.6-0.2 0-0.1-0.3 0.3-0.6 0.7-0.7 0.8-1 0.3-1-0.3 0-1.6 0.9-7.6 5.3-1.4 1.1-3.1 3.4-2.7 3.8 0.1 0.1 1.5-1 3.1-2.6 1.6-1.6 3.1-2.9 3.4-2.9 0.3 0 0.8-0.5 1.1-1 0.4-0.6 0.9-1 1.1-1 0.3 0-0.1 0.5-0.7 1.2-0.6 0.7-1.3 1.2-1.6 1.2-1 0-10.2 10.1-10.2 11.1 0 0.2-0.4 0.7-0.8 1.1-0.9 0.8-2 2.8-2 3.6 0 0.3-0.4 0.8-0.8 1.2-0.4 0.4-0.8 1-0.8 1.3 0 0.3-0.1 0.5-0.2 0.5-0.1 0-0.4 0.1-0.7 0.2-2.1 0.8 2.7-8 6.6-12.2 0.6-0.5 1.5-1.7 2-2.6 1.7-2.8 3.2-3.9 13.1-10.4 2.5-1.7 6.6-3.5 9-4 0.7-0.2 1.4-0.4 1.6-0.6 0.2-0.2 1.3-0.4 2.5-0.6 1.1-0.1 2.8-0.5 3.7-0.8 0.9-0.3 3.1-0.6 4.8-0.6 1.6-0.1 4.1-0.2 5.4-0.4 3.6-0.4 3.9-0.4 10 0.2zm-8.7 1c2.5 0.1 2.2 0.3-0.8 0.5-1 0-1.7 0-1.6-0.2 0.1-0.2 1.2-0.3 2.4-0.3zm-5.1 0.8c2.7 0.1 2.2 0.3-0.9 0.5-1.3 0.1-2.1 0-1.8-0.2 0.3-0.1 1.5-0.3 2.7-0.3zm12.9 0.1c1.4-0.1 2.7 0 2.8 0.2 0.2 0.3-2.9 0.2-4.7-0.1-0.4 0 0.4-0.1 1.9-0.1zm6.4 1c0.1 0.2-0.5 0.2-1.3 0.2-0.9-0.1-1.6-0.3-1.6-0.3 0-0.3 2.8-0.2 2.9 0.1zm5 0.7c0.8 0 1.1 0.1 0.8 0.3-0.6 0.4-1.8 0.4-2 0-0.1-0.2 0.4-0.3 1.2-0.3zm1.9-0.2c0.4 0 3 2 2.6 2-0.1 0-0.9-0.5-1.6-1-0.7-0.5-1.2-1-1-1zm-9.6 2.8c1.3 0.2 3.6 0.5 5 0.7 3.3 0.5 7.2 1.5 8.2 2 0.5 0.2 2.2 0.9 4 1.5 1.8 0.6 3.4 1.2 3.6 1.4 0.2 0.2 2 1.1 3.9 2.1 8.8 4.7 15.3 11.1 22.4 22.1 1.5 2.3 4.6 8.9 5.1 10.8 0.2 0.9 0.7 3 1.2 4.8 1.6 6.2 2.4 16 1.6 20.6-0.2 1.2-0.3-0.3-0.3-4.6 0-9.6-1.7-18.5-4.6-24.6-0.6-1.2-1.2-2.7-1.4-3.2-0.6-1.5-6.5-10.2-9-13.2-5.3-6.4-15.5-13.3-22.9-15.6-0.9-0.3-2.5-0.8-3.6-1.2-3-1.1-6.9-2.1-9.8-2.4-1.4-0.2-3.8-0.6-5.2-0.8-3.9-0.8-17.7-0.6-19.9 0.2-1 0.3-2.2 0.6-2.8 0.6-1 0-5.7 1.6-7.5 2.6-0.7 0.3-1.3 0.6-1.5 0.6-0.8 0-9.5 6.2-11.7 8.2-5.5 5.3-8.8 10.5-13.6 21.2-1.1 2.4-3.3 10.5-3.6 12.7-0.1 1.3-0.4 2.7-0.6 3.1-0.2 0.4-0.6 2.7-0.8 5.1-0.2 2.5-0.6 5.4-0.8 6.5-0.6 2.9-0.5 5.5 0.2 8.5 0.3 1.4 0.7 3.8 0.8 5.5 0.3 2.9 1.5 7.4 2.2 8.2 0.2 0.2 0.4 0.6 0.4 0.9 0 2.4 6.8 13.2 10.8 17.3 2.5 2.4 8.8 7.6 9.4 7.6 0.2 0 1.3 0.6 2.5 1.4 1.9 1.3 3.4 2 7.9 4 2.6 1.1 9.7 3.3 11.5 3.6 1.1 0.1 2.5 0.5 3.2 0.8l1.3 0.6-1.4-0.2c-3.6-0.4-10.3-2.5-15.4-4.6-3.8-1.6-5.9-2.7-7.3-3.6-1-0.7-1.9-1.2-2-1.2-1 0-9.8-7.5-12.2-10.3-3.5-4.1-8.7-12.8-8.7-14.5 0-0.4-0.2-0.8-0.4-1-0.7-0.8-2-5.5-2.4-8.7-0.2-1.8-0.6-4.2-0.8-5.3-0.5-2.6-0.5-8.1 0-11.6 0.3-1.5 0.5-4.1 0.7-5.6 0.1-1.5 0.4-3.6 0.7-4.5 0.3-1 0.6-2.3 0.6-3 0-0.7 0.3-2.2 0.7-3.5 0.5-1.2 1.2-3.6 1.7-5.2 3.7-11.9 11.8-23.3 21.1-29.6 3.5-2.3 4.9-3.1 5.8-3.4 0.5-0.2 1.2-0.5 1.5-0.8 0.7-0.6 3.6-1.7 6.1-2.2 0.9-0.2 2.6-0.6 3.7-0.9 2.2-0.7 17.8-0.7 22.4 0.1zm13.4-0.7c1-0.1 3.6 0.9 3.6 1.3 0 0.2-1.3-0.2-1.8-0.6-0.2-0.2-0.9-0.4-1.6-0.5-1.1-0.2-1.1-0.2-0.2-0.2zm13.4 5.8c0.8 0.3 1.3 0.7 1.2 0.8-0.2 0.2-2.6-1-2.6-1.3 0-0.1 0.6 0.1 1.4 0.5zm2.4 1.4c0.5 0.4 1 0.7 1.2 0.7 0.2 0 0.9 0.4 1.4 0.8 1 0.8 0.9 0.8-0.7 0-0.9-0.5-1.9-1.2-2.2-1.5-0.4-0.6-0.4-0.6 0.3 0zm7.6 5.7c2.1 1.7 11 11 11 11.5 0 0.2-1.4-1.2-3-3.1-1.7-1.8-4.6-4.8-6.5-6.6-1.9-1.8-2.6-2.6-1.5-1.8zm-96.5 9.4c-0.5 0-1.4 2-1.1 2.3 0.3 0.4 1.4-0.8 1.4-1.5 0-0.5-0.2-0.8-0.3-0.8zm108.2 3.4c0.5 0.4 0.9 0.9 0.9 1.2 0 0.3 0.4 0.8 0.8 1.2 0.4 0.4 0.8 0.9 0.8 1.1 0 0.2-0.4-0.2-1-0.8-0.6-0.7-1-1.4-1-1.5 0-0.2-0.3-0.7-0.7-1.2-0.7-0.8-0.7-0.8 0.2 0zm-112 6.7c0.1 0.4-0.1 1-0.3 1.4-0.4 0.7-0.4 0.7-0.2 0 0.1-0.4 0.2-1.1 0.2-1.4 0.1-0.6 0.1-0.6 0.3 0zm117.4 2.9c0.7 0.9 1.1 3.1 0.6 2.8-0.1-0.2-0.3-0.7-0.3-1.2 0-0.5-0.2-1.1-0.4-1.2-0.2-0.1-0.4-0.5-0.4-0.7 0-0.3 0.2-0.1 0.5 0.3zm2.3 7.4c0.2 0.3 0.4 0.9 0.4 1.4 0 1-0.2 0.7-0.6-0.8-0.2-0.9-0.1-1 0.2-0.6zm0.9 3.2c0.2 0.1 0.3 0.8 0.2 1.5-0.1 1-0.1 1-0.3-0.4-0.2-0.9-0.1-1.3 0.1-1.1zm-81.3 6.3c3.6 5.6-0.6 13.3-7.2 13.3-9.5 0-11.6-13.7-2.6-16.7 3.5-1.1 7.9 0.4 9.8 3.4zm82.1-3.2c0.3 0.4 0.6 6.2 0.3 5.8-0.1-0.1-0.3-1.5-0.4-3.1-0.1-1.6-0.1-2.8 0.1-2.7zm-95 2.5c-6.5 7.1 2.8 17.5 10.5 11.8 4.1-3 3.9-10.5-0.3-13-3-1.9-7.9-1.4-10.2 1.2zm-31.1 0.1c-0.1 1.4-0.2 1.5-0.3 0.6-0.1-0.7-0.1-1.4 0.1-1.7q0.5-1.5 0.2 1.1zm-0.9 3.6c-0.5 2.4-0.7 2.8-0.4 0.7 0.1-1 0.3-1.9 0.4-2.1q0.6-1 0 1.4zm113.7 10.3c-0.2 0.8-0.6 2.5-0.8 3.8-0.2 1.3-0.7 3.3-1 4.4-0.3 1.1-0.9 3.8-1.4 6-0.5 2.2-1.1 4.9-1.4 6-0.3 1.2-0.6 2.6-0.6 3.1 0 7.1-7 12.1-11.2 8.1-2.8-2.6-3-4.7-1.2-12.1 1.7-7.4 2.7-11.7 3-13.3 1.5-8.7 3.3-12.3 6.5-13.4 4.6-1.7 9.4 2.8 8.1 7.4zm-114.6-7.8l0.1 1.7c0.1 0.9 0 2-0.3 2.5-0.2 0.4-0.3 1-0.2 1.3 0.2 0.4 0 1.2-0.4 2-0.3 0.7-0.8 2.1-1 3.1l-0.4 1.8 0.2-2c0.1-1 0.4-2.2 0.7-2.5 0.2-0.3 0.5-1.2 0.6-2 0.1-0.8 0.3-2.5 0.4-3.7zm101.3 11c-1.3 5.7-2.2 9.9-3.7 16.4-1.6 6.6-1.4 8.7 0.8 11.1 1.2 1.4 2.5 1.8 4.6 1.5 3.6-0.6 4.5-2.3 7-14.2 0.6-2.7 1.5-6.4 1.9-8.2 2.8-11.8 2.8-13.7-0.1-15.9-4.9-3.7-8.4-0.7-10.5 9.3zm23.1-0.2l0.1 1.5c0.1 0.8 0 2-0.3 2.8l-0.4 1.3 0.2-1.4c0.1-0.7 0.3-2 0.3-2.7zm-126.9 4.3c-0.2 1-0.6 2.2-1 2.6-0.7 0.6-0.7 0.6-0.1-0.3 0.4-0.6 0.7-1.5 0.7-2.1 0-0.6 0.1-1.4 0.2-1.7 0.4-1.1 0.5-0.6 0.2 1.5zm130.9-2.1c0.3 0-0.2 2.9-0.6 3.3-0.2 0.2-0.2 0-0.1-0.4 0-0.4 0.2-1.2 0.3-1.8 0.2-0.7 0.3-1.1 0.4-1.1zm-1.1 4c0.3 0-0.1 3.9-0.4 4.2-0.1 0.1-0.1-0.3-0.1-0.9 0.1-0.6 0.2-1.6 0.2-2.2 0-0.7 0.2-1.1 0.3-1.1zm-4 2.5c0.4 1.2-3.9 14.2-5.4 16.5-0.6 0.9-0.6 0.8 1-3.4 0.6-1.5 1.2-3.2 1.4-3.8 0.2-0.7 0.5-1.6 0.7-2 0.6-1.4 2.1-6.2 2.1-7.2 0-0.7 0.1-0.7 0.2-0.1zm-121.6 4.5c0.1 1 0.4 1.9 0.6 2 0.2 0.1 0.4 0.5 0.4 0.8 0 2 5.3 12.5 8 15.8 7.2 8.9 16.2 15.9 25.5 19.9 2.5 1.1 2.5 1.4 0.4 3.5-3.6 3.5-7.6 11.3-7.5 15 0 1.1-1.4 8.7-2 11.2-0.8 3-2.2 9.1-2.5 11-0.3 1.9-1.3 6.5-1.9 9.4-0.8 3.1-1.7 7.5-2.1 10-0.2 1.4-0.6 2.9-0.7 3.3-0.4 0.9-1.4 5.3-2.1 9-0.2 1.3-0.6 2.9-0.8 3.6-0.2 0.7-0.7 2.7-1 4.4-0.3 1.7-0.7 3.9-0.9 4.9-0.2 0.9-0.6 2.6-0.8 3.5-0.5 1.8-0.8 3.2-2.2 10-0.8 3.9-1.8 6.4-2.7 6.9-0.6 0.3-6.2-0.6-9.7-1.6-0.7-0.2-3-0.7-5-1.2-12.6-2.7-15.2-3.3-17.9-4.2-1.6-0.6-3.2-1-3.5-1-0.3 0-1-0.4-1.6-0.9l-1.1-0.9 0.3-3.8c0.1-2.1 0.5-4.5 0.8-5.2 0.3-0.8 0.7-2.3 0.9-3.4 0.2-1.1 0.7-3 1-4.2 0.4-1.2 0.7-2.9 0.7-3.7 0-0.9 0.2-2.2 0.6-3 0.3-0.8 0.6-1.9 0.6-2.4 0-0.6 0.2-1.4 0.4-1.8 0.3-0.5 0.8-2.8 1.2-5.1 0.5-2.3 1-5.1 1.1-6 0.2-1 0.7-2.7 1-3.9 0.4-1.1 0.6-2.5 0.6-3.1 0-0.7 0.4-2.4 0.8-3.9 1.2-3.9 1.6-5.9 2-8.8 0.3-1.4 0.6-3.1 0.8-3.7 0.3-0.6 0.5-1.7 0.5-2.4 0-0.7 0.3-2.4 0.8-3.7 0.4-1.2 0.8-2.9 0.8-3.7 0-0.8 0.3-2.5 0.7-3.8 1.1-3.4 1.6-5.5 2.3-9.6 0.3-2 0.8-3.9 1-4.3 0.2-0.4 0.4-1.3 0.4-2.1 0-0.8 0.2-2 0.6-2.6 0.3-0.7 0.7-2.3 0.9-3.7 0.2-1.4 0.9-4.7 1.5-7.3 0.6-2.7 1.2-5.7 1.4-6.6 0.1-1 0.6-2.6 0.9-3.6 0.4-1 0.7-2.5 0.7-3.3 0-0.9 0.2-2.2 0.6-3 0.3-0.8 0.6-1.9 0.6-2.5 0-0.6 0.2-2.1 0.6-3.3 0.3-1.2 0.8-3.1 0.9-4.2 0.2-1.2 0.8-2.8 1.3-3.5 1-1.8 1.4-1.6 1.8 0.8zm0.2 2.7c-1.2-3.9-2-3.8-2.6 0.4-0.2 1-0.5 2.5-0.8 3.2-0.3 0.7-0.7 2.3-0.8 3.6-0.1 1.3-0.5 2.9-0.8 3.7-0.4 0.8-0.6 2.1-0.6 2.9 0 0.9-0.4 2.7-0.8 4-0.5 1.4-0.8 3-0.8 3.5 0 0.4-0.3 1.6-0.6 2.6-0.4 0.9-0.6 2.2-0.6 2.9 0 0.7-0.4 2.5-0.8 4.1-0.5 1.5-0.8 3.2-0.8 3.9 0 0.6-0.4 2.1-0.8 3.3-0.5 1.3-0.8 2.8-0.8 3.4 0 0.6-0.3 1.7-0.6 2.5-0.4 0.8-0.6 2-0.6 2.7 0 1.3-1.3 7-2.2 9.9-0.3 1-0.7 2.9-0.9 4.3-0.1 1.3-0.5 3-0.8 3.7-0.3 0.7-0.5 1.8-0.5 2.4 0 0.5-0.4 2.5-0.8 4.4-0.5 1.9-1.2 5.2-1.7 7.5-0.5 2.2-1.1 4.4-1.4 5-0.3 0.5-0.5 1.8-0.5 2.9 0 1-0.4 2.9-0.8 4.1-0.5 1.3-0.8 2.9-0.8 3.6 0 0.6-0.3 2.1-0.6 3.2-0.3 1.1-0.7 2.9-0.8 3.9-0.2 1.1-0.8 3.8-1.4 5.9-0.7 2-1.4 5.2-1.6 7-0.4 3.2-0.8 5.1-2 8.7-0.8 2.9-1.1 8.4-0.4 8.9 1 0.8 8.1 2.9 13.4 4 1.5 0.3 4.4 0.9 6.4 1.4 1.9 0.4 4.8 1 6.3 1.3 1.4 0.3 3.1 0.7 3.8 1 1.4 0.5 7.2 1.4 7.6 1.1 0.5-0.3 1.7-4 2.3-7.3 1.2-6.1 1.7-8.5 2.1-9.2 0.2-0.4 0.6-1.9 0.8-3.3 0.2-1.5 0.8-4.4 1.3-6.5 0.4-2 1-4.9 1.2-6.3 0.2-1.4 0.7-3.2 1-4 0.3-0.7 0.6-1.8 0.6-2.4 0-0.6 0.3-2.2 0.8-3.6 0.4-1.4 0.8-3.1 0.8-3.9 0-0.7 0.2-1.8 0.4-2.4 0.4-1.1 1-3.7 2.1-9.5 0.3-1.6 0.8-3.7 1-4.6 1.5-6.4 2.1-8.9 3.3-14.8 0.9-4.7 1.6-8.7 1.6-9.5 0-3 3.4-10.1 6.6-13.6 2.7-3.1 2.9-2.5-1.7-4.8-12.4-5.9-22.3-15.3-28.3-26.7-0.6-1-1-2.2-1-2.6 0-0.4-0.3-1.1-0.7-1.6-0.3-0.5-1.1-2.4-1.7-4.3zm123.7-0.5c0.3 0-0.2 1.6-0.6 1.8-0.2 0.1-0.4 0.6-0.4 1.1 0 0.5-0.1 0.6-0.2 0.3-0.1-0.2 0.1-1.1 0.4-1.9 0.4-0.7 0.8-1.3 0.8-1.3zm-1.6 5c-0.2 0.5-0.4 1.1-0.6 1.2-0.2 0.1-0.2-0.1-0.1-0.4 0.1-0.4 0.2-0.9 0.3-1.2 0.3-1 0.6-0.7 0.4 0.4zm-1.1 2.3c0.1 0.4 0 1-0.4 1.4-0.3 0.3-0.6 0.9-0.8 1.3-0.1 0.5-0.2 0.4-0.2-0.1 0-0.4 0.2-0.9 0.6-1.1 0.3-0.3 0.6-0.9 0.6-1.4 0-0.7 0.1-0.7 0.2-0.1zm-131.5 5.1c-0.2 0.7-0.2 1.7-0.1 2.2 0.2 0.6 0.1 1.4-0.1 1.9-0.3 0.5-0.6 1.3-0.9 1.8-0.4 1-0.4 1-0.2-0.2 0.2-0.6 0.4-1.3 0.6-1.5 0.5-0.5 0.5-2.1 0-2.4-0.3-0.2-0.3-0.5-0.1-1 0.2-0.3 0.5-1 0.6-1.4 0.4-1.2 0.6-0.7 0.2 0.6zm124.8 0.9c-2.7 5.1-11.1 14.6-14.5 16.3-0.5 0.3 0-0.2 1-1.1 4-3.3 8.8-8.6 11.2-12.3 2.3-3.7 3.4-4.9 2.3-2.9zm4.2-0.5c1 0-3.1 7.5-4.8 8.7-0.7 0.6-0.7 0.5 0.1-0.4 1.7-2.1 3.7-5.7 4.3-7.6 0.1-0.4 0.3-0.7 0.4-0.7zm-292.1 10.6c5.3 1.6 6.4 2.1 9 4 1.3 0.9 2.6 1.7 2.8 1.7 1.3 0 9.5 6.8 10.4 8.6 0.4 0.6 1.4 2.1 2.4 3.3 3.4 4.2 6 8.5 6.4 10.3 0.3 1.8-0.4 1.7-1.8-0.2-0.9-1.1-0.7-1.6 0.3-0.7 0.4 0.4 0.5 0.4 0.5 0 0-0.9-0.9-2-1.4-1.8-0.3 0.1-0.6-0.1-0.8-0.4q-0.2-0.6 0.4-0.4 0.6 0.3 0.3-0.4c-0.1-0.4-0.4-0.7-0.7-0.7-0.3 0-0.9-0.4-1.5-1-0.7-0.8-0.8-1-0.3-0.8 0.5 0.1 0.7 0 0.5-0.4-0.1-0.3-0.5-0.5-0.8-0.4q-0.7 0.3-0.4-0.4c0.1-0.3 0.1-0.5-0.1-0.4-0.2 0.2-0.7-0.2-1.1-0.8-0.4-0.6-1-1.6-1.5-2-0.4-0.5-0.8-1.4-0.9-2-0.1-1.2-1.7-3-3.9-4.4-2.2-1.5-2.1-1 0.7 2 1.4 1.4 2.4 2.6 2.2 2.6-0.1 0-1.3-1.1-2.7-2.6-1.3-1.4-2.6-2.5-2.8-2.5-0.2 0-0.6-0.3-0.9-0.7-0.6-0.7-2.9-2.3-5.1-3.5-1.7-0.9-2.8-1.8-2.2-1.8 0.3 0 0.7 0.2 1 0.5 0.2 0.4 0.7 0.6 1 0.6 0.3 0 0.6 0.3 0.7 0.5q0.2 0.6 0.2 0.1c0.1-0.9-5.4-4.2-6.8-4.2-0.3 0-0.1 0.5 0.3 1 0.8 0.8 0.8 0.8-0.1 0.1-0.4-0.3-1.3-0.6-1.9-0.6-0.6 0-1.4-0.2-1.8-0.5-0.5-0.2-1.2-0.5-1.6-0.8-0.5-0.2-1.2-0.3-1.6-0.3-0.9 0-3.7-1.2-2.8-1.3 4.6-0.3-10.6-2.2-16.8-2-4.6 0.1-15.2 1.9-16.4 2.8-0.5 0.3 1 0.9 1.8 0.7 0.5-0.1 0.8 0 0.7 0.2-0.3 0.5-1.9 0.4-2.5-0.1-0.3-0.4-0.7-0.3-1.5 0.5-1 0.9-1 0.9-0.5 0.1 1-1.7-2.3-1.4-6.2 0.6-1.3 0.7-2.6 1.2-3 1.2-0.4 0-1.3 0.5-2.2 1.1-0.8 0.5-2.4 1.3-3.6 1.7-2.6 0.9-5.6 2.6-7.2 4.3-0.7 0.7-1.8 1.5-2.5 1.9-1.3 0.7-9.2 8.3-10.8 10.4-2.8 3.8-7.2 10.7-7.9 12.4-0.4 1.1-0.9 2.3-1.1 2.5-0.2 0.2-0.8 1.7-1.3 3.2-0.5 1.5-1.3 3.3-1.6 3.9-0.4 0.7-0.6 1.9-0.6 2.6 0 0.8-0.2 2.1-0.4 2.9-2.1 7.5-1.5 24.1 1.2 33.6 0.4 1.5 1 3.7 1.2 4.8 0.2 1.2 1.1 3.5 1.9 5.1 0.9 1.7 1.7 3.5 1.8 4 0.2 0.5 0.7 1.5 1.2 2.3 0.5 0.7 1.2 2.1 1.4 3.1 0.3 0.9 1.2 2.6 2.1 3.7 0.8 1.1 2 2.6 2.5 3.4 1.8 2.6 7.1 8.1 8.8 9.1 0.9 0.5 2.2 1.5 2.9 2.1 0.6 0.6 1.6 1.2 2.2 1.4 0.5 0.1 1.9 1 3.2 1.8 2.6 1.8 9.1 4.2 12.7 4.8 1.5 0.2 3.6 0.6 4.8 0.9 3.8 1.1 14.4 0.9 19.6-0.3 8.1-1.9 15.8-2.3 18.7-1 4.2 1.8 8.6 8.7 8.6 13.4 0 0.7 0.2 1.9 0.6 2.6 0.3 0.6 0.7 2 0.8 3 0.1 1.1 0.5 2.6 0.8 3.5 0.3 0.8 0.6 2.4 0.6 3.5 0 1.1 0.3 3.1 0.7 4.5 1.6 5 2.1 7 2.1 9 0 1.1 0.2 2.7 0.5 3.5 0.4 0.8 0.8 2.3 0.9 3.5 0.2 1.1 0.5 2.6 0.8 3.3 0.3 0.7 0.6 1.8 0.6 2.3 0 0.6 0.3 2.1 0.8 3.3 0.4 1.3 0.8 3.1 0.8 4.1 0 0.9 0.2 2.2 0.5 2.8 0.3 0.6 0.8 2.3 1 3.7 0.8 4.5 1.5 8.1 2.2 10.1 0.4 1 0.7 2.5 0.7 3.3 0 0.8 0.2 1.8 0.4 2.2 0.2 0.5 0.6 2.1 0.8 3.6 0.2 1.5 0.6 3.3 0.9 3.9 0.4 0.7 0.7 1.8 0.7 2.6 0 0.7 0.2 2.2 0.6 3.3 0.3 1.1 0.6 2.5 0.6 3.2 0 0.6 0.3 1.9 0.6 2.8 0.4 0.8 0.8 2.9 1 4.6 0.2 1.6 0.6 3.6 0.9 4.4 0.4 0.9 0.7 2 0.7 2.6 0 0.5 0.2 1.4 0.4 1.9 0.3 0.4 0.7 1.6 1 2.6 1.2 4.5 3 8.4 4.3 9.5 1.4 1.3 5.3 3.7 5.8 3.7 0.3 0 0.8 0.2 1.2 0.4 2.5 1.4 12.5 1.5 15.5 0.2 0.7-0.3 1.8-0.6 2.5-0.6 0.6 0 2.6-0.5 4.5-1.2 1.8-0.7 4.2-1.4 5.3-1.6 1.1-0.2 2.3-0.6 2.8-0.9 0.5-0.4 1.4-1 2.1-1.5 3.5-2.2 6.1-7.1 6.2-11.3 0-1.7-0.2-2.6-0.4-2.5-0.3 0.2-0.4 1.2-0.4 2.3 0 1.7-0.9 4.4-1.5 4.4-0.1 0 0.1-0.6 0.4-1.2 0.4-0.7 0.7-2.1 0.7-3.2 0-1.1 0.2-2.1 0.4-2.3 0.2-0.1 0.3-0.6 0.1-1.1-0.1-0.5-0.4-2.4-0.6-4.2-0.6-6.5-0.8-7.9-1.2-8.2-0.2-0.2-0.3-0.9-0.3-1.5 0-0.5-0.3-1.2-0.5-1.6-0.5-0.4-0.4-0.4 0.2 0 0.3 0.3 0.7 1 0.7 1.6 0 0.6 0.1 1.3 0.3 1.5q0.6 0.6 1.1 8c0.3 4.6 1 4.7 1 0.1-0.1-4-1.1-10.2-2.2-12.3-0.4-0.6-0.6-2.1-0.6-3.2 0-1.9-1.4-8-2.1-9.4-0.2-0.4-0.7-2.2-1-4-0.9-5.1-1-5.5-1.4-5.5-0.4 0-0.1 2.8 0.5 4.5 0.3 1 0.9 8.1 0.6 7.3-0.1-0.2-0.4-1.9-0.6-3.8-0.2-1.8-0.7-4.8-1-6.5-0.4-1.7-0.6-3.4-0.5-3.8 0.1-0.4 0.2-0.1 0.2 0.6q0.1 1.4 0.7 1.4c0.7 0 0.5-1.4-0.5-3.3-0.3-0.6-0.5-1.4-0.5-1.7 0-0.4-0.3-0.7-0.7-0.7-0.6 0-0.6-0.1-0.2-0.4 0.9-0.9 0.1-6.4-1.4-9.9-0.9-2-1.2-0.8-0.4 1.4 0.4 1.1 0.6 2 0.6 2.1 0 0.5-1.5-3-1.5-3.8 0-0.4-0.2-1-0.4-1.2-0.2-0.2-0.5-1.1-0.6-1.9-0.1-0.9-0.4-2.5-0.6-3.6-0.7-3.2-1.1-6.2-0.8-6 0.2 0.1 0.4 1 0.4 1.9 0 0.9 0.1 1.9 0.3 2.1 0.4 0.3 0.5 1.1 1.1 5.6 0.1 1 0.5 1.7 0.7 1.7 0.6 0 0.2-4.4-0.5-6.7-0.2-0.8-0.4-2-0.4-2.8 0-1.1-0.9-3.5-1.6-4-0.7-0.6-1.2-2.2-1.2-3.4 0-0.8-0.2-1.5-0.4-1.6-0.2-0.1-0.4-0.9-0.5-1.6-0.1-0.8 0-1.3 0.1-1.2 0.2 0.1 0.4 0.7 0.4 1.3 0 0.7 0.1 1.3 0.4 1.5 0.2 0.1 0.4 0.9 0.4 1.8 0 0.8 0.1 1.6 0.4 1.7 0.6 0.4 0.4-2.2-0.2-4.2-0.4-0.9-0.6-2.5-0.7-3.5 0-1-0.3-2.6-0.8-3.6-0.4-1-0.7-2.1-0.7-2.6-0.1-2.1-1-3.5-1.3-1.9-0.1 0.3-0.2-0.9-0.2-2.7 0-3.4-0.7-7.2-1.4-7.2-0.5 0-0.4 1.4 0.1 1.7 0.2 0.2 0.4 1.4 0.4 2.7 0 1.3 0.1 2.3 0.4 2.3 0.2 0 0.4 0.4 0.4 0.7 0 0.6-0.1 0.6-0.6-0.1-0.4-0.4-0.6-1.7-0.6-3 0-1.3-0.2-2.4-0.4-2.5-0.5-0.3-0.8-3-0.3-3.2 0.2 0 0.2-0.7 0-1.7l-0.3-1.5-0.5 3.1-0.2-1.8c-0.1-1.1 0-1.8 0.2-1.6 0.6 0.3 0-4.5-0.8-7.4q-1.4-4.8-0.9-0.2c0.1 1.4 0.1 2.3-0.1 2.1-0.4-0.5-0.7-4.8-0.3-5.1 0.5-0.3 0.4-2.4-0.1-2.8-0.3-0.2-0.4 0.2-0.3 1.2 0.1 0.8 0 1.3-0.1 1.2-0.2-0.1-0.3-0.8-0.3-1.6 0-0.7-0.4-1.9-0.8-2.6-0.8-1.4-1.3-4-0.8-3.7 0.2 0.1 0.4 0.7 0.4 1.2 0 0.6 0.3 1.5 0.7 2l0.8 1-0.2-1.5c-0.1-0.9-0.6-2.7-1-4.2-0.4-1.4-0.7-3.1-0.7-3.7 0-0.6-0.3-1.7-0.6-2.5-0.3-0.9-0.9-3.3-1.3-5.3-0.7-4.4-0.8-4.6-1.6-4-0.4 0.3-0.5 0.2-0.5-0.3 0.1-0.8-0.9-4.6-1.2-5-0.1-0.1-0.3-1-0.4-2-0.1-0.9-0.3-1.9-0.4-2.1-0.5-0.6-0.8-3.4-0.4-3.2 0.2 0.1 0.4 0.8 0.4 1.6 0 0.7 0.1 1.4 0.4 1.6 0.2 0.1 0.4 0.6 0.4 1.1 0 0.6 0.2 1.1 0.4 1.3 0.5 0.3 0.4-1.5-0.6-5.8-0.8-3.7-1.4-5.3-1.9-5-0.2 0.1-0.3-0.2-0.3-0.6 0-0.4-0.2-0.9-0.4-1-0.5-0.3-0.6-1.1-0.1-1 0.1 0 0.4 0 0.5 0 0.4-0.1-1.1-7.6-1.8-9.5-0.3-0.8-0.8-3.1-1-4.9-0.2-1.9-0.8-4.7-1.2-6.2-0.5-1.6-1.2-4.8-1.6-7.3-0.5-2.4-1.2-5.4-1.6-6.7-0.4-1.4-1-3.3-1.3-4.3l-0.5-1.7-0.2 1.3c0 0.8 0.1 1.8 0.3 2.2 0.7 1.5 1.3 4 1.5 6.5 0.3 2.9-0.1 2.8-0.4-0.3-0.3-2.4-1.1-5.8-1.6-6.2-0.1-0.2-0.2-0.9-0.2-1.7 0-0.8-0.4-1.8-0.7-2.2-0.7-0.8-0.7-0.8 0-0.3 1.2 1 1.2 0.1 0.1-3.3-1-3.1-3.2-6.4-2.5-3.9 0.1 0.4 0 0.7-0.2 0.6-0.4-0.3-0.4-1.6 0-1.9 1.1-0.7 4.5 7.2 5.8 13.4 0.1 0.5 0.5 1.8 0.8 2.8 0.4 0.9 0.9 3.6 1.3 5.7 0.3 2.3 1 5.1 1.4 6.5 0.4 1.3 0.9 3.7 1.2 5.4 0.2 1.6 0.8 4.7 1.4 6.7 0.5 2.1 1.2 5.5 1.5 7.4 0.3 2 0.9 4.5 1.3 5.5 0.3 0.9 1 4.1 1.6 7 0.5 2.8 1.3 6.4 1.7 8 0.4 1.5 1 4 1.2 5.5 0.3 1.6 0.8 4.1 1.2 5.6 0.4 1.6 1.4 5.7 2.2 9.3 0.8 3.5 1.8 7.5 2.1 9 0.4 1.4 0.8 3.8 1 5.4 0.1 1.5 0.8 4.5 1.4 6.5 0.5 2.1 1.3 5.4 1.6 7.3 1.2 6.5 1.3 7.1 1.9 8.3 0.3 0.6 0.8 2.5 1 4.1 0.8 5.7 1.4 8.6 1.9 9.7 0.3 0.6 0.7 2.2 0.9 3.6 0.8 5.5 1.6 9.8 2 10.5 0.6 1.2 2.1 7.6 2.1 9.2 0 0.8 0.3 2.2 0.7 3.3 0.5 1 1 3.1 1.3 4.7 1 6.3 1.1 7.2 1.9 9.2 0.4 1.1 1.1 3.9 1.5 6.4 0.3 2.4 0.9 5 1.2 5.7 1.9 4.4 2.6 20.5 1.2 24.8-1.3 3.9-7.4 9.7-10.3 9.7-0.6 0-2.7 0.6-4.7 1.3-2.1 0.8-4.2 1.5-4.8 1.5-0.6 0-1.9 0.2-2.9 0.6-2.6 1-14.5 1-16 0.1-0.6-0.4-1.3-0.7-1.6-0.7-0.2 0-1.7-0.9-3.4-2-3.6-2.3-4.5-3.9-6.8-11.5-2.7-8.6-2.9-9.6-2.9-11.3 0-0.9-0.4-2.7-0.8-3.9-0.5-1.3-0.8-2.8-0.8-3.3 0-0.6-0.3-1.9-0.6-3-0.4-1.1-0.6-2.4-0.6-3 0-0.6-0.4-2.2-0.8-3.6-0.4-1.5-1.2-4.6-1.7-7-0.4-2.5-1-5.3-1.3-6.2-0.3-1-0.9-3.9-1.4-6.5-0.5-2.5-1.1-5.4-1.4-6.3-0.3-1-0.7-2.8-0.8-4-0.2-1.2-0.5-2.5-0.7-3-0.2-0.4-0.6-1.7-0.7-2.8-0.4-2.2-1.4-6.5-2.3-9.7-0.3-1.1-0.5-2.9-0.5-3.9 0-1.1-0.3-3-0.7-4.2-1.7-5.9-2.1-7.7-2.5-10.3-0.7-4.4-1.5-8.2-2.2-10-0.3-0.8-0.6-2.1-0.6-2.8-0.1-4.3-3.7-9.7-8.1-11.9-2.3-1.2-15.9-0.2-19.8 1.4-1.8 0.8-16.1 0.7-18.9-0.2-1.3-0.3-3.2-0.7-4.3-0.8-3.3-0.4-10.7-3.2-13.2-5-1.3-0.9-2.5-1.7-2.8-1.7-0.3 0-1.1-0.5-1.8-1.1-0.8-0.6-2.2-1.6-3.1-2.2-2-1.2-6.7-6-8.6-8.9-0.7-0.9-1.9-2.4-2.7-3.4-0.8-1-1.8-2.7-2.3-4-1.2-2.8-1.5-3.6-2-4.4-1.4-2.1-4.6-9.6-4.9-11.5-0.2-1.2-0.6-3-0.9-3.8-0.3-0.9-0.6-2.2-0.6-2.8 0-0.6-0.3-2.1-0.6-3.2-0.9-3.3-1.6-14.8-1.1-17.4 0.3-1.1 0.5-3.4 0.5-5 0-1.6 0.2-3.9 0.6-5.3 0.3-1.3 0.5-3 0.5-3.7 0.1-0.8 0.4-2 0.9-2.6 0.4-0.7 0.8-1.6 0.8-2 0-0.6 0.7-2.2 3.7-8.7 0.6-1.2 1.3-2.5 1.5-2.9 5.3-8.1 13.2-16.8 16.8-18.7 0.8-0.4 1.8-1.2 2.2-1.7 0.3-0.6 1-1.1 1.4-1.3 0.4-0.1 1.3-0.6 1.9-1.2 0.6-0.5 2.3-1.4 3.9-1.9 1.5-0.6 3.3-1.4 4-1.9 0.7-0.4 1.5-0.7 1.9-0.7 0.3 0 1.8-0.7 3.2-1.4 1.4-0.8 3-1.4 3.6-1.4 1.1 0 4.1-0.7 8.9-2 1.3-0.3 4.4-0.8 7-1.1 9.5-1 19.3 0 28.4 2.9zm-23.4-1.6c0.7 0.3 0.7 0.6 0.1 0.5-0.3 0-0.8 0.1-1.2 0.2-0.3 0.2-1.8 0.2-3.2 0.1l-2.5-0.1 2.8-0.1c1.6 0 3-0.2 3.1-0.4 0.2-0.2 0.5-0.3 0.9-0.2zm6.7 0c0.1 0.2-1.1 0.3-2.7 0.3-1.7 0-2.8-0.1-2.5-0.2 0.6-0.4 5-0.4 5.2-0.1zm4.4 0.6c2.1 0.1 3.9 0.2 3.9 0.3 0 0.3-7.3 0.1-7.6-0.2-0.1-0.1 1.6-0.1 3.7-0.1zm7.3 0.7c0.1 0.3 0.7 0.5 1.3 0.5 0.6 0 1.2 0.1 1.4 0.2 0.4 0.4 3.1 1.3 3.8 1.3 1.2 0.1-0.3-0.9-2.6-1.6-2.6-0.8-4.3-1-3.9-0.4zm288.9 2.7c0.3 0.2-6.1 6.7-6.8 7-0.4 0.2-0.8 0.5-0.9 0.7-0.2 0.3-0.5 0.5-0.7 0.5-0.2 0 0.5-0.7 1.5-1.6 1.1-0.8 3-2.7 4.4-4.1 1.3-1.4 2.4-2.5 2.5-2.5zm-292.5 0.8c1.3 0.3 3.1 0.8 4 1 4.7 1 9.9 3.8 17.2 9.2 6.1 4.6 14.5 17.6 17.1 26.6 0.4 1.3 1.1 3.4 1.5 4.7 0.4 1.3 0.8 2.9 0.8 3.5 0 0.5 0.3 1.9 0.6 3 0.4 1.1 0.8 3.4 1 5.1 0.1 1.8 0.5 5 0.8 7 0.5 4 0.3 9-0.5 11.9-0.2 0.8-0.6 2.9-0.7 4.5-0.3 3-0.6 3.9-2.1 7.9-4 9.9-11.7 19.6-19.5 24.5-0.9 0.6-2.6 1.6-3.7 2.4-2.7 1.7-12.6 5.9-13 5.5-0.1-0.1 0.8-0.5 1.9-1q14.4-5.4 23.6-15.1c5.6-5.9 12.4-19.5 12.4-25 0-0.8 0.3-3.5 0.8-5.8 0.8-4.1 0.8-4.5 0.2-8.4-0.3-2.1-0.7-5.4-0.9-7.1-0.1-1.8-0.5-3.9-0.8-4.8-0.3-0.8-0.5-2.2-0.5-3.1 0-1.7-1.2-6-2.3-8.7-0.3-0.7-0.5-1.5-0.5-1.9 0-1.1-5-11.2-7-14.2-2-3-8-9.8-9-10.3-0.5-0.3-1.9-1.2-3-2.2-6.7-5.5-15.3-8.7-25.4-9.2-6.4-0.4-18 0.8-23.6 2.3-3.9 1.1-11.4 3.6-11.9 3.9-0.3 0.2-2 1.2-3.9 2.1q-17.4 9-26.8 30.8c-0.5 1.2-0.9 2.6-1.9 6.4-0.2 0.9-0.7 2.9-1.1 4.4-0.8 3.4-0.9 19-0.2 21.5 0.3 0.7 0.6 2.2 0.7 3.1 0.2 1.5 0.1 1.6-0.1 0.6-1.2-4.1-1.4-6.4-1.4-14.3 0-8.8 0.2-10.4 2.2-17.5 0.4-1.5 0.8-2.9 0.8-3.1 0-0.8 4.8-10.4 5.4-10.9 0.3-0.2 0.6-0.6 0.6-0.8 0-1 6.1-8.5 9.6-12 5.6-5.4 13.4-10.4 19-12.1 1.3-0.4 2.9-0.9 3.6-1.2 1.5-0.8 7.6-2.3 8.9-2.3 0.5 0 1.6-0.1 2.2-0.3 0.7-0.2 2.6-0.6 4.3-0.8 5.4-0.6 18-0.5 20.6 0.2zm-34.6-0.5c0 0.1-0.7 0.2-1.4 0.3-0.8 0.1-1.3 0-1.2-0.1 0.2-0.3 2.6-0.5 2.6-0.2zm-8.8 3.2c0 0.1-0.7 0.5-1.5 0.9-0.9 0.4-1.7 0.8-1.8 0.8-0.2 0.1-0.3 0.1-0.3 0 0-0.1 0.7-0.6 1.7-1 1.9-0.9 1.9-0.9 1.9-0.7zm63.5 1c0.5 0.3 1.5 1.1 2.2 1.7 1.3 1.1 2.3 1.5 2.3 0.9 0-0.2-1-1-2.2-1.9-2.1-1.4-4.2-2.1-2.3-0.7zm260.9-0.3c0.2 0-1.2 1.1-2.1 1.6-1.3 0.7-0.8 0 0.6-0.9 0.7-0.4 1.3-0.7 1.5-0.7zm-3.4 2c0.5 0-3.9 2.1-7.1 3.4-1.5 0.5-2.9 1-3.2 0.9-0.2-0.1 0.8-0.6 2.3-1.1 1.5-0.6 3.8-1.5 5.2-2.1 1.3-0.6 2.5-1.1 2.8-1.1zm-330 2c0.2 0-0.2 0.3-0.8 0.6-0.7 0.4-2.2 1.6-3.4 2.7l-2.2 2.1 1.8-2c0.9-1.1 2.3-2.3 3-2.7 0.6-0.4 1.3-0.7 1.6-0.7zm334.2 1.3c0 0.3-6 3.1-6.5 3-0.3 0 0.4-0.4 1.5-0.8 1.1-0.5 2.5-1.2 3.2-1.6q1.8-1 1.8-0.6zm-44.4 1.1c0.7 0 2.5 0.2 3.9 0.6 4 0.9 19.2 1 21.8 0 1-0.3 2.3-0.6 2.8-0.6 1.8 0.1-3.2 1.3-7 1.7-4.5 0.4-15.5-0.1-20.1-1.1-2.1-0.4-2.5-0.6-1.4-0.6zm-296.7 2.7c0.2 0 0.3 0.1 0.2 0.1-0.1 0.1-1.1 1-2.3 2.2l-2.2 2 1.9-2.2c1.1-1.1 2.2-2.1 2.4-2.1zm287.7 0.9c0.1 0.2 1.3 0.4 2.6 0.4 1.3 0 2.4 0.1 2.5 0.2 0.3 0.5-4.2 0.2-5.2-0.3-0.5-0.3-1.5-0.4-2.3-0.3-0.8 0.1-1.3 0-1.2-0.1 0.3-0.5 3.3-0.4 3.6 0.1zm42.1 0c0.1 0 0 0.1-0.1 0.3-0.1 0.2-0.9 0.4-1.6 0.5-1.7 0.2-1.4-0.3 0.4-0.6 0.6-0.1 1.2-0.2 1.3-0.2zm-48.5 1.1c0.1 0 0 0.4-0.2 0.9-0.3 0.4-0.7 0.7-0.9 0.7-0.3 0-1.3 0.8-2.3 1.8l-1.8 1.6 1.7-1.9c1-1 2-1.8 2.3-1.8 0.3 0 0.6-0.3 0.7-0.7 0.1-0.3 0.3-0.6 0.5-0.6zm17.4 0.3c0.3 0.3 1 0.6 1.6 0.7q1 0.2-0.4 0.1c-0.8 0-1.5-0.3-1.6-0.7-0.1-0.4-0.1-0.5 0.4-0.1zm26 0.3c-0.3 0.4-0.8 0.6-1.2 0.6q-0.7 0 0.4-0.6c1.2-0.7 1.4-0.7 0.8 0zm-12.8 0.4c5.2 0 9.4 0.2 9.3 0.4-0.2 0.3-17.8 0.3-18.4-0.1-0.3-0.1 3.8-0.3 9.1-0.3zm-316.5 1.4c0.2 0-1.9 2.5-4.5 5.4l-1.6 1.6 1.4-1.7c0.7-0.9 2.1-2.5 2.9-3.5 0.9-0.9 1.7-1.8 1.8-1.8zm228.4 2.8c0.1 0.7 0 1.5-0.2 1.7-0.2 0.2-0.3-0.4-0.2-1.4 0.2-1.6 0.2-1.6 0.4-0.3zm-3.5 9.9c-0.7 1.7-1.1 6.9-0.3 5.9 0.3-0.4 0.6-2.1 0.8-3.9 0.2-3.4 0.2-3.5-0.5-2zm52.3-1.1c0.4 0-0.3 4.1-0.9 4.9-0.4 0.5-0.6 0.7-0.6 0.5 0-0.3 0.1-0.6 0.3-0.7 0.2-0.2 0.5-1.3 0.7-2.5 0.1-1.2 0.3-2.2 0.5-2.2zm-171.5 4.4c0.2 0.4 0.3 1.1 0.4 1.6 0 1.3-0.3 1-0.6-0.7-0.2-1-0.1-1.3 0.2-0.9zm-117.9 3.1c-0.2 0.5-0.4 1.1-0.6 1.2-0.2 0.1-0.2-0.1-0.1-0.4 0.1-0.4 0.2-0.9 0.3-1.3 0.3-0.9 0.6-0.6 0.4 0.5zm-1.1 2.3c0.1 0.4 0 0.9-0.2 1.2-0.2 0.2-0.4 0.9-0.4 1.4-0.1 0.6-0.2 1.3-0.4 1.6q-0.4 0.7-0.2-1c0.2-0.8 0.4-1.7 0.6-1.9 0.2-0.2 0.4-0.8 0.4-1.2 0-0.8 0.1-0.8 0.2-0.1zm288.4-0.2c0.2 0 0.1 0.6 0 1.3-0.2 0.8-0.4 2.2-0.6 3.4l-0.4 2 0.2-2c0-1.2 0.2-2.6 0.4-3.4 0.1-0.7 0.3-1.3 0.4-1.3zm-52.9 9.3c0.2 0-0.2 2.6-0.6 3.4-0.2 0.4-0.4 1.3-0.5 2-0.1 0.9-0.1 0.8-0.2-0.5 0-0.9 0.2-1.8 0.4-2 0.2-0.1 0.3-0.6 0.2-0.9-0.1-0.4 0-1 0.2-1.4 0.2-0.4 0.4-0.6 0.5-0.6zm-142.8 3.2c6.1 7.1-1.6 17.3-10 13.4-6.7-3.1-6.2-13.5 0.7-15.7 3.7-1.1 7.1-0.2 9.3 2.3zm-95.5-1c0.1 0.8 0.1 1.9 0 2.7 0 0.7-0.1 0.1-0.1-1.4 0-1.4 0.1-2 0.1-1.3zm84.3 0.4c-5.1 3.8-3.6 11.9 2.6 13.9 8.2 2.7 13.9-8.7 7.1-14-2.4-1.8-7.3-1.8-9.7 0.1zm204.2 1.8c-0.4 2.8-0.8 4.3-1.2 4.6-0.1 0.1-0.1-0.4 0.1-1.1 0.3-0.8 0.5-2.1 0.6-2.9 0.1-0.9 0.3-1.9 0.4-2.1 0.3-1.1 0.4-0.4 0.1 1.6zm-162.2-2l0.2 1.4c0 0.8 0.3 1.6 0.5 1.9 0.4 0.4 0.9 4.4 0.5 4-0.1-0.1-0.3-1-0.4-1.9-0.1-1-0.3-1.9-0.5-2.1-0.3-0.2-0.4-1-0.4-1.8zm-126.7 3.8c0 0 0 3.9 0 8.7 0 4.9-0.1 8.6-0.3 8.3-0.4-0.5-0.4-16.4 0-16.8 0.1-0.1 0.2-0.2 0.3-0.2zm19.4 3.2c0.9-0.1 3.6 1.1 4.6 2 2 1.9 2.2 2.6 5 15.4 0.5 2.2 1.5 6.7 2.3 10 2.4 10.4-0.3 15-7.6 13-2.1-0.6-4.7-5.2-4.7-8.2 0-0.4-0.3-1.9-0.6-3.2-0.3-1.3-0.9-4.1-1.4-6-0.5-2-1.2-5.1-1.6-6.8-2.7-11.6-2.3-14.4 2.6-15.8 0.7-0.2 1.3-0.4 1.4-0.4zm267.7-0.2l0.2 1.5c0.1 0.9 0 1.8-0.3 2-0.2 0.2-0.4 0.9-0.4 1.5 0 0.6-0.1 1.2-0.3 1.3-0.2 0.1-0.3-0.4-0.2-1.2 0.1-0.7 0.3-1.4 0.5-1.6 0.2-0.1 0.4-0.9 0.5-1.9zm-271.5 2.8c-1.9 1.9-1.8 4.8 0.1 12.6 0.9 3.6 2.7 11.5 3.5 15.3 1.3 6.9 2.7 9.2 5.8 9.7 5.5 0.8 7.8-3.5 5.9-11-0.4-1.7-1-4.5-1.3-6.3-0.4-1.8-0.8-3.5-0.9-3.6-0.1-0.2-0.5-2.1-1-4.3-2-9.9-2.8-12-4.9-13.3-2.7-1.6-5-1.3-7.2 0.9zm113 1.7c0.2 0.1 0.3 0.8 0.2 1.6 0 1.7-0.3 1.5-0.4-0.4-0.1-0.8 0-1.3 0.2-1.2zm0.7 3.6c0.4 0.4 1 2.9 0.6 2.5-0.1-0.1-0.4-0.8-0.6-1.6-0.2-0.7-0.2-1.1 0-0.9zm156.3 0.5c0.1 0.5 0 1.1-0.2 1.3-0.2 0.2-0.3-0.1-0.1-0.9 0.2-1.2 0.2-1.2 0.3-0.4zm-155.2 4.2c0.1 0.5 0.4 1 0.6 1.2 0.2 0.2 0.3 1 0.3 1.8 0 0.8 0.3 1.8 0.7 2.2 0.7 0.8 0.7 0.8-0.2 0.1-0.6-0.6-0.9-1.2-0.9-2.3 0-0.8-0.2-1.6-0.4-1.8-0.2-0.1-0.4-0.6-0.3-1.1 0-0.8 0-0.8 0.2-0.1zm103.9-0.5c0.3 0.3-1 4.4-1.4 4.9-0.2 0.2-0.2-0.2 0.1-1 0.2-0.7 0.5-1.7 0.6-2.2 0.1-0.4 0.3-1 0.4-1.3 0.1-0.3 0.2-0.5 0.3-0.4zm-233.7 3.9c0.1 0.7 0 1.1-0.1 1-0.2-0.1-0.4-0.6-0.4-1.2 0-1.3 0.3-1.2 0.5 0.2zm283.2 0c0.2 0-0.2 4.3-0.4 4.5-0.3 0.3-0.2-3.1 0.1-4 0.1-0.2 0.3-0.5 0.3-0.5zm-278.1 6.4c0.4 1.3 0.8 2.6 0.8 3.1 0 0.4 0.2 1 0.4 1.2 0.2 0.2 0.5 1.1 0.8 1.9 0.3 0.9 0.8 2.4 1.2 3.2 0.9 2.1 1.4 3.7 1 3.3-0.2-0.1-0.5-0.9-0.8-1.6-0.3-0.7-1-2.5-1.6-4.1-1-2.8-2.1-6.3-2.4-8.2-0.1-0.5 0.2 0 0.6 1.2zm277.1-0.2c0.1 0.6 0 1.3-0.2 1.5-0.2 0.2-0.2-0.3-0.1-1.2 0.2-1.3 0.2-1.4 0.3-0.3zm-153.2 4.6c0.1 1 0.5 2.6 0.8 3.6 0.3 0.9 0.5 2.2 0.5 2.8 0 0.6 0.4 2.3 0.8 3.6 0.5 1.4 0.8 3.2 0.8 4 0 0.8 0.3 2.3 0.7 3.2 0.6 1.8 0.8 2.4 1.7 7.2 0.3 1.3 0.7 3.4 1 4.8 0.4 1.5 0.8 3.8 1 5.1 0.2 1.4 0.7 3 1 3.7 0.3 0.7 0.6 1.9 0.6 2.7 0 0.7 0.2 1.8 0.4 2.2 0.3 0.4 0.6 2.1 0.8 3.7 0.4 2.9 0.8 4.5 2.2 9.2 0.4 1.6 0.7 3.2 0.7 3.6 0 0.5 0.2 1.8 0.6 3 0.3 1.3 0.8 3.1 0.9 4.2 0.5 3.3 1.6 8.3 2.2 10.5 0.4 1.1 0.6 2.5 0.6 3.1 0 0.6 0.3 1.6 0.6 2.3 0.4 0.6 0.8 2.5 1 4.1 0.2 1.6 0.6 3.4 0.9 4.1 0.2 0.6 0.6 2 0.8 2.9 0.9 5.9 1.6 9 2.4 11.8 0.4 1.8 1.1 4.8 1.4 6.8 0.3 1.9 0.8 4.2 1.1 4.9 0.4 0.8 0.6 2 0.6 2.6 0 0.6 0.4 2 0.8 3.1 0.4 1.1 0.7 2.1 0.6 2.2-0.1 0.1 0 1.5 0.3 3.1 0.8 4.9-1.3 6-16.3 9.2-3.6 0.7-11.9 2.6-18.9 4.2-3.9 0.9-5-0.3-6-6.5-0.9-4.9-1.6-8.5-2-9.2-0.2-0.4-0.5-1.8-0.7-3.1-0.2-1.4-0.5-3-0.8-3.6-0.2-0.7-0.6-2.2-0.7-3.5-0.2-1.2-0.5-2.7-0.7-3.4-0.2-0.6-0.6-2.6-1-4.4-0.4-1.7-0.9-4.2-1.2-5.6-0.3-1.3-0.9-4-1.3-6-0.5-1.9-1.2-5.2-1.7-7.2-0.8-3.5-1.6-7.8-2.4-12.2-0.2-1.3-0.6-3.1-1-4-0.3-1-0.6-2.1-0.6-2.6 0-0.4-0.2-1.8-0.6-3-0.8-2.8-1.7-7.8-2.1-11.4-0.3-2.5-1.1-5.3-2.2-8.3-0.6-1.8-3.7-6.2-5.8-8.3-0.9-1-1.6-2-1.4-2.1 0.2-0.1 2.5-1.3 5-2.5 7.7-3.9 10.2-5.7 17.1-12.6 4-4 6.3-6.8 8.1-9.9 1-1.7 1.6-3 4-7.9 0.4-0.8 1.2-3 1.7-4.8 0.6-1.7 1.1-3.4 1.3-3.8 0.3-0.9 2.1 2.3 2.4 4.4zm-127.4-4.1c0.2 0.1 0.3 0.9 0.3 1.8 0 0.8 0.4 2.3 0.8 3.2 0.4 1 0.9 2.2 1 2.7l0.2 1-0.4-1c-1.5-3.2-1.8-3.9-2-5.8-0.1-1.2-0.1-2 0.1-1.9zm124.2 4.2c-0.6 1.9-1.4 3.8-1.7 4.2-0.3 0.4-0.6 1.1-0.6 1.5 0 0.5-0.5 1.7-1.2 2.8-0.6 1.1-1.5 2.8-2 3.6-2.8 5.1-11.8 14.5-17.7 18.4-3.4 2.3-10.9 6.2-11.7 6.2-1.2 0-0.8 0.9 1.2 3.1 4.9 5.6 6.6 10 8 21.7 0.2 1.3 0.5 2.8 0.8 3.4 0.3 0.7 0.6 2.2 0.8 3.4 0.1 1.2 0.4 2.5 0.6 2.8 0.2 0.4 0.7 2.3 1 4.3 1.6 8.4 3.2 15.9 3.6 16.5 0.1 0.2 0.4 1.5 0.6 2.9 0.3 2.5 1.3 7 2 9.4 0.2 0.6 0.7 2.6 1 4.4 0.3 1.7 1 4.9 1.5 6.9 0.4 2.1 1 4.7 1.1 5.8 0.2 1.1 0.7 2.9 1 4 0.5 1.9 1 4.1 2.2 10 0.4 2.4 1.3 4.9 1.9 5.5 0.4 0.4 7.2-0.5 8.1-1 0.2-0.2 1.6-0.5 3.1-0.8 1.5-0.3 3.6-0.8 4.7-1.1 1.1-0.2 3.7-0.8 5.8-1.2 5.1-1.1 8.2-1.9 10.8-2.8 1.1-0.4 2.4-0.8 2.8-0.8 2.8 0 3.5-3.5 1.9-9.2-1.2-4.1-2.2-9-2.5-11.3-0.1-1.3-0.7-3.8-1.2-5.5-0.6-1.8-1.2-4.1-1.4-5.3-0.6-4-1.7-9.3-2.2-10.8-0.3-0.8-0.6-2.4-0.6-3.5 0-1.1-0.3-2.8-0.7-3.9-0.4-1-1.1-3.3-1.5-5.1-0.3-1.7-1-4.5-1.4-6.2-0.4-1.7-0.8-3.7-0.8-4.4 0-0.6-0.3-2.2-0.8-3.5-0.4-1.2-0.8-3-0.8-3.9 0-0.8-0.3-2.6-0.8-3.9-0.4-1.2-0.8-2.6-0.8-2.9 0-0.4-0.2-1.5-0.6-2.4-0.3-0.8-0.5-2.4-0.6-3.4 0-1-0.3-2.8-0.8-4.1-0.4-1.2-0.8-2.7-0.8-3.2 0-0.5-0.2-1.6-0.5-2.3-0.3-0.7-0.7-2.4-0.9-3.7-0.1-1.3-0.5-3.1-0.8-4-0.3-0.8-0.6-2.2-0.6-3 0-0.8-0.2-2.3-0.5-3.3-0.9-2.7-1.9-7.1-2.3-9.6-0.1-1.2-0.5-3.2-0.9-4.6-0.3-1.3-0.8-3.3-1-4.4-0.2-1.1-0.6-2.9-0.9-4-0.2-1.1-0.5-2.3-0.6-2.8-0.5-2.7-1.2-2.3-2.3 1.1zm7.4-2.1c0.2 0.2 0.3 1 0.2 1.7-0.1 1.3-0.1 1.3-0.3-0.3-0.1-1 0-1.6 0.1-1.4zm148-0.6l0.3 2c0.3 1.6 0.2 2.2-0.3 2.6-0.5 0.6-0.6 0.6-0.3-0.1 0.1-0.4 0.3-1.6 0.3-2.6zm-145.5 11.9c0.3 1.5 1.3 3.9 1.4 3.2 0-0.2-0.2-1.3-0.5-2.5-0.5-2.2-1.3-2.8-0.9-0.7zm-125 1.7c0.7 1.2 2 3.4 2.9 4.8 2.2 3.1 2.5 3.6 2 3.3-1-0.6-6.2-9.2-6.1-10.2 0-0.1 0.6 0.8 1.2 2.1zm268-0.1c-0.1 0.8-0.2 1-0.3 0.6-0.1-0.4-0.1-1 0-1.3 0.4-1 0.5-0.6 0.3 0.7zm-270.4 4.5c0.5 0.9 1.2 2 1.5 2.4 0.6 0.8 0.6 0.8-0.1 0.2-0.7-0.5-2.2-3.2-2.2-3.9 0-0.1 0.4 0.4 0.8 1.3zm269.5-0.4c0.1 0.6 0 1.3-0.2 1.5-0.2 0.2-0.3-0.3-0.2-1.2 0.2-1.4 0.3-1.4 0.4-0.3zm-141.2 0.8c0.5 0.5 1.3 3.2 1.3 4.5 0 0.7 0.1 1.4 0.3 1.5 0.2 0.1 0.5 0.7 0.6 1.4 0.1 0.6 0 1.1-0.2 1-0.2-0.1-0.3-0.6-0.3-1.1 0-0.5-0.2-1.1-0.4-1.3-0.2-0.2-0.4-1.1-0.5-2-0.1-0.9-0.4-2.2-0.7-2.9-0.2-0.8-0.3-1.3-0.1-1.1zm140.4 1.6c0.2 0.2-0.4 5-0.7 5.2-0.1 0.1-0.1-1.1 0.1-2.6 0.2-1.5 0.5-2.7 0.6-2.6zm-50.7 2.5c-0.2 1.7-0.2 1.7-0.3 0.6-0.1-0.8-0.1-1.6 0-1.9 0.4-1 0.5-0.6 0.3 1.3zm-214.8 0.3c0.6 0.7 1.2 1.4 1.2 1.6 0 0.1-0.6-0.4-1.2-1.1-0.7-0.8-1.2-1.5-1.2-1.7 0-0.1 0.5 0.4 1.2 1.2zm7.3 2.2c1.7 1.6 3.1 3.1 3.1 3.3 0 0.5-2.2-1.5-4.3-4.1-1.7-2-1.5-1.9 1.2 0.8zm-6.1 0c0.1 0 0.8 0.6 1.6 1.4 0.7 0.8 1.2 1.4 1.1 1.4-0.1 0-0.8-0.6-1.5-1.4-0.8-0.8-1.3-1.4-1.2-1.4zm213 0.5c0.2 0.2-1 4-1.4 4.5-0.2 0.2-0.4 0.8-0.4 1.4 0 0.6-0.2 1.2-0.4 1.4-0.2 0.2-0.4 1-0.5 1.6l-0.2 1.2-0.1-1.3c0-0.7 0.2-1.4 0.4-1.5 0.2-0.1 0.4-0.7 0.4-1.3 0-0.6 0.2-1.5 0.6-2 0.3-0.5 0.6-1 0.5-1.2 0-0.1 0.2-0.9 0.5-1.6 0.2-0.7 0.5-1.3 0.6-1.2zm50.1 1.1c0.2 1-0.6 3.9-1.2 4.6-0.2 0.2-0.3 0.9-0.3 1.4 0 0.6-0.4 1.6-0.8 2.1-0.5 0.6-0.8 1.5-0.8 2.1 0 0.5-0.2 1.1-0.4 1.2-0.6 0.3 0.1-2.4 0.8-3.3 0.4-0.6 0.8-1.5 0.8-2.1 0-0.6 0.1-1.2 0.2-1.3 0.5-0.5 1.4-3.2 1.4-4.5 0.1-1.1 0.1-1.1 0.3-0.2zm-251.1 3.8c1.4 1.1 3 2.3 3.6 2.7 0.5 0.4 0.7 0.6 0.4 0.5-1.1-0.6-5.5-3.7-6-4.4-0.4-0.4 0.5 0.1 2 1.2zm-8.4-1c0.1 0 1.4 1.2 2.8 2.6 1.4 1.4 2.5 2.6 2.4 2.6-0.2 0-1.4-1.2-2.8-2.6-1.4-1.4-2.5-2.6-2.4-2.6zm218 1.2c1.4 0.2 3.8 0.6 5.4 0.8 1.5 0.3 4.3 0.8 6.2 1.2 8 1.8 14.6 3.3 17.3 3.8 1.6 0.3 3.6 0.8 4.5 1.2l1.5 0.6-0.3 2.7c-0.2 1.5-0.4 3-0.6 3.3-0.2 0.3-0.5 1.4-0.6 2.4-1.6 10-7.2 14.6-16.7 13.7-17.4-1.8-23.7-5.3-24.5-13.5-0.4-3.5 1-13.1 2.2-16.1 0.4-1.1 0.2-1.1 5.6-0.1zm-5.7 3c-0.2 1.1-0.6 3.4-0.9 5-2.6 11.5 1.3 17.5 12.4 19.2 1.3 0.3 2.9 0.6 3.6 0.8 2.5 0.9 10.7 1.4 13.7 0.9 5.1-0.9 8.3-5.4 10-13.7 1.8-8.3 2.3-7.6-6.5-9.3-1.8-0.4-4.8-1-6.8-1.5-2-0.4-4.8-1-6.2-1.2-1.5-0.3-2.9-0.6-3.3-0.8-0.3-0.2-3.7-0.8-7.4-1.4-8.9-1.3-8.3-1.4-8.6 2zm-198.4 0.5c0.9 0.4 3.1 1.7 2.8 1.7-0.4 0-3.5-1.6-3.5-1.8 0-0.1 0.3 0 0.7 0.1zm-8.2 0.5c0.2 0 1.2 0.6 2.2 1.4 1.1 0.7 3 1.9 4.3 2.6 2.8 1.4 2.6 1.6-0.1 0.3-1.5-0.7-5.5-3.3-6.5-4.1q-0.1-0.2 0.1-0.2zm15.1 2.4c8.1 3.1 20.8 4.1 29.6 2.2 1.4-0.3 3.6-0.7 4.8-0.9 2.8-0.5 5.6-1.2 8.1-1.9 2.6-0.8 3.8-0.7 1.5 0.1-10.9 3.6-30.3 5.2-37.3 3.1-5.4-1.6-7.4-2.3-8.7-3-2.1-1.1-1.3-0.9 2 0.4zm-0.4 5c0.5 0.2 1.6 0.4 2.3 0.5 0.7 0.1 1.4 0.4 1.5 0.6 0.1 0.2 0.5 0.3 0.9 0.3 0.4 0 1.1 0.3 1.5 0.6 0.7 0.5 0.6 0.5-0.7 0.1-0.8-0.3-1.6-0.7-1.8-0.8-0.1-0.2-0.7-0.3-1.1-0.3-0.5 0-1.5-0.3-2.3-0.6q-1.3-0.6-0.3-0.4zm47.3 0.7c2 1 3.8 2.3 3.2 2.3-0.3 0-0.6-0.2-0.7-0.4-0.9-1.4-6.2-3-6.8-2-0.2 0.2-1.3 0.4-2.6 0.4-1.3 0-2.5 0.2-2.6 0.4-0.2 0.2-1.5 0.4-3 0.4-1.5 0-2.9 0.2-3 0.4-0.2 0.2-0.7 0.4-1.2 0.4-0.8-0.1-0.8-0.1 0-0.3 0.4-0.1 0.9-0.3 1.2-0.5 0.2-0.2 1.5-0.4 3-0.4 1.5 0 2.8-0.2 3-0.4 0.1-0.2 1.2-0.4 2.3-0.4 1.1 0 2.3-0.2 2.7-0.4 1-0.6 2.7-0.4 4.5 0.5zm187.4 2.8c-0.7 4.2-0.8 4.7-1.1 4.9-0.2 0.1-0.1-0.6 0.1-1.5 0.2-0.9 0.4-2.3 0.5-3.1 0.1-0.8 0.3-1.6 0.4-1.9 0.4-1.1 0.4-0.3 0.1 1.6zm-219.6-0.9l5.9 0.2-5.6 0.1c-3.1 0.1-5.7 0-5.9-0.2-0.1-0.1 2.4-0.2 5.6-0.1zm12.8-0.3c0.1-0.1 0 0.1-0.1 0.3-0.2 0.2-0.8 0.4-1.6 0.4l-1.2-0.1 1.4-0.3c0.7-0.1 1.4-0.3 1.5-0.3zm-4.9 0.4c0.9 0 1.3 0.1 0.9 0.2-0.4 0.1-1.1 0.1-1.6 0-0.5-0.1-0.2-0.2 0.7-0.2zm28 0.1l1.5 1.4c1.5 1.4 2.9 3.5 2.5 3.9-0.1 0.1-0.3-0.2-0.4-0.7-0.2-0.5-1.1-1.7-2-2.7zm135.5 6.8c0.4 0.8 1.9 2.7 3.3 4.2l2.4 2.6-2.5-2.4c-2.2-2.2-4.1-4.8-4.1-5.7 0-0.2 0.4 0.4 0.9 1.3zm-130.8-0.8c0.2 0.1 0.3 0.7 0.3 1.2 0 0.5 0.3 1.6 0.7 2.3 0.5 1.1 0.5 1.2 0 0.6-0.4-0.3-0.8-1.4-1-2.4-0.2-1.1-0.2-1.8 0-1.7zm177.3 0l0.1 1.7c0.1 1.1 0 2-0.4 2.4-0.3 0.4-0.7 0.9-0.8 1.3-0.2 0.5-0.2 0.4-0.3-0.1 0-0.4 0.3-0.9 0.6-1.1 0.4-0.3 0.6-1.3 0.7-2.4zm-175.4 5.4c0.3 0.3 0.4 1 0.4 1.6 0 0.9 0.5 2.7 1.3 4.6 0.5 1.4 0.8 3.7 0.4 3-0.3-0.3-0.4-1-0.4-1.5-0.1-0.5-0.2-1.2-0.4-1.6-0.5-0.8-1.1-3.4-1.4-5.3-0.2-1-0.1-1.2 0.1-0.8zm174 0.9c0 0.1-0.5 0.7-1.3 1.3l-1.3 1.2 1.2-1.3c1.1-1.2 1.4-1.5 1.4-1.2zm-26.7 5.8c0.9 0.1 1.8 0.3 1.9 0.4 0.4 0.3-2.6 0.1-3.1-0.3-0.4-0.2 0-0.3 1.2-0.1zm19.1-0.2c0-0.1 0 0.1-0.2 0.3-0.1 0.2-0.7 0.4-1.3 0.4l-1.1-0.1 1.2-0.3c0.7-0.2 1.3-0.3 1.4-0.3zm-13.4 1c2 0.3 2.4 0.5 0.8 0.5-0.6 0-1.4-0.2-1.8-0.4q-0.6-0.4 1-0.1zm7-0.1c2 0 3.4 0.1 3.1 0.3-0.2 0.2-1.6 0.3-3.1 0.3-1.4 0-2.8-0.1-3-0.3-0.3-0.2 1.1-0.3 3-0.3zm-157.1 5c0.1 0.6 0.1 1.1-0.1 1-0.2-0.2-0.4-0.7-0.4-1.2 0-1.4 0.3-1.2 0.5 0.2zm51.2 1.8c0.2 0.1 0.3 0.8 0.3 1.5 0 1.5-0.2 1.4-0.5-0.4-0.1-0.8-0.1-1.2 0.2-1.1zm-50.4 2.3c0.1 0.8 0 1.4-0.1 1.3-0.2-0.2-0.3-1-0.3-1.9 0-1.9 0.2-1.6 0.4 0.6zm51.3 1.1c0.1 0.2 0.2 0.8 0.2 1.5-0.2 1-0.2 1-0.4-0.4-0.1-0.9 0-1.3 0.2-1.1zm-50.4 1.6c0.2 0.2 0.2 0.9 0.2 1.7-0.2 1.3-0.2 1.3-0.4-0.4-0.1-0.9 0-1.5 0.2-1.3zm1.1 6.5c0.1 0.8 0 1.4-0.1 1.3-0.2-0.2-0.3-1.1-0.3-2.1 0-2 0.2-1.7 0.4 0.8zm2.2 9.6c0.3 0.3 0.9 3.4 1.1 5.7 0.1 0.9 0.1 1.2 0 0.6-0.1-0.5-0.3-1.6-0.5-2.4-0.2-0.8-0.5-2-0.6-2.8-0.2-0.7-0.1-1.2 0-1.1zm1.8 7.7c0.1 0.1 0.3 0.8 0.4 1.6 0.1 0.7 0.1 1.3-0.1 1.2-0.1-0.1-0.3-0.8-0.4-1.6-0.1-0.7-0.1-1.3 0.1-1.2zm1.3 6c0.1 1.2 0 1.7-0.2 1.4-0.2-0.3-0.3-1.4-0.3-2.4 0-2.1 0.2-1.7 0.5 1zm51.1 0.5c0.1 0.2 0.3 1.1 0.4 2 0.1 0.9 0 1.6-0.1 1.4-0.2-0.2-0.3-1.1-0.4-2-0.1-0.9-0.1-1.5 0.1-1.4zm-50.5 3.3c0.3 0.3 0.4 1 0.4 1.6 0 1.3-0.2 0.9-0.5-0.8-0.2-1-0.1-1.2 0.1-0.8zm51 2c0.5 0.4 1.2 2 0.8 2 0 0-0.4-0.6-0.7-1.2-0.5-1-0.5-1.2-0.1-0.8zm-50.7 1.6c0.1 0.6 0.5 1.7 1 2.6 0.5 1 0.7 2.2 0.6 2.8l-0.1 1.2-0.1-1.3c0-0.7-0.4-1.9-0.9-2.7-0.4-0.8-0.7-1.9-0.7-2.5 0.1-1.1 0.1-1.1 0.2-0.1zm2.7 9.2c0.2 1 0.1 1.2-0.1 0.8-0.3-0.3-0.4-1-0.4-1.6-0.1-1.2 0.2-0.9 0.5 0.8zm0.7 2.8c0.1 0.6 0.1 1.1-0.1 1-0.2-0.2-0.4-0.7-0.4-1.2 0-1.4 0.3-1.2 0.5 0.2zm51.1 4.2c0.4 0.5 1.1 3.2 1.4 5.2 0.3 2.2-0.2 1.4-0.6-0.9-0.1-1-0.5-2.5-0.7-3.3-0.2-0.7-0.3-1.2-0.1-1zm-49.1 5.6c0.1 0.7 0 1.3-0.1 1.2-0.2-0.2-0.4-0.8-0.4-1.4 0-1.6 0.3-1.5 0.5 0.2zm0.8 3.4c0.1 0.8 0 1.5-0.1 1.3-0.2-0.1-0.4-0.8-0.4-1.5 0-1.9 0.3-1.8 0.5 0.2zm47.4 6.2c3.3 16.3 0.8 22-10.9 24.2-1.1 0.2-3.3 0.7-5 1-9.8 2-15 1.6-18.3-1.5-1.8-1.8-4.1-5.1-3.5-5.1 0.1 0 0.6 0.7 1 1.5 2.5 4.9 6.2 6.2 15 5.4 2.7-0.3 5.5-0.7 6.1-0.9 0.6-0.3 2.2-0.6 3.5-0.8 5.8-0.8 9.8-3 11.6-6.4 1.5-2.7 1.7-10 0.5-14-0.4-1.2-0.7-2.9-0.7-3.8 0-2.4-0.7-3.2-2.6-2.9-8.6 1.3-12.7 1.9-13 2.1-0.2 0.2-1.7 0.5-3.3 0.8-1.6 0.3-4.6 0.9-6.7 1.4-2 0.5-5.4 1.2-7.4 1.6-7.3 1.5-7.9 2.2-6.4 6.8 0.3 1 0.7 2.5 0.8 3.4 0.2 0.9 0.6 2.4 0.9 3.3 0.4 1 0.6 1.8 0.4 2-0.1 0.1-0.3-0.3-0.5-0.9-0.1-0.7-0.4-1.4-0.5-1.6-0.1-0.2-0.5-1.4-0.7-2.6-0.3-1.2-0.8-3.5-1.2-5.2-0.9-3.9-0.3-4.4 6.4-5.6 1.1-0.2 3.7-0.7 5.6-1.2 3.5-0.8 7.3-1.6 15-3.2 2-0.4 4.4-0.8 5.2-0.8 0.8 0 2.3-0.3 3.2-0.6 4.3-1.2 4.6-1 5.5 3.6zm-46-0.8c0.1 0.4 0.5 1.2 0.9 1.6 0.6 0.8 0.6 0.8-0.3 0-0.5-0.4-0.8-1.1-0.8-1.6 0-0.8 0-0.8 0.2 0zm1.3 3.8c0.3 0.3 0.4 1 0.4 1.6 0 1.3-0.2 0.9-0.5-0.8-0.2-1-0.1-1.2 0.1-0.8zm0.9 5.3c0.1 0.8 0 1.4-0.1 1.3-0.2-0.2-0.3-1.1-0.3-2.1 0-2 0.2-1.7 0.4 0.8zm0.6 2.8c0.1 0.4 0.1 1 0 1.4-0.1 0.4-0.2 0.1-0.2-0.7 0-0.8 0.1-1.1 0.2-0.7zm1 4.8c0.2 0.3 0.3 1.3 0.3 2.3 0 1 0.3 2.1 0.7 2.6l0.7 0.8-0.8-0.8c-0.6-0.6-0.9-1.4-1-3.1-0.1-1.3-0.1-2.1 0.1-1.8zm46.3 3.4c0.1 0.1-0.9 1.3-2.4 2.6l-2.5 2.5 2.4-2.6c1.3-1.4 2.4-2.6 2.5-2.5zm-44.5 3.1c0.1 0.4 0.4 1.1 0.7 1.4 0.4 0.5 0.4 0.5-0.3 0.1-0.3-0.3-0.6-1-0.6-1.4 0-0.9 0-0.9 0.2-0.1zm1.1 2l1.9 1.7c1 0.9 2.2 1.7 2.7 1.9 0.5 0.2 0.8 0.4 0.7 0.5-0.4 0.3-2.5-1-3.9-2.5zm36.2 0.5c0.1 0-0.2 0.4-0.6 0.8-0.4 0.5-1 0.8-1.3 0.8-0.4 0-1.2 0.4-1.9 0.8-1.3 0.8-3.5 1.3-3.1 0.8 0.1-0.2 0.5-0.4 1-0.4 0.4 0 1.3-0.3 2-0.8 0.8-0.4 1.6-0.8 2-0.8 0.4 0 0.9-0.2 1.1-0.6 0.3-0.3 0.6-0.6 0.8-0.6zm-20.4 4.5c0 0 0 0.1-0.2 0.3-0.1 0.2-1.4 0.4-2.9 0.4l-2.7-0.1 2.8-0.3c1.6-0.1 2.9-0.3 3-0.3zm3.1 0.3c1.4 0.2 1.5 0.2 0.4 0.3-0.6 0.1-1.3 0-1.5-0.2-0.2-0.2 0.3-0.2 1.1-0.1z"/>
	</g>
</svg>