<svg version="1.2" xmlns="http://www.w3.org/2000/svg" viewBox="0 0 36 36" width="24" height="24">
	<title>hotstar-svg</title>
	<style>
		.s0 { fill: #020203 } 
		.s1 { fill: #000000 } 
	</style>
	<path id="path_0" fill-rule="evenodd" class="s0" d="m16.2 17.3c0.4 0 0.8 0.1 1 0.2 0.2 0.1 0.3 0.2 0.4 0.4 0.2 0.3 0.2 0.9 0 1.2-0.1 0.2-0.3 0.4-0.7 0.5-0.2 0.1-0.4 0.2-0.9 0.2-0.4 0-1 0-1.5-0.2-0.2-0.1-0.5-0.3-0.8-0.7-0.1-0.2-0.1-0.5 0-0.8 0.2-0.3 0.7-0.3 1.2-0.3 0.2 0 0.8 0.1 1 0.2 0.1 0 0.3 0.1 0.5 0.2v0.1c-0.2 0.2-0.6 0.4-0.8 0.4-0.3 0-0.5-0.2-0.9-0.3-0.2 0-0.3-0.1-0.4-0.1-0.2 0-0.4 0-0.4 0.2 0 0.2 0.1 0.3 0.2 0.3 0.2 0.1 0.3 0.1 0.6 0.1 0.7 0 1.3-0.1 1.8-0.5 0.1 0 0.1-0.1 0.1-0.2 0-0.2-0.4-0.3-0.4-0.3-0.3-0.1-1-0.2-1.3-0.2-0.4 0-1-0.1-1.1-0.1-0.1 0-0.2 0-0.4-0.1-0.1 0-0.2-0.2-0.2-0.3q0-0.1 0-0.1c0 0.4 0 0.8 0 1 0 0.2 0 0.6 0 0.9 0 0.2 0 0.5 0 0.8 0 0.1-0.1 0.2-0.1 0.2-0.1 0-0.3 0.1-0.4 0-0.2 0-0.3-0.2-0.3-0.4-0.1-0.7 0-1.8 0-2.4 0-0.2 0.1-0.8 0.2-1 0-0.2 0-0.3 0.1-0.3q0.2 0 0 0c0.3 0.1 0.4 0.2 0.4 0.4q0 0.2 0 0.5 0.1-0.2 0.2-0.4c0.3-0.4 1.1-0.7 1.8-0.8 0.5-0.1 1.6-0.1 2.2 0.2 0.1 0 0.1 0.1 0.1 0.2 0 0.2-0.2 0.3-0.3 0.3-0.2 0-0.5 0.1-0.7 0.1-0.8 0-1.5 0-2.3 0.2 0 0-0.1 0-0.2 0.1-0.1 0.1 0.2 0.1 0.2 0.1zm-4-2.2c0 0-0.1 0.1-0.1 0.2 0 0 0 0.1-0.1 0.1-0.1 0.1-0.1 0.1-0.2 0-0.1-0.1-0.2-0.2-0.2-0.4 0-0.1 0-0.1 0-0.2 0-0.1-0.2-0.2-0.3-0.3-0.1-0.1-0.1-0.3-0.1-0.4 0-0.4 0.2-0.9 0.5-1.1 0.2-0.3 0.5-0.5 1-0.7 0.3-0.2 1-0.3 1.3-0.2 0.1 0 0.3 0.2 0.4 0.3 0 0 0 0 0 0.1h0.1c0.1 0 0.3 0.1 0.3 0.2 0.1 0.1 0.3 0.2 0.3 0.4 0.1 0.3-0.2 0.9-0.4 1.1-0.4 0.4-0.8 0.7-1.3 0.9-0.3 0.1-0.6 0.2-0.9 0.1-0.1 0-0.1 0-0.2 0 0.2 0 0-0.1-0.1-0.1zm0.9-0.6c0.4 0 0.8-0.1 1-0.2 0.3-0.1 0.7-0.5 0.7-1 0-0.1-0.1-0.2-0.2-0.2q-0.1 0-0.3 0c-0.1 0-0.2 0-0.3 0.1-0.3 0.2-0.9 0.5-1.1 1-0.1 0.1-0.1 0.1-0.1 0.2v0.1c-0.1 0 0.2 0 0.3 0zm-1.2-0.3c0 0 0.1-0.1 0.2-0.4 0.2-0.2 0.4-0.5 0.7-0.8 0.1-0.1 0.1-0.1 0.1-0.1 0 0-0.1 0-0.2 0-0.2 0-0.4 0.2-0.5 0.3-0.2 0.3-0.4 0.5-0.3 1zm0 3.1c0 0.3 0 0.6 0 0.8 0 0.2-0.1 0.3-0.1 0.4-0.1 0.1-0.1 0.3-0.2 0.4-0.2 0.3-0.5 0.6-0.6 0.9-0.7 0.5-1.7 0.9-2.6 1.1-0.6 0.1-1.4 0.1-2.1 0-0.2 0-0.5-0.2-0.5-0.2 0 0 0 0.2 0 0.3 0 0 0 0.1 0 0.2 0 0.1-0.1 0.1-0.2 0.2-0.1 0-0.2 0-0.4 0-0.2-0.1-0.2-0.2-0.3-0.4 0-0.3-0.1-0.5-0.1-0.5 0 0-0.2-0.1-0.3-0.1-0.5-0.3-1-0.5-1.3-0.7-0.1-0.1-0.5-0.3-0.6-0.4-0.2-0.3-0.4-0.5-0.7-0.9-0.1-0.2-0.1-0.4-0.1-0.7 0.1-0.4 0.5-0.6 0.9-0.9 0.2-0.1 1.1-0.3 1.4-0.4 0.1 0 0.3-0.1 0.3-0.1 0 0 0-0.3 0-0.4 0-0.1 0.1-1 0.1-1.2 0-0.1 0.1-0.4 0.1-0.5 0-0.1 0.2 0 0.3 0 0.3 0.2 0.4 1 0.4 1.3 0 0.3 0 0.6 0 0.6 0 0 0.4 0 0.7 0 0.3 0 0.6 0 0.9 0.1 0.3 0 1 0.2 1.4 0.3 0.3 0.1 0.5 0.4 0.7 0.7 0.1 0.3 0.1 0.5 0 0.8-0.1 0.2-0.4 0.4-0.7 0.4-0.1 0-0.5 0-0.5-0.1v-0.1c0 0 0.1-0.1 0.2-0.1 0 0 0.2 0 0.2-0.1 0.1-0.2 0.1-0.2 0.1-0.3 0-0.1-0.1-0.2-0.3-0.2-0.4-0.3-1.4-0.4-2.1-0.4-0.2 0-0.4 0-0.4 0v2.8c0 0 0.2 0 0.4 0.1 0.1 0 0.6 0 0.8 0 0.9 0 1.8 0 2.6-0.4 0.3-0.1 0.8-0.3 1-0.8 0.3-0.3 0.4-0.9 0.4-1.3 0-0.6-0.4-1.3-0.8-1.7-1-1.2-2.4-2.2-3.8-2.6-1.3-0.5-2.6-0.9-4-0.9-0.3 0-1.2 0-1.6 0.1 0 0 0 0 0.1 0 0.1 0 0.1 0 0.2 0.1v0.1c-0.1 0.1-0.4 0.1-0.5 0.1-0.1 0-0.3-0.1-0.3-0.2 0-0.1 0-0.4 0.1-0.5 0.1-0.4 0.3-0.5 0.7-0.6 0.5-0.1 1.2-0.2 1.6-0.2 1.1 0 2.1 0.1 3.2 0.4 0.3 0.3 1.2 0.5 1.7 1 0.3 0.2 1.1 0.5 1.4 0.8 0.1 0.1 0.8 0.6 0.9 0.8 0.3 0.2 0.5 0.4 0.8 0.5 0.3 0.3 0.9 1 1.2 1.5 0 0.1 0.1 0.2 0.2 0.3l0.1 0.3c0 0.1 0 0 0 0.2 0 0 0 0.2 0 0.3zm-7.5-0.3c0 0-0.3 0-0.7 0-0.3 0-1.1 0.1-1.4 0.2-0.1 0-0.3 0.1-0.3 0.3 0 0.1 0 0.2 0.1 0.3l0.3 0.3c0.3 0.2 1.1 0.7 1.5 0.9 0.1 0.2 0.4 0.2 0.4 0.2 0 0 0-0.9 0-1.6 0.1-0.1 0.1-0.6 0.1-0.6zm20.9-0.3c-0.5 0.1-1.7 0.1-1.7 0.1l-0.2 0.4c0 0 0.8 0 1.2 0 0 0 0.1 0 0.1 0.3q0 0.3 0 0.3c0 0 0 0.1-0.2 0.1-0.2 0-1.4 0.1-1.4 0.1l-0.2 0.7c0 0-0.1 0.1 0.1 0.1 0.1 0 1.4-0.2 1.6-0.2 0.2 0 0.3 0.2 0.3 0.4-0.1 0.3-1.3 1.1-2.1 1.1 0 0-0.4 0-0.8-0.5-0.4-0.6 0.1-1.4 0.1-1.4 0 0-0.2-0.4 0-0.5 0 0 0.1-0.1 0.3-0.1l0.3-0.8c0 0-0.3 0-0.5-0.2-0.2-0.2-0.2-0.3-0.1-0.4 0.1-0.1 1.6-0.3 2.6-0.3 0 0 0.3 0 0.8 0.5-0.1 0 0.1 0.2-0.2 0.3zm-3.9 2.5c-0.1 0.3-0.4 0.7-0.9 0.4-0.5-0.2-1.2-1.6-1.2-1.6 0 0-0.2-0.4-0.3-0.4 0 0 0-0.1-0.1 0.4-0.1 0.5 0 1.6-0.2 1.8-0.2 0.2-0.5 0.1-0.6-0.1-0.1-0.2-0.1-0.8-0.1-1.5 0.1-0.9 0.2-1.7 0.6-2 0.2-0.2 0.4-0.1 0.5 0 0 0 0.3 0.3 0.9 1.1l0.2 0.2c0 0 0.4 0.8 0.5 0.8 0 0 0 0 0.1 0v-0.2c0 0-0.2-1-0.8-2.4 0 0-0.1-0.3 0-0.4 0-0.2 0.3-0.1 0.3-0.1 0 0 0.7 0.3 1 1.5 0.4 1.2 0.2 2.2 0.1 2.5zm7.6-0.7c-0.4 0.5-1.3 1.7-2.5 1.5-0.3 1-0.7 2-0.9 3.4 0 0 0 0.2-0.2 0.2-0.3-0.1-0.6-0.4-0.8-1-0.1-0.8 0.2-1.9 1-3.3-0.2-0.4-0.3-0.8-0.2-1.4 0 0 0.1-1.2 1.2-2.2 0 0 0.1-0.2 0.2-0.2 0.1 0 0 0.5 0 0.6-0.1 0.2-0.5 1-0.5 1 0 0-0.3 0.6-0.2 1.1 0.5-1 2-2.8 2.8-2.2 0.2 0.2 0.4 0.7 0.4 1.1 0 0.7-0.1 1.2-0.3 1.4zm-0.2-1.4c0 0 0-0.3-0.5 0-0.3 0.4-0.9 1.1-1.2 1.8 0.4 0 0.9-0.3 1-0.4 0.1-0.1 0.8-0.7 0.7-1.4zm7.2 0.1v0.5c0 0.1-0.1 0.2-0.2 0.2h-2.3q0 0.1 0 0.3c0 0.6 0 1.3-0.1 1.8-0.1 0-0.1 0.1-0.2 0.1h-0.5v-0.1c0.1-0.6 0.1-1.1 0.1-1.8q0-0.2 0-0.3h-2.2c-0.1 0-0.3-0.1-0.3-0.2v-0.5c0-0.1 0.2-0.2 0.3-0.2h2.1c0-0.8-0.1-1.5-0.2-2.2v-0.1h0.5c0 0 0.1 0 0.1 0.1 0.1 0.7 0.2 1.5 0.2 2.2h2.3c0.1 0 0.2 0.1 0.4 0.2z"/>
	<path id="path_1" class="s0" d="m32.8 13.5c-1.2-2.8-3.1-5.1-5.4-7-2.6-1.5-5.4-2.5-8.6-2.5-5.1 0-9.9 2.5-12.6 6.7v0.1c0 0.1 0.1 0.1 0.1 0.1l0.3 0.1c0 0 0 0 0.1 0 0.1 0 0.1 0 0.2-0.1 1.3-1.8 3-3.5 5.1-4.6 2.1-1.1 4.5-1.7 6.9-1.7 2.9 0 5.7 0.9 8 2.5 2.3 1.5 4.1 3.7 5.2 6.4 0 0.1 0.1 0.1 0.2 0.1h0.4c0 0 0.1 0 0.1-0.1q0.2 0.1 0 0z"/>
	<path id="path_2" fill-rule="evenodd" class="s1" d="m27 25c0.8 0 1.5 0.3 1.8 1v-0.9h1v5.6h-1v-0.9c-0.3 0.7-1.1 1-1.8 1-1.6 0-2.9-1.2-2.9-2.8 0-1.7 1.3-3 2.9-3zm-16.2 5.7c-1.6 0-2.8-1.3-2.8-2.9 0-1.5 1.2-2.8 2.8-2.8 1.6 0 2.9 1.3 2.9 2.8 0 1.6-1.3 2.9-2.9 2.9zm8.2-5.7c1 0 1.6 0.6 1.6 1.6h-1.1c0-0.3-0.2-0.7-0.7-0.7-0.3 0-0.5 0.2-0.5 0.5 0 0.4 0.4 0.5 1 0.9 0.9 0.2 1.5 0.7 1.5 1.7 0 1-0.8 1.7-1.8 1.7-0.9 0-1.8-0.8-1.8-1.9h1.1c0 0.8 0.3 1 0.9 1 0.4 0 0.9-0.3 0.9-0.7 0-0.4-0.2-0.6-1-0.9-1.3-0.4-1.5-1-1.5-1.6-0.3-0.8 0.5-1.6 1.4-1.6zm-16.9-1.6c0.6 0 1.1 0.5 1.1 1.1v1.4c0.3-0.6 0.8-0.8 1.5-0.8 1.2 0 2.2 0.9 2.2 2.4v3.3h-1.1v-2.9c0-1.2-0.4-1.7-1.3-1.7-1 0-1.4 0.7-1.4 1.7v2.9h-1zm13.7 1.8h1v0.8h-1v4.6c-0.5 0-1-0.4-1-1.1v-3.5h-0.5v-0.9h0.5v-1.8h1zm7.1 0h1v0.8h-1v4.6c-0.5 0-1-0.5-1-1.1v-3.5h-0.4v-1h0.4v-1.8h1zm10.6-0.2v1.1c-1 0-1.3 0.5-1.3 1.5v2c0 0.5-0.4 1.1-1.1 1.1v-5.5h1v0.5c0.3-0.5 0.7-0.7 1.4-0.7zm-4.6 2.9c0-1.1-0.9-1.9-1.9-1.9-1 0-1.9 0.8-1.9 1.9 0 1.1 0.9 1.9 1.9 1.9 1 0 1.9-0.8 1.9-1.9zm-18.2-1.9c-1 0-1.8 0.9-1.8 2 0 0.1 0 0.3 0 0.4 0.2 0.9 1.1 1.5 1.8 1.4 1.1 0 1.8-0.9 1.8-2 0.1-1-0.7-1.8-1.8-1.8z"/>
</svg>