<svg version="1.2" xmlns="http://www.w3.org/2000/svg" viewBox="0 0 108 108" width="24" height="24">
	<title>iceraven-svg</title>
	<style>
		.s0 { fill: #000000 } 
	</style>
	<path id="path_1" class="s0" d="m28.7 22.1l2.3-2.7q0 0 0.1 0l2.4-2.5q0 0 0.1-0.1l2.6-2.2 2.8-2q0 0 0-0.1l2.9-1.7q0.1-0.1 0.1-0.1l3-1.5q0 0 0.1-0.1l3.2-1.1q0-0.2 0.1-0.2l3.1-0.8q0.2 0 0.2 0l3.2-0.8q0.1 0 0.1 0l3.4-0.4q0 0 0.1 0l3.3-0.1q0.1 0 0.1 0l3.3 0.2q0 0 0.2 0l3.2 0.5q0.1 0 0.1 0l3.3 0.8q0.1 0 0.1 0l3.2 1q0 0.1 0 0.1l3.2 1.2q0 0 0.1 0.1l2.9 1.6q0.1 0 0.1 0l3 1.9 2.8 2.2 2.5 2.3 2.4 2.6q0 0 0.1 0l2.2 2.7q0 0.1 0 0.1l2 2.9 1.5 2.9q0.2 0.2 0.2 0.2l1.3 3q0 0.1 0.1 0.1l1.1 3.1q0 0 0 0.2l1.1 3.2q0 0 0 0.1l0.6 3.3q0 0 0 0.1l0.5 3.3q0 0.1 0 0.1l0.2 3.3q0 0.1 0 0.1l-0.1 3.4q0 0.1 0 0.1l-0.2 3.4q0 0-0.2 0.1l-0.5 3.3q0 0.1 0 0.1l-0.8 3.2q0 0 0 0.1l-1 3.2q-0.1 0.1-0.1 0.1l-1.3 3.2q0 0 0 0.1l-1.5 2.9q0 0.1 0 0.1l-1.8 2.8q0 0.1 0 0.1l-1.9 2.7q-0.1 0-0.1 0.1l-2.2 2.5c-0.4 0.6-1.2 0.6-1.7 0.1-0.5-0.4-0.5-1.2-0.1-1.8l2.2-2.6-0.2 0.1 2.1-2.7-0.1 0.2 1.6-2.9 1.5-2.9v0.1l1.2-3.1v0.1l1-3.1v0.1l0.8-3.3 0.6-3.2v0.1l0.3-3.4v0.1-3.4 0.2l-0.2-3.4v0.1l-0.4-3.4 0.1 0.1-0.7-3.2-1-3.2h0.1l-1.2-3h0.1l-1.5-3 0.1 0.1-1.7-2.9 0.2 0.1-2.1-2.9 0.1 0.1-2.1-2.7v0.1l-2.2-2.6v0.1l-2.5-2.2-2.7-2h0.1l-2.8-1.8-2.9-1.6 0.1 0.1-3.1-1.3h0.1l-3.2-1.1h0.1l-3.3-0.7 0.1 0.1-3.3-0.6 0.1 0.1-3.3-0.2h0.1l-3.4 0.1h0.1l-3.4 0.3h0.2l-3.3 0.7h0.1l-3.2 0.9h0.1l-3.2 1.3h0.1l-3 1.4 0.1-0.1-2.9 1.8h0.1l-2.8 1.9h0.1l-2.6 2.3 0.1-0.2-2.4 2.5 0.1-0.1-2.1 2.7c-0.5 0.6-1.3 0.6-1.8 0.1-0.5-0.4-0.6-1.3-0.2-1.8z"/>
	<path id="path_3" class="s0" d="m47.5 1c-7.1 0.1-14.5 2.5-17.9 4.3-14 7.9-20.2 14.8-29.6 25l9.9-7.1c-4.6 6.4-7.9 15.8-8.3 26.3-0.3 5 0.3 13.9 3.1 20.7 3.5 8.3 7.3 12.9 11.5 16.1q0.1 0.2 0.3 0.3l2.1 1.4c9.1 3.2 15.6 4.3 23.3 4.3 2.2 0 4.5-0.2 6.4-0.7 6.2-1.4 11.4-5.4 16.6-10.6 2.8-3.2 5.2-7.3 7.1-12.8 2.2-6.3 2.9-11.5 2-17.1-3.3 4.5-6.2 4.8-6.3 4.8 0 0 6.1-10.5 8.2-19.3q-11.3 9.7-20.9 11.8c-4 0.9-7.7 1.4-11.1 1.4q-6.4 0-11.1-2.3c-3.6-7.8-4.4-14.6-2.1-20.6 1-2.7 2.5-5.1 4.4-7.5zm50.2 27.2c3.6 12.2 5.4 18.5-0.2 32.4-6.5 16-16.8 20.3-25.5 20.9-6.5 7.2-13.7 13.5-22.4 15.5-2.5 0.7-5 0.9-7.6 0.9q-2.8 0-5.7-0.3l-8.1-1.2c4.1 3.4 14 8 19.1 9.1 4.4 0.7 10.8 0.8 14.7 0.8 21.7 0 37.5-15.2 44.1-36.8 4.1-13.5 0.9-29-1.5-39.8l-0.1 12.1z"/>
</svg>