<svg version="1.2" xmlns="http://www.w3.org/2000/svg" viewBox="0 0 24 24" width="24" height="24">
	<title>instagram-svg</title>
	<style>
		.s0 { fill: #000000 } 
	</style>
	<path id="Layer" fill-rule="evenodd" class="s0" d="m20.6 0.6q1 0.3 1.7 1.1 0.8 0.7 1.1 1.7c0.2 0.5 0.4 1.3 0.5 2.7 0.1 1.5 0.1 2 0.1 5.9 0 3.9 0 4.4-0.1 5.9-0.1 1.4-0.3 2.2-0.5 2.7q-0.4 1-1.1 1.7-0.7 0.7-1.7 1.1c-0.5 0.2-1.3 0.4-2.7 0.5-1.5 0.1-2 0.1-5.9 0.1-3.9 0-4.4 0-5.9-0.1-1.4-0.1-2.2-0.3-2.7-0.5q-1-0.3-1.7-1.1-0.8-0.7-1.1-1.7c-0.2-0.5-0.4-1.3-0.5-2.7-0.1-1.5-0.1-2-0.1-5.9 0-3.9 0-4.4 0.1-5.9 0.1-1.4 0.3-2.2 0.5-2.7q0.3-1 1.1-1.7 0.7-0.8 1.7-1.1c0.5-0.2 1.3-0.4 2.7-0.5 1.5-0.1 2-0.1 5.9-0.1 3.9 0 4.4 0 5.9 0.1 1.4 0.1 2.2 0.3 2.7 0.5zm1 3.6c0-1-0.8-1.8-1.8-1.8-1 0-1.7 0.8-1.7 1.8 0 1 0.7 1.7 1.7 1.7 1 0 1.8-0.7 1.8-1.7zm-9.6 0.3c-1.5 0-2.9 0.4-4.2 1.3-1.2 0.8-2.2 1.9-2.7 3.3-0.6 1.4-0.8 2.9-0.5 4.4 0.3 1.4 1 2.8 2.1 3.8 1 1.1 2.4 1.8 3.8 2.1 1.5 0.3 3 0.1 4.4-0.5 1.3-0.5 2.5-1.5 3.3-2.7 0.9-1.3 1.3-2.7 1.3-4.2 0-2-0.8-3.9-2.2-5.3-1.4-1.4-3.3-2.2-5.3-2.2zm0 12.4c-1 0-1.9-0.3-2.7-0.8-0.8-0.6-1.4-1.3-1.8-2.2-0.4-0.9-0.5-1.9-0.3-2.9 0.2-0.9 0.7-1.8 1.4-2.5 0.6-0.6 1.5-1.1 2.4-1.3 1-0.2 2-0.1 2.9 0.3 0.9 0.4 1.6 1 2.2 1.8 0.5 0.8 0.8 1.7 0.8 2.7 0 1.3-0.5 2.5-1.4 3.4-1 1-2.2 1.5-3.5 1.5z"/>
</svg>