<svg version="1.2" xmlns="http://www.w3.org/2000/svg" viewBox="0 0 400 400" width="24" height="24">
	<title>kanade-svg</title>
	<style>
		.s0 { fill: #000000 } 
	</style>
	<g id="svgg">
		<path id="path0" fill-rule="evenodd" class="s0" d="m64 0l45.6 0.3 0.3 11.2c0.2 6.1 0.4 11.2 0.5 11.3 0.1 0.1 5 0.2 11 0.2 5.9 0 10.9-0.1 10.9-0.2 0.1-0.1 0.3-5.2 0.5-11.3l0.4-11.2h137.8l0.6 22.4h21.7l0.4-11.2c0.2-6.1 0.4-11.2 0.4-11.3 0.1-0.1 10.4-0.2 22.8-0.2h22.7v54.5c0 34.6 0.2 55.1 0.6 56.2l0.6 1.7 9.3-0.2 9.2-0.2v33.9 34h-318.3v-67.6h11.1c9.5 0 11.1-0.1 11.5-1 0.2-0.6 0.4-25.8 0.4-56.2zm137.8 24.3h-68.1l-0.4 2c-0.3 1.1-0.4 5.7-0.4 10.1 0 11.2 1.1 10.2-11.6 10.2-5.9 0-10.8 0.1-10.9 0.2 0 0.1-0.2 4.9-0.4 10.7l-0.4 10.5-21.9 0.3-0.4 2c-0.2 1.1-0.4 10.6-0.4 21.2 0 24.9 1.5 22.1-11.5 22.1-10.5 0-10.7 0-11 1.4-0.5 1.9-0.6 40.9 0 42.3 0.5 1.5 274.8 1.5 275.4 0 0.5-1.4 0.5-40.4 0-42.3-0.4-1.4-0.5-1.4-11.5-1.4h-11.1v-20.5c0-14.4-0.2-21.2-0.7-22.7l-0.8-2.1h-21.3l-0.4-2.4c-0.2-1.3-0.4-5.5-0.4-9.4 0-10.8 1.1-9.9-11.2-9.9-12.5 0-11.3 1.2-11.8-11.8-0.2-5.6-0.5-10.3-0.5-10.3 0-0.1-30.8-0.2-68.3-0.2zm-103.4 0h-10.7l-0.4 2c-0.5 2.5-0.5 16.7 0 18 0.4 0.9 1.9 1 11.1 1h10.7l0.3-9c0.1-5 0.1-9.8 0-10.6-0.3-1.4-0.4-1.4-11-1.4zm217.2 0h-20.6l-0.4 2.1c-0.2 1.1-0.3 5.8-0.2 10.3l0.2 8.3 10.4 0.2c7.2 0.1 10.7-0.1 11.3-0.6 1.2-0.9 1.3-16.1 0.1-18.6zm18.2 237h25.5v113.2h-25.5zm-292.8 0.4h24.9v112.9h-24.9zm292.5 115.4c0.2 0 0.3 5.2 0.3 11.5v11.5h-267.3v-21.7h133.3c88.5 0 133.4-0.2 133.4-0.6 0-0.4 0.1-0.7 0.3-0.7z"/>
		<path id="path2" fill-rule="evenodd" class="s0" d="m121.4 22.6c6.1 0 8.6 0.1 5.6 0.2-3.1 0.1-8.1 0.1-11.2 0-3.1-0.1-0.6-0.2 5.6-0.2zm161.1 0c5.9 0 8.4 0.1 5.6 0.2-2.9 0.1-7.8 0.1-10.9 0-3.1-0.1-0.7-0.2 5.3-0.2zm-184.1 22.3c6.2 0 8.7 0.1 5.6 0.2-3.1 0.2-8.1 0.2-11.2 0-3-0.1-0.5-0.2 5.6-0.2zm207 0c6 0 8.5 0.1 5.6 0.2-2.8 0.2-7.7 0.2-10.8 0-3.1-0.1-0.7-0.2 5.2-0.2zm-160.5 43.9l14.4 0.2 0.2 11.8c0.1 6.5 0 12.7-0.2 13.9l-0.3 2.1h-27.8l-0.8-2.2c-0.8-2.2-1.1-24.7-0.3-25.5 0.3-0.2 6.9-0.4 14.8-0.3zm109.6-0.1h14.2v28.1h-28.5l-0.4-2c-0.5-2.7-0.5-25.1 0-25.7 0.3-0.2 6.9-0.4 14.7-0.4zm-202.3 23.2c6.3 0 8.8 0.1 5.5 0.2-3.2 0.1-8.4 0.1-11.5 0-3-0.1-0.4-0.2 6-0.2zm297.6 0c5 0 7.1 0.1 4.6 0.2-2.6 0.1-6.7 0.1-9.3 0-2.5-0.1-0.4-0.2 4.7-0.2zm-147.7 46c75.8 0 106.9 0.1 69.1 0.2-37.8 0.1-99.8 0.1-137.8 0-38-0.1-7.1-0.2 68.7-0.2zm-1.8 48.8h13.6v40.7c0 30.8 0.2 40.9 0.7 41.5 0.6 0.5 4.8 0.7 14.7 0.7h13.9v11.7c0 6.4-0.2 12.7-0.4 14l-0.4 2.4h-13.9c-12 0-13.9 0.1-14.2 1-0.2 0.6-0.4 7-0.4 14.4v13.3h-27.3l-0.4-2c-0.2-1.1-0.4-7.5-0.4-14.3v-12.4h-28.7v-28.1h13.3c7.4 0 13.8-0.1 14.4-0.3 0.9-0.4 1-4.6 1-41.1 0-22.3 0.2-40.8 0.4-41.1 0.3-0.2 6.6-0.4 14.1-0.4zm-146.9 54.5c7.1 0 10 0.1 6.6 0.2-3.4 0.1-9.1 0.1-12.7 0-3.7-0.1-0.9-0.2 6.1-0.2zm75-0.3h28.7v11.7c0 6.4-0.2 12.7-0.4 14l-0.4 2.4h-27.1l-0.4-2c-0.2-1.1-0.4-7.4-0.4-14zm114.8 0h28.7v12.3c-0.1 6.7-0.3 12.9-0.5 13.8l-0.5 1.6h-27.4zm103.4 0.3c6.9 0 9.7 0.1 6.2 0.2-3.4 0.1-9 0.1-12.4 0-3.4-0.1-0.6-0.2 6.2-0.2zm-146.7 115.8c88.5 0 133.3 0.2 133.3 0.7 0 0.4-44.8 0.6-133.3 0.6-88.5 0-133.3-0.2-133.3-0.6 0-0.5 44.8-0.7 133.3-0.7z"/>
	</g>
</svg>