<svg version="1.2" xmlns="http://www.w3.org/2000/svg" viewBox="0 0 108 108" width="24" height="24">
	<title>keygaurd-svg</title>
	<style>
		.s0 { fill: #000000;stroke: #000000 } 
	</style>
	<path id="path_0" class="s0" d="m58.1 0c19 0 34.5 15.4 34.5 34.5v16.1h-13.8v-16.1c0-11.2-9-20.4-20.1-20.7h-0.6-6.9c-11.2 0-20.4 8.9-20.7 20v0.7 16.1h-13.8v-16.1c0-19.1 15.5-34.5 34.5-34.5z"/>
	<path id="path_1" fill-rule="evenodd" class="s0" d="m83.4 43.7c4.9 0 8.9 3.8 9.2 8.7v21.9c0 18.6-15.1 33.7-33.8 33.7h-8.4c-18.6 0-33.7-15.1-33.7-33.7v-21.4c0-5.1 4.1-9.2 9.2-9.2zm-28.7 13.7c-7 0-12.6 5.4-12.6 12.1 0 4.8 2.9 9 7.2 10.9v8.1c0 1.9 1.5 3.4 3.4 3.4h4c1.9 0 3.4-1.5 3.4-3.4v-8.1c4.3-1.9 7.2-6.1 7.2-10.9 0-6.7-5.6-12.1-12.6-12.1z"/>
</svg>