<svg version="1.2" xmlns="http://www.w3.org/2000/svg" viewBox="0 0 400 400" width="24" height="24">
	<title>kite-svg</title>
	<style>
		.s0 { fill: #fcfcfc } 
		.s1 { fill: #000000 } 
	</style>
	<g id="svgg">
		<path id="path0" class="s0" d=""/>
		<path id="path1" fill-rule="evenodd" class="s1" d="m130.3 65.5l134.9-0.1c117.4-0.1 134.8 0.1 134.8 1.5 0 1.7-266.1 268.6-267.8 268.6-0.5 0-2-1.2-3.3-2.6-1.4-1.4-3.7-3.7-5.1-5.1-1.5-1.4-3.2-3.2-4-4-0.8-0.8-2-2.1-2.9-2.9-0.8-0.7-2-2-2.7-2.8-0.7-0.8-2.5-2.6-4-4-1.5-1.4-3.4-3.1-4.1-3.9-0.7-0.7-2.6-2.6-4.1-4.2-1.6-1.5-3.4-3.3-4-4-0.7-0.6-2.6-2.5-4.2-4.1-1.7-1.7-3.6-3.6-4.2-4.2-0.6-0.6-2.3-2.4-3.7-3.9-1.4-1.5-3.2-3.3-4-4-0.8-0.7-2.1-1.9-2.9-2.8-0.7-0.8-2-2.1-2.8-2.8-0.8-0.8-2.7-2.6-4.2-4.1-1.5-1.5-3.2-3.2-3.8-3.8-0.6-0.7-2.5-2.5-4-4.1-1.6-1.5-3.4-3.3-4-4-0.7-0.6-2.4-2.3-3.9-3.8-1.5-1.5-3.3-3.3-4-4.2-1.3-1.3-10-10-13.9-13.8-0.8-0.7-2.7-2.7-4.3-4.2-1.6-1.6-3.4-3.4-4-4-0.7-0.7-2.5-2.5-4-4.1-1.6-1.5-3.4-3.3-4-4-0.7-0.6-2.3-2.2-3.7-3.6-1.4-1.4-3.2-3.2-3.9-4-0.8-0.9-3.9-4-6.9-7-12.7-12.5-18.3-4.5 57.2-80.3zm150.9 145.9c5.7 6 22.8 23.2 44.2 44.4 0.7 0.7 7.4 7.5 15 15.1 7.6 7.5 14.1 14.1 14.6 14.5 1.2 1.2 6.7 6.6 8 8.1 1.5 1.5 28.2 28.2 30 29.9 0.7 0.7 2.6 2.5 4.1 3.9 1.6 1.4 2.8 3.9 2.8 5.4v2.9h-254.2v-2.4c0-1.5 20.8-23.1 62.2-64.6 69.6-69.8 64.7-66 73.3-57.2z"/>
	</g>
</svg>