<svg version="1.2" xmlns="http://www.w3.org/2000/svg" viewBox="0 0 24 24" width="24" height="24">
	<title>kiwi-svg</title>
	<style>
		.s0 { fill: #000000 } 
	</style>
	<g id="Layer_2">
		<path class="s0" d="m9.2 7.7q-0.3-0.1-0.6-0.2-0.3 0-0.6-0.1-0.3 0-0.6 0-0.3 0-0.7 0.1-0.4 0.1-0.9 0.2-0.4 0.2-0.9 0.4-0.4 0.2-0.8 0.5-0.4 0.3-0.7 0.6 0 0-0.1 0.1 0 0 0 0-0.1 0.1-0.1 0.1 0 0 0 0.1-0.2 0.2-0.4 0.4-0.1 0.3-0.3 0.6-0.1 0.2-0.2 0.5-0.1 0.3-0.2 0.6-0.1 0.4-0.1 0.9-0.1 0.4 0 0.9 0 0.4 0.1 0.8 0.1 0.5 0.3 0.9 0.1 0.1 0.1 0.3 0.1 0.1 0.2 0.3 0.1 0.1 0.2 0.2 0 0.2 0.1 0.3 0.1 0.1 0.2 0.2 0.1 0.1 0.1 0.2 0.1 0.1 0.2 0.1 0.1 0.1 0.1 0.2 0.1 0.1 0.1 0.2 0.1 0.1 0.1 0.2 0 0.1 0 0.3 0.1 0.1 0.1 0.2-0.1 0.3-0.1 0.6-0.1 0.3-0.1 0.6-0.1 0.3-0.1 0.6-0.1 0.3-0.1 0.6l-0.1-0.1q-0.1-0.1-0.2-0.2-0.1-0.1-0.2-0.2 0-0.1-0.1-0.2-0.1-0.1-0.2-0.2-0.3-0.4-0.6-0.8-0.2-0.2-0.3-0.5-0.2-0.2-0.3-0.5-0.1-0.2-0.3-0.5-0.1-0.3-0.2-0.5 0-0.1-0.1-0.2 0 0 0-0.1 0-0.1-0.1-0.1 0-0.1 0-0.2-0.1-0.3-0.2-0.5-0.1-0.2-0.1-0.3 0-0.1-0.1-0.3 0-0.1 0-0.2 0-0.1-0.1-0.3c0-0.1 0-0.2 0-0.3-0.1-0.1-0.1-0.6-0.2-0.9q0-0.2 0-0.3 0-0.2-0.1-0.4 0-0.1 0-0.3 0-0.1 0-0.3c0-3.5 1.5-6.8 4.2-9.1 2.6-2.3 6.2-3.3 9.6-2.8 3.5 0.6 6.5 2.6 8.4 5.5 1.8 3 2.3 6.7 1.2 10q-0.1 0.5-0.3 1-0.1 0.1-0.1 0.2-0.1 0.1-0.1 0.2-0.1 0.1-0.1 0.2-0.1 0.1-0.1 0.2 0 0 0 0.1-0.1 0-0.1 0.1 0 0 0 0.1-0.1 0-0.1 0-0.1 0.2-0.2 0.4-0.1 0.2-0.2 0.4-0.1 0.2-0.3 0.3-0.1 0.2-0.2 0.4l-0.4 0.4-0.3 0.5q-0.2 0.2-0.5 0.4-0.2-1.2-0.7-2.4-0.5-1.1-1.3-2.1-0.8-1-1.8-1.7-1-0.8-2.2-1.3l-0.7-0.2q-0.1 0-0.2-0.1-0.2-0.1-0.3-0.2-0.1-0.1-0.1-0.2-0.1-0.1-0.2-0.2 0-0.1 0-0.2-0.1-0.1-0.1-0.2 0-0.1 0.1-0.3 0-0.1 0-0.2 0 0 0.1-0.1 0 0 0-0.1 0.1 0 0.1-0.1 0.1 0 0.1 0c1.4-1.2 1.2-1.4 5.6-3.4 1.2-0.6 2.2-0.7 2.2-0.9q-1-0.1-1.9-0.1-1 0.1-2 0.3-0.9 0.1-1.9 0.5-0.9 0.3-1.8 0.8-0.2 0.1-0.5 0.3-0.2 0.1-0.5 0.2-0.3 0.1-0.6 0.1-0.3 0.1-0.6 0.1-0.2-0.1-0.3-0.1-0.2-0.1-0.3-0.1-0.2-0.1-0.3-0.2-0.2 0-0.3-0.1-0.1-0.1-0.2-0.1-0.1-0.1-0.2-0.1-0.1-0.1-0.2-0.1-0.1-0.1-0.2-0.1z"/>
		<path class="s0" d="m9.3 11.1q0 0.3-0.2 0.5-0.2 0.2-0.5 0.2-0.3 0-0.5-0.2-0.2-0.2-0.2-0.5 0-0.3 0.2-0.5 0.2-0.2 0.5-0.3 0.3 0.1 0.5 0.3 0.2 0.2 0.2 0.5z"/>
	</g>
</svg>