<svg version="1.2" xmlns="http://www.w3.org/2000/svg" viewBox="0 0 24 24" width="24" height="24">
	<title>kustom-svg</title>
	<style>
		.s0 { fill: #000000 } 
	</style>
	<path id="Layer" fill-rule="evenodd" class="s0" d="m19.7 15.8q0 0.1 0 0.2v7.2q0 0.2-0.1 0.4-0.1 0.2-0.3 0.3-0.2 0.1-0.4 0.1c-0.7 0-1.3-0.2-1.9-0.5-0.6-0.4-1.1-0.9-1.4-1.4-0.4-0.6-0.6-1.3-0.6-2v-2.8l-4.3-4.4c-0.2-0.2-0.4-0.5-0.4-0.9 0-0.3 0.2-0.6 0.4-0.9l4.3-4.3v-2.9c0-0.7 0.2-1.4 0.6-2 0.3-0.5 0.8-1 1.4-1.4 0.6-0.3 1.2-0.5 1.9-0.5q0.2 0 0.4 0.1 0.2 0.1 0.3 0.3 0.1 0.2 0.1 0.4v7.1q0 0.1 0 0.2 0 0.3-0.1 0.5-0.1 0.3-0.3 0.5l-2.9 2.9 2.9 3c0.2 0.2 0.4 0.5 0.4 0.8zm-12.4 8.2h-2q-0.4 0-0.7-0.2-0.3-0.1-0.4-0.4-0.2-0.3-0.2-0.7v-21.4q0-0.4 0.2-0.7 0.1-0.3 0.4-0.4 0.3-0.2 0.7-0.2h2q0.4 0 0.7 0.2 0.3 0.1 0.5 0.4 0.1 0.3 0.1 0.7v21.4q0 0.4-0.1 0.7-0.2 0.3-0.5 0.4-0.3 0.2-0.7 0.2z"/>
</svg>