<svg version="1.2" xmlns="http://www.w3.org/2000/svg" viewBox="0 0 24 24" width="24" height="24">
	<title>lawncons-svg</title>
	<style>
		.s0 { fill: #000000 } 
	</style>
	<path id="Layer" class="s0" d="m0 16c0-1.5 1.2-2.7 2.7-2.7h5.3c1.5 0 2.7 1.2 2.7 2.7v5.3c0 1.5-1.2 2.7-2.7 2.7h-5.3c-1.5 0-2.7-1.2-2.7-2.7z"/>
	<path id="Layer" class="s0" d="m18.7 24c-3 0-5.4-2.4-5.4-5.3 0-3 2.4-5.4 5.4-5.4 2.9 0 5.3 2.4 5.3 5.4 0 2.9-2.4 5.3-5.3 5.3z"/>
	<path id="Layer" class="s0" d="m5.3 10.7c-2.9 0-5.3-2.4-5.3-5.4 0-2.9 2.4-5.3 5.3-5.3 3 0 5.4 2.4 5.4 5.3 0 3-2.4 5.4-5.4 5.4z"/>
	<path id="Layer" class="s0" d="m17.5 1.2c0.5-1 1.9-1 2.4 0l3.8 7c0.4 0.9-0.2 2-1.2 2h-7.7c-1 0-1.6-1.1-1.2-2z"/>
</svg>