<svg version="1.2" xmlns="http://www.w3.org/2000/svg" viewBox="0 0 24 24" width="24" height="24">
	<title>Lsposed-svg</title>
	<style>
		.s0 { fill: #fff1c0 } 
	</style>
	<path id="Layer" fill-rule="evenodd" class="s0" d="m23.6 16.8c0.5 0.6 0.5 1.4 0 2l-4.8 4.8c-0.6 0.5-1.4 0.5-2 0l-4.8-4.8-4.8 4.8c-0.6 0.5-1.4 0.5-2 0l-4.8-4.8c-0.5-0.6-0.5-1.4 0-2l4.8-4.8-4.8-4.8c-0.5-0.6-0.5-1.4 0-2l4.8-4.8c0.6-0.5 1.4-0.5 2 0l4.8 4.8 4.8-4.8c0.6-0.5 1.4-0.5 2 0l4.8 4.8c0.5 0.6 0.5 1.4 0 2l-4.8 4.8zm-12.6-10.6l-4.8-4.9-4.9 4.9 4.9 4.8zm-2.9 6.8c0.5 0.5 1.4 0.5 1.9 0 0.5-0.6 0.5-1.4 0-2-0.5-0.5-1.4-0.5-1.9 0-0.6 0.6-0.6 1.4 0 2zm2.9 2.9c0.5 0.5 1.4 0.5 1.9 0 0.5-0.6 0.5-1.4 0-2-0.5-0.5-1.4-0.5-1.9 0-0.6 0.6-0.6 1.4 0 2zm6.7 6.7l4.9-4.8-4.9-4.8-4.8 4.8zm-4.8-14.5c-0.6-0.5-1.4-0.5-2 0-0.5 0.5-0.5 1.4 0 1.9 0.6 0.6 1.4 0.6 2 0 0.5-0.5 0.5-1.4 0-1.9zm2.9 2.9c-0.6-0.5-1.4-0.5-2 0-0.5 0.5-0.5 1.4 0 1.9 0.6 0.6 1.4 0.6 2 0 0.5-0.5 0.5-1.4 0-1.9z"/>
</svg>