<svg version="1.2" xmlns="http://www.w3.org/2000/svg" viewBox="0 0 24 24" width="24" height="24">
	<title>magisk-svg</title>
	<style>
		.s0 { fill: #000000 } 
	</style>
	<path id="Layer" class="s0" d="m15.4 0.4c-0.9 0.7-1.4 1.5-1.6 2.5 0.1 1.3-0.2 2.2-0.5 3.3-0.3 1.2-0.8 2.6-0.9 4.8-0.1 0.1-0.1-2.2-0.2-4.4 0-1.4 0-2.8 0-3.4-0.1-1.7 0.9-2.7 1.3-3 0.4-0.4 1.1-0.1 1.9 0.2z"/>
	<path id="Layer" class="s0" d="m8 0.6c0.7-0.1 1.2 2.4 1.3 3.9 0 0.9 0.6 2.2 1 3 0.2 0.4 0.3 0.7 0.2 0.6-1.4-1.2-2.3-2.5-3.3-4q-0.6-1-1.3-2c-0.4-0.4 1.4-1.5 2.1-1.5z"/>
	<path id="Layer" class="s0" d="m13.6 8.1c1.4-1.1 2.3-2.5 3.3-4q0.6-0.9 1.4-1.9c0.3-0.4-1.4-1.5-2.1-1.6-0.7 0-1.3 2.5-1.4 4 0 0.8-0.6 2.2-1 2.9-0.2 0.4-0.3 0.7-0.2 0.6z"/>
	<path id="Layer" class="s0" d="m13.8 8.2c0 0 1.8-0.9 3.3-1.3 1.5-0.4 2.6-1.4 2.7-2.4 0.1-0.7-1.1-2.2-1.1-2.2 0 0-0.9 2.3-2 3.5-0.3 0.3-0.5 0.5-0.6 0.7-0.5 0.6-0.6 0.7-2.3 1.7z"/>
	<path id="Layer" class="s0" d="m7.7 7.7c1.2 0.3 2.2 0.5 2.3 1.3 0.1 0.4-0.7 1.3-2.3 1.2-3.3-0.2-3.9-5.6-3.6-4.9 0.6 1.6 2.2 2 3.6 2.4z"/>
	<path id="Layer" class="s0" d="m16.3 10.3c3.3-0.2 4-5.6 3.7-4.9-0.6 1.6-2.3 2-3.7 2.3-1.1 0.3-2.1 0.5-2.3 1.4-0.1 0.3 0.7 1.2 2.3 1.2z"/>
	<path id="Layer" class="s0" d="m4 7.1c1.2 4.2 4.1 4.5 6.8 2.5 0.3-0.1-0.1 0.1-0.7 0.5-0.7 0.5-1.7 1.3-2.1 1.6-0.8 0.6-1.1 1.2-1.3 1.6-0.1 0.4-0.2 0.6-0.7 0.5-2.8-1.3-2.3-7.5-2-6.7z"/>
	<path id="Layer" class="s0" d="m16 11.8c0.8 0.6 1.1 1.2 1.2 1.6 0.2 0.4 0.3 0.6 0.7 0.4 2.9-1.2 2.5-7.4 2.2-6.6-1.3 4.2-4.2 4.4-6.9 2.4-0.2-0.1 0.2 0.2 0.7 0.6 0.7 0.5 1.7 1.2 2.1 1.6z"/>
	<path id="Layer" class="s0" d="m8.7 13.1c0.5-0.5 1-1.1 1.7-1.3 0.9-0.3 1.6 0.5 1.6 0.5 0.1-0.1 0.8-0.8 1.6-0.5 0.7 0.2 1.2 0.8 1.7 1.4 0.6 0.6 1.1 1.3 1.9 1.4q0.1 0 0.2 0c0.3 0.1 0.5 0.1 0.9 0.1 0.7 0 1.7-0.4 3-2.3 0.4-0.5-0.9 3.5-4.3 3.6-1.4 0-2.1-0.8-2.7-1.5-0.5-0.5-1-1-1.7-1-0.5-0.1-0.6-0.9-0.6-1.1 0 0.2-0.1 1-0.6 1-0.8 0.1-1.2 0.6-1.7 1.1-0.7 0.7-1.4 1.4-2.7 1.4-3.4-0.1-4.7-4.2-4.3-3.6 1.3 1.9 2.2 2.3 3 2.3 0.3 0.1 0.6 0 0.9 0q0.1-0.1 0.2-0.1c0.8-0.1 1.3-0.7 1.9-1.4z"/>
	<path id="Layer" class="s0" d="m10.8 14.5c0.1 0 1.1 1.7 2.4 0q0 0 0 0.1c-0.1 0.2-0.3 1.1-0.1 2.7 0.3 2.7-1.4 6.7-1.4 6.7 0 0-1.2-4.1-0.9-6.6 0.2-2 0.1-2.9 0-2.9z"/>
	<path id="Layer" class="s0" d="m13.9 16.7c0.2 1.3 0 2.2-0.2 3.5q-0.1 0.3-0.1 0.6c-0.2 0.9 3.1-2.5 4.3-4.6q0.1-0.1-0.1 0c-0.3 0.3-1.4 1.1-2.5 0.1-0.6-0.5-0.9-0.8-1.2-1.2-0.2-0.1-0.3-0.3-0.6-0.6-0.1-0.1 0 0.1 0.1 0.6 0.1 0.4 0.2 1 0.3 1.6z"/>
	<path id="Layer" class="s0" d="m9.8 15.2c0.2-0.1 0.4-0.3 0.6-0.6 0.1-0.1 0.1 0.1-0.1 0.6-0.1 0.4-0.2 1-0.3 1.6-0.2 1.3-0.1 2.2 0.2 3.5q0 0.3 0.1 0.6c0.1 0.9-3.1-2.6-4.3-4.7q-0.1-0.1 0.1 0.1c0.3 0.2 1.4 1 2.4 0.1 0.7-0.5 1-0.8 1.3-1.2z"/>
	<path id="Layer" class="s0" d="m5.4 2.2c0 0 0.9 2.4 2 3.5 0.2 0.3 0.4 0.6 0.6 0.8 0.5 0.5 0.6 0.7 2.3 1.7 0 0-1.8-1-3.4-1.4-1.4-0.4-2.5-1.4-2.6-2.4-0.1-0.7 1.1-2.2 1.1-2.2z"/>
	<path id="Layer" class="s0" d="m11.8 6.6c0 2.2 0 4.5-0.2 4.4-0.1-2.2-0.5-3.6-0.8-4.8-0.3-1.1-0.6-2-0.5-3.3-0.1-1.1-0.6-1.9-1.6-2.6 0.9-0.2 1.6-0.5 2-0.2 0.4 0.3 1.4 1.4 1.2 3.1 0 0.6 0 2-0.1 3.4z"/>
</svg>