<svg version="1.2" xmlns="http://www.w3.org/2000/svg" viewBox="0 0 24 24" width="24" height="24">
	<title>maps-svg</title>
	<style>
		.s0 { fill: #000000 } 
	</style>
	<path id="Layer" fill-rule="evenodd" class="s0" d="m15.2 0.6c1 0.5 1.9 1.1 2.7 1.8 0.8 0.8 1.4 1.7 1.8 2.8 0.4 1 0.7 2.1 0.7 3.2 0 2.6-0.7 4.5-3.4 7.8q-0.4 0.5-0.9 1.1-0.4 0.5-0.8 1.1-0.4 0.5-0.8 1.1-0.4 0.6-0.7 1.2c-1 2-0.9 3.3-1.8 3.3-0.9 0-0.8-1.3-1.8-3.3q-0.3-0.6-0.7-1.2-0.4-0.6-0.8-1.1-0.4-0.6-0.8-1.1-0.5-0.6-0.9-1.1c-2.7-3.3-3.4-5.2-3.4-7.8 0-1.1 0.3-2.2 0.7-3.2 0.4-1.1 1-2 1.8-2.8 0.8-0.7 1.7-1.3 2.7-1.8 1-0.4 2.1-0.6 3.2-0.6 1.1 0 2.2 0.2 3.2 0.6zm-2 10.7q0.6-0.3 1.1-0.7 0.4-0.4 0.6-1 0.3-0.6 0.3-1.2c0-1.3-0.8-2.5-2-3-1.2-0.5-2.5-0.2-3.4 0.7-1 0.9-1.2 2.3-0.7 3.5 0.5 1.2 1.6 1.9 2.9 1.9q0.6 0 1.2-0.2z"/>
</svg>