<svg version="1.2" xmlns="http://www.w3.org/2000/svg" viewBox="0 0 24 24" width="24" height="24">
	<title>matlog-svg</title>
	<style>
		.s0 { fill: #ffffff } 
	</style>
	<path id="Layer" fill-rule="evenodd" class="s0" d="m4.1 1c0.6 0 3.4 1.9 4.8 3.2l1 1.1h2.1 2.1l1-1.1c1.1-1 3.9-3 4.6-3.1 0.4-0.1 0.6 0.1 1.7 1.5 1 1.3 1.7 2.3 2.2 3.8 0.3 1.1 0.7 2.8 0.1 5.3-0.1 0.3 0.2 0.9 0.2 1.7 0.1 0.9 0 1.8-0.1 2.2-0.8 3-3.8 5.6-7.6 6.6-5.3 1.4-11 0-14.2-3.4-1.6-1.6-2.1-3.4-2-5.4 0-1.2 0.4-1.4 0.4-1.7-0.7-2-0.3-4.1 0.1-5.3 0.4-1.4 1.5-3.1 2.6-4.4 0.4-0.6 0.9-1 1-1zm0.1 9.1h3.4v-0.7-0.4h-3.4zm4.9 0h2.9 8.4v-1.2h-11.3zm-4.9 2.3h3.4v-1.1h-3.4zm4.9 0h11.3v-1.2h-11.3zm-4.9 2.3h3.4v-1.1h-3.4zm4.9 0l5.7-0.1 5.6 0.1v-1.2h-11.3zm-4.9 2.3h3.4v-1.1h-3.4zm4.9 0h11.3v-1.2h-11.3z"/>
</svg>