<svg version="1.2" xmlns="http://www.w3.org/2000/svg" viewBox="0 0 24 24" width="24" height="24">
	<title>mdgram-svg</title>
	<style>
		.s0 { fill: #000000 } 
	</style>
	<path fill-rule="evenodd" class="s0" d="m0 13.6c0.1-1.1 0.8-2.1 2-3.5-0.5-0.8-0.8-1.8-0.8-2.9 0-3.3 2.7-6 6-6 1 0 2 0.3 2.8 0.7 1.3-1.1 2.3-1.8 3.4-1.9 1-0.1 2.1 0.1 3 0.7 1.6 0.9 2.5 3.1 4.2 7.5 2.7 6.9 4 10.4 3.1 12.6-0.6 1.3-1.6 2.3-2.8 2.9-2.2 1-5.7-0.3-12.6-3-4.5-1.6-6.7-2.5-7.6-4-0.5-0.9-0.8-2-0.7-3.1zm7.2-10q-0.2 0-0.3 0c-1.7 0.2-3.1 1.5-3.3 3.3q0 0.1 0 0.3 0 0.8 0.3 1.5c0.3 0.6 0.7 1.1 1.3 1.5 0.5 0.4 1.2 0.6 2 0.6 2 0 3.6-1.6 3.6-3.6 0-0.8-0.2-1.5-0.7-2.1-0.3-0.5-0.9-0.9-1.5-1.2q-0.6-0.3-1.4-0.3z"/>
</svg>