<svg version="1.2" xmlns="http://www.w3.org/2000/svg" viewBox="0 0 1080 1080" width="24" height="24">
	<title>mekorama-svg</title>
	<style>
		.s0 { fill: none;stroke: #000000;stroke-linecap: round;stroke-linejoin: round;stroke-width: 25 } 
		.s1 { fill: #000000;stroke: #000000;stroke-linecap: round;stroke-linejoin: round } 
		.s2 { fill: #000000;stroke: #000000;stroke-linecap: round;stroke-linejoin: round;stroke-width: 25 } 
	</style>
	<g id="layer">
		<path fill-rule="evenodd" class="s0" d="m422.2 760.4h217.1l180.9-54.3v-361.8l-180.9 54.3h-217.1l-180.9-54.3v361.8z"/>
		<path fill-rule="evenodd" class="s0" d="m295.5 271.9l-54.2 18.1v54.3m578.9 0v-54.3l-54.3-18.1z"/>
		<path fill-rule="evenodd" class="s0" d="m327 367.8c-42-72.8-42-162.4 0-235.2 42-72.8 119.6-117.6 203.7-117.6 84 0 161.6 44.8 203.6 117.6 42 72.8 42.1 162.4 0 235.2"/>
		<path class="s1" d="m530.7 380.5c-70 0-126.6-56.6-126.6-126.6 0-70.1 56.6-126.7 126.6-126.7 70.1 0 126.7 56.6 126.7 126.7 0 70-56.6 126.6-126.7 126.6z"/>
		<path fill-rule="evenodd" class="s2" d="m367.9 753.1l18.1 152c0 0-80.4 6.5-90.5 54.3-9.5 45.1 190.8 43.6 180.9 0-11.6-51.4-90.4-54.3-90.4-54.3"/>
		<path fill-rule="evenodd" class="s2" d="m693.5 753.1l-18.1 224.4c0 0-80.3 6.4-90.4 54.2-9.5 45.1 190.8 43.7 180.9 0-11.6-51.4-90.5-54.2-90.5-54.2"/>
		<path fill-rule="evenodd" class="s0" d="m241.3 380.5l-72.4 253.3"/>
		<path fill-rule="evenodd" class="s0" d="m820.2 380.5l90.4 199"/>
		<path class="s1" d="m925.5 647.2c-20 0-36.2-16.2-36.2-36.2 0-20 16.2-36.2 36.2-36.2 20 0 36.1 16.2 36.1 36.2 0 20-16.1 36.2-36.1 36.2z"/>
		<path class="s2" d="m546.9 577.9h-82"/>
		<path fill-rule="evenodd" class="s0" d="m546.9 577.9c13.1 0 25.8 5.3 35.1 14.6 9.3 9.3 14.6 21.9 14.6 35.1 0 13.2-5.3 25.8-14.6 35.2-9.3 9.3-22 14.5-35.1 14.5h-82v-198.7h82c13.1 0 25.8 5.2 35.1 14.5 9.3 9.3 14.6 22 14.6 35.2 0 13.1-5.3 25.8-14.6 35.1-9.3 9.3-22 14.5-35.1 14.5z"/>
		<path class="s1" d="m154.2 709.6c-20 0-36.2-16.2-36.2-36.2 0-20 16.2-36.2 36.2-36.2 20 0 36.2 16.2 36.2 36.2 0 20-16.2 36.2-36.2 36.2z"/>
	</g>
</svg>