<svg version="1.2" xmlns="http://www.w3.org/2000/svg" viewBox="0 0 192 192" width="24" height="24">
	<title>messenger-svg</title>
	<style>
		.s0 { fill: #000000 } 
	</style>
	<path fill-rule="evenodd" class="s0" d="m0 93.1c0-53.5 41.9-93.1 96-93.1 54.1 0 96 39.6 96 93.1 0 53.5-41.9 93.1-96 93.1-9.7 0-19-1.2-27.8-3.7-1.7-0.4-3.5-0.3-5.1 0.4l-19.1 8.4c-5 2.2-10.6-1.3-10.7-6.8l-0.6-17c0-2.1-1-4.1-2.6-5.5-18.6-16.7-30.1-40.9-30.1-68.9zm66.6-17.5l-28.2 44.8c-2.8 4.2 2.5 9.1 6.6 6l30.3-23c2-1.5 4.8-1.5 6.9 0l22.4 16.8c6.8 5.1 16.4 3.3 20.8-3.8l28.2-44.8c2.8-4.2-2.5-9.1-6.6-6l-30.3 23c-2 1.5-4.8 1.5-6.9 0l-22.4-16.8c-6.8-5.1-16.4-3.3-20.8 3.8z"/>
	<g id="Folder 1">
	</g>
</svg>