<svg version="1.2" xmlns="http://www.w3.org/2000/svg" viewBox="0 0 24 24" width="24" height="24">
	<title>messages-svg</title>
	<style>
		.s0 { fill: #fff1c0 } 
	</style>
	<path id="Layer" class="s0" d="m21.9 5.7c-1.3-1.3-3.1-2.1-5-2.1h-7.4c-3.9 0-7.1 3.2-7.1 7.3q0 1 0.3 2c0.3 1.2 0.9 2.3 1.8 3.1l7.2 7.6c0.1 0.2 0.3 0.3 0.6 0.3 0.3 0 0.6-0.1 0.6-0.5v-5.2h3.9c3.9 0 7.1-3.2 7.2-7.2 0-2.1-0.8-4-2.1-5.3z"/>
	<path id="Layer" class="s0" d="m0.6 10.8c0.1-5 4-9 8.7-9h7.2c1.4 0 2.7 0.3 3.8 0.9-1.3-1.6-3.3-2.6-5.5-2.6h-7.5c-4.1 0-7.3 3.4-7.3 7.6 0 1.1 0.2 2.2 0.6 3.1z"/>
</svg>