<svg version="1.2" xmlns="http://www.w3.org/2000/svg" viewBox="0 0 24 24" width="24" height="24">
	<title>microsoft_authenticator-svg</title>
	<style>
		.s0 { fill: #000000 } 
	</style>
	<path id="Layer" fill-rule="evenodd" class="s0" d="m21.4 8.9q0.2 0.4 0.2 0.8 0.1 0.4 0.2 0.8 0 0.4-0.1 0.8 0 0.8-0.2 1.7-0.1 0.8-0.3 1.6-0.3 0.8-0.6 1.6-0.3 0.8-0.7 1.5-0.2 0.3-0.3 0.6-0.2 0.3-0.4 0.6-0.2 0.3-0.4 0.6-0.2 0.2-0.4 0.5-0.4 0.4-0.8 0.8-0.4 0.4-0.8 0.8-0.4 0.3-0.8 0.7-0.4 0.3-0.9 0.6-0.7 0.5-1.5 0.8-0.8 0.3-1.6 0.3-0.8 0-1.6-0.3-0.8-0.3-1.5-0.8-0.5-0.3-0.9-0.6-0.4-0.4-0.8-0.7-0.4-0.4-0.8-0.8-0.4-0.4-0.8-0.8-0.2-0.3-0.4-0.5-0.2-0.3-0.4-0.6-0.2-0.3-0.4-0.6-0.1-0.3-0.3-0.6-0.4-0.7-0.7-1.5-0.3-0.8-0.6-1.6-0.2-0.8-0.3-1.6-0.2-0.9-0.2-1.7-0.1-0.4-0.1-0.8 0.1-0.4 0.2-0.8 0-0.4 0.2-0.8 0.1-0.4 0.4-0.8 0.2-0.3 0.4-0.5 0.3-0.3 0.6-0.5 0.2-0.2 0.6-0.4 0.3-0.1 0.7-0.2c0-1.8 0.8-3.4 2-4.6 1.3-1.2 3-1.9 4.7-1.9 1.7 0 3.4 0.7 4.7 1.9 1.2 1.2 2 2.8 2 4.6q0.4 0.1 0.7 0.2 0.4 0.2 0.6 0.4 0.3 0.2 0.6 0.5 0.2 0.2 0.4 0.5 0.3 0.4 0.4 0.8zm-10.8-5.9q-0.6 0.2-1.2 0.7-0.5 0.4-0.9 1-0.4 0.6-0.5 1.3c1.7-0.1 3.2-0.1 4-0.1 0.8 0 2.3 0 4 0.1q-0.1-0.7-0.5-1.3-0.4-0.6-0.9-1-0.6-0.5-1.2-0.7-0.7-0.2-1.4-0.2-0.7 0-1.4 0.2zm4.4 6.9q-0.2-0.6-0.7-1.1-0.4-0.4-1-0.7-0.6-0.2-1.3-0.2c-1.3 0-2.5 0.8-3 2-0.6 1.2-0.3 2.7 0.7 3.6 0.9 1 2.3 1.2 3.6 0.7 1.2-0.5 2-1.7 2-3q0-0.7-0.3-1.3zm0.3 11.3q0.5-0.4 0.9-0.8 0.4-0.4 0.8-0.8 0.4-0.4 0.8-0.9c-0.6-1-1.5-1.8-2.5-2.4-1-0.5-2.1-0.8-3.3-0.8-1.2 0-2.3 0.3-3.3 0.8-1 0.6-1.9 1.4-2.5 2.4q0.4 0.5 0.8 0.9 0.4 0.4 0.8 0.8 0.4 0.4 0.9 0.8 0.4 0.3 0.9 0.6 0.3 0.2 0.6 0.4 0.2 0.2 0.5 0.3 0.3 0.1 0.7 0.1 0.3 0.1 0.6 0.1 0.3 0 0.6-0.1 0.4 0 0.7-0.1 0.3-0.1 0.5-0.3 0.3-0.2 0.6-0.4 0.5-0.3 0.9-0.6z"/>
</svg>