<svg version="1.2" xmlns="http://www.w3.org/2000/svg" viewBox="0 0 360 360" width="24" height="24">
	<title>mihon-svg</title>
	<style>
		.s0 { fill: #000000 } 
	</style>
	<path id="path_0" fill-rule="evenodd" class="s0" d="m49.4 76.1l-2.6-60.7c7.9 1.5 17.3 1.9 38.8 1.9 26 0 60.3-1.5 78-3.8 7.5-0.7 10.6-1.8 15.5-4.5l40.7 34.7c-3.8 5.3-4.9 7.5-9.1 18.1-3.4 8.3-18.8 56.1-24.9 76.5 27.9 5.7 43.4 9.8 64.5 18.5 2.6-18.5 3-28.3 3-61.9 0-8.6-0.4-13.5-1.5-21.4l65.6 2.2c-1.9 9.1-2.3 12.8-2.6 27.5-1.6 35.5-3.1 52.5-6.8 78.1 26 13.2 26 13.2 39.2 20.3 6.8 3.8 8.3 4.5 12.8 6.1l-21.9 70.4c-10.5-9.4-25.2-19.6-46.7-31.6-18.8 44.9-50.2 77.6-97.6 103.6-15.9-21.1-27.9-33.9-47.1-48.9 27.8-13.2 40.6-21.5 55.4-35.5 14.3-13.9 23.7-27.5 32.8-47.9-24.2-10.9-39.6-15.8-66.4-21.5-15.5 46-27.9 75.5-38.8 93.2-14.7 23.7-34.7 36.2-57.7 36.2-17.7 0-35.8-8-49-21.5-15.1-15.5-23-37-23-61.9 0-36.9 17.7-68.9 48.6-88.9 20-12.8 41.1-18.5 74.7-20.4 6.8-22.2 12.4-41.4 17.7-62.9-16.6 1.5-37.3 2.6-62.6 3.7-13.6 0.4-18.1 0.8-29 2.3zm57.3 114.6c-17.7 3-28.3 8.7-37.7 20.7-7.2 8.3-10.6 18.1-10.6 28.7 0 11.7 5.7 20.3 12.8 20.3 8.7 0 18.5-19.6 35.5-69.7z"/>
</svg>