<svg version="1.2" xmlns="http://www.w3.org/2000/svg" viewBox="0 0 1080 1080" width="24" height="24">
	<title>mini_militia-svg</title>
	<style>
		.s0 { fill: #000000 } 
	</style>
	<path id="path9249" fill-rule="evenodd" class="s0" d="m733 113.8l10.6 5.5 31-22.9 11.5 15.4c5.5 7.5 16 9 23.4 3.5 7.5-5.4 9.1-15.9 3.6-23.4l-11.4-15.4 39.5-29.2 11.3 15.1c5 6.7 14.5 8.2 21.3 3.2 6.8-5 8.2-14.6 3.2-21.4l-11.2-15 39.8-29.2 12.7 17.3c8.7-6.4 14.8-4.2 18 0.2l38.3 52.1c3.2 4.2 3.5 10.7-5.1 17.1l31.8 43.4c3.2 4.2-1 7.4-1 7.4l-270.4 199.2c-9.5 7.1-4.6 30 5 43.1 0 0-124 91.4-145.8 107.4-34.1 25.1-28 48.6-20.8 58.3 18.7 25.5 21.1 68.7-15.2 95.4-7.8 5.7-65.3 48-74 54.4-4.3 3.2-17.3 12.8-12 29 5.2 16.2 74.6 219.3 74.6 219.3 0 0 14.7-6.1 16.1-5.2l14.7 56c-0.8 2-193.5 82.4-193.5 82.4-28.7 11.1-25.8-7.8-33.1-35.9-20.3-77.9-66.9-245-73.1-280.6-6-35.5-46.7-5.4-73 10.5-26.4 15.9-47.2 0.2-51.1-17.6 21.5-10.5 45-22 40.4-61.2-2.1-11.8-12.3-34.8-12.3-34.8-44-14.4-62.5 5.9-75.4 15.5-20.3-12.2-25.7-19.1-24.2-29.8 3.2 2.6 6.9 3.2 10.8 3.5-1 10.9 6.2 11.2 15.1 12-3.3-21.1 24.3-20.4 32.1-22 9.6-7.1-5-13-2.2-15.4 4.8-4.2 14.6-3.8 10.3-9.8-13.7 8.7-13.9 6.1-18.8 4.8 0.7-2.6 0.7-5.2 0.6-7.9 5.5 4.8 5.4 2.9 17.7-6.1l6.7-18.3-9.6-13 47.7-35.2-5.3-16.1 56.3-41.6 10.8 5.5 50.9-37.5c8.7-6.4 20.4-9.7 30 3.4l97.7-72-5.1-21.6 242.7-178.9 1.2-7.5 30.4-22.3 1.1-7.6zm-1.7 8.4l-24.3 18-1.5 7.3 30.7-22.6zm-540.2 428.9l-26 19 4.9 15.4 161.9-119.2-5.8-7.9-131.9 97.1zm47.6-52.4c-3.5 2.6-4.3 7.5-1.7 11.1 1.1 1.3 2.5 2.2 4 2.7l2.4-15.4c-1.7 0.1-3.3 0.6-4.7 1.6zm6.9-1.1l-2.2 15.3c1.6-0.1 3.3-0.4 4.7-1.5 3.5-2.6 4.2-7.5 1.6-11-1-1.5-2.5-2.4-4.1-2.8zm523.4-347.3l-274.6 202.3c6.7 8.9 15.9 20.6 1.9 31l-128 94.3c-18.1 13.3-31.1-5-33.3-8l-53.5 39.5 48.7 66.1 362.6-267.1c0.4-5.5 1.6-14.1 4.1-23.5l111.1-81.8zm-458.1 300.4l-59.2 43.6 6.1 8.2 65.3-48c-3.7-4.9-6.5-8-12.2-3.8zm441-323.9c-92.8 68.3-185.6 136.6-278.2 204.9 7.1-0.3 12.4 10.6 16.3 16l275.2-202.7zm155.4-114.1l-18.8 13.9 2.6 3.7c4.6 6.3 6.4 13.9 5.3 21.1l25.5-18.7zm18 23.4l-30.6 22.5c-1.9 4.7-5 9-9.4 12.3-4.4 3.2-9.4 4.9-14.5 5.4l-39.7 29.3c-1.7 5.7-5.3 11.1-10.4 15-5.3 3.8-11.4 5.6-17.5 5.5l-20.4 15 38.5 52.2 142.6-105zm-149.2 73.2l-10.6 7.8 14.7 19.9 15.9-11.7c-6.2-1.7-12.2-5.3-16.2-11zm-679.2 504.2c2.6-1.6 5.3-3.1 7.9-4.3 0.9 1.3 1.8 2.9 2.4 4.7 1.8 5.1 1.1 10.1-1.4 11-2.7 0.9-6.2-2.6-8-7.8q-0.6-1.8-0.9-3.6zm-4.9 3.6c1.3 1 2.6 2.1 3.5 3.6 3.3 4.4 4.2 9.3 2 10.9-2.2 1.7-6.7-0.6-10-5-0.8-1.1-1.4-2.2-1.9-3.4 2-2.2 4.2-4.3 6.4-6.1zm19.6-10.3c3.8-1.1 7-1.4 8.7-0.5 0.2 0.1 0.4 0.3 0.5 0.4q0.4 1.9 0.1 4c-0.4 5.5-2.9 9.8-5.8 9.6-2.7-0.2-4.5-4.9-4-10.3 0.1-1.2 0.2-2.3 0.5-3.2zm-30.9 23.5c1.5-0.1 3.2 0.1 4.8 0.6 5.4 1.4 9.2 4.7 8.4 7.3-0.6 2.6-5.5 3.8-10.8 2.4-1.9-0.5-3.7-1.4-5.1-2.2 0.5-2.8 1.3-5.5 2.7-8.1zm152.3-134.5l-34.4 25.3 7.7 19.3 30.5-22.4c-0.8-0.7-3.4-4-4-4.8-3.9-5.3-3.6-12.4 0.2-17.4zm-71.1 76.8l-3.7 2.8 36.8 115.1c8 28.2-10.8 52.5-30 61 1.2 10.6 13.2 20 37.1 2.9 4.9-3.4 1.1-6.4-2.3-3.9-12.1 9-19.3 2.1-14.5-9 0 0 8.1-9.4 12.9-20.4 4.9-10.8 3.9-25.8 1-33.9zm171.6-119.7l6.1 8.3 89.3-65.7-6.1-8.3zm590.1-428.7l12.2 16.4 18.7 13.8-21.1-28.4c-3-5.4-5.5-4.9-9.8-1.8zm-732 549.4l-20.3 15 27.4 81.9 12.3-9c-1.7-2.9-2-9.6 3-13.4l21.1-15.4-9.5-12.8c-1 1.1-2.2 2.3-3.5 3.3-10 7.3-24.2 5.2-31.6-4.9-7.4-10-5.3-24.1 4.9-31.6 1.2-0.9 2.7-1.8 4-2.4zm77.9-55.9l48.9 66.3 6.9-5-48.9-66.4zm-11.6 8.5l49 66.4 6.8-5-48.9-66.5zm-11.5 8.6l48.9 66.3 6.8-5-48.9-66.4zm134.9 12.6l-179.8 132.4c0 0 5.1 9.1 4.9 22.1l12.1-26.7 166.5-122.7zm-158 4.4l48.9 66.5 6.8-5.1-49-66.4zm-11.5 8.5l48.9 66.5 6.9-5.1-49-66.4zm-4.7 3.4l-6.9 5.1 10.1 13.7c6.5 0.4 12.7 3.6 16.9 9.1 4.1 5.7 5.2 12.5 3.7 18.7l18.4 25 6.7-5.1zm256.3-225.4l-28.8 21.2 27.5 38.5 29.3-21.7c3.4-2.5 4.4-5.1-0.4-11.6l-18.5-25.1c-2-2.8-4.4-4.8-9.1-1.3zm-31.8 60.6l-89.3 65.7c0 0 9.4 14.4 19 7.3l74.8-55.2c6.7-4.8 2.3-8.6-4.5-17.8zm410.3-338l-19.1 14.1 3.7 5c4.2 5.6 5.9 12.3 5.7 18.7l30.8-22.7c-7.1-1.3-13.9-5.1-18.5-11.4zm-643.8 529.5c-2.6 1.9-4.5 4.5-5.5 7.2l30.8 4.8c-0.1-3-1.1-6-3-8.6-5.2-7.2-15.3-8.7-22.3-3.4zm-6.5 13.8c0.2 2.9 1.2 5.9 3.1 8.5 5.3 7 15.2 8.6 22.2 3.3 2.7-1.9 4.6-4.4 5.6-7.3zm507.9-300.9c-2.6 5.4 0.4 39 11.5 53.6l15.8 21.6c-9.9-13.6-9.9-38.8-3.8-43.3zm27.3 75.1q0 0 0 0.1zm-491.8 164.9l48.9 66.3 6.9-4.9-48.9-66.5zm459.3-223.3l-172.9 127.3c9.7-2.3 20.4 1.2 26.7 9.7 4.5 6.1 5.9 13.6 4.5 20.4 1.7-4.6 4.6-8.8 8.8-12l145.7-105.5c-6.9-9.6-11.2-22.6-12.8-39.9zm-288.5 213.1c-8.8 7.5-10.4 20.6-3.4 30 6.9 9.5 19.9 11.8 29.7 5.6l-3-4c-7.5 4.6-17.4 2.6-22.7-4.5-5.4-7.3-4.2-17.3 2.4-23.1zm432.6-318.3l9.2 12.6 115.5-85c-41.7 18.3-85 46.5-124.7 72.4zm-126.1 92.9l9.3 12.5 112.4-82.8-9.3-12.5zm-249.9 187.8q-0.1 0.5 0 0.9l-44.9 33.1 2 2.8 43.3-32c0.2 1.1 0.4 2.2 0.6 3.4l-45.7 33.6 2 2.8 44.8-33q0.5 1.5 1.3 2.9l-48.2 35.6 2 2.7 47.8-35.3c0.5 0.8 1.1 1.8 1.7 2.6l-43.7 32.2 2 2.7 43.9-32.3q1 1.3 2.1 2.4l-40.6 29.8 2.1 2.8 41.2-30.4q1.3 1.1 2.6 1.9l-37.1 27.4 2 2.8 38.5-28.4q2.2 1 4.4 1.7zm52.9-38.1l-49.8 36.7 21.3 28.7 49.8-36.7h-0.1c7.5-5.9 9.1-16.8 3.4-24.5-5.7-7.8-16.6-9.6-24.6-4.2zm-291.7 219.7l6.1 8.4 29.8-22-6.2-8.3zm164.3-120.8l-131.2 96.6c27.5-3.3 54.5-13.4 78.4-31 23.8-17.6 41.5-40.3 52.8-65.6zm-169 129.9c-7.9 13.7-22.5 46.1-22.5 46.1-2.9 6.7-1.3 10.5 5.4 5.6 36.7-24.8 60.2-12.6 60.2-12.6 4.8-11.3 8.8-36.5 0.1-51.9-1.3 6-40.6 47.7-43.2 12.8zm125.4-53.1c-6.4 4.8-7.8 13.8-3 20.2 2.3 3.2 5.5 4.9 9 5.6l-3.1-27.4q-1.5 0.6-2.9 1.6zm11.2-2.5l3 27.4q1.6-0.7 2.9-1.7c6.5-4.7 7.9-13.7 3.1-20.1-2.3-3-5.5-5-9-5.6zm185.5-136.7l-39.4 28.9c-1.4 1.2-1.7 3.2-0.6 4.6 1 1.5 3 1.7 4.5 0.7l39.3-29c1.5-1.1 1.8-3.1 0.7-4.5-1.1-1.5-3.1-1.7-4.5-0.7zm-56.7 41.7l-66.8 49.3c-1.4 1-1.8 3.1-0.7 4.6 1 1.3 3 1.7 4.6 0.6l66.8-49.2c1.4-1.1 1.7-3.2 0.6-4.6-0.9-1.5-3-1.7-4.5-0.7zm72.6-26.6l-41.4 30.5c16.1-1.8 32.7 4.8 43 18.9 15.5 21 11 50.3-9.9 65.8l-95.1 69.9 2.2 8.8 93.3-68.8c26.6-19.6 32.5-56.9 13.4-83.7-7.8-12.7-9.6-27.8-5.5-41.4zm-64.2 47.3l-19.6 14.5c1.3 24.6 13.7 46.1 32.8 61.1-22-10.1-38-28.3-47.2-50.6l-14.6 10.9c-18.2 13.3-22.1 38.7-8.6 56.9 13.3 18.1 38.7 22.1 56.8 8.6l48.7-35.8c18.2-13.3 22.1-38.7 8.6-56.9-13.3-18.2-38.8-22-56.9-8.7zm-74.6 419.6c-13 9.2-24.4 20.2-33.9 32.5l150.5-62.1c-27.5-3.4-56.1 0-83.5 11.3q-17.9 7.4-33.1 18.3zm-49.5 50.3l12.5 40 13.4-5.7-11.7-40.8zm29.6-12.4l12.4 39.9 152.9-65.4-10.1-38.5z"/>
</svg>