<svg version="1.2" xmlns="http://www.w3.org/2000/svg" viewBox="0 0 1080 1080" width="24" height="24">
	<title>mini_militia</title>
	<style>
		.s0 { fill: #000000 } 
	</style>
	<path id="path9249" fill-rule="evenodd" class="s0" d="m567.8 187.5l0.6 6.6 25.1 21.2 0.6 6.6 201.2 168.9-5.6 18.5 80.9 68c9-10.8 19-7.3 26.2-1.3l42.3 35.5 9.6-4.2 46.7 39.2-5.5 13.8 39.6 33.2-9.1 10.8 4.8 16.2c10.1 8.5 10 10.2 15.1 6.3-0.3 2.4-0.5 4.7 0.1 6.9-4.3 0.9-4.8 3.1-16.1-5.2-4.1 5 4.4 5.2 8.4 9.1 2.3 2.3-10.8 6.6-2.8 13.3 6.7 1.9 30.7 2.8 26.8 20.9 7.7-0.2 14-0.2 13.7-9.6 3.4 0 6.7-0.4 9.5-2.4 0.8 9.3-4.3 15.1-22.5 24.5-10.8-9-25.8-27.7-64.8-17.7 0 0-10.1 19.5-12.6 29.7-6.2 33.8 13.6 45.1 31.8 55.4-4.4 15.3-23.4 27.8-45.4 12.5-22-15.3-55.7-43.8-63.1-13.2-7.3 30.6-57 173.4-78.9 240-7.9 24-6.5 40.6-30.8 29.4 0 0-163.1-80.6-163.7-82.3l15.8-48c1.3-0.7 13.8 5.4 13.8 5.4 0 0 71.5-172.7 77-186.5 5.5-13.8-5.3-22.9-8.9-25.9-7.2-6-54.9-46.1-61.3-51.5-30.1-25.2-25.7-62.5-7.9-83.7 6.7-8 13.3-28.1-15-51.8-18-15.1-120.8-101.5-120.8-101.5 9.1-10.9 14.7-30.5 6.7-37.2l-224-188.1c0 0-3.6-3-0.6-6.6l30.2-35.9c-7.2-6-6.6-11.6-3.5-15.2l36.2-43.1c3-3.6 8.4-5.2 15.6 0.8l12-14.4 32.9 27.6-10.5 12.5c-4.7 5.6-3.9 14 1.7 18.7 5.6 4.7 13.9 4 18.6-1.6l10.6-12.4 32.8 27.5-10.8 12.8c-5.1 6.2-4.3 15.4 1.8 20.6 6.2 5.1 15.4 4.3 20.6-1.8l10.8-12.8 25.7 21.6 9.6-4.2zm-32.1-14.7l25.4 21.3-0.9-6.4-20.1-16.9zm416.3 365.7c-0.6 0.7-3 3.4-3.7 4l25.2 21.2 7.8-16.4-28.4-23.9c3 4.5 2.8 10.7-0.9 15.1zm-8.3-14.5l1.2 13.5c1.4-0.4 2.6-1.1 3.6-2.3 2.4-2.9 2.1-7.2-0.8-9.6-1.2-1-2.6-1.5-4-1.6zm-5.7 2.4c-2.4 2.9-2.1 7.2 0.8 9.7 1.2 0.9 2.6 1.5 4 1.5l-1.1-13.4c-1.4 0.3-2.7 1-3.7 2.2zm-184.8-152.1l-17.5 20.8c-4.5 5.4-3.8 7.8-1 10.1l24.4 20.5 26-31.9-23.9-20.1c-3.9-3.3-6.1-1.6-8 0.6zm123.5 108.1l54.1 45.4 5.8-6.8-49.1-41.2c-4.7-3.9-7.4-1.4-10.8 2.6zm-367.4-293.5l228.2 191.5c3.7-4.5 8.9-13.7 15-13.1-76.8-64.4-153.7-129-230.5-193.5zm-129.9-106.4l21.1 17.7c-0.5-6.3 1.4-12.8 5.8-18l2.6-3-15.7-13.1zm65.6 32.1c-4.4 5.2-10.4 8.2-16.7 8.9l25.6 21.5c0.1-5.7 2-11.4 5.9-16l3.5-4.2-15.7-13.2zm53.5 46.8c-3.9 4.7-9.2 7.5-14.8 8.6l13.2 11 13.8-16.4-8.7-7.4zm565.2 474.9c-1.8 4.4-5.1 7.3-7.3 6.3-2.2-0.9-2.5-5.2-0.7-9.6 0.7-1.6 1.5-2.9 2.4-4 2.2 1.2 4.4 2.6 6.6 4.2q-0.3 1.5-1 3.1zm10.3 6c-0.5 0.9-1.1 1.9-1.9 2.8-3.1 3.7-7.1 5.4-8.9 3.9-1.8-1.6-0.8-5.8 2.3-9.5 1-1.2 2.1-2.2 3.2-2.9 1.9 1.7 3.8 3.6 5.3 5.7zm-21.4-13c0.1 4.8-1.8 8.7-4.2 8.8-2.4 0-4.4-3.8-4.5-8.6q0-1.9 0.4-3.6c0.1-0.1 0.3-0.1 0.5-0.2 1.5-0.7 4.3-0.3 7.5 0.8 0.2 0.9 0.3 1.8 0.3 2.8zm27.2 26.6c-1.3 0.7-2.8 1.3-4.6 1.6-4.7 0.9-8.8-0.3-9.3-2.7-0.4-2.3 3-4.9 7.7-5.8 1.5-0.3 3-0.4 4.3-0.3 1 2.3 1.7 4.7 1.9 7.2zm-96.6-78.6l-109.3-91.7-5.4 6.6 134.1 112.6 5.1-13.1-21.5-18zm-11.4 114.3c-2.9 6.9-4.6 19.8-1.1 29.6 3.6 9.8 10.1 18.4 10.1 18.4 3.6 9.9-2.9 15.5-13 7-2.8-2.4-6.3 0-2.3 3.3 19.9 16.2 30.9 8.7 32.5-0.5-16.3-8.5-31.3-30.6-22.7-54.7l38.4-98.1-3.1-2.6zm-177.9-273.1l-5.7 6.8 73.9 62.1 5.8-6.8zm-424.1-342.3l-19.8 23.6 17-11 11.4-13.6c-3.4-2.9-5.6-3.5-8.6 1zm607.4 526c1.2 0.7 2.4 1.4 3.5 2.4 8.3 7 9.4 19.4 2.4 27.7-7 8.4-19.4 9.4-27.8 2.5-1.1-1-2-2-2.9-3.1l-8.9 10.6 17.5 14.6c4.2 3.6 3.5 9.4 1.9 11.8l10.1 8.5 28.4-69.7-16.8-14.1zm-62.8-66.7l-46.2 55.1 5.7 4.8 46.2-55.1zm9.6 8l-46.2 55.1 5.7 4.8 46.2-55.1zm9.6 8.1l-46.2 55 5.7 4.8 46.2-55.1zm9.5 8.1l-46.2 55 5.7 4.8 46.3-55.1zm9.6 8.1l-46.3 55.1 5.7 4.7 46.2-55zm9.6 8l-46.2 55.1 5.7 4.8 46.2-55.1zm-36.6 63.1l5.6 4.8 17.3-20.6c-0.9-5.6 0.5-11.5 4.3-16.1 3.9-4.7 9.5-7.1 15.2-7.1l9.5-11.3-5.7-4.7zm-456.3-401.9l92 77.3c1.7 8.2 2.3 15.8 2.3 20.6l300.5 252.3 46.1-54.8-44.4-37.2c-2 2.4-14.4 17.6-29.4 5l-106-89c-11.7-9.8-3-19.5 3.3-27l-227.6-191zm311.6 206.3l62 52c8 6.7 16.9-5.3 16.9-5.3l-74-62.1c-6.4 7.7-10.5 10.7-4.9 15.4zm-440.8-314.8l118.1 99.2 36.4-43.3-16.9-14.2c-5.2-0.2-10.5-2.1-14.8-5.8-4.4-3.6-7.2-8.5-8.3-13.6l-32.9-27.6c-4.4-0.7-8.7-2.5-12.3-5.6-3.6-3-6.1-6.9-7.6-11.1l-25.4-21.3zm618.6 480.6c-1.8 2.1-2.8 4.7-3.1 7.3l27.1-2.4c-0.8-2.5-2.2-4.8-4.4-6.6-5.8-5-14.6-4.2-19.6 1.7zm-2.6 12.9c0.7 2.5 2.2 4.8 4.4 6.7 5.8 4.9 14.6 4.1 19.5-1.7 1.8-2.2 2.8-4.7 3.1-7.3zm-420.1-265.7c5.1 4.3 3.7 26.3-5.8 37.5l15-17.9c10.5-12.1 14.9-41.1 13-46zm281.7 207.7l138 115.8 9.1 24c0.6-11.4 5.4-19 5.4-19l-148.9-125zm-269.2-185.3l120.7 99.9c3.5 3 5.9 6.8 7.1 10.9-0.8-6.1 0.8-12.5 5-17.5 6-7.1 15.4-9.5 23.8-6.9l-143.3-120.3c-2.4 15-6.8 26.1-13.3 33.9zm249.5 170.6c5.4 5.5 5.9 14.2 0.8 20.2-5 6-13.7 7.1-20 2.7l-2.8 3.4c8.2 5.9 19.6 4.5 26.2-3.3 6.5-7.8 5.8-19.3-1.4-26.3zm-460.2-373.9l95.7 80.4 8.8-10.4c-33.2-24.8-69.2-51.7-104.5-70zm115.8 79.5l-8.8 10.4 93.2 78.2 8.8-10.4zm277.3 282.4q2-0.5 3.9-1.3l31.9 26.8 1.9-2.2-30.8-25.9q1.2-0.7 2.4-1.5l34.2 28.7 1.9-2.3-33.7-28.3q1.1-0.8 2-1.8l36.4 30.5 1.9-2.3-36.2-30.4c0.6-0.7 1.1-1.4 1.6-2.2l39.7 33.3 1.8-2.2-39.9-33.5q0.7-1.3 1.3-2.5l37.1 31.1 1.9-2.3-37.9-31.8c0.3-0.9 0.5-1.9 0.7-2.9l35.9 30.2 1.9-2.3-37.2-31.2q0-0.4 0.1-0.8zm-42.8-61c-5.4 6.4-4.6 16 1.6 21.5v0.1l41.2 34.6 20-23.8-41.3-34.6c-6.5-5.2-16.1-4.3-21.5 2.2zm238.5 184.2l-5.8 6.9 24.7 20.8 5.8-6.9zm-69.1-33.5c19.7 16.6 42.6 26.9 66.3 31.3l-108.7-91.2c8.5 22.6 22.6 43.3 42.4 59.9zm60.5 48.9c-8.4 12.9-6.3 35-2.7 45.1 0 0 21.1-9.3 51.6 14.3 5.5 4.6 7.1 1.4 5-4.6 0 0-10.9-29-17-41.3-4.2 30.2-36.1-8.2-36.9-13.5zm-71.7-41.2l-4.1 23.7c3-0.4 6-1.8 8.1-4.4 4.5-5.3 3.8-13.3-1.5-17.7q-1.2-1-2.5-1.6zm-15.2 3.2c-4.5 5.3-3.8 13.2 1.5 17.6 0.8 0.7 1.6 1.2 2.5 1.7l4.1-23.8c-3 0.4-6 1.9-8.1 4.5zm-149.6-133.2c-1 1.2-0.9 3 0.3 4l32.6 27.4c1.2 1 3 0.8 4-0.4 1-1.2 0.9-2.9-0.3-3.9l-32.7-27.4c-1.1-1-2.9-0.9-3.9 0.3zm46.9 39.4c-1 1.2-0.8 3 0.4 4l55.4 46.5c1.2 1 3 0.9 4-0.3 1-1.2 0.8-3-0.4-4l-55.4-46.5c-1.2-1-3-0.9-4 0.3zm-64.7 8.3c-18.1 22.2-15 54.9 7 73.4l77.4 64.9 2.4-7.4-78.8-66c-17.4-14.6-19.6-40.4-5-57.8 9.7-11.6 24.5-16.5 38.4-14l-34.3-28.9c2.7 12.1 0.5 25.1-7.1 35.8zm10.3 13.3c-12.7 15-10.7 37.3 4.4 50l40.3 33.8c15 12.6 37.3 10.7 50-4.4 12.6-15 10.7-37.3-4.4-49.9l-12.1-10.2c-9.2 18.8-24.1 33.7-43.9 41.3 17.5-12 29.4-29.9 32-51.3l-16.3-13.7c-15-12.6-37.4-10.7-50 4.4zm63.9 346.8c-23.2-11.3-47.9-15.8-72-14.3l127.5 62.2c-7.6-11.1-16.9-21.3-27.7-30.1-8.4-6.9-17.7-12.8-27.8-17.8zm56.1 57.8l-12.5 34.8 11.4 5.7 13-34.1zm-144.6-70.2l-10.8 32.9 129.2 65.4 13-34.1z"/>
	<path id="path9249" fill-rule="evenodd" class="s0" d="m518.2 160l9.8 3.7 24.7-22.9 11.5 12.2c5.5 6 14.8 6.3 20.7 0.8 6-5.5 6.3-14.8 0.8-20.7l-11.4-12.3 31.5-29.3 11.3 12c5 5.3 13.4 5.7 18.8 0.7 5.4-5 5.7-13.5 0.7-18.9l-11.2-12 31.7-29.3 12.8 13.8c6.9-6.4 12.4-5.1 15.6-1.6l38.5 41.5c3.2 3.4 4.1 9-2.8 15.4l32 34.6c3.2 3.4-0.2 6.6-0.2 6.6l-215.5 199.9c-7.6 7.1-1.1 26.5 8.6 37 0 0-98.9 91.7-116.2 107.8-27.2 25.2-19.6 45-12.4 52.7 18.8 20.4 25.1 57.7-3.8 84.5-6.2 5.7-52.1 48.2-59 54.6-3.4 3.2-13.8 12.9-7.6 26.4 6.1 13.6 86.5 183.4 86.5 183.4 0 0 12.2-6.7 13.5-6.1l18.3 47.3c-0.5 1.8-160.2 90.7-160.2 90.7-23.8 12.5-23.2-4.2-32.3-27.9-25.3-65.8-82.3-206.5-91.2-236.9-8.8-30.3-41.2-0.1-62.5 16.3-21.4 16.5-41 4.9-46.2-10.2 17.7-11.3 37-23.6 29.1-57.2-3-10.1-14.1-29.1-14.1-29.1-39.7-8.2-53.8 11.3-64.1 20.9-18.8-8.6-24.2-14.1-23.9-23.5 3 1.9 6.3 2.1 9.7 2 0.2 9.5 6.5 9.1 14.3 8.9-4.9-18 19.1-20.1 25.8-22.3 7.6-7.1-5.7-10.8-3.5-13.2 3.8-4.1 12.4-4.7 8-9.5-11 8.9-11.5 6.7-15.9 6 0.4-2.3 0.1-4.6-0.2-6.9 5.2 3.6 5 2 14.8-7.1l4-16.5-9.6-10.4 38-35.3-6.2-13.5 44.9-41.7 9.9 3.7 40.6-37.7c6.9-6.4 16.8-10.4 26.4 0l77.9-72.2-6.6-18.3 193.5-179.5 0.3-6.7 24.2-22.4 0.2-6.7zm-0.6 7.5l-19.4 18-0.6 6.5 24.5-22.7zm-396.7 374.2l-27.4 25.4 8.6 16 24.3-22.5c-0.7-0.5-3.3-3.1-3.9-3.8-3.9-4.2-4.4-10.4-1.6-15.1zm5.3 1.9c-2.8 2.6-3 7-0.4 9.8 1.1 1.1 2.4 1.7 3.8 2l0.5-13.6c-1.4 0.2-2.8 0.8-3.9 1.8zm5.9-1.6l-0.4 13.5c1.4-0.2 2.8-0.7 3.9-1.8 2.8-2.6 2.9-6.9 0.3-9.7-1-1.2-2.4-1.8-3.8-2zm173.7-160l-23 21.3 27.7 30.7 23.4-21.7c2.7-2.5 3.3-4.9-1.5-10.1l-18.6-20c-2-2.2-4.3-3.7-8-0.2zm-121.5 112.7l-47.2 43.8 6.1 6.5 52.1-48.2c-3.7-3.9-6.5-6.3-11-2.1zm351.6-325.2c-73.9 68.6-147.9 137.1-221.7 205.7 6.1-1 11.8 8 15.7 12.3l219.4-203.5zm123.9-114.5l-15 13.9 2.7 3c4.6 5 6.9 11.4 6.7 17.8l20.3-18.8zm-52.2 48.4l-15.2 14.1 3.7 4c4.2 4.5 6.4 10.1 6.8 15.7l24.6-22.8c-6.3-0.4-12.6-3-17.2-8.1zm-52.4 48.6l-8.4 7.8 14.7 15.9 12.7-11.8c-5.6-0.8-11.1-3.4-15.2-7.9zm-541 505.5c2.1-1.7 4.3-3.2 6.4-4.5 0.9 1 1.9 2.3 2.6 3.8 2 4.3 1.9 8.7-0.2 9.7-2.2 1.1-5.6-1.6-7.7-6q-0.7-1.5-1.1-3zm-3.9 3.6c1.2 0.7 2.4 1.6 3.4 2.8 3.3 3.5 4.5 7.7 2.8 9.3-1.8 1.7-5.9 0.1-9.2-3.4-0.8-0.9-1.5-1.8-2-2.8 1.5-2.1 3.2-4.1 5-5.9zm16-10.9c3.2-1.3 5.9-1.9 7.5-1.3 0.2 0.1 0.4 0.2 0.5 0.3q0.5 1.6 0.5 3.5c0.2 4.8-1.6 8.8-4.1 8.9-2.4 0.1-4.4-3.8-4.5-8.6-0.1-1-0.1-2 0.1-2.8zm-24.6 23.5c1.3-0.2 2.8-0.2 4.3 0 4.8 0.7 8.4 3.2 8 5.6-0.3 2.3-4.4 3.8-9.2 3.1-1.7-0.2-3.3-0.8-4.6-1.4 0.1-2.5 0.6-4.9 1.5-7.3zm88.3-79.8l-20.7 19.1 5.8 12.9 129-119.7-5.8-6.3-105.1 97.5zm-23.3 21.6l-3 2.8 43.4 96.5c9.7 23.7-4.2 46.7-20.1 56 2.1 9.1 13.5 16.1 32.6-1.1 3.9-3.5 0.3-5.7-2.4-3.2-9.7 9-16.6 3.7-13.5-6.4 0 0 6.1-9 9.2-19 3.2-9.9 0.8-22.8-2.5-29.6zm137.5-121l6.1 6.6 71.2-66-6.1-6.6zm471-431.1l12.2 13.1 17.6 10.2-21.1-22.7c-3.2-4.4-5.3-3.7-8.7-0.6zm-582.6 550.1l-16.1 15 31.9 68.6 9.8-9.1c-1.8-2.3-2.7-8.1 1.3-11.9l16.8-15.5-9.5-10.2c-0.8 1.1-1.7 2.2-2.7 3.2-8 7.4-20.6 6.9-28-1.1-7.4-8-7-20.5 1.1-28 1-0.9 2.2-1.8 3.3-2.5zm62.2-56.3l49.1 52.9 5.5-5.1-49.1-52.9zm-9.2 8.5l49.1 53 5.5-5.1-49.1-53zm-9.2 8.6l49.1 52.9 5.4-5-49.1-53zm-9.2 8.6l49.1 52.9 5.5-5-49.1-53zm-9.2 8.5l49.1 53 5.4-5.1-49.1-52.9zm-9.2 8.5l49.1 53 5.5-5.1-49.2-52.9zm-3.7 3.4l-5.5 5.1 10.1 10.9c5.7-0.3 11.4 1.9 15.6 6.3 4.1 4.5 5.8 10.3 5.1 15.9l18.4 19.9 5.4-5.1zm448-415l-218.9 203c6.7 7.1 15.9 16.4 4.7 26.8l-102 94.6c-14.5 13.4-27.6-1.2-29.8-3.6l-42.6 39.6 48.9 52.7 289-268.1c-0.2-4.8 0-12.4 1.3-20.8l88.5-82.1zm-269 249.5l-71.2 66c0 0 9.6 11.6 17.2 4.5l59.7-55.4c5.3-4.9 1.1-7.7-5.7-15.1zm393.7-364.2l-24.4 22.6c-1.2 4.3-3.5 8.3-7 11.6-3.5 3.2-7.7 5.2-12.1 6.1l-31.6 29.4c-0.9 5.2-3.5 10.2-7.6 14.1-4.2 3.8-9.4 6-14.7 6.5l-16.2 15.1 38.6 41.6 113.7-105.4zm-578 553.9c-2.1 1.9-3.5 4.3-4.1 6.8l27.3 1.1c-0.4-2.6-1.6-5.1-3.5-7.2-5.2-5.7-14.1-6-19.7-0.7zm-4.3 12.6c0.5 2.5 1.6 5 3.5 7.1 5.3 5.6 14.1 6 19.7 0.7 2.1-1.9 3.5-4.3 4.1-6.9zm412.1-311.8c-1.7 4.9 4.2 33.9 15.3 45.5l15.9 17.2c-10-10.8-12.5-32.8-7.6-37.3zm-252.6 243.7l-143.3 132.9c0 0 5.3 7.4 6.4 18.7l7.9-24.4 132.7-123.1zm249.7-228.6l-137.8 127.8c8.2-3 17.8-1 24.2 5.8 4.5 4.8 6.4 11.2 5.9 17.3 1-4.2 3.1-8.1 6.5-11.3l116.3-106.2c-7-7.6-12-18.5-15.1-33.4zm-229.9 213.8c-6.9 7.4-7 18.9 0 26.4 6.9 7.6 18.5 8.3 26.4 2l-3-3.2c-6.1 4.7-14.9 4-20.2-1.7-5.4-5.8-5.4-14.6-0.2-20.3zm344.9-319.5l9.2 10 92.1-85.3c-34.5 20-69.3 48.8-101.3 75.3zm-100.5 93.2l9.3 10 89.6-83.1-9.3-10zm-198.9 188q0 0.4 0.1 0.8l-35.8 33.2 2 2.2 34.5-32.1c0.3 1 0.6 1.9 0.9 2.9l-36.4 33.8 2 2.2 35.7-33.1q0.6 1.2 1.4 2.4l-38.4 35.7 2 2.1 38.1-35.4c0.5 0.7 1.1 1.5 1.7 2.1l-34.8 32.3 2 2.2 35-32.4q1 1 2.1 1.8l-32.4 30 2.1 2.2 32.8-30.5q1.3 0.8 2.5 1.4l-29.6 27.5 2 2.2 30.7-28.5q2 0.7 4 1.1zm42.3-38.4l-39.7 36.8 21.3 22.9 39.7-36.8h-0.1c6-5.9 6.3-15.5 0.6-21.7-5.8-6.2-15.4-6.7-21.8-1.2zm-232.1 219.9l6.1 6.7 23.8-22.1-6.2-6.6zm131-121.3l-104.6 97c23.6-5.6 46.1-17.1 65.1-34.7 19-17.7 32.1-39.2 39.5-62.3zm-134.2 129.7c-5.5 12.7-15 42.3-15 42.3-1.9 6.1-0.1 9.2 5.2 4.3 29.5-25.2 51.1-16.9 51.1-16.9 3.1-10.3 4.1-32.6-5-45.1-0.5 5.3-30.6 45.5-36.3 15.4zm103.8-58.6c-5.1 4.8-5.4 12.8-0.6 17.9 2.3 2.5 5.3 3.7 8.4 4l-5.4-23.6q-1.3 0.7-2.4 1.7zm9.5-3.3l5.3 23.6c0.9-0.5 1.7-1.1 2.4-1.8 5.2-4.7 5.5-12.7 0.7-17.8-2.3-2.4-5.3-3.8-8.4-4zm147.9-137.2l-31.4 29.1c-1.1 1.1-1.2 2.9-0.1 4 1 1.2 2.8 1.2 4 0.2l31.3-29.1c1.2-1.1 1.3-2.9 0.2-4-1.1-1.2-2.9-1.2-4-0.2zm-45.2 41.9l-53.3 49.5c-1.1 1-1.2 2.8-0.1 4 1 1.1 2.8 1.2 4 0.1l53.3-49.4c1.1-1.1 1.2-2.9 0.1-4-1-1.2-2.8-1.2-4-0.2zm60.5-30.3l-33 30.6c13.8-3.1 28.9 1 39.3 12.2 15.5 16.8 14.5 42.7-2.2 58.2l-75.8 70.2 2.8 7.4 74.4-69c21.2-19.7 22.6-52.7 3.4-74.1-8.1-10.3-11.1-23.3-8.9-35.5zm-51.2 47.5l-15.6 14.5c3.6 21.3 16.5 38.8 34.6 49.9-20.2-6.6-35.9-20.8-46.1-39.3l-11.6 10.9c-14.5 13.4-15.4 35.8-1.9 50.3 13.4 14.5 35.9 15.4 50.3 1.9l38.8-35.9c14.5-13.4 15.4-35.9 1.9-50.4-13.4-14.5-35.9-15.3-50.4-1.9zm-23.5 372.3c-10.4 9.3-19.2 20-26.3 31.6l124.8-68.8c-24.2-0.3-48.8 5.5-71.5 18-9.9 5.5-18.9 11.9-27 19.2zm-38.1 48.6l14.8 33.6 11.1-6.3-14.2-34.3zm24.6-13.7l14.7 33.5 126.5-72-12.6-32.5z"/>
</svg>