<svg version="1.2" xmlns="http://www.w3.org/2000/svg" viewBox="0 0 24 24" width="24" height="24">
	<title>MTManager-svg</title>
	<style>
		.s0 { fill: #fff1c0 } 
	</style>
	<path id="Layer" fill-rule="evenodd" class="s0" d="m12 4.4h9.6c1.3 0 2.4 1.1 2.4 2.4v12c0 1.3-1.1 2.4-2.4 2.4h-19.2c-1.3 0-2.4-1.1-2.4-2.4v-14.4c0-1.3 1.1-2.4 2.4-2.4h7.2zm-7.2 13.3c0 0.4 0.3 0.7 0.7 0.7 0.3 0 0.6-0.3 0.6-0.7v-6.3l1.1 1.5q0 0 0 0c0 0.3 0.2 0.6 0.6 0.6 0.3 0 0.6-0.3 0.6-0.6q0 0 0 0l1-1.5v6.3c0 0.4 0.3 0.7 0.7 0.7 0.3 0 0.6-0.3 0.6-0.7v-8.5h-1.3l-1.6 2.2-1.6-2.2h-0.1-1.3zm11-7v-0.4h0.9v8.1h1.3v-8.1h1.1v0.4c0 0.4 0.3 0.7 0.6 0.7 0.4 0 0.7-0.3 0.7-0.7v-1.5h-5.9v1.5c0 0.4 0.3 0.7 0.6 0.7 0.4 0 0.7-0.3 0.7-0.7z"/>
</svg>