<svg version="1.2" xmlns="http://www.w3.org/2000/svg" viewBox="0 0 24 24" width="24" height="24">
	<title>mx_player-svg</title>
	<style>
		.s0 { fill: #000000 } 
	</style>
	<path id="Layer" fill-rule="evenodd" class="s0" d="m16.6 0.9c1.4 0.6 2.8 1.5 3.9 2.6 1.1 1.1 2 2.4 2.6 3.9 0.6 1.4 0.9 3 0.9 4.6 0 4.8-2.9 9.2-7.4 11.1-4.5 1.8-9.6 0.8-13.1-2.6-3.4-3.4-4.4-8.6-2.6-13.1 1.9-4.5 6.2-7.4 11.1-7.4 1.6 0 3.1 0.3 4.6 0.9zm1.1 11.5q0.1-0.1 0.1-0.1 0-0.1-0.1-0.1 0-0.1-0.1-0.1l-8.9-5.1q-0.1-0.1-0.2-0.1 0 0-0.1 0.1 0 0-0.1 0.1 0 0 0 0.1v10.2q0 0.1 0.1 0.1 0 0.1 0 0.1 0.1 0.1 0.2 0.1 0 0 0.1-0.1l8.9-5.1q0.1 0 0.1-0.1z"/>
</svg>