<svg version="1.2" xmlns="http://www.w3.org/2000/svg" viewBox="0 0 36 36" width="24" height="24">
	<title>myairtel-svg</title>
	<style>
		.s0 { fill: #000000 } 
	</style>
	<path id="path_0" class="s0" d="m35.1 16.2q-0.6 1.7-1.5 3.2-0.8 1.6-1.8 3-1.1 1.5-2.3 2.8-1.3 1.2-2.7 2.3-1.3 1.2-2.8 2.3-1.4 1-2.9 2-1.5 0.9-3.1 1.8-1.6 0.8-3.2 1.5-0.5 0.2-1.1 0.4-0.5 0.1-1 0.2-0.6 0.1-1.1 0.2-0.6 0.1-1.1 0.1-0.5 0-1.1-0.1-0.5 0-0.9-0.3-0.5-0.2-0.9-0.5-0.4-0.4-0.7-0.8c-1.9-2.8 0.1-6.6 1-7.8q0.2-0.4 0.5-0.7 0.2-0.4 0.5-0.7 0.4-0.4 0.7-0.7 0.3-0.3 0.7-0.5 0.4-0.3 0.9-0.6 0.4-0.2 0.9-0.4 0.5-0.2 1-0.3 0.5-0.1 1-0.1 0.5 0 1 0.1 0.5 0.2 0.9 0.5 0.4 0.3 0.7 0.7 0.2 0.5 0.3 1c0.1 1.2-0.6 1.7-1.3 2.4-1.2 1.2-3 2.9-3.9 3.9q-0.1 0.1-0.2 0.3-0.1 0.2-0.2 0.4 0 0.1-0.1 0.3 0 0.2 0 0.4c0 0.4 0.2 1.1 1.9 0.6q1.1-0.4 2.2-0.9 1-0.5 2-1.1 1-0.6 2-1.3 0.9-0.7 1.8-1.5 1.2-0.9 2.2-1.9 1.1-1 2-2.1 0.9-1.2 1.8-2.4 0.8-1.2 1.4-2.5 0.4-0.7 0.7-1.5 0.2-0.8 0.3-1.6 0-0.8-0.1-1.6-0.1-0.8-0.4-1.5-0.1-0.3-0.4-0.6-0.2-0.3-0.5-0.5-0.3-0.2-0.6-0.4-0.4-0.1-0.7-0.2-0.5-0.1-0.9-0.1-0.4-0.1-0.8 0-0.5 0-0.9 0.1-0.4 0.1-0.8 0.3-1.4 0.7-2.9 1.4-1.4 0.7-2.8 1.4-1.4 0.8-2.8 1.6-1.3 0.8-2.6 1.7-0.9 0.6-1.8 1-0.9 0.5-1.8 0.8-1 0.3-2 0.5-1 0.2-2 0.2-0.4 0-0.9 0-0.4-0.1-0.8-0.2-0.5-0.1-0.9-0.3-0.4-0.2-0.7-0.5-0.4-0.2-0.6-0.6-0.3-0.3-0.5-0.6-0.2-0.4-0.3-0.8-0.1-0.4-0.1-0.9c-0.2-3 1.5-5.7 4.5-8.4q0.9-0.8 2-1.6 1-0.8 2.1-1.5 1.1-0.7 2.3-1.3 1.1-0.6 2.3-1.2 1.2-0.5 2.4-0.9 1.2-0.5 2.4-0.8 1.3-0.3 2.5-0.5 1.3-0.2 2.6-0.3c4.6 0.3 10 2.1 12.4 8q0.3 1 0.4 2 0.1 1.1 0.1 2.1-0.1 1.1-0.3 2.1-0.2 1-0.6 2z"/>
</svg>