<svg version="1.2" xmlns="http://www.w3.org/2000/svg" viewBox="0 0 36 36" width="24" height="24">
	<title>nekogram-svg</title>
	<style>
		.s0 { fill: #000000 } 
	</style>
	<path id="path_0" fill-rule="evenodd" class="s0" d="m24.9 1.4c2.2 0.9 4.2 2.2 5.8 3.9 1.7 1.6 3 3.6 3.9 5.8 0.9 2.2 1.4 4.5 1.4 6.9 0 7.3-4.4 13.8-11.1 16.6-6.7 2.8-14.5 1.3-19.6-3.9-5.2-5.1-6.7-12.9-3.9-19.6 2.8-6.7 9.3-11.1 16.6-11.1 2.4 0 4.7 0.5 6.9 1.4zm8.5 9.2q0 0-0.1-0.1-0.1-0.1-0.1-0.1-0.1-0.1-0.2-0.1-0.7-0.4-1.4-0.8-0.8-0.4-1.5-0.7-0.8-0.3-1.6-0.6-0.8-0.3-1.6-0.5 0 0 0 0-0.1 0-0.1 0-0.1 0-0.1 0 0 0-0.1 0c-0.2 0.1-0.3 0.3-0.3 0.8q0.1 0.8 0.2 1.6 0 0.8 0.1 1.7 0.2 0.8 0.3 1.6 0.1 0.8 0.3 1.6 0 0.2 0 0.3 0.1 0.2 0.1 0.4 0 0.1 0 0.3 0 0.2 0 0.3-0.1 0.1-0.2 0.2-0.2 0.1-0.3 0.2-0.1 0.1-0.2 0.1-0.2 0.1-0.3 0.2-0.6 0.2-1.1 0.5-0.5 0.3-1 0.7-0.5 0.3-1 0.7-0.4 0.4-0.9 0.8c-0.7 0.6-0.8 0.7-1.1 0.7-0.5 0-1.1-0.3-2.8-1.3-2.3-1.4-3.2-1.8-4.1-1.9-0.6-0.1-0.8 0-0.9 0.2q0 0.6-0.1 1.1 0 0.5 0 1.1-0.1 0.5 0 1 0 0.6 0 1.1 0 0.8 0 1.6 0.1 0.7 0.2 1.5 0.2 0.8 0.4 1.5 0.3 0.8 0.6 1.5 0.1 0.4 0.3 0.9 0.1 0.4 0.2 0.9 0.1 0.4 0.2 0.8 0.1 0.5 0.1 1 0 0.4 0.1 0.8 0.1 0.5 0.2 0.9 0.1 0.4 0.2 0.8 0.1 0.4 0.3 0.8c0.1 0.2 0.2 0.3 0.3 0.3q0.8 0.1 1.6 0.1c2.9 0 5.7-0.7 8.2-2.1 2.6-1.4 4.7-3.4 6.2-5.8 1.6-2.4 2.5-5.2 2.7-8.1 0.2-2.8-0.4-5.7-1.6-8.3q0-0.1-0.1-0.2zm-2.4 8.5q0.2 0.1 0.5 0.2 0.2 0.1 0.4 0.3 0.1 0.2 0.3 0.4 0.2 0.3 0.3 0.6 0.1 0.4 0.1 0.7 0 0.4-0.2 0.7-0.2 0.3-0.5 0.6c-0.4 0.2-0.9 0.2-1.3 0.1-0.5-0.1-0.9-0.4-1.2-0.8-0.2-0.4-0.4-0.9-0.3-1.3 0-0.5 0.2-0.9 0.6-1.3q0 0 0.1-0.1 0.1 0 0.1 0 0.1-0.1 0.2-0.1 0.1 0 0.2 0 0 0 0 0 0.1 0 0.1 0 0 0 0.1 0 0 0 0 0 0.3 0 0.5 0zm-9.3 7.3q0.3 0.1 0.5 0.2 0.2 0.1 0.4 0.3 0.2 0.1 0.3 0.4 0.2 0.2 0.3 0.6 0.2 0.3 0.1 0.7 0 0.4-0.2 0.7-0.1 0.3-0.4 0.5c-0.5 0.2-0.9 0.3-1.4 0.2-0.5-0.2-0.9-0.4-1.1-0.8-0.3-0.4-0.4-0.9-0.4-1.4 0-0.4 0.3-0.9 0.6-1.2q0.1-0.1 0.1-0.1 0.1 0 0.2-0.1 0.1 0 0.1 0 0.1 0 0.2-0.1 0 0 0.1 0 0 0 0 0 0.1 0 0.1 0 0 0 0.1 0 0.2 0 0.4 0.1z"/>
</svg>