<svg version="1.2" xmlns="http://www.w3.org/2000/svg" viewBox="0 0 24 24" width="24" height="24">
	<title>notion-svg</title>
	<style>
		.s0 { fill: #000000 } 
	</style>
	<path fill-rule="evenodd" class="s0" d="m1.9 1l13.3-0.9c1.7-0.2 2.1-0.1 3.1 0.7l4.3 2.9c0.7 0.6 0.9 0.7 0.9 1.3v16.3c0 1.1-0.4 1.7-1.7 1.8l-15.4 0.9c-1 0-1.5-0.1-2-0.8l-3.1-4c-0.6-0.8-0.8-1.3-0.8-2v-14.5c0-0.9 0.4-1.6 1.4-1.7zm3.3 6.3v13.9c0 0.7 0.4 1 1.3 1l14.5-0.9c0.8 0 0.9-0.5 0.9-1.1v-13.8c0-0.7-0.2-1-0.7-0.9l-15.2 0.9c-0.6 0-0.8 0.3-0.8 0.9zm14.4 0.7c0.1 0.5 0 0.9-0.4 0.9l-0.7 0.2v10.2c-0.6 0.4-1.2 0.5-1.7 0.5-0.7 0-0.9-0.2-1.5-0.9l-4.5-7.2v7l1.4 0.3c0 0 0 0.8-1.2 0.8l-3.2 0.2c-0.1-0.2 0-0.6 0.3-0.7l0.9-0.3v-9.1l-1.2-0.1c-0.1-0.5 0.2-1.1 0.8-1.1l3.5-0.2 4.7 7.2v-6.4l-1.2-0.1c-0.1-0.6 0.3-0.9 0.8-1zm-15.2-3.8c0.8 0.6 1.1 0.6 2.5 0.5l13.2-0.8c0.3 0 0-0.3-0.1-0.4l-2.2-1.5c-0.4-0.4-1-0.7-2-0.7l-12.8 1c-0.5 0-0.6 0.3-0.4 0.4z"/>
</svg>