<svg version="1.2" xmlns="http://www.w3.org/2000/svg" viewBox="0 0 143 143" width="24" height="24">
	<title>icon-svg</title>
	<defs>
		<linearGradient id="g1" x2="1" gradientUnits="userSpaceOnUse" gradientTransform="matrix(83.75,96.545,-104.417,90.579,15.82,37.154)">
			<stop offset="0" stop-color="#000000"/>
			<stop offset="1" stop-color="#000000"/>
		</linearGradient>
		<linearGradient id="g2" x2="1" gradientUnits="userSpaceOnUse" gradientTransform="matrix(83.75,96.545,-104.417,90.579,15.82,37.154)">
			<stop offset="0" stop-color="#9b58dc"/>
			<stop offset="1" stop-color="#321c92"/>
		</linearGradient>
	</defs>
	<style>
		.s0 { fill: url(#g1);stroke: url(#g2);stroke-width: .4 } 
	</style>
	<g id="layer1">
		<path id="path239" class="s0" d="m97.7 135.5c-1.8-1-12.4-6.8-61.9-34.3-13.7-7.6-27-15-29.4-16.3-5.6-3.1-6.4-3.8-6.4-5.6 0-1 2.2-7.1 7.4-20.6 4-10.5 7.6-19.7 7.9-20.5 0.8-1.7 2-3.1 3.2-3.7 1.1-0.6 28.6-10.7 30-11 1.5-0.4 2.8 0.3 3.6 2 0.4 0.8 1.9 4.8 3.4 8.9 1.5 4.2 3.8 10.3 5 13.7 2.8 7.7 2.9 8.7 1 9.9-0.6 0.3-4 1.6-7.6 3-3.6 1.3-7.1 2.7-7.7 3-1.4 0.8-1.6 2.1-0.5 3.1 0.4 0.4 7.4 4.4 15.5 8.8 22.7 12.5 21.4 12 22.9 10.4 0.8-0.8 14.3-35.3 15.1-38.4 0.3-1.3 0.3-1.4-0.4-2-1-0.8-0.8-0.8-9.7 2.3-8.9 3.1-9.7 3.2-10.9 0.9-0.6-1.3-10.1-27.4-10.7-29.5-0.4-1.3 0.1-2.6 1.2-3.3 0.5-0.4 7.4-3 15.4-5.9 11.8-4.4 14.8-5.4 16.4-5.4 2 0 2.2 0.1 38.6 20.3 2.6 1.3 3.9 2.8 3.9 4.2 0 0.5-9 24.5-20.1 53.2-15.5 40.5-20.2 52.4-20.9 53-1.2 1-2.1 1-4.3-0.2z"/>
	</g>
</svg>