<svg version="1.2" xmlns="http://www.w3.org/2000/svg" viewBox="0 0 1080 1080" width="24" height="24">
	<title>New Project</title>
	<style>
		.s0 { fill: #000000;stroke: #ffffff;stroke-miterlimit:10;stroke-width: 0 } 
	</style>
	<path id="Layer" class="s0" d="m1040.6 786.7c-36.6 66.8-107.6 112.4-188.8 112.4h-563.9c-93.7 0-184.8-41.3-237-118.9l581.2-238.4c0 0 408.5 244.9 408.5 244.9z"/>
	<path id="Layer" class="s0" d="m781.4 470.7l-136.3 55.9 408.7 245.1c30.2-55.7 35.7-124.5 9.2-186.9-46.1-108.9-172.3-159-281.6-114.1z"/>
	<path id="Layer" class="s0" d="m403.6 389.2l222 133.1-581.1 238.4c-56.2-83.5-60.9-197.3-4.3-287.9 77-122.9 239.6-159.2 363.4-83.6z"/>
	<path id="Layer" class="s0" d="m873.3 435.4c-34.1-2.1-66.7 2.9-98.4 15.8l-136.3 56-222-133.2c-44.8-27.3-94.5-39.9-143.5-39.2 58.4-92.4 142.1-153.8 279-153.8 145.6 0 288.2 112.1 321.2 254.4z"/>
</svg>