<svg version="1.2" xmlns="http://www.w3.org/2000/svg" viewBox="0 0 36 36" width="24" height="24">
	<title>onedrive-svg</title>
	<style>
		.s0 { fill: #020203 } 
	</style>
	<g id="Folder 1">
		<path id="path_0" class="s0" d="m18 15.7l-4-2.3c-1.3-1-2.9-1.6-4.7-1.7q-0.2 0-0.5 0-0.3 0-0.7 0c-4.5 0.4-8.1 4.2-8.1 8.8 0 1.6 0.4 3 1.1 4.3l18.6-8.1z"/>
		<path id="path_1" class="s0" d="m21.5 15.9l3.6-1.6q0.2 0 0.3-0.1 1.5-0.7 3.2-0.7c-1.6-4-5.5-6.9-10.1-6.9-3.2 0-6.1 1.4-8.1 3.6 1.6 0.3 3.1 0.9 4.4 1.8z"/>
		<path id="path_2" class="s0" d="m2 26.1c1.6 2 4.1 3.2 6.8 3.2h20.6c2.4-0.2 4.5-1.6 5.7-3.6l-13.7-8z"/>
		<path id="path_3" class="s0" d="m29.1 15.1q-0.1-0.1-0.2 0-1.4 0-2.6 0.4-0.2 0.1-0.4 0.2l-2.8 1.2 12.6 7.3q0.3-0.9 0.3-2c0-3.9-3.1-7-6.9-7.1z"/>
	</g>
</svg>