<svg version="1.2" xmlns="http://www.w3.org/2000/svg" viewBox="0 0 24 24" width="24" height="24">
	<title>opera_browser-svg</title>
	<style>
		.s0 { fill: #000000 } 
	</style>
	<path id="path2" fill-rule="evenodd" class="s0" d="m20.4 21.3c-2.1 1.7-4.8 2.7-7.6 2.7-6.7 0-12-5.4-12-12 0-6.6 5.3-12 12-12 2.8 0 5.5 1 7.6 2.7-1.4-0.9-3-1.5-4.6-1.5-5 0-9 4.8-9 10.8 0 6 4 10.8 9 10.8 1.6 0 3.2-0.6 4.6-1.5zm-7.9-17.7c1-0.6 2.1-0.9 3.3-0.9 3.8 0 7.5 3.9 7.5 9.3 0 5.4-3.7 9.3-7.5 9.3-1.2 0-2.3-0.3-3.3-0.9q0.1 0 0.3 0c3.3 0 6-3.8 6-8.4 0-4.6-2.7-8.4-6-8.4q-0.2 0-0.3 0z"/>
</svg>