<svg version="1.2" xmlns="http://www.w3.org/2000/svg" viewBox="0 0 400 400" width="24" height="24">
	<title>otraku-svg</title>
	<style>
		.s0 { fill: #040404 } 
		.s1 { fill: #080404 } 
	</style>
	<g id="svgg">
		<path id="path0" fill-rule="evenodd" class="s0" d="m-0.1 30h2.1c1.7 0 2 0.1 2 0.8 0 0.8 0.3 0.8 5 0.8 2.9 0 5.1 0.2 5.2 0.4 0.1 0.2 2.2 0.4 4.8 0.4 3.5 0 4.7 0.1 5.1 0.6 0.5 0.5 1.8 0.6 5.9 0.6 3.2 0 5.2 0.2 5.2 0.4 0 0.2 2.1 0.4 5.5 0.4 4.6 0 5.6 0.1 5.8 0.6 0.2 0.5 1.3 0.6 6.7 0.6 3.8 0 6.4 0.2 6.6 0.4 0.1 0.2 2.8 0.4 6.7 0.4 5.1 0 6.7 0.1 7.3 0.6 0.6 0.5 2.3 0.6 8.3 0.6 4.5 0 7.5 0.2 7.7 0.4 0.1 0.2 3.6 0.4 9 0.4 7.2 0 8.8 0.1 9.3 0.6 0.5 0.5 2.4 0.6 11.8 0.6 7.3 0 11.3 0.1 11.3 0.4 0 0.3 6.3 0.4 18.3 0.4 15.5 0 18.4 0.1 19.1 0.6 1.2 0.9 61.5 0.9 62.4 0 0.5-0.5 3.2-0.6 19-0.6 11.9 0 18.3-0.1 18.3-0.4 0-0.3 4.1-0.4 11.4-0.4 9.6 0 11.4-0.1 11.8-0.6 0.4-0.5 2-0.6 9.3-0.6 5.3 0 8.8-0.2 8.9-0.4 0.2-0.2 3.2-0.4 7.9-0.4 6.2 0 7.7-0.1 8.2-0.6 0.5-0.5 1.8-0.6 7.1-0.6 4 0 6.7-0.2 6.8-0.4 0.2-0.2 2.8-0.4 6.5-0.4 4.9 0 6.3-0.1 6.8-0.6 0.4-0.5 1.7-0.6 5.9-0.6 3.1 0 5.5-0.2 5.6-0.4 0.2-0.2 2.5-0.4 5.6-0.4 4.4 0 5.4-0.1 5.6-0.6 0.1-0.5 1.1-0.6 5-0.6 2.9 0 4.8-0.2 4.8-0.4 0-0.2 1.9-0.4 5-0.4 4.7 0 5 0 5-0.8 0-0.7 0.3-0.8 2.3-0.8h2.2l-0.2 2.2c-0.1 1.3-0.4 2.5-0.8 2.9-0.4 0.4-0.7 1.1-0.7 1.4 0 0.4-0.2 0.7-0.4 0.7-0.1 0-0.4 0.3-0.6 0.7-0.5 1.3-1.2 2.5-1.5 2.5-0.2 0-0.3 0.2-0.3 0.5 0 0.6-1.4 2.4-2.5 3.5-0.4 0.3-0.7 0.8-0.7 1.1 0 0.9-6.3 6.9-7.1 6.9-0.5 0-0.9 0.3-1 0.6-0.2 0.4-0.8 0.6-2.1 0.6-1 0-1.8 0.2-1.8 0.4 0 0.2-1.1 0.4-2.5 0.4-1.8 0-2.7 0.2-3.1 0.6-0.4 0.5-1.5 0.6-4.8 0.6-2.5 0-4.7 0.2-5.3 0.5l-1.1 0.5v9.7c0 8.3-0.1 9.7-0.6 9.9-0.3 0.2-0.6 0.5-0.6 0.8 0 0.4-0.4 0.6-1 0.6-0.5 0-1.1 0.2-1.2 0.4-0.1 0.2-4 0.4-10.4 0.4-8.5 0-10.2 0.1-10.6 0.6-0.4 0.5-2.1 0.6-10.6 0.6-5.9 0-10.2 0.1-10.4 0.4-0.2 0.2-2.6 0.4-5.4 0.5l-5 0.1-0.1 4.8c-0.1 2.9 0.1 4.9 0.3 5.1 0.3 0.3 0.4 4 0.4 10.2 0 8.3 0.1 10 0.7 11.3l0.7 1.6h19.6c20.5 0 21 0 21 1.7 0 0.3 0.2 0.7 0.4 0.9 0.6 0.3 0.6 22 0 22.4-0.2 0.1-0.4 0.6-0.4 1 0 0.8-0.4 0.8-19.4 0.8h-19.4v10.1c0 6.4 0.2 10.3 0.4 10.5 0.3 0.1 0.4 4.2 0.4 10.9 0 8.8 0.1 11 0.6 11.9 0.5 0.9 0.6 3.1 0.6 11 0 6.2 0.2 10 0.4 10.2 0.3 0.1 0.4 4.2 0.4 10.9 0 8.3 0.1 10.8 0.5 11 0.4 0.1 0.6 2.7 0.6 10.7 0.1 6 0.3 10.7 0.5 10.9 0.3 0.2 0.4 4.6 0.4 10.5 0 8.1 0.1 10.3 0.6 11.2 0.5 0.9 0.6 3 0.6 10.8 0 6 0.2 9.8 0.4 9.9 0.3 0.2 0.4 4.1 0.4 10.4 0 8.2 0.1 10.4 0.6 11.3 0.5 0.9 0.6 3 0.6 11 0 6.2 0.2 10 0.4 10.1 0.3 0.2 0.4 4.1 0.4 10.5 0 8.4 0.2 10.5 0.6 11.1 0.5 0.6 0.6 2.2 0.6 7.7v6.9h-38v-9.5c0-7.1-0.1-9.6-0.5-10-0.4-0.4-0.5-10.2-0.6-45.8 0-28.8-0.2-45.4-0.5-45.6-0.2-0.3-0.4-16.6-0.4-45.5 0-35.7-0.1-45.1-0.5-45.2-0.4-0.2-0.5-3.3-0.6-13.5l-0.1-13.2h-161.9v43.1c0 27.6-0.2 43.2-0.4 43.5-0.3 0.2-0.5 16.3-0.5 44.1-0.1 34.6-0.2 43.8-0.6 43.9-0.4 0.2-0.5 5.9-0.5 27v26.7h-38.9l0.3-1.3c0.2-0.7 0.4-5.6 0.5-11 0.2-6.9 0.4-9.8 0.8-10.1 0.4-0.4 0.5-3 0.5-10.2 0-6.1 0.1-9.8 0.4-10 0.2-0.1 0.4-3.8 0.4-9.7 0-7.8 0.1-9.7 0.6-10.3 0.4-0.6 0.6-2.6 0.6-10.4 0-6 0.1-9.8 0.4-10 0.2-0.1 0.4-3.7 0.4-9.5 0-7.6 0.1-9.5 0.6-10.1 0.4-0.6 0.6-2.6 0.6-10.4 0-5.5 0.1-9.8 0.4-10 0.2-0.2 0.4-4.7 0.5-10.1 0-7.4 0.2-9.8 0.6-9.9 0.4-0.2 0.5-2.5 0.5-10.1 0-5.6 0.1-10 0.4-10.3 0.2-0.2 0.4-4.7 0.5-10 0-7.1 0.2-9.8 0.6-10.2 0.4-0.4 0.5-2.9 0.5-9.9 0-5.3 0.1-9.6 0.4-9.9 0.2-0.2 0.4-4.8 0.5-10.2 0-7.2 0.2-10 0.6-10.4 0.3-0.3 0.5-1.4 0.5-2.6v-2.1h-19.8c-18.5 0-19.9-0.1-20.1-0.7-0.1-0.4-0.3-1-0.5-1.4-0.6-1-0.5-23.4 0-23.7 0.2-0.2 0.4-0.6 0.4-1 0-0.8 0.5-0.8 20.3-0.8h20.4l0.2-4.1c0.1-2.2 0.4-4.2 0.6-4.4q0.5-0.5 0.5-10.6c0-6.3 0.1-10.2 0.4-10.3 0.6-0.4 0.5-2.6-0.2-3.2-0.4-0.5-1.7-0.6-5.4-0.6-2.7 0-4.9-0.2-5-0.4-0.2-0.3-4-0.4-10.2-0.4-8.3 0-10-0.1-10.4-0.6-0.4-0.5-2.1-0.6-10.6-0.6-6.4 0-10.3-0.2-10.4-0.4-0.1-0.2-0.6-0.4-1-0.4-2.3 0-2.4-0.7-2.4-12.4v-10.8h-9.2c-5.7 0-9.3-0.2-9.4-0.4-0.1-0.2-0.9-0.4-1.6-0.4-0.9 0-1.5-0.2-1.7-0.6-0.1-0.3-0.4-0.6-0.7-0.6-0.3 0-0.9-0.5-1.4-1.2-0.5-0.6-1.5-1.9-2.4-2.9-0.9-0.9-1.8-2.2-2.1-2.8-0.3-0.6-0.7-1.1-1-1.1-0.3 0-0.5-0.1-0.5-0.3 0-0.2-0.6-1-1.4-1.9-0.8-0.9-1.4-1.8-1.4-2.1 0-0.2-0.3-0.5-0.6-0.6-0.3-0.2-0.6-0.6-0.6-1.1 0-0.4-0.2-0.8-0.4-0.8-0.2 0-0.4-0.3-0.4-0.7 0-0.3-0.3-1-0.7-1.4-0.4-0.4-0.7-1.6-0.8-3.1zm279.6 52.4h-13.3c-7.3 0.1-15.5 0.2-18.1 0.4-2.6 0.1-10.3 0.3-17.1 0.3-6.7 0-12.5 0.2-12.8 0.3-0.6 0.2-0.7 1.9-0.7 15.2v15h62zm-130.1 0.8h-29.9v30.4h62.8v-29.9l-1.5-0.3c-0.8-0.1-14.9-0.2-31.4-0.2z"/>
		<path id="path1" class="s1" d=""/>
		<path id="path2" class="s1" d=""/>
		<path id="path3" class="s1" d=""/>
		<path id="path4" class="s1" d=""/>
	</g>
</svg>