<svg version="1.2" xmlns="http://www.w3.org/2000/svg" viewBox="0 0 512 512" width="24" height="24">
	<title>paypal-svg</title>
	<style>
		.s0 { opacity: .8;fill: #000000 } 
		.s1 { opacity: .6;fill: #000000 } 
		.s2 { fill: #000000 } 
	</style>
	<path id="path_0" class="s0" d="m55.6 454.9c-8.7-4.4-10.7-9.2-9.2-18.7 3.3-20.7 6.2-41.5 9.4-62.2 2.9-18.3 5.9-36.6 8.8-54.9 2.8-17.6 5.4-35.1 8.1-52.6 3.4-21.6 6.9-43.1 10.2-64.6 2.8-17.9 5.4-35.9 8.2-53.8 2.8-17.9 5.9-35.8 8.7-53.7 3.3-21.1 6.1-42.3 9.7-63.4 1.6-9.7 1.8-20.7 12-26.5 3.9-2.2 8.7-4 13.1-4 57.9-0.3 115.9-1.1 173.8 0.2 30 0.6 59.9 5.5 85.7 22.6 24 15.9 37.8 38.3 41.4 67.4 1.8 13.6 0 26.5-1.8 39.7q0 0.6-0.1 1.2c-2.1-1.1-4.3-2.2-6.4-3.3-23.6-11.7-49.5-13.3-74.8-14.5-36-1.7-72-0.5-108-0.3-6.6 0-13.2 0.9-19.7 2-7.8 1.3-15.9 10.1-17 17.7-1.1 7.8-2.1 15.5-3.4 23.2-1.9 11.3-4.3 22.5-6.1 33.8-3 19-5.8 38-8.5 57-2.2 15.3-4.3 30.7-6.4 46-3.3 18.9-6.7 37.9-9.8 56.9-1.7 9.9-2.7 19.9-4.3 29.8-2.5 15.6-5.2 31.2-7.8 46.8-1.3 7.4-2.3 14.8-3.4 22.1-0.8 4.7-3.4 6.2-8.3 6.2-31.4-0.2-62.7-0.1-94.1-0.1z"/>
	<path id="path_1" class="s1" d="m55.6 454.9c31.4 0 62.7-0.1 94 0.1 5 0 7.6-1.4 8.4-6.2 1.1-7.3 2.1-14.7 3.3-22.1 2.6-15.6 5.4-31.2 7.9-46.8 1.6-9.9 2.6-19.9 4.2-29.8 3.2-19 6.6-38 9.9-56.9 0.9-0.4 2-0.6 2.7-1.2 6.2-5.7 13.6-7.3 21.8-7.3 15.4 0 30.8-1.2 46.1-1 25.9 0.4 51-3.2 75.5-11.8 14.8-5.2 28.3-12.4 40.5-21.6 21-16 36-36.6 46.8-60.8 8.3-18.6 13.7-37.9 16.9-57.9q0.1-0.6 0.1-1.2c12.4 7.2 23.1 16.1 30.5 28.9 10.2 17.5 12.7 36.5 11.8 56.1-0.9 20.4-5 40.2-12 59.3-19.2 52.8-56.8 83.5-112.3 91.5-16.3 2.3-33 2.7-49.5 3.5-12.3 0.6-19.5 5.9-21.6 17.9-3.5 21.2-6.6 42.4-9.9 63.6-2.2 13.5-4.2 27.2-6.7 40.7-2.8 14.5-9.6 20-24.4 20q-36.1 0.1-72.3 0.1c-13.6-0.1-18.6-6.3-16.2-19.8 2.1-11.6 3.8-23.4 5.7-35.8-3.1-0.2-5.4-0.4-7.8-0.4-28.3 0-56.7 0-85.1-0.1-2.7 0-5.5-0.6-8.3-1z"/>
	<path id="path_2" class="s2" d="m433.6 131.6c-3.2 20-8.6 39.3-16.9 57.9-10.8 24.2-25.9 44.8-46.8 60.8-12.2 9.2-25.7 16.4-40.5 21.6-24.5 8.6-49.6 12.2-75.5 11.8-15.4-0.2-30.7 0.9-46.1 1-8.2 0-15.6 1.6-21.8 7.3-0.7 0.6-1.8 0.8-2.8 1.2 2.2-15.3 4.3-30.7 6.5-46 2.7-19 5.5-38 8.5-57 1.8-11.3 4.1-22.5 6-33.8 1.4-7.7 2.4-15.4 3.5-23.2 1.1-7.6 9.2-16.4 16.9-17.7 6.5-1.1 13.2-2 19.7-2 36-0.2 72.1-1.4 108.1 0.3 25.3 1.2 51.2 2.8 74.7 14.5 2.2 1.1 4.4 2.2 6.5 3.3z"/>
</svg>