<svg version="1.2" xmlns="http://www.w3.org/2000/svg" viewBox="0 0 512 512" width="24" height="24">
	<title>paytm-svg</title>
	<style>
		.s0 { opacity: .7;fill: #000000 } 
		.s1 { fill: #000000 } 
	</style>
	<g id="Folder 1">
		<path id="path_0" class="s0" d="m406.7 206.9c7.3-4.8 14.9-6.5 23.3-6.5 7.6 0 13.8 2.9 19.6 7 2.7 1.9 4.2 2.4 7 0.2 18.7-15 47.5-6.8 55 19.3 0.5 1.6 0.4 3.4 0.4 5.1q0 46.8 0 93.5c0 7.3-1.5 8.8-8.8 8.9q-8.3 0-16.6 0c-6.5-0.1-7.9-1.4-8-8 0-26.8 0-53.6 0-80.5 0-1.9 0.1-3.8-0.2-5.6-1.1-5.3-4.9-7.9-10.8-7.5-4.6 0.2-9.2 4.6-9.3 9.3-0.2 9.6-0.1 19.1-0.1 28.6 0 18.9 0 37.7 0 56.6 0 7-1.2 8.1-8.2 8.2q-7.7 0-15.5 0c-6.7-0.1-7.9-1.2-7.9-8 0-27.5 0-55 0-82.5 0-7.7-4.8-12.6-11.6-12.2-5.9 0.3-8.8 3.3-8.8 9.2 0 27.7 0 55.4 0 83.1 0 8.3-1 9.3-9.2 9.3-5.8 0-11.5 0-17.2 0-4.7 0-6.9-2.4-6.9-7.1 0-39.8 0-79.6 0-119.4 0-5.3 1.9-7.2 7.2-7.3 5.5-0.1 11.1 0.2 16.6-0.1 5-0.3 8.4 1.2 10 6.4z"/>
		<path id="path_1" fill-rule="evenodd" class="s1" d="m180.6 276.1c0 15 0 30.1 0 45.2 0 7.9-5 13-12.9 13-14.9 0.1-29.7 0-44.6 0.1-17 0-28.9-15.2-29.4-29.7-0.3-7.9 0.4-15.9-0.1-23.8-1.5-21.4 15.7-37.2 36.1-36 3.8 0.2 7.6 0.1 11.4 0 3.9-0.1 6.2-2.2 6.1-6.2-0.1-4-2.4-5.9-6.3-5.9-8.5 0-17 0-25.4 0-7.1-0.1-8.4-1.4-8.4-8.6-0.1-5.7 0-11.5 0-17.2-0.1-3.2 1.4-4.8 4.6-4.8 14.4 0 28.8-0.5 43.1 0.2 12.6 0.6 25.7 13.9 25.8 28.5 0.1 15.1 0 30.1 0 45.2zm-33.3 14.9c0-2.9-0.1-5.8 0-8.8 0.1-3.6-1.4-6-5-6.7-7.4-1.4-13.6 0.2-15 3.7-0.2 0.6-0.3 1.4-0.3 2 0 6.1-0.3 12.1 0.2 18.1 0.2 2 2.6 4.8 4.5 5.4 11.5 3.4 15.6 0.2 15.6-11.6q0-1.1 0-2.1z"/>
		<path id="path_2" class="s1" d="m278.2 257.9c0 15.4-0.3 30.8 0.1 46.2 0.4 16.7-15.1 30.6-31.1 31.3-12.2 0.5-24.5 0-36.8 0.1-4.8 0.1-7.1-1.9-7-6.7 0.1-6.6 0-13.2 0-19.8 0-4.7 2.3-6.8 7-6.8 9.4 0.1 18.7 0 28.1 0.1 3.8 0 7.3-0.8 7.4-5.3 0.1-4.5-3.5-5.4-7.3-5.3-3.8 0-7.6 0-11.4 0-19.8-0.3-29.4-11-34.5-27-0.4-1.2-0.2-2.7-0.2-4.1q-0.1-25.7 0-51.4c0-6.5 0.5-7 7.2-7 6.2 0 12.4 0 18.6 0 6.1 0.1 7.8 1.7 7.8 7.7 0.1 13.7 0 27.4 0 41 0.1 6.9 0.6 7.4 7.4 7.4 1.8 0 3.5 0.1 5.2 0 5.6-0.1 7.3-1.9 7.3-7.6 0.1-13.6 0-27.3 0.1-41 0-7.2 0.2-7.5 7.7-7.5 6.2 0 12.4 0.1 18.6 0 4.3-0.1 5.9 1.7 5.8 5.9-0.1 16.6 0 33.2 0 49.8z"/>
		<path id="path_3" fill-rule="evenodd" class="s1" d="m0.1 268.3c0-19.9 0.1-39.8-0.1-59.7 0-4.7 1.5-6.5 6.3-6.5 17.8 0.2 35.6-0.1 53.4 0.2 13 0.1 25.6 11.8 25.8 26.6 0.3 13 0.1 26 0.1 39 0 11-10 24.2-20.8 26-8.4 1.4-17.1 1.5-25.7 1.7-4.3 0.1-5.8 1.4-5.7 5.7 0.3 8.5 0.2 17 0.1 25.5-0.1 6.2-2.5 8.6-8.9 8.6q-8.5 0.1-17.1 0c-5.8 0-7.4-1.6-7.4-7.4 0-19.9 0-39.8 0-59.7zm33.4-20.4q0 1.1 0 2.1c0.3 13.8-2.2 11.9 12.6 12 5.4 0.1 7.4-1.9 7.6-7.4 0.2-3.6 0.1-7.2 0.1-10.8-0.1-7.9-2.8-9.9-13.3-9.8-7 0-7 0-7 8.8q0 2.6 0 5.1z"/>
		<path id="path_4" class="s0" d="m310.3 284c0-14.7-0.1-29.4 0.1-44.1 0.1-4.5-1.5-6.3-6-6-14.2 0.7-12.7-1.7-12.7-13 0-4.1-0.1-8.3 0-12.4 0.1-5.4 2-8.1 7.4-7.7 12.3 0.9 19.2-6.7 26-15 2.5-3.1 5.3-6 8.3-8.5 1.4-1.1 4.4-1.7 5.7-1 1.5 0.9 2.6 3.5 2.8 5.4 0.3 4.8 0.1 9.7 0 14.5 0 3.1 1.4 4.2 4.4 4.4 14.3 0.9 14.3 1 14.3 15.3 0 3.5 0.2 7 0.4 10.4 0.3 5.2-1.6 7.3-6.8 7.6-10.5 0.5-10.5 0.5-10.5 11.1q0 40-0.1 79.9c0 9.2-1.3 10.6-10.4 10.6-5.3 0-10.7-0.1-16.1 0-4.8 0.1-6.8-2.2-6.8-6.9 0.1-14.9 0.1-29.8 0-44.6z"/>
	</g>
</svg>