<svg version="1.2" xmlns="http://www.w3.org/2000/svg" viewBox="0 0 36 36" width="24" height="24">
	<title>phonepe-svg</title>
	<style>
		.s0 { fill: #000000 } 
	</style>
	<path id="path_0" fill-rule="evenodd" class="s0" d="m29.1 11.6v2.7c0 0.4-0.4 0.8-0.8 0.8h-2.9v20c0 0.5-0.4 0.9-0.8 0.9h-2.7c-0.4 0-0.8-0.4-0.8-0.9 0-1.9 0-4 0-5.9-4.1 2.2-10.1-0.7-10.7-5.8q0-4.3 0-8.6h-2.7c-0.4 0-0.8-0.3-0.8-0.7v-2.7c0-0.4 0.4-0.8 0.8-0.8h12.2l-7.1-9.6c-0.4-0.4 0-1 0.6-1h3.6c0.2 0 0.5 0.1 0.6 0.4l6.1 10.3h4.6c0.5 0 0.9 0.4 0.8 0.9zm-8 3.5h-6.3c0 2.4-0.3 8.9 0.4 9.3 1.6 2.4 5.2 1.9 5.9-1.2q0-4 0-8.1z"/>
</svg>