<svg version="1.2" xmlns="http://www.w3.org/2000/svg" viewBox="0 0 24 24" width="24" height="24">
	<title>pinterest-svg</title>
	<style>
		.s0 { fill: #000000 } 
	</style>
	<path id="path2" class="s0" d="m6.2 19.3c-0.3 1.3-0.2 3.1 0 4.3l1 0.4c0.6-1 1.5-2.7 1.9-4 0.2-0.7 0.9-3.6 0.9-3.6 0.5 1 2 1.8 3.5 1.8 4.6 0 7.8-4.2 7.8-9.5 0-5-4-8.7-9.3-8.7-6.5 0-10 4.4-10 9.2 0 2.2 1.2 5 3.1 5.8q0.4 0.2 0.5-0.2c0-0.2 0.3-1.2 0.4-1.7 0-0.1 0-0.3-0.1-0.4-0.6-0.8-1.1-2.2-1.1-3.5 0-3.3 2.5-6.6 6.8-6.6 3.7 0 6.3 2.6 6.3 6.2 0 4.1-2 6.9-4.7 6.9-1.5 0-2.6-1.2-2.3-2.7 0.5-1.8 1.3-3.7 1.3-5 0-1.2-0.6-2.2-1.9-2.2-1.6 0-2.8 1.6-2.8 3.7 0 1.4 0.5 2.3 0.5 2.3 0 0-1.5 6.3-1.8 7.5z"/>
</svg>