<svg version="1.2" xmlns="http://www.w3.org/2000/svg" viewBox="0 0 160 160" width="24" height="24">
	<title>quickswitch-svg</title>
	<style>
		.s0 { fill: #000000 } 
	</style>
	<g id="Folder 1">
		<path class="s0" d="m53.6 0.2c1.9 0 1.9 0 3.9-0.1q2 0 4.2 0 2.2 0 4.4 0 4.5 0 9.1 0 5.8 0 11.6-0.1 4.6 0 9 0 3.3 0 6.5 0c9.6 0 9.6 0 13.8 3 3.1 4.7 4.3 8.4 4.4 14q0 1.7 0 3.5 0 1.9 0 3.8 0 2.1 0 4.1 0 5.5 0 11 0 4.5 0 9.1 0 10.8 0 21.6 0 11.1 0 22.2 0.1 9.5 0.1 19.2 0 5.7 0 11.3 0 6.4 0 12.8 0 1.8 0 3.8c-0.1 7.5-0.5 12.7-6.1 18.2-5.9 2.8-11.4 2.4-17.7 2.3-2 0-2 0-4 0q-4.3 0-8.5 0-5.4-0.1-10.8 0-5.2 0-10.4-0.1-2 0-3.9 0c-11.6-0.1-11.6-0.1-16.3-3.6-2.8-3.9-3.6-6.5-3.6-11.3q0-1.7 0-3.6 0-1.9 0-3.9 0-2 0-4.1 0-5.8 0-11.4 0-5.9 0-11.8 0-10 0-19.9 0-11.5 0-22.9 0-9.9 0-19.8 0-5.8 0-11.7 0-6.6 0-13.1c0-2.1 0-2.1 0-4 0-1.8 0-1.8 0-3.6q0-1.6 0-3.1c0.6-4.3 2.5-7.1 5.5-10.1 3.1-1.7 5.3-1.7 8.8-1.7z"/>
		<path class="s0" d="m10.6 8.6q1.3 0 2.6 0c1.3 0 1.3 0 2.7 0q1.4 0 2.8 0c4.3 0 6.7 0.2 10.4 2.4 3.2 3.5 3.3 6.3 3.3 10.7 0 1.6 0 1.6 0.1 3.2q0 1.8 0 3.6 0 1.8 0 3.7 0 6.1 0 12.3 0 3.1 0 6.3 0 8.8 0 17.7 0 11.4 0.1 22.8 0 8.8 0 17.7 0 5.3 0 10.5 0.1 5.9 0.1 11.9 0 1.6 0 3.4c-0.1 10-0.1 10-3.6 14-4.2 2.9-7.5 2.5-12.6 2.5-1.2 0-1.2 0-2.5 0.1-5.1 0-8.3-0.5-12.4-3.6-1.8-1.8-1.1-3.9-1.2-6.3q0-1.7 0-3.4 0-1.8 0-3.7 0-1.9 0-3.9-0.2-6.4-0.2-12.9 0-2.2 0-4.5 0-9.2 0-18.5-0.1-13.2-0.1-26.4-0.1-9.4-0.1-18.7 0-5.5-0.1-11.1 0-6.1 0-12.4 0-1.8 0-3.7c0-8.3 0-8.3 3.2-11.8 2.8-1.4 4.4-1.9 7.5-1.9z"/>
		<path class="s0" d="m143.5 8.5q1.3 0 2.8 0 1.4 0 2.8 0 1.2 0 2.5 0c3.9 1 5.3 2.6 7.7 5.9 0.9 4.1 0.8 8.3 0.7 12.5q0 1.9 0.1 3.8 0 5.2-0.1 10.4 0 5.4 0 10.8 0 9.1 0 18.3 0 10.5 0 20.9 0 10.2 0 20.4 0 4.3 0 8.5 0 6.1-0.1 12.1 0 1.8 0.1 3.6c-0.1 8-0.1 8-2.7 12.3-2.7 2.3-4 2.5-7.6 2.5q-1.5 0-3.1 0-1.6 0-3.1 0-1.6 0-3.2 0c-7.9-0.1-7.9-0.1-10.7-2.4-2.4-3-2.6-4.3-2.6-8q0-1.7-0.1-3.3 0.1-1.8 0.1-3.8c0-1.9 0-1.9-0.1-3.8q0-5.3 0-10.5 0-4.5 0-8.8 0-10.5 0-20.9 0-10.7 0-21.5 0-9.2 0-18.4 0-5.5-0.1-10.9 0-6.1 0.1-12.3 0-1.8-0.1-3.7c0.1-8.2 0.1-8.2 3.3-11.7 4.5-2.2 8.5-2 13.4-2z"/>
	</g>
</svg>