<svg version="1.2" xmlns="http://www.w3.org/2000/svg" viewBox="0 0 36 36" width="24" height="24">
	<title>quickswitch-svg</title>
	<style>
		.s0 { fill: #000000 } 
	</style>
	<path id="path_0" fill-rule="evenodd" class="s0" d="m25.5 18.1q0 5.7 0 11.5c0 1.7-0.5 2.1-2.2 2.1q-5.3 0-10.7 0c-1.6 0-2.1-0.5-2.1-2.1q0-11.5 0-23c0-1.7 0.5-2.1 2.1-2.1q5.4-0.1 10.8 0c1.6 0 2.1 0.4 2.1 2q0 5.8 0 11.6zm-13.7-0.1q0 5.6 0 11.3c0 1 0.1 1.1 1.1 1.1q5.1 0 10.2 0c1 0 1.1-0.1 1.1-1.1q0-11.2 0-22.4c0-1.1-0.1-1.1-1.1-1.1q-5.1 0-10.2 0c-1 0-1.1 0-1.1 1.1q0 5.5 0 11.1z"/>
	<path id="path_1" fill-rule="evenodd" class="s0" d="m2.3 18q0-5 0-10.1c0-1.2 0.2-1.4 1.3-1.4 1.5 0 2.9 0 4.3 0 0.8 0 1.2 0.4 1.2 1.1q0 0.4 0 0.9 0 9.6 0 19.2 0 0.5 0 0.9c0 0.7-0.4 1.1-1.1 1.1q-2.2 0-4.5 0c-1-0.1-1.2-0.3-1.2-1.3q0-5.2 0-10.4zm5.5 0.1q0-4.6 0-9.3c0-0.7-0.3-1-1-1-0.6 0.1-1.2 0-1.8 0-1.3 0-1.4 0.1-1.4 1.4q0 7.5 0 15c0 1 0 2 0 3 0 0.8 0.3 1.2 1.1 1.2 0.6-0.1 1.2-0.1 1.8-0.1 1.3 0 1.3 0 1.3-1.2q0-4.5 0-9z"/>
	<path id="path_2" fill-rule="evenodd" class="s0" d="m33.7 18.1q0 5 0 10c0 1.4-0.1 1.6-1.5 1.6q-2 0-4 0c-1-0.1-1.3-0.3-1.3-1.3q0-0.8 0-1.6 0-9.1 0-18.3 0-0.5 0-1.1c0.1-0.5 0.4-0.9 0.9-0.9 1.7 0 3.3 0 5 0 0.8 0 0.9 0.6 0.9 1.3q0 5.1 0 10.3zm-1.3 0q0-4.5 0-9c0-1.2-0.1-1.3-1.3-1.3-0.6 0-1.2 0.1-1.8 0-0.9-0.1-1.1 0.3-1.1 1.1q0 5.2 0 10.5 0 4 0 7.9c0 0.8 0.2 1.1 1 1.1 0.5-0.1 1-0.1 1.5-0.1 1.7 0 1.7 0 1.7-1.6q0-4.3 0-8.6z"/>
</svg>