<svg version="1.2" xmlns="http://www.w3.org/2000/svg" viewBox="0 0 24 24" width="24" height="24">
	<title>rboard-svg</title>
	<style>
		.s0 { fill: #fff1c0 } 
	</style>
	<path id="Layer" fill-rule="evenodd" class="s0" d="m19.7 1.7v9.6c0 0.5-0.2 0.9-0.6 1.3l-6.7 5.5c-0.2 0.2-0.6 0.2-0.8 0l-6.6-5.5c-0.4-0.4-0.6-0.8-0.6-1.3v-9.6c0-0.9 0.7-1.7 1.7-1.7h11.9c1 0 1.7 0.8 1.7 1.7zm-7.7 13.8l5.4-4.5 0.1-8.7h-10.8v8.7z"/>
	<path id="Layer" class="s0" d="m19.7 13.3c-0.3 0-0.6 0.3-0.6 0.6v1.2c0 0.3 0.3 0.5 0.6 0.5h1.1c0.3 0 0.6-0.2 0.6-0.5v-1.2c0-0.3-0.3-0.6-0.6-0.6z"/>
	<path id="Layer" class="s0" d="m2.6 13.9c0-0.3 0.3-0.6 0.6-0.6h1.1c0.3 0 0.6 0.3 0.6 0.6v1.2c0 0.3-0.3 0.5-0.6 0.5h-1.1c-0.3 0-0.6-0.2-0.6-0.5z"/>
	<path id="Layer" class="s0" d="m3.2 17.5c-0.3 0-0.6 0.2-0.6 0.5v1.2c0 0.3 0.3 0.6 0.6 0.6h1.1c0.3 0 0.6-0.3 0.6-0.6v-1.2c0-0.3-0.3-0.5-0.6-0.5z"/>
	<path id="Layer" class="s0" d="m5.5 21.6c-0.3 0-0.5 0.2-0.5 0.6v1.2c0 0.3 0.2 0.6 0.5 0.6h13c0.3 0 0.5-0.3 0.5-0.6v-1.2c0-0.4-0.2-0.6-0.5-0.6z"/>
	<path id="Layer" class="s0" d="m7.4 17.5c-0.4 0-0.6 0.2-0.6 0.5v1.2c0 0.3 0.2 0.6 0.6 0.6h1.1c0.3 0 0.6-0.3 0.6-0.6v-1.2c0-0.3-0.3-0.5-0.6-0.5z"/>
	<path id="Layer" class="s0" d="m14.9 18c0-0.3 0.3-0.5 0.6-0.5h1.1c0.4 0 0.6 0.2 0.6 0.5v1.2c0 0.3-0.2 0.6-0.6 0.6h-1.1c-0.3 0-0.6-0.3-0.6-0.6z"/>
	<path id="Layer" class="s0" d="m19.1 18c0-0.3 0.3-0.5 0.6-0.5h1.1c0.3 0 0.6 0.2 0.6 0.5v1.2c0 0.3-0.3 0.6-0.6 0.6h-1.1c-0.3 0-0.6-0.3-0.6-0.6z"/>
</svg>