<svg version="1.2" xmlns="http://www.w3.org/2000/svg" viewBox="0 0 24 24" width="24" height="24">
	<title>recorder-svg</title>
	<style>
		.s0 { fill: #000000 } 
	</style>
	<path id="rect24" class="s0" d="m8.9 2.3c0.4 0 0.8 0.4 0.8 0.8v17.8c0 0.4-0.4 0.8-0.8 0.8-0.5 0-0.8-0.4-0.8-0.8v-17.8c0-0.4 0.3-0.8 0.8-0.8zm8.6 4.2c0.4 0 0.8 0.4 0.8 0.8v8.9c0 0.4-0.4 0.8-0.8 0.8-0.5 0-0.8-0.4-0.8-0.8v-8.9c0-0.4 0.3-0.8 0.8-0.8zm-5.8 0c0.5 0 0.8 0.4 0.8 0.8v8.9c0 0.4-0.3 0.8-0.8 0.8-0.4 0-0.7-0.4-0.7-0.8v-8.9c0-0.4 0.3-0.8 0.7-0.8zm-5.4 0c0.4 0 0.7 0.4 0.7 0.8v8.9c0 0.4-0.3 0.8-0.7 0.8-0.5 0-0.8-0.4-0.8-0.8v-8.9c0-0.4 0.3-0.8 0.8-0.8zm14 3.4c0.5 0 0.8 0.4 0.8 0.8v2.6c0 0.4-0.3 0.8-0.8 0.8-0.4 0-0.7-0.4-0.7-0.8v-2.6c0-0.4 0.3-0.8 0.7-0.8zm-5.7 0c0.4 0 0.8 0.4 0.8 0.8v2.6c0 0.4-0.4 0.8-0.8 0.8-0.4 0-0.8-0.4-0.8-0.8v-2.6c0-0.4 0.4-0.8 0.8-0.8zm-11.2 0c0.4 0 0.8 0.4 0.8 0.8v2.6c0 0.4-0.4 0.8-0.8 0.8-0.4 0-0.8-0.4-0.8-0.8v-2.6c0-0.4 0.4-0.8 0.8-0.8zm20.6 2.1q0 0.2-0.1 0.3 0 0.1-0.1 0.3-0.1 0.1-0.3 0.1-0.1 0.1-0.3 0.1-0.1 0-0.3-0.1-0.1 0-0.2-0.1-0.1-0.2-0.2-0.3-0.1-0.1-0.1-0.3 0-0.2 0.1-0.3 0.1-0.1 0.2-0.3 0.1-0.1 0.2-0.1 0.2-0.1 0.3-0.1 0.2 0 0.3 0.1 0.2 0 0.3 0.1 0.1 0.2 0.1 0.3 0.1 0.1 0.1 0.3zm-22.4 0q0 0.2-0.1 0.3-0.1 0.1-0.2 0.3-0.1 0.1-0.2 0.1-0.2 0.1-0.3 0.1-0.2 0-0.3-0.1-0.2 0-0.3-0.1-0.1-0.2-0.1-0.3-0.1-0.1-0.1-0.3 0-0.2 0.1-0.3 0-0.1 0.1-0.3 0.1-0.1 0.3-0.1 0.1-0.1 0.3-0.1 0.1 0 0.3 0.1 0.1 0 0.2 0.1 0.1 0.2 0.2 0.3 0.1 0.1 0.1 0.3z"/>
</svg>