<svg version="1.2" xmlns="http://www.w3.org/2000/svg" viewBox="0 0 24 24" width="24" height="24">
	<title>reddit-svg</title>
	<style>
		.s0 { fill: #000000 } 
	</style>
	<path id="path2" fill-rule="evenodd" class="s0" d="m22.5 14.3q0 0.4 0 0.8c0 4.1-4.7 7.3-10.5 7.3-5.8 0-10.5-3.3-10.5-7.3q0-0.4 0-0.8c-0.9-0.4-1.5-1.3-1.5-2.4 0-1.4 1.2-2.6 2.6-2.6 0.7 0 1.4 0.3 1.9 0.7 1.8-1.3 4.3-2.1 7.1-2.2l1.3-6.3q0.1-0.2 0.2-0.3 0.2-0.1 0.4-0.1l4.3 1c0.3-0.7 1-1.1 1.7-1.1 1 0 1.9 0.8 1.9 1.9 0 1-0.9 1.8-1.9 1.8-1 0-1.8-0.8-1.9-1.7l-3.9-0.9-1.2 5.7c2.8 0.1 5.2 0.9 7 2.2 0.5-0.5 1.2-0.7 1.9-0.7 1.4 0 2.6 1.1 2.6 2.6 0 1.1-0.6 2-1.5 2.4zm-12.8-0.5c0-1.1-0.8-1.9-1.9-1.9-1 0-1.8 0.8-1.8 1.9 0 1 0.8 1.8 1.8 1.8 1.1 0 1.9-0.8 1.9-1.8zm6.8 4.2c-0.2-0.2-0.5-0.2-0.7 0-0.8 0.8-2.6 1.1-3.8 1.1-1.2 0-2.9-0.3-3.8-1.1-0.2-0.2-0.5-0.2-0.7 0-0.1 0.2-0.1 0.5 0 0.7 1.3 1.3 3.8 1.4 4.5 1.4 0.7 0 3.2-0.1 4.5-1.4 0.1-0.2 0.1-0.5 0-0.7zm1.5-4.2c0-1.1-0.9-1.9-1.9-1.9-1 0-1.9 0.8-1.9 1.9 0 1 0.9 1.8 1.9 1.8 1 0 1.9-0.8 1.9-1.8z"/>
</svg>