<svg version="1.2" xmlns="http://www.w3.org/2000/svg" viewBox="0 0 204 204" width="24" height="24">
	<title>reminder-svg</title>
	<style>
		.s0 { fill: #000000;stroke: #000000 } 
	</style>
	<g id="Folder 1">
		<path class="s0" d="m102.7 153.8q43.4 0 86.9 0c6.5-0.1 7-0.7 5-7-3.3-10.1-9.4-18.3-17.6-24.5-3.4-2.6-4.7-5.3-4.6-9.4 0.1-8.5 0.1-17-0.1-25.6-0.7-28.8-18.7-53.8-45.9-63.4-4.3-1.6-6.6-3.3-6.7-8.4-0.2-9-7.6-15.4-16.5-15.5-9.2-0.1-16.8 6.3-17.1 15.5-0.1 5.1-2.4 6.7-6.7 8.4-24.1 9.1-39.3 26.5-44.7 52-2.6 12.1-1 24.7-1.2 37-0.1 4.1-1.3 6.8-4.6 9.4-8.2 6.1-14.1 14.1-17.5 24-2.2 6.8-1.8 7.5 5.3 7.5q43 0 86 0z"/>
		<path class="s0" d="m84.3 185.4c0-4.9 2-9.6 5.5-13 3.5-3.5 8.2-5.5 13.1-5.5 4.9 0 9.7 2 13.2 5.5 3.4 3.4 5.4 8.1 5.4 13 0 4.9-2 9.7-5.4 13.2-3.5 3.5-8.3 5.4-13.2 5.4-4.9 0-9.6-1.9-13.1-5.4-3.5-3.5-5.5-8.3-5.5-13.2z"/>
	</g>
</svg>