<svg version="1.2" xmlns="http://www.w3.org/2000/svg" viewBox="0 0 800 800" width="24" height="24">
	<title>revanced-logo-svg</title>
	<defs>
		<linearGradient id="g1" x2="1" gradientUnits="userSpaceOnUse" gradientTransform="matrix(0,795.619,-902.828,0,400,0)">
			<stop offset="0" stop-color="#000000"/>
			<stop offset=".5" stop-color="#000000"/>
			<stop offset="1" stop-color="#000000"/>
		</linearGradient>
	</defs>
	<style>
		.s0 { fill: #000000 } 
		.s1 { fill: url(#g1) } 
	</style>
	<g id="Logo">
		<g id="Shape">
			<path id="V-Shape" fill-rule="evenodd" class="s0" d="m781.5 42.1c4.1-9.3 3.2-20-2.3-28.5-5.6-8.5-15.1-13.6-25.2-13.6-14.2 0-28.7 0-39 0-8.5 0-16.2 5-19.6 12.8-34.3 78.1-215.3 490.3-275.7 627.9-3.5 7.9-11.2 12.9-19.7 12.9-8.5 0-16.2-5-19.7-12.9-60.4-137.6-241.4-549.8-275.7-627.9-3.4-7.8-11.1-12.8-19.6-12.8-10.3 0-24.8 0-39 0-10.1 0-19.6 5.1-25.2 13.6-5.5 8.5-6.4 19.2-2.3 28.5 64.7 147.9 280.1 639.5 324.1 739.9 4.8 10.9 15.6 18 27.6 18 17.3 0 42.3 0 59.6 0 12 0 22.8-7.1 27.6-18 44-100.4 259.4-592 324.1-739.9z"/>
			<path id="Diamond" fill-rule="evenodd" class="s1" d="m422.3 387.1c-4.6 8-13.1 12.9-22.3 12.9-9.2 0-17.7-4.9-22.3-12.9-46.8-81-154.5-267.5-201.2-348.4-4.6-8-4.6-17.8 0-25.8 4.6-8 13.1-12.9 22.3-12.9 93.5 0 308.9 0 402.4 0 9.2 0 17.7 4.9 22.3 12.9 4.6 8 4.6 17.8 0 25.8-46.7 80.9-154.4 267.4-201.2 348.4z"/>
		</g>
	</g>
</svg>