<svg version="1.2" xmlns="http://www.w3.org/2000/svg" viewBox="0 0 192 192" width="24" height="24"><defs><linearGradient id="P" gradientUnits="userSpaceOnUse"/><linearGradient id="g1" x2="1" href="#P" gradientTransform="matrix(0,99.937,-114.699,0,95.838,0)"><stop stop-opacity="1"/><stop offset="1" stop-opacity="0"/></linearGradient></defs><style>.a{fill:url(#g1)}</style><path  d="m190.2 3.7c0.4-0.8 0.3-1.8-0.2-2.5-0.5-0.8-1.3-1.2-2.2-1.2-5.5 0-15.1 0-18.5 0-0.7 0-1.4 0.4-1.7 1.1-5.7 13.1-59.7 135.9-70 159.5-0.3 0.7-1 1.1-1.8 1.1-0.7 0-1.4-0.4-1.7-1.1-10.3-23.6-64.3-146.4-70-159.5-0.3-0.7-1-1.1-1.7-1.1-3.4 0-13 0-18.5 0-0.9 0-1.8 0.4-2.2 1.2-0.5 0.7-0.6 1.7-0.2 2.5 10.9 25 74.4 170 81.8 186.7 0.4 1 1.3 1.6 2.4 1.6 4.4 0 15.9 0 20.3 0 1 0 2-0.6 2.4-1.6 7.3-16.7 70.9-161.7 81.8-186.7z"/><path class="a" d="m97.8 98.8c-0.4 0.7-1.2 1.1-2 1.1-0.8 0-1.5-0.4-1.9-1.1-9-15.5-46.2-79.9-55.1-95.4-0.4-0.7-0.4-1.6 0-2.3 0.4-0.7 1.1-1.1 1.9-1.1h110.2c0.8 0 1.6 0.4 2 1.1 0.4 0.7 0.4 1.6 0 2.3-9 15.5-46.2 79.9-55.1 95.4z"/></svg>