<svg version="1.2" xmlns="http://www.w3.org/2000/svg" viewBox="0 0 24 24" width="24" height="24">
	<title>vanced_youtube_music-svg</title>
	<style>
		.s0 { fill: #000000 } 
	</style>
	<path fill-rule="evenodd" class="s0" d="m24 12c0 3.2-1.3 6.2-3.5 8.5-2.3 2.2-5.3 3.5-8.5 3.5-3.2 0-6.2-1.3-8.5-3.5-2.2-2.3-3.5-5.3-3.5-8.5 0-3.2 1.3-6.2 3.5-8.5 2.3-2.2 5.3-3.5 8.5-3.5 3.2 0 6.2 1.3 8.5 3.5 2.2 2.3 3.5 5.3 3.5 8.5zm-14.6 1.9q0 0.2 0.1 0.3 0.1 0.2 0.2 0.2 0.2 0.1 0.3 0.1 0.2 0 0.4-0.1l3.3-1.8q0.2-0.1 0.2-0.3 0.1-0.1 0.1-0.3 0-0.2-0.1-0.3 0-0.2-0.2-0.3l-3.3-1.9q-0.2 0-0.4 0-0.1 0-0.3 0.1-0.1 0-0.2 0.2-0.1 0.1-0.1 0.3zm8.2-1.1q0.2-0.3 0.2-0.7 0-0.4-0.2-0.7-0.1-0.3-0.4-0.5l-6.8-4.4q-0.1 0-0.3 0-0.1-0.1-0.2 0-0.1 0-0.2 0.1-0.1 0-0.2 0.2 0 0.1-0.1 0.2 0 0.1 0.1 0.2 0 0.2 0.1 0.3 0 0.1 0.1 0.1l6.5 3.9q0.2 0.1 0.3 0.3 0 0.1 0 0.3 0 0.2 0 0.3-0.1 0.2-0.3 0.2l-6.5 3.9q-0.1 0.1-0.2 0.2 0 0.1-0.1 0.2 0 0.1 0 0.2 0 0.1 0.1 0.2v0.1q0.1 0.1 0.1 0.1 0.1 0.1 0.3 0.2 0.1 0 0.2 0 0.1 0 0.2-0.1l6.9-4.3q0.3-0.2 0.4-0.5z"/>
</svg>