<svg version="1.2" xmlns="http://www.w3.org/2000/svg" viewBox="0 0 24 24" width="24" height="24">
	<title>saikou-svg</title>
	<style>
		.s0 { fill: #000000 } 
	</style>
	<path class="s0" d="m13.6 9.7q-0.1 0-0.3 0l2 1.1c0.9 0.5 0.9 1.7 0.1 2.2l-2.3 1.4h1c1.6 0.3 2.5 1.9 1 3.1l-6.4 6.5h6.6l3.6-3.6c1.2-1.2 1.4-2.2 1.6-4.3 0-4.3-3.3-6.3-6.9-6.4z"/>
	<path class="s0" d="m9.1 0l-3.6 3.5c-1.5 1.8-2 2.8-2 4.7 0 3.9 2.7 5.9 5.2 6.6v-5.2q0-0.3 0.1-0.5c-0.7-0.7-0.4-1.7 0.8-2.8l6.3-6.3z"/>
	<path class="s0" d="m9.4 9.8c0-0.8 0.8-1.2 1.4-0.9l3.9 2.1c0.7 0.4 0.7 1.3 0 1.7l-3.8 2.3c-0.7 0.4-1.5-0.1-1.5-0.8z"/>
</svg>