<svg version="1.2" xmlns="http://www.w3.org/2000/svg" viewBox="0 0 192 192" width="24" height="24">
	<title>samsung_phone-svg</title>
	<style>
		.s0 { fill: #000000 } 
	</style>
	<path fill-rule="evenodd" class="s0" d="m105.6 57.6h19.3c7.5 0 11.5-2 14.3-4.8 2.8-2.8 4.8-6.8 4.8-14.4v-19.2c0-7.6-2-11.6-4.8-14.4-2.8-2.8-6.8-4.8-14.3-4.8h-0.1c-30.7 0-46.1 8-57.5 19.3-11.3 11.4-19.3 27.3-19.3 58v37.4c0 30.7 8 46.6 19.3 58 11.4 11.3 26.8 19.3 57.5 19.3h0.1c7.5 0 11.5-2 14.3-4.8 2.8-2.8 4.8-6.8 4.8-14.4v-19.2c0-7.6-2-11.6-4.8-14.4-2.8-2.8-6.8-4.8-14.3-4.8h-19.3c-7.6 0-11.5-2-14.4-4.8-2.8-2.8-4.8-6.8-4.8-14.4v-38.4c0-7.6 2-11.6 4.8-14.4 2.9-2.8 6.8-4.8 14.4-4.8z"/>
</svg>