<svg version="1.2" xmlns="http://www.w3.org/2000/svg" viewBox="0 0 24 24" width="24" height="24">
	<title>Samsungcam-svg</title>
	<style>
		.s0 { fill: #000000 } 
	</style>
	<path fill-rule="evenodd" class="s0" d="m0 6.1c0-2 1.6-3.6 3.6-3.6h16.8c2 0 3.6 1.6 3.6 3.6v10.8c0 2-1.6 3.6-3.6 3.6h-16.8c-2 0-3.6-1.6-3.6-3.6zm16.8 6c0-2.7-2.1-4.8-4.8-4.8-2.7 0-4.8 2.1-4.8 4.8 0 2.7 2.1 4.8 4.8 4.8 2.7 0 4.8-2.1 4.8-4.8zm4.8-4.8c0-1.3-1.1-2.4-2.4-2.4-1.3 0-2.4 1.1-2.4 2.4 0 1.3 1.1 2.4 2.4 2.4 1.3 0 2.4-1.1 2.4-2.4z"/>
</svg>