<svg version="1.2" xmlns="http://www.w3.org/2000/svg" viewBox="0 0 192 192" width="24" height="24">
	<title>samsung_internet_browser-svg</title>
	<style>
		.s0 { fill: #000000 } 
	</style>
	<g id="Folder 1">
		<path fill-rule="evenodd" class="s0" d="m76.7 131.2c26.1 10.6 52.1 15.1 74.5 14.2-14 16.4-34.8 26.8-58 26.8-42 0-76.1-34.1-76.1-76.1q0-1.2 0.1-2.4c15.1 14.6 35.6 27.9 59.5 37.5z"/>
		<path fill-rule="evenodd" class="s0" d="m111.6 51.1c52.3 19.1 87.7 53.6 79.1 77.3-8.6 23.6-57.9 27.3-110.3 8.2-52.3-19-87.7-53.6-79.1-77.2 8.6-23.6 57.9-27.3 110.3-8.3zm-5.8 13.4c-23-8.3-45.9-11.9-63.7-10.5-15.1 1.2-23.8 5.8-25.8 11.2-2 5.4 1.8 14.5 12.6 25.1 12.7 12.6 32.5 24.5 55.5 32.9 23 8.4 45.9 12 63.7 10.5 15.1-1.2 23.8-5.7 25.8-11.1 2-5.5-1.8-14.5-12.6-25.2-12.7-12.6-32.5-24.5-55.5-32.9z"/>
		<path fill-rule="evenodd" class="s0" d="m93.2 20c42.1 0 76.1 34.1 76.1 76.1 0 3.3 0.7 12.1-3.4 16.6-4.2 4.6-13.2 4.9-16.3 5-18.6 1.1-40-2.3-61.6-10.5-23.3-9-42.8-22.2-56.1-36.8-1-1.1-4.1-5.4-4.1-9.7 0-4.3 3.9-9.4 5.6-11.6 13.9-17.7 35.5-29.1 59.8-29.1z"/>
	</g>
</svg>