<svg version="1.2" xmlns="http://www.w3.org/2000/svg" viewBox="0 0 192 192" width="24" height="24">
	<title>samsung_messages-svg</title>
	<style>
		.s0 { fill: #000000 } 
	</style>
	<path fill-rule="evenodd" class="s0" d="m96 8c53 0 96 36.5 96 81.4 0 45-43 81.5-96 81.5-10.1 0-19.9-1.3-29.1-3.8q-37.1 24.2-29.7 13.7 7.6-10.6 3.8-24.6c-24.8-14.8-41-39.2-41-66.8 0-44.9 43-81.4 96-81.4zm-48 64c-8.8 0-16 7.2-16 16 0 8.8 7.2 16 16 16 8.8 0 16-7.2 16-16 0-8.8-7.2-16-16-16zm48 0c-8.8 0-16 7.2-16 16 0 8.8 7.2 16 16 16 8.8 0 16-7.2 16-16 0-8.8-7.2-16-16-16zm48 0c-8.8 0-16 7.2-16 16 0 8.8 7.2 16 16 16 8.8 0 16-7.2 16-16 0-8.8-7.2-16-16-16z"/>
</svg>