<svg version="1.2" xmlns="http://www.w3.org/2000/svg" viewBox="0 0 192 192" width="24" height="24">
	<title>samsung_gallery-svg</title>
	<style>
		.s0 { fill: #000000 } 
	</style>
	<path fill-rule="evenodd" class="s0" d="m96.5 0c10.9 0 21.1 6.7 24.9 17.4 2.1 5.8 2 11.8 0.1 17.1l-10.1 36 26.2-26.8c3.8-4.3 9-7.3 15-8.5 11.4-2.1 22.3 3.3 27.8 12.6 5.5 9.3 4.7 21.4-2.8 30.1-3.9 4.7-9.2 7.6-14.8 8.7l-37 9.4 36.9 9.5c5.7 1.1 10.9 4.1 14.9 8.7 7.5 8.7 8.2 20.8 2.7 30.1-5.5 9.3-16.5 14.7-27.8 12.6-6-1.2-11.2-4.3-15-8.5l-26.1-26.7 10.1 35.8c1.9 5.3 2 11.3-0.1 17.1-3.8 10.7-14 17.4-24.9 17.4-10.9 0-21.1-6.7-25-17.4-2-5.8-1.9-11.8-0.1-17.1l10.2-36-26.3 26.8c-3.7 4.3-8.9 7.3-15 8.5-11.3 2.1-22.3-3.3-27.7-12.6-5.5-9.3-4.8-21.4 2.7-30.1 4-4.7 9.3-7.6 14.9-8.7l37-9.4-37-9.5c-5.6-1.1-10.9-4.1-14.8-8.7-7.5-8.7-8.2-20.8-2.7-30.1 5.5-9.3 16.4-14.7 27.7-12.6 6.1 1.2 11.3 4.3 15 8.5l26.2 26.7-10.2-35.8c-1.8-5.3-1.9-11.3 0.1-17.1 3.9-10.7 14.1-17.4 25-17.4zm0.2 75.1c-11.6 0-20.9 9.4-20.9 20.9 0 11.5 9.3 20.9 20.9 20.9 11.5 0 20.8-9.4 20.8-20.9 0-11.5-9.3-20.9-20.8-20.9z"/>
</svg>