<svg version="1.2" xmlns="http://www.w3.org/2000/svg" viewBox="0 0 108 108" width="24" height="24">
	<title>screenshot_tile-svg</title>
	<style>
		.s0 { fill: #000000 } 
	</style>
	<path id="Layer" class="s0" d="m53.7 78.1c-13.3 0-24.1-10.8-24.1-24.1 0-13.3 10.8-24.1 24.1-24.1 13.4 0 24.2 10.8 24.2 24.1 0 13.3-10.8 24.1-24.2 24.1zm-42.1-6h-12.1v24.1c0 6.6 5.4 12 12.1 12h24.1v-12h-24.1zm0-60.3h24.1v-12h-24.1c-6.7 0-12.1 5.4-12.1 12v24.1h12.1zm84.3-12h-24.1v12h24.1v24.1h12.1v-24.1c0-6.6-5.4-12-12.1-12zm0 96.4h-24.1v12.1h24.1c6.7 0 12.1-5.5 12.1-12.1v-24.1h-12.1z"/>
</svg>