<svg version="1.2" xmlns="http://www.w3.org/2000/svg" viewBox="0 0 36 36" width="24" height="24">
	<title>sdmaid-svg</title>
	<style>
		.s0 { fill: #000000 } 
	</style>
	<g id="Folder 1">
		<path id="path_0" class="s0" d="m14.5 4.7l-4 0.6-1.8 3.7c-0.1 0.4-0.6 0.4-0.8 0.3l-2.8-3.9c-0.3-0.2 0-0.6 0.4-0.7l4-0.7 1.8-3.6c0.1-0.4 0.6-0.5 0.7-0.2l2.9 3.7c0.2 0.2 0 0.6-0.4 0.8z"/>
		<path id="path_1" class="s0" d="m9.1 2.5l-0.3 0.6-0.4 0.2-1.1-2c-0.2-0.2 0-0.5 0.1-0.6 0.3-0.1 0.5 0 0.6 0.1z"/>
		<path id="path_2" fill-rule="evenodd" class="s0" d="m32.4 17.5h-30.1c0.2-3.4 1.6-6.7 4-9l1 1.4c0.2 0.4 0.6 0.6 1 0.6h0.1c0.6-0.2 1.1-0.4 1.3-0.9l1.6-3.3 3.4-0.6c0.5-0.1 0.9-0.5 1.2-1 0-0.3 0.1-0.7 0-0.9q0.6 0 1.1 0c2.4 0 4.5 0.5 6.5 1.4l2.5-4.4c0.2-0.1 0.4-0.3 0.7-0.1 0.1 0.1 0.2 0.3 0.1 0.6l-2.4 4.2c4.2 2.4 7.2 6.7 8 12zm-21-5.6c0-0.8-0.6-1.3-1.3-1.3-0.8 0-1.3 0.6-1.3 1.3 0 0.7 0.7 1.3 1.3 1.3 0.8 0 1.3-0.7 1.3-1.3zm13.9-0.1c0-0.7-0.7-1.2-1.3-1.2-0.8 0-1.3 0.6-1.3 1.2 0 0.8 0.7 1.3 1.3 1.3 0.6 0 1.2-0.6 1.3-1.3z"/>
		<path id="path_3" class="s0" d="m23.2 20.2c-1.5 0.9-2.8 2.2-3.4 3.7l-17.8 0.1v-2.7h1.3c3-0.3 6.4-0.8 10.2-1.9q1.7-0.5 3.4-1.1c0 0 0 0 0.2 0q1.5 0.6 3.4 1.1 1.4 0.4 2.7 0.8z"/>
		<path id="path_4" class="s0" d="m23.3 34.5q-0.8 0.4-1.6 0.4-1.1 0-1.9-0.8c-0.4 1.1-1.6 1.9-2.7 1.9-1.3 0-2.3-0.7-2.7-1.9-0.5 0.5-1.3 0.8-1.9 0.8-1.7 0-3-1.3-3-3 0-0.1 0-0.2 0-0.5-0.1 0-0.4 0-0.5 0-1.6 0-2.8-1.3-2.8-2.8 0 0 0 0 0-0.1h-3.9v-2.7l17.2-0.1c-0.1 0.6-0.1 0.9-0.1 1.5-0.3 3.2 1.4 5.9 3.9 7.3z"/>
		<path id="path_5" class="s0" d="m7.9 9.2l-2.8-3.8c-0.3-0.2 0-0.6 0.4-0.7l4-0.7 1.8-3.6c0.1-0.4 0.6-0.5 0.7-0.2l2.9 3.7c0.1 0.2 0 0.6-0.4 0.8l-4 0.6-1.8 3.7c-0.1 0.3-0.6 0.4-0.8 0.2z"/>
		<path id="path_6" class="s0" d="m28.5 24.8c0.5 0 0.9 0.4 0.9 0.9 0 0.5-0.4 0.9-0.9 0.9-0.5 0-0.9-0.4-0.9-0.9 0-0.5 0.4-0.9 0.9-0.9z"/>
		<path id="path_7" fill-rule="evenodd" class="s0" d="m27.2 34.5c-3.9 0-7.2-3.2-7.2-7.2 0-4 3.2-7.2 7.2-7.2 4 0 7.2 3.2 7.2 7.2 0 3.9-3.2 7.2-7.2 7.2zm3.9-8.7c0-1.4-1.2-2.5-2.6-2.5-1.4 0-2.6 1.1-2.6 2.6 0 0.3 0.2 0.6 0.3 1l-2.7 2.7q-0.2 0.2 0 0.4l0.9 1 0.5-0.5 0.9 0.9q0.2 0.2 0.4 0l0.9-0.9q0.2-0.2 0-0.4l-0.9-0.9 1.2-1.2c0.3 0.2 0.7 0.3 1.1 0.3 1.4 0 2.6-1.2 2.6-2.5z"/>
	</g>
</svg>