<svg version="1.2" xmlns="http://www.w3.org/2000/svg" viewBox="0 0 24 24" width="24" height="24">
	<title>settings-svg</title>
	<style>
		.s0 { fill: #000000 } 
	</style>
	<path id="Layer" fill-rule="evenodd" class="s0" d="m23.4 15.2c0.3 0.1 0.3 0.4 0.2 0.7l-2.4 4.2c-0.2 0.2-0.5 0.3-0.8 0.2l-2.9-1.2q-1 0.7-2.1 1.2l-0.4 3.2c0 0.3-0.3 0.5-0.6 0.5h-4.8c-0.3 0-0.5-0.2-0.6-0.5l-0.5-3.2q-1-0.4-2-1.2l-3 1.2c-0.2 0.1-0.5 0-0.7-0.2l-2.4-4.2c-0.1-0.2-0.1-0.6 0.2-0.7l2.5-2q-0.1-0.6-0.1-1.2 0-0.6 0.1-1.2l-2.5-2c-0.3-0.1-0.3-0.4-0.2-0.7l2.4-4.2c0.2-0.2 0.5-0.3 0.8-0.2l2.9 1.2q1-0.7 2.1-1.2l0.4-3.2c0.1-0.3 0.3-0.5 0.6-0.5h4.8c0.3 0 0.6 0.2 0.6 0.5l0.5 3.2q1 0.4 2 1.2l3-1.2c0.2-0.1 0.5 0 0.7 0.2l2.4 4.2c0.1 0.2 0.1 0.6-0.2 0.7l-2.5 2q0.1 0.6 0.1 1.2 0 0.6-0.1 1.2zm-6.9-3.2c0-2.5-2-4.5-4.5-4.5-2.5 0-4.5 2-4.5 4.5 0 2.5 2 4.5 4.5 4.5 2.5 0 4.5-2 4.5-4.5z"/>
</svg>