<svg version="1.2" xmlns="http://www.w3.org/2000/svg" viewBox="0 0 36 36" width="24" height="24">
	<title>settings-svg</title>
	<style>
		.s0 { fill: #000000 } 
	</style>
	<path id="path_0" fill-rule="evenodd" class="s0" d="m31.4 19.2l4.6 3.5-4.9 8.6-5.3-2.3q-1.1 0.8-2.2 1.2l-0.7 5.8h-9.8l-0.7-5.8q-1.2-0.4-2.2-1.2l-5.3 2.3-5-8.6 4.7-3.5q0-0.6 0-1.2 0-0.6 0-1.2l-4.7-3.5 5-8.6 5.3 2.3q1.1-0.8 2.2-1.2l0.7-5.8h9.8l0.7 5.8q1.2 0.4 2.2 1.2l5.3-2.3 5 8.6-4.7 3.5q0.2 0.6 0.2 1.2 0 0.6-0.2 1.2zm-3.9-4l3.8-2.8-1.7-3.2-4.4 2c-1.3-1.4-3-2.3-4.8-2.8l-0.6-4.8h-3.6l-0.6 4.8c-1.8 0.4-3.5 1.4-4.8 2.8l-4.4-2-1.7 3.2 3.8 2.8q-0.3 1.4-0.3 2.8 0 1.4 0.3 2.8l-3.8 2.8 1.7 3.2 4.4-2c1.3 1.4 3 2.3 4.8 2.8l0.6 4.8h3.6l0.6-4.8c1.8-0.5 3.5-1.4 4.8-2.8l4.4 2 1.7-3.2-3.8-2.8q0.3-1.4 0.5-2.8c0-1-0.3-1.9-0.5-2.8zm-9.4 9c-3.5 0-6.3-2.7-6.3-6.2 0-3.5 2.8-6.4 6.3-6.4 3.5 0 6.3 2.9 6.3 6.4 0 3.5-2.8 6.4-6.3 6.4z"/>
</svg>