<svg version="1.2" xmlns="http://www.w3.org/2000/svg" viewBox="0 0 36 36" width="36" height="36">
	<title>settings-svg</title>
	<style>
		.s0 { fill: #00000a } 
	</style>
	<path id="path_0" fill-rule="evenodd" class="s0" d="m29.2 19l3.8 2.9-4.1 7.2-4.4-1.9q-0.9 0.6-1.8 1l-0.6 4.8h-8.2l-0.6-4.8q-1-0.4-1.8-1l-4.4 1.9-4.2-7.2 3.9-2.9q0-0.5 0-1 0-0.5 0-1l-3.9-2.9 4.2-7.2 4.4 1.9q0.9-0.6 1.8-1l0.6-4.8h8.2l0.6 4.8q1 0.4 1.8 1l4.4-1.9 4.2 7.2-3.9 2.9q0.1 0.5 0.1 1 0 0.5-0.1 1zm-3.3-3.3l3.2-2.4-1.4-2.6-3.7 1.6c-1.1-1.1-2.5-1.9-4-2.3l-0.5-4h-3l-0.5 4c-1.5 0.3-2.9 1.2-4 2.3l-3.7-1.6-1.4 2.6 3.2 2.4q-0.3 1.1-0.3 2.3 0 1.2 0.3 2.3l-3.2 2.4 1.4 2.6 3.7-1.6c1.1 1.1 2.5 1.9 4 2.3l0.5 4h3l0.5-4c1.5-0.4 2.9-1.2 4-2.3l3.7 1.6 1.4-2.6-3.2-2.4q0.3-1.1 0.4-2.3c0-0.8-0.2-1.6-0.4-2.3zm-7.8 7.5c-2.9 0-5.3-2.3-5.3-5.2 0-2.9 2.4-5.3 5.3-5.3 2.9 0 5.2 2.4 5.2 5.3 0 2.9-2.3 5.3-5.2 5.3z"/>
</svg>