<svg version="1.2" xmlns="http://www.w3.org/2000/svg" viewBox="0 0 400 400" width="24" height="24">
	<title>shizuku-svg</title>
	<style>
		.s0 { fill: #040404 } 
		.s1 { fill: #000000 } 
	</style>
	<g id="svgg">
		<path id="path0" fill-rule="evenodd" class="s0" d="m179.5 93.2c-17.1 1.5-33.2 11.6-42.9 27.1-0.2 0.4-0.7 1.1-1 1.6-0.3 0.5-0.7 1.1-0.9 1.4-0.2 0.3-0.4 0.7-0.4 0.7 0 0.1-0.2 0.5-0.5 0.9-0.3 0.3-0.5 0.7-0.5 0.8 0 0-0.3 0.5-0.7 1.1-1.3 1.9-1.4 2.1-1.4 2.2 0 0.1-0.2 0.4-0.5 0.8-0.3 0.4-0.5 0.7-0.5 0.8 0 0-0.4 0.7-0.9 1.4-0.4 0.7-1.2 2-1.6 2.8-0.5 0.7-1.3 2.2-1.9 3.1-0.6 0.9-1.7 2.6-2.4 3.8-1.6 2.6-2.3 3.6-2.8 4.3-0.2 0.3-0.3 0.7-0.3 0.7 0 0.1-0.3 0.6-0.7 1.1-1.3 1.9-1.4 2.1-1.4 2.2 0 0.1-0.5 0.9-1.1 1.7-1.3 2-1.6 2.5-3 4.9-0.6 1-1.6 2.5-2.1 3.3-0.5 0.8-1.1 1.8-1.3 2.2-0.8 1.2-2.4 4.1-2.5 4.6-0.1 0.2-0.4 0.9-0.7 1.4-0.2 0.5-0.5 1-0.5 1.2 0 0.1-0.1 0.6-0.3 1.1-1 2.2-2.5 7.4-2.7 9.1-0.2 3 2.1 4.2 8.4 4.3 2.7 0.1 3.7 0.2 4.7 0.6 0.6 0.2 1.8 0.4 2.6 0.5 0.8 0 2 0.3 2.7 0.5 0.7 0.2 1.8 0.5 2.5 0.7 2 0.5 3 0.8 4 1.1 0.5 0.2 1.5 0.5 2.2 0.7 0.7 0.2 2 0.7 3 1 0.9 0.4 2.3 0.8 2.9 1.1 0.7 0.2 1.3 0.4 1.6 0.5 0.2 0.2 0.7 0.4 1.3 0.6 1.8 0.6 2.8 0.9 3.7 1.3 0.5 0.2 1.5 0.7 2.3 1 0.8 0.3 2.3 0.9 3.3 1.4 1.1 0.5 2.4 1.1 3 1.4 0.7 0.3 1.7 0.7 2.3 1 4.3 2 9.1 4.3 10.1 5 0.4 0.2 1.1 0.6 1.5 0.8 0.4 0.2 1.1 0.6 1.7 1 0.6 0.3 1.2 0.7 1.4 0.7 0.3 0.2 4.3 2.4 5.3 3.1 1.2 0.7 3.9 2.5 5.5 3.6 0.8 0.6 2 1.5 2.8 2 1.2 0.9 4.6 3.4 5.4 4 1.6 1.4 4 1.8 6.8 1 0.8-0.2 2-0.4 2.5-0.5 0.6-0.1 1.5-0.3 2-0.4 0.5-0.2 1.9-0.4 3-0.6 1.1-0.2 2.8-0.4 3.7-0.6 0.9-0.2 2.9-0.4 4.5-0.6 1.6-0.1 3.6-0.3 4.4-0.4 2.4-0.4 19.6-0.4 21.7 0.1 1 0.2 3 0.4 4.4 0.5 1.4 0 3.1 0.2 3.8 0.4 0.7 0.1 2.2 0.4 3.4 0.6 1.2 0.1 2.5 0.4 2.9 0.6 0.4 0.1 1.4 0.4 2.3 0.5 0.9 0.1 1.9 0.4 2.3 0.5 0.4 0.2 1.2 0.4 2 0.6 0.7 0.1 1.5 0.3 1.7 0.4 0.3 0.1 1 0.4 1.8 0.6 8.4 2.2 10.3 5.4 8.7 14.2-0.3 1.3-0.6 3.1-0.7 3.9-0.1 0.9-0.3 2.1-0.6 2.7-0.2 0.6-0.4 1.6-0.5 2.2-0.1 0.5-0.3 1.3-0.5 1.7-0.2 0.4-0.4 1.2-0.5 1.8-0.1 0.5-0.3 1.4-0.5 1.8-0.2 0.4-0.5 1.1-0.6 1.5 0 0.5-0.2 1.1-0.4 1.4-0.1 0.4-0.5 1.3-0.7 2-0.9 3.2-3.2 9.2-3.5 9.4-0.1 0.1-0.2 0.3-0.2 0.4 0 0.3-0.9 2.5-1.5 3.5-0.1 0.2-0.4 0.7-0.5 1-0.2 0.4-0.4 0.8-0.6 1-0.1 0.1-0.3 0.5-0.4 0.8-0.2 0.8-2.8 6.3-3.7 7.8-0.2 0.3-0.4 0.9-0.6 1.3-0.2 0.4-0.6 1.2-1 1.7-0.3 0.6-0.7 1.3-0.8 1.6-0.2 0.3-0.4 0.6-0.5 0.8-0.2 0.2-0.7 1.1-1.2 2-0.5 1-1.2 2.3-1.5 2.9-0.4 0.7-0.7 1.3-0.7 1.3 0 0.3 1 0.2 1.8-0.2 0.4-0.2 1.1-0.4 1.4-0.5 0.3-0.1 1.1-0.4 1.6-0.6 2.5-1.2 5.9-2.9 6.9-3.4 0.5-0.4 1.3-0.8 1.7-1.1 0.4-0.2 0.9-0.5 1-0.7 0.2-0.2 0.4-0.3 0.5-0.3 0.1 0 0.3-0.2 0.5-0.3 0.2-0.2 0.9-0.7 1.4-1.1 1.6-1.2 6.3-5.3 7.2-6.5 1.2-1.3 1.5-1.6 1.9-2.2 0.3-0.2 1.3-1.5 2.2-2.8 1.6-2.1 2.4-3.3 3.8-5.5 1-1.6 1.6-2.6 2-3.1 0.2-0.3 0.4-0.6 0.4-0.7 0-0.1 0.2-0.5 0.4-0.9 2.4-3.6 3.7-5.7 4.3-6.7 0.4-0.7 0.8-1.5 1-1.8 0.4-0.5 0.9-1.4 2-3 1.2-2.1 3.1-5.1 3.8-6.1 0.2-0.3 0.7-1.1 1.1-1.8 1.2-2.1 1.6-2.7 2.5-4.2 0.8-1.2 2.1-3.2 3.5-5.5 0.3-0.5 0.8-1.3 1.1-1.7 0.3-0.5 0.7-1.2 1-1.7 0.3-0.5 0.7-1.1 1-1.4 0.2-0.3 0.3-0.6 0.3-0.7 0 0 0.4-0.6 0.9-1.4 0.4-0.7 0.9-1.5 1-1.8 0.2-0.3 0.4-0.7 0.6-0.9 0.2-0.2 0.5-0.8 0.6-1.2 0.2-0.4 0.4-0.8 0.5-1 0.2-0.2 0.4-0.6 0.4-0.9 0.1-0.3 0.4-1.1 0.7-1.7 0.3-0.6 0.5-1.2 0.5-1.3 0-0.1 0.1-0.5 0.3-0.9 0.5-1 1.4-4 2.1-7.1 0.9-4.1 1.1-6 1.2-10.5 0.2-5.7-0.1-8.2-1.5-14.2-0.6-2.6-2.4-8-2.7-8.5-0.1-0.1-0.3-0.6-0.4-1-0.2-0.5-0.5-1.2-0.8-1.7-0.3-0.5-0.5-1.1-0.5-1.2 0-0.1-0.1-0.4-0.3-0.5-0.2-0.2-0.5-0.6-0.6-0.9-0.2-0.4-0.6-1.1-0.9-1.7-0.4-0.6-0.8-1.3-1-1.7-1.4-2.6-2-3.7-3-5.6q-1.8-3.4-3-5.5c-0.5-0.8-0.6-1-2.7-5.1-1.9-3.5-2.8-5.3-3.4-6.3-1.9-3.4-2.5-4.7-3.4-6.3-0.5-1.1-1.4-2.8-2-4-0.6-1.1-1.3-2.3-1.4-2.6-0.2-0.4-1.1-2-2-3.6-1-1.7-1.9-3.3-2.1-3.7-0.9-1.7-1.7-2.8-3.5-5-3.3-4-4.8-5.6-7.1-7.5-0.7-0.6-1.4-1.2-1.6-1.4-0.9-0.8-3.9-3.1-5-3.8-0.6-0.3-1.3-0.7-1.6-0.9-0.5-0.3-1.2-0.7-2.8-1.6-0.6-0.3-1.1-0.6-1.3-0.7-0.3-0.2-1.1-0.5-3.5-1.6-3.3-1.5-8.9-3-13.7-3.7q-3.4-0.5-15.3-0.9c-4-0.1-8.7-0.3-10.6-0.4-1.9-0.1-6.8-0.3-10.9-0.4-4.2-0.1-9.9-0.3-12.8-0.4-6-0.3-9.5-0.3-12.6 0z"/>
		<path id="path0" fill-rule="evenodd" class="s1" d="m61.5 145.1c17 13 29.9 28.4 38.5 46.2 1.7 3.4 3.2 4.6 6.1 4.6 16 0 52.1 15 70 29 5.9 4.6 6.2 4.7 12.7 3.3 18.2-4.1 39.1-3.7 56.2 1 10.5 2.9 11.5 4.1 10.3 12-2.4 17.1-10.3 35.9-23.4 56.2-3.2 4.9-3.4 6-2.7 11.2 5.6 38.2-4.7 83.7-25.3 111.5-0.9 1.2-2.2 3.2-2.8 4.5l-1.2 2.2h-84.5c-56 0-84.4-0.1-84.4-0.4 0-0.3-0.2-0.5-0.5-0.5-0.2 0-1.5-0.7-2.9-1.7-1.4-0.9-5.6-3.4-9.3-5.6-3.7-2.1-11.4-7-17.2-10.8-5.7-3.8-11.4-7.4-12.5-7.9l-2-1v-190l7.2-3.5c3.9-1.9 8.9-4.1 11.2-4.8 6.5-2.3 6.4-2.2 7.7-8.6 3.3-16.8 24.7-49.4 35.1-53.7 2.7-1.1 4.5-0.3 13.7 6.8zm-16.6 105.9c-7.4 8.7 4.7 20.1 14.6 13.7 6.1-3.9 4.5-13.6-2.8-16.1-4.3-1.4-9.5-0.4-11.8 2.4zm104.9 60.3c4.5 9.6 19.5 7.5 19.5-2.7 0-3.9-2-7-5.6-8.8-8.8-4.4-17.9 3.1-13.9 11.5z"/>
	</g>
</svg>