<svg version="1.2" xmlns="http://www.w3.org/2000/svg" viewBox="0 0 52 52" width="24" height="24">
	<title>shortcuts-svgrepo-com-svg</title>
	<style>
		.s0 { fill: #000000 } 
	</style>
	<path id="Layer" class="s0" d="m51.5 25.7l-20-20.4c-0.7-0.6-1.7-0.7-2.4 0-0.4 0.4-0.6 0.9-0.6 1.3l-0.1 11c-6.3-0.5-26 0.3-28.4 24.5v0.3c-0.1 0.1-0.1 0.2-0.1 0.3 0 0.5 0.1 1.2 0.6 1.6 0.6 0.7 1.7 0.7 2.4 0 0.1 0 0.1 0 0.2-0.1 0 0 0 0 0-0.1 0.1-0.1 0.2-0.1 0.1-0.2 1.3-2.1 10.5-15.7 25.2-10.3l-0.1 13.2c0 0.5 0.1 0.9 0.4 1.3 0.7 0.6 1.8 0.7 2.5 0l20.2-19.9c0.8-0.6 0.8-1.8 0.1-2.5z"/>
</svg>