<svg version="1.2" xmlns="http://www.w3.org/2000/svg" viewBox="0 0 400 400" width="24" height="24">
	<title>showly-svg</title>
	<style>
		.s0 { fill: #000000 } 
	</style>
	<path id="path0" fill-rule="evenodd" class="s0" d="m191.5 0.5c-10.5 0.4-12.7 0.7-15.6 2-1.9 0.9-5.4 1.7-8.3 2-3.2 0.3-6.1 1-8 2-1.7 0.9-4.2 1.6-5.6 1.6-1.7 0-3.4 0.7-4.9 1.8-1.3 0.9-3 1.7-3.7 1.7-0.7 0-2.2 0.7-3.3 1.4-1.1 0.8-3 1.8-4.3 2.2-1.3 0.5-3 1.4-3.9 2.1-1 0.7-2.1 1.3-2.6 1.3-0.4 0-2 1-3.5 2.2-1.5 1.1-4.4 3.2-6.5 4.6-4.6 2.9-16.2 14.1-18.3 17.5-0.8 1.3-2.4 3.6-3.6 5.1-3.2 4-11.5 19.5-11.5 21.3 0 0.4-0.6 2-1.4 3.6-0.8 1.5-1.8 4.7-2.1 7.1-0.4 2.3-1.4 5.8-2.2 7.7-2.2 4.9-2.3 46.6-0.3 51.8 0.7 1.7 1.7 5.3 2.2 7.9 4.5 24.1 32.4 54 58.1 62.2 1.4 0.5 5.1 2 8.3 3.3 3.2 1.4 7.7 3.1 10 3.7 2.3 0.7 5.1 1.7 6.3 2.3 1.1 0.6 3.3 1.3 4.8 1.5 1.5 0.3 3.9 1.1 5.4 1.9 1.4 0.7 3.4 1.3 4.3 1.3 1 0 3.8 0.8 6.1 1.7 2.4 0.9 9.9 3.4 16.6 5.6 12 3.8 14.8 4.9 25 9.6 13.2 6 24.6 16.9 26.1 24.8 0.3 1.4 1.1 3.6 1.8 5.1 2.7 5.3 2.5 19.7-0.4 27.6-0.6 1.7-1.4 4.4-1.8 5.9-1.7 6.9-10.6 17.9-17.7 21.9-2.1 1.2-4.1 2.6-4.5 3.1-0.5 0.5-1.8 1.2-3 1.4-1.2 0.3-3.5 1.3-5.2 2.2-2 1-4.3 1.6-6.3 1.6-1.8 0-5.1 0.8-7.6 1.8-5.9 2.4-34.4 2.4-39.4 0-1.8-0.8-5.4-1.5-9.4-1.8-4.5-0.3-7.5-0.9-9.4-1.9-1.5-0.7-4.5-1.6-6.6-1.8-2.1-0.3-4.8-1.1-6-1.8-1.2-0.7-3.5-1.5-5.2-1.8-1.6-0.3-4.3-1.2-6.1-2.1-1.7-1-3.7-1.7-4.4-1.7-0.7 0-2.7-0.7-4.6-1.7-7.3-3.6-11-5.3-13-5.7-1.1-0.3-3.4-1.2-5.1-2.1-1.7-0.9-3.5-1.6-4.1-1.6-0.5 0-1.9-0.5-3-1.1-3.3-1.7-4.6-0.8-6.1 4.1-0.8 2.3-1.9 5.8-2.6 7.8-0.6 1.9-1.9 5.5-2.7 7.9-0.9 2.5-2.1 6.1-2.8 8-0.6 2-1.7 5.4-2.4 7.7-0.7 2.4-1.7 5.2-2.3 6.3-0.6 1.1-1.2 3.3-1.5 4.8-0.3 1.5-1.1 3.9-1.8 5.3-2.3 4.5 0.5 9.6 5.3 9.6 1 0 2.8 0.6 4 1.4 1.2 0.7 3.9 1.8 6.1 2.4 2.1 0.6 4.3 1.6 4.8 2.1 0.4 0.6 1.6 1.1 2.5 1.1 1 0 3.9 0.9 6.5 2.1 2.6 1.1 5.2 2.1 5.8 2.1 0.6 0 2.7 0.7 4.7 1.7 2.1 1 4.5 1.7 5.5 1.8 0.9 0 3.3 0.8 5.2 1.7 1.9 0.9 4.4 1.7 5.6 1.7 1.2 0 3.3 0.7 4.9 1.5 1.6 0.8 5 1.7 8.3 2 3.1 0.4 7 1.2 8.7 2 2.2 0.9 5.5 1.4 11.8 1.7 4.8 0.3 14.1 1 20.7 1.6 11.1 1.1 12.7 1.1 21.9 0 5.4-0.6 13.6-1.3 18.2-1.6 6-0.3 9.2-0.8 11.5-1.8 1.7-0.7 5-1.5 7.3-1.7 2.2-0.2 5.6-1.1 7.4-2 1.8-0.9 4.2-1.7 5.2-1.7 1.1 0 2.9-0.6 4.2-1.3 1.2-0.8 3.5-1.8 5.2-2.2 1.6-0.5 3.8-1.5 4.8-2.2 1-0.7 2.1-1.2 2.5-1.2 0.7 0 13.1-7.5 16.5-10.1 14.5-10.7 26.2-24.1 31.3-35.8 0.6-1.3 1.7-3.5 2.4-4.9 0.7-1.3 1.5-3.5 1.8-4.8 0.3-1.4 1-3.6 1.7-4.9 0.7-1.3 1.6-4.9 2.1-7.9 0.4-3 1.3-6.8 1.9-8.4 1.7-4.2 1.7-43.8 0-48.1-0.6-1.5-1.5-5.3-1.9-8.3-0.5-3-1.4-6.6-2.1-7.9-0.7-1.4-1.4-3.5-1.7-4.8-0.9-4.1-6.9-15-12.1-22-12.5-16.8-32.9-32.1-49.6-37.5-1.6-0.5-5.6-2.1-8.9-3.5-3.2-1.4-7.6-3-9.6-3.6-2.1-0.5-4.4-1.4-5.2-2-0.8-0.5-3.1-1.3-4.9-1.7-1.9-0.4-4.4-1.2-5.6-1.7-1.2-0.6-3.6-1.4-5.5-1.8-1.8-0.4-4.6-1.3-6-2.1-1.5-0.7-3.5-1.3-4.4-1.3-0.8 0-2.8-0.7-4.3-1.5-1.5-0.7-4.2-1.7-5.9-2.1-5.9-1.5-23.4-9.7-29.9-14.1-15.2-10.2-23.6-33.5-17.1-47.4 0.9-2 1.9-4.5 2.1-5.7 0.3-1.2 0.8-2.4 1.1-2.6 0.3-0.2 2-2.5 3.8-5.1q3.2-4.8 6.2-6.6c1.7-1 4.5-2.9 6.2-4.2 1.8-1.3 4.4-2.6 5.8-2.9 1.5-0.2 3.7-1.1 5-1.9 1.5-0.9 4.3-1.5 8-1.9 3.1-0.3 7.6-1.2 10-2 6.3-2.1 24.1-2.1 29.9 0 2.3 0.8 7 1.7 10.9 2 5 0.4 7.7 1 9.4 2 1.4 0.7 4.4 1.5 6.9 1.8 2.5 0.2 5.4 1 6.6 1.7 1.2 0.8 3.7 1.6 5.6 1.9 2 0.2 4.5 1 5.6 1.7 1.1 0.7 3.8 1.6 5.9 2 2.1 0.5 4.3 1.2 4.8 1.8 0.6 0.5 2.5 1.3 4.2 1.8 1.8 0.4 4.4 1.4 5.9 2.2 4.2 2.1 5.7 1.3 6.6-3.5 0.5-2.2 1.4-5.4 2.1-7.1 0.8-1.7 1.7-4.8 2.1-6.8 0.4-2 1.2-4.5 1.7-5.6 0.5-1 1.3-3.7 1.7-5.8 0.4-2.2 1.2-4.9 1.7-5.9 0.6-1.1 1.4-3.8 1.9-6.1 0.4-2.2 1.4-5.4 2.1-7 1.7-4 2-9.4 0.7-10.1-4.8-2.5-8.6-4.1-10.6-4.5-1.3-0.2-3.3-1-4.5-1.7-1.3-0.8-3.5-1.6-4.9-1.8-1.5-0.3-4-1.2-5.8-2.1-1.7-0.9-4.1-1.7-5.4-1.7-1.2 0-3.7-0.7-5.5-1.6-1.8-0.9-5-1.8-7.2-2-2.1-0.2-4.9-1-6.2-1.8q-2.4-1.4-8-1.7c-3.4-0.3-6.8-1-8.8-1.9-5.4-2.4-29.6-3.2-59.6-2.1z"/>
</svg>