<svg version="1.2" xmlns="http://www.w3.org/2000/svg" viewBox="0 0 192 192" width="24" height="24">
	<title>smartspacer-svg</title>
	<style>
		.s0 { fill: #000000 } 
	</style>
	<g id="Folder 1">
		<path class="s0" d="m10.1 94.4h20.2c6.1 0 10.1-4 10.1-10.1v-20.2c0-6.1-4-10.1-10.1-10.1h-20.2c-5 0-10.1 5.1-10.1 10.1v20.2c0 6.1 5.1 10.1 10.1 10.1z"/>
		<path class="s0" d="m5.1 123.7c0-4 1.5-7.8 4.4-10.7 2.8-2.8 6.7-4.4 10.7-4.4 4 0 7.9 1.6 10.7 4.4 2.9 2.9 4.5 6.7 4.5 10.7 0 4-1.6 7.9-4.5 10.7-2.8 2.9-6.7 4.5-10.7 4.5-4 0-7.9-1.6-10.7-4.5-2.9-2.8-4.4-6.7-4.4-10.7z"/>
		<path class="s0" d="m50.5 123.7c0 6.1 4.1 10.1 10.1 10.1h121.3c5 0 10.1-4 10.1-10.1 0-6-5.1-10.1-10.1-10.1h-121.3c-6 0-10.1 4.1-10.1 10.1z"/>
		<path class="s0" d="m50.5 74.2c0 6.1 4.1 10.1 10.1 10.1h121.3c5 0 10.1-4 10.1-10.1 0-6.1-5.1-10.1-10.1-10.1h-121.3c-6 0-10.1 5.1-10.1 10.1z"/>
	</g>
</svg>