<svg version="1.2" xmlns="http://www.w3.org/2000/svg" viewBox="0 0 24 24" width="24" height="24">
	<title>snapseed-svg</title>
	<style>
		.s0 { fill: #000000 } 
	</style>
	<g>
		<path class="s0" d="m22 10.4h-5.5q0.1 0.7 0.1 1.4 0 0.8-0.1 1.6-0.1 0.7-0.3 1.5-0.1 0.8-0.4 1.5-0.2 0.8-0.5 1.5-0.3 0.6-0.6 1.1-0.3 0.5-0.6 1-0.4 0.6-0.8 1-0.4 0.5-0.8 0.9-0.3 0.3-0.6 0.6-0.3 0.3-0.6 0.5-0.3 0.3-0.7 0.5-0.3 0.3-0.6 0.5h12q0.2 0 0.4-0.1 0.3-0.1 0.5-0.3 0.1-0.2 0.2-0.4 0.1-0.2 0.1-0.5v-11q0-0.3-0.1-0.5-0.1-0.2-0.2-0.4-0.2-0.2-0.5-0.3-0.2-0.1-0.4-0.1z"/>
		<path class="s0" d="m0.8 11.8q-0.1 1.3 0.2 2.6 0.2 1.3 0.7 2.5 0.5 1.2 1.2 2.3 0.7 1.1 1.7 2.1 0.3 0.3 0.7 0.7 0.4 0.3 0.8 0.6 0.4 0.3 0.8 0.6 0.4 0.3 0.8 0.5v-5.8l-6.9-6.9q0 0.4 0 0.8z"/>
		<path class="s0" d="m2.2 5.8q-0.2 0.5-0.4 0.9-0.3 0.5-0.4 1-0.2 0.5-0.3 1-0.1 0.6-0.2 1.1l6.8 6.8v-7.4l-3.4-3.4z"/>
		<path class="s0" d="m5 5.1l2.7 2.8v-7.9q-0.3 0.2-0.7 0.5-0.4 0.2-0.7 0.5-0.4 0.3-0.7 0.5-0.3 0.3-0.6 0.6z"/>
		<path class="s0" d="m8.7 0v7.9l4.2-4.2q-0.5-0.5-0.9-1.1-0.5-0.5-1.1-0.9-0.5-0.5-1.1-0.9-0.5-0.4-1.1-0.8z"/>
		<path class="s0" d="m13.4 4.5l-4.7 4.7v7.4l6.8-6.8q-0.1-0.7-0.3-1.4-0.2-0.7-0.4-1.4-0.3-0.7-0.6-1.3-0.4-0.6-0.8-1.2z"/>
		<path class="s0" d="m11.8 21.3q1-1 1.7-2.1 0.7-1.1 1.2-2.3 0.5-1.2 0.7-2.5 0.3-1.3 0.2-2.6 0-0.4 0-0.8l-6.9 6.9v5.8q0.4-0.2 0.8-0.5 0.4-0.3 0.8-0.6 0.4-0.3 0.8-0.6 0.4-0.4 0.7-0.7z"/>
	</g>
</svg>