<svg version="1.2" xmlns="http://www.w3.org/2000/svg" viewBox="0 0 1080 1080" width="24" height="24">
	<title>New Project</title>
	<style>
		.s0 { fill: #000000 } 
	</style>
	<path id="path0" fill-rule="evenodd" class="s0" d="m969.1 0.1c21.5-0.1 44.8-1.9 51.5-0.1 31 8.2 55.1 40.1 61.1 74.8 2.2 12.7 1.5 913.7-0.7 933-3.5 30.7-29.3 60.4-60.4 69.7l-8.3 2.5h-471c-458.2 0-471.3-0.1-480.1-2.2-30.2-7.1-55.3-32.8-61.8-63.2-2.7-13-3.3-933.5-0.6-948.2 5.4-28.7 29.9-55.4 60.9-66.4 3.1-1.1 100.4-1.5 453.9-2 247.5-0.3 452.3 2.1 455.5 2.1zm-769.1 160.7c-45.8 6.4-68.4 29-55.7 55.8 8 16.9 31.7 25.1 84.7 29.5 31.2 2.5 40.7 6.7 39.5 17.1-3.2 28.5-89.6 21-104.9-9.1-5.4-10.8-15.7-14.1-17-5.4-1.2 8.7-2 33.1-1.2 39.3l0.8 6.4h6.8c7.4 0 11.1-1.4 11.1-4.1 0-5.9 1.4-6 15.1-1.5 36.7 12.3 60 13 90.5 2.7 26.8-9 39.4-30.5 29.4-50.4-10.4-20.3-21.7-24.2-101.2-34.4-23.3-3-23.5-3-23.5-9.4 0-23.9 70.8-25.5 95.8-2.1 3 2.8 5.4 5.8 5.4 6.7 0 3.8 6.5 8.3 11.9 8.3h5.2v-20.9c0-22.8 0.1-22.4-6.6-22.8-5.9-0.3-9.2 1.1-10.5 4.6-1.3 3.4-0.4 3.5-15.3-1.9-5.7-2-13.8-4.6-18.2-5.8-7.8-2.1-34-3.7-42.1-2.6zm182.4 6.9c-48.5 17.4-65.7 62.4-38.1 99.4 33.6 45.1 139.5 42 164.6-4.7 23.5-43.7 1.2-84.6-54.1-99.4-18.6-5-51.4-2.8-72.4 4.7zm214.4 0.4h-29c-32.1 0-30.5-0.3-30.5 6.3 0 5.9 2.6 8.5 8.3 8.5 2.3 0 6.6 0.6 9.7 1.2l5.6 1.2 0.8 8.2c0.5 4.5 0.5 24.9 0 45.4l-0.8 37.2-21.9 0.7v13.5l4.6 1c2.5 0.6 18 0.8 34.5 0.6 33.6-0.4 33.2-0.2 33.2-9 0-5.4-0.3-5.6-13.3-6.7-5.9-0.5-11-1.1-11.3-1.4-0.3-0.3-0.4-16.3-0.2-35.5l0.3-35.1 10.3 9.6c5.7 5.2 12.3 11.3 14.8 13.5 2.5 2.2 9.9 8.8 16.5 14.8 6.6 5.9 15.1 13.5 18.9 16.8 3.8 3.2 13.5 11.6 21.4 18.4 15.3 13.2 17.6 14.4 29.8 15.6 11.5 1.1 10.6 5.6 10.6-54.9 0-32 0.4-52.9 1.1-53.3 0.6-0.4 5.2-1 10.3-1.4 10.6-0.8 12.5-2.1 12.5-8.2 0-7.1 0.7-7-37.6-7-37.1 0-37.5 0.1-37.5 5.7 0.1 7.2 2 8.5 13.4 9.1 13.7 0.8 12.7-1.5 13.6 32.3 0.8 34 1.5 32.7-10.9 20.9-11-10.5-19.9-18.6-31.4-28.7-5-4.4-11.7-10.3-14.8-13.1-10.6-9.6-22.8-20-26.9-23.1zm151.1 1c-1.2 0.8-1.4 2.4-0.8 6.3 0.9 6.1 3.1 7.5 11.3 7.5 10.8 0 14 2.2 29 19.9 4.7 5.6 11 12.8 13.9 15.9 21.2 22.7 21.1 22.4 22 41.1 1 17.4 1.7 16.4-11.8 16.4-10.5 0-12 1.1-11.1 8.1 1 7.5-0.6 7.2 42.9 7.2 44.4 0 42.1 0.5 42.5-8.6l0.2-6.2-11-0.5c-13.6-0.7-12.8 0.1-13.3-15.3-0.5-14.6-0.1-15.6 8.6-25.9 19.7-23.4 28.4-33.3 36.3-41.5l9-9.2 10.4-0.8c12.1-0.9 13.6-2 14.2-9.7l0.4-5.1-34.4-0.3c-38.4-0.4-39-0.3-39 6.3 0.1 6.1 1.3 7.3 8.6 8.3 8.5 1.1 8.5 1.1 2.1 8.8-26.6 31.9-28 33.3-30.8 29-2.1-3.3-16.6-21.4-23.5-29.4l-3.9-4.5 5.3-2.5c8.3-4 11.9-10.9 7.9-14.9-1.7-1.7-82.4-2-85-0.4zm-269.8 70.3c-7.3 47.9-79.6 58.3-102.2 14.6l-4.1-8v-15.3c-0.1-27.9 14.6-46.2 41.5-51.8 38.5-7.9 70.6 22 64.8 60.5zm-472.8 91.5c2.6 46.9 3.1 115.4 2.6 380.4-0.5 278.7-0.3 298.6 3.1 310.1 5.9 19.9 27.3 40.8 48.5 47.4 9 2.8 943.8 3.7 955 0.9 29.1-7.2 51.4-31.3 55.7-60.1 4.4-29.8 2.2-226.9-2.7-240.8-0.6-1.6-2.1-6.7-3.5-11.4-8.3-27.9-28-56-57.5-81.9-23.7-20.9-56-39.7-94.9-55.2-2.8-1.2-7.3-3-9.9-4.2-2.6-1.1-5.5-2-6.5-2-0.9 0-2-0.5-2.4-1.2-0.4-0.6-1.5-1.1-2.4-1.1-1 0-3.4-0.7-5.4-1.6-1.9-0.9-5.6-2.2-8.1-3-2.5-0.7-6.9-1.9-9.7-2.8-2.8-0.8-11.2-3.3-18.7-5.5-11.8-3.4-40.5-10.7-49.5-12.5-1.6-0.3-6.6-1.4-11.1-2.4-12.8-2.8-51.8-9.8-70.3-12.5-35.2-5.2-54.8-7.9-70.5-9.8-5.6-0.6-16.9-1.9-25-2.9-8.2-1-21.5-2.5-29.6-3.4-22-2.5-41.5-4.7-58-6.7-17-2.1-36.9-4.4-58.1-6.9-26.8-3-43-5-56.3-6.7-7.2-0.9-17.4-2.2-22.7-2.9-37-4.6-109.7-17.6-132.6-23.7-2.5-0.7-8.1-2.1-12.5-3.1-21.2-5.1-60.5-17.2-76.2-23.5-3.2-1.3-9.6-3.8-14.2-5.7-81.5-32.8-134.1-84.1-151.8-148.2-3.9-13.9-5.6-12.8-4.8 2.9zm811.4 335.6c0.4 0.7-0.2 3.4-1.3 6-8.4 19.5-16.2 36.1-18 38.3-0.8 0.9-2.6 4.5-4.1 7.9-2.7 6.5-8.8 20.1-15.1 33.2l-3.6 7.5-24.5 0.6c-20.6 0.5-25.5 1-30.9 2.9-7.3 2.6-21.5 9.9-23.2 12-0.6 0.8-3.1 2.5-5.4 3.9l-4.3 2.4 1.6-3.8c2.2-5.2 9.8-19.5 13.6-25.4 1.7-2.6 3-5.3 3-5.9 0-4.5 25.1-20.4 40.8-25.8 6.4-2.2 32.7-6.1 41.3-6.1 3.7 0 6.7-0.5 6.7-1.1 0-1.8-22-1.4-33.6 0.6-17.3 2.9-29.1 7.8-41.7 17-11.2 8.3-11.4 7.1-2.6-11.3 13.9-29 30.5-43.8 59.7-53 4.5-1.5 40.7-1.3 41.6 0.1zm-515.8 12.6l36.1-0.2 2 3.7c2.7 4.9 3.2 322.7 0.6 325.3-1.2 1.2-10.4 1.6-40.7 1.9l-39.1 0.3-0.9-3.2c-0.5-1.7-0.9-73.8-0.9-160.2 0-164.7 0-165.7 4.8-167 1.1-0.3 18.3-0.6 38.1-0.6zm161.8 64.2c1.4 3.7 0.7 35.4-0.8 36.7-2.6 2.1-78 2.3-79.4 0.2-2-2.9-0.9-36.3 1.2-37.6 3.3-2.1 78.2-1.4 79 0.7zm309 20.1c0 0.4-1 3.2-2.2 6.2-2 5.1-4.1 9.8-16 35-2.7 5.7-6.1 13.1-7.7 16.5-1.6 3.5-5.9 12.6-9.6 20.4-3.6 7.7-6.6 14.2-6.6 14.4 0 0.2-2.7 5.9-5.8 12.7-5.5 11.6-7.9 16.6-15.7 33.6-24 52-21.4 48.7-38.4 49.5-16.9 0.9-22.2-3.2-33.4-25.7-9.9-19.7-9.9-18.3 0.3-39.1 4.7-9.6 14.8-31 22.4-47.6 22.7-49.2 24.6-52.2 41.6-63.5 13.1-8.9 22.5-11.8 42-13.1 9.5-0.7 29.1-0.2 29.1 0.7zm-310.9 40.2l2.5 0.5v101.9c0 95.9-0.1 101.8-1.9 102.6-4.1 1.7-77.7 1-78.7-0.7-2.9-4.6-3.2-197.2-0.4-202.3 1-1.7 2.8-2.7 5.7-3 5.4-0.5 69.4 0.3 72.8 1zm101.5 27.3c25.9 11.3 37.5 23.8 52.7 56.9 4.7 10 9 19.3 9.6 20.5 0.7 1.2 3.6 7.5 6.6 14.1 13.4 30 21.2 36.1 41.9 32.5 5.9-1 11-1.8 11.4-1.8 4.8 0-12.8 30.6-23 40-25.2 23-68.3 17.7-87.6-10.8-5.6-8.3-10.3-17.8-32.3-65.6-5.6-12.2-10.9-23.5-11.7-25-0.9-1.6-3.4-7-5.7-12-9.7-21.1-11.1-24.1-13.2-28.1-5.9-11.2-8.1-22.6-4.7-24.8 4.5-2.8 47.2 0.3 56 4.1z"/>
</svg>