<svg version="1.2" xmlns="http://www.w3.org/2000/svg" viewBox="0 0 24 24" width="24" height="24">
	<title>spotify-svg</title>
	<style>
		.s0 { fill: #000000 } 
	</style>
	<path id="path2" class="s0" d="m22.4 10.4c-0.3 0-0.5-0.1-0.9-0.3-4.8-2.9-13.4-3.6-19-2-0.3 0.1-0.6 0.2-0.9 0.2-0.9 0-1.6-0.7-1.6-1.6 0-1 0.6-1.5 1.2-1.7q3.6-1 8-1c4.9 0 10.1 1 13.9 3.2 0.6 0.4 0.9 0.8 0.9 1.6 0 0.9-0.7 1.6-1.6 1.6zm-2.1 5.1c-0.3 0-0.6-0.1-0.8-0.2-4.3-2.6-10.6-3.6-16.2-2-0.4 0-0.5 0.1-0.8 0.1-0.8 0-1.4-0.6-1.4-1.3q0-1.1 1.1-1.4c1.9-0.5 3.8-0.9 6.6-0.9 4.5 0 8.7 1.1 12.1 3.1 0.5 0.3 0.7 0.7 0.7 1.3 0 0.8-0.5 1.3-1.3 1.3zm-1.8 4.5c-0.3 0-0.5-0.1-0.7-0.2-4.3-2.6-9.2-2.7-14.1-1.7-0.2 0.1-0.6 0.2-0.8 0.2-0.7 0-1.1-0.6-1.1-1.1 0-0.7 0.4-1 1-1.1 5.5-1.3 11.2-1.2 16.1 1.7 0.4 0.3 0.6 0.5 0.6 1.2 0 0.6-0.5 1-1 1z"/>
</svg>