<svg version="1.2" xmlns="http://www.w3.org/2000/svg" viewBox="0 0 192 192" width="24" height="24">
	<title>spotify-svg</title>
	<style>
		.s0 { fill: #000000 } 
	</style>
	<path fill-rule="evenodd" class="s0" d="m191.9 99.8c-2.1 53-46.7 94.2-99.7 92.1-53-2.1-94.2-46.7-92.1-99.7 2.1-53 46.7-94.2 99.7-92.1 53 2.1 94.2 46.7 92.1 99.7zm-51.5 40.9c1.5-2.7 0.5-6.2-2.2-7.8-14-8-29.2-13.1-45.2-15.4-16-2.2-32.1-1.4-47.6 2.4-3.1 0.7-5 3.8-4.3 6.9 0.8 3.1 3.9 5 6.9 4.2 14.3-3.5 28.8-4.2 43.4-2.1 14.6 2 28.4 6.7 41.1 13.9 0.7 0.4 1.3 0.6 2 0.8 2.3 0.3 4.6-0.8 5.8-2.9zm9.6-35.3c-16.5-8.9-34.2-14.7-52.8-17.3-18.7-2.6-37.3-1.9-55.5 2.1-4.1 0.9-6.6 4.8-5.7 8.9 0.7 3.1 3.3 5.3 6.2 5.8q1.3 0.1 2.6-0.2c16.6-3.6 33.4-4.2 50.3-1.9 16.9 2.4 32.9 7.7 47.8 15.7 3.6 2 8.1 0.6 10.1-3 1.9-3.6 0.6-8.1-3-10.1zm17-18.3c2.3-4.5 0.6-10-3.9-12.3-19.2-10-39.8-16.6-61.3-19.6-21.5-3-43.1-2.4-64.3 1.9-4.9 1-8.1 5.9-7.1 10.8 1 5 5.8 8.2 10.8 7.2 19.1-3.9 38.6-4.5 58.1-1.8 19.4 2.8 38 8.7 55.3 17.7q1.4 0.8 2.9 1c3.8 0.5 7.6-1.3 9.5-4.9z"/>
</svg>