<svg version="1.2" xmlns="http://www.w3.org/2000/svg" viewBox="0 0 400 400" width="24" height="24">
	<title>swiftbackup-svg</title>
	<style>
		.s0 { fill: #000000 } 
	</style>
	<g id="svgg">
		<path id="path2" fill-rule="evenodd" class="s0" d="m376 1.3c6.1 2.6 6 0.4 5.7 64.1l-0.3 57.3-2.2 2.3c-1.2 1.3-4.8 3.8-8.1 5.7-7.4 4.1-10.9 6.1-14.9 8.4-1.8 0.9-4.7 2.6-6.6 3.7-27.6 15.5-35.4 20-35.4 20.2 0 0.3 20.3 11.9 56.3 32.3 12.3 7 11.4 2.4 11.4 54.2 0 44.5-0.1 45.9-3.3 49.1-1.1 1.1-19.3 11.8-43.2 25.5-1.7 1-4.5 2.6-6.1 3.5-1.6 0.9-14.7 8.5-29.1 16.8-14.4 8.3-26.6 15.4-27.1 15.8-0.5 0.4-3.1 1.9-5.9 3.4-2.7 1.5-18.1 10.3-34.1 19.5-31.6 18.2-32.9 18.7-39.2 15.1-1.6-0.9-14.7-8.4-29.1-16.8-27.4-15.8-30.2-17.4-35-20.2-5-2.8-55.1-31.8-58-33.5-1.5-0.8-12.9-7.5-25.5-14.7-24.1-13.9-25-14.5-26.4-18.2-0.6-1.6-0.9-32.8-0.9-87.7v-85.4l3.2-3.2c5-4.9 7.4-4.2 28.8 8.4 10 5.8 19.3 11.3 20.8 12.2 1.5 0.8 5 2.8 7.7 4.5 2.7 1.6 6.3 3.7 7.9 4.6 7.2 4.1 9.5 5.5 22.3 13 7.5 4.3 14.8 8.6 16.3 9.4 1.5 0.9 6.3 3.8 10.8 6.4 4.5 2.6 9.3 5.4 10.8 6.3 1.5 0.8 5 2.9 7.7 4.5 2.7 1.6 6.2 3.7 7.7 4.5 6.1 3.5 10.4 6 19.8 11.6 9.7 5.7 12.2 7.1 19.2 11.1 1.9 1 4.5 2.7 5.8 3.6 1.3 0.9 2.6 1.7 2.9 1.7 0.2 0 9.9 5.5 21.5 12.3 11.6 6.8 24.5 14.4 28.7 16.8 23.9 14 36.9 21.5 37.5 21.5 0.3 0 4.5-2.4 9.5-5.2l9-5.2v-21.8l-3.8-2c-2.2-1.1-5.1-2.7-6.6-3.6-11.1-6.4-17.6-10-24.8-14-2.7-1.5-6.1-3.4-7.4-4.4-1.3-0.9-2.6-1.6-2.8-1.6-0.3 0-5.7-3-12.1-6.7-6.4-3.6-13.4-7.6-15.6-8.9-15.4-8.6-30.1-16.8-46.1-25.9-10.1-5.9-20.4-11.7-22.7-13-2.4-1.3-7.7-4.3-11.8-6.6-4.1-2.3-9.7-5.4-12.4-6.9-2.7-1.5-6-3.5-7.4-4.4-1.3-0.9-2.6-1.6-2.8-1.6-0.3 0-5.7-3-12.1-6.7-6.3-3.7-19.7-11.2-29.6-16.8-9.9-5.6-19.4-11-21-11.9-3.4-1.9-6.4-3.6-15.1-8.5-3.5-1.9-7.4-4.1-8.7-4.9-1.3-0.7-8.6-4.9-16.3-9.2-7.7-4.3-14.9-8.9-16.1-10.2l-2.2-2.4-0.3-29.5c-0.3-35.3-0.3-35.4 6.6-37.8 4.6-1.7 346.2-1.5 350.2 0.1zm-59.1 63.7l-87.8 0.1c-97.9 0-90-0.6-78.4 5.9 2.8 1.5 7.5 4.2 10.5 5.8 3 1.7 9.8 5.6 15.2 8.7 5.4 3.1 9.9 5.7 10.1 5.7 0.1 0 6.6 3.7 14.4 8.1 7.8 4.5 14.3 8.2 14.5 8.2 0.3 0 1.9 0.9 3.8 2.1 7.1 4.4 28 15.9 29.1 15.9 0.6 0 7.1-3.4 14.3-7.5 7.3-4.2 15-8.6 17.3-9.8 2.2-1.3 5.6-3.2 7.4-4.2 1.9-1.1 4.9-2.8 6.8-3.8 1.9-1.1 7.7-4.4 13.1-7.5l9.7-5.5zm-232 155.3c-0.6 0-0.9 8-0.9 20.1v20.1l22.7 13.1c12.4 7.2 24.3 14 26.4 15.2 2 1.2 5 2.9 6.6 3.8 5.3 3.1 8.6 5 24.1 13.9l15.2 8.8 13.2-3.8c7.3-2.1 14.8-4.4 16.8-5 2-0.6 6-1.8 8.9-2.7 6.8-2 6.1-2.7-13.4-13.6-1-0.6-4-2.4-6.8-4-2.7-1.6-6.1-3.7-7.6-4.5-1.5-0.9-8.8-5.1-16.3-9.5-14.9-8.8-27.4-16.1-31.7-18.5-1.5-0.9-5.8-3.4-9.5-5.6-3.6-2.2-11.7-7-17.9-10.6-6.2-3.7-15.3-9-20.1-11.9-4.9-2.9-9.3-5.3-9.7-5.3z"/>
	</g>
</svg>