<svg version="1.2" xmlns="http://www.w3.org/2000/svg" viewBox="0 0 24 24" width="24" height="24">
	<title>tachiyomi-svg</title>
	<style>
		.s0 { fill: #000000 } 
	</style>
	<path class="s0" d="m9.5 1.2c0.1 0.5 0.1 1.2 0.1 1.6l0.1 0.6h-4.3c-2.3 0-4.2-0.1-4.3-0.1-0.2-0.1-0.2 0-0.2 2v2.1l0.2-0.1c0.7-0.2 3.3-0.2 10.8-0.2 7.4 0 10 0 10.7 0.2l0.2 0.1v-2.1c0-2 0-2.1-0.2-2-0.1 0-2 0.1-4.3 0.1h-4.3l0.1-0.6c0-0.4 0-1.1 0.1-1.6v-1.1h-4.7zm-4.3 7.4c-1.1 0.3-1.9 0.7-1.9 0.8 0 0 0.2 0.4 0.3 0.8 0.8 1.7 2.1 6.1 2.4 8.2 0.1 0.5 0.2 0.8 0.2 0.8 0.1 0 1-0.3 2.2-0.7 1.5-0.5 2-0.7 2-0.9 0-0.3-1.7-6-2.6-8.4-0.3-1-0.5-1.4-0.6-1.3-0.1 0-1 0.3-2 0.7z"/>
	<path class="s0" d="m15.9 8.5c-0.3 2.1-1.5 6.1-2.8 9.4l-0.7 1.7h-12.4v4h24v-4h-3.7c-2.9 0-3.6 0-3.6-0.1 0.1-0.1 0.3-0.6 0.5-1.2 0.3-0.6 0.8-1.8 1.1-2.7 0.7-1.9 2.1-6.4 2.1-6.7 0-0.1-0.4-0.2-2-0.6-1.2-0.3-2.2-0.5-2.3-0.5 0 0-0.1 0.3-0.2 0.7z"/>
</svg>