<svg version="1.2" xmlns="http://www.w3.org/2000/svg" viewBox="0 0 24 24" width="24" height="24">
	<title>tachiyomisy-svg</title>
	<style>
		.s0 { opacity: .5;fill: #000000 } 
		.s1 { fill: #000000 } 
	</style>
	<path id="path" class="s0" d="m11 1.6c4.3 0 5.4 1.8 7 2.8 0.8 0.3 0.6 0.6 0.9 1.1 0.1 0.1 0.2 0.2 0.4 0.3 1.1 0.7-0.4 1.5-1.1 1.5 0.3-0.2 0.5-0.2 0.7-0.5-0.6-0.2-0.5 0.3-1.1 0.2 0.1 0 0.4-0.2 0.4-0.5-0.4-0.2-1.1-0.5-1.7-0.5 1.3 0.9 0.9 2.2 1.7 2.4-0.4 0-0.2 0.1 0 0.3-0.5-0.1-0.6-0.7-0.8-1.3-0.3-0.5-0.6-1-0.9-1.1-0.1 0.4 0.1 2.1 0.5 1.8-0.3 0.4 0.2 0.2 0.4 0.1-0.8 0.8-1.3 0.6-1.6-0.5-0.2-0.5-0.5-1.2-0.7-1.7q-0.1-0.4-0.5-0.7c-1.5-1.1-2.7-1.2-4.4-0.9-0.4-0.8-1-1.6-1.4-2.4 0.8-0.1 1.4-0.3 2.2-0.4z"/>
	<path class="s0" d="m5 5.2c3.1 5.9 6.3 3.9 11 6.2 4.1 2.5 3.1 7.9-1.1 9.6v-3.2c1.7-1.7 0.7-4.2-1.4-4.6-2.6-0.6-5.4-1.1-7.2-2.4-1.8-1.4-2.3-3.8-1.3-5.6z"/>
	<path class="s0" d="m9.2 18.4c0 0.9 0.1 2 0 2.9-3.6-1-6.1-3.9-4.7-7.2v0.5c0.3 2.3 2.2 3.5 4.7 3.8z"/>
	<path class="s1" d="m2.6 0l5.1 1.4 4.3 6.7 1.8-2.7c1.3 0.5 1.4 3.2 2.1 3.6l-0.9 1.3c-3.9-1.1-7.2-1.3-8.6-4.1-1.2-2-3.8-6.2-3.8-6.2z"/>
	<path class="s1" d="m15.8 2.1c0.6 0.4 1.3 0.8 1.8 1.3 0.2 0.2 0.5 0.4 0.9 0.7 0.2 0 0.2 0 0.3 0.1l2.6-4.2-5.1 1.4z"/>
	<path class="s1" d="m12 24l2.3-1.9 0.1-7.9c0 0-0.2-0.4-3.2-1-0.6-0.1-1.1-0.2-1.1-0.2l-0.5-0.2 0.1 9.3z"/>
</svg>