<svg version="1.2" xmlns="http://www.w3.org/2000/svg" viewBox="0 0 1080 1080" width="24" height="24">
	<title>New Project</title>
	<style>
		.s0 { fill: #ffffff } 
		.s1 { fill: #000000 } 
	</style>
	<path id="path" class="s0" d="m525.7 74.2c193.7-2.3 242.2 81 311.1 125.5 36.3 13.9 29.7 27.4 44 48.2 4.2 5.9 9.3 8.4 16 12.6 50.9 30.6-18.2 66.5-47.4 67.7 11.9-7.7 22.2-9.9 29.7-20.8h-1.5v-1.5c-24.5-6.8-22.3 14.7-49 10.4 5.9-0.7 21.1-9.8 20.8-22.4-20-12.1-53.1-25.5-78.8-23.8-0.1 0.7-0.1 0.7-0.3 1.3 61 40.7 43.2 96.3 79.1 107.2-19.5-0.9-9.9 3.5 0 11.9-24.5-5-27-32.2-38.6-56.4-13.1-21.7-25.9-47.9-40.2-49.1-3.3 15.5 3.4 94.8 24.7 78.3-16.8 20.7 7.4 12.1 18.5 7.9-40.1 31.9-59 23.2-71.9-23.2-10.4-22.5-24.5-57.4-32.7-78.3-4.7-11.9-12.6-22.3-22.9-30-70.2-52.4-122.3-56-196.3-43.9-18.7-35.9-46.2-67.8-65.4-103.9 35-8.4 63.5-17.3 101.1-17.7z"/>
	<path id="Layer" class="s0" d="m255.3 231.8c137.6 265.9 283.2 179.2 493.3 280.2 183.6 114 140.8 357.4-50.5 432.8v-142.6c77.9-75.8 34.7-188.3-62.4-210-115.5-25.1-244.5-49.5-321.9-104.9-84.4-63.5-103.5-170.2-58.5-255.5z"/>
	<path id="Layer" class="s0" d="m442.4 827.4c0.2 42.7 3.2 90.5-1.5 130.7-158.2-43.2-272.9-173.5-209.4-323.9v23.9c14.4 101.1 100.9 155.9 210.9 169.3z"/>
	<path id="Layer" class="s1" d="m143.8 0l233.3 62.3 191.6 301.7 80.3-121.8c58 24.4 62.2 143.6 93.6 161.9l-38.7 58c-173.8-47.4-323.6-55.8-384.9-182.1-56.1-89.7-175.1-279.8-175.2-280z"/>
	<path id="Layer" class="s1" d="m741 96.6c27.2 16.1 55.6 33.2 78.1 55.1 12.6 12.1 25.1 20.6 42.5 30.7 6.6 3.7 7.9 3.5 13.1 7.9l119-190.3-230.3 62.3z"/>
	<path id="Layer" class="s1" d="m570.2 1080l104-84.7 1.5-356.5c0 0-7.5-19.2-143.1-42.9-28.7-5-49.9-12.1-50-12.1l-20.7-6 3 417.4z"/>
</svg>