<svg version="1.2" xmlns="http://www.w3.org/2000/svg" viewBox="0 0 192 192" width="24" height="24">
	<title>telegram-svg</title>
	<style>
		.s0 { fill: #000000 } 
	</style>
	<path fill-rule="evenodd" class="s0" d="m10.7 92.4q71.5-31.2 95.3-41.1c45.4-18.9 54.8-22.2 61-22.3 1.3 0 4.4 0.3 6.3 1.9 1.7 1.3 2.1 3.2 2.3 4.4 0.3 1.3 0.5 4.2 0.3 6.5-2.4 25.8-13.1 88.6-18.5 117.6-2.3 12.2-6.8 16.4-11.2 16.8-9.5 0.8-16.7-6.3-25.9-12.4-14.3-9.4-22.5-15.3-36.4-24.5-16.2-10.6-5.7-16.5 3.5-26 2.4-2.5 44.2-40.6 45-44.1 0.1-0.4 0.2-2-0.7-2.8-1-0.9-2.4-0.6-3.4-0.4q-2.2 0.5-69 45.6-9.8 6.8-17.7 6.6c-5.8-0.1-17.1-3.3-25.4-6-10.2-3.4-16.9-5.1-16.1-10.7q0.5-4.5 10.6-9.1z"/>
</svg>