<svg version="1.2" xmlns="http://www.w3.org/2000/svg" viewBox="0 0 24 24" width="24" height="24">
	<title>telegram-svg</title>
	<style>
		.s0 { fill: #000000 } 
	</style>
	<path id="path2" class="s0" d="m1.5 10.9c0 0 10.6-4.4 14.3-5.9 1.4-0.6 6.2-2.6 6.2-2.6 0 0 2.2-0.9 2 1.2-0.1 0.9-0.6 3.9-1.1 7.1-0.7 4.6-1.5 9.7-1.5 9.7 0 0-0.1 1.4-1.2 1.6-1 0.3-2.7-0.8-3-1.1-0.3-0.2-4.6-2.9-6.2-4.3-0.4-0.3-0.9-1.1 0-1.9 2.3-2.1 4.9-4.6 6.5-6.2 0.7-0.7 1.5-2.4-1.6-0.3-4.4 3-8.7 5.8-8.7 5.8 0 0-0.9 0.6-2.8 0-1.8-0.5-4-1.2-4-1.2 0 0-1.4-1 1.1-1.9z"/>
</svg>