<svg version="1.2" xmlns="http://www.w3.org/2000/svg" viewBox="0 0 1080 1080" width="24" height="24">
	<title>themed_google_icon_calendar_18-svg</title>
	<style>
		.s0 { opacity: .5;fill: #000000;stroke: #000000;stroke-width: 4.5 } 
		.s1 { fill: #000000;stroke: #000000;stroke-width: 4.5 } 
	</style>
	<g id="surface1">
		<path class="s0" d="m0.1 808.5q0-357.2 0-714.4c0-58.5 35.2-94 93.3-94q357.9 0 715.8 0.1c5.3 0 10.6 0.5 15.9 0.7q0.1 127.3 0.2 254.6-0.2 1-1.1 1.3c-4.9-0.4-9.7-1.1-14.5-1.1-179.2 0-358.4 0.1-537.6-0.4-13.9 0-16.8 4-16.7 17.2q0.4 179.2 0.5 551.6-175.8 0.3-255.3 0.4c-0.2-5.3-0.5-10.7-0.5-16z"/>
		<path class="s0" d="m255.8 824.1q380.8-0.1 567.8-0.2 0.5 0.6 1.2 0.9-0.1 126.5-0.3 253c-4.3 3.5-9.3 1.8-14 1.8q-184.8 0.1-554.6 0.1z"/>
		<path class="s0" d="m1078.8 256.1c0.3 4.8 0.8 9.6 0.8 14.5q0.1 270 0 539.9c0 4.7 1.6 9.8-1.9 14.1q-126.5 0.1-252.9 0.2-0.7-0.3-1.2-0.9c0.2-3.1 0.6-6.2 0.6-9.2q0-278.9 0-557.9 0.9-0.3 1.1-1.3c4.8 0.1 9.7 0.4 14.6 0.4q119.4 0.1 238.9 0.2z"/>
		<path class="s1" d="m1078.8 256.1q-119.5-0.1-238.9-0.2c-4.9 0-9.8-0.3-14.6-0.4q-0.1-127.3-0.2-254.6c57.7-0.1 115.4-1.9 173 0 48.5 1.5 81.5 38.9 81.6 87.5 0.2 52 0.1 103.9 0 155.8 0 3.9-0.6 7.9-0.9 11.9z"/>
		<path class="s1" d="m824.8 824.8q126.4-0.1 252.9-0.2c-1.6 2-3 4.3-4.8 6.1q-121.1 121.2-242.2 242.2c-1.9 1.8-4.1 3.3-6.2 4.9q0.2-126.5 0.3-253z"/>
		<path class="s1" d="m0.2 824.1h255.7v255.6h-170.5c-47 0-85.2-38.1-85.2-85.2z"/>
		<path class="s1" d="m400.1 450.1v260.3h51.7v-330.3h-36.7l-95.6 68.5 27 40.1z"/>
		<path fill-rule="evenodd" class="s1" d="m520.3 669.4q-15-22.7-15-50.3 0-27.5 14.7-48.5 14.8-21 38.4-33.1v-2.4q-18.3-11.6-29.9-30.2-11.6-18.6-11.6-39.8 0-26.1 13.3-47.4 13.3-21.2 36.9-33.3 23.7-12.1 53.6-12.1 30 0 53.9 12.1 23.9 12.1 37.4 33.3 13.6 21.3 13.6 47.4 0 21.2-11.9 39.8-11.8 18.6-30.2 30.2v2.4q23.7 12.1 38.4 33.1 14.8 21 14.8 48.5 0 27.6-15 50.3-15 22.7-41.3 35.7-26.3 13-59.7 13-32.8 0-59.1-13-26.3-13-41.3-35.7zm154.1-202.9q0-21.2-15.3-33.8-15.2-12.6-38.4-12.6-22.7 0-37.6 12.6-15 12.6-15 33.8 0 21.3 15 34.5 14.9 13.3 37.6 13.3 23.2 0 38.4-13.3 15.3-13.2 15.3-34.5zm10.1 148.3q0-23.7-18.4-38.7-18.3-14.9-45.4-14.9-27 0-44.9 14.9-17.8 15-17.8 38.7 0 24.1 17.8 39.3 17.9 15.3 44.9 15.3 27.1 0 45.4-15.3 18.4-15.2 18.4-39.3z"/>
	</g>
</svg>