<svg version="1.2" xmlns="http://www.w3.org/2000/svg" viewBox="0 0 400 400" width="24" height="24">
	<title>themed_icon_calendar_27-svg</title>
	<style>
		.s0 { fill: #040404 } 
	</style>
	<g id="svgg">
		<path id="path0" fill-rule="evenodd" class="s0" d="m71.7 0.1l23.9-0.1v5.1c0 10.4 10.2 26.2 20.3 31.4 26.6 13.8 56.7-1.6 61.1-31.3l0.8-5.2h44.4l0.8 5.2c4.4 29.7 34.5 45.1 61.1 31.3 10.1-5.2 20.3-21 20.3-31.4v-5.1h23.5c41.1 0 60 11.6 70.2 43.1 2.7 8.5 2.7 305.1 0 313.5-7 21.4-20.8 35.1-42 41.4-9.2 2.7-303 2.7-312.2 0-21.2-6.3-35-20-42-41.4-2.7-8.4-2.7-305 0-313.5 6.5-20.1 18.8-33 38.1-40.1 7.5-2.7 8.9-2.9 31.7-2.9zm9.4 156c-4 8.8-4.5 8.3 15.8 17.3 5.8 2.5 6.4 2.3 8.8-3 13.2-29.5 56.7-18.8 50.5 12.4-2.2 11.2-5.9 16.8-23.1 35.7-4.9 5.4-9.7 10.7-10.7 11.9-1 1.1-9.8 10.4-19.5 20.6-20.8 21.8-24.1 25.4-24.2 26.9-0.5 4.9-0.1 24.1 0.5 25.1 0.6 0.9 15.8 1.3 54.7 1.3h53.8l-0.3-13.2-0.3-13.2-35.1-0.5c-26.5-0.5-34.8-0.9-34.2-1.9 0.5-0.8 10-10.9 21.1-22.5 25.1-26.1 28.7-30.1 35.5-40.8 23.2-35.6 8.7-78.7-28.9-86.3-28.1-5.7-53.6 6.3-64.4 30.2zm239.6-26.4l-110.6-0.6v27h38.7c43.2 0 41.5-0.4 37 8.2-2.9 5.5-4.3 8.3-14.7 27.7-2.5 4.6-7.2 13.5-10.4 19.7-3.3 6.1-7.4 13.7-9.1 16.8-1.7 3.1-6.4 12.1-10.6 20.1-4.1 8-9.6 18.3-12.1 23-9.9 18.5-10.9 20.6-10.9 22.4 0 2 0.6 2.5 9.3 7.3 2.9 1.7 6.6 3.8 8.1 4.8 5.3 3.5 5.4 3.3 17.1-18.6 3.1-5.9 7.5-14.2 9.8-18.6 10.8-20.1 14.9-27.9 21.4-40.4 7-13.6 10.7-20.5 19.6-37 2.7-5 7.8-14.8 11.4-21.9l6.6-12.9-0.3-13.5z"/>
	</g>
</svg>