<svg version="1.2" xmlns="http://www.w3.org/2000/svg" viewBox="0 0 400 400" width="24" height="24">
	<title>themed_icon_calendar_22-svg</title>
	<style>
		.s0 { fill: #040404 } 
	</style>
	<g id="svgg">
		<path id="path0" fill-rule="evenodd" class="s0" d="m72.3 0.1l23.3-0.1v5.1c0 10.4 10.2 26.2 20.3 31.4 26.6 13.8 56.7-1.6 61.1-31.3l0.8-5.2h44.4l0.8 5.2c4.4 29.7 34.5 45.1 61.1 31.3 10.1-5.2 20.3-21 20.3-31.4v-5.1h22.8c42 0 61.5 12 70.9 43.8 2.7 9.1 2.7 303 0 312.1-6.4 21.7-20.4 35.6-42 42.1-9.2 2.7-303 2.7-312.2 0-21.6-6.5-35.6-20.4-42-42.1-2.7-9.1-2.7-303 0-312.1 6.3-21.3 19.5-34.7 40.9-41.7 5.1-1.6 10.3-2 29.5-2zm32.7 130.2c-10.3 5-25.1 20.5-25.1 26.2 0 0.9-0.6 2-1.2 2.4-2.2 1.4-1.2 7.1 1.4 7.9 1.4 0.5 4.8 1.8 7.6 3 2.8 1.3 6.7 3 8.8 3.9 4.2 1.9 6.7 1.3 7.6-1.6 7.3-22.8 37.9-26 49.6-5.1 1.6 2.9 1.9 18.5 0.4 21.4-0.6 1.1-1.9 3.8-3.1 6.2-3.4 6.8-11.8 16.5-49.9 56.9-7.8 8.4-16.3 17.4-18.9 20.2l-4.6 5v27.6l109.5-0.6 0.3-11.6c0.5-16.1 3.9-14.7-37-14.7-19.8 0-34.6-0.5-34.4-1 0.3-0.9 21.5-23.4 41.2-43.7 12.9-13.3 22.5-29.2 26-42.9 7.3-28-9.3-56.1-37.5-63.6-12.6-3.4-28.8-1.7-40.7 4.1zm107.3 24.3c-5.3 10.4-5.9 9.6 14.8 18.8 5.8 2.5 6.4 2.3 8.6-2.4 14-30.5 58.2-19.3 50.8 12.8-3 12.6-10.6 22.2-53.7 67.5-26.9 28.2-23.9 23.2-23.5 39l0.2 13.4 54.3 0.3 54.2 0.3-0.3-13.2-0.4-13.2-35.1-0.3c-20.6-0.2-35.1-0.7-34.8-1.3 0.2-0.6 9.3-10.4 20.3-21.8 26.1-27.1 33.2-35.3 37.4-42.9 7.8-14.2 8.7-16.5 10.5-28.1 1.3-8.1 0.4-18.9-2.2-24.9-3-7-4.1-9-6.7-12.6-6.9-9.6-17.6-16.8-29.9-20.1-25-6.8-52.4 5.4-64.5 28.7z"/>
	</g>
</svg>