<svg version="1.2" xmlns="http://www.w3.org/2000/svg" viewBox="0 0 400 400" width="24" height="24">
	<title>themed_icon_calendar_23-svg</title>
	<style>
		.s0 { fill: #050505 } 
	</style>
	<g id="svgg">
		<path id="path0" fill-rule="evenodd" class="s0" d="m71.7 0.1l23.9-0.1v5.1c0 10.4 10.3 26.2 20.3 31.4 8.8 4.6 28.8 7.1 30.8 3.9 0.4-0.6 1.7-1.1 2.9-1.1 10.2 0 25.1-18.4 27.4-34.1l0.8-5.2h44.4l0.8 5.2c2.3 15.7 17.2 34.1 27.4 34.1 1.2 0 2.5 0.5 2.9 1.1 2 3.2 22 0.7 30.8-3.9 10-5.2 20.3-21 20.3-31.4v-5.1h23.4c19.9 0 24.3 0.3 29.5 2.1 21.4 7.4 33.9 20 40.7 41 2.8 8.5 2.8 305 0 313.4-6.8 21.1-19.3 33.7-40.7 41.1-9.5 3.2-305.1 3.2-314.6 0-21.4-7.4-33.9-20-40.7-41.1-2.8-8.4-2.8-304.9 0-313.4 6.7-20.8 19.1-33.4 40.3-40.9 4.7-1.7 9.5-2 29.4-2.1zm140.7 154.1c-3.6 6.4-3.1 8.2 3 10.9 3 1.4 8.1 3.7 11.4 5.2 6.9 3.2 8.3 2.9 10.7-2.1 11.8-24.5 47.8-19.3 47.8 6.9 0 15.2-10.5 23.5-29.8 23.6-10.3 0-10.6 0.4-10.6 13.2 0 14.8 0.1 14.9 12.7 14.9 21.6 0 33.3 9.3 33.3 26.4 0 30.7-42.4 36.5-55.6 7.6-3.8-8.4-4.7-9.5-7-8.3-1.1 0.5-3.2 1.5-4.7 2.1-20.4 8.6-19.7 7.5-13.2 21.6 10.8 23.2 39.5 36.8 66.2 31.3 45.3-9.4 60.1-65.7 24.1-91.6-3.2-2.3-6-4.3-6.3-4.5-0.2-0.2 1-1.5 2.8-2.9 12.5-9.8 17.3-19.6 17.3-35.5 0-10.5-0.4-12.9-3.8-20.3-5.8-13-19.8-23.7-34.9-26.8-28-5.7-49.7 4-63.4 28.3zm-104-25.9c-0.5 0.4-1.6 0.8-2.5 0.8-2.6 0-15.5 9.7-19.9 15.1-7.4 9.1-12.3 21.9-8.3 21.9 0.5 0 4.7 1.8 9.3 3.9 13 6.1 13.7 6.1 16 1 5.7-12.5 12.8-17.5 25.2-17.6 26.8-0.1 34.7 25.5 15.5 49.9-5.2 6.7-6.8 8.4-30.2 33.6-2 2.1-10.7 11.4-19.4 20.6-19.7 20.6-18.9 19.1-18.5 34.1l0.4 12.1h108.8v-25.9l-35.1-0.2c-20.9-0.2-35-0.8-34.8-1.4 0.3-0.9 15.8-17.4 39.1-41.6 42.2-43.9 37.8-95.9-9.4-108.4-10.2-2.7-32.7-1.4-36.2 2.1z"/>
	</g>
</svg>