<svg version="1.2" xmlns="http://www.w3.org/2000/svg" viewBox="0 0 1080 1080" width="24" height="24">
	<title>themed_google_icon_calendar_23-svg</title>
	<style>
		.s0 { opacity: .5;fill: #000000;stroke: #000000;stroke-width: 4.5 } 
		.s1 { fill: #000000;stroke: #000000;stroke-width: 4.5 } 
	</style>
	<g id="surface1">
		<path class="s0" d="m0.1 808.5q0-357.2 0-714.4c0-58.5 35.2-94 93.3-94q357.9 0 715.8 0.1c5.3 0 10.6 0.5 15.9 0.7q0.1 127.3 0.2 254.6-0.2 1-1.1 1.3c-4.9-0.4-9.7-1.1-14.5-1.1-179.2 0-358.4 0.1-537.6-0.4-13.9 0-16.8 4-16.7 17.2q0.4 179.2 0.5 551.6-175.8 0.3-255.3 0.4c-0.2-5.3-0.5-10.7-0.5-16z"/>
		<path class="s0" d="m255.8 824.1q380.8-0.1 567.8-0.2 0.5 0.6 1.2 0.9-0.1 126.5-0.3 253c-4.3 3.5-9.3 1.8-14 1.8q-184.8 0.1-554.6 0.1z"/>
		<path class="s0" d="m1078.8 256.1c0.3 4.8 0.8 9.6 0.8 14.5q0.1 270 0 539.9c0 4.7 1.6 9.8-1.9 14.1q-126.5 0.1-252.9 0.2-0.7-0.3-1.2-0.9c0.2-3.1 0.6-6.2 0.6-9.2q0-278.9 0-557.9 0.9-0.3 1.1-1.3c4.8 0.1 9.7 0.4 14.6 0.4q119.4 0.1 238.9 0.2z"/>
		<path class="s1" d="m1078.8 256.1q-119.5-0.1-238.9-0.2c-4.9 0-9.8-0.3-14.6-0.4q-0.1-127.3-0.2-254.6c57.7-0.1 115.4-1.9 173 0 48.5 1.5 81.5 38.9 81.6 87.5 0.2 52 0.1 103.9 0 155.8 0 3.9-0.6 7.9-0.9 11.9z"/>
		<path class="s1" d="m824.8 824.8q126.4-0.1 252.9-0.2c-1.6 2-3 4.3-4.8 6.1q-121.1 121.2-242.2 242.2c-1.9 1.8-4.1 3.3-6.2 4.9q0.2-126.5 0.3-253z"/>
		<path class="s1" d="m0.2 824.1h255.7v255.6h-170.5c-47 0-85.2-38.1-85.2-85.2z"/>
		<path class="s1" d="m309.9 661.1v49.3h214.5v-47.3h-144.9l-1-1.5 88.4-88.8q53.1-52.2 53.1-104.8 0-26.1-13.2-47.9-13.3-21.7-37.5-34.7-24.1-13.1-56-13.1-29 0-51 11.6-21.9 11.6-35.2 28.5-13.3 16.9-18.1 34.3l46.8 19.3q4.8-17.8 19.1-31.1 14.3-13.3 37.4-13.3 25.6 0 40.4 14.2 14.7 14.3 14.7 33.6 0 18.8-7.7 32.8-7.8 14.1-29 36.3-22.7 25.1-120.8 122.6z"/>
		<path class="s1" d="m599.9 696.6q31.6 21.5 68.8 21.5 32.4 0 58-13 25.6-13 40.3-36 14.7-22.9 14.7-51.9 0-29-15.4-49.7-15.5-20.8-39.6-31v-2.4q18.3-9.6 30.9-28 12.5-18.3 12.5-44.4 0-25.1-13.3-45.7-13.2-20.5-36.9-32.1-23.7-11.6-53.6-11.6-40.6 0-66.7 21-26 21.1-35.7 48.6l47.8 19.8q5.8-17.4 18.9-29.2 13-11.9 35.2-11.9 22.2 0 37.2 12.3 15 12.4 15 32.2 0 23.1-16.5 35.9-16.4 12.8-40.5 12.8h-25.6v47.9h28.5q28 0 46.6 14.9 18.6 15 18.6 38.2 0 23.2-17.9 38.1-17.9 15-42.5 15-23.7 0-40.6-14-16.9-14-23.6-40.1l-48.3 19.8q12 41.6 43.7 63z"/>
	</g>
</svg>