<svg version="1.2" xmlns="http://www.w3.org/2000/svg" viewBox="0 0 400 400" width="24" height="24">
	<title>themed_icon_calendar_13-svg</title>
	<style>
		.s0 { fill: #040404 } 
	</style>
	<g id="svgg">
		<path id="path0" fill-rule="evenodd" class="s0" d="m71.6 0.1l23.9-0.1v5.1c0 10.4 10.2 26.2 20.3 31.4 26.6 13.8 56.7-1.6 61.1-31.3l0.8-5.2h44.4l0.8 5.2c4.4 29.7 34.4 45.1 61.1 31.3 10-5.2 20.3-21 20.3-31.4v-5.1h23.4c19.9 0 24.3 0.3 29.5 2.1 21.5 7.4 33 19 40.4 40.5 3.3 9.4 3.3 305.1 0 314.5-7.4 21.5-18.9 33.1-40.4 40.5-9.5 3.2-305.1 3.2-314.6 0-21.5-7.4-33.1-19-40.4-40.5-2-5.8-2.1-12.8-2.1-157.3 0-144.5 0.1-151.4 2.1-157.2 7.3-21.3 18.7-32.8 40-40.4 4.6-1.7 9.5-2 29.4-2.1zm125.6 153.1c-4.2 7.5-3.9 9.1 2.4 11.9 2.9 1.4 8 3.7 11.3 5.2 6.4 2.9 8.8 2.8 10-0.5 9.2-25.3 48.6-21.6 48.6 4.6 0 15.6-10.6 24.3-29.7 24.3-11.1 0-10.7-0.4-10.7 13.4 0 14.8-0.1 14.7 12.8 14.7 21.3 0 33.2 9.4 33.2 26.1 0 10.8-2.6 15.4-12.9 23-13 9.5-34.6 2-42.6-14.8-4.1-8.6-5.6-10.5-6.8-8.5-0.4 0.6-1.4 1.1-2.2 1.1-5.8 0-21 9.1-20.3 12.1 2.7 11.1 12.2 24.5 22.5 31.8 18.7 13.2 41.8 14.8 63 4.4 35.6-17.5 39.1-68.8 6.1-88.3-3.3-1.9-4.5-3.8-2.5-3.8 2 0 12.2-11.3 14.4-15.9 4.4-9.2 4.9-11.1 4.9-21 0-22.8-12.8-39.6-35.2-46.3-26.5-8-53 2.6-66.3 26.5zm-37.2-23.5l-10.6-0.2-10.7-0.2-19.2 14.8c-10.5 8.1-21.1 16.3-23.5 18.3l-4.4 3.5 2.2 4.3c9.8 19 13.8 20.8 23 10.6 0.3-0.3 3.7-3 7.6-5.9l7-5.4 0.6 134.2h28z"/>
	</g>
</svg>