<svg version="1.2" xmlns="http://www.w3.org/2000/svg" viewBox="0 0 400 400" width="24" height="24">
	<title>themed_icon_calendar_31-svg</title>
	<style>
		.s0 { fill: #0000 } 
	</style>
	<g id="svgg">
		<path id="path0" fill-rule="evenodd" class="s0" d="m71.7 0.1l23.9-0.1v5.1c0 10.4 10.3 26.2 20.3 31.4 26.6 13.8 56.7-1.6 61.1-31.3l0.8-5.2h44.4l0.8 5.2c4.5 29.9 34.4 45.1 61.4 31.2 9.8-5.1 20-21 20-31.3v-5.1h23.5c41 0 59.9 11.6 70.1 43.1 2.8 8.5 2.8 305 0 313.4-6.8 21.1-19.3 33.7-40.7 41.1-9.5 3.2-305.1 3.2-314.6 0-21.4-7.4-33.9-20-40.7-41.1-2.8-8.4-2.8-304.9 0-313.4 6.5-20.1 18.7-33 38-40.1 7.5-2.7 9-2.9 31.7-2.9zm26.8 153.2c-4.1 7.5-3.8 9 2.4 11.8 3 1.4 7.3 3.4 9.6 4.5 8.8 4.2 10.5 4 13-1.4 11.6-24.7 47.3-19.5 47.3 6.9 0 15.4-10.4 23.6-29.9 23.6-10.2 0-10.5 0.4-10.5 13.2 0 14.8 0.1 14.9 12.7 14.9 21.9 0 33.3 9.1 33.3 26.4 0 29.9-42.4 36.6-55.1 8.7-1.2-2.6-2.1-5.1-2.1-5.5 0-2.2-3.7-4.8-5.5-3.8-1 0.5-3.6 1.7-5.8 2.6-9.1 3.9-16.8 7.6-16.8 8 0 1.8 5.3 14.3 7.6 18 19.5 31 64.3 36.7 91.8 11.6 4.7-4.2 12.9-16.8 12.9-19.8 0-1.1 0.5-2.6 1.2-3.3 2-1.9 1.8-24.5-0.1-30-3.5-9.9-8.6-16.5-18.1-23.6l-6.3-4.7 6-5.8c27.7-26.8 14.1-71.4-24.3-79.6-27.3-5.8-50.3 4.1-63.3 27.3zm176.1-24.4c-2.4 0.5-9.5 5.5-27.5 19.4-6.4 5-13.8 10.6-16.2 12.4-7 5.3-7 5.6 0 16.7 7.7 12.2 10 12.1 23.5-0.4 1.3-1.1 3.7-2.9 5.4-3.9 1.7-1 3.1-2.3 3.1-3 0-0.6 0.5-0.4 1.1 0.5 0.7 1.1 1.1 27 1.1 67.7v65.9h13.9c13.5 0 13.9 0 14.6-2.5 1.1-4.1 0.8-169.6-0.4-171.4-0.9-1.6-13-2.4-18.6-1.4z"/>
	</g>
</svg>