<svg version="1.2" xmlns="http://www.w3.org/2000/svg" viewBox="0 0 400 400" width="24" height="24">
	<title>3-svg</title>
	<style>
		.s0 { fill: #060606 } 
	</style>
	<g id="svgg">
		<path id="path0" fill-rule="evenodd" class="s0" d="m72.7 0.2l21.8 0.2 0.9 6.3c3.6 27.6 33.4 43.2 58.8 31 11.8-5.7 22.9-22 22.9-33.6 0-4.1-0.1-4.1 22.9-4.1 23.4 0 22.9-0.1 22.9 4.7 0 10.5 9.5 25.2 20.4 31.5 26.5 15.4 57.1-0.5 61.6-31.9l0.6-3.9h23.5 23.6l7.3 2.5c19.2 6.8 31.6 19.7 38.2 40l1.7 5.4v304.5l-2 5.7c-4.2 11.7-10.3 21-17.7 27.3-1.7 1.4-3.3 2.8-3.5 3.1-1.2 1.7-10.5 6.3-18.4 9.1l-5.6 2h-305.2l-5.8-2c-20.7-7.4-33.1-19.9-39.4-39.7l-2-6.2v-303.8l2.4-7.3c6.7-20.6 22.9-35.3 44-39.9 3.2-0.7 10.2-1 26.1-0.9zm108.7 125.5c-6.6 2-10.8 3.6-12.1 4.7-0.6 0.5-1.9 1.2-2.8 1.5-4.7 1.4-18.4 17.5-21.2 25-2.3 5.9-1.5 6.6 16.6 14.3l5.8 2.4 1.8-1.4c1-0.7 2-2.1 2.3-3 7.5-24.5 47.8-19.8 47.9 5.6 0 15.6-10.6 23.9-30.4 23.9-10.7 0-10.7 0.1-10.7 14.3 0 13.8-0.6 13.2 12.1 13.7 7.7 0.4 11.7 0.9 15.4 2.1 24 7.6 26.5 37.3 4.1 48.4-7 3.4-24.3 2.8-27.4-1-0.5-0.5-1.3-1-1.8-1-1.9 0-8.8-8.6-11.4-14.1-4.7-10.2-3.8-9.9-14.7-5.2-15.9 6.8-16.2 7.1-13.6 14.1 10.9 28.5 38 43.8 68.4 38.5 3.5-0.7 6.7-1.5 7.1-1.8 0.3-0.4 1.2-0.7 1.8-0.7 1.9 0 13.1-6 16.8-9 27.5-22.4 26.8-63.6-1.6-81.9-5.4-3.6-5.7-2.1 2.1-10 25.8-26 15-65.6-21.2-78.2-7.8-2.7-25.8-3.3-33.3-1.2z"/>
	</g>
</svg>