<svg version="1.2" xmlns="http://www.w3.org/2000/svg" viewBox="0 0 400 400" width="24" height="24">
	<title>themed_icon_calendar_28-svg</title>
	<style>
		.s0 { fill: #000 } 
	</style>
	<g id="svgg">
		<path id="path0" fill-rule="evenodd" class="s0" d="m72.3 0.1l23.3-0.1v5.1c0 10.3 10.1 26.2 20 31.3 26.4 13.7 55.7-0.5 61.1-29.6l1.2-6.8h44.2l1.2 6.8c5.4 29.1 34.7 43.3 61.1 29.6 9.9-5.1 20-21 20-31.3v-5.1h22.8c41.8 0 61.9 12.4 70.9 43.7 2.7 9.3 2.7 303.2 0 312.2-6.4 21.7-20.4 35.6-42 42.1-9.2 2.7-303 2.7-312.2 0-21.6-6.5-35.6-20.4-42-42.1-2.7-9.1-2.7-303 0-312.1 6.3-21.3 19.5-34.7 40.9-41.7 5.1-1.6 10.3-2 29.5-2zm9.4 149.8c-8.3 13.2-8.2 14.5 1.2 18.7 4.2 1.8 9.2 4.1 11.2 5 5.4 2.4 6.5 2 9.1-3.9 8.9-20.6 35.8-22.8 47.9-4.1 3.1 4.9 2.9 19.7-0.4 26.1-2 4-12.6 18.9-14.6 20.5-0.4 0.3-3.7 3.9-7.4 7.9-3.7 4.1-14.1 15.2-23.1 24.7-9.1 9.6-19.6 20.7-23.3 24.7l-6.9 7.3 0.2 13.5 0.3 13.4h108.9v-25.8l-35.6-0.5-35.6-0.6 5.1-5.6c2.9-3.1 13.6-14.4 23.9-25.2 10.3-10.7 19.4-20.6 20.3-21.9 0.9-1.3 2.5-3.3 3.6-4.5 1.1-1.2 2.3-3.1 2.7-4.2 0.3-1.1 1.1-2.1 1.7-2.1 0.6 0 1-0.5 1-1.1 0-0.6 1.2-3 2.7-5.3 6.9-11 10.7-36.5 6.7-45.5-9.5-21.4-19-30.4-38.1-35.5-22.6-6.1-49.1 4.2-61.5 24zm167.6-23.6c-38.1 10.5-50 57.2-20.9 82.1l4 3.4-2.4 1.6c-37.2 24.3-28.2 78.4 15.5 92.6 17.7 5.8 44.7 1.4 58.1-9.4 6.9-5.6 16.6-18.3 16.6-21.8 0-0.8 0.4-2 0.9-2.6 0.5-0.5 1.6-4.6 2.3-9 3.1-17.7-4-34.9-19.3-46.9l-5.4-4.3 6.3-6.6c25.6-26.9 12.5-69.3-24.5-79.2-7.2-1.9-24.2-1.9-31.2 0.1zm38.3 38.5c9.6 20.1-9.1 39.3-31.7 32.5-20.1-5.9-20.1-38.6 0-43.7 13-3.3 27.2 1.7 31.7 11.2zm7.8 88c0 32.3-51.6 37.7-59.3 6.2-2.9-11.6 3.4-24.3 14.7-29.7 19.1-9.3 44.6 4.1 44.6 23.5z"/>
	</g>
</svg>