<svg version="1.2" xmlns="http://www.w3.org/2000/svg" viewBox="0 0 400 400" width="24" height="24">
	<title>themed_icon_calendar_12-svg</title>
	<style>
		.s0 { fill: #00000 } 
	</style>
	<g id="svgg">
		<path id="path0" fill-rule="evenodd" class="s0" d="m71.7 0.1l23.9-0.1v5.1c0 10.4 10.3 26.2 20.3 31.4 26.1 13.5 55.4-0.8 60.8-29.7l1.2-6.8h44.3l0.8 5.2c4.4 29.7 34.5 45.1 61.1 31.3 10-5.2 20.3-21 20.3-31.4v-5.1h23.4c19.9 0 24.3 0.3 29.5 2.1 21.4 7.4 33.9 20 40.7 41 2.8 8.5 2.8 305 0 313.4-6.8 21.1-19.3 33.7-40.7 41.1-9.5 3.2-305.1 3.2-314.6 0-21.4-7.4-33.9-20-40.7-41.1-2.8-8.4-2.8-304.9 0-313.4 6.7-20.8 19.1-33.4 40.3-40.9 4.7-1.7 9.5-2 29.4-2.1zm136.3 140.1c-8.9 8.9-17.2 25.9-12.5 25.9 0.6 0 4 1.4 7.6 3 13.8 6.3 14.1 6.4 15.9 5.2 1-0.6 2-2 2.2-3.1 4.2-21.4 38-24.3 49.2-4.2 1.7 3 1.9 20 0.3 21-0.6 0.4-1.1 1.5-1.1 2.4 0 1.8-4.7 9.3-9 14.4-3.7 4.4-22.4 25.2-25.2 28.2-1.3 1.3-8.6 9.1-16.3 17.3-7.7 8.2-16.4 17.5-19.4 20.6l-5.3 5.7v27.7l109.4-0.6 0.4-11.7c0.4-16.1 3.8-14.7-37-14.7-19 0-34.6-0.4-34.6-0.8 0-0.4 4.6-5.6 10.3-11.5 43.2-44.6 44.4-46.1 54.8-67.5 13.4-27.5-4.2-63.1-35.2-71.3-19.1-5.1-40.8 0.5-54.5 14zm-47.3-11.1h-11.1c-6.2 0-11.5 0.4-11.8 0.9-0.3 0.6-9.3 7.6-20 15.7-10.7 8.1-20.9 16-22.8 17.6l-3.3 2.7 2.1 3.7c1.1 2.1 3.1 5.5 4.3 7.7 6.6 11.6 11.1 12.4 18.8 3.4 0.3-0.4 3.4-2.7 6.8-5.1 3.4-2.4 6.5-4.9 7-5.6 0.4-0.6 0.8 28.7 0.8 65.1 0 36.4 0.5 66.9 1 67.7 0.6 1 4.3 1.3 14.3 1.1l13.3-0.3 0.3-87.3z"/>
	</g>
</svg>