<svg version="1.2" xmlns="http://www.w3.org/2000/svg" viewBox="0 0 1080 1080" width="24" height="24">
	<title>themed_google_icon_calendar_6-svg</title>
	<style>
		.s0 { opacity: .5;fill: #000000;stroke: #000000;stroke-width: 4.5 } 
		.s1 { fill: #000000;stroke: #000000;stroke-width: 4.5 } 
	</style>
	<g id="surface1">
		<path class="s0" d="m0.1 808.5q0-357.2 0-714.4c0-58.5 35.2-94 93.3-94q357.9 0 715.8 0.1c5.3 0 10.6 0.5 15.9 0.7q0.1 127.3 0.2 254.6-0.2 1-1.1 1.3c-4.9-0.4-9.7-1.1-14.5-1.1-179.2 0-358.4 0.1-537.6-0.4-13.9 0-16.8 4-16.7 17.2q0.4 179.2 0.5 551.6-175.8 0.3-255.3 0.4c-0.2-5.3-0.5-10.7-0.5-16z"/>
		<path class="s0" d="m255.8 824.1q380.8-0.1 567.8-0.2 0.5 0.6 1.2 0.9-0.1 126.5-0.3 253c-4.3 3.5-9.3 1.8-14 1.8q-184.8 0.1-554.6 0.1z"/>
		<path class="s0" d="m1078.8 256.1c0.3 4.8 0.8 9.6 0.8 14.5q0.1 270 0 539.9c0 4.7 1.6 9.8-1.9 14.1q-126.5 0.1-252.9 0.2-0.7-0.3-1.2-0.9c0.2-3.1 0.6-6.2 0.6-9.2q0-278.9 0-557.9 0.9-0.3 1.1-1.3c4.8 0.1 9.7 0.4 14.6 0.4q119.4 0.1 238.9 0.2z"/>
		<path class="s1" d="m1078.8 256.1q-119.5-0.1-238.9-0.2c-4.9 0-9.8-0.3-14.6-0.4q-0.1-127.3-0.2-254.6c57.7-0.1 115.4-1.9 173 0 48.5 1.5 81.5 38.9 81.6 87.5 0.2 52 0.1 103.9 0 155.8 0 3.9-0.6 7.9-0.9 11.9z"/>
		<path class="s1" d="m824.8 824.8q126.4-0.1 252.9-0.2c-1.6 2-3 4.3-4.8 6.1q-121.1 121.2-242.2 242.2c-1.9 1.8-4.1 3.3-6.2 4.9q0.2-126.5 0.3-253z"/>
		<path class="s1" d="m0.2 824.1h255.7v255.6h-170.5c-47 0-85.2-38.1-85.2-85.2z"/>
		<path fill-rule="evenodd" class="s1" d="m444.1 660.5q-14.5-26.1-14.5-55.5 0-28.5 11.3-54.4 11.4-25.8 33.1-57.2l83.6-122.2 40.5 28-75.3 106.3 1.4 1.9q15-8.2 34.3-8.2 25.1 0 48.8 14 23.7 14 38.4 38.4 14.7 24.4 14.7 54.8 0 30.4-15.9 56-15.9 25.6-42.3 40.6-26.3 15-56.7 15-33.8 0-60.4-15.7-26.5-15.7-41-41.8zm156-21.5q8.7-14.2 8.7-32.1 0-17.9-8.7-32.4-8.7-14.4-23.5-22.7-14.7-8.2-31.6-8.2-16.9 0-31.6 8.2-14.8 8.3-23.5 22.7-8.6 14.5-8.6 32.4 0 17.9 8.6 32.1 8.7 14.3 23.5 22.5 14.7 8.2 31.6 8.2 16.9 0 31.6-8.2 14.8-8.2 23.5-22.5z"/>
	</g>
</svg>