<svg version="1.2" xmlns="http://www.w3.org/2000/svg" viewBox="0 0 400 400" width="24" height="24">
	<title>themed_icon_calendar_10-svg</title>
	<style>
		.s0 { fill: #040404 } 
	</style>
	<g id="svgg">
		<path id="path0" fill-rule="evenodd" class="s0" d="m71.7 0.1l23.9-0.1v5.1c0 10.4 10.3 26.2 20.3 31.4 26.6 13.8 56.7-1.6 61.1-31.3l0.8-5.2h44.4l0.8 5.2c4.4 29.7 34.5 45.1 61.1 31.3 10-5.2 20.3-21 20.3-31.4v-5.1h23.4c19.9 0 24.3 0.3 29.5 2.1 21.4 7.4 33.9 20 40.7 41 2.8 8.5 2.8 305 0 313.4-6.8 21.1-19.3 33.7-40.7 41.1-9.5 3.2-305.1 3.2-314.6 0-21.4-7.4-33.9-20-40.7-41.1-2.8-8.4-2.8-304.9 0-313.4 6.7-20.8 19.1-33.4 40.3-40.9 4.7-1.7 9.5-2 29.4-2.1zm140.6 135.7c-1.5 1.4-3.8 3.3-5 4.4-25.4 20.7-36.9 82.3-21.9 117.4 0.5 1.3 2 5.2 3.4 8.7 11.1 28.9 43.1 47.6 70.8 41.4 20.1-4.5 36-17.9 45.9-38.7 19.6-41.2 13.1-98.3-14.5-126.4-5.9-5.9-16.8-13.5-19.6-13.5-0.9 0-1.9-0.4-2.3-1-0.3-0.5-2.5-1.3-4.8-1.8-20.9-4.1-40.6-0.5-52 9.5zm-93.3-0.9c-14.9 10.8-38.5 29.2-39.3 30.4-1.5 2.4 10.4 22.2 13.3 22.2 1.4 0 11.9-6.8 13.8-9 1.3-1.5 10.6-7.9 11.5-7.9 0.5 0 0.9 30.1 0.9 66.8v66.8h13.4c12.1 0 13.5-0.2 14.6-2.1 1.5-2.8 1.6-169.5 0.1-171.8-3.1-4.9-18.9-2.3-28.3 4.6zm168.6 82c0 12.8-0.6 17-4.2 30.1-13.5 48.8-60.8 43-73.4-9-2.9-12-1.2-48 2.5-52.2 0.5-0.5 1-1.9 1-2.9 0-9.9 17.5-27.9 28.6-29.5 27.1-3.9 45.5 21.9 45.5 63.5z"/>
	</g>
</svg>