<svg version="1.2" xmlns="http://www.w3.org/2000/svg" viewBox="0 0 1080 1080" width="24" height="24">
	<title>themed_google_icon_calendar_29-svg</title>
	<style>
		.s0 { opacity: .5;fill: #000000;stroke: #000000;stroke-width: 4.5 } 
		.s1 { fill: #000000;stroke: #000000;stroke-width: 4.5 } 
	</style>
	<g id="surface1">
		<path class="s0" d="m0.1 808.5q0-357.2 0-714.4c0-58.5 35.2-94 93.3-94q357.9 0 715.8 0.1c5.3 0 10.6 0.5 15.9 0.7q0.1 127.3 0.2 254.6-0.2 1-1.1 1.3c-4.9-0.4-9.7-1.1-14.5-1.1-179.2 0-358.4 0.1-537.6-0.4-13.9 0-16.8 4-16.7 17.2q0.4 179.2 0.5 551.6-175.8 0.3-255.3 0.4c-0.2-5.3-0.5-10.7-0.5-16z"/>
		<path class="s0" d="m255.8 824.1q380.8-0.1 567.8-0.2 0.5 0.6 1.2 0.9-0.1 126.5-0.3 253c-4.3 3.5-9.3 1.8-14 1.8q-184.8 0.1-554.6 0.1z"/>
		<path class="s0" d="m1078.8 256.1c0.3 4.8 0.8 9.6 0.8 14.5q0.1 270 0 539.9c0 4.7 1.6 9.8-1.9 14.1q-126.5 0.1-252.9 0.2-0.7-0.3-1.2-0.9c0.2-3.1 0.6-6.2 0.6-9.2q0-278.9 0-557.9 0.9-0.3 1.1-1.3c4.8 0.1 9.7 0.4 14.6 0.4q119.4 0.1 238.9 0.2z"/>
		<path class="s1" d="m1078.8 256.1q-119.5-0.1-238.9-0.2c-4.9 0-9.8-0.3-14.6-0.4q-0.1-127.3-0.2-254.6c57.7-0.1 115.4-1.9 173 0 48.5 1.5 81.5 38.9 81.6 87.5 0.2 52 0.1 103.9 0 155.8 0 3.9-0.6 7.9-0.9 11.9z"/>
		<path class="s1" d="m824.8 824.8q126.4-0.1 252.9-0.2c-1.6 2-3 4.3-4.8 6.1q-121.1 121.2-242.2 242.2c-1.9 1.8-4.1 3.3-6.2 4.9q0.2-126.5 0.3-253z"/>
		<path class="s1" d="m0.2 824.1h255.7v255.6h-170.5c-47 0-85.2-38.1-85.2-85.2z"/>
		<path class="s1" d="m306.1 661.1v49.3h214.4v-47.3h-144.9l-0.9-1.5 88.3-88.8q53.2-52.2 53.2-104.8 0-26.1-13.3-47.9-13.3-21.7-37.4-34.7-24.2-13.1-56.1-13.1-28.9 0-50.9 11.6-22 11.6-35.3 28.5-13.3 16.9-18.1 34.3l46.9 19.3q4.8-17.8 19-31.1 14.3-13.3 37.5-13.3 25.6 0 40.3 14.2 14.7 14.3 14.7 33.6 0 18.8-7.7 32.8-7.7 14.1-29 36.3-22.7 25.1-120.7 122.6z"/>
		<path fill-rule="evenodd" class="s1" d="m692.4 584.8l-1.5-1.9q-14.9 8.2-34.3 8.2-25.1 0-48.7-14-23.7-14-38.4-38.4-14.8-24.4-14.8-54.8 0-30.4 15.7-56 15.7-25.6 42-40.6 26.4-15 56.8-15 34.3 0 60.8 15.7 26.6 15.7 41.1 41.8 14.5 26.1 14.5 55.5 0 28.5-11.4 53.9-11.3 25.4-33.1 57.7l-83.5 122.2-40.6-28zm32.6-69.1q9-14.5 9-32.3 0-17.9-8.7-32.2-8.7-14.2-23.5-22.4-14.7-8.2-32.1-8.2-16.9 0-31.4 8.2-14.5 8.2-23.2 22.4-8.6 14.3-8.6 32.2 0 17.8 8.6 32.3 8.7 14.5 23.2 22.7 14.5 8.2 31.4 8.2 16.9 0 31.7-8.2 14.7-8.2 23.6-22.7z"/>
	</g>
</svg>