<svg version="1.2" xmlns="http://www.w3.org/2000/svg" viewBox="0 0 1080 1080" width="24" height="24">
	<title>themed_google_icon_calendar_30-svg</title>
	<style>
		.s0 { opacity: .5;fill: #000000;stroke: #000000;stroke-width: 4.5 } 
		.s1 { fill: #000000;stroke: #000000;stroke-width: 4.5 } 
	</style>
	<g id="surface1">
		<path class="s0" d="m0.1 808.5q0-357.2 0-714.4c0-58.5 35.2-94 93.3-94q357.9 0 715.8 0.1c5.3 0 10.6 0.5 15.9 0.7q0.1 127.3 0.2 254.6-0.2 1-1.1 1.3c-4.9-0.4-9.7-1.1-14.5-1.1-179.2 0-358.4 0.1-537.6-0.4-13.9 0-16.8 4-16.7 17.2q0.4 179.2 0.5 551.6-175.8 0.3-255.3 0.4c-0.2-5.3-0.5-10.7-0.5-16z"/>
		<path class="s0" d="m255.8 824.1q380.8-0.1 567.8-0.2 0.5 0.6 1.2 0.9-0.1 126.5-0.3 253c-4.3 3.5-9.3 1.8-14 1.8q-184.8 0.1-554.6 0.1z"/>
		<path class="s0" d="m1078.8 256.1c0.3 4.8 0.8 9.6 0.8 14.5q0.1 270 0 539.9c0 4.7 1.6 9.8-1.9 14.1q-126.5 0.1-252.9 0.2-0.7-0.3-1.2-0.9c0.2-3.1 0.6-6.2 0.6-9.2q0-278.9 0-557.9 0.9-0.3 1.1-1.3c4.8 0.1 9.7 0.4 14.6 0.4q119.4 0.1 238.9 0.2z"/>
		<path class="s1" d="m1078.8 256.1q-119.5-0.1-238.9-0.2c-4.9 0-9.8-0.3-14.6-0.4q-0.1-127.3-0.2-254.6c57.7-0.1 115.4-1.9 173 0 48.5 1.5 81.5 38.9 81.6 87.5 0.2 52 0.1 103.9 0 155.8 0 3.9-0.6 7.9-0.9 11.9z"/>
		<path class="s1" d="m824.8 824.8q126.4-0.1 252.9-0.2c-1.6 2-3 4.3-4.8 6.1q-121.1 121.2-242.2 242.2c-1.9 1.8-4.1 3.3-6.2 4.9q0.2-126.5 0.3-253z"/>
		<path class="s1" d="m0.2 824.1h255.7v255.6h-170.5c-47 0-85.2-38.1-85.2-85.2z"/>
		<path class="s1" d="m321.3 696.6q31.6 21.5 68.8 21.5 32.4 0 58-13 25.6-13 40.3-36 14.7-22.9 14.7-51.9 0-29-15.4-49.7-15.5-20.8-39.6-31v-2.4q18.3-9.6 30.9-28 12.5-18.3 12.5-44.4 0-25.1-13.2-45.7-13.3-20.5-37-32.1-23.7-11.6-53.6-11.6-40.6 0-66.7 21-26 21.1-35.7 48.6l47.8 19.8q5.8-17.4 18.9-29.2 13-11.9 35.2-11.9 22.2 0 37.2 12.3 15 12.4 15 32.2 0 23.1-16.4 35.9-16.5 12.8-40.6 12.8h-25.6v47.9h28.5q28 0 46.6 14.9 18.6 15 18.6 38.2 0 23.2-17.9 38.1-17.9 15-42.5 15-23.6 0-40.6-14-16.9-14-23.6-40.1l-48.3 19.8q12.1 41.6 43.7 63z"/>
		<path fill-rule="evenodd" class="s1" d="m554.5 633.4q-16.7-39.4-16.7-88.2 0-48.7 16.7-88.1 16.6-39.4 47.3-62.1 30.7-22.7 71.2-22.7 40.1 0 70.8 22.7 30.7 22.7 47.6 62.1 16.9 39.4 16.9 88.1 0 48.3-16.9 87.9-16.9 39.6-47.6 62.3-30.7 22.7-70.8 22.7-40.5 0-71.2-22.7-30.7-22.7-47.3-62zm191-24.9q10.1-28 10.1-63.3 0-35.2-10.1-63.5-10.1-28.2-28.7-44.2-18.6-15.9-43.8-15.9-25.1 0-43.9 15.9-18.8 16-29 44.2-10.1 28.3-10.1 63.5 0 35.3 10.1 63.3 10.2 28 29 44.2 18.8 16.2 43.9 16.2 25.2 0 43.8-16.2 18.6-16.2 28.7-44.2z"/>
	</g>
</svg>