<svg version="1.2" xmlns="http://www.w3.org/2000/svg" viewBox="0 0 1080 1080" width="24" height="24">
	<title>themed_google_icon_calendar_7-svg</title>
	<style>
		.s0 { opacity: .5;fill: #000000;stroke: #000000;stroke-width: 4.5 } 
		.s1 { fill: #000000;stroke: #000000;stroke-width: 4.5 } 
	</style>
	<g id="surface1">
		<path class="s0" d="m0.1 808.5q0-357.2 0-714.4c0-58.5 35.2-94 93.3-94q357.9 0 715.8 0.1c5.3 0 10.6 0.5 15.9 0.7q0.1 127.3 0.2 254.6-0.2 1-1.1 1.3c-4.9-0.4-9.7-1.1-14.5-1.1-179.2 0-358.4 0.1-537.6-0.4-13.9 0-16.8 4-16.7 17.2q0.4 179.2 0.5 551.6-175.8 0.3-255.3 0.4c-0.2-5.3-0.5-10.7-0.5-16z"/>
		<path class="s0" d="m255.8 824.1q380.8-0.1 567.8-0.2 0.5 0.6 1.2 0.9-0.1 126.5-0.3 253c-4.3 3.5-9.3 1.8-14 1.8q-184.8 0.1-554.6 0.1z"/>
		<path class="s0" d="m1078.8 256.1c0.3 4.8 0.8 9.6 0.8 14.5q0.1 270 0 539.9c0 4.7 1.6 9.8-1.9 14.1q-126.5 0.1-252.9 0.2-0.7-0.3-1.2-0.9c0.2-3.1 0.6-6.2 0.6-9.2q0-278.9 0-557.9 0.9-0.3 1.1-1.3c4.8 0.1 9.7 0.4 14.6 0.4q119.4 0.1 238.9 0.2z"/>
		<path class="s1" d="m1078.8 256.1q-119.5-0.1-238.9-0.2c-4.9 0-9.8-0.3-14.6-0.4q-0.1-127.3-0.2-254.6c57.7-0.1 115.4-1.9 173 0 48.5 1.5 81.5 38.9 81.6 87.5 0.2 52 0.1 103.9 0 155.8 0 3.9-0.6 7.9-0.9 11.9z"/>
		<path class="s1" d="m824.8 824.8q126.4-0.1 252.9-0.2c-1.6 2-3 4.3-4.8 6.1q-121.1 121.2-242.2 242.2c-1.9 1.8-4.1 3.3-6.2 4.9q0.2-126.5 0.3-253z"/>
		<path class="s1" d="m0.2 824.1h255.7v255.6h-170.5c-47 0-85.2-38.1-85.2-85.2z"/>
		<path class="s1" d="m451.6 694l44.5 24.1 158.4-285.9v-52.1h-218.8v49.2h160.8l1 1.5z"/>
	</g>
</svg>