<svg version="1.2" xmlns="http://www.w3.org/2000/svg" viewBox="0 0 400 400" width="24" height="24">
	<title>themed_icon_calendar_18-svg</title>
	<style>
		.s0 { fill: #0000 } 
	</style>
	<g id="svgg">
		<path id="path0" fill-rule="evenodd" class="s0" d="m71.6 0.1l23.9-0.1v5.1c0 10.4 10.2 26.2 20.3 31.4 26.6 13.8 56.7-1.6 61.1-31.3l0.8-5.2h44.4l0.8 5.2c4.4 29.9 34.4 45.1 61.4 31.2 9.8-5.1 20-21 20-31.3v-5.1h23.4c19.9 0 24.3 0.3 29.5 2.1 21.5 7.4 33 19 40.4 40.5 3.3 9.4 3.3 305.1 0 314.5-7.4 21.5-18.9 33.1-40.4 40.5-9.5 3.2-305.1 3.2-314.6 0-21.5-7.4-33.1-19-40.4-40.5-2-5.8-2.1-12.8-2.1-157.3 0-144.5 0.1-151.4 2.1-157.2 7.3-21.3 18.7-32.8 40-40.4 4.6-1.7 9.5-2 29.4-2.1zm136.9 205.3l6 6.2-3.6 2.8c-35.3 27.1-27.4 73.8 15.4 91 15 6.1 39.8 3.6 54.4-5.4 32.4-20.1 34.9-64 4.8-84.6l-5-3.4 6.3-6.1c18.9-18.5 18.7-47.8-0.4-66.7-7-6.9-13.4-10.4-24.3-13.3-50.6-13.7-89 43.4-53.6 79.5zm-50.1-76.3h-21l-7.8 5.9c-4.2 3.3-13 10-19.5 14.9-6.5 4.9-12.6 9.6-13.5 10.3-0.9 0.7-2.9 2.3-4.4 3.5-2.5 1.9-2.6 2.5-1.5 4.8 3.7 7.4 11.4 18.5 13.1 18.8 1.8 0.3 23-14.7 24.2-17.2 0.3-0.6 0.9 29.2 1.2 66.2l0.5 67.4 28.7 0.6zm113.7 46c0 20.6-23.3 31.1-40.5 18.3-14.1-10.5-9.1-36.8 7.7-39.9 19.9-3.8 32.8 4.7 32.8 21.6zm-2.3 97.1c-6.9 6.4-30.6 10.8-33.4 6.2-0.4-0.6-1.5-1.1-2.4-1.1-7.5 0-15.4-12.5-15.5-24.3 0-11.9 3.4-17.2 15.5-23.7 27.9-15.1 58.6 21.7 35.8 42.9z"/>
	</g>
</svg>