<svg version="1.2" xmlns="http://www.w3.org/2000/svg" viewBox="0 0 400 400" width="24" height="24">
	<title>4-svg</title>
	<style>
		.s0 { fill: #0000 } 
	</style>
	<g id="svgg">
		<path id="path0" fill-rule="evenodd" class="s0" d="m70.5 0.1l25-0.1v4.8c0.1 18.9 19.7 36.8 40.4 36.8 21.3 0 41.6-20.1 41.6-41.2 0-0.2 10.1-0.4 22.5-0.4 12.4 0 22.5 0.2 22.5 0.4 0 21.1 20.3 41.2 41.6 41.2 20.7 0 40.3-17.9 40.4-36.8v-4.8h24.3c15.2 0 25.9 0.5 28.4 1.3 20.6 6.6 34.8 20.8 41.5 41.5 1.8 5.7 1.8 308.6 0 314.3-6.7 20.7-20.9 34.9-41.5 41.5-5.7 1.9-308.7 1.9-314.4 0-20.6-6.6-34.8-20.8-41.5-41.5-1.8-5.7-1.8-308.6 0-314.3 6.6-20.4 20.3-34.3 40.9-41.4 1.9-0.6 14.4-1.2 28.3-1.3zm139.4 129.4c-1.3 1-64 98.1-70 108.4-0.6 1.1-2.3 3.8-3.6 6-2.1 3.4-2.6 5.7-2.6 13.3 0 14.8-3.8 13.5 40.5 13.5h38.2v33.8l13.7-0.3 13.8-0.3 0.3-16.6 0.3-16.6h9.5c11.6 0 11.8-0.2 11.8-15 0-13.7-0.5-14.2-12.5-14.2h-8.9v-55.4c0-41.5-0.3-55.7-1.3-56.7-1.9-1.9-26.8-1.8-29.2 0.1zm2.1 43.5c0.2 0 0.4 15.4 0.4 34.3v34.2h-21.9c-12.1 0-22-0.3-22-0.6 0-1.1 5.7-10.9 8.5-14.5 1.5-2 2.8-4 2.8-4.5 0-0.5 1.7-3.3 3.9-6.2 2.2-3 3.9-5.9 3.9-6.5 0-0.7 0.4-1.4 0.9-1.6 1.2-0.5 7-9.6 7-10.9 0-0.6 0.4-1.2 0.8-1.4 1-0.5 9.3-12.9 9.3-13.9 0-0.4 0.6-1.4 1.4-2.2 0.8-0.8 2.2-2.5 3.1-3.8 0.9-1.3 1.8-2.4 1.9-2.4z"/>
	</g>
</svg>