<svg version="1.2" xmlns="http://www.w3.org/2000/svg" viewBox="0 0 400 400" width="24" height="24">
	<title>themed_icon_calendar_19-svg</title>
	<style>
		.s0 { fill: #0000 } 
	</style>
	<g id="svgg">
		<path id="path0" fill-rule="evenodd" class="s0" d="m71.7 0.1l23.9-0.1v5.1c0 10.4 10.2 26.2 20.3 31.4 26.6 13.8 56.7-1.6 61.1-31.3l0.8-5.2h44.4l0.8 5.2c4.6 31 37.2 46.2 63.9 29.7 8.8-5.5 17.5-20.3 17.5-29.8v-5.1h23.4c19.9 0 24.4 0.3 29.5 2.1 21.7 7.4 34.9 20.9 40.8 41.6 2.7 9.4 2.7 304.6 0 312.9-7 21.4-20.8 35.1-42 41.4-9.2 2.7-303 2.7-312.2 0-21.2-6.3-35-20-42-41.4-2.7-8.4-2.7-305 0-313.5 6.8-20.8 19.1-33.4 40.3-40.9 4.7-1.7 9.6-2 29.5-2.1zm172.7 124.3c-6.1 0.5-16.4 2.8-17 3.8-0.3 0.5-1.3 0.9-2.2 0.9-10.8 0-30.4 24.1-34.7 42.7-9.2 39.5 28.3 79.8 63.3 67.9 2.2-0.7 1.1 1.5-6.5 12.5-5 7.3-9.6 14.1-10.2 15-0.6 1-4.7 6.9-9 13.3-9.5 13.9-9.5 12.4-0.3 18.8 4.2 3 8.6 6.3 9.9 7.5 3.8 3.3 5.2 1.8 19.7-20.8 7.5-11.9 15.4-23.9 17.4-26.8 2.1-2.8 3.8-5.5 3.8-6 0-0.4 1.8-3.2 3.9-6.2 2.2-2.9 4-5.9 4-6.6 0-0.7 0.3-1.2 0.8-1.2 0.5 0 1.4-1.2 2.1-2.6 0.7-1.3 3.7-7.3 6.8-13.1 21.6-41.5 6.4-87.2-32.2-97.2-4.4-1.1-15.9-2.3-19.6-1.9zm-104.5 4.4c-2.4 0.7-7.8 4.5-28 20-7.3 5.5-14.8 11.2-16.7 12.6-5.9 4.3-5.8 5 1 16 8 12.8 6.2 13.1 28-3.5l4.5-3.4 0.6 65.5c0.3 36 0.9 66.1 1.4 66.9 0.7 1 4.9 1.4 14.3 1.4h13.5v-174.9l-3.6-0.7c-3.9-0.8-11.6-0.7-15 0.1zm129.5 33.4c22.8 24.7-3.1 63.4-33.8 50.6-25.9-10.8-22.1-52.5 5.4-59.4 9.5-2.4 21.6 1.3 28.4 8.8z"/>
	</g>
</svg>