<svg version="1.2" xmlns="http://www.w3.org/2000/svg" viewBox="0 0 1080 1080" width="24" height="24">
	<title>themed_google_icon_calendar_9-svg</title>
	<style>
		.s0 { opacity: .5;fill: #000000;stroke: #000000;stroke-width: 4.5 } 
		.s1 { fill: #000000;stroke: #000000;stroke-width: 4.5 } 
	</style>
	<g id="surface1">
		<path class="s0" d="m0 808.6q0-357.3 0-714.5c0-58.6 35.2-94 93.3-94q358 0 715.9 0c5.3 0 10.6 0.5 15.9 0.8q0.1 127.3 0.2 254.6-0.2 1-1.1 1.3c-4.9-0.4-9.7-1.1-14.5-1.1-179.2 0-358.4 0.1-537.7-0.4-13.8 0-16.7 4-16.7 17.2q0.4 179.2 0.5 551.6-175.8 0.4-255.3 0.4c-0.2-5.3-0.5-10.6-0.5-15.9z"/>
		<path class="s0" d="m255.8 824.2q380.8-0.1 567.8-0.2 0.5 0.6 1.2 0.9-0.1 126.5-0.3 253c-4.2 3.5-9.3 1.8-14 1.8q-184.8 0.1-554.7 0.2z"/>
		<path class="s0" d="m1078.8 256.1c0.3 4.8 0.9 9.7 0.9 14.5q0 270-0.1 540c0 4.7 1.7 9.8-1.9 14.1q-126.4 0.1-252.9 0.2-0.7-0.3-1.2-0.9c0.2-3.1 0.6-6.2 0.6-9.3q0-278.9 0-557.9 0.9-0.3 1.1-1.3c4.9 0.1 9.7 0.4 14.6 0.4q119.4 0.1 238.9 0.2z"/>
		<path class="s1" d="m1078.8 256.1q-119.5-0.1-238.9-0.2c-4.9 0-9.7-0.3-14.6-0.4q-0.1-127.3-0.2-254.6c57.7-0.2 115.4-2 173-0.1 48.6 1.6 81.5 39 81.7 87.6 0.1 51.9 0 103.9 0 155.8-0.1 3.9-0.7 7.9-1 11.9z"/>
		<path class="s1" d="m824.8 824.9q126.5-0.1 252.9-0.2c-1.6 2-3 4.3-4.8 6.1q-121.1 121.2-242.2 242.2c-1.9 1.8-4.1 3.3-6.2 4.9q0.2-126.5 0.3-253z"/>
		<path class="s1" d="m0.1 824.1h255.7v255.8h-170.5c-47 0-85.2-38.2-85.2-85.3z"/>
		<path fill-rule="evenodd" class="s1" d="m567.3 584.9l-1.5-1.9q-14.9 8.2-34.2 8.2-25.2 0-48.8-14-23.7-14.1-38.4-38.4-14.8-24.4-14.8-54.9 0-30.4 15.7-56 15.7-25.6 42.1-40.6 26.3-15 56.7-15 34.3 0 60.9 15.7 26.5 15.7 41 41.8 14.5 26.1 14.5 55.6 0 28.5-11.3 53.8-11.4 25.4-33.1 57.8l-83.6 122.2-40.6-28zm32.7-69.1q8.9-14.5 8.9-32.4 0-17.9-8.7-32.1-8.7-14.3-23.4-22.5-14.8-8.2-32.2-8.2-16.9 0-31.4 8.2-14.4 8.2-23.1 22.5-8.7 14.2-8.7 32.1 0 17.9 8.7 32.4 8.7 14.5 23.1 22.7 14.5 8.2 31.4 8.2 16.9 0 31.7-8.2 14.7-8.2 23.7-22.7z"/>
	</g>
</svg>