<svg version="1.2" xmlns="http://www.w3.org/2000/svg" viewBox="0 0 400 400" width="24" height="24">
	<title>1-svg</title>
	<style>
		.s0 { fill: #0000 } 
	</style>
	<g id="svgg">
		<path id="path0" fill-rule="evenodd" class="s0" d="m71.8 0.2l23.8-0.1v5.1c0 9.6 8.7 24.4 17.6 29.8 26.6 16.5 59.2 1.4 63.8-29.7l0.8-5.2h44.4l0.8 5.2c4.6 31.1 37.2 46.2 63.8 29.7 8.9-5.4 17.6-20.2 17.6-29.8v-5.1h23.3c19.9 0 24.4 0.4 29.5 2.1 21.4 7.4 33.9 20 40.8 41.1 2.7 8.4 2.7 304.8 0 313.2-6.9 21.1-19.4 33.7-40.8 41-9.4 3.3-305 3.3-314.4 0-21.4-7.3-33.9-19.9-40.8-41-2.7-8.4-2.7-304.8 0-313.2 6.8-20.9 19.1-33.4 40.3-41 4.7-1.7 9.6-2 29.5-2.1zm137.1 128.8c-1.5 0.1-8.2 4.4-14.7 9.5-6.6 5.1-16.8 12.7-22.7 17.1-13.6 9.9-13.7 10.3-6.1 22.3 7.4 11.8 7.1 11.8 21.4 0.7l11.5-8.9 0.6 67 0.5 67 13.6 0.3c13.4 0.3 13.7 0.3 14.3-2.2 1-3.7 0.9-169.5-0.1-171.1-0.8-1.3-12.6-2.4-18.3-1.7z"/>
	</g>
</svg>