<svg version="1.2" xmlns="http://www.w3.org/2000/svg" viewBox="0 0 400 400" width="24" height="24">
	<title>themed_icon_calendar_7-svg</title>
	<style>
		.s0 { fill: #00000 } 
	</style>
	<g id="svgg">
		<path id="path0" fill-rule="evenodd" class="s0" d="m71.7 0.1l23.9-0.1v5.1c0 10.3 10.1 26.2 20 31.3 26.9 13.9 56.9-1.3 61.4-31.2l0.8-5.2h44.4l0.8 5.2c4.5 29.9 34.5 45.1 61.4 31.2 9.9-5.1 20-21 20-31.3v-5.1h23.4c19.9 0 24.3 0.3 29.5 2.1 21.4 7.4 34 20 40.8 41 2.7 8.5 2.7 305.1 0 313.5-7 21.4-20.8 35.1-42 41.4-9.2 2.7-303 2.7-312.2 0-21.2-6.3-35-20-42-41.4-2.7-8.4-2.7-305 0-313.5 6.8-20.8 19.1-33.4 40.3-40.9 4.7-1.7 9.6-2 29.5-2.1zm180.2 129.4c-1-0.5-26.1-0.8-55.5-0.6l-53.7 0.3v26.9h38.7c25.3 0 38.9 0.4 39.4 1.1 0.7 1.2-1 5-9.5 20.8-2.7 4.9-8.1 15.2-12.1 22.9-3.9 7.6-8.6 16.5-10.3 19.6-1.8 3.2-5.9 10.8-9.1 17-3.3 6.2-7.3 13.7-9 16.8-1.7 3.1-5.7 10.7-9 16.9-3.2 6.2-7.1 13.4-8.5 16-3.2 5.8-3.4 8.3-0.7 9.9 3 1.9 12.8 7.4 16.4 9.2 5.4 2.8 5 3.3 23.1-31.8 4.2-8 9.4-17.8 11.5-21.8 4.1-7.8 11.7-21.9 19.2-36 2.4-4.6 7.5-14.2 11.2-21.3 3.7-7.1 8.9-17 11.6-22.1 2.7-5 5.7-10.5 6.6-12.3 1.2-2.4 1.7-7 1.7-16.9 0-12-0.2-13.9-2-14.6z"/>
	</g>
</svg>