<svg version="1.2" xmlns="http://www.w3.org/2000/svg" viewBox="0 0 400 400" width="24" height="24">
	<title>themed_icon_calendar_11-svg</title>
	<style>
		.s0 { fill: #040404 } 
	</style>
	<g id="svgg">
		<path id="path0" fill-rule="evenodd" class="s0" d="m71.7 0.1l23.9-0.1v5.1c0 10.4 10.3 26.2 20.3 31.4 26.6 13.8 56.7-1.6 61.1-31.3l0.8-5.2h44.4l0.8 5.2c4.5 29.9 34.4 45.1 61.4 31.2 9.8-5.1 20-21 20-31.3v-5.1h23.4c19.9 0 24.3 0.3 29.5 2.1 21.4 7.4 33.9 20 40.7 41 2.8 8.5 2.8 305 0 313.4-6.8 21.1-19.3 33.7-40.7 41.1-9.5 3.2-305.1 3.2-314.6 0-21.4-7.4-33.9-20-40.7-41.1-2.8-8.4-2.8-304.9 0-313.4 6.7-20.8 19.1-33.4 40.3-40.9 4.7-1.7 9.5-2 29.4-2.1zm105.9 129h-10.4c-11 0.1-11.3 0.2-21.1 8.2-0.9 0.7-9.6 7.3-19.4 14.6-19.2 14.5-18.5 13.7-15.6 19 10.9 19.2 10.6 19.2 25.2 8.2 6.1-4.7 11.6-8.5 12.2-8.5 0.5 0 1.1 28.4 1.3 66.6l0.2 66.5h27l0.3-87.3zm99.3 0.5l-21.3-0.4-10.3 8.1c-5.6 4.4-15.8 12.3-22.7 17.5-6.8 5.2-12.7 10.2-13 11.2-0.9 2.1 10.9 20.8 13.4 21.3 1.6 0.3 22.2-14.2 24.3-17.1 1.8-2.4 2.1 7.5 2.1 68.5v65.6l13.8-0.3 13.7-0.3z"/>
	</g>
</svg>