<svg version="1.2" xmlns="http://www.w3.org/2000/svg" viewBox="0 0 400 400" width="24" height="24">
	<title>themed_icon_calendar_30-svg</title>
	<style>
		.s0 { fill: #000 } 
	</style>
	<g id="svgg">
		<path id="path0" fill-rule="evenodd" class="s0" d="m71.7 0.1l23.9-0.1v5.1c0 10.4 10.3 26.2 20.3 31.4 26.6 13.8 56.7-1.6 61.1-31.3l0.8-5.2h44.4l0.8 5.2c4.4 29.7 34.5 45.1 61.1 31.3 10-5.2 20.3-21 20.3-31.4v-5.1h23.5c41 0 59.9 11.6 70.1 43.1 2.8 8.5 2.8 305 0 313.4-6.8 21.1-19.3 33.7-40.7 41.1-9.5 3.2-305.1 3.2-314.6 0-21.4-7.4-33.9-20-40.7-41.1-2.8-8.4-2.8-304.9 0-313.4 6.5-20.1 18.7-33 38-40.1 7.5-2.7 9-2.9 31.7-2.9zm-0.5 130.4c-7.5 11.6-7.4 12.6 1.4 16.6 18.3 8.3 17.4 8.3 21.7 0.6 14.7-25.9 55.4-12.5 46 15.2-3.7 11.1-10.8 15.4-27 16.5l-11.5 0.8v26.9l12.3 0.7c28.7 1.5 43.2 23.8 27.5 42.2-16.7 19.6-44.8 11.9-53.2-14.5-0.6-2.1-5-2.7-6.9-1.1-0.6 0.5-4.6 2.4-8.9 4.1-10.5 4.3-14.4 9.4-9.6 12.4 0.7 0.4 1.2 1.4 1.2 2.3 0 3 8.8 15.8 14.5 21.1 4.8 4.5 9.1 7 23.5 13.5 4.7 2.2 28.9 1.6 36.5-0.8 37.4-12 50.3-57.5 23.9-84.6-3.2-3.3-6.4-5.9-7.2-5.9-0.8 0-1.4-0.5-1.4-1.2 0-0.6-0.8-1.1-1.7-1.1-3 0-1.8-2.1 4.9-8.7 26.1-25.7 13.4-67.4-24-78.2-23.4-6.9-48.8 2.6-62 23.2zm178.2-22.8c-23.8 7.5-38 24.5-48.2 57.9-4.4 14.3-4.4 49.9 0 64 3.6 11.7 4.6 14.4 6.8 19.3 7.6 16.3 25.4 34.3 36.9 37 1.5 0.4 3.5 1.2 4.3 1.9 2.3 1.8 30.2 1.6 35-0.2 42.6-16.5 64.2-79.6 44.9-131-10.2-27.3-24.9-42.7-47.1-49.5-7.1-2.2-24.9-1.9-32.6 0.6zm49.7 51.4c1.2 2.9 2.6 6.4 3.1 7.6 5 12 5 48.7 0.1 61.8-11.3 30.1-33.2 41.2-53.4 27.2-7.1-5-17.5-20.7-17.5-26.5 0-1.3-0.4-2.6-0.9-2.9-3.8-2.3-3.8-55.1 0-57.4 0.5-0.4 0.9-1.7 0.9-2.9 0-10.6 16.2-28.4 28.4-31.3 15.8-3.8 31.9 6.3 39.3 24.4z"/>
	</g>
</svg>