<svg version="1.2" xmlns="http://www.w3.org/2000/svg" viewBox="0 0 400 400" width="24" height="24">
	<title>themed_icon_calendar_29-svg</title>
	<style>
		.s0 { fill: #040404 } 
	</style>
	<g id="svgg">
		<path id="path0" fill-rule="evenodd" class="s0" d="m71.7 0.1l23.9-0.1v5.1c0 10.3 10.1 26.2 20 31.3 26.9 13.9 56.9-1.3 61.4-31.2l0.8-5.2h44.4l0.8 5.2c4.5 29.9 34.5 45.1 61.4 31.2 9.9-5.1 20-21 20-31.3v-5.1h23.4c19.9 0 24.3 0.3 29.5 2.1 21.4 7.4 34 20 40.8 41 2.7 8.5 2.7 305.1 0 313.5-7 21.4-20.8 35.1-42 41.4-9.2 2.7-303 2.7-312.2 0-21.2-6.3-35-20-42-41.4-2.7-8.4-2.7-305 0-313.5 6.8-20.8 19.1-33.4 40.3-40.9 4.7-1.7 9.6-2 29.5-2.1zm9.3 151c-1 1.8-2 3.6-2.3 3.9-1.1 1-3.3 6.8-3.3 8.5 0 1 3 3.1 7.5 5.1 4.2 1.8 9.2 4.1 11.2 5 5.3 2.4 6.5 2 8.7-3.2 8.6-20.1 36.2-23.7 47.5-6.2 4 6.3 4.3 20 0.5 27.5-2.1 4-12.7 19-14.7 20.5-0.4 0.3-5.7 6.1-11.9 12.9-6.2 6.7-13 14.1-15.2 16.4-14.2 14.8-23.7 24.8-28.3 29.9l-5.4 5.9 0.3 13.2 0.3 13.2h108.9v-25.8l-35-0.3c-19.3-0.1-35.1-0.7-35.1-1.1 0-1.1 5-6.6 27.9-30.5 10.2-10.7 19.4-20.6 20.3-21.9 0.9-1.3 2.8-3.5 4.1-5 1.4-1.5 3.1-4 4-5.6 0.8-1.6 2.5-4.7 3.9-6.9 7-11.3 10.2-35.3 6.1-46-4.8-12.7-14.9-25.3-23.7-29.3-6.3-3-9.3-4.2-12.3-5-25.1-6.5-53.6 4.5-64 24.8zm144.4-10.7c-4.1 3.5-13 16-13 18.2 0 0.9-0.4 1.9-0.8 2.4-4.2 4.1-6.1 26.5-3.3 37.8 7.2 28.6 40.4 50.8 61.6 41 1.2-0.5 2-0.4 2 0.4 0 1.2-28.9 44.6-32.3 48.6-3 3.5-0.8 6.8 9.3 13.6 11.4 7.8 10 8.3 20.3-8 4.1-6.6 9.7-15.1 12.4-18.9 2.7-3.8 4.9-7.3 4.9-7.7 0-0.4 2.2-3.9 5-7.8 2.8-3.9 5.1-7.4 5.1-7.8 0-0.5 1.2-2.4 2.7-4.4 6.2-8.3 17.5-29.3 20.6-38.4 4.4-12.6 5-38.9 1.1-42.8-0.5-0.4-0.9-1.7-0.9-2.8 0-9.1-23.4-34.7-31.8-34.7-1 0-2-0.4-2.3-0.9-0.3-0.6-3.5-1.6-7.1-2.2-21.6-4.2-36.9-0.1-53.5 14.4zm66 27.7c1.1 2.3 2.5 5.1 3 6.2 2.7 5.3 0.7 20.3-3.7 27-16.7 25.4-55.9 13.2-55.9-17.5 0-14.2 10.7-27.9 23.6-30.4 13.3-2.5 27.7 3.9 33 14.7z"/>
	</g>
</svg>