<svg version="1.2" xmlns="http://www.w3.org/2000/svg" viewBox="0 0 400 400" width="24" height="24">
	<title>themed_icon_calendar_16-svg</title>
	<style>
		.s0 { fill: #040404 } 
	</style>
	<g id="svgg">
		<path id="path0" fill-rule="evenodd" class="s0" d="m71.7 0.1l23.9-0.1v5.1c0 10.4 10.3 26.2 20.3 31.4 26.6 13.8 56.7-1.6 61.1-31.3l0.8-5.2h44.4l0.8 5.2c4.5 29.9 34.4 45.1 61.4 31.2 9.8-5.1 20-21 20-31.3v-5.1h23.4c19.9 0 24.3 0.3 29.5 2.1 21.4 7.4 33.9 20 40.7 41 2.8 8.5 2.8 305 0 313.4-6.8 21.1-19.3 33.7-40.7 41.1-9.5 3.2-305.1 3.2-314.6 0-21.4-7.4-33.9-20-40.7-41.1-2.8-8.4-2.8-304.9 0-313.4 6.7-20.8 19.1-33.4 40.3-40.9 4.7-1.7 9.5-2 29.4-2.1zm183.6 124.5c-3.6 0-52.7 77.8-59.9 94.9-9.8 23.3-6.1 50.7 9.5 69.5 4.3 5.1 18.1 15.2 20.9 15.2 0.6 0 2 0.5 3.1 1.1 8.1 4.3 29.2 4.4 39 0.2 18.5-8 30.7-20.8 36.4-38.4 2.5-7.5 3.3-27.5 1.4-32.7-0.6-1.4-1.7-4.6-2.4-7.1-7.9-24.9-39.9-42.4-61.1-33.6-2.1 0.9 1.3-6.5 3.9-8.5 0.4-0.3 2-2.5 3.5-5 1.6-2.5 8.2-12.3 14.7-21.7 13.7-19.8 13.6-18 1.5-27-5.2-3.8-9.9-6.9-10.5-6.9zm-97.4 5.1l-21.3-0.5-13.5 10.4c-7.4 5.7-17.8 13.7-23 17.7-5.2 4-9.7 8-9.9 9-0.5 2.9 11.2 21.2 13.6 21.2 1.7 0 16.5-10.5 22.7-16.1 2.2-2 2.2-1.9 2.8 65.1l0.5 67.2h28.1zm111.4 142.2c-11.7 11.3-29.9 11.1-42-0.5-16.5-15.7-8.3-47.3 13.7-52.9 29.6-7.6 50.5 31.8 28.3 53.4z"/>
	</g>
</svg>