<svg version="1.2" xmlns="http://www.w3.org/2000/svg" viewBox="0 0 400 400" width="24" height="24">
	<title>themed_icon_calendar_6-svg</title>
	<style>
		.s0 { fill: #040404 } 
	</style>
	<g id="svgg">
		<path id="path0" fill-rule="evenodd" class="s0" d="m71.7 0.1l23.9-0.1v5.1c0 10.3 10.2 26.2 20 31.3 9.1 4.7 29.1 7.3 31.1 4 0.4-0.6 1.7-1.1 2.9-1.1 9.8 0 24.3-17.3 27.1-32.5l1.2-6.8h44.2l1.2 6.8c2.8 15.2 17.3 32.5 27.1 32.5 1.2 0 2.5 0.5 2.9 1.1 2 3.3 22 0.7 31.1-4 9.8-5.1 20-21 20-31.3v-5.1h23.4c19.9 0 24.3 0.3 29.5 2.1 21.4 7.4 33.9 20 40.7 41 2.8 8.5 2.8 305 0 313.4-6.8 21.1-19.3 33.7-40.7 41.1-9.5 3.2-305.1 3.2-314.6 0-21.4-7.4-33.9-20-40.7-41.1-2.8-8.4-2.8-304.9 0-313.4 6.7-20.8 19.1-33.4 40.3-40.9 4.7-1.7 9.5-2 29.4-2.1zm132.6 124.5c-1.1 0.1-22.6 32.1-32.9 49.2-0.6 1.1-1.4 2.1-1.7 2.5-1.5 1.4-6.7 10.1-6.7 11.2 0 0.6-0.4 1.1-0.9 1.1-0.8 0-1.7 1.4-7.3 11.2-17.5 30.6-20 53.3-8.5 77 5.1 10.8 22.9 27.4 29.3 27.4 0.8 0 2 0.5 2.6 1 1.6 1.5 13.6 3.5 20.6 3.5 24.3-0.2 43.1-13.9 55.1-40.4 5.3-11.6 3.2-35.3-4.2-47.4-1.4-2.3-2.6-4.4-2.6-4.8 0-4.9-17.4-18.3-30.1-23.1-4.8-1.8-20.2-1.8-23.6 0-4.3 2.3-3.7 1.1 6.2-13.4 5.3-7.7 12.4-18.3 15.9-23.6 3.5-5.2 7.2-10.5 8.3-11.7 3-3.2 2.5-4.4-3.3-8.8-2.9-2.3-5.8-4.5-6.5-5-0.6-0.5-2.7-2-4.6-3.4-2-1.4-4.3-2.5-5.1-2.5zm23.8 124.7c0 37.4-52.4 42.5-59.6 5.7-2.9-14.9 5.5-30.4 19.3-35.4 19.9-7.3 40.3 7.7 40.3 29.7z"/>
	</g>
</svg>