<svg version="1.2" xmlns="http://www.w3.org/2000/svg" viewBox="0 0 400 400" width="24" height="24">
	<title>themed_icon_calendar_8-svg</title>
	<style>
		.s0 { fill: #00000 } 
	</style>
	<g id="svgg">
		<path id="path0" fill-rule="evenodd" class="s0" d="m71.6 0.1l23.9-0.1v5.1c0 10.4 10.2 26.2 20.3 31.4 26.1 13.6 55.4-0.8 60.8-29.7l1.2-6.8h44.2l1.2 6.8c5.4 28.9 34.7 43.3 60.8 29.7 10.1-5.2 20.3-21 20.3-31.4v-5.1h23.4c19.9 0 24.3 0.3 29.5 2.1 21.5 7.4 33.1 19 40.5 40.5 3.2 9.4 3.2 305.1 0 314.6-7.5 21.8-20.5 34.4-41.8 40.8-9.1 2.7-302.9 2.7-312.1 0-21.3-6.4-34.2-19-41.7-40.8-2-5.8-2.1-12.8-2.1-157.3 0-144.6 0.1-151.5 2.1-157.3 7.3-21.3 18.7-32.8 40-40.4 4.7-1.7 9.6-2 29.5-2.1zm104.7 128.1c-8.7 3.8-11.1 5.4-16.8 11-19.8 19.5-19.7 48.4 0.2 67.6l5.4 5.3-4.9 3.4c-42.4 29.1-16.9 93 37.1 93.3 12.6 0 19.3-1.6 31.2-7.6 27.7-13.9 37.5-52.2 18.9-74.4-4.3-5.1-5.6-6.4-10.7-10.5l-5.4-4.3 6.6-7c25.5-27.3 12.2-69.1-25.2-79.1-9.2-2.5-28.3-1.3-36.4 2.3zm36.2 28c23.6 16.3 3.6 50.7-23.9 41.1-19.7-6.8-20.6-35.9-1.5-43 6.6-2.5 20.6-1.4 25.4 1.9zm-2.8 72c15.6 6.7 22.4 22.3 15.9 36.3-2.6 5.5-10.3 12.9-13.5 12.9-1.1 0-2.3 0.5-2.7 1.1-0.3 0.6-5.2 1.1-10.7 1.1-22.5 0-34.6-14.5-29.1-34.8 1.5-5.7 10.7-15.7 14.5-15.7 1.2 0 2.5-0.5 2.9-1.2 1-1.5 18.9-1.4 22.7 0.3z"/>
	</g>
</svg>