<svg version="1.2" xmlns="http://www.w3.org/2000/svg" viewBox="0 0 400 400" width="24" height="24">
	<title>themed_icon_calendar_9-svg</title>
	<style>
		.s0 { fill: #040404 } 
	</style>
	<g id="svgg">
		<path id="path0" fill-rule="evenodd" class="s0" d="m71.7 0.1l23.9-0.1v5.1c0 10.4 10.3 26.2 20.3 31.4 8.8 4.6 28.8 7.1 30.8 3.9 0.4-0.6 1.7-1.1 2.9-1.1 10.2 0 25.1-18.4 27.4-34.1l0.8-5.2h44.4l0.8 5.2c4.4 29.7 34.5 45.1 61.1 31.3 10-5.2 20.3-21 20.3-31.4v-5.1h23.4c19.9 0 24.3 0.3 29.5 2.1 21.4 7.4 33.9 20 40.7 41 2.8 8.5 2.8 305 0 313.4-6.8 21.1-19.3 33.7-40.7 41.1-9.5 3.2-305.1 3.2-314.6 0-21.4-7.4-33.9-20-40.7-41.1-2.8-8.4-2.8-304.9 0-313.4 6.7-20.8 19.1-33.4 40.3-40.9 4.7-1.7 9.5-2 29.4-2.1zm74.6 212.1c10.9 21.3 39.9 35.2 57.3 27.5 2.4-1 2.7 0.8 0.5 3-0.8 0.8-2.9 3.8-4.7 6.5-1.7 2.8-8.9 13.3-15.9 23.4-7 10-12.7 19-12.7 19.8 0 1.8 19.1 16.5 20.8 15.9 1.3-0.4 11.6-14.3 11.7-15.7 0-0.6 1.8-3.5 4-6.5 2.2-3 3.9-6 3.9-6.6 0-0.6 0.5-1.1 1.1-1.1 0.7 0 1.2-0.5 1.2-1.1 0-0.6 1.7-3.6 3.9-6.6 2.2-3 3.9-6 3.9-6.6 0-0.7 0.4-1.4 0.9-1.6 3.4-1.5 30.6-49 30.6-53.5 0-1.1 0.3-2.4 0.8-2.9 4-4 4.2-29.9 0.3-40.5-7-19.1-19.8-32.5-36.5-38.1-50.4-17.1-95.6 36.7-71.1 84.7zm81.8-28.1c0 4.3-0.5 8.8-1 9.8-3.7 7.5-5.5 10.2-8.5 13-14.7 13.4-36.3 10.3-46.2-6.5-10.7-18.3-0.9-43.3 18.6-47 20-3.8 37.1 10.3 37.1 30.7z"/>
	</g>
</svg>