<svg version="1.2" xmlns="http://www.w3.org/2000/svg" viewBox="0 0 400 400" width="24" height="24">
	<title>themed_icon_calendar_5-svg</title>
	<style>
		.s0 { fill: #040404 } 
	</style>
	<g id="svgg">
		<path id="path0" fill-rule="evenodd" class="s0" d="m71.6 0.1l23.9-0.1v5.1c0 9.5 8.7 24.3 17.5 29.8 26.2 16.2 57.9 2.1 63.6-28.1l1.2-6.8h44.2l1.2 6.8c5.6 30.2 37.4 44.3 63.6 28.1 8.8-5.5 17.5-20.3 17.5-29.8v-5.1h23.4c19.9 0 24.3 0.3 29.5 2.1 21.5 7.4 33.1 19 40.5 40.5 3.2 9.4 3.2 305.1 0 314.6-7.5 21.8-20.5 34.4-41.8 40.8-9.1 2.7-302.9 2.7-312.1 0-21.3-6.4-34.2-19-41.7-40.8-2-5.8-2.1-12.8-2.1-157.3 0-144.6 0.1-151.5 2.1-157.3 7.3-21.3 18.7-32.8 40-40.4 4.7-1.7 9.6-2 29.5-2.1zm173.3 129h-45.6c-35.4 0-45.6 0.3-46 1.4-0.2 0.8-0.7 4-1 7.1-0.3 3-1.4 12.6-2.4 21.3-7.2 60.2-7.2 62.1-0.3 62.3 0.5 0 4.3 1.7 8.5 3.8 11.7 5.6 12.1 5.7 17.5 0.8 21.1-19 50.5-5.7 50.5 22.9 0 35.7-42.6 43.8-58.3 11.1-5.1-10.5-4.1-10.3-17.3-4.8-13.4 5.6-13.6 6.2-7.2 19.5 21.2 44.2 84.2 45.9 105.1 2.8 12-24.7 8.2-52.4-9.7-71.6-12.5-13.6-35.1-19.5-52.3-13.7-4 1.4-7.5 2.8-7.8 3.2-4.5 5.8-7.2 3.7-5.8-4.5 0.6-3.9 2-13.3 3.1-20.8l1.9-13.8 66.4-0.6 0.4-13.2z"/>
	</g>
</svg>