<svg version="1.2" xmlns="http://www.w3.org/2000/svg" viewBox="0 0 400 400" width="24" height="24">
	<title>themed_icon_calendar_24-svg</title>
	<style>
		.s0 { fill: #050505 } 
	</style>
	<g id="svgg">
		<path id="path0" fill-rule="evenodd" class="s0" d="m71.7 0.1l23.9-0.1v5.1c0 10.3 10.1 26.2 20 31.3 9.1 4.7 29 7.3 31.1 4 0.3-0.6 1.6-1.1 2.9-1.1 10.2 0 25.1-18.4 27.4-34.1l0.8-5.2h44.4l0.8 5.2c2.3 15.7 17.2 34.1 27.4 34.1 1.3 0 2.6 0.5 2.9 1.1 2.1 3.3 22 0.7 31.1-4 9.9-5.1 20-21 20-31.3v-5.1h23.4c19.9 0 24.3 0.3 29.5 2.1 21.4 7.4 34 20 40.8 41 2.7 8.5 2.7 305.1 0 313.5-7 21.4-20.8 35.1-42 41.4-9.2 2.7-303 2.7-312.2 0-21.2-6.3-35-20-42-41.4-2.7-8.4-2.7-305 0-313.5 6.8-20.8 19.1-33.4 40.3-40.9 4.7-1.7 9.6-2 29.5-2.1zm5.3 149.3c-2.8 4.2-5 8.4-5 9.3 0 1-0.5 2.1-1.1 2.4-0.7 0.5-0.8 1.4-0.1 2.7 0.9 1.7 3.7 3.1 18.8 9.8 5 2.3 5.6 2 7.8-2.6 9.2-19.8 32.6-24.5 45.8-9.1 5.6 6.6 7 22.6 2.6 30.4-2.3 4.2-12.8 17.9-17.8 23.3-11.5 12.5-19.4 20.9-35.7 38-21.4 22.5-21.4 22.5-22.1 25.4-0.3 1.2-0.4 7.3-0.2 13.5l0.3 11.2 54.8 0.3 54.8 0.3-0.4-13.2-0.3-13.2-35.1-0.3c-19.3-0.1-35-0.7-35-1.1 0-0.5 4.9-5.9 10.8-12.1 5.9-6.1 16.9-17.5 24.3-25.2 23.8-24.7 33.3-42.6 33.3-62.8 0-24.3-13.5-42.8-36.3-49.7-24.4-7.3-50.9 2-64.2 22.7zm230.2-19.7l-15.2-0.3-15.2-0.3-23.4 36.8c-12.9 20.2-25.6 39.9-28.3 43.7-2.7 3.8-4.9 7.3-4.9 7.6 0 0.4-3.4 5.9-7.5 12.2-10.9 16.5-11.5 17.9-11.5 28.1-0.1 14.3-3.8 13.1 39.8 13.1h37.6v15.5c0 19.6-1 18.3 15.3 18l13.3-0.4 0.3-16.5 0.4-16.5 9.8-0.3 9.7-0.3v-28.1l-9.8-0.3-9.8-0.4-0.3-55.8zm-28.6 77.5c0 17.6 0.1 32.4 0.3 32.8 0.1 0.5-9.7 1-21.9 1.2-12.2 0.2-22.2 0-22.2-0.3 0-0.2 3.9-6.4 8.7-13.7 4.8-7.3 8.9-13.8 9.2-14.4 0.5-1.2 6.7-10.7 13.7-21 2.4-3.5 4.3-6.7 4.3-7.1 0-0.4 1.4-2.7 3.1-5.1 4.8-6.7 4.8-6.5 4.8 27.6z"/>
	</g>
</svg>