<svg version="1.2" xmlns="http://www.w3.org/2000/svg" viewBox="0 0 400 400" width="24" height="24">
	<title>themed_icon_calendar_20-svg</title>
	<style>
		.s0 { fill: #040404 } 
	</style>
	<g id="svgg">
		<path id="path0" fill-rule="evenodd" class="s0" d="m71.6 0.1l23.9-0.1v5.1c0 10.4 10.2 26.2 20.3 31.4 26.6 13.8 56.7-1.6 61.1-31.3l0.8-5.2h44.4l0.8 5.2c4.4 29.9 34.4 45.1 61.4 31.2 9.8-5.1 20-21 20-31.3v-5.1h23.4c19.9 0 24.3 0.3 29.5 2.1 21.5 7.4 33 19 40.4 40.5 3.3 9.4 3.3 305.1 0 314.5-7.4 21.5-18.9 33.1-40.4 40.5-9.5 3.2-305.1 3.2-314.6 0-21.5-7.4-33.1-19-40.4-40.5-2-5.8-2.1-12.8-2.1-157.3 0-144.5 0.1-151.4 2.1-157.2 7.3-21.3 18.7-32.8 40-40.4 4.6-1.7 9.5-2 29.4-2.1zm1.3 155.5c-4.6 9-4.4 9.3 9 15 11.3 4.7 14.7 5.1 14.7 1.6 0-4 8.8-14.3 14.6-17.1 5.5-2.6 19.8-2.3 24.2 0.4 18.7 11.7 17.1 31.6-4.5 56.1-7.9 8.9-24.1 26.3-44.3 47.5-18.6 19.7-17.1 16.7-16.7 31.9l0.3 12.7h108.9v-25.9l-35.1-0.2c-19.3-0.2-35-0.7-35-1.2 0-0.5 3.1-4.2 7-8.2 48.8-51 54.2-57.8 59.7-77.3 6.4-22.3-5.2-51-24.1-59.7-7.7-3.5-9.6-4.3-14-5.4-25.3-6.6-52.8 6.1-64.7 29.8zm176.8-27.3c-0.4 0.4-1.5 0.8-2.3 0.8-2 0-12.6 6.7-17.3 10.9-28.7 25.6-37.2 89.5-17 128.9 1.5 3.1 3.6 7.1 4.6 8.9 3.1 6.1 19.3 21.2 26.3 24.6 32.9 16 68.6 1.2 85.3-35.4 25.1-55.1 4.7-125.4-40.6-140.1-10.8-3.5-35-2.6-39 1.4zm57.1 117c-1 3.7-2.2 7.2-2.7 7.8-0.5 0.6-0.9 1.8-0.9 2.6 0 2.4-8.9 14.5-12.8 17.4-19.8 14.9-44.8 4.4-53.9-22.8-14.1-42.3 0.1-91.4 27.9-96.5 34.4-6.5 56 40.3 42.4 91.5z"/>
	</g>
</svg>