<svg version="1.2" xmlns="http://www.w3.org/2000/svg" viewBox="0 0 400 400" width="24" height="24">
	<title>themed_icon_calendar_14-svg</title>
	<style>
		.s0 { fill: #00000 } 
	</style>
	<g id="svgg">
		<path id="path0" fill-rule="evenodd" class="s0" d="m71.7 0.1l23.9-0.1v5.1c0 10.4 10.3 26.2 20.3 31.4 26.6 13.8 56.7-1.6 61.1-31.3l0.8-5.2h44.4l0.8 5.2c4.5 29.9 34.4 45.1 61.4 31.2 9.8-5.1 20-21 20-31.3v-5.1h23.4c19.9 0 24.3 0.3 29.5 2.1 21.4 7.4 33.9 20 40.7 41 2.8 8.5 2.8 305 0 313.4-6.8 21.1-19.3 33.7-40.7 41.1-9.5 3.2-305.1 3.2-314.6 0-21.4-7.4-33.9-20-40.7-41.1-2.8-8.4-2.8-304.9 0-313.4 6.7-20.8 19.1-33.4 40.3-40.9 4.7-1.7 9.5-2 29.4-2.1zm81.7 129.6l-10.7-0.3-10.6-0.2-7.3 5.7c-4 3.1-8.3 6.5-9.6 7.5-1.2 1-5 3.9-8.4 6.3-3.4 2.5-6.4 4.8-6.7 5.1-0.3 0.4-2.6 2.2-5.1 4-2.4 1.8-5.1 3.9-5.9 4.7-0.9 0.8-2 1.4-2.6 1.4-3.8 0 8.9 23.5 12.8 23.5 1.7 0.1 16.7-10.5 22-15.4 3.2-3 3.5 1.8 3.8 66l0.2 65.7h28.1zm136.4-0.6h-30.2l-6.8 10.2c-3.7 5.6-6.8 10.4-6.8 10.8 0 0.3-1.7 3-3.9 5.9-2.2 3-3.9 5.8-3.9 6.2 0 0.5-1.8 3.3-4 6.3-2.1 3.1-3.9 6-3.9 6.6 0 0.7-0.5 1.2-1.1 1.2-0.6 0-1.1 0.5-1.1 1.3 0 0.7-1.3 2.9-2.8 4.9-1.6 2.1-2.8 4.3-2.8 4.9 0 0.7-0.6 1.2-1.2 1.2-0.6 0-1.1 0.5-1.1 1.1 0 0.6-1.8 3.6-3.9 6.6-2.2 3-4 5.9-4 6.3 0 0.5-1.7 3.3-3.9 6.2-2.1 3-3.9 5.7-3.9 6.1 0 0.5-2.3 4-5.1 7.9-2.7 3.9-5 7.4-5 7.8 0 0.3-2.3 4-5.1 8l-5 7.4v11.6c0 14.4-4.4 13 40.5 13h36.9l0.3 16.5 0.3 16.6h26.9l1.2-32.6 8.9-0.3c11.9-0.5 11.8-0.4 11.8-14.8 0-14.5 0.1-14.4-11.8-14.9l-8.9-0.3-0.3-55.8zm-28.3 43.8c0.1 0 0.2 15.3 0.2 34.2v34.2h-21.9c-12 0-21.8-0.3-21.8-0.7 0-0.7 37.7-60.2 41.4-65.2 1-1.4 1.9-2.5 2.1-2.5z"/>
	</g>
</svg>