<svg version="1.2" xmlns="http://www.w3.org/2000/svg" viewBox="0 0 1080 1080" width="24" height="24">
	<title>themed_google_icon_calendar_15-svg</title>
	<style>
		.s0 { opacity: .5;fill: #000000;stroke: #000000;stroke-width: 4.5 } 
		.s1 { fill: #000000;stroke: #000000;stroke-width: 4.5 } 
	</style>
	<g id="surface1">
		<path class="s0" d="m0.2 808.7q-0.1-357.2-0.3-714.4c0-58.5 35.2-94 93.3-94q357.9-0.1 715.8-0.2c5.3 0 10.6 0.5 15.9 0.7q0.1 127.3 0.3 254.6-0.2 1-1.1 1.3c-4.9-0.4-9.7-1.1-14.5-1.1-179.2 0-358.4 0.3-537.6-0.2-13.9 0-16.8 4-16.7 17.2q0.5 179.2 0.7 551.6-175.8 0.4-255.3 0.5c-0.2-5.3-0.5-10.6-0.5-16z"/>
		<path class="s0" d="m256 824.2q380.7-0.2 567.7-0.4 0.5 0.6 1.2 0.9-0.1 126.5-0.2 253c-4.3 3.5-9.3 1.8-14 1.8q-184.8 0.2-554.6 0.4z"/>
		<path class="s0" d="m1078.7 255.9c0.3 4.8 0.8 9.7 0.8 14.5q0.2 270 0.2 539.9c0 4.7 1.6 9.8-1.9 14.1q-126.5 0.2-252.9 0.3-0.7-0.3-1.2-0.9c0.2-3.1 0.6-6.2 0.6-9.2q-0.1-278.9-0.2-557.9 0.9-0.3 1.1-1.3c4.8 0.1 9.7 0.4 14.6 0.4q119.4 0 238.9 0.1z"/>
		<path class="s1" d="m1078.7 255.9q-119.5-0.1-238.9-0.1c-4.9 0-9.8-0.3-14.6-0.4q-0.2-127.3-0.3-254.6c57.7-0.2 115.4-2 173-0.1 48.5 1.6 81.5 38.9 81.6 87.6 0.2 51.9 0.1 103.8 0.1 155.7 0 4-0.6 7.9-0.9 11.9z"/>
		<path class="s1" d="m824.9 824.7q126.4-0.1 252.9-0.3c-1.6 2.1-3 4.3-4.8 6.1q-121 121.2-242.1 242.3c-1.9 1.8-4.1 3.3-6.2 4.9q0.1-126.5 0.2-253z"/>
		<path class="s1" d="m0.3 824.3l255.7-0.1 0.1 255.7h-170.5c-47 0-85.2-38.1-85.2-85.2z"/>
		<path class="s1" d="m390.8 450.1l0.1 260.4h51.7l-0.2-330.4h-36.7l-95.6 68.6 27.1 40.1z"/>
		<path class="s1" d="m567.1 708.5q23.2 9.6 47.8 9.6 32.8 0 59.2-14.5 26.3-14.5 41.2-40.1 15-25.6 15-57.5 0-31.8-14.5-57-14.5-25.1-38.9-39.1-24.4-14-52.4-14-34.8 0.1-59.9 20.8l-2.9-0.4 13-88.9 135.2-0.1v-47.3l-178.7 0.1-20.2 166.1 51.7 22.7q8.7-12.1 22.2-19.1 13.5-7 29.4-7 28.5 0 46.2 17.9 17.6 17.8 17.6 45.8 0 27.6-18.1 45.2-18.1 17.6-45.6 17.6-25.1 0-42.5-15.9-17.4-15.9-24.2-43l-46.8 18.4q7.2 29.5 25.1 49.7 17.9 20.3 41.1 30z"/>
	</g>
</svg>