<svg version="1.2" xmlns="http://www.w3.org/2000/svg" viewBox="0 0 400 400" width="24" height="24">
	<title>themed_icon_calendar_17-svg</title>
	<style>
		.s0 { fill: #050505 } 
	</style>
	<g id="svgg">
		<path id="path0" fill-rule="evenodd" class="s0" d="m71.7 0.1l23.9-0.1v5.1c0 10.4 10.2 26.2 20.3 31.4 8.8 4.6 28.8 7.1 30.8 3.9 0.3-0.6 1.6-1.1 2.9-1.1 10.2 0 25.1-18.4 27.4-34.1l0.8-5.2h44.4l0.8 5.2c4.4 29.7 34.5 45.1 61.1 31.3 10.1-5.2 20.3-21 20.3-31.4v-5.1h23.4c19.9 0 24.3 0.3 29.5 2.1 21.4 7.4 34 20 40.8 41 2.7 8.5 2.7 305.1 0 313.5-7 21.4-20.8 35.1-42 41.4-9.2 2.7-303 2.7-312.2 0-21.2-6.3-35-20-42-41.4-2.7-8.4-2.7-305 0-313.5 6.8-20.8 19.1-33.4 40.3-40.9 4.7-1.7 9.6-2 29.5-2.1zm89.6 129.6l-8.6-0.6c-4.7-0.3-9.5-0.3-10.6-0.1-1.6 0.3-18.4 12.2-20.7 14.7-0.3 0.3-5.6 4.4-11.8 9-14.6 11-16.3 12.5-16.3 14.2 0 2.6 12.3 20.6 14.1 20.6 1.5 0 17.5-11.4 21.7-15.5 3.2-3 3.5 2 3.8 66.1l0.3 65.6h28.1zm142.6 0l-55.9-0.2-55.9-0.3v26.9h39.9c24.9 0 39.9 0.4 39.9 1.1 0 0.6-1.2 3.3-2.7 5.9-1.5 2.7-5.1 9.4-8 14.9-3 5.6-7.2 13.4-9.3 17.4-2.2 4-6.6 12.4-9.8 18.6-3.2 6.1-8.3 15.7-11.2 21.3-3 5.6-7.4 13.9-9.8 18.5-2.5 4.7-6.4 12-8.8 16.3-8.9 16.5-12.3 23.2-12.3 24.2 0 2.2 21.4 14.1 23.7 13.2 0.9-0.4 5.3-7.9 9.9-16.8 4.5-8.8 9.6-18.6 11.3-21.7 1.7-3.1 5.8-10.7 9-16.9 3.3-6.1 8-15 10.4-19.6 2.5-4.6 7.8-14.8 11.8-22.5 4-7.7 8.4-16.1 9.9-18.7 1.4-2.6 6.2-11.6 10.6-19.9l7.9-15.2-0.3-13.2z"/>
	</g>
</svg>