<svg version="1.2" xmlns="http://www.w3.org/2000/svg" viewBox="0 0 400 400" width="24" height="24">
	<title>2-svg</title>
	<style>
		.s0 { fill: #050505 } 
	</style>
	<g id="svgg">
		<path id="path0" fill-rule="evenodd" class="s0" d="m71.8 0c25.9 0 23.6-0.5 23.6 5.3 0 8.7 11.6 28.6 16.6 28.6 0.4 0 1.1 0.4 1.5 0.9 0.9 1.1 7.2 4.4 8.4 4.4 0.4 0 2 0.5 3.4 1.1 3.7 1.7 17.7 1.7 21.4 0 1.4-0.6 3-1.1 3.5-1.1 0.6 0 1.7-0.4 2.5-0.9 0.8-0.4 2.3-1.2 3.4-1.7 5-2.4 15.8-13.4 15.8-16.2 0-0.5 0.4-1.3 0.9-1.7 0.5-0.4 1.2-1.8 1.5-3.1 0.4-1.4 1-3.2 1.5-4.2 0.4-1 1-4 1.2-6.6l0.4-4.8h45.2l0.4 4.2c0.2 2.4 0.9 5.8 1.5 7.6 0.7 1.9 1.2 3.7 1.2 4.2 0 0.4 0.5 1.5 1.2 2.3 0.6 0.8 1.2 1.8 1.2 2.2 0 2.7 10.9 13.8 15.8 16.1 1.1 0.5 2.6 1.3 3.4 1.7 0.8 0.5 1.9 0.9 2.5 0.9 0.5 0 2.1 0.5 3.5 1.1 3.7 1.7 17.7 1.7 21.4 0 1.4-0.6 3-1.1 3.4-1.1 1.2 0 7.5-3.3 8.4-4.4 0.4-0.5 1.1-0.9 1.5-0.9 2.6 0 12-12.2 14.5-18.9 1.9-5.2 2.1-6.4 2.1-9.8 0-5.7-2.2-5.2 23.4-5.2 21 0 23 0.1 26.4 1.2 2 0.6 4.1 1.1 4.5 1.1 0.8 0 7 2.5 9.1 3.7 0.7 0.4 2 1.1 3 1.6 9.4 5.1 18.6 14.8 23.1 24.6 0.3 0.8 1.1 2.5 1.7 3.8 0.6 1.2 1.3 3.1 1.5 4 0.2 1 0.9 3.5 1.5 5.5 1.7 5.8 1.7 303 0 308.8-0.6 2-1.3 4.5-1.5 5.5-0.2 0.9-0.9 2.8-1.5 4-0.6 1.3-1.4 3-1.7 3.8-4.5 9.6-14.5 20.3-23.1 24.7-1 0.5-2.3 1.1-3 1.5-2.2 1.2-8.3 3.7-9.1 3.7-0.4 0-2.5 0.5-4.5 1.1-5.8 1.9-303 1.9-308.8 0-2-0.6-4.1-1.1-4.5-1.1-0.8 0-6.9-2.5-9.1-3.7-0.7-0.4-2-1-3-1.5-8.6-4.4-18.6-15.1-23.1-24.7-0.3-0.8-1.1-2.5-1.7-3.8-0.6-1.2-1.3-3.1-1.5-4-0.2-1-0.9-3.5-1.5-5.5-1.7-5.8-1.7-303 0-308.8 0.6-2 1.3-4.5 1.5-5.5 0.2-0.9 0.9-2.8 1.5-4 0.6-1.3 1.4-3 1.7-3.8 4.5-9.6 14.5-20.3 23.1-24.7 1-0.4 2.3-1.1 3-1.5 2.2-1.2 8.3-3.7 9.1-3.7 0.4 0 2.4-0.5 4.3-1.1 3.2-1 5.4-1.1 26.4-1.2zm78.1 148.6c-0.3 0.7-0.9 1.4-1.2 1.6-0.4 0.3-1.6 2.7-5.2 10.4-1.9 3.9-1 4.7 10.9 9.8 2.1 0.9 5.2 2.3 6.8 3 5.3 2.5 7 1.9 9.2-3 5.4-12.2 12.5-17 25.2-17h8.2l4 2.1c16.8 8.5 18 29.1 2.8 48.1-2.1 2.6-11.2 13.1-12.9 15-1.1 1.1-4.9 5.2-8.5 9.1-3.5 3.8-6.8 7.4-7.3 7.9-0.5 0.5-4.3 4.5-8.5 9-4.2 4.4-8.8 9.3-10.2 10.8-12.8 13.4-18.5 19.6-19.4 20.9-1.7 2.6-1.6 26.7 0.1 27.6 1.7 0.9 107.1 0.9 108-0.1 1.2-1.2 1-24.6-0.3-25.7-0.8-0.6-7.2-0.8-35.3-0.9-24.2-0.1-34.4-0.4-34.4-0.8 0-0.4 2-2.8 4.5-5.3 2.5-2.6 5.1-5.3 5.7-6 2-2.1 20.9-21.9 24-25.2 15.6-16.2 20.8-22.8 27.7-35.8 1.5-2.8 3.4-7.7 3.8-9.5 0.2-1.2 0.8-3 1.3-4.1 1.2-2.3 1.8-18.3 0.9-23.9-2.4-15.3-15.5-32.3-28.4-37.1-1-0.4-2.7-1.1-3.9-1.6-2-1-7.9-2.5-12.8-3.4-20-3.7-45 7.3-54.8 24.1z"/>
	</g>
</svg>