<svg version="1.2" xmlns="http://www.w3.org/2000/svg" viewBox="0 0 400 400" width="24" height="24">
	<title>themed_icon_calendar_21-svg</title>
	<style>
		.s0 { fill: #040404 } 
	</style>
	<g id="svgg">
		<path id="path0" fill-rule="evenodd" class="s0" d="m71.7 0.1l23.9-0.1v5.1c0 10.4 10.3 26.2 20.3 31.4 26.6 13.8 56.7-1.6 61.1-31.3l0.8-5.2h44.4l0.8 5.2c4.4 29.7 34.5 45.1 61.1 31.3 10-5.2 20.3-21 20.3-31.4v-5.1h23.4c19.9 0 24.3 0.3 29.5 2.1 21.4 7.4 33.9 20 40.7 41 2.8 8.5 2.8 305 0 313.4-6.8 21.1-19.3 33.7-40.7 41.1-9.5 3.2-305.1 3.2-314.6 0-21.4-7.4-33.9-20-40.7-41.1-2.8-8.4-2.8-304.9 0-313.4 6.7-20.8 19.1-33.4 40.3-40.9 4.7-1.7 9.5-2 29.4-2.1zm51.4 129.5c-4.8 2.3-17.4 11.7-17.4 12.9 0 0.4-1 1.9-2.3 3.2-2.9 3.2-8.9 14.8-8.9 17.4 0 1.9 2.5 3.3 18.3 10.3 5.5 2.5 6.3 2.1 10.1-5.1 1.8-3.2 3.8-6.5 4.5-7.1 19.4-18.8 50.7-3.3 44.7 22.1-3 12.4-6.6 17.4-33.1 46.2-1.8 1.9-10.5 11.1-19.4 20.4-28 29.5-25.4 25.1-24.9 42l0.3 11.8 54.2 0.3 54.2 0.3-0.3-13.2-0.3-13.3-70.7-1.1 10.1-10.6c5.5-5.9 16-16.7 23.2-24.2 20.3-20.9 26-29 33.3-46.9 11.3-27.7-6.3-61.1-36.4-69.2-10.5-2.8-29.2-1-39.2 3.8zm166.1-0.4c-2.9-0.9-18.8-0.2-19.6 0.8-0.3 0.5-6.6 5.3-14 10.9-7.4 5.5-13.8 10.3-14.1 10.6-0.3 0.3-4.4 3.6-9.2 7.2-10.4 7.8-10.2 6.8-2.8 18.7 7.6 12.1 7.5 12 21.9 1.2l12-9.1 0.6 134.8 13.7-0.3 13.8-0.3v-86.9c0-85.9 0-86.9-2.3-87.6z"/>
	</g>
</svg>