<svg version="1.2" xmlns="http://www.w3.org/2000/svg" viewBox="0 0 400 400" width="24" height="24">
	<title>themed_icon_calendar_15-svg</title>
	<style>
		.s0 { fill: #0000 } 
	</style>
	<g id="svgg">
		<path id="path0" fill-rule="evenodd" class="s0" d="m71.7 0.1l23.9-0.1v5.1c0 10.4 10.3 26.2 20.3 31.4 26.6 13.8 56.7-1.6 61.1-31.3l0.8-5.2h44.4l0.8 5.2c4.4 29.7 34.5 45.1 61.1 31.3 10-5.2 20.3-21 20.3-31.4v-5.1h23.4c19.9 0 24.3 0.3 29.5 2.1 21.4 7.4 33.9 20 40.7 41 2.8 8.5 2.8 305 0 313.4-6.8 21.1-19.3 33.7-40.7 41.1-9.5 3.2-305.1 3.2-314.6 0-21.4-7.4-33.9-20-40.7-41.1-2.8-8.4-2.8-304.9 0-313.4 6.7-20.8 19.1-33.4 40.3-40.9 4.7-1.7 9.5-2 29.4-2.1zm84.5 129h-10.4-10.4l-9.5 7.4c-5.2 4-10.3 7.9-11.2 8.6-1 0.8-7 5.4-13.5 10.2-15.1 11.4-14.7 10-7.1 22 7.9 12.6 8.8 12.5 24.7-1.1 5.4-4.5 8.2-5.9 8.8-4.3 0.3 0.9 0.7 30.8 0.8 66.7l0.3 65.1 13.8 0.3 13.7 0.3zm140.4 0h-91.8l-0.8 5.3c-0.4 3-1.2 9.7-1.7 14.9-0.6 5.3-1.9 15.9-2.9 23.6-0.9 7.7-2.2 18.6-2.8 24.1-0.6 5.6-1.4 12.5-1.8 15.4l-0.7 5.3 12.1 5.6c13.4 6.3 16.1 6.8 19.2 3.3 18.5-20.7 52.1-6.6 52.1 21.9 0 37.4-46.7 43.8-60.1 8.2-2.5-6.5-3.6-7.1-8.9-4.8-2.2 1-5.9 2.6-8.2 3.6-11.5 4.7-12 6.6-5.1 20.6 21.1 42.6 83.9 43.2 104.7 0.9 7.4-15.2 8.8-36.8 3.1-50.2-14.1-33.7-49.2-47.6-75.3-30-1.7 1.2-3.4 1.8-3.8 1.4-0.8-0.7 2.2-25.7 4.3-36.2l1.1-5.9 33.4-0.3 33.3-0.3 0.3-13.2z"/>
	</g>
</svg>