<svg version="1.2" xmlns="http://www.w3.org/2000/svg" viewBox="0 0 192 192" width="24" height="24">
	<title>threads-svg</title>
	<style>
		.s0 { fill: #000000 } 
	</style>
	<path fill-rule="evenodd" class="s0" d="m142.1 88.9c11.7 5.7 20.3 14.1 24.8 24.6 6.3 14.6 6.9 38.3-12.2 57.3-14.6 14.5-32.2 21-57.3 21.2h-0.1c-28.2-0.2-49.8-9.7-64.4-28.1-13-16.4-19.7-39.2-19.9-67.8v-0.2c0.2-28.6 6.9-51.4 19.9-67.8 14.6-18.4 36.3-27.9 64.4-28.1h0.1c28.2 0.2 50.2 9.6 65.2 28 7.4 9 12.8 20 16.3 32.7l-16.2 4.3c-2.9-10.4-7.2-19.2-13-26.2-11.7-14.3-29.3-21.7-52.3-21.8-22.9 0.1-40.2 7.4-51.5 21.7-10.6 13.3-16 32.7-16.2 57.3 0.2 24.7 5.6 44 16.2 57.4 11.2 14.2 28.6 21.5 51.5 21.7 20.6-0.1 34.3-5 45.7-16.3 12.9-13 12.7-28.8 8.5-38.4-2.4-5.7-6.8-10.4-12.8-14-1.5 10.8-4.7 19.4-9.9 25.9-6.9 8.7-16.7 13.5-29.2 14.1-9.5 0.6-18.6-1.7-25.7-6.3-8.3-5.5-13.2-14-13.7-23.8-1.1-19.3 14.3-33.2 38.2-34.5 8.5-0.5 16.4-0.1 23.8 1.1-1-6-3-10.6-5.9-14.1-4-4.6-10.3-7.1-18.6-7.1 0 0-0.1 0-0.2 0-6.7 0-15.7 1.8-21.4 10.6l-13.9-9.5c7.8-11.7 20.3-18.1 35.3-18.1 0.1 0 0.2 0 0.3 0 25.2 0.2 40.2 15.8 41.7 43.1 0.8 0.4 1.6 0.8 2.5 1.2zm-43.4 40.5c10.3-0.6 22-4.5 24-29.3-5.3-1.1-11.2-1.7-17.5-1.7-1.9 0-3.8 0.1-5.8 0.2-17.2 0.9-22.9 9.3-22.5 16.7 0.5 10 11.4 14.7 21.9 14.1z"/>
</svg>