<svg version="1.2" xmlns="http://www.w3.org/2000/svg" viewBox="0 0 24 24" width="24" height="24">
	<title>twitter-svg</title>
	<style>
		.s0 { fill: #000000 } 
	</style>
	<path id="path2" class="s0" d="m24 4.3q-1.3 0.6-2.8 0.8c1-0.6 1.8-1.6 2.1-2.7q-1.4 0.8-3.1 1.2c-0.9-1-2.2-1.6-3.6-1.6-3.2 0-5.5 3-4.8 6-4.1-0.2-7.7-2.1-10.1-5.1-1.3 2.2-0.7 5.1 1.5 6.6-0.8-0.1-1.6-0.3-2.2-0.6-0.1 2.2 1.5 4.4 3.9 4.8-0.7 0.2-1.4 0.3-2.2 0.1 0.6 2 2.4 3.4 4.6 3.5-2.1 1.6-4.7 2.3-7.3 2 2.2 1.4 4.8 2.2 7.5 2.2 9.2 0 14.4-7.7 14-14.6 1-0.7 1.8-1.6 2.5-2.6z"/>
</svg>