<svg version="1.2" xmlns="http://www.w3.org/2000/svg" viewBox="0 0 36 36" width="24" height="24">
	<title>vanced_youtube-svg</title>
	<style>
		.s0 { fill: #000000 } 
	</style>
	<path id="path_0" class="s0" d="m25.3 29.8c2.8 0 5.1-1.7 6.1-4.3l-7.4 4.3z"/>
	<path id="path_1" fill-rule="evenodd" class="s0" d="m36 18.4c0 1.9-0.9 3.6-2.6 4.6l-17.5 10.1c-0.2 0.1-0.6 0.2-0.8 0.3-0.1 0.1-0.2 0.1-0.4 0.1q-0.1 0-0.3 0c-0.9 0-1.7-0.8-1.7-1.7 0-0.7 0.4-1.4 1-1.6 0.1 0 0.1 0 0.1 0 0.1-0.1 0.3-0.1 0.4-0.3l17.5-10.1c0.8-0.4 0.9-1.1 0.9-1.5 0-0.3-0.1-1-0.9-1.5l-0.1-0.1v2c0 0 0 0.1-0.1 0.1l-15.4 8.8-0.4 0.3-1.8 0.9-1.4 0.9h-6.1c-3.5 0-6.4-2.9-6.4-6.4v-10.1c0-3.5 2.9-6.4 6.4-6.4h8.3l-0.4-0.2c-0.1 0-0.2-0.1-0.4-0.1h-0.1c-0.7-0.2-1.3-0.9-1.3-1.8 0-0.7 0.5-1.4 1.1-1.6 0.1 0 0.1 0 0.1 0 0.1-0.1 0.4-0.1 0.6-0.1 0 0 0.1 0 0.2 0 0.1 0 0.2 0.1 0.4 0.1 0.3 0.1 0.7 0.2 1 0.5l5.7 3.2h3.6c2.7 0 5 1.7 5.9 4 0.3 0.6 0.4 1.1 0.5 1.7l2 1.2c1.6 0.9 2.4 2.9 2.4 4.7zm-27.9 9.8c0-0.2-0.2-0.3-0.3-0.3-0.7 0.1-1.3 0.1-1.6 0-0.3 0-0.5-0.2-0.7-0.2-0.5-0.1-1-0.2-1.4-0.5-0.6-0.5-1-1-1.2-1.3-0.3-0.5-0.5-0.8-0.6-1.2 0 0-0.1-0.1-0.2-0.1-0.2 0-0.4 0.2-0.4 0.3 0.2 0.5 0.3 1.4 1.1 2.3 0.7 0.8 1.6 1 2.1 1.1 0.9 0.2 1.7 0.2 1.8 0.2 0.2 0 0.7 0 1 0 0.1 0 0.3-0.1 0.4-0.3zm11.4-10.8l-5.1-2.9c-0.7-0.4-1.5 0.1-1.5 0.9v5.9c0 0.7 0.8 1.3 1.5 0.9l5.1-2.9c0.7-0.4 0.7-1.4 0-1.9zm9.8-5.4c0.1 0 0.2-0.2 0.2-0.3-0.1-0.5-0.2-1.4-1-2.2-0.7-0.8-1.7-1-2.1-1.2-1-0.2-1.8-0.2-1.9-0.2-0.2 0-0.8 0-0.9 0-0.1 0.1-0.3 0.2-0.3 0.4 0 0.2 0.3 0.3 0.4 0.3 0.7-0.1 1.3-0.1 1.6 0 0.2 0 0.5 0.1 0.7 0.1 0.5 0.1 0.9 0.3 1.4 0.6 0.6 0.5 0.9 0.9 1.2 1.3 0.3 0.4 0.4 0.8 0.5 1.1q0.1 0.1 0.2 0.1zm-0.2 0.1c0.2 0 0.2 0 0.2-0.1q-0.1 0.1-0.2 0.1zm0.9 0.8q0-0.4-0.4-0.4-0.3 0-0.3 0.4 0 0.3 0.3 0.3 0.4 0 0.4-0.3z"/>
</svg>