<svg version="1.2" xmlns="http://www.w3.org/2000/svg" viewBox="0 0 24 24" width="24" height="24">
	<title>via_browser-svg</title>
	<style>
		.s0 { fill: #000000 } 
	</style>
	<g id="g2646">
		<path id="path1370" fill-rule="evenodd" class="s0" d="m13.5 8.4l-8.2 10.1q0 0-0.1 0.1 0 0-0.1 0-0.1 0.1-0.2 0-0.1 0-0.1 0l-4.8-1.7 12.4-14.2zm4.5-5.6l-3.3 4.1-0.7-4.1z"/>
		<path id="path1372" class="s0" d="m5.2 5.3l-3 0.4q-0.1 0-0.1 0-0.1 0.1-0.2 0.1 0 0.1 0 0.1-0.1 0.1-0.1 0.2l-1.6 9.4 5.2-6 0.2-3.9q0 0-0.1-0.1 0-0.1 0-0.1-0.1-0.1-0.2-0.1 0 0-0.1 0zm0.2 6.6l-4.1 4.7 3.6 1.3 0.3-0.4z"/>
		<path id="path1368" class="s0" d="m17.5 21.9l6-1.2q0.1 0 0.2-0.1 0.1 0 0.2-0.2 0.1-0.1 0.1-0.2 0-0.2 0-0.3l-5.3-17.5q0-0.1-0.1-0.2 0-0.1-0.1-0.1 0 0-0.1-0.1-0.1 0-0.2 0h-5.2l3.6 19.3q0 0.1 0.1 0.2 0.1 0.2 0.2 0.2 0.1 0.1 0.3 0.2 0.1 0 0.3 0z"/>
	</g>
</svg>