<svg version="1.2" xmlns="http://www.w3.org/2000/svg" viewBox="0 0 36 36" width="24" height="24">
	<title>vivaldi-svg</title>
	<style>
		.s0 { fill: #000000 } 
	</style>
	<path id="path_0" class="s0" d="m35.3 8.8q-6.6 11.6-13.3 23.2-0.2 0.5-0.6 0.9-0.4 0.4-0.9 0.8-0.5 0.3-1 0.5-0.6 0.1-1.2 0.2-0.6 0-1.2-0.1-0.6-0.1-1.2-0.4-0.6-0.3-1-0.7-0.5-0.5-0.8-1-4.2-7.3-8.4-14.6-2.5-4.4-5.1-8.8c-0.4-0.7-0.6-1.4-0.6-2.2 0-0.8 0.2-1.6 0.5-2.2 0.4-0.7 0.9-1.3 1.6-1.7 0.7-0.4 1.4-0.7 2.2-0.7q0.6 0 1.2 0.1 0.6 0.1 1.2 0.5 0.5 0.3 1 0.7 0.4 0.5 0.7 1 1.9 3.2 3.7 6.5c0.9 1.5 1.8 3.1 2.7 4.6q0.5 0.8 1.1 1.5 0.6 0.6 1.4 1.1 0.8 0.5 1.6 0.8 0.9 0.2 1.8 0.3 1.4 0 2.7-0.4 1.3-0.4 2.4-1.3 1-0.9 1.7-2.1 0.6-1.2 0.8-2.6c0-0.3 0-0.6 0-0.7q0-0.5 0-0.9 0-0.4-0.1-0.9-0.1-0.4-0.3-0.8-0.1-0.4-0.3-0.8c-0.8-1.4-0.7-3.1 0.1-4.4 0.9-1.4 2.3-2.2 3.9-2.2 1.6 0.1 3.1 1 3.9 2.4 0.7 1.4 0.7 3.1-0.2 4.4z"/>
</svg>