<svg version="1.2" xmlns="http://www.w3.org/2000/svg" viewBox="0 0 36 36" width="24" height="24">
	<title>vlc-svg</title>
	<style>
		.s0 { fill: #000000 } 
	</style>
	<path id="path_0" fill-rule="evenodd" class="s0" d="m18.8 5.8q0.4-0.1 0.8-0.2 0.4-0.1 0.8-0.3 0.4-0.1 0.7-0.3l-1.2-3.6q-0.2-0.6-0.7-1-0.6-0.4-1.2-0.4-0.6 0-1.2 0.4-0.5 0.4-0.7 1l-1.2 3.6q0.3 0.2 0.7 0.3 0.4 0.2 0.8 0.3 0.4 0.1 0.8 0.2 0.4 0 0.8 0 0.4 0 0.8 0zm7.2 13.3l-2.6-7.5q-1.1 1-2.5 1.5-1.4 0.5-2.9 0.5-1.5 0-2.9-0.5-1.4-0.5-2.5-1.5l-2.6 7.5q0.9 0.7 1.8 1.2 1 0.5 2 0.9 1 0.3 2.1 0.5 1 0.2 2.1 0.2 1.1 0 2.1-0.2 1.1-0.2 2.1-0.5 1-0.4 2-0.9 0.9-0.5 1.8-1.2zm8.6 14.4l-2.6-9.6q-0.1-0.3-0.3-0.6-0.2-0.3-0.4-0.5-0.3-0.2-0.6-0.3-0.3-0.1-0.7-0.1h-2.9l0.9 2.6q0.1 0.3 0.1 0.6 0 0.3-0.1 0.7-0.1 0.3-0.3 0.5-0.2 0.3-0.5 0.4-2 1.4-4.4 2.1-2.3 0.7-4.8 0.7-2.5 0-4.8-0.7-2.4-0.7-4.4-2.1-0.3-0.1-0.5-0.4-0.2-0.2-0.3-0.5-0.1-0.4-0.1-0.7 0-0.3 0.1-0.6l0.9-2.6h-2.9q-0.4 0-0.7 0.1-0.3 0.1-0.6 0.3-0.2 0.2-0.4 0.5-0.2 0.3-0.3 0.6l-2.6 9.6q-0.2 0.4-0.1 0.9 0.1 0.4 0.4 0.8 0.3 0.4 0.7 0.6 0.4 0.2 0.9 0.2h29.4q0.5 0 0.9-0.2 0.4-0.2 0.7-0.6 0.3-0.4 0.4-0.8 0.1-0.5-0.1-0.9z"/>
</svg>