<svg version="1.2" xmlns="http://www.w3.org/2000/svg" viewBox="0 0 400 400" width="24" height="24">
	<title>voice_search-svg</title>
	<style>
		.s0 { fill: #040404 } 
		.s1 { fill: #080404 } 
	</style>
	<g id="svgg">
		<path id="path0" fill-rule="evenodd" class="s0" d="m211 0.6c6.8 1.8 16.2 5.3 17.8 6.8 0.4 0.3 0.8 0.6 1.1 0.6 0.2 0 0.7 0.3 1.1 0.7 0.5 0.4 1.7 1.3 2.9 2 1.2 0.8 2.1 1.5 2.1 1.7 0 0.2 0.2 0.4 0.5 0.4 0.2 0 1.2 0.8 2.1 1.7 1 0.9 2.1 2 2.5 2.3 0.9 0.8 4.4 4.9 5.2 6.1 0.4 0.5 0.8 1 0.9 1.1 0.5 0.5 1.9 2.7 2.2 3.5 0.1 0.5 0.4 0.9 0.6 0.9 0.2 0 0.4 0.3 0.4 0.6 0 0.3 0.5 1.3 1.1 2.3 1.3 1.9 3.3 6.7 3.3 7.9 0 0.4 0.2 0.9 0.4 1 0.2 0.1 0.4 0.6 0.4 1.1 0 0.5 0.3 1.7 0.6 2.6 2.3 6.6 2.2 3.2 2.2 83.8 0 72.2 0 73.9-0.8 77.8-1.5 7.2-3.7 14.4-5.6 17.9-2.5 4.5-4.7 8-6.2 9.5-0.5 0.6-1 1.3-1 1.4 0 0.7-5.9 6.5-9 8.9-3.7 2.9-11 7.2-12.3 7.2-0.3 0-0.9 0.2-1.3 0.5-0.9 0.7-3.9 1.9-5.6 2.3-0.7 0.2-2.2 0.6-3.4 0.9-6 1.7-20.8 1.7-26.8 0-1.2-0.3-2.8-0.7-3.6-0.9-1.2-0.3-6-2.2-9.4-3.8-7.5-3.6-19.2-13.8-21.7-19.1-0.4-0.6-0.7-1.1-0.9-1.1-0.2 0-0.6-0.7-1-1.6-0.3-0.9-1.1-2.3-1.8-3.3-0.7-0.9-1.2-1.9-1.2-2.3 0-0.4-0.2-0.9-0.4-1-0.7-0.5-3.6-10.1-4.6-15.6-0.7-4-0.9-151.7-0.2-154.9 0.2-1.1 0.6-2.8 0.8-3.9 0.7-3.3 3.3-11.1 3.9-11.8 0.3-0.4 0.5-1 0.5-1.4 0-0.3 0.6-1.6 1.4-2.8 0.8-1.1 1.4-2.2 1.4-2.4 0-0.3 2.8-4.6 3.2-5 0.1-0.1 1.4-1.6 2.9-3.4 1.5-1.8 3.5-3.8 4.4-4.6 0.9-0.8 2.4-2 3.3-2.8 3.3-2.9 10.4-7.2 11.8-7.2 0.4 0 0.8-0.2 0.8-0.4 0-0.2 0.3-0.4 0.7-0.4 0.4 0 0.9-0.2 1.1-0.4 0.4-0.3 6.2-2.2 10-3.3 0.9-0.2 1.8-0.5 2-0.5 1.6-0.5 19.1-0.1 21.2 0.4zm-155.1 195h44.4l0.2 4.3c0.4 7.4 1.1 13.3 1.7 15.7 0.4 1.2 0.9 3.1 1.2 4.1 0.3 1.1 0.6 2.4 0.6 3 0 0.5 0.3 1.5 0.6 2.1 0.3 0.7 0.7 2 0.9 3 0.1 1 0.4 1.9 0.6 2 0.1 0.2 0.3 0.6 0.3 0.9 0 0.4 0.6 2 1.4 3.5 0.8 1.5 1.4 2.9 1.4 3.1 0 0.5 3.4 7.3 4.2 8.5 0.5 0.7 1.3 2 1.8 3 0.5 1 1.2 1.9 1.5 2.1 0.3 0.2 0.5 0.6 0.5 0.9 0 0.3 0.5 1.2 1.1 1.9 0.6 0.7 1.6 2.1 2.3 3.1 0.6 1 1.8 2.5 2.6 3.3 0.8 0.9 1.6 1.9 1.8 2.2 0.2 0.4 1.7 2 3.3 3.6 1.6 1.5 2.9 3 2.9 3.2 0 0.3 0.3 0.5 0.7 0.7 0.4 0.1 1.8 1.3 3.2 2.6 1.4 1.3 2.7 2.4 2.8 2.4 0.3 0 2.2 1.5 5.6 4.2 0.6 0.5 1.4 1 1.6 1 0.2 0 0.7 0.3 1.1 0.6 1.6 1.2 7 4.6 7.4 4.6 0.4 0 3.3 1.3 3.6 1.6 0.2 0.2 2.8 1.5 5.6 2.7 1 0.4 2.4 0.9 3.2 1.1 0.7 0.2 2.2 0.7 3.2 1.1 3.1 1.4 3.6 1.5 12.6 3.3 6.7 1.4 23.9 1.7 32.6 0.6 4.3-0.6 12.6-2.5 14.5-3.4 0.7-0.3 2.6-1 4.1-1.4 3.3-1.1 5.3-1.9 9.5-4 1.7-0.9 3.4-1.6 3.7-1.6 0.3 0 0.6-0.2 0.6-0.4 0-0.2 0.2-0.4 0.4-0.4 0.3 0 1.5-0.7 2.8-1.6 1.3-0.9 2.5-1.6 2.8-1.6 0.2 0 0.4-0.2 0.4-0.4 0-0.2 0.4-0.5 0.9-0.6 0.5-0.2 1.3-0.7 1.9-1.2 0.5-0.5 1.4-1.1 1.8-1.4 4.6-3.1 16.6-14.2 16.6-15.3 0-0.2 0.6-0.9 1.3-1.6 1.7-1.7 2.6-2.9 4-5.1 0.7-1 1.3-1.9 1.5-2 0.5-0.4 3.2-4.7 3.2-5.1 0-0.3 0.2-0.5 0.4-0.5 0.2 0 0.4-0.2 0.4-0.5 0-0.2 0.6-1.4 1.4-2.5 0.8-1.2 1.4-2.3 1.4-2.5 0-0.2 0.5-1.4 1.2-2.7 0.7-1.3 1.2-2.5 1.2-2.7 0-0.1 0.6-1.6 1.4-3.2 0.8-1.6 1.7-4 2-5.3 0.3-1.3 0.9-3.4 1.4-4.6 0.4-1.2 0.8-2.6 0.8-3 0-0.5 0.3-1.9 0.6-3.2 1.5-5.3 1.9-8.3 2.1-15l0.3-7 22.3-0.1 22.3-0.1v7.8c0 7.8-0.3 11.2-1.4 16.2-0.3 1.4-0.8 4-1 5.6-0.2 1.7-0.8 4.4-1.4 6.2-0.6 1.8-1.2 4.1-1.3 5.2-0.1 1.1-0.4 2.4-0.7 2.9-0.4 0.5-0.6 1.2-0.6 1.6 0 0.4-0.1 0.9-0.3 1-0.2 0.3-1.4 3.4-3.3 9.1-0.5 1.2-1.3 3.3-2 4.6-2.8 6-4 8.5-4 8.9 0 0.3-0.2 0.5-0.4 0.5-0.2 0-0.4 0.3-0.4 0.6 0 0.3-0.1 0.6-0.3 0.6-0.2 0-0.5 0.4-0.7 0.8-0.2 0.4-0.8 1.6-1.4 2.7-0.5 1-1.1 2-1.2 2.1-0.2 0.1-0.4 0.6-0.5 1-0.2 0.4-0.7 1.3-1.3 1.8-0.5 0.6-1.2 1.7-1.6 2.4-0.4 0.8-1.1 1.9-1.7 2.5-0.5 0.7-0.9 1.4-0.9 1.7 0 0.3-0.2 0.7-0.5 0.9-0.3 0.2-1.1 1.2-1.9 2.2-0.8 1.1-1.8 2.4-2.3 3-0.5 0.5-0.9 1.1-0.9 1.3 0 0.2-0.6 0.8-1.4 1.4-0.8 0.6-1.4 1.3-1.4 1.5 0 1.3-12.8 13.8-18.8 18.5-4.8 3.7-6 4.6-6.2 4.6-0.2 0-0.9 0.5-1.7 1.2-0.7 0.7-1.5 1.2-1.7 1.2-0.3 0-1 0.5-1.7 1.2-0.7 0.7-1.8 1.3-2.3 1.5-0.5 0.1-1.6 0.7-2.3 1.4-0.7 0.6-1.5 1.1-1.7 1.1-0.3 0-1.2 0.5-2.1 1.1-0.9 0.7-2.4 1.4-3.2 1.7-0.8 0.2-1.5 0.6-1.5 0.8 0 0.2-0.3 0.4-0.7 0.5-0.4 0.2-1.2 0.5-1.7 0.8-2.2 1.3-5.5 2.7-6.9 2.9-0.8 0.2-1.6 0.5-1.7 0.6-0.5 0.8-6.8 3.3-10.8 4.2-2.5 0.7-8.1 2.4-9.8 3.1-0.5 0.2-2.6 0.6-4.6 1-2 0.3-4.1 0.7-4.7 0.8l-1.1 0.2v59.9h-47.8l0.1-29.9 0.1-30-3.9-0.7c-4.1-0.7-6.6-1.3-11.1-2.8-1.5-0.6-3.9-1.2-5.2-1.6-3-0.7-7.9-2.5-10-3.6-0.9-0.5-2.1-1-2.8-1.2-1.1-0.2-4.2-1.6-6.4-2.7-0.4-0.3-1.3-0.7-1.9-1-0.6-0.3-1.1-0.7-1.1-0.9 0-0.2-0.5-0.4-1.2-0.5-0.7-0.2-2-0.8-3-1.5-1-0.7-1.9-1.2-2.2-1.2-0.2 0-0.8-0.3-1.2-0.8-0.4-0.4-1.8-1.2-3-1.8-1.2-0.6-2.2-1.2-2.2-1.4 0-0.2-0.8-0.8-1.7-1.2-0.9-0.5-2-1.2-2.3-1.6-0.3-0.4-1-0.8-1.5-1-0.5-0.1-0.9-0.4-0.9-0.6 0-0.2-0.2-0.4-0.4-0.4-0.2 0-0.9-0.4-1.5-1-3.3-2.8-3.9-3.4-4.2-3.4-0.2 0-1.3-0.9-2.5-2.1-3.7-3.4-8.8-8.3-9.1-8.6-0.1-0.2-1.5-1.6-3.1-3.3-1.5-1.6-2.9-3.4-3-3.8-0.1-0.5-0.6-1-1.1-1.2-0.5-0.2-1-0.8-1.3-1.2-0.2-0.4-0.6-0.9-0.9-1.1-0.3-0.2-0.8-0.9-1.2-1.6-0.3-0.7-0.8-1.4-1.1-1.6-0.6-0.3-3.2-4-4.3-5.9-0.7-1.3-1.7-2.8-2.8-4.1-0.4-0.4-0.7-1-0.7-1.2 0-0.3-0.3-0.7-0.6-1.1-0.3-0.3-1-1.6-1.6-2.8-0.7-1.2-1.3-2.3-1.4-2.4-0.2-0.1-1.3-2.2-2.4-4.6-1.1-2.4-2.6-5.4-3.2-6.6-0.6-1.2-1.3-3-1.6-4-0.3-1-0.7-2-0.8-2.2-0.6-0.7-4.4-11.6-4.4-12.4 0-0.9-1.4-6.4-1.8-7-0.1-0.2-0.5-2-0.9-3.9-0.3-1.9-0.7-4.4-0.9-5.5-0.2-1.1-0.6-2.7-0.8-3.6-0.3-0.9-0.6-6.1-0.7-11.7z"/>
		<path id="path1" class="s1" d=""/>
		<path id="path2" class="s1" d=""/>
		<path id="path3" class="s1" d=""/>
		<path id="path4" class="s1" d=""/>
		<path id="path5" class="s1" d=""/>
		<path id="path6" class="s1" d=""/>
		<path id="path7" class="s1" d=""/>
		<path id="path8" class="s1" d=""/>
	</g>
</svg>