<svg version="1.2" xmlns="http://www.w3.org/2000/svg" viewBox="0 0 36 36" width="24" height="24">
	<title>whatsapp_business-svg</title>
	<style>
		.s0 { fill: #000000 } 
	</style>
	<path id="path_0" fill-rule="evenodd" class="s0" d="m30.8 5.2q1.2 1.3 2.2 2.7 1 1.5 1.6 3.1 0.7 1.6 1.1 3.4 0.3 1.7 0.3 3.5c0 2.3-0.5 4.6-1.4 6.8-0.9 2.2-2.2 4.1-3.9 5.8-1.6 1.6-3.6 2.9-5.8 3.8-2.2 0.9-4.5 1.4-6.8 1.4q-1.1 0-2.3-0.1-1.1-0.2-2.2-0.5-1-0.2-2.1-0.6-1-0.4-2-1l-9.5 2.5 2.5-9.2q-0.5-1.1-1-2.1-0.4-1.1-0.7-2.2-0.3-1.2-0.5-2.3-0.2-1.2-0.1-2.4c0-3.5 1-7 3-9.9 2-2.9 4.8-5.2 8.1-6.5 3.2-1.4 6.8-1.7 10.3-1.1 3.5 0.7 6.6 2.4 9.2 4.9zm-7 26.4c1.8-0.8 3.4-1.9 4.8-3.3 1.4-1.3 2.5-3 3.2-4.8 0.8-1.8 1.2-3.7 1.2-5.6q0-1.5-0.3-2.9-0.3-1.5-0.9-2.8-0.5-1.4-1.3-2.6-0.8-1.2-1.9-2.2c-2.6-2.6-6-4.2-9.7-4.4-3.6-0.2-7.2 1-10 3.2-2.9 2.3-4.8 5.5-5.5 9.1-0.6 3.6 0.1 7.3 2.1 10.4l0.3 0.6-1.5 5.5 5.6-1.5 0.6 0.3q0.8 0.5 1.8 0.9 0.9 0.4 1.8 0.7 1 0.2 2 0.3 1 0.2 2 0.2c1.9 0 3.9-0.4 5.7-1.1z"/>
	<path id="path_1" fill-rule="evenodd" class="s0" d="m11.7 25.6c0-3.2 0-10.5 0-13.3 0-1.7-0.3-2.8 1.2-2.8 4.1 0 10-0.7 11.4 2.6 1.4 3.4-0.8 5-1.3 5.9 3.3 1 3.5 8.5-3.7 8.5-1.6 0-3.7 0.1-6.3 0.1q-0.1 0-0.2 0-0.1 0-0.2 0-0.2 0-0.3-0.1-0.1 0-0.2 0c-0.2-0.1-0.4-0.2-0.4-0.9zm3.5-1.9c0.7 0 2.3 0 3.7 0 1.5 0 2.9-0.7 2.9-2.3 0-1.4-1-1.9-2.4-2.1-1.3 0.1-2.7 0.1-4.2 0.1zm0-7.3q0.7 0 1.3 0 0.7 0 1.3 0 0.7 0 1.3-0.1 0.7-0.1 1.3-0.2c1.1-0.6 1.5-2.7 0.1-3.4-1.1-0.5-4.1-0.4-5.3-0.3z"/>
</svg>