<svg version="1.2" xmlns="http://www.w3.org/2000/svg" viewBox="0 0 24 24" width="24" height="24">
	<title>whatsapp-svg</title>
	<style>
		.s0 { fill: #000000 } 
	</style>
	<path id="Layer" fill-rule="evenodd" class="s0" d="m12 24c-2.6 0-4.5-0.7-6.6-1.9l-4.5 1.2 1.2-4.5c-1.3-2.1-2.1-4.1-2.1-6.8 0-6.6 5.4-12 12-12 6.6 0 12 5.4 12 12 0 6.6-5.4 12-12 12zm6.6-9c-0.4-0.2-2.2-1-2.5-1.2-0.3-0.1-0.6-0.1-0.8 0.2-0.2 0.4-0.9 1.2-1.1 1.4-0.2 0.3-0.5 0.3-0.8 0.1q-0.1 0-0.3-0.1c-0.5-0.2-1.5-0.6-2.6-1.7-1.1-0.9-1.8-2.1-2-2.5-0.2-0.3-0.1-0.5 0.1-0.7q0.2-0.2 0.4-0.4 0.1-0.1 0.2-0.2c0.1-0.2 0.2-0.3 0.3-0.5q0-0.1 0-0.1c0.2-0.3 0.1-0.5 0-0.7-0.1-0.1-0.4-1-0.7-1.7-0.2-0.4-0.3-0.7-0.4-0.9-0.3-0.7-0.5-0.7-0.7-0.7q-0.1 0-0.1 0h-0.7c-0.3 0-0.6 0.1-1 0.5q0 0 0 0.1c-0.4 0.4-1.2 1.2-1.2 2.9 0 1.8 1.2 3.5 1.4 3.7q0.1 0 0.1 0.1c0.4 0.6 2.7 3.9 6.1 5.4 0.9 0.3 1.5 0.6 2.1 0.7 0.8 0.3 1.6 0.3 2.2 0.2 0.7-0.1 2.2-0.9 2.5-1.7 0.3-0.9 0.3-1.6 0.2-1.8-0.1-0.1-0.3-0.2-0.5-0.3q-0.1 0-0.2-0.1z"/>
</svg>