<svg version="1.2" xmlns="http://www.w3.org/2000/svg" viewBox="0 0 170 170" width="24" height="24">
	<title>x-svg</title>
	<style>
		.s0 { fill: #000000 } 
	</style>
	<g id="Folder 1">
		<path id="&lt;Compound Path&gt;" fill-rule="evenodd" class="s0" d="m168.1 170h-49l-3.3-4.8-42.5-61.8-6.3-9.1-52.9-77-12-17.3h49l3.3 4.8 39.8 57.8 6.3 9.2 55.6 80.9zm-21-11.1l-54-78.5-6.3-9.1-41.5-60.3h-22.1l51.3 74.5 6.3 9.2 44.2 64.2z"/>
		<path id="&lt;Path&gt;" class="s0" d="m74.5 85.6l6.3 9.1-7.5 8.7-57.2 66.6h-14.2l65.1-75.7z"/>
		<path id="&lt;Path&gt;" class="s0" d="m162.2 0l-61.7 71.8-7.5 8.7-6.3-9.2 7.5-8.7 41.8-48.6 12.1-14z"/>
	</g>
</svg>