<svg version="1.2" xmlns="http://www.w3.org/2000/svg" viewBox="0 0 400 400" width="24" height="24">
	<title>x-svg</title>
	<style>
		.s0 { fill: #040404 } 
	</style>
	<path id="path0" fill-rule="evenodd" class="s0" d="m325.3 44.1c103.1 82.9 99.2 240.3-7.9 318.2-81.3 59.2-197 47.5-264.2-26.7-114.1-126-33.3-323.5 137.2-335.2 45.9-3.2 97.3 13.5 134.9 43.7zm-167.7 48.9h-30.9-31l3.6 5.1c32.4 46.7 78.1 113.8 77.8 114.2-0.3 0.6-77.9 91.1-80.4 93.8l-1.1 1.2h17.9l36-41.9 36.1-41.9 5.9 8.5c3.2 4.7 16.2 23.6 28.8 41.9l23 33.4h30.9 31l-1.9-2.6c-20-27.8-83.3-121.3-82.6-122.1 0.5-0.5 17.9-20.8 38.7-45 20.8-24.3 37.9-44.2 37.9-44.4 0-0.1-3.9-0.2-8.6-0.2h-8.5l-2 2.1c-1.1 1.1-16.1 18.4-33.2 38.4-17.2 20-31.7 36.9-32.2 37.4-0.9 0.9-2.4-1.1-28-38.5zm-35.2 14l27.9 0.1 23.9 34.8c32.6 47.5 32.3 47.1 69.3 100.8 18.1 26.2 33.3 48.3 33.8 49.2l1 1.5h-27.8l-28.3-41.2c-15.5-22.7-30.1-43.9-32.4-47.2-7.5-10.8-65.4-94.9-66.4-96.5z"/>
</svg>