<svg version="1.2" xmlns="http://www.w3.org/2000/svg" viewBox="0 0 192 192" width="24" height="24">
	<title>youtube_rvx-svg</title>
	<style>
		.s0 { fill: #000000 } 
		.s1 { opacity: .5;fill: #000000 } 
	</style>
	<path fill-rule="evenodd" class="s0" d="m39.6 27.3c14.1-2.3 32.9-4.3 56.4-4.3 23.5 0 42.3 2 56.4 4.3 23.9 4 38.5 24.8 39.2 47.3 0.2 7.5 0.4 15.2 0.4 21.8 0 6.6-0.2 14.3-0.4 21.8-0.7 22.6-15.3 43.3-39.2 47.3-14.1 2.4-32.9 4.3-56.4 4.3-23.5 0-42.3-1.9-56.4-4.3-23.9-4-38.5-24.8-39.2-47.3-0.2-7.4-0.4-15.2-0.4-21.8 0-6.6 0.2-14.3 0.4-21.7 0.7-22.6 15.3-43.4 39.2-47.4zm56.4 14.5c-22.4 0-40.2 1.9-53.4 4.1-13.5 2.2-22.9 14.1-23.4 29.3-0.2 7.4-0.4 14.9-0.4 21.2 0 6.3 0.2 13.8 0.4 21.2 0.5 15.2 9.9 27.1 23.4 29.4 13.2 2.1 31 4 53.4 4 22.4 0 40.2-1.9 53.3-4 13.5-2.3 23-14.2 23.5-29.4v-0.1c0.2-7.3 0.4-14.7 0.4-21.1 0-6.3-0.2-13.8-0.4-21.1v-0.1c-0.5-15.2-10-27.1-23.5-29.3-13.1-2.2-30.9-4.1-53.3-4.1z"/>
	<path class="s0" d="m50.8 82.6c0-9.6 9.7-15.7 17.4-10.8l22 13.7c7.7 4.9 7.7 17 0 21.8l-22 13.8c-7.7 4.8-17.4-1.2-17.4-10.9z"/>
	<path class="s1" d="m77.2 76.7c0-13.8 13.6-22.4 24.6-15.5l31.2 19.7c10.9 6.9 10.9 24.1 0 31.1l-31.2 19.6c-11 6.9-24.6-1.7-24.6-15.5z"/>
</svg>