<svg version="1.2" xmlns="http://www.w3.org/2000/svg" viewBox="0 0 24 24" width="24" height="24">
	<title>youtube-svg</title>
	<style>
		.s0 { fill: #000000 } 
	</style>
	<path id="path4" fill-rule="evenodd" class="s0" d="m22.7 5.3q0.6 0.6 0.8 1.3c0.8 3.2 0.6 8.3 0 11.6q-0.2 0.8-0.8 1.3-0.6 0.6-1.3 0.8c-1.9 0.5-9.4 0.5-9.4 0.5 0 0-7.5 0-9.4-0.5q-0.7-0.2-1.3-0.8-0.6-0.5-0.8-1.3c-0.8-3.2-0.6-8.2 0-11.6q0.2-0.7 0.8-1.3 0.6-0.6 1.3-0.8c1.9-0.5 9.4-0.5 9.4-0.5 0 0 7.5 0 9.3 0.5q0.8 0.2 1.4 0.8zm-13.1 3.5v7.2l6.2-3.6z"/>
</svg>