<svg version="1.2" xmlns="http://www.w3.org/2000/svg" viewBox="0 0 108 108" width="24" height="24">
	<title>youtube_rvx-svg</title>
	<style>
		.s0 { opacity: .4;fill: #000000 } 
		.s1 { opacity: .7;fill: #000000 } 
		.s2 { fill: #000000 } 
	</style>
	<path id="path_0" class="s0" d="m0.3 40.6c0.3-11.8 7.8-22 19.5-23.9 8.5-1.4 19.9-2.6 34.2-2.6 14.3 0 25.7 1.2 34.2 2.6 11.7 1.9 19.2 12.1 19.5 23.9 0.2 4.6 0.3 9.4 0.3 13.4 0 4-0.1 8.8-0.3 13.4-0.3 11.8-7.8 22-19.5 23.9-8.5 1.4-19.9 2.6-34.2 2.6-14.3 0-25.7-1.2-34.2-2.6-11.7-1.9-19.2-12.1-19.5-23.9-0.2-4.6-0.3-9.4-0.3-13.4 0-4 0.1-8.8 0.3-13.4z"/>
	<path id="path_1" class="s1" d="m42.3 41.7c0-8.6 8.5-14 15.3-9.7l19.5 12.3c6.8 4.3 6.8 15.1 0 19.4l-19.5 12.3c-6.8 4.3-15.3-1.1-15.3-9.7z"/>
	<path id="path_2" class="s2" d="m25.8 45.4c0-6 6-9.8 10.9-6.8l13.7 8.6c4.8 3 4.8 10.6 0 13.6l-13.7 8.6c-4.9 3-10.9-0.8-10.9-6.8z"/>
</svg>