<svg version="1.2" xmlns="http://www.w3.org/2000/svg" viewBox="0 0 1200 1200" width="24" height="24">
	<title>yt_afn-svg</title>
	<style>
		.s0 { fill: #000000 } 
	</style>
	<path id="path_0" fill-rule="evenodd" class="s0" d="m213.8 160.2c4.3-68.3 69.3-126.1 137.6-122 24.9-0.5 49.1 7.3 70.2 20.2 236.4 141.2 473.1 282.4 709.9 423.3 27.8 16.1 50.2 41.5 61 72 12.4 37.8 9.9 81-10.8 115.3-11.9 21.6-31.1 38-51.9 50.4-236.7 141.2-473.4 282.4-710.4 423.5-41.5 25.9-97.7 26.5-139.5 0.8-32.9-19.1-57.8-52.9-64.2-90.7-2.2-10.5-2.2-21-2.5-31.8 0-28.3 0-56.4 0-84.8-29.7 21.4-60.4 41.1-90.7 61-36.4 23-89.8 10-110.9-27.5-7.6-12.9-11.9-27.8-11.3-42.9-0.3-214.3 0-428.6-0.3-642.7 0-15.1 0.5-30.7 7.6-44.5 17.5-41.6 74.2-60.2 112.8-36.4 31 20.5 62.1 41 92.8 62.1 0.6-35.1-0.8-70.2 0.6-105.3zm58.8-14.9c-3.2 10-4.9 20.6-4.9 31.1-0.2 41.5 0.3 83.1 0 124.7 117.5 79.6 236.2 157.6 354.2 236.7 15.6 11.6 25.3 29.7 29.1 48.6 4.9 21.8-2.4 45-14.6 63.4-7.2 9.2-16.7 16.2-26.4 22.7-111.2 73.9-222.1 148.2-333.3 222.4-3.6 2.7-10 4.3-9 10 0 38.8 0 77.4 0 116.3 0 13.5 1.7 27.3 7.1 39.9 9.1 16.5 22.4 32.2 40.5 39.2 24.2 11.3 53.9 10 76.3-4.3 238.4-142 476.7-284.3 715.3-426.5 10.3-5.4 17.5-14.3 24.8-23.5 13.3-17.5 16-41.3 12.2-62.6-3.8-24-21.3-44.3-42.4-55.9-212.2-126.6-424.6-253.1-636.7-379.7-26.7-15.7-53.2-31.9-79.9-47.3-41.3-21.3-97.4 1.1-112.3 44.8zm-30.8 223.5c-6.4 8.4-12.6 18.1-11.8 29.2 0 135.5 0 271.5 0 407-0.3 21.1 19.1 41 40.4 39.1 14.6-0.2 26.8-9.9 38.1-18 91.8-64.3 183.8-128.3 275.3-192.8 9.5-5.6 12.7-16.7 16.2-26.4 0-3.5 0-7.3 0-11.1-3.5-9.4-6.7-20.5-16.2-26.2-67.7-47.7-136.3-95.2-204.3-143-31.6-21.3-61.8-44.5-94.2-65.1-14-5.6-31.9-2.9-43.5 7.3z"/>
</svg>