<svg version="1.2" xmlns="http://www.w3.org/2000/svg" viewBox="0 0 108 108" width="24" height="24">
	<title>yt_mmt-svg</title>
	<style>
		.s0 { fill: #000000 } 
	</style>
	<path id="path_0" fill-rule="evenodd" class="s0" d="m35.7 96c-0.3 1.7 0 3.4 1.1 4.8q1.7 2.1 4.2 2.5c1.7 0.3 3.4 0 4.9-1.1l59.1-43.3c4-2.8 4-7.4 0-10.2l-59.1-43c-1.5-0.9-3.2-1.4-4.9-1.2q-2.5 0.5-4.2 2.6c-0.8 1.4-1.4 3.1-1.1 4.8q0.4 2.5 2.5 4.2l46.7 34c2.9 2.3 2.9 5.7 0 7.7l-46.7 33.9q-2.1 1.7-2.5 4.3zm-23.5 2.8l50.9-36.2c6.8-4.8 6.8-12.5 0-17.3l-50.9-35.9c-6.8-4.9-12.2-2-12.2 6.2v76.7c0 8.2 5.4 11 12.2 6.5z"/>
</svg>