<svg version="1.2" xmlns="http://www.w3.org/2000/svg" viewBox="0 0 192 192" width="24" height="24">
	<title>ytm_rvx-svg</title>
	<style>
		.s0 { opacity: .5;fill: #000000 } 
		.s1 { fill: #000000 } 
	</style>
	<g>
		<path class="s0" d="m76.3 75.4c0-14.4 14.3-23.4 25.8-16.2l32.5 20.6c11.5 7.2 11.5 25.2 0 32.4l-32.5 20.6c-11.5 7.2-25.8-1.8-25.8-16.2z"/>
		<path fill-rule="evenodd" class="s1" d="m59.3 7.3c11.6-4.8 24.1-7.3 36.7-7.3 12.6 0 25.1 2.5 36.7 7.3 11.7 4.8 22.3 11.9 31.2 20.8 8.9 8.9 16 19.5 20.8 31.2 4.8 11.6 7.3 24.1 7.3 36.7 0 12.6-2.5 25.1-7.3 36.7-4.8 11.7-11.9 22.3-20.8 31.2-8.9 8.9-19.5 16-31.2 20.8-11.6 4.8-24.1 7.3-36.7 7.3-12.6 0-25.1-2.5-36.7-7.3-11.7-4.8-22.3-11.9-31.2-20.8-8.9-8.9-16-19.5-20.8-31.2-4.8-11.6-7.3-24.1-7.3-36.7 0-12.6 2.5-25.1 7.3-36.7 4.8-11.7 11.9-22.3 20.8-31.2 8.9-8.9 19.5-16 31.2-20.8zm36.7 3.8c-11.2 0-22.2 2.2-32.5 6.4-10.3 4.3-19.7 10.6-27.6 18.4-7.8 7.9-14.1 17.3-18.4 27.6-4.2 10.3-6.4 21.3-6.4 32.5 0 11.2 2.2 22.2 6.4 32.5 4.3 10.3 10.6 19.7 18.4 27.6 7.9 7.8 17.3 14.1 27.6 18.4 10.3 4.2 21.3 6.4 32.5 6.4 11.2 0 22.2-2.2 32.5-6.4 10.3-4.3 19.7-10.6 27.6-18.4 7.8-7.9 14.1-17.3 18.4-27.6 4.2-10.3 6.4-21.3 6.4-32.5 0-11.2-2.2-22.2-6.4-32.5-4.3-10.3-10.6-19.7-18.4-27.6-7.9-7.8-17.3-14.1-27.6-18.4-10.3-4.2-21.3-6.4-32.5-6.4z"/>
		<path class="s1" d="m48.8 81.6c0-10.1 10.1-16.4 18.2-11.4l22.9 14.4c8.1 5.1 8.1 17.7 0 22.8l-22.9 14.4c-8.1 5-18.2-1.3-18.2-11.4z"/>
	</g>
</svg>