<svg version="1.2" xmlns="http://www.w3.org/2000/svg" viewBox="0 0 108 108" width="24" height="24">
	<title>ytm_mmt-svg</title>
	<style>
		.s0 { fill: #000000 } 
	</style>
	<path id="path_0" fill-rule="evenodd" class="s0" d="m0 87.3v-65.9c0-7.3 5-9.5 10.6-5.3l44 31.1c5.8 3.9 5.8 10.6 0 14.8l-43.7 31.2c-6.4 3.9-10.9 1.4-10.9-5.9zm67.4 7.5c-11.2 0-21.5-4.4-28.4-11.9l18.6-13.4c2.8 1.7 6.1 3.1 10.3 3.1 10.3 0 18.7-8.4 18.7-18.7 0-10.3-8.4-18.6-18.7-18.6-3.6 0-7.2 0.8-10.3 3l-18.6-13.3c7.2-7.3 17.2-12 28.4-12 22.2 0 40.6 18.4 40.6 40.6 0 23.1-17.8 41.2-40.6 41.2zm0.5-35.9c-2.4 0-4.4-2-4.4-4.4 0-2.5 2-4.5 4.4-4.5 2.5 0 4.5 2 4.5 4.5 0 2.4-2 4.4-4.5 4.4z"/>
</svg>