<svg version="1.2" xmlns="http://www.w3.org/2000/svg" viewBox="0 0 250 250" width="24" height="24">
	<title>New Project</title>
	<style>
		.s0 { fill: #000000 } 
		.s1 { opacity: .7;fill: #000000 } 
	</style>
	<g id="Folder 1">
		<path class="s0" d="m137.2 16c0.1 0 0.1 0 0.3 0q0.4 0 0.9 0 0.4 0 0.7 0 0.7 0 1.4 0 0.9 0 1.8 0 0.7 0 1.5 0 0.3 0 0.6 0 0.5 0 1 0c0.1 0 0.1 0 0.2 0q0.8 0 1.5 0.1 0.4 0 0.8 0c0.1 0 0.1 0 0.3 0.1q0.3 0 0.6 0c0.2 0 0.2 0 0.3 0q0.2 0 0.3 0 0.4 0 0.8 0.1 0.3 0 0.5 0.1c0.2 0 0.2 0 0.4 0q0.1 0 0.3 0c0.8 0.1 1.6 0.1 2.3 0.3q0.5 0 0.9 0.1 1.6 0.2 3.2 0.5 0.5 0.1 1.1 0.1 0.1 0.1 0.2 0.1 1 0.2 2 0.3c0.2 0 0.2 0 0.4 0.1q0.3 0.1 0.6 0.1 0.8 0.1 1.6 0.3 0.6 0.2 1.2 0.3 1.4 0.2 2.8 0.6 0.6 0.1 1.1 0.3 1.7 0.4 3.4 0.9 0.4 0.1 0.7 0.2 1.6 0.5 3.2 1.1c0.1 0 0.1 0 0.3 0.1q1.2 0.4 2.4 0.8 0.1 0 0.2 0.1 0.8 0.3 1.7 0.6 0.4 0.2 0.9 0.4 1.3 0.5 2.5 1 0.1 0.1 0.2 0.1c1.7 0.7 3.4 1.4 5 2.3q0.3 0.1 0.6 0.2 2.7 1.4 5.3 2.9 0.4 0.3 0.8 0.5 1.4 0.8 2.8 1.7 0.1 0 0.2 0.1 0.9 0.6 1.8 1.2 0.5 0.4 1.1 0.7c1.8 1.2 3.5 2.4 5.1 3.6q0.2 0.1 0.4 0.3 0.4 0.3 0.8 0.6 0.1 0.1 0.3 0.3 1.1 0.8 2.1 1.7 0.5 0.4 1.1 0.9 0.8 0.7 1.6 1.4 0.4 0.3 0.7 0.7 1.5 1.3 2.9 2.7 0.6 0.6 1.2 1.1 0.4 0.4 0.8 0.7 0.1 0.2 0.2 0.3 0.3 0.3 0.6 0.7 0.6 0.6 1.2 1.2c0.6 0.5 1.1 1.1 1.6 1.7q0.4 0.5 0.8 1 0.2 0.2 0.4 0.4 0 0.1 0.1 0.2 1.3 1.5 2.6 3.1 0 0 0.1 0.1 0.4 0.5 0.8 1.1 0.3 0.3 0.5 0.6 1 1.3 2 2.6 0.3 0.5 0.7 1c0.6 0.8 1.2 1.8 1.8 2.7q0.2 0.3 0.5 0.7c1.1 1.7 2.1 3.4 3 5.2q0.5 0.7 0.9 1.5 1.5 2.6 2.7 5.3 0.1 0.2 0.2 0.3 1.6 3.5 3 7.1c0.1 0.2 0.1 0.2 0.1 0.4q0.4 1 0.8 2 0.1 0.2 0.1 0.3 1.1 3 1.9 6.1 0.3 0.9 0.5 1.8c1.4 4.9 2.4 9.9 3 14.9q0 0.2 0 0.3c0.4 2.9 0.6 5.9 0.8 8.9q0 0.1 0 0.3 0.2 3 0.2 6 0 0.1 0 0.3 0 0.4 0 0.7c0 0.2 0 0.2 0 0.3q0 0.6-0.1 1.2 0 0.2 0 0.5 0 0.2-0.1 0.3 0 0.3 0 0.6 0 1.1-0.1 2.1-0.2 1.6-0.3 3.1c-0.1 1.3-0.2 2.5-0.4 3.8q-0.1 0.7-0.2 1.3c-0.1 1.1-0.3 2.3-0.5 3.4q-0.1 0.4-0.2 0.8 0 0.2 0 0.5-0.1 0.1-0.1 0.2-0.1 0.7-0.3 1.4-0.1 0.3-0.1 0.7-0.5 2.7-1.3 5.3 0 0.1-0.1 0.2-0.1 0.5-0.3 1-0.1 0.5-0.3 1.1-0.4 1.5-0.9 2.9-0.2 0.6-0.3 1.2-0.2 0.5-0.4 1-0.1 0.2-0.1 0.4-0.5 1.2-1 2.4-0.4 1.1-0.8 2.2-0.3 0.7-0.6 1.4-0.1 0.3-0.2 0.6c-0.5 1.3-1.1 2.5-1.7 3.8q-0.4 0.7-0.7 1.4-1.2 2.5-2.6 5-0.6 0.9-1.1 1.8-1 1.8-2.1 3.5-0.3 0.4-0.5 0.8c-0.1 0.2-0.1 0.2-0.2 0.3q-0.2 0.3-0.4 0.6-0.5 0.9-1.1 1.7-0.2 0.3-0.3 0.5-1 1.3-2 2.6-0.2 0.3-0.4 0.6-0.9 1.2-1.8 2.2-0.4 0.5-0.8 1.1-0.5 0.5-0.9 1-0.2 0.3-0.4 0.6-0.7 0.8-1.5 1.6-0.3 0.4-0.6 0.7-1 1.2-2 2.2-0.3 0.3-0.6 0.6-0.7 0.8-1.5 1.6-0.2 0.2-0.5 0.5-0.1 0.1-0.3 0.3 0 0.1-0.1 0.1c-0.4 0.4-0.4 0.4-0.6 0.4q0 0.1-0.1 0.3c-0.1 0.1-0.1 0.1-0.3 0.3q-0.5 0.4-1 0.9-0.5 0.5-1.1 1-0.3 0.3-0.6 0.6-0.8 0.7-1.7 1.4-0.4 0.4-0.9 0.8-0.7 0.7-1.6 1.4-0.1 0.1-0.3 0.2-2 1.6-4.1 3.1-0.3 0.2-0.6 0.4c-2.3 1.7-4.7 3.2-7.1 4.6q-0.1 0.1-0.3 0.2c-2.6 1.5-5.2 3.1-8 4.4q-0.1 0.1-0.3 0.1-1.8 1-3.8 1.8-0.5 0.2-1 0.4c-2.5 1-5 2-7.5 2.9q-0.2 0-0.4 0.1-2.3 0.8-4.7 1.5-0.4 0.1-0.8 0.2c-1.2 0.4-2.4 0.7-3.6 0.9-0.1 0.1-0.1 0.1-0.2 0.1q-1.4 0.3-2.8 0.6-0.6 0.1-1.2 0.2-1 0.2-1.9 0.4-0.8 0.1-1.5 0.2c-0.1 0-0.1 0-0.2 0q-0.5 0.1-0.9 0.2c-2 0.4-4 0.6-6 0.8q-0.3 0.1-0.6 0.1c-6.5 0.8-13 0.5-19.4 0.1-0.2-0.1-0.2-0.1-0.4-0.1q-0.5 0-1 0-0.1-0.1-0.3-0.1-0.1 0-0.3 0-0.1 0-0.2 0-0.3-0.1-0.6-0.1-0.5-0.1-1-0.1c-0.3 0-0.3 0-0.6-0.1q-0.3-0.1-0.5-0.1-0.8-0.1-1.6-0.2-0.7-0.1-1.3-0.2-1.9-0.3-3.8-0.7-0.5-0.1-1.1-0.2c-1.2-0.3-2.3-0.5-3.5-0.8q-0.4-0.1-0.7-0.2c-0.1 0-0.1 0-0.2-0.1q-0.1 0-0.2 0c-0.1 0-0.1 0-0.2-0.1q-0.3 0-0.6-0.1c-3.1-0.8-6.2-1.8-9.3-2.9q-0.2 0-0.5-0.1c-3.5-1.2-7-2.8-10.3-4.5q-0.5-0.2-1-0.4-2.3-1.2-4.5-2.4-0.5-0.3-1-0.6c-0.1 0-0.1 0-0.2-0.1q-0.4-0.2-0.8-0.4-1.2-0.7-2.3-1.4-0.1-0.1-0.2-0.1-1.8-1.2-3.6-2.4-0.1-0.1-0.2-0.1-1.4-1-2.7-2-0.7-0.5-1.3-0.9-1.2-0.9-2.3-1.8-0.6-0.5-1.2-0.9-0.7-0.6-1.4-1.2-0.3-0.4-0.7-0.7c-0.6-0.4-1.2-1-1.8-1.5q-0.3-0.4-0.7-0.7c-1.2-1-2.3-2.1-3.5-3.3q-0.4-0.4-0.8-0.8-0.2-0.2-0.5-0.5-0.1-0.1-0.2-0.2-0.7-0.7-1.2-1.3-0.4-0.5-0.8-0.9-1-1-1.8-2-0.2-0.3-0.4-0.5-0.9-1-1.7-2-0.3-0.5-0.7-0.9-0.8-1-1.5-2-0.6-0.8-1.3-1.5c-0.3-0.5-0.3-0.5-0.3-0.9 0.2-0.1 0.2-0.1 0.5-0.3q0.7-0.4 1.4-0.8 0.9-0.6 1.9-1.2 1-0.5 1.9-1 0.1-0.1 0.3-0.2 0.6-0.4 1.2-0.7 1.8-1.1 3.7-2.1 1.2-0.7 2.4-1.4 1-0.6 2-1.2 1.4-0.7 2.7-1.5 1.6-0.9 3.1-1.8 0.7-0.4 1.3-0.8 0.5-0.3 1-0.5 0.7-0.4 1.3-0.8 1.8-1 3.5-2 1.3-0.7 2.6-1.5 1.2-0.7 2.5-1.4 1.5-0.8 2.9-1.7 1.2-0.7 2.5-1.4 1-0.6 2-1.2 1.3-0.7 2.6-1.5 0 0 0.1-0.1 0.7-0.4 1.5-0.8 0.6-0.3 1.2-0.7 0.1 0 0.2-0.1 1.3-0.7 2.7-1.5 1.2-0.7 2.4-1.4 0.6-0.3 1.2-0.7c0.1-0.1 0.1-0.1 0.2-0.1q0.2-0.2 0.5-0.3c0.3-0.2 0.4-0.2 0.7 0 0.2 0.1 0.2 0.1 0.3 0.3 0.3 0.3 0.6 0.6 0.9 0.9q0.3 0.2 0.6 0.5c0.3 0.4 0.7 0.7 1.1 1q0.4 0.3 0.8 0.7c1 0.8 2 1.6 3 2.3q0.3 0.2 0.6 0.4c4.8 3.5 10.2 5.9 16 7.2q0.5 0.1 0.9 0.3c0.8 0.1 1.5 0.3 2.2 0.4q0.2 0 0.4 0 1.5 0.3 3 0.4 0.2 0 0.3 0c1.2 0.1 2.4 0.1 3.6 0.1q0.5 0 1.1 0c1.9 0 3.8-0.1 5.7-0.4q0.7-0.2 1.5-0.2 0.4-0.1 0.9-0.2 0.4-0.1 0.8-0.2c2.4-0.5 4.6-1.2 6.8-2q0.2 0 0.3-0.1c3.7-1.3 7.3-3.3 10.5-5.7q0.2-0.1 0.5-0.3 1.2-0.9 2.4-1.9 0.4-0.3 0.8-0.7c1.5-1.2 3-2.6 4.2-4q0.2-0.3 0.5-0.6c1.5-1.7 2.9-3.7 4.2-5.7q0.1-0.2 0.2-0.3c0.7-1.3 1.4-2.6 2-3.9q0.1-0.2 0.2-0.3c1-2 1.8-4 2.5-6.2q0.1-0.4 0.2-0.7 0.3-1 0.5-1.9 0.1-0.3 0.2-0.6 0-0.2 0.1-0.3 0.1-0.7 0.3-1.3 0.1-0.4 0.1-0.9 0.1-0.4 0.2-0.8c0.6-2.6 0.6-5.3 0.6-7.9q0-0.2 0-0.3 0-1.2-0.1-2.3-0.1-0.7-0.2-1.5c-0.3-2.8-0.3-2.8-0.8-5.6q-0.1-0.4-0.2-0.9-0.2-0.9-0.5-1.8-0.2-0.9-0.5-1.9c-0.1-0.5-0.3-1-0.5-1.5q0-0.1-0.1-0.3c-0.6-1.7-1.4-3.4-2.2-5q-0.2-0.4-0.4-0.8c-1.2-2.4-2.7-4.6-4.3-6.7-0.1-0.1-0.1-0.1-0.2-0.2q-1.1-1.4-2.3-2.8-0.3-0.3-0.6-0.6-1.1-1.3-2.4-2.4-0.2-0.1-0.3-0.2-0.4-0.4-0.7-0.7-0.4-0.3-0.7-0.5c-0.8-0.8-1.7-1.4-2.6-2q-0.3-0.2-0.6-0.5c-2.2-1.6-4.6-3-7.1-4.1q-0.2-0.1-0.5-0.2c-1.6-0.8-3.3-1.3-4.9-1.8q-0.2-0.1-0.3-0.1c-3.3-1.1-6.7-1.6-10.1-1.9q-0.2 0-0.4-0.1c-0.8 0-1.7 0-2.6 0q-0.2 0-0.3 0-0.8 0-1.7 0-0.1 0-0.2 0c-1.8 0-3.6 0.2-5.3 0.4q-0.5 0.1-0.9 0.1c-1.1 0.2-2.2 0.4-3.3 0.7-0.1 0-0.1 0-0.3 0.1-2.9 0.7-5.8 1.7-8.6 3q-0.3 0.1-0.6 0.2c-2.8 1.3-5.5 3-8 4.9q-0.3 0.2-0.5 0.4-0.9 0.6-1.6 1.3-0.5 0.5-1 0.9-1.2 1-2.3 2.1c-0.3 0.2-0.3 0.2-0.5 0.2q0 0.1 0 0.2-0.5-0.2-0.9-0.4-0.2-0.1-0.3-0.2-0.1-0.1-0.3-0.1-1-0.6-2-1.1-1.1-0.6-2.1-1.3-0.5-0.3-1-0.5-0.1-0.1-0.2-0.1-0.5-0.4-1-0.7-0.9-0.4-1.8-1c-1-0.5-1-0.5-1.9-1.1q-0.8-0.4-1.5-0.8-1.5-0.9-2.9-1.7-1.1-0.6-2.2-1.2-1-0.6-2-1.2-1.4-0.8-2.7-1.5-2.4-1.5-4.9-2.9-1.3-0.7-2.6-1.5-1.2-0.7-2.4-1.3c-3-1.7-3-1.7-4.2-2.5q-0.6-0.3-1.1-0.6-1.6-0.9-3.1-1.8-1.4-0.8-2.8-1.6-1.5-0.8-3-1.7-1.2-0.7-2.4-1.4-1.3-0.7-2.5-1.5-0.7-0.4-1.5-0.8-0.3-0.2-0.5-0.4c0-0.4 0.2-0.6 0.4-1q0.1-0.1 0.3-0.3 0-0.1 0.1-0.2 0.4-0.5 0.8-1.1c0.9-1.2 1.8-2.3 2.7-3.4q0.5-0.5 0.9-1 0.6-0.7 1.2-1.4 0.3-0.3 0.6-0.6c1.4-1.7 3-3.3 4.6-4.9q0.3-0.3 0.7-0.7 0.4-0.4 0.7-0.7 0.1-0.2 0.3-0.3 0.6-0.6 1.3-1.3 0.4-0.3 0.8-0.6 0.9-0.8 1.8-1.6 0.3-0.3 0.5-0.5 0.9-0.8 1.8-1.5 0.3-0.2 0.6-0.5 1.1-0.9 2.3-1.7 0.1-0.1 0.2-0.2 0.4-0.3 0.8-0.6 0.1 0 0.2-0.1 1.7-1.3 3.5-2.5c0.1 0 0.1 0 0.2-0.1q2-1.3 3.9-2.5c0.2-0.1 0.2-0.1 0.4-0.2q3.4-2.2 7.1-4.1 0.4-0.2 0.8-0.4c1.7-0.9 3.4-1.6 5.1-2.3q0.6-0.3 1.1-0.5 1.4-0.6 2.7-1.1 0.4-0.1 0.9-0.3 0.7-0.3 1.5-0.6 0.6-0.2 1.3-0.4 3.3-1.3 6.8-2.2 0.4-0.2 0.9-0.3c1.6-0.5 3.2-0.8 4.9-1.1 0.3-0.1 0.3-0.1 0.6-0.2q0.7-0.2 1.3-0.2 0.7-0.2 1.5-0.3 0.5-0.2 1-0.2 0.3-0.1 0.5-0.1 0.1 0 0.2-0.1 0.4 0 0.7-0.1c3-0.5 3-0.5 4.4-0.6 0.3 0 0.3 0 0.6-0.1q0.2 0 0.5 0 0.2 0 0.3-0.1 0.2 0 0.4 0 0.3 0 0.7 0c0.2 0 0.2 0 0.3-0.1q0.5 0 1-0.1 0.6-0.1 1.3-0.1 0.1 0 0.3 0 0.4 0 0.7-0.1 0.2 0 0.3 0 0.2 0 0.3 0 0.4 0 0.7 0 0.8-0.1 1.6-0.1z"/>
		<path class="s1" d="m24 45q0.2 0.1 0.4 0.1 0.8 0.3 1.5 0.6 0.1 0.1 0.2 0.1c1.1 0.5 2.2 1 3.2 1.6q0.4 0.3 0.8 0.5 1.4 0.8 2.8 1.6 2 1.2 3.9 2.3 1.4 0.8 2.8 1.6 1.4 0.9 2.8 1.7 1 0.5 2 1.1 0.6 0.4 1.3 0.8 0.6 0.4 1.3 0.7 0.2 0.1 0.3 0.2 1.3 0.8 2.6 1.5 0.3 0.2 0.6 0.4 0.1 0.1 0.3 0.2c0.6 0.3 1.2 0.7 1.9 0.9 0.2 0.1 0.2 0.1 0.4 0.4-0.1 0.4-0.2 0.6-0.4 0.9-0.5 0.6-1 1.3-1.4 1.9q-0.1 0.2-0.3 0.5-0.7 0.9-1.3 1.9-0.2 0.4-0.4 0.7-0.1 0.2-0.2 0.3-0.2 0.4-0.4 0.7-1.5 2.6-3 5.3-0.4 0.7-0.8 1.4c-0.4 0.7-0.7 1.3-1 2q-0.3 0.6-0.6 1.3-0.2 0.4-0.4 0.8c-0.1 0.1-0.1 0.1-0.1 0.2-2.2 4.4-3.9 9.1-5.3 13.8 0 0.1 0 0.1-0.1 0.3q-0.5 1.7-0.9 3.3-0.2 0.7-0.3 1.4-0.5 1.7-0.9 3.4 0 0.1 0 0.3-0.6 2.9-1.1 5.8-0.1 0.4-0.2 0.8-0.3 2-0.5 4.1 0 0.1 0 0.3-0.2 1.1-0.3 2.3 0 0.2 0 0.4-0.4 4.6-0.4 9.2 0 0.1 0 0.2c0 2.6 0.1 5.2 0.4 7.9q0.1 1.1 0.2 2.2 0 0.2 0 0.3 0 0.2 0 0.3c0 0.3 0 0.3 0.1 0.5q0.1 0.4 0.1 0.7c0 1.1 0.2 2.1 0.4 3.1q0 0.5 0.1 1 0.3 2.1 0.8 4.2 0.1 0.7 0.2 1.4 0.3 1.4 0.6 2.7 0.3 1 0.5 2c0.5 2 1 4.1 1.7 6.1q0.2 0.6 0.5 1.3c0.4 1.4 0.8 2.7 1.3 4 0.1 0.2 0.1 0.2 0.1 0.3 0.6 1.8 1.3 3.5 2.1 5.2q0.4 0.8 0.7 1.6 0.5 1.1 1 2.1 0.3 0.6 0.6 1.3 0.8 1.6 1.6 3.1 0.2 0.4 0.4 0.8 1.2 2.1 2.5 4.2 0.3 0.5 0.6 1c0.7 1.2 1.4 2.3 2.2 3.4q0.6 0.8 1.1 1.6c0.2 0.2 0.4 0.4 0.7 0.6-0.1 0.2-0.1 0.2-0.4 0.3q-0.2 0.1-0.3 0.1-0.3 0.2-0.6 0.4-0.1 0-0.2 0.1-0.2 0.1-0.4 0.2-0.4 0.3-0.9 0.6c-0.1 0-0.1 0-0.2 0.1q-0.8 0.5-1.6 0.9-0.1 0.1-0.2 0.2-0.3 0.1-0.6 0.3-0.7 0.4-1.5 0.8c-0.1 0.1-0.1 0.1-0.3 0.2q-1.2 0.7-2.4 1.4-1.4 0.9-3 1.7-0.9 0.5-1.7 1.1c-0.9 0.5-1.8 1-2.7 1.5q-1.6 1-3.2 1.9c-6 3.6-6 3.6-8.3 4.4q-0.1 0-0.2 0.1c-1 0.3-2 0.5-3 0.7q-0.2 0-0.3 0-0.7 0.1-1.3 0.1-0.1 0-0.2 0c-1.9 0-3.7 0-5.5-0.5-0.1-0.1-0.1-0.1-0.3-0.1-2.4-0.6-4.8-1.7-6.8-3.3q-0.1-0.1-0.2-0.2c-1-0.7-1.9-1.6-2.7-2.5q-0.1-0.1-0.2-0.3-1.6-2-2.6-4.3-0.1-0.1-0.1-0.2c-1.7-3.6-1.4-8.1-1.4-12q0-0.9 0-1.9 0-1.6 0-3.2 0-1.8 0-3.5 0-0.2 0-0.3 0-0.5 0-1.1 0-4.1 0-8.2 0-4 0-8.1 0-0.3 0-0.5 0-1 0-2.1 0-2.8 0-5.7 0-0.1 0-0.3 0-6.3 0-12.6 0-8.9 0-17.7 0-0.2 0-0.5 0-1 0-1.9 0-0.8 0-1.7 0-0.4 0-0.8 0-8.5 0-17.1 0-2.6 0-5.3 0-5.3 0-10.7 0-0.4 0-0.9 0-0.1 0-0.2 0-1.7 0-3.5 0-1.7 0-3.4 0.1-0.9 0.1-1.9-0.1-3.2 0-6.5 0-0.3 0-0.5c0-1.2 0.1-2.4 0.5-3.5q0.1-0.4 0.2-0.8c0.5-1.5 1.4-3.1 2.4-4.4q0-0.2 0.1-0.3c1.1-1.4 2.2-2.7 3.6-3.8q0.1-0.1 0.2-0.1c1.8-1.5 3.9-2.7 6.1-3.3q0.4-0.1 0.7-0.2c3-1.1 7.1-0.9 10.1 0.1z"/>
		<path class="s1" d="m107.1 92q0.1 0.1 0.2 0.2c0.3 0.3 0.5 0.5 0.8 0.7 0.1 0 0.1 0 0.2 0.1q0.3 0.2 0.5 0.3 0.2 0.1 0.4 0.2 0.5 0.3 1 0.6 1.8 1 3.6 2.1 0.8 0.5 1.5 0.9 0.1 0.1 0.3 0.2 0.7 0.4 1.5 0.8 0.7 0.4 1.4 0.8 1.2 0.8 2.5 1.4 0.1 0.1 0.2 0.2 0.3 0.2 0.6 0.3 1.8 1 3.6 2.1 1 0.6 2 1.2 0.9 0.4 1.6 0.9 0.9 0.5 1.8 1c5.8 3.3 5.8 3.3 7.4 5q0.1 0.2 0.3 0.3 0.1 0.1 0.2 0.2 0.1 0.1 0.2 0.2c3.1 3 5 7.7 5.1 11.9 0.1 3.6 0.1 3.6-0.5 5q-0.1 0.3-0.1 0.6c-0.7 2.9-2.3 5.8-4.3 7.9q-0.3 0.3-0.6 0.6c-0.3 0.4-0.7 0.7-1.1 1q-0.1 0.1-0.2 0.2c-1.7 1.5-3.6 2.6-5.5 3.7q-0.7 0.4-1.4 0.8-2.1 1.2-4.2 2.4-0.5 0.3-0.9 0.6c-0.2 0.1-0.2 0.1-0.4 0.1q-1 0.7-2.1 1.3-1.4 0.8-2.8 1.6-1.1 0.6-2.1 1.2-0.9 0.6-1.9 1.1-2.2 1.2-4.3 2.5-1.4 0.9-2.9 1.6c-0.5 0.3-0.5 0.3-1 0.7-0.3 0.2-0.3 0.2-0.6 0.2-0.4-0.1-0.5-0.3-0.8-0.6q0-0.1-0.1-0.2-0.2-0.2-0.5-0.5c0-0.1 0-0.1-0.1-0.2q-0.5-0.7-1-1.3-0.2-0.3-0.4-0.6-2.1-2.7-3.7-5.6-0.2-0.4-0.5-0.8c-0.4-0.8-0.8-1.6-1.2-2.4q0-0.1-0.1-0.2-0.8-1.8-1.4-3.6-0.1-0.1-0.1-0.3c-0.8-2.3-1.5-4.5-1.9-6.8q0-0.3-0.1-0.6c-0.2-0.8-0.2-1.5-0.3-2.3q0-0.2-0.1-0.4 0-0.5-0.1-1 0-0.7-0.1-1.4 0-0.1 0-0.2 0-0.1-0.1-0.2c0-0.1 0-0.1 0-0.2q0-0.3-0.1-0.6 0-0.7 0-1.4 0-0.1 0-0.3 0-0.4 0-0.9 0-0.1 0-0.3c0-1.6 0-3.1 0.3-4.6q0-0.4 0-0.8 0.2-0.9 0.4-1.9 0-0.2 0-0.4c0.1-0.5 0.2-1 0.3-1.6q0.1-0.3 0.2-0.7 0.8-3.4 2.1-6.6 0-0.2 0.1-0.3 0.5-1.3 1.1-2.5 0.1-0.3 0.3-0.6 0.4-1 1-1.9 0.1-0.3 0.3-0.5 0.3-0.7 0.7-1.3 0.3-0.4 0.5-0.7c1.1-1.9 2.5-3.6 3.9-5.3q0.7-0.8 1.3-1.7c-0.1-0.1-0.1-0.1-0.2-0.3q0.2 0.1 0.4 0.1 0-0.1 0-0.2z"/>
	</g>
</svg>