<svg version="1.2" xmlns="http://www.w3.org/2000/svg" viewBox="0 0 192 192" width="24" height="24">
	<title>zarchiver-svg</title>
	<style>
		.s0 { fill: #000000 } 
	</style>
	<g>
		<path fill-rule="evenodd" class="s0" d="m77.5 0l-59 33.7 37.9-5.6z"/>
		<path fill-rule="evenodd" class="s0" d="m102.9 6.3l33.3 18.5 35.2 20.4c9.3 5.6 7.5 3.7 7.5 13v38.9l-0.1 38.9c0 9.2 0 7.4-7.4 12.9l-42 6.7-26.5 32.2c-9.3 5.5-5.6 3.7-14.8 0l-33.3-18.5-35.2-20.4c-9.3-5.5-7.5-3.7-7.5-12.9v-77.9c0-9.2 0-7.4 7.5-12.9l42.9-6.7 25.6-32.2c4.6-2.8 6-3.7 7.4-3.5 1.4 0.3 2.8 1.7 7.4 3.5zm-57.7 46.6l6 14c2.1 4.1 2.1 4.1 6.1 4.1h12c4.1 0 4.1 0 2.1 4l-26.2 66.2c-2 6-2 4.1 4.1 4.1h64.3c8 0 6 0 4-6.1l-6.1-12c-2-4 0-4-6-4h-22.1c-6 0-6-0.1-4-6.1l24.1-64.2c2-4 2-4-4-4h-50.2c-2.3 0-3.7-0.3-4.5-0.4-1.3 0-0.8 0.6 0.4 4.4zm66.3 4l-8 20.1c-2 4-2 4 0 8l22.1 54.2c2 6.1 0 4 6 4h12.1c4 0 6-2 4-6v2l-32.1-82.3c-1.1-3-1.6-4.5-2.1-4.5-0.5 0-1 1.5-2 4.5z"/>
		<path fill-rule="evenodd" class="s0" d="m170.2 161.7l-54.1 30.3 21.1-26.4z"/>
	</g>
</svg>