<svg version="1.2" xmlns="http://www.w3.org/2000/svg" viewBox="0 0 500 500" width="24" height="24">
	<title>zomato-svg</title>
	<style>
		.s0 { fill: #000000;stroke: #000000 } 
	</style>
	<path id="path_0" class="s0" d="m57.5 1l4.5 0.5-4.5 0.5zm382 0l3.5 0.5-3.5 0.5zm-388 1l2.5 0.5-2.5 0.5zm395 0l2.5 0.5-2.5 0.5zm13 4l5.5 2.5-1.5 0.5-4-2zm-427 4l-1 2zm437 1l1 2zm-440 1l-1 2zm443 1l2 3zm-447 2l-3 4zm453 3l4 5zm-460 4l-3 4zm466 3l2 3zm-471 3l-1 2zm-2 3l-1 2zm478 1l1 2zm9 22l0.5 2.5h-1zm-497 3l0.5 4.5h-1zm498 4l0.5 378.5h-1zm-261 90l23.5 0.5-23.5 0.5zm-9 1l4.5 0.5-4.5 0.5zm38 0l4.5 0.5-4.5 0.5zm-44 1l2.5 0.5-2.5 0.5zm53 0l3.5 0.5-3.5 0.5zm-59 1l2.5 0.5-2.5 0.5zm67 0l3.5 0.5-3.5 0.5zm6 1l2.5 0.5-2.5 0.5zm5 1l2.5 0.5-2.5 0.5zm5 1l2.5 0.5-2.5 0.5zm13 3l2.5 0.5-2.5 0.5zm-130 6l1.5 0.5-2.5 1.5zm-11 6l-1 2zm-5 3l-1 2zm-3 2l-1 2zm70 0l6.5 0.5-6.5 0.5zm24 0l7.5 0.5-7.5 0.5zm13 1l2.5 0.5-2.5 0.5zm-49 1l2.5 0.5-2.5 0.5zm56 0l3.5 0.5-3.5 0.5zm-118 1l-1 2zm58 0l2.5 0.5-2.5 0.5zm66 0l2.5 0.5-2.5 0.5zm-127 2l-2 3zm137 0l3.5 0.5-3.5 0.5zm-45 1l13.5 0.5-13.5 0.5zm21 0l13.5 0.5-13.5 0.5zm29 0l2.5 0.5-2.5 0.5zm-59 1l4.5 0.5-4.5 0.5zm50 0l5.5 0.5-5.5 0.5zm14 0l1.5 0.5-3.5 1.5v-1zm4 1l5.5 1.5-4.5 0.5zm68 0l1 2zm-224 1l-6 7zm77 0l2.5 0.5-2.5 0.5zm-4 1l2.5 0.5-2.5 0.5zm154 0l1 2zm-185 2l-2 3zm188 0l1 2zm4 3l1 2zm-182 3l1.5 0.5-4.5 2.5 1-2zm186 0l2 3zm-248 1l-5 6zm254 4l8 9zm-260 3l-2 3zm270 8l3 4zm-283 5l-3 4zm287 0l1 2zm2 3l1 2zm-295 2l-2 3zm297 1l1 2zm-302 3l-1 2zm-3 2l-1 2zm-16 7l2.5 0.5-2.5 0.5zm-8 1l4.5 0.5-4.5 0.5zm-71 1l6.5 0.5-6.5 0.5zm62 0l3.5 0.5-3.5 0.5zm-29 1l11.5 0.5-11.5 0.5zm-24 26l17.5 0.5-17.5 0.5zm41 0l10.5 0.5-10.5 0.5zm-62 1l10.5 0.5-10.5 0.5zm78 0l4.5 0.5-4.5 0.5zm9 1l4.5 0.5-4.5 0.5zm24 10l1 2zm4 3l2 3zm296 2l-1 2zm-290 3l11 12zm288 0l-1 2zm-4 5l-2 3zm-271 9l2 3zm259 3l-3 4zm-255 2l11 12zm249 3l-2 3zm-4 3l-1 2zm-4 3l-1 2zm-5 3l-1 2zm-222 1l2 3zm217 2l-1 2zm-212 2l1 2zm4 3l1 2zm8 5l1 2zm133 15l2.5 0.5-2.5 0.5zm-92 3l2.5 0.5-2.5 0.5zm77 0l3.5 0.5-3.5 0.5zm-6 1l2.5 0.5-2.5 0.5zm-7 1l3.5 0.5-3.5 0.5zm-49 1l5.5 0.5-5.5 0.5zm39 0l6.5 0.5-6.5 0.5zm-25 1l16.5 0.5-16.5 0.5zm-240 90l0.5 4.5h-1zm497 4l0.5 2.5h-1zm-496 3l0.5 2.5h-1zm7 20l1 2zm479 4l-1 2zm-475 2l1 2zm472 2l-2 3zm-469 2l7 8zm460 7l-2 3zm-449 3l1 2zm444 1l-1 2zm-441 1l1 2zm436 2l-1 2zm-417 7l2.5 0.5-2.5 0.5zm5 1l2.5 0.5-2.5 0.5zm7 1l378.5 0.5-378.5 0.5zm1-498h376l1 1 11 1 15 6q10.8 6.3 18.5 15.5 11.6 12.4 15 33v385q-4.5 26.5-21.5 40.5-12.9 12.1-34 16h-386q-28.1-5.4-42.5-24.5l-9-15-5-21v-173.5h11.5l1-1 50-1 1 1h15l1 1h8l10 2q22.7 10.8 37.5 29.5l15.5 17.5q18.6 15.9 43 26l18 6 15 3 30 1 1-1h14l14-3h6l29-7 18-6 31-14 17-11 13.5-11 11-13.5 8-14 4-13v-12q-2.3-12.2-8-21-8-13.5-19.5-23.5l-27-19q-19.8-10.7-43-18l-39-9-25-2-1-1h-23l-1 1h-8l-16 3-30 11q-27.6 13.4-46.5 35.5l-10.5 12.5-3 2q-11.4 13.6-31 19l-16 1-1 1h-54l-1-1h-17l-2.5-1v-172.5l1-1 1-12 3-8q5.8-13.2 15.5-22.5 8.4-8.1 20-13l8-3 12-1zm179 176l29 1 33.5 6.5-7.5 0.5-1-1h-11l-1-1h-34l-1 1h-8l-15 3-29 12-3.5-1-1-5.5 7.5-5.5 17-6 14-3h10zm64 8l2.5 0.5-2.5 0.5zm-245-185l380.5 0.5-380.5 0.5zm-7 1l3.5 0.5-3.5 0.5zm390 0l3.5 0.5-3.5 0.5zm9 2l2.5 0.5-2.5 0.5zm13 5l3.5 2.5-1.5-0.5zm-434 2l-1 2zm439 1l1 2zm-442 1l-2 3zm446 2l3 4zm-450 1l-8 9zm459 8l2 3zm-469 3l-2 3zm473 2l1 2zm-476 2l-1 2zm478 1l1 2zm-481 4l-0.5 1.5-0.5 1.5-0.5-1.5zm-7 19l0.5 2.5h-1zm498 2l0.5 4.5h-1zm-499 4l0.5 175.5h-1zm234 92l7.5 0.5-7.5 0.5zm24 0l8.5 0.5-8.5 0.5zm-32 1l3.5 0.5-3.5 0.5zm45 0l4.5 0.5-4.5 0.5zm10 1l2.5 0.5-2.5 0.5zm-66 1l2.5 0.5-2.5 0.5zm71 0l3.5 0.5-3.5 0.5zm6 1l2.5 0.5-2.5 0.5zm10 2l2.5 0.5-2.5 0.5zm13 3l2.5 0.5-2.5 0.5zm-142 11l-1 2zm-5 3l-1 2zm73 1l16.5 0.5-16.5 0.5zm-76 1l-1 2zm66 0l2.5 0.5-2.5 0.5zm35 0l3.5 0.5-3.5 0.5zm-42 1l3.5 0.5-3.5 0.5zm50 0l4.5 0.5-4.5 0.5zm-112 1l-1 2zm125 1l2.5 0.5-2.5 0.5zm-75 1l2.5 0.5-2.5 0.5zm80 0l2.5 0.5-2.5 0.5zm76 0l3.5 2.5-1.5-0.5zm-210 1l-2 3zm105 1l6.5 0.5-6.5 0.5zm-18 1l3.5 0.5-3.5 0.5zm39 0l5.5 0.5-5.5 0.5zm-130 1l-4 5zm83 0l3.5 0.5-3.5 0.5zm58 0l6.5 0.5-6.5 0.5zm80 0l1 2zm-176 1l1.5 0.5-3.5 1.5v-1zm114.5 0q3-1 2 2-3 1-2-2zm64.5 1l1 2zm-185 2l-1 2zm188 0l1 2zm3 2l1 2zm4 3l2 3zm-196 3l1 2zm8 1l-1 2-4.5-0.5zm193 0l12 13zm-253 1l-3 4zm-5 6l-13 14zm272 8l2 3zm3 4l1 2zm-291 3l-3 4zm293 0l1 2zm2 3l1 2zm-300 1l-1 2zm-24 11l3.5 0.5-3.5 0.5zm-87 1l8.5 0.5-8.5 0.5zm77 0l5.5 0.5-5.5 0.5zm-55 1l21.5 0.5-21.5 0.5zm34 0l14.5 0.5-14.5 0.5zm364 9l0.5 8.5h-1zm-381 16l20.5 0.5-20.5 0.5zm-29 1l9.5 0.5-9.5 0.5zm62 0l5.5 0.5-5.5 0.5zm-74 1l-0.5 1.5-0.5 175.5-0.5-175.5zm84 0l5.5 0.5-5.5 0.5zm334 3l0.5 1.5-1.5 2.5-0.5-1.5zm-311 4l1 2zm3 2l1 2zm305 1l-0.5 1.5-1.5 2.5 0.5-1.5zm-302 1l2 3zm5 4l3 4zm294 0l-1 2zm-2 3l-1 2zm-2 3l-3 4zm-280 3l5 6zm275 3l-8 9zm-269 4l2 3zm4 5l14 15zm253 2l-2 3zm-4 3l-2 3zm-4 3l-2 3zm-4 3l-1 2zm-5 3l-1 2zm-219 2l2 3zm214 1l-1 2zm-209 3l1 2zm3 2l1 2zm3 2l1 2zm10 6l5.5 3.5-1.5-0.5q-4-0.5-4-3zm7 4l3.5 1.5-1.5 0.5zm113 9l2.5 0.5-2.5 0.5zm-5 1l2.5 0.5-2.5 0.5zm-73 2l2.5 0.5-2.5 0.5zm60 0l3.5 0.5-3.5 0.5zm-55 1l3.5 0.5-3.5 0.5zm47 0l4.5 0.5-4.5 0.5zm-38 1l3.5 0.5-3.5 0.5zm28 0l4.5 0.5-4.5 0.5zm238 92l0.5 3.5h-1zm-498 4l0.5 2.5h-1zm497 2l0.5 2.5h-1zm-7 20l-1 2zm-482 1l1 2zm2 3l1 2zm476 2l-1 2zm-474 1l2 3zm472 2l-10 11zm-467 4l3 4zm6 5l3 4zm449 2l-1 2zm-444 2l1 2zm438 2l-1 2zm-433 1l4.5 2.5-1.5 0.5zm17 7l2.5 0.5-2.5 0.5zm395 0l2.5 0.5-2.5 0.5zm-390 1l4.5 0.5-4.5 0.5zm384 0l3.5 0.5-3.5 0.5z"/>
</svg>